G04 #@! TF.GenerationSoftware,KiCad,Pcbnew,(6.0.0)*
G04 #@! TF.CreationDate,2022-08-08T23:12:55+02:00*
G04 #@! TF.ProjectId,FG-VCO-(core2),46472d56-434f-42d2-9863-6f726532292e,rev?*
G04 #@! TF.SameCoordinates,Original*
G04 #@! TF.FileFunction,Legend,Top*
G04 #@! TF.FilePolarity,Positive*
%FSLAX46Y46*%
G04 Gerber Fmt 4.6, Leading zero omitted, Abs format (unit mm)*
G04 Created by KiCad (PCBNEW (6.0.0)) date 2022-08-08 23:12:55*
%MOMM*%
%LPD*%
G01*
G04 APERTURE LIST*
G04 Aperture macros list*
%AMRoundRect*
0 Rectangle with rounded corners*
0 $1 Rounding radius*
0 $2 $3 $4 $5 $6 $7 $8 $9 X,Y pos of 4 corners*
0 Add a 4 corners polygon primitive as box body*
4,1,4,$2,$3,$4,$5,$6,$7,$8,$9,$2,$3,0*
0 Add four circle primitives for the rounded corners*
1,1,$1+$1,$2,$3*
1,1,$1+$1,$4,$5*
1,1,$1+$1,$6,$7*
1,1,$1+$1,$8,$9*
0 Add four rect primitives between the rounded corners*
20,1,$1+$1,$2,$3,$4,$5,0*
20,1,$1+$1,$4,$5,$6,$7,0*
20,1,$1+$1,$6,$7,$8,$9,0*
20,1,$1+$1,$8,$9,$2,$3,0*%
G04 Aperture macros list end*
%ADD10C,0.150000*%
%ADD11C,0.120000*%
%ADD12C,1.702000*%
%ADD13O,1.702000X1.702000*%
%ADD14C,1.626000*%
%ADD15RoundRect,0.051000X-0.800000X-0.800000X0.800000X-0.800000X0.800000X0.800000X-0.800000X0.800000X0*%
%ADD16RoundRect,0.051000X0.650000X0.650000X-0.650000X0.650000X-0.650000X-0.650000X0.650000X-0.650000X0*%
%ADD17C,1.402000*%
%ADD18RoundRect,0.051000X-0.850000X0.850000X-0.850000X-0.850000X0.850000X-0.850000X0.850000X0.850000X0*%
%ADD19C,1.542000*%
%ADD20C,3.302000*%
%ADD21RoundRect,0.301000X0.600000X-0.600000X0.600000X0.600000X-0.600000X0.600000X-0.600000X-0.600000X0*%
%ADD22C,1.802000*%
%ADD23RoundRect,0.051000X-0.850000X-0.850000X0.850000X-0.850000X0.850000X0.850000X-0.850000X0.850000X0*%
%ADD24RoundRect,0.051000X0.800000X0.800000X-0.800000X0.800000X-0.800000X-0.800000X0.800000X-0.800000X0*%
%ADD25O,1.802000X1.802000*%
%ADD26RoundRect,0.051000X0.850000X0.850000X-0.850000X0.850000X-0.850000X-0.850000X0.850000X-0.850000X0*%
G04 APERTURE END LIST*
D10*
X8247142Y-91892380D02*
X7913809Y-91416190D01*
X7675714Y-91892380D02*
X7675714Y-90892380D01*
X8056666Y-90892380D01*
X8151904Y-90940000D01*
X8199523Y-90987619D01*
X8247142Y-91082857D01*
X8247142Y-91225714D01*
X8199523Y-91320952D01*
X8151904Y-91368571D01*
X8056666Y-91416190D01*
X7675714Y-91416190D01*
X9199523Y-91892380D02*
X8628095Y-91892380D01*
X8913809Y-91892380D02*
X8913809Y-90892380D01*
X8818571Y-91035238D01*
X8723333Y-91130476D01*
X8628095Y-91178095D01*
X9532857Y-90892380D02*
X10199523Y-90892380D01*
X9770952Y-91892380D01*
X2992380Y-33027857D02*
X2516190Y-33361190D01*
X2992380Y-33599285D02*
X1992380Y-33599285D01*
X1992380Y-33218333D01*
X2040000Y-33123095D01*
X2087619Y-33075476D01*
X2182857Y-33027857D01*
X2325714Y-33027857D01*
X2420952Y-33075476D01*
X2468571Y-33123095D01*
X2516190Y-33218333D01*
X2516190Y-33599285D01*
X2992380Y-32075476D02*
X2992380Y-32646904D01*
X2992380Y-32361190D02*
X1992380Y-32361190D01*
X2135238Y-32456428D01*
X2230476Y-32551666D01*
X2278095Y-32646904D01*
X1992380Y-31742142D02*
X1992380Y-31123095D01*
X2373333Y-31456428D01*
X2373333Y-31313571D01*
X2420952Y-31218333D01*
X2468571Y-31170714D01*
X2563809Y-31123095D01*
X2801904Y-31123095D01*
X2897142Y-31170714D01*
X2944761Y-31218333D01*
X2992380Y-31313571D01*
X2992380Y-31599285D01*
X2944761Y-31694523D01*
X2897142Y-31742142D01*
X11422142Y-35917142D02*
X11374523Y-35964761D01*
X11231666Y-36012380D01*
X11136428Y-36012380D01*
X10993571Y-35964761D01*
X10898333Y-35869523D01*
X10850714Y-35774285D01*
X10803095Y-35583809D01*
X10803095Y-35440952D01*
X10850714Y-35250476D01*
X10898333Y-35155238D01*
X10993571Y-35060000D01*
X11136428Y-35012380D01*
X11231666Y-35012380D01*
X11374523Y-35060000D01*
X11422142Y-35107619D01*
X11803095Y-35107619D02*
X11850714Y-35060000D01*
X11945952Y-35012380D01*
X12184047Y-35012380D01*
X12279285Y-35060000D01*
X12326904Y-35107619D01*
X12374523Y-35202857D01*
X12374523Y-35298095D01*
X12326904Y-35440952D01*
X11755476Y-36012380D01*
X12374523Y-36012380D01*
X12707857Y-35012380D02*
X13326904Y-35012380D01*
X12993571Y-35393333D01*
X13136428Y-35393333D01*
X13231666Y-35440952D01*
X13279285Y-35488571D01*
X13326904Y-35583809D01*
X13326904Y-35821904D01*
X13279285Y-35917142D01*
X13231666Y-35964761D01*
X13136428Y-36012380D01*
X12850714Y-36012380D01*
X12755476Y-35964761D01*
X12707857Y-35917142D01*
X34107380Y-21121666D02*
X33631190Y-21455000D01*
X34107380Y-21693095D02*
X33107380Y-21693095D01*
X33107380Y-21312142D01*
X33155000Y-21216904D01*
X33202619Y-21169285D01*
X33297857Y-21121666D01*
X33440714Y-21121666D01*
X33535952Y-21169285D01*
X33583571Y-21216904D01*
X33631190Y-21312142D01*
X33631190Y-21693095D01*
X34107380Y-20645476D02*
X34107380Y-20455000D01*
X34059761Y-20359761D01*
X34012142Y-20312142D01*
X33869285Y-20216904D01*
X33678809Y-20169285D01*
X33297857Y-20169285D01*
X33202619Y-20216904D01*
X33155000Y-20264523D01*
X33107380Y-20359761D01*
X33107380Y-20550238D01*
X33155000Y-20645476D01*
X33202619Y-20693095D01*
X33297857Y-20740714D01*
X33535952Y-20740714D01*
X33631190Y-20693095D01*
X33678809Y-20645476D01*
X33726428Y-20550238D01*
X33726428Y-20359761D01*
X33678809Y-20264523D01*
X33631190Y-20216904D01*
X33535952Y-20169285D01*
X8247142Y-95067380D02*
X7913809Y-94591190D01*
X7675714Y-95067380D02*
X7675714Y-94067380D01*
X8056666Y-94067380D01*
X8151904Y-94115000D01*
X8199523Y-94162619D01*
X8247142Y-94257857D01*
X8247142Y-94400714D01*
X8199523Y-94495952D01*
X8151904Y-94543571D01*
X8056666Y-94591190D01*
X7675714Y-94591190D01*
X9199523Y-95067380D02*
X8628095Y-95067380D01*
X8913809Y-95067380D02*
X8913809Y-94067380D01*
X8818571Y-94210238D01*
X8723333Y-94305476D01*
X8628095Y-94353095D01*
X9770952Y-94495952D02*
X9675714Y-94448333D01*
X9628095Y-94400714D01*
X9580476Y-94305476D01*
X9580476Y-94257857D01*
X9628095Y-94162619D01*
X9675714Y-94115000D01*
X9770952Y-94067380D01*
X9961428Y-94067380D01*
X10056666Y-94115000D01*
X10104285Y-94162619D01*
X10151904Y-94257857D01*
X10151904Y-94305476D01*
X10104285Y-94400714D01*
X10056666Y-94448333D01*
X9961428Y-94495952D01*
X9770952Y-94495952D01*
X9675714Y-94543571D01*
X9628095Y-94591190D01*
X9580476Y-94686428D01*
X9580476Y-94876904D01*
X9628095Y-94972142D01*
X9675714Y-95019761D01*
X9770952Y-95067380D01*
X9961428Y-95067380D01*
X10056666Y-95019761D01*
X10104285Y-94972142D01*
X10151904Y-94876904D01*
X10151904Y-94686428D01*
X10104285Y-94591190D01*
X10056666Y-94543571D01*
X9961428Y-94495952D01*
X4341904Y-70937380D02*
X4341904Y-69937380D01*
X4580000Y-69937380D01*
X4722857Y-69985000D01*
X4818095Y-70080238D01*
X4865714Y-70175476D01*
X4913333Y-70365952D01*
X4913333Y-70508809D01*
X4865714Y-70699285D01*
X4818095Y-70794523D01*
X4722857Y-70889761D01*
X4580000Y-70937380D01*
X4341904Y-70937380D01*
X5246666Y-69937380D02*
X5865714Y-69937380D01*
X5532380Y-70318333D01*
X5675238Y-70318333D01*
X5770476Y-70365952D01*
X5818095Y-70413571D01*
X5865714Y-70508809D01*
X5865714Y-70746904D01*
X5818095Y-70842142D01*
X5770476Y-70889761D01*
X5675238Y-70937380D01*
X5389523Y-70937380D01*
X5294285Y-70889761D01*
X5246666Y-70842142D01*
X1008095Y-69137380D02*
X1008095Y-68137380D01*
X1579523Y-69137380D02*
X1150952Y-68565952D01*
X1579523Y-68137380D02*
X1008095Y-68708809D01*
X8128095Y-83907380D02*
X8128095Y-84716904D01*
X8175714Y-84812142D01*
X8223333Y-84859761D01*
X8318571Y-84907380D01*
X8509047Y-84907380D01*
X8604285Y-84859761D01*
X8651904Y-84812142D01*
X8699523Y-84716904D01*
X8699523Y-83907380D01*
X9128095Y-84002619D02*
X9175714Y-83955000D01*
X9270952Y-83907380D01*
X9509047Y-83907380D01*
X9604285Y-83955000D01*
X9651904Y-84002619D01*
X9699523Y-84097857D01*
X9699523Y-84193095D01*
X9651904Y-84335952D01*
X9080476Y-84907380D01*
X9699523Y-84907380D01*
X40632142Y-29567142D02*
X40584523Y-29614761D01*
X40441666Y-29662380D01*
X40346428Y-29662380D01*
X40203571Y-29614761D01*
X40108333Y-29519523D01*
X40060714Y-29424285D01*
X40013095Y-29233809D01*
X40013095Y-29090952D01*
X40060714Y-28900476D01*
X40108333Y-28805238D01*
X40203571Y-28710000D01*
X40346428Y-28662380D01*
X40441666Y-28662380D01*
X40584523Y-28710000D01*
X40632142Y-28757619D01*
X41013095Y-28757619D02*
X41060714Y-28710000D01*
X41155952Y-28662380D01*
X41394047Y-28662380D01*
X41489285Y-28710000D01*
X41536904Y-28757619D01*
X41584523Y-28852857D01*
X41584523Y-28948095D01*
X41536904Y-29090952D01*
X40965476Y-29662380D01*
X41584523Y-29662380D01*
X42441666Y-28995714D02*
X42441666Y-29662380D01*
X42203571Y-28614761D02*
X41965476Y-29329047D01*
X42584523Y-29329047D01*
X26027142Y-48617142D02*
X25979523Y-48664761D01*
X25836666Y-48712380D01*
X25741428Y-48712380D01*
X25598571Y-48664761D01*
X25503333Y-48569523D01*
X25455714Y-48474285D01*
X25408095Y-48283809D01*
X25408095Y-48140952D01*
X25455714Y-47950476D01*
X25503333Y-47855238D01*
X25598571Y-47760000D01*
X25741428Y-47712380D01*
X25836666Y-47712380D01*
X25979523Y-47760000D01*
X26027142Y-47807619D01*
X26979523Y-48712380D02*
X26408095Y-48712380D01*
X26693809Y-48712380D02*
X26693809Y-47712380D01*
X26598571Y-47855238D01*
X26503333Y-47950476D01*
X26408095Y-47998095D01*
X27836666Y-47712380D02*
X27646190Y-47712380D01*
X27550952Y-47760000D01*
X27503333Y-47807619D01*
X27408095Y-47950476D01*
X27360476Y-48140952D01*
X27360476Y-48521904D01*
X27408095Y-48617142D01*
X27455714Y-48664761D01*
X27550952Y-48712380D01*
X27741428Y-48712380D01*
X27836666Y-48664761D01*
X27884285Y-48617142D01*
X27931904Y-48521904D01*
X27931904Y-48283809D01*
X27884285Y-48188571D01*
X27836666Y-48140952D01*
X27741428Y-48093333D01*
X27550952Y-48093333D01*
X27455714Y-48140952D01*
X27408095Y-48188571D01*
X27360476Y-48283809D01*
X43688095Y-83907380D02*
X43688095Y-84716904D01*
X43735714Y-84812142D01*
X43783333Y-84859761D01*
X43878571Y-84907380D01*
X44069047Y-84907380D01*
X44164285Y-84859761D01*
X44211904Y-84812142D01*
X44259523Y-84716904D01*
X44259523Y-83907380D01*
X44640476Y-83907380D02*
X45259523Y-83907380D01*
X44926190Y-84288333D01*
X45069047Y-84288333D01*
X45164285Y-84335952D01*
X45211904Y-84383571D01*
X45259523Y-84478809D01*
X45259523Y-84716904D01*
X45211904Y-84812142D01*
X45164285Y-84859761D01*
X45069047Y-84907380D01*
X44783333Y-84907380D01*
X44688095Y-84859761D01*
X44640476Y-84812142D01*
X20137380Y-50331666D02*
X19661190Y-50665000D01*
X20137380Y-50903095D02*
X19137380Y-50903095D01*
X19137380Y-50522142D01*
X19185000Y-50426904D01*
X19232619Y-50379285D01*
X19327857Y-50331666D01*
X19470714Y-50331666D01*
X19565952Y-50379285D01*
X19613571Y-50426904D01*
X19661190Y-50522142D01*
X19661190Y-50903095D01*
X19137380Y-49474523D02*
X19137380Y-49665000D01*
X19185000Y-49760238D01*
X19232619Y-49807857D01*
X19375476Y-49903095D01*
X19565952Y-49950714D01*
X19946904Y-49950714D01*
X20042142Y-49903095D01*
X20089761Y-49855476D01*
X20137380Y-49760238D01*
X20137380Y-49569761D01*
X20089761Y-49474523D01*
X20042142Y-49426904D01*
X19946904Y-49379285D01*
X19708809Y-49379285D01*
X19613571Y-49426904D01*
X19565952Y-49474523D01*
X19518333Y-49569761D01*
X19518333Y-49760238D01*
X19565952Y-49855476D01*
X19613571Y-49903095D01*
X19708809Y-49950714D01*
X1809761Y-45632619D02*
X1714523Y-45585000D01*
X1619285Y-45489761D01*
X1476428Y-45346904D01*
X1381190Y-45299285D01*
X1285952Y-45299285D01*
X1333571Y-45537380D02*
X1238333Y-45489761D01*
X1143095Y-45394523D01*
X1095476Y-45204047D01*
X1095476Y-44870714D01*
X1143095Y-44680238D01*
X1238333Y-44585000D01*
X1333571Y-44537380D01*
X1524047Y-44537380D01*
X1619285Y-44585000D01*
X1714523Y-44680238D01*
X1762142Y-44870714D01*
X1762142Y-45204047D01*
X1714523Y-45394523D01*
X1619285Y-45489761D01*
X1524047Y-45537380D01*
X1333571Y-45537380D01*
X2143095Y-44632619D02*
X2190714Y-44585000D01*
X2285952Y-44537380D01*
X2524047Y-44537380D01*
X2619285Y-44585000D01*
X2666904Y-44632619D01*
X2714523Y-44727857D01*
X2714523Y-44823095D01*
X2666904Y-44965952D01*
X2095476Y-45537380D01*
X2714523Y-45537380D01*
X26027142Y-71477142D02*
X25979523Y-71524761D01*
X25836666Y-71572380D01*
X25741428Y-71572380D01*
X25598571Y-71524761D01*
X25503333Y-71429523D01*
X25455714Y-71334285D01*
X25408095Y-71143809D01*
X25408095Y-71000952D01*
X25455714Y-70810476D01*
X25503333Y-70715238D01*
X25598571Y-70620000D01*
X25741428Y-70572380D01*
X25836666Y-70572380D01*
X25979523Y-70620000D01*
X26027142Y-70667619D01*
X26408095Y-70667619D02*
X26455714Y-70620000D01*
X26550952Y-70572380D01*
X26789047Y-70572380D01*
X26884285Y-70620000D01*
X26931904Y-70667619D01*
X26979523Y-70762857D01*
X26979523Y-70858095D01*
X26931904Y-71000952D01*
X26360476Y-71572380D01*
X26979523Y-71572380D01*
X27931904Y-71572380D02*
X27360476Y-71572380D01*
X27646190Y-71572380D02*
X27646190Y-70572380D01*
X27550952Y-70715238D01*
X27455714Y-70810476D01*
X27360476Y-70858095D01*
X25908095Y-88987380D02*
X25908095Y-89796904D01*
X25955714Y-89892142D01*
X26003333Y-89939761D01*
X26098571Y-89987380D01*
X26289047Y-89987380D01*
X26384285Y-89939761D01*
X26431904Y-89892142D01*
X26479523Y-89796904D01*
X26479523Y-88987380D01*
X27098571Y-89415952D02*
X27003333Y-89368333D01*
X26955714Y-89320714D01*
X26908095Y-89225476D01*
X26908095Y-89177857D01*
X26955714Y-89082619D01*
X27003333Y-89035000D01*
X27098571Y-88987380D01*
X27289047Y-88987380D01*
X27384285Y-89035000D01*
X27431904Y-89082619D01*
X27479523Y-89177857D01*
X27479523Y-89225476D01*
X27431904Y-89320714D01*
X27384285Y-89368333D01*
X27289047Y-89415952D01*
X27098571Y-89415952D01*
X27003333Y-89463571D01*
X26955714Y-89511190D01*
X26908095Y-89606428D01*
X26908095Y-89796904D01*
X26955714Y-89892142D01*
X27003333Y-89939761D01*
X27098571Y-89987380D01*
X27289047Y-89987380D01*
X27384285Y-89939761D01*
X27431904Y-89892142D01*
X27479523Y-89796904D01*
X27479523Y-89606428D01*
X27431904Y-89511190D01*
X27384285Y-89463571D01*
X27289047Y-89415952D01*
X9993333Y-52427142D02*
X9945714Y-52474761D01*
X9802857Y-52522380D01*
X9707619Y-52522380D01*
X9564761Y-52474761D01*
X9469523Y-52379523D01*
X9421904Y-52284285D01*
X9374285Y-52093809D01*
X9374285Y-51950952D01*
X9421904Y-51760476D01*
X9469523Y-51665238D01*
X9564761Y-51570000D01*
X9707619Y-51522380D01*
X9802857Y-51522380D01*
X9945714Y-51570000D01*
X9993333Y-51617619D01*
X10945714Y-52522380D02*
X10374285Y-52522380D01*
X10660000Y-52522380D02*
X10660000Y-51522380D01*
X10564761Y-51665238D01*
X10469523Y-51760476D01*
X10374285Y-51808095D01*
X20137380Y-34297857D02*
X19661190Y-34631190D01*
X20137380Y-34869285D02*
X19137380Y-34869285D01*
X19137380Y-34488333D01*
X19185000Y-34393095D01*
X19232619Y-34345476D01*
X19327857Y-34297857D01*
X19470714Y-34297857D01*
X19565952Y-34345476D01*
X19613571Y-34393095D01*
X19661190Y-34488333D01*
X19661190Y-34869285D01*
X20137380Y-33345476D02*
X20137380Y-33916904D01*
X20137380Y-33631190D02*
X19137380Y-33631190D01*
X19280238Y-33726428D01*
X19375476Y-33821666D01*
X19423095Y-33916904D01*
X20137380Y-32393095D02*
X20137380Y-32964523D01*
X20137380Y-32678809D02*
X19137380Y-32678809D01*
X19280238Y-32774047D01*
X19375476Y-32869285D01*
X19423095Y-32964523D01*
X25908095Y-66127380D02*
X25908095Y-66936904D01*
X25955714Y-67032142D01*
X26003333Y-67079761D01*
X26098571Y-67127380D01*
X26289047Y-67127380D01*
X26384285Y-67079761D01*
X26431904Y-67032142D01*
X26479523Y-66936904D01*
X26479523Y-66127380D01*
X27384285Y-66127380D02*
X27193809Y-66127380D01*
X27098571Y-66175000D01*
X27050952Y-66222619D01*
X26955714Y-66365476D01*
X26908095Y-66555952D01*
X26908095Y-66936904D01*
X26955714Y-67032142D01*
X27003333Y-67079761D01*
X27098571Y-67127380D01*
X27289047Y-67127380D01*
X27384285Y-67079761D01*
X27431904Y-67032142D01*
X27479523Y-66936904D01*
X27479523Y-66698809D01*
X27431904Y-66603571D01*
X27384285Y-66555952D01*
X27289047Y-66508333D01*
X27098571Y-66508333D01*
X27003333Y-66555952D01*
X26955714Y-66603571D01*
X26908095Y-66698809D01*
X5532380Y-33027857D02*
X5056190Y-33361190D01*
X5532380Y-33599285D02*
X4532380Y-33599285D01*
X4532380Y-33218333D01*
X4580000Y-33123095D01*
X4627619Y-33075476D01*
X4722857Y-33027857D01*
X4865714Y-33027857D01*
X4960952Y-33075476D01*
X5008571Y-33123095D01*
X5056190Y-33218333D01*
X5056190Y-33599285D01*
X5532380Y-32075476D02*
X5532380Y-32646904D01*
X5532380Y-32361190D02*
X4532380Y-32361190D01*
X4675238Y-32456428D01*
X4770476Y-32551666D01*
X4818095Y-32646904D01*
X4627619Y-31694523D02*
X4580000Y-31646904D01*
X4532380Y-31551666D01*
X4532380Y-31313571D01*
X4580000Y-31218333D01*
X4627619Y-31170714D01*
X4722857Y-31123095D01*
X4818095Y-31123095D01*
X4960952Y-31170714D01*
X5532380Y-31742142D01*
X5532380Y-31123095D01*
X9517142Y-73477380D02*
X9183809Y-73001190D01*
X8945714Y-73477380D02*
X8945714Y-72477380D01*
X9326666Y-72477380D01*
X9421904Y-72525000D01*
X9469523Y-72572619D01*
X9517142Y-72667857D01*
X9517142Y-72810714D01*
X9469523Y-72905952D01*
X9421904Y-72953571D01*
X9326666Y-73001190D01*
X8945714Y-73001190D01*
X10469523Y-73477380D02*
X9898095Y-73477380D01*
X10183809Y-73477380D02*
X10183809Y-72477380D01*
X10088571Y-72620238D01*
X9993333Y-72715476D01*
X9898095Y-72763095D01*
X11326666Y-72477380D02*
X11136190Y-72477380D01*
X11040952Y-72525000D01*
X10993333Y-72572619D01*
X10898095Y-72715476D01*
X10850476Y-72905952D01*
X10850476Y-73286904D01*
X10898095Y-73382142D01*
X10945714Y-73429761D01*
X11040952Y-73477380D01*
X11231428Y-73477380D01*
X11326666Y-73429761D01*
X11374285Y-73382142D01*
X11421904Y-73286904D01*
X11421904Y-73048809D01*
X11374285Y-72953571D01*
X11326666Y-72905952D01*
X11231428Y-72858333D01*
X11040952Y-72858333D01*
X10945714Y-72905952D01*
X10898095Y-72953571D01*
X10850476Y-73048809D01*
X33956666Y-80097380D02*
X33956666Y-80811666D01*
X33909047Y-80954523D01*
X33813809Y-81049761D01*
X33670952Y-81097380D01*
X33575714Y-81097380D01*
X34337619Y-80097380D02*
X35004285Y-80097380D01*
X34575714Y-81097380D01*
X49363333Y-84812142D02*
X49315714Y-84859761D01*
X49172857Y-84907380D01*
X49077619Y-84907380D01*
X48934761Y-84859761D01*
X48839523Y-84764523D01*
X48791904Y-84669285D01*
X48744285Y-84478809D01*
X48744285Y-84335952D01*
X48791904Y-84145476D01*
X48839523Y-84050238D01*
X48934761Y-83955000D01*
X49077619Y-83907380D01*
X49172857Y-83907380D01*
X49315714Y-83955000D01*
X49363333Y-84002619D01*
X50268095Y-83907380D02*
X49791904Y-83907380D01*
X49744285Y-84383571D01*
X49791904Y-84335952D01*
X49887142Y-84288333D01*
X50125238Y-84288333D01*
X50220476Y-84335952D01*
X50268095Y-84383571D01*
X50315714Y-84478809D01*
X50315714Y-84716904D01*
X50268095Y-84812142D01*
X50220476Y-84859761D01*
X50125238Y-84907380D01*
X49887142Y-84907380D01*
X49791904Y-84859761D01*
X49744285Y-84812142D01*
X8247142Y-67762380D02*
X7913809Y-67286190D01*
X7675714Y-67762380D02*
X7675714Y-66762380D01*
X8056666Y-66762380D01*
X8151904Y-66810000D01*
X8199523Y-66857619D01*
X8247142Y-66952857D01*
X8247142Y-67095714D01*
X8199523Y-67190952D01*
X8151904Y-67238571D01*
X8056666Y-67286190D01*
X7675714Y-67286190D01*
X9199523Y-67762380D02*
X8628095Y-67762380D01*
X8913809Y-67762380D02*
X8913809Y-66762380D01*
X8818571Y-66905238D01*
X8723333Y-67000476D01*
X8628095Y-67048095D01*
X10056666Y-67095714D02*
X10056666Y-67762380D01*
X9818571Y-66714761D02*
X9580476Y-67429047D01*
X10199523Y-67429047D01*
X47664761Y-72842380D02*
X47331428Y-72366190D01*
X47093333Y-72842380D02*
X47093333Y-71842380D01*
X47474285Y-71842380D01*
X47569523Y-71890000D01*
X47617142Y-71937619D01*
X47664761Y-72032857D01*
X47664761Y-72175714D01*
X47617142Y-72270952D01*
X47569523Y-72318571D01*
X47474285Y-72366190D01*
X47093333Y-72366190D01*
X47950476Y-71842380D02*
X48283809Y-72842380D01*
X48617142Y-71842380D01*
X48902857Y-71937619D02*
X48950476Y-71890000D01*
X49045714Y-71842380D01*
X49283809Y-71842380D01*
X49379047Y-71890000D01*
X49426666Y-71937619D01*
X49474285Y-72032857D01*
X49474285Y-72128095D01*
X49426666Y-72270952D01*
X48855238Y-72842380D01*
X49474285Y-72842380D01*
X18506666Y-87717380D02*
X18506666Y-88431666D01*
X18459047Y-88574523D01*
X18363809Y-88669761D01*
X18220952Y-88717380D01*
X18125714Y-88717380D01*
X19411428Y-87717380D02*
X19220952Y-87717380D01*
X19125714Y-87765000D01*
X19078095Y-87812619D01*
X18982857Y-87955476D01*
X18935238Y-88145952D01*
X18935238Y-88526904D01*
X18982857Y-88622142D01*
X19030476Y-88669761D01*
X19125714Y-88717380D01*
X19316190Y-88717380D01*
X19411428Y-88669761D01*
X19459047Y-88622142D01*
X19506666Y-88526904D01*
X19506666Y-88288809D01*
X19459047Y-88193571D01*
X19411428Y-88145952D01*
X19316190Y-88098333D01*
X19125714Y-88098333D01*
X19030476Y-88145952D01*
X18982857Y-88193571D01*
X18935238Y-88288809D01*
X28932142Y-27947857D02*
X28979761Y-27995476D01*
X29027380Y-28138333D01*
X29027380Y-28233571D01*
X28979761Y-28376428D01*
X28884523Y-28471666D01*
X28789285Y-28519285D01*
X28598809Y-28566904D01*
X28455952Y-28566904D01*
X28265476Y-28519285D01*
X28170238Y-28471666D01*
X28075000Y-28376428D01*
X28027380Y-28233571D01*
X28027380Y-28138333D01*
X28075000Y-27995476D01*
X28122619Y-27947857D01*
X28122619Y-27566904D02*
X28075000Y-27519285D01*
X28027380Y-27424047D01*
X28027380Y-27185952D01*
X28075000Y-27090714D01*
X28122619Y-27043095D01*
X28217857Y-26995476D01*
X28313095Y-26995476D01*
X28455952Y-27043095D01*
X29027380Y-27614523D01*
X29027380Y-26995476D01*
X28027380Y-26376428D02*
X28027380Y-26281190D01*
X28075000Y-26185952D01*
X28122619Y-26138333D01*
X28217857Y-26090714D01*
X28408333Y-26043095D01*
X28646428Y-26043095D01*
X28836904Y-26090714D01*
X28932142Y-26138333D01*
X28979761Y-26185952D01*
X29027380Y-26281190D01*
X29027380Y-26376428D01*
X28979761Y-26471666D01*
X28932142Y-26519285D01*
X28836904Y-26566904D01*
X28646428Y-26614523D01*
X28408333Y-26614523D01*
X28217857Y-26566904D01*
X28122619Y-26519285D01*
X28075000Y-26471666D01*
X28027380Y-26376428D01*
X18883333Y-84812142D02*
X18835714Y-84859761D01*
X18692857Y-84907380D01*
X18597619Y-84907380D01*
X18454761Y-84859761D01*
X18359523Y-84764523D01*
X18311904Y-84669285D01*
X18264285Y-84478809D01*
X18264285Y-84335952D01*
X18311904Y-84145476D01*
X18359523Y-84050238D01*
X18454761Y-83955000D01*
X18597619Y-83907380D01*
X18692857Y-83907380D01*
X18835714Y-83955000D01*
X18883333Y-84002619D01*
X19740476Y-83907380D02*
X19550000Y-83907380D01*
X19454761Y-83955000D01*
X19407142Y-84002619D01*
X19311904Y-84145476D01*
X19264285Y-84335952D01*
X19264285Y-84716904D01*
X19311904Y-84812142D01*
X19359523Y-84859761D01*
X19454761Y-84907380D01*
X19645238Y-84907380D01*
X19740476Y-84859761D01*
X19788095Y-84812142D01*
X19835714Y-84716904D01*
X19835714Y-84478809D01*
X19788095Y-84383571D01*
X19740476Y-84335952D01*
X19645238Y-84288333D01*
X19454761Y-84288333D01*
X19359523Y-84335952D01*
X19311904Y-84383571D01*
X19264285Y-84478809D01*
X3643333Y-84812142D02*
X3595714Y-84859761D01*
X3452857Y-84907380D01*
X3357619Y-84907380D01*
X3214761Y-84859761D01*
X3119523Y-84764523D01*
X3071904Y-84669285D01*
X3024285Y-84478809D01*
X3024285Y-84335952D01*
X3071904Y-84145476D01*
X3119523Y-84050238D01*
X3214761Y-83955000D01*
X3357619Y-83907380D01*
X3452857Y-83907380D01*
X3595714Y-83955000D01*
X3643333Y-84002619D01*
X3976666Y-83907380D02*
X4643333Y-83907380D01*
X4214761Y-84907380D01*
X9517142Y-76017380D02*
X9183809Y-75541190D01*
X8945714Y-76017380D02*
X8945714Y-75017380D01*
X9326666Y-75017380D01*
X9421904Y-75065000D01*
X9469523Y-75112619D01*
X9517142Y-75207857D01*
X9517142Y-75350714D01*
X9469523Y-75445952D01*
X9421904Y-75493571D01*
X9326666Y-75541190D01*
X8945714Y-75541190D01*
X10469523Y-76017380D02*
X9898095Y-76017380D01*
X10183809Y-76017380D02*
X10183809Y-75017380D01*
X10088571Y-75160238D01*
X9993333Y-75255476D01*
X9898095Y-75303095D01*
X11374285Y-75017380D02*
X10898095Y-75017380D01*
X10850476Y-75493571D01*
X10898095Y-75445952D01*
X10993333Y-75398333D01*
X11231428Y-75398333D01*
X11326666Y-75445952D01*
X11374285Y-75493571D01*
X11421904Y-75588809D01*
X11421904Y-75826904D01*
X11374285Y-75922142D01*
X11326666Y-75969761D01*
X11231428Y-76017380D01*
X10993333Y-76017380D01*
X10898095Y-75969761D01*
X10850476Y-75922142D01*
X34107380Y-63031666D02*
X33631190Y-63365000D01*
X34107380Y-63603095D02*
X33107380Y-63603095D01*
X33107380Y-63222142D01*
X33155000Y-63126904D01*
X33202619Y-63079285D01*
X33297857Y-63031666D01*
X33440714Y-63031666D01*
X33535952Y-63079285D01*
X33583571Y-63126904D01*
X33631190Y-63222142D01*
X33631190Y-63603095D01*
X33440714Y-62174523D02*
X34107380Y-62174523D01*
X33059761Y-62412619D02*
X33774047Y-62650714D01*
X33774047Y-62031666D01*
X34107380Y-50331666D02*
X33631190Y-50665000D01*
X34107380Y-50903095D02*
X33107380Y-50903095D01*
X33107380Y-50522142D01*
X33155000Y-50426904D01*
X33202619Y-50379285D01*
X33297857Y-50331666D01*
X33440714Y-50331666D01*
X33535952Y-50379285D01*
X33583571Y-50426904D01*
X33631190Y-50522142D01*
X33631190Y-50903095D01*
X33107380Y-49426904D02*
X33107380Y-49903095D01*
X33583571Y-49950714D01*
X33535952Y-49903095D01*
X33488333Y-49807857D01*
X33488333Y-49569761D01*
X33535952Y-49474523D01*
X33583571Y-49426904D01*
X33678809Y-49379285D01*
X33916904Y-49379285D01*
X34012142Y-49426904D01*
X34059761Y-49474523D01*
X34107380Y-49569761D01*
X34107380Y-49807857D01*
X34059761Y-49903095D01*
X34012142Y-49950714D01*
X20137380Y-21597857D02*
X19661190Y-21931190D01*
X20137380Y-22169285D02*
X19137380Y-22169285D01*
X19137380Y-21788333D01*
X19185000Y-21693095D01*
X19232619Y-21645476D01*
X19327857Y-21597857D01*
X19470714Y-21597857D01*
X19565952Y-21645476D01*
X19613571Y-21693095D01*
X19661190Y-21788333D01*
X19661190Y-22169285D01*
X20137380Y-20645476D02*
X20137380Y-21216904D01*
X20137380Y-20931190D02*
X19137380Y-20931190D01*
X19280238Y-21026428D01*
X19375476Y-21121666D01*
X19423095Y-21216904D01*
X19137380Y-20026428D02*
X19137380Y-19931190D01*
X19185000Y-19835952D01*
X19232619Y-19788333D01*
X19327857Y-19740714D01*
X19518333Y-19693095D01*
X19756428Y-19693095D01*
X19946904Y-19740714D01*
X20042142Y-19788333D01*
X20089761Y-19835952D01*
X20137380Y-19931190D01*
X20137380Y-20026428D01*
X20089761Y-20121666D01*
X20042142Y-20169285D01*
X19946904Y-20216904D01*
X19756428Y-20264523D01*
X19518333Y-20264523D01*
X19327857Y-20216904D01*
X19232619Y-20169285D01*
X19185000Y-20121666D01*
X19137380Y-20026428D01*
X43807142Y-95067380D02*
X43473809Y-94591190D01*
X43235714Y-95067380D02*
X43235714Y-94067380D01*
X43616666Y-94067380D01*
X43711904Y-94115000D01*
X43759523Y-94162619D01*
X43807142Y-94257857D01*
X43807142Y-94400714D01*
X43759523Y-94495952D01*
X43711904Y-94543571D01*
X43616666Y-94591190D01*
X43235714Y-94591190D01*
X44188095Y-94162619D02*
X44235714Y-94115000D01*
X44330952Y-94067380D01*
X44569047Y-94067380D01*
X44664285Y-94115000D01*
X44711904Y-94162619D01*
X44759523Y-94257857D01*
X44759523Y-94353095D01*
X44711904Y-94495952D01*
X44140476Y-95067380D01*
X44759523Y-95067380D01*
X45664285Y-94067380D02*
X45188095Y-94067380D01*
X45140476Y-94543571D01*
X45188095Y-94495952D01*
X45283333Y-94448333D01*
X45521428Y-94448333D01*
X45616666Y-94495952D01*
X45664285Y-94543571D01*
X45711904Y-94638809D01*
X45711904Y-94876904D01*
X45664285Y-94972142D01*
X45616666Y-95019761D01*
X45521428Y-95067380D01*
X45283333Y-95067380D01*
X45188095Y-95019761D01*
X45140476Y-94972142D01*
X18506666Y-80097380D02*
X18506666Y-80811666D01*
X18459047Y-80954523D01*
X18363809Y-81049761D01*
X18220952Y-81097380D01*
X18125714Y-81097380D01*
X19459047Y-80097380D02*
X18982857Y-80097380D01*
X18935238Y-80573571D01*
X18982857Y-80525952D01*
X19078095Y-80478333D01*
X19316190Y-80478333D01*
X19411428Y-80525952D01*
X19459047Y-80573571D01*
X19506666Y-80668809D01*
X19506666Y-80906904D01*
X19459047Y-81002142D01*
X19411428Y-81049761D01*
X19316190Y-81097380D01*
X19078095Y-81097380D01*
X18982857Y-81049761D01*
X18935238Y-81002142D01*
X14906666Y-9612380D02*
X14906666Y-10326666D01*
X14859047Y-10469523D01*
X14763809Y-10564761D01*
X14620952Y-10612380D01*
X14525714Y-10612380D01*
X15906666Y-10612380D02*
X15335238Y-10612380D01*
X15620952Y-10612380D02*
X15620952Y-9612380D01*
X15525714Y-9755238D01*
X15430476Y-9850476D01*
X15335238Y-9898095D01*
X26027142Y-65127142D02*
X25979523Y-65174761D01*
X25836666Y-65222380D01*
X25741428Y-65222380D01*
X25598571Y-65174761D01*
X25503333Y-65079523D01*
X25455714Y-64984285D01*
X25408095Y-64793809D01*
X25408095Y-64650952D01*
X25455714Y-64460476D01*
X25503333Y-64365238D01*
X25598571Y-64270000D01*
X25741428Y-64222380D01*
X25836666Y-64222380D01*
X25979523Y-64270000D01*
X26027142Y-64317619D01*
X26979523Y-65222380D02*
X26408095Y-65222380D01*
X26693809Y-65222380D02*
X26693809Y-64222380D01*
X26598571Y-64365238D01*
X26503333Y-64460476D01*
X26408095Y-64508095D01*
X27884285Y-64222380D02*
X27408095Y-64222380D01*
X27360476Y-64698571D01*
X27408095Y-64650952D01*
X27503333Y-64603333D01*
X27741428Y-64603333D01*
X27836666Y-64650952D01*
X27884285Y-64698571D01*
X27931904Y-64793809D01*
X27931904Y-65031904D01*
X27884285Y-65127142D01*
X27836666Y-65174761D01*
X27741428Y-65222380D01*
X27503333Y-65222380D01*
X27408095Y-65174761D01*
X27360476Y-65127142D01*
X40044761Y-72842380D02*
X39711428Y-72366190D01*
X39473333Y-72842380D02*
X39473333Y-71842380D01*
X39854285Y-71842380D01*
X39949523Y-71890000D01*
X39997142Y-71937619D01*
X40044761Y-72032857D01*
X40044761Y-72175714D01*
X39997142Y-72270952D01*
X39949523Y-72318571D01*
X39854285Y-72366190D01*
X39473333Y-72366190D01*
X40330476Y-71842380D02*
X40663809Y-72842380D01*
X40997142Y-71842380D01*
X41235238Y-71842380D02*
X41854285Y-71842380D01*
X41520952Y-72223333D01*
X41663809Y-72223333D01*
X41759047Y-72270952D01*
X41806666Y-72318571D01*
X41854285Y-72413809D01*
X41854285Y-72651904D01*
X41806666Y-72747142D01*
X41759047Y-72794761D01*
X41663809Y-72842380D01*
X41378095Y-72842380D01*
X41282857Y-72794761D01*
X41235238Y-72747142D01*
X45386666Y-64222380D02*
X45386666Y-64936666D01*
X45339047Y-65079523D01*
X45243809Y-65174761D01*
X45100952Y-65222380D01*
X45005714Y-65222380D01*
X46291428Y-64555714D02*
X46291428Y-65222380D01*
X46053333Y-64174761D02*
X45815238Y-64889047D01*
X46434285Y-64889047D01*
X4341904Y-78557380D02*
X4341904Y-77557380D01*
X4580000Y-77557380D01*
X4722857Y-77605000D01*
X4818095Y-77700238D01*
X4865714Y-77795476D01*
X4913333Y-77985952D01*
X4913333Y-78128809D01*
X4865714Y-78319285D01*
X4818095Y-78414523D01*
X4722857Y-78509761D01*
X4580000Y-78557380D01*
X4341904Y-78557380D01*
X5865714Y-78557380D02*
X5294285Y-78557380D01*
X5580000Y-78557380D02*
X5580000Y-77557380D01*
X5484761Y-77700238D01*
X5389523Y-77795476D01*
X5294285Y-77843095D01*
X1008095Y-76757380D02*
X1008095Y-75757380D01*
X1579523Y-76757380D02*
X1150952Y-76185952D01*
X1579523Y-75757380D02*
X1008095Y-76328809D01*
X20137380Y-63031666D02*
X19661190Y-63365000D01*
X20137380Y-63603095D02*
X19137380Y-63603095D01*
X19137380Y-63222142D01*
X19185000Y-63126904D01*
X19232619Y-63079285D01*
X19327857Y-63031666D01*
X19470714Y-63031666D01*
X19565952Y-63079285D01*
X19613571Y-63126904D01*
X19661190Y-63222142D01*
X19661190Y-63603095D01*
X19137380Y-62698333D02*
X19137380Y-62031666D01*
X20137380Y-62460238D01*
X10826904Y-21677380D02*
X10826904Y-22486904D01*
X10874523Y-22582142D01*
X10922142Y-22629761D01*
X11017380Y-22677380D01*
X11207857Y-22677380D01*
X11303095Y-22629761D01*
X11350714Y-22582142D01*
X11398333Y-22486904D01*
X11398333Y-21677380D01*
X12398333Y-22677380D02*
X11826904Y-22677380D01*
X12112619Y-22677380D02*
X12112619Y-21677380D01*
X12017380Y-21820238D01*
X11922142Y-21915476D01*
X11826904Y-21963095D01*
X13350714Y-22677380D02*
X12779285Y-22677380D01*
X13065000Y-22677380D02*
X13065000Y-21677380D01*
X12969761Y-21820238D01*
X12874523Y-21915476D01*
X12779285Y-21963095D01*
X34107380Y-33821666D02*
X33631190Y-34155000D01*
X34107380Y-34393095D02*
X33107380Y-34393095D01*
X33107380Y-34012142D01*
X33155000Y-33916904D01*
X33202619Y-33869285D01*
X33297857Y-33821666D01*
X33440714Y-33821666D01*
X33535952Y-33869285D01*
X33583571Y-33916904D01*
X33631190Y-34012142D01*
X33631190Y-34393095D01*
X33535952Y-33250238D02*
X33488333Y-33345476D01*
X33440714Y-33393095D01*
X33345476Y-33440714D01*
X33297857Y-33440714D01*
X33202619Y-33393095D01*
X33155000Y-33345476D01*
X33107380Y-33250238D01*
X33107380Y-33059761D01*
X33155000Y-32964523D01*
X33202619Y-32916904D01*
X33297857Y-32869285D01*
X33345476Y-32869285D01*
X33440714Y-32916904D01*
X33488333Y-32964523D01*
X33535952Y-33059761D01*
X33535952Y-33250238D01*
X33583571Y-33345476D01*
X33631190Y-33393095D01*
X33726428Y-33440714D01*
X33916904Y-33440714D01*
X34012142Y-33393095D01*
X34059761Y-33345476D01*
X34107380Y-33250238D01*
X34107380Y-33059761D01*
X34059761Y-32964523D01*
X34012142Y-32916904D01*
X33916904Y-32869285D01*
X33726428Y-32869285D01*
X33631190Y-32916904D01*
X33583571Y-32964523D01*
X33535952Y-33059761D01*
X3048095Y-1722380D02*
X3048095Y-722380D01*
X3048095Y-1198571D02*
X3619523Y-1198571D01*
X3619523Y-1722380D02*
X3619523Y-722380D01*
X4000476Y-722380D02*
X4619523Y-722380D01*
X4286190Y-1103333D01*
X4429047Y-1103333D01*
X4524285Y-1150952D01*
X4571904Y-1198571D01*
X4619523Y-1293809D01*
X4619523Y-1531904D01*
X4571904Y-1627142D01*
X4524285Y-1674761D01*
X4429047Y-1722380D01*
X4143333Y-1722380D01*
X4048095Y-1674761D01*
X4000476Y-1627142D01*
X25908095Y-36917380D02*
X25908095Y-37726904D01*
X25955714Y-37822142D01*
X26003333Y-37869761D01*
X26098571Y-37917380D01*
X26289047Y-37917380D01*
X26384285Y-37869761D01*
X26431904Y-37822142D01*
X26479523Y-37726904D01*
X26479523Y-36917380D01*
X26860476Y-36917380D02*
X27527142Y-36917380D01*
X27098571Y-37917380D01*
X28932142Y-57157857D02*
X28979761Y-57205476D01*
X29027380Y-57348333D01*
X29027380Y-57443571D01*
X28979761Y-57586428D01*
X28884523Y-57681666D01*
X28789285Y-57729285D01*
X28598809Y-57776904D01*
X28455952Y-57776904D01*
X28265476Y-57729285D01*
X28170238Y-57681666D01*
X28075000Y-57586428D01*
X28027380Y-57443571D01*
X28027380Y-57348333D01*
X28075000Y-57205476D01*
X28122619Y-57157857D01*
X29027380Y-56205476D02*
X29027380Y-56776904D01*
X29027380Y-56491190D02*
X28027380Y-56491190D01*
X28170238Y-56586428D01*
X28265476Y-56681666D01*
X28313095Y-56776904D01*
X28027380Y-55872142D02*
X28027380Y-55205476D01*
X29027380Y-55634047D01*
X9398095Y-45807380D02*
X9398095Y-46616904D01*
X9445714Y-46712142D01*
X9493333Y-46759761D01*
X9588571Y-46807380D01*
X9779047Y-46807380D01*
X9874285Y-46759761D01*
X9921904Y-46712142D01*
X9969523Y-46616904D01*
X9969523Y-45807380D01*
X10969523Y-46807380D02*
X10398095Y-46807380D01*
X10683809Y-46807380D02*
X10683809Y-45807380D01*
X10588571Y-45950238D01*
X10493333Y-46045476D01*
X10398095Y-46093095D01*
X14501904Y-70937380D02*
X14501904Y-69937380D01*
X14740000Y-69937380D01*
X14882857Y-69985000D01*
X14978095Y-70080238D01*
X15025714Y-70175476D01*
X15073333Y-70365952D01*
X15073333Y-70508809D01*
X15025714Y-70699285D01*
X14978095Y-70794523D01*
X14882857Y-70889761D01*
X14740000Y-70937380D01*
X14501904Y-70937380D01*
X15930476Y-70270714D02*
X15930476Y-70937380D01*
X15692380Y-69889761D02*
X15454285Y-70604047D01*
X16073333Y-70604047D01*
X11168095Y-68397380D02*
X11168095Y-67397380D01*
X11739523Y-68397380D02*
X11310952Y-67825952D01*
X11739523Y-67397380D02*
X11168095Y-67968809D01*
X49887142Y-52871666D02*
X49934761Y-52919285D01*
X49982380Y-53062142D01*
X49982380Y-53157380D01*
X49934761Y-53300238D01*
X49839523Y-53395476D01*
X49744285Y-53443095D01*
X49553809Y-53490714D01*
X49410952Y-53490714D01*
X49220476Y-53443095D01*
X49125238Y-53395476D01*
X49030000Y-53300238D01*
X48982380Y-53157380D01*
X48982380Y-53062142D01*
X49030000Y-52919285D01*
X49077619Y-52871666D01*
X48982380Y-52538333D02*
X48982380Y-51919285D01*
X49363333Y-52252619D01*
X49363333Y-52109761D01*
X49410952Y-52014523D01*
X49458571Y-51966904D01*
X49553809Y-51919285D01*
X49791904Y-51919285D01*
X49887142Y-51966904D01*
X49934761Y-52014523D01*
X49982380Y-52109761D01*
X49982380Y-52395476D01*
X49934761Y-52490714D01*
X49887142Y-52538333D01*
X27312857Y-28852857D02*
X27360476Y-28805238D01*
X27503333Y-28757619D01*
X27598571Y-28757619D01*
X27741428Y-28805238D01*
X27836666Y-28900476D01*
X27884285Y-28995714D01*
X27931904Y-29186190D01*
X27931904Y-29329047D01*
X27884285Y-29519523D01*
X27836666Y-29614761D01*
X27741428Y-29710000D01*
X27598571Y-29757619D01*
X27503333Y-29757619D01*
X27360476Y-29710000D01*
X27312857Y-29662380D01*
X26360476Y-28757619D02*
X26931904Y-28757619D01*
X26646190Y-28757619D02*
X26646190Y-29757619D01*
X26741428Y-29614761D01*
X26836666Y-29519523D01*
X26931904Y-29471904D01*
X25789047Y-29329047D02*
X25884285Y-29376666D01*
X25931904Y-29424285D01*
X25979523Y-29519523D01*
X25979523Y-29567142D01*
X25931904Y-29662380D01*
X25884285Y-29710000D01*
X25789047Y-29757619D01*
X25598571Y-29757619D01*
X25503333Y-29710000D01*
X25455714Y-29662380D01*
X25408095Y-29567142D01*
X25408095Y-29519523D01*
X25455714Y-29424285D01*
X25503333Y-29376666D01*
X25598571Y-29329047D01*
X25789047Y-29329047D01*
X25884285Y-29281428D01*
X25931904Y-29233809D01*
X25979523Y-29138571D01*
X25979523Y-28948095D01*
X25931904Y-28852857D01*
X25884285Y-28805238D01*
X25789047Y-28757619D01*
X25598571Y-28757619D01*
X25503333Y-28805238D01*
X25455714Y-28852857D01*
X25408095Y-28948095D01*
X25408095Y-29138571D01*
X25455714Y-29233809D01*
X25503333Y-29281428D01*
X25598571Y-29329047D01*
X33480476Y-87717380D02*
X33480476Y-88431666D01*
X33432857Y-88574523D01*
X33337619Y-88669761D01*
X33194761Y-88717380D01*
X33099523Y-88717380D01*
X34480476Y-88717380D02*
X33909047Y-88717380D01*
X34194761Y-88717380D02*
X34194761Y-87717380D01*
X34099523Y-87860238D01*
X34004285Y-87955476D01*
X33909047Y-88003095D01*
X35432857Y-88717380D02*
X34861428Y-88717380D01*
X35147142Y-88717380D02*
X35147142Y-87717380D01*
X35051904Y-87860238D01*
X34956666Y-87955476D01*
X34861428Y-88003095D01*
X25908095Y-100782380D02*
X25908095Y-99782380D01*
X25908095Y-100258571D02*
X26479523Y-100258571D01*
X26479523Y-100782380D02*
X26479523Y-99782380D01*
X27479523Y-100782380D02*
X26908095Y-100782380D01*
X27193809Y-100782380D02*
X27193809Y-99782380D01*
X27098571Y-99925238D01*
X27003333Y-100020476D01*
X26908095Y-100068095D01*
X34123333Y-84812142D02*
X34075714Y-84859761D01*
X33932857Y-84907380D01*
X33837619Y-84907380D01*
X33694761Y-84859761D01*
X33599523Y-84764523D01*
X33551904Y-84669285D01*
X33504285Y-84478809D01*
X33504285Y-84335952D01*
X33551904Y-84145476D01*
X33599523Y-84050238D01*
X33694761Y-83955000D01*
X33837619Y-83907380D01*
X33932857Y-83907380D01*
X34075714Y-83955000D01*
X34123333Y-84002619D01*
X34980476Y-84240714D02*
X34980476Y-84907380D01*
X34742380Y-83859761D02*
X34504285Y-84574047D01*
X35123333Y-84574047D01*
X14501904Y-78557380D02*
X14501904Y-77557380D01*
X14740000Y-77557380D01*
X14882857Y-77605000D01*
X14978095Y-77700238D01*
X15025714Y-77795476D01*
X15073333Y-77985952D01*
X15073333Y-78128809D01*
X15025714Y-78319285D01*
X14978095Y-78414523D01*
X14882857Y-78509761D01*
X14740000Y-78557380D01*
X14501904Y-78557380D01*
X15454285Y-77652619D02*
X15501904Y-77605000D01*
X15597142Y-77557380D01*
X15835238Y-77557380D01*
X15930476Y-77605000D01*
X15978095Y-77652619D01*
X16025714Y-77747857D01*
X16025714Y-77843095D01*
X15978095Y-77985952D01*
X15406666Y-78557380D01*
X16025714Y-78557380D01*
X18788095Y-76652380D02*
X18788095Y-75652380D01*
X19359523Y-76652380D02*
X18930952Y-76080952D01*
X19359523Y-75652380D02*
X18788095Y-76223809D01*
X40036904Y-41997380D02*
X40036904Y-42806904D01*
X40084523Y-42902142D01*
X40132142Y-42949761D01*
X40227380Y-42997380D01*
X40417857Y-42997380D01*
X40513095Y-42949761D01*
X40560714Y-42902142D01*
X40608333Y-42806904D01*
X40608333Y-41997380D01*
X41608333Y-42997380D02*
X41036904Y-42997380D01*
X41322619Y-42997380D02*
X41322619Y-41997380D01*
X41227380Y-42140238D01*
X41132142Y-42235476D01*
X41036904Y-42283095D01*
X42227380Y-41997380D02*
X42322619Y-41997380D01*
X42417857Y-42045000D01*
X42465476Y-42092619D01*
X42513095Y-42187857D01*
X42560714Y-42378333D01*
X42560714Y-42616428D01*
X42513095Y-42806904D01*
X42465476Y-42902142D01*
X42417857Y-42949761D01*
X42322619Y-42997380D01*
X42227380Y-42997380D01*
X42132142Y-42949761D01*
X42084523Y-42902142D01*
X42036904Y-42806904D01*
X41989285Y-42616428D01*
X41989285Y-42378333D01*
X42036904Y-42187857D01*
X42084523Y-42092619D01*
X42132142Y-42045000D01*
X42227380Y-41997380D01*
X48768095Y-1722380D02*
X48768095Y-722380D01*
X48768095Y-1198571D02*
X49339523Y-1198571D01*
X49339523Y-1722380D02*
X49339523Y-722380D01*
X49768095Y-817619D02*
X49815714Y-770000D01*
X49910952Y-722380D01*
X50149047Y-722380D01*
X50244285Y-770000D01*
X50291904Y-817619D01*
X50339523Y-912857D01*
X50339523Y-1008095D01*
X50291904Y-1150952D01*
X49720476Y-1722380D01*
X50339523Y-1722380D01*
X42418095Y-45807380D02*
X42418095Y-46616904D01*
X42465714Y-46712142D01*
X42513333Y-46759761D01*
X42608571Y-46807380D01*
X42799047Y-46807380D01*
X42894285Y-46759761D01*
X42941904Y-46712142D01*
X42989523Y-46616904D01*
X42989523Y-45807380D01*
X43894285Y-46140714D02*
X43894285Y-46807380D01*
X43656190Y-45759761D02*
X43418095Y-46474047D01*
X44037142Y-46474047D01*
X26027142Y-19407142D02*
X25979523Y-19454761D01*
X25836666Y-19502380D01*
X25741428Y-19502380D01*
X25598571Y-19454761D01*
X25503333Y-19359523D01*
X25455714Y-19264285D01*
X25408095Y-19073809D01*
X25408095Y-18930952D01*
X25455714Y-18740476D01*
X25503333Y-18645238D01*
X25598571Y-18550000D01*
X25741428Y-18502380D01*
X25836666Y-18502380D01*
X25979523Y-18550000D01*
X26027142Y-18597619D01*
X26979523Y-19502380D02*
X26408095Y-19502380D01*
X26693809Y-19502380D02*
X26693809Y-18502380D01*
X26598571Y-18645238D01*
X26503333Y-18740476D01*
X26408095Y-18788095D01*
X27455714Y-19502380D02*
X27646190Y-19502380D01*
X27741428Y-19454761D01*
X27789047Y-19407142D01*
X27884285Y-19264285D01*
X27931904Y-19073809D01*
X27931904Y-18692857D01*
X27884285Y-18597619D01*
X27836666Y-18550000D01*
X27741428Y-18502380D01*
X27550952Y-18502380D01*
X27455714Y-18550000D01*
X27408095Y-18597619D01*
X27360476Y-18692857D01*
X27360476Y-18930952D01*
X27408095Y-19026190D01*
X27455714Y-19073809D01*
X27550952Y-19121428D01*
X27741428Y-19121428D01*
X27836666Y-19073809D01*
X27884285Y-19026190D01*
X27931904Y-18930952D01*
X37187142Y-50331666D02*
X37234761Y-50379285D01*
X37282380Y-50522142D01*
X37282380Y-50617380D01*
X37234761Y-50760238D01*
X37139523Y-50855476D01*
X37044285Y-50903095D01*
X36853809Y-50950714D01*
X36710952Y-50950714D01*
X36520476Y-50903095D01*
X36425238Y-50855476D01*
X36330000Y-50760238D01*
X36282380Y-50617380D01*
X36282380Y-50522142D01*
X36330000Y-50379285D01*
X36377619Y-50331666D01*
X36377619Y-49950714D02*
X36330000Y-49903095D01*
X36282380Y-49807857D01*
X36282380Y-49569761D01*
X36330000Y-49474523D01*
X36377619Y-49426904D01*
X36472857Y-49379285D01*
X36568095Y-49379285D01*
X36710952Y-49426904D01*
X37282380Y-49998333D01*
X37282380Y-49379285D01*
X43807142Y-91892380D02*
X43473809Y-91416190D01*
X43235714Y-91892380D02*
X43235714Y-90892380D01*
X43616666Y-90892380D01*
X43711904Y-90940000D01*
X43759523Y-90987619D01*
X43807142Y-91082857D01*
X43807142Y-91225714D01*
X43759523Y-91320952D01*
X43711904Y-91368571D01*
X43616666Y-91416190D01*
X43235714Y-91416190D01*
X44188095Y-90987619D02*
X44235714Y-90940000D01*
X44330952Y-90892380D01*
X44569047Y-90892380D01*
X44664285Y-90940000D01*
X44711904Y-90987619D01*
X44759523Y-91082857D01*
X44759523Y-91178095D01*
X44711904Y-91320952D01*
X44140476Y-91892380D01*
X44759523Y-91892380D01*
X45616666Y-90892380D02*
X45426190Y-90892380D01*
X45330952Y-90940000D01*
X45283333Y-90987619D01*
X45188095Y-91130476D01*
X45140476Y-91320952D01*
X45140476Y-91701904D01*
X45188095Y-91797142D01*
X45235714Y-91844761D01*
X45330952Y-91892380D01*
X45521428Y-91892380D01*
X45616666Y-91844761D01*
X45664285Y-91797142D01*
X45711904Y-91701904D01*
X45711904Y-91463809D01*
X45664285Y-91368571D01*
X45616666Y-91320952D01*
X45521428Y-91273333D01*
X45330952Y-91273333D01*
X45235714Y-91320952D01*
X45188095Y-91368571D01*
X45140476Y-91463809D01*
D11*
X12160000Y-90070000D02*
X5620000Y-90070000D01*
X5620000Y-92810000D02*
X12160000Y-92810000D01*
X12930000Y-91440000D02*
X12160000Y-91440000D01*
X5620000Y-90070000D02*
X5620000Y-92810000D01*
X12160000Y-92810000D02*
X12160000Y-90070000D01*
X4850000Y-91440000D02*
X5620000Y-91440000D01*
X3910000Y-29115000D02*
X1170000Y-29115000D01*
X3910000Y-35655000D02*
X3910000Y-29115000D01*
X2540000Y-36425000D02*
X2540000Y-35655000D01*
X1170000Y-29115000D02*
X1170000Y-35655000D01*
X2540000Y-28345000D02*
X2540000Y-29115000D01*
X1170000Y-35655000D02*
X3910000Y-35655000D01*
X13065000Y-33385000D02*
X13065000Y-31385000D01*
X11065000Y-31385000D02*
X11065000Y-33385000D01*
X32285000Y-24225000D02*
X35025000Y-24225000D01*
X32285000Y-17685000D02*
X32285000Y-24225000D01*
X35025000Y-24225000D02*
X35025000Y-17685000D01*
X35025000Y-17685000D02*
X32285000Y-17685000D01*
X33655000Y-24995000D02*
X33655000Y-24225000D01*
X33655000Y-16915000D02*
X33655000Y-17685000D01*
X5620000Y-95985000D02*
X12160000Y-95985000D01*
X12930000Y-94615000D02*
X12160000Y-94615000D01*
X12160000Y-93245000D02*
X5620000Y-93245000D01*
X12160000Y-95985000D02*
X12160000Y-93245000D01*
X5620000Y-93245000D02*
X5620000Y-95985000D01*
X4850000Y-94615000D02*
X5620000Y-94615000D01*
X3680000Y-69365000D02*
X3680000Y-71605000D01*
X2960000Y-69365000D02*
X2960000Y-71605000D01*
X3800000Y-69365000D02*
X3800000Y-71605000D01*
X7200000Y-71605000D02*
X7200000Y-69365000D01*
X3560000Y-69365000D02*
X3560000Y-71605000D01*
X7850000Y-70485000D02*
X7200000Y-70485000D01*
X7200000Y-69365000D02*
X2960000Y-69365000D01*
X2960000Y-71605000D02*
X7200000Y-71605000D01*
X2310000Y-70485000D02*
X2960000Y-70485000D01*
X13970000Y-80645000D02*
X15240000Y-80645000D01*
X2540000Y-88265000D02*
X2540000Y-80645000D01*
X3990000Y-79455000D02*
X13790000Y-79455000D01*
X3810000Y-88265000D02*
X2540000Y-88265000D01*
X13790000Y-89455000D02*
X3990000Y-89455000D01*
X3810000Y-80645000D02*
X3990000Y-79455000D01*
X15240000Y-88265000D02*
X13970000Y-88265000D01*
X13790000Y-79455000D02*
X13970000Y-80645000D01*
X15240000Y-80645000D02*
X15240000Y-88265000D01*
X3990000Y-89455000D02*
X3810000Y-88265000D01*
X2540000Y-80645000D02*
X3810000Y-80645000D01*
X13970000Y-88265000D02*
X13790000Y-89455000D01*
X11190000Y-83205000D02*
X6590000Y-83205000D01*
X6590000Y-83205000D02*
X6590000Y-85705000D01*
X6590000Y-85705000D02*
X11190000Y-85705000D01*
X11190000Y-85705000D02*
X11190000Y-83205000D01*
X14970000Y-83455000D02*
G75*
G03*
X14970000Y-85455000I0J-1000000D01*
G01*
X42275000Y-33385000D02*
X42275000Y-31385000D01*
X40275000Y-31385000D02*
X40275000Y-33385000D01*
X25670000Y-50435000D02*
X25670000Y-52435000D01*
X27670000Y-52435000D02*
X27670000Y-50435000D01*
X50800000Y-80645000D02*
X50800000Y-88265000D01*
X38100000Y-80645000D02*
X39370000Y-80645000D01*
X49350000Y-79455000D02*
X49530000Y-80645000D01*
X39370000Y-88265000D02*
X38100000Y-88265000D01*
X49530000Y-80645000D02*
X50800000Y-80645000D01*
X38100000Y-88265000D02*
X38100000Y-80645000D01*
X49350000Y-89455000D02*
X39550000Y-89455000D01*
X50800000Y-88265000D02*
X49530000Y-88265000D01*
X39370000Y-80645000D02*
X39550000Y-79455000D01*
X39550000Y-79455000D02*
X49350000Y-79455000D01*
X49530000Y-88265000D02*
X49350000Y-89455000D01*
X39550000Y-89455000D02*
X39370000Y-88265000D01*
X42150000Y-85705000D02*
X46750000Y-85705000D01*
X46750000Y-85705000D02*
X46750000Y-83205000D01*
X46750000Y-83205000D02*
X42150000Y-83205000D01*
X42150000Y-83205000D02*
X42150000Y-85705000D01*
X38370000Y-85455000D02*
G75*
G03*
X38370000Y-83455000I0J1000000D01*
G01*
X21055000Y-46895000D02*
X18315000Y-46895000D01*
X21055000Y-53435000D02*
X21055000Y-46895000D01*
X19685000Y-54205000D02*
X19685000Y-53435000D01*
X19685000Y-46125000D02*
X19685000Y-46895000D01*
X18315000Y-53435000D02*
X21055000Y-53435000D01*
X18315000Y-46895000D02*
X18315000Y-53435000D01*
X5610000Y-39425000D02*
X2010000Y-39425000D01*
X1971522Y-39436522D02*
G75*
G03*
X3810000Y-43875000I1838478J-1838478D01*
G01*
X3810000Y-43875001D02*
G75*
G03*
X5648478Y-39436522I0J2600001D01*
G01*
X27670000Y-76565000D02*
X27670000Y-74565000D01*
X25670000Y-74565000D02*
X25670000Y-76565000D01*
X31670000Y-89535000D02*
X30480000Y-89715000D01*
X22860000Y-67945000D02*
X30480000Y-67945000D01*
X30480000Y-69215000D02*
X31670000Y-69395000D01*
X22860000Y-89715000D02*
X21670000Y-89535000D01*
X30480000Y-90805000D02*
X22860000Y-90805000D01*
X22860000Y-90805000D02*
X22860000Y-89715000D01*
X30480000Y-89715000D02*
X30480000Y-90805000D01*
X30480000Y-67945000D02*
X30480000Y-69215000D01*
X31670000Y-69395000D02*
X31670000Y-89535000D01*
X21670000Y-69395000D02*
X22860000Y-69215000D01*
X21670000Y-89535000D02*
X21670000Y-69395000D01*
X22860000Y-69215000D02*
X22860000Y-67945000D01*
X25420000Y-72125000D02*
X27920000Y-72125000D01*
X27920000Y-72125000D02*
X27920000Y-86625000D01*
X27920000Y-86625000D02*
X25420000Y-86625000D01*
X25420000Y-86625000D02*
X25420000Y-72125000D01*
X25670000Y-68215000D02*
G75*
G03*
X27670000Y-68215000I1000000J0D01*
G01*
X9160000Y-54245000D02*
X9160000Y-56245000D01*
X11160000Y-56245000D02*
X11160000Y-54245000D01*
X18315000Y-30385000D02*
X18315000Y-36925000D01*
X19685000Y-29615000D02*
X19685000Y-30385000D01*
X19685000Y-37695000D02*
X19685000Y-36925000D01*
X18315000Y-36925000D02*
X21055000Y-36925000D01*
X21055000Y-36925000D02*
X21055000Y-30385000D01*
X21055000Y-30385000D02*
X18315000Y-30385000D01*
X21670000Y-66675000D02*
X21670000Y-46535000D01*
X30480000Y-67945000D02*
X22860000Y-67945000D01*
X21670000Y-46535000D02*
X22860000Y-46355000D01*
X22860000Y-67945000D02*
X22860000Y-66855000D01*
X30480000Y-66855000D02*
X30480000Y-67945000D01*
X22860000Y-46355000D02*
X22860000Y-45085000D01*
X22860000Y-45085000D02*
X30480000Y-45085000D01*
X31670000Y-46535000D02*
X31670000Y-66675000D01*
X30480000Y-46355000D02*
X31670000Y-46535000D01*
X22860000Y-66855000D02*
X21670000Y-66675000D01*
X31670000Y-66675000D02*
X30480000Y-66855000D01*
X30480000Y-45085000D02*
X30480000Y-46355000D01*
X25420000Y-49265000D02*
X27920000Y-49265000D01*
X27920000Y-49265000D02*
X27920000Y-63765000D01*
X27920000Y-63765000D02*
X25420000Y-63765000D01*
X25420000Y-63765000D02*
X25420000Y-49265000D01*
X25670000Y-45355000D02*
G75*
G03*
X27670000Y-45355000I1000000J0D01*
G01*
X6450000Y-29115000D02*
X3710000Y-29115000D01*
X6450000Y-35655000D02*
X6450000Y-29115000D01*
X5080000Y-36425000D02*
X5080000Y-35655000D01*
X3710000Y-35655000D02*
X6450000Y-35655000D01*
X5080000Y-28345000D02*
X5080000Y-29115000D01*
X3710000Y-29115000D02*
X3710000Y-35655000D01*
X6120000Y-73025000D02*
X6890000Y-73025000D01*
X13430000Y-74395000D02*
X13430000Y-71655000D01*
X6890000Y-74395000D02*
X13430000Y-74395000D01*
X13430000Y-71655000D02*
X6890000Y-71655000D01*
X14200000Y-73025000D02*
X13430000Y-73025000D01*
X6890000Y-71655000D02*
X6890000Y-74395000D01*
X38160000Y-79315000D02*
X38160000Y-80645000D01*
X35560000Y-79315000D02*
X35560000Y-81975000D01*
X35500000Y-79315000D02*
X35500000Y-81975000D01*
X36830000Y-79315000D02*
X38160000Y-79315000D01*
X35560000Y-81975000D02*
X35500000Y-81975000D01*
X35560000Y-79315000D02*
X35500000Y-79315000D01*
X53070000Y-85455000D02*
X53070000Y-83455000D01*
X51070000Y-83455000D02*
X51070000Y-85455000D01*
X6120000Y-67310000D02*
X6890000Y-67310000D01*
X6890000Y-68680000D02*
X13430000Y-68680000D01*
X14200000Y-67310000D02*
X13430000Y-67310000D01*
X6890000Y-65940000D02*
X6890000Y-68680000D01*
X13430000Y-65940000D02*
X6890000Y-65940000D01*
X13430000Y-68680000D02*
X13430000Y-65940000D01*
X44840000Y-71250000D02*
X44840000Y-74280000D01*
X51680000Y-75580000D02*
X51680000Y-78490000D01*
X51680000Y-71250000D02*
X51680000Y-74280000D01*
X51680000Y-71250000D02*
X44840000Y-71250000D01*
X51680000Y-78490000D02*
X44840000Y-78490000D01*
X44840000Y-75580000D02*
X44840000Y-78490000D01*
X15240000Y-86935000D02*
X15180000Y-86935000D01*
X17840000Y-86935000D02*
X17840000Y-88265000D01*
X15180000Y-86935000D02*
X15180000Y-89595000D01*
X16510000Y-86935000D02*
X17840000Y-86935000D01*
X15240000Y-89595000D02*
X15180000Y-89595000D01*
X15240000Y-86935000D02*
X15240000Y-89595000D01*
X25670000Y-26305000D02*
X25670000Y-28305000D01*
X27670000Y-28305000D02*
X27670000Y-26305000D01*
X15510000Y-83455000D02*
X15510000Y-85455000D01*
X17510000Y-85455000D02*
X17510000Y-83455000D01*
X270000Y-83455000D02*
X270000Y-85455000D01*
X2270000Y-85455000D02*
X2270000Y-83455000D01*
X6890000Y-74195000D02*
X6890000Y-76935000D01*
X14200000Y-75565000D02*
X13430000Y-75565000D01*
X13430000Y-74195000D02*
X6890000Y-74195000D01*
X13430000Y-76935000D02*
X13430000Y-74195000D01*
X6890000Y-76935000D02*
X13430000Y-76935000D01*
X6120000Y-75565000D02*
X6890000Y-75565000D01*
X33655000Y-58825000D02*
X33655000Y-59595000D01*
X32285000Y-59595000D02*
X32285000Y-66135000D01*
X35025000Y-66135000D02*
X35025000Y-59595000D01*
X33655000Y-66905000D02*
X33655000Y-66135000D01*
X32285000Y-66135000D02*
X35025000Y-66135000D01*
X35025000Y-59595000D02*
X32285000Y-59595000D01*
X33655000Y-46125000D02*
X33655000Y-46895000D01*
X35025000Y-53435000D02*
X35025000Y-46895000D01*
X33655000Y-54205000D02*
X33655000Y-53435000D01*
X35025000Y-46895000D02*
X32285000Y-46895000D01*
X32285000Y-46895000D02*
X32285000Y-53435000D01*
X32285000Y-53435000D02*
X35025000Y-53435000D01*
X19685000Y-24995000D02*
X19685000Y-24225000D01*
X19685000Y-16915000D02*
X19685000Y-17685000D01*
X21055000Y-17685000D02*
X18315000Y-17685000D01*
X18315000Y-24225000D02*
X21055000Y-24225000D01*
X18315000Y-17685000D02*
X18315000Y-24225000D01*
X21055000Y-24225000D02*
X21055000Y-17685000D01*
X41180000Y-95985000D02*
X47720000Y-95985000D01*
X41180000Y-93245000D02*
X41180000Y-95985000D01*
X47720000Y-95985000D02*
X47720000Y-93245000D01*
X48490000Y-94615000D02*
X47720000Y-94615000D01*
X47720000Y-93245000D02*
X41180000Y-93245000D01*
X40410000Y-94615000D02*
X41180000Y-94615000D01*
X16510000Y-79315000D02*
X17840000Y-79315000D01*
X15180000Y-79315000D02*
X15180000Y-81975000D01*
X15240000Y-81975000D02*
X15180000Y-81975000D01*
X15240000Y-79315000D02*
X15180000Y-79315000D01*
X15240000Y-79315000D02*
X15240000Y-81975000D01*
X17840000Y-79315000D02*
X17840000Y-80645000D01*
X17280000Y-16110000D02*
X18280000Y-16110000D01*
X18280000Y-16110000D02*
X17780000Y-15110000D01*
X17780000Y-15110000D02*
X17280000Y-16110000D01*
X12570000Y-5600000D02*
X40770000Y-5600000D01*
X24620000Y-14720000D02*
X24620000Y-13410000D01*
X12570000Y-14720000D02*
X12570000Y-5600000D01*
X39470000Y-6910000D02*
X39470000Y-13410000D01*
X28720000Y-13410000D02*
X28720000Y-14720000D01*
X40770000Y-14720000D02*
X12570000Y-14720000D01*
X39470000Y-13410000D02*
X28720000Y-13410000D01*
X28720000Y-13410000D02*
X28720000Y-13410000D01*
X24620000Y-13410000D02*
X13870000Y-13410000D01*
X13870000Y-13410000D02*
X13870000Y-6910000D01*
X13870000Y-6910000D02*
X39470000Y-6910000D01*
X40770000Y-5600000D02*
X40770000Y-14720000D01*
X27670000Y-62595000D02*
X27670000Y-60595000D01*
X25670000Y-60595000D02*
X25670000Y-62595000D01*
X44060000Y-78490000D02*
X37220000Y-78490000D01*
X44060000Y-75580000D02*
X44060000Y-78490000D01*
X44060000Y-71250000D02*
X37220000Y-71250000D01*
X37220000Y-75580000D02*
X37220000Y-78490000D01*
X37220000Y-71250000D02*
X37220000Y-74280000D01*
X44060000Y-71250000D02*
X44060000Y-74280000D01*
X44390000Y-60900000D02*
X45720000Y-60900000D01*
X44390000Y-63560000D02*
X47050000Y-63560000D01*
X44390000Y-63500000D02*
X47050000Y-63500000D01*
X44390000Y-62230000D02*
X44390000Y-60900000D01*
X44390000Y-63500000D02*
X44390000Y-63560000D01*
X47050000Y-63500000D02*
X47050000Y-63560000D01*
X7200000Y-79225000D02*
X7200000Y-76985000D01*
X2310000Y-78105000D02*
X2960000Y-78105000D01*
X2960000Y-79225000D02*
X7200000Y-79225000D01*
X2960000Y-76985000D02*
X2960000Y-79225000D01*
X3560000Y-76985000D02*
X3560000Y-79225000D01*
X7200000Y-76985000D02*
X2960000Y-76985000D01*
X3800000Y-76985000D02*
X3800000Y-79225000D01*
X7850000Y-78105000D02*
X7200000Y-78105000D01*
X3680000Y-76985000D02*
X3680000Y-79225000D01*
X19685000Y-58825000D02*
X19685000Y-59595000D01*
X21055000Y-66135000D02*
X21055000Y-59595000D01*
X21055000Y-59595000D02*
X18315000Y-59595000D01*
X19685000Y-66905000D02*
X19685000Y-66135000D01*
X18315000Y-66135000D02*
X21055000Y-66135000D01*
X18315000Y-59595000D02*
X18315000Y-66135000D01*
X17065000Y-22225000D02*
X17065000Y-42365000D01*
X17065000Y-42365000D02*
X15875000Y-42545000D01*
X8255000Y-22045000D02*
X8255000Y-20955000D01*
X7065000Y-22225000D02*
X8255000Y-22045000D01*
X15875000Y-43815000D02*
X8255000Y-43815000D01*
X8255000Y-20955000D02*
X15875000Y-20955000D01*
X7065000Y-42365000D02*
X7065000Y-22225000D01*
X15875000Y-22045000D02*
X17065000Y-22225000D01*
X15875000Y-20955000D02*
X15875000Y-22045000D01*
X8255000Y-42545000D02*
X7065000Y-42365000D01*
X15875000Y-42545000D02*
X15875000Y-43815000D01*
X8255000Y-43815000D02*
X8255000Y-42545000D01*
X13315000Y-39635000D02*
X10815000Y-39635000D01*
X10815000Y-39635000D02*
X10815000Y-25135000D01*
X10815000Y-25135000D02*
X13315000Y-25135000D01*
X13315000Y-25135000D02*
X13315000Y-39635000D01*
X13065000Y-43545000D02*
G75*
G03*
X11065000Y-43545000I-1000000J0D01*
G01*
X33655000Y-37695000D02*
X33655000Y-36925000D01*
X35025000Y-36925000D02*
X35025000Y-30385000D01*
X32285000Y-30385000D02*
X32285000Y-36925000D01*
X33655000Y-29615000D02*
X33655000Y-30385000D01*
X32285000Y-36925000D02*
X35025000Y-36925000D01*
X35025000Y-30385000D02*
X32285000Y-30385000D01*
X21670000Y-37465000D02*
X21670000Y-17325000D01*
X22860000Y-38735000D02*
X22860000Y-37645000D01*
X31670000Y-17325000D02*
X31670000Y-37465000D01*
X22860000Y-17145000D02*
X22860000Y-15875000D01*
X21670000Y-17325000D02*
X22860000Y-17145000D01*
X30480000Y-37645000D02*
X30480000Y-38735000D01*
X31670000Y-37465000D02*
X30480000Y-37645000D01*
X30480000Y-38735000D02*
X22860000Y-38735000D01*
X22860000Y-37645000D02*
X21670000Y-37465000D01*
X22860000Y-15875000D02*
X30480000Y-15875000D01*
X30480000Y-17145000D02*
X31670000Y-17325000D01*
X30480000Y-15875000D02*
X30480000Y-17145000D01*
X25420000Y-20055000D02*
X27920000Y-20055000D01*
X27920000Y-20055000D02*
X27920000Y-34555000D01*
X27920000Y-34555000D02*
X25420000Y-34555000D01*
X25420000Y-34555000D02*
X25420000Y-20055000D01*
X25670000Y-16145000D02*
G75*
G03*
X27670000Y-16145000I1000000J0D01*
G01*
X25670000Y-55515000D02*
X25670000Y-57515000D01*
X27670000Y-57515000D02*
X27670000Y-55515000D01*
X5160000Y-63955000D02*
X5160000Y-46355000D01*
X13970000Y-46175000D02*
X15160000Y-46355000D01*
X5160000Y-46355000D02*
X6350000Y-46175000D01*
X13970000Y-65405000D02*
X6350000Y-65405000D01*
X13970000Y-64135000D02*
X13970000Y-65405000D01*
X6350000Y-64135000D02*
X5160000Y-63955000D01*
X6350000Y-46175000D02*
X6350000Y-45085000D01*
X6350000Y-65405000D02*
X6350000Y-64135000D01*
X13970000Y-45085000D02*
X13970000Y-46175000D01*
X15160000Y-63955000D02*
X13970000Y-64135000D01*
X6350000Y-45085000D02*
X13970000Y-45085000D01*
X15160000Y-46355000D02*
X15160000Y-63955000D01*
X11410000Y-61245000D02*
X8910000Y-61245000D01*
X8910000Y-61245000D02*
X8910000Y-49245000D01*
X8910000Y-49245000D02*
X11410000Y-49245000D01*
X11410000Y-49245000D02*
X11410000Y-61245000D01*
X11160000Y-65135000D02*
G75*
G03*
X9160000Y-65135000I-1000000J0D01*
G01*
X13120000Y-69365000D02*
X13120000Y-71605000D01*
X13720000Y-69365000D02*
X13720000Y-71605000D01*
X17360000Y-71605000D02*
X17360000Y-69365000D01*
X17360000Y-69365000D02*
X13120000Y-69365000D01*
X13120000Y-71605000D02*
X17360000Y-71605000D01*
X13960000Y-69365000D02*
X13960000Y-71605000D01*
X18010000Y-70485000D02*
X17360000Y-70485000D01*
X13840000Y-69365000D02*
X13840000Y-71605000D01*
X12470000Y-70485000D02*
X13120000Y-70485000D01*
X48530000Y-47895000D02*
X48530000Y-49895000D01*
X50530000Y-49895000D02*
X50530000Y-47895000D01*
X25670000Y-31385000D02*
X25670000Y-33385000D01*
X27670000Y-33385000D02*
X27670000Y-31385000D01*
X35560000Y-89595000D02*
X35500000Y-89595000D01*
X35560000Y-86935000D02*
X35560000Y-89595000D01*
X38160000Y-86935000D02*
X38160000Y-88265000D01*
X35500000Y-86935000D02*
X35500000Y-89595000D01*
X36830000Y-86935000D02*
X38160000Y-86935000D01*
X35560000Y-86935000D02*
X35500000Y-86935000D01*
X35830000Y-83455000D02*
X35830000Y-85455000D01*
X37830000Y-85455000D02*
X37830000Y-83455000D01*
X13120000Y-76985000D02*
X13120000Y-79225000D01*
X17360000Y-76985000D02*
X13120000Y-76985000D01*
X16520000Y-79225000D02*
X16520000Y-76985000D01*
X16760000Y-79225000D02*
X16760000Y-76985000D01*
X18010000Y-78105000D02*
X17360000Y-78105000D01*
X16640000Y-79225000D02*
X16640000Y-76985000D01*
X13120000Y-79225000D02*
X17360000Y-79225000D01*
X17360000Y-79225000D02*
X17360000Y-76985000D01*
X12470000Y-78105000D02*
X13120000Y-78105000D01*
X45085000Y-20955000D02*
X45085000Y-22225000D01*
X37465000Y-22225000D02*
X37465000Y-20955000D01*
X37465000Y-20955000D02*
X45085000Y-20955000D01*
X36275000Y-42545000D02*
X36275000Y-22405000D01*
X45085000Y-22225000D02*
X46275000Y-22405000D01*
X46275000Y-42545000D02*
X45085000Y-42725000D01*
X37465000Y-42725000D02*
X36275000Y-42545000D01*
X36275000Y-22405000D02*
X37465000Y-22225000D01*
X46275000Y-22405000D02*
X46275000Y-42545000D01*
X37465000Y-43815000D02*
X37465000Y-42725000D01*
X45085000Y-42725000D02*
X45085000Y-43815000D01*
X45085000Y-43815000D02*
X37465000Y-43815000D01*
X40025000Y-25135000D02*
X42525000Y-25135000D01*
X42525000Y-25135000D02*
X42525000Y-39635000D01*
X42525000Y-39635000D02*
X40025000Y-39635000D01*
X40025000Y-39635000D02*
X40025000Y-25135000D01*
X40275000Y-21225000D02*
G75*
G03*
X42275000Y-21225000I1000000J0D01*
G01*
X46990000Y-56515000D02*
X46990000Y-57785000D01*
X39370000Y-56515000D02*
X38180000Y-56335000D01*
X46990000Y-45085000D02*
X46990000Y-46355000D01*
X48180000Y-46535000D02*
X48180000Y-56335000D01*
X46990000Y-57785000D02*
X39370000Y-57785000D01*
X38180000Y-56335000D02*
X38180000Y-46535000D01*
X39370000Y-46355000D02*
X39370000Y-45085000D01*
X39370000Y-57785000D02*
X39370000Y-56515000D01*
X39370000Y-45085000D02*
X46990000Y-45085000D01*
X48180000Y-56335000D02*
X46990000Y-56515000D01*
X38180000Y-46535000D02*
X39370000Y-46355000D01*
X46990000Y-46355000D02*
X48180000Y-46535000D01*
X44430000Y-53735000D02*
X41930000Y-53735000D01*
X41930000Y-53735000D02*
X41930000Y-49135000D01*
X41930000Y-49135000D02*
X44430000Y-49135000D01*
X44430000Y-49135000D02*
X44430000Y-53735000D01*
X44180000Y-57515000D02*
G75*
G03*
X42180000Y-57515000I-1000000J0D01*
G01*
X27670000Y-23225000D02*
X27670000Y-21225000D01*
X25670000Y-21225000D02*
X25670000Y-23225000D01*
X37830000Y-54975000D02*
X37830000Y-52975000D01*
X35830000Y-52975000D02*
X35830000Y-54975000D01*
X48490000Y-91440000D02*
X47720000Y-91440000D01*
X47720000Y-90070000D02*
X41180000Y-90070000D01*
X41180000Y-90070000D02*
X41180000Y-92810000D01*
X40410000Y-91440000D02*
X41180000Y-91440000D01*
X41180000Y-92810000D02*
X47720000Y-92810000D01*
X47720000Y-92810000D02*
X47720000Y-90070000D01*
%LPC*%
D12*
X13970000Y-91440000D03*
D13*
X3810000Y-91440000D03*
D12*
X2540000Y-27305000D03*
D13*
X2540000Y-37465000D03*
D14*
X12065000Y-31115000D03*
X12065000Y-33655000D03*
D12*
X33655000Y-26035000D03*
D13*
X33655000Y-15875000D03*
D12*
X3810000Y-94615000D03*
D13*
X13970000Y-94615000D03*
D15*
X1270000Y-70485000D03*
D13*
X8890000Y-70485000D03*
D14*
X12700000Y-80645000D03*
X10160000Y-80645000D03*
X7620000Y-80645000D03*
X5080000Y-80645000D03*
X5080000Y-88265000D03*
X7620000Y-88265000D03*
X10160000Y-88265000D03*
X12700000Y-88265000D03*
X41275000Y-33655000D03*
X41275000Y-31115000D03*
X26670000Y-52705000D03*
X26670000Y-50165000D03*
X40640000Y-88265000D03*
X43180000Y-88265000D03*
X45720000Y-88265000D03*
X48260000Y-88265000D03*
X48260000Y-80645000D03*
X45720000Y-80645000D03*
X43180000Y-80645000D03*
X40640000Y-80645000D03*
D12*
X19685000Y-45085000D03*
D13*
X19685000Y-55245000D03*
D16*
X5080000Y-41275000D03*
D17*
X3810000Y-42545000D03*
X2540000Y-41275000D03*
D14*
X26670000Y-76835000D03*
X26670000Y-74295000D03*
X22860000Y-70485000D03*
X22860000Y-73025000D03*
X22860000Y-75565000D03*
X22860000Y-78105000D03*
X22860000Y-80645000D03*
X22860000Y-83185000D03*
X22860000Y-85725000D03*
X22860000Y-88265000D03*
X30480000Y-88265000D03*
X30480000Y-85725000D03*
X30480000Y-83185000D03*
X30480000Y-80645000D03*
X30480000Y-78105000D03*
X30480000Y-75565000D03*
X30480000Y-73025000D03*
X30480000Y-70485000D03*
X10160000Y-53975000D03*
X10160000Y-56515000D03*
D12*
X19685000Y-28575000D03*
D13*
X19685000Y-38735000D03*
D14*
X22860000Y-47625000D03*
X22860000Y-50165000D03*
X22860000Y-52705000D03*
X22860000Y-55245000D03*
X22860000Y-57785000D03*
X22860000Y-60325000D03*
X22860000Y-62865000D03*
X22860000Y-65405000D03*
X30480000Y-65405000D03*
X30480000Y-62865000D03*
X30480000Y-60325000D03*
X30480000Y-57785000D03*
X30480000Y-55245000D03*
X30480000Y-52705000D03*
X30480000Y-50165000D03*
X30480000Y-47625000D03*
D12*
X5080000Y-37465000D03*
D13*
X5080000Y-27305000D03*
D12*
X15240000Y-73025000D03*
D13*
X5080000Y-73025000D03*
D18*
X36830000Y-80645000D03*
D14*
X52070000Y-85725000D03*
X52070000Y-83185000D03*
D12*
X15240000Y-67310000D03*
D13*
X5080000Y-67310000D03*
D19*
X45720000Y-74930000D03*
X48260000Y-77470000D03*
X50800000Y-74930000D03*
D18*
X16510000Y-88265000D03*
D14*
X26670000Y-26035000D03*
X26670000Y-28575000D03*
X16510000Y-85725000D03*
X16510000Y-83185000D03*
X1270000Y-83185000D03*
X1270000Y-85725000D03*
D12*
X5080000Y-75565000D03*
D13*
X15240000Y-75565000D03*
D12*
X33655000Y-57785000D03*
D13*
X33655000Y-67945000D03*
D12*
X33655000Y-55245000D03*
D13*
X33655000Y-45085000D03*
D12*
X19685000Y-15875000D03*
D13*
X19685000Y-26035000D03*
D12*
X39370000Y-94615000D03*
D13*
X49530000Y-94615000D03*
D18*
X16510000Y-80645000D03*
D20*
X26670000Y-41910000D03*
D21*
X17780000Y-11430000D03*
D22*
X17780000Y-8890000D03*
X20320000Y-11430000D03*
X20320000Y-8890000D03*
X22860000Y-11430000D03*
X22860000Y-8890000D03*
X25400000Y-11430000D03*
X25400000Y-8890000D03*
X27940000Y-11430000D03*
X27940000Y-8890000D03*
X30480000Y-11430000D03*
X30480000Y-8890000D03*
X33020000Y-11430000D03*
X33020000Y-8890000D03*
X35560000Y-11430000D03*
X35560000Y-8890000D03*
D14*
X26670000Y-62865000D03*
X26670000Y-60325000D03*
D19*
X38100000Y-74930000D03*
X40640000Y-77470000D03*
X43180000Y-74930000D03*
D23*
X45720000Y-62230000D03*
D15*
X1270000Y-78105000D03*
D13*
X8890000Y-78105000D03*
D12*
X19685000Y-57785000D03*
D13*
X19685000Y-67945000D03*
D14*
X15875000Y-41275000D03*
X15875000Y-38735000D03*
X15875000Y-36195000D03*
X15875000Y-33655000D03*
X15875000Y-31115000D03*
X15875000Y-28575000D03*
X15875000Y-26035000D03*
X15875000Y-23495000D03*
X8255000Y-23495000D03*
X8255000Y-26035000D03*
X8255000Y-28575000D03*
X8255000Y-31115000D03*
X8255000Y-33655000D03*
X8255000Y-36195000D03*
X8255000Y-38735000D03*
X8255000Y-41275000D03*
D12*
X33655000Y-38735000D03*
D13*
X33655000Y-28575000D03*
D20*
X3810000Y-3810000D03*
D14*
X22860000Y-18415000D03*
X22860000Y-20955000D03*
X22860000Y-23495000D03*
X22860000Y-26035000D03*
X22860000Y-28575000D03*
X22860000Y-31115000D03*
X22860000Y-33655000D03*
X22860000Y-36195000D03*
X30480000Y-36195000D03*
X30480000Y-33655000D03*
X30480000Y-31115000D03*
X30480000Y-28575000D03*
X30480000Y-26035000D03*
X30480000Y-23495000D03*
X30480000Y-20955000D03*
X30480000Y-18415000D03*
X26670000Y-55245000D03*
X26670000Y-57785000D03*
X13970000Y-62865000D03*
X13970000Y-60325000D03*
X13970000Y-57785000D03*
X13970000Y-55245000D03*
X13970000Y-52705000D03*
X13970000Y-50165000D03*
X13970000Y-47625000D03*
X6350000Y-47625000D03*
X6350000Y-50165000D03*
X6350000Y-52705000D03*
X6350000Y-55245000D03*
X6350000Y-57785000D03*
X6350000Y-60325000D03*
X6350000Y-62865000D03*
D15*
X11430000Y-70485000D03*
D13*
X19050000Y-70485000D03*
D14*
X49530000Y-50165000D03*
X49530000Y-47625000D03*
X26670000Y-31115000D03*
X26670000Y-33655000D03*
D18*
X36830000Y-88265000D03*
D20*
X26670000Y-102870000D03*
D14*
X36830000Y-83185000D03*
X36830000Y-85725000D03*
D24*
X19050000Y-78105000D03*
D13*
X11430000Y-78105000D03*
D14*
X37465000Y-23495000D03*
X37465000Y-26035000D03*
X37465000Y-28575000D03*
X37465000Y-31115000D03*
X37465000Y-33655000D03*
X37465000Y-36195000D03*
X37465000Y-38735000D03*
X37465000Y-41275000D03*
X45085000Y-41275000D03*
X45085000Y-38735000D03*
X45085000Y-36195000D03*
X45085000Y-33655000D03*
X45085000Y-31115000D03*
X45085000Y-28575000D03*
X45085000Y-26035000D03*
X45085000Y-23495000D03*
D20*
X49530000Y-3810000D03*
D14*
X46990000Y-55245000D03*
X46990000Y-52705000D03*
X46990000Y-50165000D03*
X46990000Y-47625000D03*
X39370000Y-47625000D03*
X39370000Y-50165000D03*
X39370000Y-52705000D03*
X39370000Y-55245000D03*
X26670000Y-23495000D03*
X26670000Y-20955000D03*
X36830000Y-55245000D03*
X36830000Y-52705000D03*
D12*
X49530000Y-91440000D03*
D13*
X39370000Y-91440000D03*
D18*
X10160000Y-98425000D03*
D25*
X12700000Y-98425000D03*
X15240000Y-98425000D03*
D26*
X26670000Y-79370000D03*
D25*
X26670000Y-81910000D03*
D18*
X22860000Y-3810000D03*
D25*
X25400000Y-3810000D03*
X27940000Y-3810000D03*
X30480000Y-3810000D03*
D18*
X38100000Y-62230000D03*
D25*
X40640000Y-62230000D03*
X43180000Y-62230000D03*
M02*
