G04 #@! TF.GenerationSoftware,KiCad,Pcbnew,(6.0.0)*
G04 #@! TF.CreationDate,2022-08-08T23:12:55+02:00*
G04 #@! TF.ProjectId,FG-VCO-(core2),46472d56-434f-42d2-9863-6f726532292e,rev?*
G04 #@! TF.SameCoordinates,Original*
G04 #@! TF.FileFunction,Soldermask,Bot*
G04 #@! TF.FilePolarity,Negative*
%FSLAX46Y46*%
G04 Gerber Fmt 4.6, Leading zero omitted, Abs format (unit mm)*
G04 Created by KiCad (PCBNEW (6.0.0)) date 2022-08-08 23:12:55*
%MOMM*%
%LPD*%
G01*
G04 APERTURE LIST*
G04 Aperture macros list*
%AMRoundRect*
0 Rectangle with rounded corners*
0 $1 Rounding radius*
0 $2 $3 $4 $5 $6 $7 $8 $9 X,Y pos of 4 corners*
0 Add a 4 corners polygon primitive as box body*
4,1,4,$2,$3,$4,$5,$6,$7,$8,$9,$2,$3,0*
0 Add four circle primitives for the rounded corners*
1,1,$1+$1,$2,$3*
1,1,$1+$1,$4,$5*
1,1,$1+$1,$6,$7*
1,1,$1+$1,$8,$9*
0 Add four rect primitives between the rounded corners*
20,1,$1+$1,$2,$3,$4,$5,0*
20,1,$1+$1,$4,$5,$6,$7,0*
20,1,$1+$1,$6,$7,$8,$9,0*
20,1,$1+$1,$8,$9,$2,$3,0*%
G04 Aperture macros list end*
%ADD10C,1.702000*%
%ADD11O,1.702000X1.702000*%
%ADD12C,1.626000*%
%ADD13RoundRect,0.051000X-0.800000X-0.800000X0.800000X-0.800000X0.800000X0.800000X-0.800000X0.800000X0*%
%ADD14RoundRect,0.051000X0.650000X0.650000X-0.650000X0.650000X-0.650000X-0.650000X0.650000X-0.650000X0*%
%ADD15C,1.402000*%
%ADD16RoundRect,0.051000X-0.850000X0.850000X-0.850000X-0.850000X0.850000X-0.850000X0.850000X0.850000X0*%
%ADD17C,1.542000*%
%ADD18C,3.302000*%
%ADD19RoundRect,0.301000X0.600000X-0.600000X0.600000X0.600000X-0.600000X0.600000X-0.600000X-0.600000X0*%
%ADD20C,1.802000*%
%ADD21RoundRect,0.051000X-0.850000X-0.850000X0.850000X-0.850000X0.850000X0.850000X-0.850000X0.850000X0*%
%ADD22RoundRect,0.051000X0.800000X0.800000X-0.800000X0.800000X-0.800000X-0.800000X0.800000X-0.800000X0*%
%ADD23O,1.802000X1.802000*%
%ADD24RoundRect,0.051000X0.850000X0.850000X-0.850000X0.850000X-0.850000X-0.850000X0.850000X-0.850000X0*%
G04 APERTURE END LIST*
D10*
X13970000Y-91440000D03*
D11*
X3810000Y-91440000D03*
D10*
X2540000Y-27305000D03*
D11*
X2540000Y-37465000D03*
D12*
X12065000Y-31115000D03*
X12065000Y-33655000D03*
D10*
X33655000Y-26035000D03*
D11*
X33655000Y-15875000D03*
D10*
X3810000Y-94615000D03*
D11*
X13970000Y-94615000D03*
D13*
X1270000Y-70485000D03*
D11*
X8890000Y-70485000D03*
D12*
X12700000Y-80645000D03*
X10160000Y-80645000D03*
X7620000Y-80645000D03*
X5080000Y-80645000D03*
X5080000Y-88265000D03*
X7620000Y-88265000D03*
X10160000Y-88265000D03*
X12700000Y-88265000D03*
X41275000Y-33655000D03*
X41275000Y-31115000D03*
X26670000Y-52705000D03*
X26670000Y-50165000D03*
X40640000Y-88265000D03*
X43180000Y-88265000D03*
X45720000Y-88265000D03*
X48260000Y-88265000D03*
X48260000Y-80645000D03*
X45720000Y-80645000D03*
X43180000Y-80645000D03*
X40640000Y-80645000D03*
D10*
X19685000Y-45085000D03*
D11*
X19685000Y-55245000D03*
D14*
X5080000Y-41275000D03*
D15*
X3810000Y-42545000D03*
X2540000Y-41275000D03*
D12*
X26670000Y-76835000D03*
X26670000Y-74295000D03*
X22860000Y-70485000D03*
X22860000Y-73025000D03*
X22860000Y-75565000D03*
X22860000Y-78105000D03*
X22860000Y-80645000D03*
X22860000Y-83185000D03*
X22860000Y-85725000D03*
X22860000Y-88265000D03*
X30480000Y-88265000D03*
X30480000Y-85725000D03*
X30480000Y-83185000D03*
X30480000Y-80645000D03*
X30480000Y-78105000D03*
X30480000Y-75565000D03*
X30480000Y-73025000D03*
X30480000Y-70485000D03*
X10160000Y-53975000D03*
X10160000Y-56515000D03*
D10*
X19685000Y-28575000D03*
D11*
X19685000Y-38735000D03*
D12*
X22860000Y-47625000D03*
X22860000Y-50165000D03*
X22860000Y-52705000D03*
X22860000Y-55245000D03*
X22860000Y-57785000D03*
X22860000Y-60325000D03*
X22860000Y-62865000D03*
X22860000Y-65405000D03*
X30480000Y-65405000D03*
X30480000Y-62865000D03*
X30480000Y-60325000D03*
X30480000Y-57785000D03*
X30480000Y-55245000D03*
X30480000Y-52705000D03*
X30480000Y-50165000D03*
X30480000Y-47625000D03*
D10*
X5080000Y-37465000D03*
D11*
X5080000Y-27305000D03*
D10*
X15240000Y-73025000D03*
D11*
X5080000Y-73025000D03*
D16*
X36830000Y-80645000D03*
D12*
X52070000Y-85725000D03*
X52070000Y-83185000D03*
D10*
X15240000Y-67310000D03*
D11*
X5080000Y-67310000D03*
D17*
X45720000Y-74930000D03*
X48260000Y-77470000D03*
X50800000Y-74930000D03*
D16*
X16510000Y-88265000D03*
D12*
X26670000Y-26035000D03*
X26670000Y-28575000D03*
X16510000Y-85725000D03*
X16510000Y-83185000D03*
X1270000Y-83185000D03*
X1270000Y-85725000D03*
D10*
X5080000Y-75565000D03*
D11*
X15240000Y-75565000D03*
D10*
X33655000Y-57785000D03*
D11*
X33655000Y-67945000D03*
D10*
X33655000Y-55245000D03*
D11*
X33655000Y-45085000D03*
D10*
X19685000Y-15875000D03*
D11*
X19685000Y-26035000D03*
D10*
X39370000Y-94615000D03*
D11*
X49530000Y-94615000D03*
D16*
X16510000Y-80645000D03*
D18*
X26670000Y-41910000D03*
D19*
X17780000Y-11430000D03*
D20*
X17780000Y-8890000D03*
X20320000Y-11430000D03*
X20320000Y-8890000D03*
X22860000Y-11430000D03*
X22860000Y-8890000D03*
X25400000Y-11430000D03*
X25400000Y-8890000D03*
X27940000Y-11430000D03*
X27940000Y-8890000D03*
X30480000Y-11430000D03*
X30480000Y-8890000D03*
X33020000Y-11430000D03*
X33020000Y-8890000D03*
X35560000Y-11430000D03*
X35560000Y-8890000D03*
D12*
X26670000Y-62865000D03*
X26670000Y-60325000D03*
D17*
X38100000Y-74930000D03*
X40640000Y-77470000D03*
X43180000Y-74930000D03*
D21*
X45720000Y-62230000D03*
D13*
X1270000Y-78105000D03*
D11*
X8890000Y-78105000D03*
D10*
X19685000Y-57785000D03*
D11*
X19685000Y-67945000D03*
D12*
X15875000Y-41275000D03*
X15875000Y-38735000D03*
X15875000Y-36195000D03*
X15875000Y-33655000D03*
X15875000Y-31115000D03*
X15875000Y-28575000D03*
X15875000Y-26035000D03*
X15875000Y-23495000D03*
X8255000Y-23495000D03*
X8255000Y-26035000D03*
X8255000Y-28575000D03*
X8255000Y-31115000D03*
X8255000Y-33655000D03*
X8255000Y-36195000D03*
X8255000Y-38735000D03*
X8255000Y-41275000D03*
D10*
X33655000Y-38735000D03*
D11*
X33655000Y-28575000D03*
D18*
X3810000Y-3810000D03*
D12*
X22860000Y-18415000D03*
X22860000Y-20955000D03*
X22860000Y-23495000D03*
X22860000Y-26035000D03*
X22860000Y-28575000D03*
X22860000Y-31115000D03*
X22860000Y-33655000D03*
X22860000Y-36195000D03*
X30480000Y-36195000D03*
X30480000Y-33655000D03*
X30480000Y-31115000D03*
X30480000Y-28575000D03*
X30480000Y-26035000D03*
X30480000Y-23495000D03*
X30480000Y-20955000D03*
X30480000Y-18415000D03*
X26670000Y-55245000D03*
X26670000Y-57785000D03*
X13970000Y-62865000D03*
X13970000Y-60325000D03*
X13970000Y-57785000D03*
X13970000Y-55245000D03*
X13970000Y-52705000D03*
X13970000Y-50165000D03*
X13970000Y-47625000D03*
X6350000Y-47625000D03*
X6350000Y-50165000D03*
X6350000Y-52705000D03*
X6350000Y-55245000D03*
X6350000Y-57785000D03*
X6350000Y-60325000D03*
X6350000Y-62865000D03*
D13*
X11430000Y-70485000D03*
D11*
X19050000Y-70485000D03*
D12*
X49530000Y-50165000D03*
X49530000Y-47625000D03*
X26670000Y-31115000D03*
X26670000Y-33655000D03*
D16*
X36830000Y-88265000D03*
D18*
X26670000Y-102870000D03*
D12*
X36830000Y-83185000D03*
X36830000Y-85725000D03*
D22*
X19050000Y-78105000D03*
D11*
X11430000Y-78105000D03*
D12*
X37465000Y-23495000D03*
X37465000Y-26035000D03*
X37465000Y-28575000D03*
X37465000Y-31115000D03*
X37465000Y-33655000D03*
X37465000Y-36195000D03*
X37465000Y-38735000D03*
X37465000Y-41275000D03*
X45085000Y-41275000D03*
X45085000Y-38735000D03*
X45085000Y-36195000D03*
X45085000Y-33655000D03*
X45085000Y-31115000D03*
X45085000Y-28575000D03*
X45085000Y-26035000D03*
X45085000Y-23495000D03*
D18*
X49530000Y-3810000D03*
D12*
X46990000Y-55245000D03*
X46990000Y-52705000D03*
X46990000Y-50165000D03*
X46990000Y-47625000D03*
X39370000Y-47625000D03*
X39370000Y-50165000D03*
X39370000Y-52705000D03*
X39370000Y-55245000D03*
X26670000Y-23495000D03*
X26670000Y-20955000D03*
X36830000Y-55245000D03*
X36830000Y-52705000D03*
D10*
X49530000Y-91440000D03*
D11*
X39370000Y-91440000D03*
D16*
X10160000Y-98425000D03*
D23*
X12700000Y-98425000D03*
X15240000Y-98425000D03*
D24*
X26670000Y-79370000D03*
D23*
X26670000Y-81910000D03*
D16*
X22860000Y-3810000D03*
D23*
X25400000Y-3810000D03*
X27940000Y-3810000D03*
X30480000Y-3810000D03*
D16*
X38100000Y-62230000D03*
D23*
X40640000Y-62230000D03*
X43180000Y-62230000D03*
G36*
X4380387Y-41850751D02*
G01*
X4381000Y-41852192D01*
X4381000Y-41924801D01*
X4384767Y-41943738D01*
X4395380Y-41959620D01*
X4411262Y-41970233D01*
X4430199Y-41974000D01*
X4502212Y-41974000D01*
X4503944Y-41975000D01*
X4503944Y-41977000D01*
X4502775Y-41977919D01*
X4435760Y-41997596D01*
X4390405Y-42049939D01*
X4380534Y-42118593D01*
X4395787Y-42162664D01*
X4404729Y-42178151D01*
X4404729Y-42180151D01*
X4402997Y-42181151D01*
X4401349Y-42180284D01*
X4334316Y-42082751D01*
X4208924Y-41971031D01*
X4106591Y-41916848D01*
X4105528Y-41915153D01*
X4106464Y-41913386D01*
X4108340Y-41913253D01*
X4160968Y-41936685D01*
X4161331Y-41936894D01*
X4181473Y-41951528D01*
X4246986Y-41974902D01*
X4314444Y-41959215D01*
X4362745Y-41909514D01*
X4377059Y-41851711D01*
X4378446Y-41850270D01*
X4380387Y-41850751D01*
G37*
M02*
