M48
; DRILL file {KiCad (6.0.0)} date Mon Aug  8 23:12:57 2022
; FORMAT={-:-/ absolute / metric / decimal}
; #@! TF.CreationDate,2022-08-08T23:12:57+02:00
; #@! TF.GenerationSoftware,Kicad,Pcbnew,(6.0.0)
; #@! TF.FileFunction,Plated,1,2,PTH
FMAT,2
METRIC
; #@! TA.AperFunction,Plated,PTH,ViaDrill
T1C0.400
; #@! TA.AperFunction,Plated,PTH,ComponentDrill
T2C0.750
; #@! TA.AperFunction,Plated,PTH,ComponentDrill
T3C0.762
; #@! TA.AperFunction,Plated,PTH,ComponentDrill
T4C0.800
; #@! TA.AperFunction,Plated,PTH,ComponentDrill
T5C1.000
%
G90
G05
T1
X22.86Y-43.815
X23.495Y-27.305
X26.035Y-27.305
X30.48Y-43.815
T2
X2.54Y-41.275
X3.81Y-42.545
X5.08Y-41.275
T3
X1.27Y-83.185
X1.27Y-85.725
X5.08Y-80.645
X5.08Y-88.265
X6.35Y-47.625
X6.35Y-50.165
X6.35Y-52.705
X6.35Y-55.245
X6.35Y-57.785
X6.35Y-60.325
X6.35Y-62.865
X7.62Y-80.645
X7.62Y-88.265
X8.255Y-23.495
X8.255Y-26.035
X8.255Y-28.575
X8.255Y-31.115
X8.255Y-33.655
X8.255Y-36.195
X8.255Y-38.735
X8.255Y-41.275
X10.16Y-53.975
X10.16Y-56.515
X10.16Y-80.645
X10.16Y-88.265
X12.065Y-31.115
X12.065Y-33.655
X12.7Y-80.645
X12.7Y-88.265
X13.97Y-47.625
X13.97Y-50.165
X13.97Y-52.705
X13.97Y-55.245
X13.97Y-57.785
X13.97Y-60.325
X13.97Y-62.865
X15.875Y-23.495
X15.875Y-26.035
X15.875Y-28.575
X15.875Y-31.115
X15.875Y-33.655
X15.875Y-36.195
X15.875Y-38.735
X15.875Y-41.275
X16.51Y-83.185
X16.51Y-85.725
X22.86Y-18.415
X22.86Y-20.955
X22.86Y-23.495
X22.86Y-26.035
X22.86Y-28.575
X22.86Y-31.115
X22.86Y-33.655
X22.86Y-36.195
X22.86Y-47.625
X22.86Y-50.165
X22.86Y-52.705
X22.86Y-55.245
X22.86Y-57.785
X22.86Y-60.325
X22.86Y-62.865
X22.86Y-65.405
X22.86Y-70.485
X22.86Y-73.025
X22.86Y-75.565
X22.86Y-78.105
X22.86Y-80.645
X22.86Y-83.185
X22.86Y-85.725
X22.86Y-88.265
X26.67Y-20.955
X26.67Y-23.495
X26.67Y-26.035
X26.67Y-28.575
X26.67Y-31.115
X26.67Y-33.655
X26.67Y-50.165
X26.67Y-52.705
X26.67Y-55.245
X26.67Y-57.785
X26.67Y-60.325
X26.67Y-62.865
X26.67Y-74.295
X26.67Y-76.835
X30.48Y-18.415
X30.48Y-20.955
X30.48Y-23.495
X30.48Y-26.035
X30.48Y-28.575
X30.48Y-31.115
X30.48Y-33.655
X30.48Y-36.195
X30.48Y-47.625
X30.48Y-50.165
X30.48Y-52.705
X30.48Y-55.245
X30.48Y-57.785
X30.48Y-60.325
X30.48Y-62.865
X30.48Y-65.405
X30.48Y-70.485
X30.48Y-73.025
X30.48Y-75.565
X30.48Y-78.105
X30.48Y-80.645
X30.48Y-83.185
X30.48Y-85.725
X30.48Y-88.265
X36.83Y-52.705
X36.83Y-55.245
X36.83Y-83.185
X36.83Y-85.725
X37.465Y-23.495
X37.465Y-26.035
X37.465Y-28.575
X37.465Y-31.115
X37.465Y-33.655
X37.465Y-36.195
X37.465Y-38.735
X37.465Y-41.275
X39.37Y-47.625
X39.37Y-50.165
X39.37Y-52.705
X39.37Y-55.245
X40.64Y-80.645
X40.64Y-88.265
X41.275Y-31.115
X41.275Y-33.655
X43.18Y-80.645
X43.18Y-88.265
X45.085Y-23.495
X45.085Y-26.035
X45.085Y-28.575
X45.085Y-31.115
X45.085Y-33.655
X45.085Y-36.195
X45.085Y-38.735
X45.085Y-41.275
X45.72Y-80.645
X45.72Y-88.265
X46.99Y-47.625
X46.99Y-50.165
X46.99Y-52.705
X46.99Y-55.245
X48.26Y-80.645
X48.26Y-88.265
X49.53Y-47.625
X49.53Y-50.165
X52.07Y-83.185
X52.07Y-85.725
T4
X1.27Y-70.485
X1.27Y-78.105
X2.54Y-27.305
X2.54Y-37.465
X3.81Y-91.44
X3.81Y-94.615
X5.08Y-27.305
X5.08Y-37.465
X5.08Y-67.31
X5.08Y-73.025
X5.08Y-75.565
X8.89Y-70.485
X8.89Y-78.105
X11.43Y-70.485
X11.43Y-78.105
X13.97Y-91.44
X13.97Y-94.615
X15.24Y-67.31
X15.24Y-73.025
X15.24Y-75.565
X19.05Y-70.485
X19.05Y-78.105
X19.685Y-15.875
X19.685Y-26.035
X19.685Y-28.575
X19.685Y-38.735
X19.685Y-45.085
X19.685Y-55.245
X19.685Y-57.785
X19.685Y-67.945
X33.655Y-15.875
X33.655Y-26.035
X33.655Y-28.575
X33.655Y-38.735
X33.655Y-45.085
X33.655Y-55.245
X33.655Y-57.785
X33.655Y-67.945
X38.1Y-74.93
X39.37Y-91.44
X39.37Y-94.615
X40.64Y-77.47
X43.18Y-74.93
X45.72Y-74.93
X48.26Y-77.47
X49.53Y-91.44
X49.53Y-94.615
X50.8Y-74.93
T5
X10.16Y-98.425
X12.7Y-98.425
X15.24Y-98.425
X16.51Y-80.645
X16.51Y-88.265
X17.78Y-8.89
X17.78Y-11.43
X20.32Y-8.89
X20.32Y-11.43
X22.86Y-3.81
X22.86Y-8.89
X22.86Y-11.43
X25.4Y-3.81
X25.4Y-8.89
X25.4Y-11.43
X26.67Y-79.37
X26.67Y-81.91
X27.94Y-3.81
X27.94Y-8.89
X27.94Y-11.43
X30.48Y-3.81
X30.48Y-8.89
X30.48Y-11.43
X33.02Y-8.89
X33.02Y-11.43
X35.56Y-8.89
X35.56Y-11.43
X36.83Y-80.645
X36.83Y-88.265
X38.1Y-62.23
X40.64Y-62.23
X43.18Y-62.23
X45.72Y-62.23
T0
M30
