G04 #@! TF.GenerationSoftware,KiCad,Pcbnew,(6.0.0)*
G04 #@! TF.CreationDate,2022-08-09T16:48:56+02:00*
G04 #@! TF.ProjectId,FG-VCO-(panel),46472d56-434f-42d2-9870-616e656c292e,rev?*
G04 #@! TF.SameCoordinates,Original*
G04 #@! TF.FileFunction,Copper,L1,Top*
G04 #@! TF.FilePolarity,Positive*
%FSLAX46Y46*%
G04 Gerber Fmt 4.6, Leading zero omitted, Abs format (unit mm)*
G04 Created by KiCad (PCBNEW (6.0.0)) date 2022-08-09 16:48:56*
%MOMM*%
%LPD*%
G01*
G04 APERTURE LIST*
G04 APERTURE END LIST*
G04 #@! TA.AperFunction,NonConductor*
G36*
X53298691Y-19407D02*
G01*
X53334655Y-68907D01*
X53339500Y-99500D01*
X53339500Y-128171000D01*
X53320593Y-128229191D01*
X53271093Y-128265155D01*
X53240500Y-128270000D01*
X99500Y-128270000D01*
X41309Y-128251093D01*
X5345Y-128201593D01*
X500Y-128171000D01*
X500Y-126380646D01*
X19407Y-126322455D01*
X68907Y-126286491D01*
X130093Y-126286491D01*
X179593Y-126322455D01*
X188330Y-126336940D01*
X188853Y-126338004D01*
X190199Y-126341326D01*
X192007Y-126344413D01*
X192008Y-126344416D01*
X285341Y-126503818D01*
X329558Y-126579335D01*
X501816Y-126794732D01*
X703364Y-126983008D01*
X929979Y-127140216D01*
X933184Y-127141811D01*
X933190Y-127141814D01*
X1173699Y-127261466D01*
X1173704Y-127261468D01*
X1176914Y-127263065D01*
X1180325Y-127264183D01*
X1180327Y-127264184D01*
X1435593Y-127347864D01*
X1435596Y-127347865D01*
X1438998Y-127348980D01*
X1710738Y-127396162D01*
X1761160Y-127398672D01*
X1796644Y-127400439D01*
X1796657Y-127400439D01*
X1797876Y-127400500D01*
X4170070Y-127400500D01*
X4375083Y-127385625D01*
X4405490Y-127378912D01*
X4640904Y-127326937D01*
X4640910Y-127326935D01*
X4644403Y-127326164D01*
X4647752Y-127324895D01*
X4647756Y-127324894D01*
X4810951Y-127263065D01*
X4902319Y-127228449D01*
X5143428Y-127094525D01*
X5362678Y-126927198D01*
X5555477Y-126729974D01*
X5667376Y-126576242D01*
X5715682Y-126509876D01*
X5717787Y-126506984D01*
X5784257Y-126380646D01*
X5844536Y-126266073D01*
X5846206Y-126262899D01*
X5938045Y-126002832D01*
X5991380Y-125732232D01*
X6000789Y-125543233D01*
X44624906Y-125543233D01*
X44625246Y-125546795D01*
X44625246Y-125546802D01*
X44643274Y-125735748D01*
X44651102Y-125817792D01*
X44716657Y-126085694D01*
X44820199Y-126341326D01*
X44822010Y-126344419D01*
X44822011Y-126344421D01*
X44915341Y-126503818D01*
X44959558Y-126579335D01*
X45131816Y-126794732D01*
X45333364Y-126983008D01*
X45559979Y-127140216D01*
X45563184Y-127141811D01*
X45563190Y-127141814D01*
X45803699Y-127261466D01*
X45803704Y-127261468D01*
X45806914Y-127263065D01*
X45810325Y-127264183D01*
X45810327Y-127264184D01*
X46065593Y-127347864D01*
X46065596Y-127347865D01*
X46068998Y-127348980D01*
X46340738Y-127396162D01*
X46391160Y-127398672D01*
X46426644Y-127400439D01*
X46426657Y-127400439D01*
X46427876Y-127400500D01*
X48800070Y-127400500D01*
X49005083Y-127385625D01*
X49035490Y-127378912D01*
X49270904Y-127326937D01*
X49270910Y-127326935D01*
X49274403Y-127326164D01*
X49277752Y-127324895D01*
X49277756Y-127324894D01*
X49440951Y-127263065D01*
X49532319Y-127228449D01*
X49773428Y-127094525D01*
X49992678Y-126927198D01*
X50185477Y-126729974D01*
X50297376Y-126576242D01*
X50345682Y-126509876D01*
X50347787Y-126506984D01*
X50414257Y-126380646D01*
X50474536Y-126266073D01*
X50476206Y-126262899D01*
X50568045Y-126002832D01*
X50621380Y-125732232D01*
X50635094Y-125456767D01*
X50634754Y-125453205D01*
X50634754Y-125453198D01*
X50609239Y-125185779D01*
X50609238Y-125185775D01*
X50608898Y-125182208D01*
X50543343Y-124914306D01*
X50439801Y-124658674D01*
X50300442Y-124420665D01*
X50128184Y-124205268D01*
X49926636Y-124016992D01*
X49700021Y-123859784D01*
X49696816Y-123858189D01*
X49696810Y-123858186D01*
X49456301Y-123738534D01*
X49456296Y-123738532D01*
X49453086Y-123736935D01*
X49449675Y-123735817D01*
X49449673Y-123735816D01*
X49194407Y-123652136D01*
X49194404Y-123652135D01*
X49191002Y-123651020D01*
X48919262Y-123603838D01*
X48868840Y-123601328D01*
X48833356Y-123599561D01*
X48833343Y-123599561D01*
X48832124Y-123599500D01*
X46459930Y-123599500D01*
X46254917Y-123614375D01*
X46251406Y-123615150D01*
X46251407Y-123615150D01*
X45989096Y-123673063D01*
X45989090Y-123673065D01*
X45985597Y-123673836D01*
X45982248Y-123675105D01*
X45982244Y-123675106D01*
X45878185Y-123714530D01*
X45727681Y-123771551D01*
X45486572Y-123905475D01*
X45267322Y-124072802D01*
X45074523Y-124270026D01*
X45072414Y-124272923D01*
X45072411Y-124272927D01*
X44914318Y-124490124D01*
X44912213Y-124493016D01*
X44783794Y-124737101D01*
X44691955Y-124997168D01*
X44638620Y-125267768D01*
X44624906Y-125543233D01*
X6000789Y-125543233D01*
X6005094Y-125456767D01*
X6004754Y-125453205D01*
X6004754Y-125453198D01*
X5979239Y-125185779D01*
X5979238Y-125185775D01*
X5978898Y-125182208D01*
X5913343Y-124914306D01*
X5809801Y-124658674D01*
X5670442Y-124420665D01*
X5498184Y-124205268D01*
X5296636Y-124016992D01*
X5070021Y-123859784D01*
X5066816Y-123858189D01*
X5066810Y-123858186D01*
X4826301Y-123738534D01*
X4826296Y-123738532D01*
X4823086Y-123736935D01*
X4819675Y-123735817D01*
X4819673Y-123735816D01*
X4564407Y-123652136D01*
X4564404Y-123652135D01*
X4561002Y-123651020D01*
X4289262Y-123603838D01*
X4238840Y-123601328D01*
X4203356Y-123599561D01*
X4203343Y-123599561D01*
X4202124Y-123599500D01*
X1829930Y-123599500D01*
X1624917Y-123614375D01*
X1621406Y-123615150D01*
X1621407Y-123615150D01*
X1359096Y-123673063D01*
X1359090Y-123673065D01*
X1355597Y-123673836D01*
X1352248Y-123675105D01*
X1352244Y-123675106D01*
X1248185Y-123714530D01*
X1097681Y-123771551D01*
X856572Y-123905475D01*
X637322Y-124072802D01*
X444523Y-124270026D01*
X442414Y-124272923D01*
X442411Y-124272927D01*
X284318Y-124490124D01*
X282213Y-124493016D01*
X280549Y-124496179D01*
X280547Y-124496182D01*
X187114Y-124673770D01*
X143287Y-124716464D01*
X82735Y-124725244D01*
X28586Y-124696755D01*
X1525Y-124641880D01*
X500Y-124627674D01*
X500Y-112927744D01*
X2461163Y-112927744D01*
X2469592Y-113285419D01*
X2517220Y-113640009D01*
X2603470Y-113987232D01*
X2604411Y-113989784D01*
X2604413Y-113989789D01*
X2675770Y-114183209D01*
X2727302Y-114322892D01*
X2728512Y-114325313D01*
X2728513Y-114325316D01*
X2819766Y-114507940D01*
X2887220Y-114642937D01*
X2888696Y-114645222D01*
X2888700Y-114645230D01*
X3027803Y-114860662D01*
X3081291Y-114943501D01*
X3307173Y-115220954D01*
X3562137Y-115471944D01*
X3564269Y-115473625D01*
X3564275Y-115473630D01*
X3840969Y-115691758D01*
X3843103Y-115693440D01*
X4146678Y-115882766D01*
X4149123Y-115883940D01*
X4149132Y-115883945D01*
X4307937Y-115960201D01*
X4469196Y-116037637D01*
X4806760Y-116156181D01*
X5155295Y-116236967D01*
X5157987Y-116237286D01*
X5157995Y-116237287D01*
X5508465Y-116278768D01*
X5508474Y-116278769D01*
X5510589Y-116279019D01*
X5538052Y-116279882D01*
X5556911Y-116280475D01*
X5556926Y-116280475D01*
X5557714Y-116280500D01*
X5804817Y-116280500D01*
X6019511Y-116268685D01*
X6069510Y-116265933D01*
X6069512Y-116265933D01*
X6072234Y-116265783D01*
X6249054Y-116236352D01*
X6422462Y-116207489D01*
X6422464Y-116207489D01*
X6425153Y-116207041D01*
X6427777Y-116206301D01*
X6766868Y-116110668D01*
X6766870Y-116110667D01*
X6769495Y-116109927D01*
X6772021Y-116108904D01*
X7098578Y-115976635D01*
X7098585Y-115976632D01*
X7101100Y-115975613D01*
X7103492Y-115974322D01*
X7103497Y-115974320D01*
X7275838Y-115881329D01*
X7415964Y-115805721D01*
X7710284Y-115602305D01*
X7712339Y-115600522D01*
X7978451Y-115369601D01*
X7978456Y-115369596D01*
X7980504Y-115367819D01*
X8118210Y-115218850D01*
X8221511Y-115107100D01*
X8221516Y-115107094D01*
X8223362Y-115105097D01*
X8435923Y-114817312D01*
X8615621Y-114507940D01*
X8760285Y-114180717D01*
X8868167Y-113839596D01*
X8937966Y-113488696D01*
X8955572Y-113285419D01*
X8968603Y-113134961D01*
X8968603Y-113134956D01*
X8968837Y-113132256D01*
X8964017Y-112927744D01*
X44371163Y-112927744D01*
X44379592Y-113285419D01*
X44427220Y-113640009D01*
X44513470Y-113987232D01*
X44514411Y-113989784D01*
X44514413Y-113989789D01*
X44585770Y-114183209D01*
X44637302Y-114322892D01*
X44638512Y-114325313D01*
X44638513Y-114325316D01*
X44729766Y-114507940D01*
X44797220Y-114642937D01*
X44798696Y-114645222D01*
X44798700Y-114645230D01*
X44937803Y-114860662D01*
X44991291Y-114943501D01*
X45217173Y-115220954D01*
X45472137Y-115471944D01*
X45474269Y-115473625D01*
X45474275Y-115473630D01*
X45750969Y-115691758D01*
X45753103Y-115693440D01*
X46056678Y-115882766D01*
X46059123Y-115883940D01*
X46059132Y-115883945D01*
X46217937Y-115960201D01*
X46379196Y-116037637D01*
X46716760Y-116156181D01*
X47065295Y-116236967D01*
X47067987Y-116237286D01*
X47067995Y-116237287D01*
X47418465Y-116278768D01*
X47418474Y-116278769D01*
X47420589Y-116279019D01*
X47448052Y-116279882D01*
X47466911Y-116280475D01*
X47466926Y-116280475D01*
X47467714Y-116280500D01*
X47714817Y-116280500D01*
X47929511Y-116268685D01*
X47979510Y-116265933D01*
X47979512Y-116265933D01*
X47982234Y-116265783D01*
X48159054Y-116236352D01*
X48332462Y-116207489D01*
X48332464Y-116207489D01*
X48335153Y-116207041D01*
X48337777Y-116206301D01*
X48676868Y-116110668D01*
X48676870Y-116110667D01*
X48679495Y-116109927D01*
X48682021Y-116108904D01*
X49008578Y-115976635D01*
X49008585Y-115976632D01*
X49011100Y-115975613D01*
X49013492Y-115974322D01*
X49013497Y-115974320D01*
X49185838Y-115881329D01*
X49325964Y-115805721D01*
X49620284Y-115602305D01*
X49622339Y-115600522D01*
X49888451Y-115369601D01*
X49888456Y-115369596D01*
X49890504Y-115367819D01*
X50028210Y-115218850D01*
X50131511Y-115107100D01*
X50131516Y-115107094D01*
X50133362Y-115105097D01*
X50345923Y-114817312D01*
X50525621Y-114507940D01*
X50670285Y-114180717D01*
X50778167Y-113839596D01*
X50847966Y-113488696D01*
X50865572Y-113285419D01*
X50878603Y-113134961D01*
X50878603Y-113134956D01*
X50878837Y-113132256D01*
X50870408Y-112774581D01*
X50822780Y-112419991D01*
X50736530Y-112072768D01*
X50666108Y-111881880D01*
X50613636Y-111739650D01*
X50613635Y-111739647D01*
X50612698Y-111737108D01*
X50521481Y-111554555D01*
X50453999Y-111419502D01*
X50453997Y-111419498D01*
X50452780Y-111417063D01*
X50451304Y-111414778D01*
X50451300Y-111414770D01*
X50260190Y-111118793D01*
X50258709Y-111116499D01*
X50032827Y-110839046D01*
X49777863Y-110588056D01*
X49775731Y-110586375D01*
X49775725Y-110586370D01*
X49499031Y-110368242D01*
X49499027Y-110368239D01*
X49496897Y-110366560D01*
X49193322Y-110177234D01*
X49190877Y-110176060D01*
X49190868Y-110176055D01*
X49002661Y-110085680D01*
X48870804Y-110022363D01*
X48533240Y-109903819D01*
X48184705Y-109823033D01*
X48182013Y-109822714D01*
X48182005Y-109822713D01*
X47831535Y-109781232D01*
X47831526Y-109781231D01*
X47829411Y-109780981D01*
X47801948Y-109780118D01*
X47783089Y-109779525D01*
X47783074Y-109779525D01*
X47782286Y-109779500D01*
X47535183Y-109779500D01*
X47320489Y-109791315D01*
X47270490Y-109794067D01*
X47270488Y-109794067D01*
X47267766Y-109794217D01*
X47096563Y-109822713D01*
X46917538Y-109852511D01*
X46917536Y-109852511D01*
X46914847Y-109852959D01*
X46912224Y-109853699D01*
X46912223Y-109853699D01*
X46736691Y-109903204D01*
X46570505Y-109950073D01*
X46567981Y-109951095D01*
X46567979Y-109951096D01*
X46241422Y-110083365D01*
X46241415Y-110083368D01*
X46238900Y-110084387D01*
X46236508Y-110085678D01*
X46236503Y-110085680D01*
X46096993Y-110160956D01*
X45924036Y-110254279D01*
X45629716Y-110457695D01*
X45627664Y-110459476D01*
X45627661Y-110459478D01*
X45361549Y-110690399D01*
X45361544Y-110690404D01*
X45359496Y-110692181D01*
X45357649Y-110694179D01*
X45357648Y-110694180D01*
X45118489Y-110952900D01*
X45118484Y-110952906D01*
X45116638Y-110954903D01*
X44904077Y-111242688D01*
X44724379Y-111552060D01*
X44579715Y-111879283D01*
X44471833Y-112220404D01*
X44402034Y-112571304D01*
X44401801Y-112573999D01*
X44401800Y-112574003D01*
X44384193Y-112777303D01*
X44371163Y-112927744D01*
X8964017Y-112927744D01*
X8960408Y-112774581D01*
X8912780Y-112419991D01*
X8826530Y-112072768D01*
X8756108Y-111881880D01*
X8703636Y-111739650D01*
X8703635Y-111739647D01*
X8702698Y-111737108D01*
X8611481Y-111554555D01*
X8543999Y-111419502D01*
X8543997Y-111419498D01*
X8542780Y-111417063D01*
X8541304Y-111414778D01*
X8541300Y-111414770D01*
X8350190Y-111118793D01*
X8348709Y-111116499D01*
X8122827Y-110839046D01*
X7867863Y-110588056D01*
X7865731Y-110586375D01*
X7865725Y-110586370D01*
X7589031Y-110368242D01*
X7589027Y-110368239D01*
X7586897Y-110366560D01*
X7283322Y-110177234D01*
X7280877Y-110176060D01*
X7280868Y-110176055D01*
X7092661Y-110085680D01*
X6960804Y-110022363D01*
X6623240Y-109903819D01*
X6274705Y-109823033D01*
X6272013Y-109822714D01*
X6272005Y-109822713D01*
X5921535Y-109781232D01*
X5921526Y-109781231D01*
X5919411Y-109780981D01*
X5891948Y-109780118D01*
X5873089Y-109779525D01*
X5873074Y-109779525D01*
X5872286Y-109779500D01*
X5625183Y-109779500D01*
X5410489Y-109791315D01*
X5360490Y-109794067D01*
X5360488Y-109794067D01*
X5357766Y-109794217D01*
X5186563Y-109822713D01*
X5007538Y-109852511D01*
X5007536Y-109852511D01*
X5004847Y-109852959D01*
X5002224Y-109853699D01*
X5002223Y-109853699D01*
X4826691Y-109903204D01*
X4660505Y-109950073D01*
X4657981Y-109951095D01*
X4657979Y-109951096D01*
X4331422Y-110083365D01*
X4331415Y-110083368D01*
X4328900Y-110084387D01*
X4326508Y-110085678D01*
X4326503Y-110085680D01*
X4186993Y-110160956D01*
X4014036Y-110254279D01*
X3719716Y-110457695D01*
X3717664Y-110459476D01*
X3717661Y-110459478D01*
X3451549Y-110690399D01*
X3451544Y-110690404D01*
X3449496Y-110692181D01*
X3447649Y-110694179D01*
X3447648Y-110694180D01*
X3208489Y-110952900D01*
X3208484Y-110952906D01*
X3206638Y-110954903D01*
X2994077Y-111242688D01*
X2814379Y-111552060D01*
X2669715Y-111879283D01*
X2561833Y-112220404D01*
X2492034Y-112571304D01*
X2491801Y-112573999D01*
X2491800Y-112574003D01*
X2474193Y-112777303D01*
X2461163Y-112927744D01*
X500Y-112927744D01*
X500Y-103596762D01*
X34595733Y-103596762D01*
X34625326Y-103968621D01*
X34625812Y-103971205D01*
X34625813Y-103971213D01*
X34693781Y-104332651D01*
X34694266Y-104335229D01*
X34801773Y-104692435D01*
X34802795Y-104694861D01*
X34802796Y-104694863D01*
X34945609Y-105033776D01*
X34945614Y-105033786D01*
X34946629Y-105036195D01*
X35127195Y-105362615D01*
X35341424Y-105668000D01*
X35586893Y-105948890D01*
X35860820Y-106202106D01*
X36160104Y-106424779D01*
X36162371Y-106426117D01*
X36162380Y-106426123D01*
X36479084Y-106613048D01*
X36479090Y-106613051D01*
X36481355Y-106614388D01*
X36820936Y-106768786D01*
X37175001Y-106886225D01*
X37177576Y-106886784D01*
X37177583Y-106886786D01*
X37536971Y-106964817D01*
X37536975Y-106964818D01*
X37539542Y-106965375D01*
X37910428Y-107005338D01*
X37912396Y-107005391D01*
X37912407Y-107005392D01*
X37914333Y-107005444D01*
X37916414Y-107005500D01*
X38193239Y-107005500D01*
X38472505Y-106990620D01*
X38475101Y-106990202D01*
X38475109Y-106990201D01*
X38838180Y-106931721D01*
X38838185Y-106931720D01*
X38840792Y-106931300D01*
X38843338Y-106930606D01*
X38843342Y-106930605D01*
X39020742Y-106882240D01*
X39200691Y-106833181D01*
X39203141Y-106832223D01*
X39203151Y-106832220D01*
X39394864Y-106757280D01*
X39548124Y-106697372D01*
X39710455Y-106613048D01*
X39876813Y-106526632D01*
X39876818Y-106526629D01*
X39879159Y-106525413D01*
X39881352Y-106523959D01*
X39881360Y-106523954D01*
X40187847Y-106320710D01*
X40187848Y-106320709D01*
X40190047Y-106319251D01*
X40477267Y-106081220D01*
X40737566Y-105814015D01*
X40967998Y-105520663D01*
X41165951Y-105204485D01*
X41329186Y-104869062D01*
X41455853Y-104518192D01*
X41544518Y-104155848D01*
X41594176Y-103786135D01*
X41604267Y-103413238D01*
X41574674Y-103041379D01*
X41539959Y-102856768D01*
X41506219Y-102677349D01*
X41506218Y-102677345D01*
X41505734Y-102674771D01*
X41398227Y-102317565D01*
X41323799Y-102140938D01*
X41254391Y-101976224D01*
X41254386Y-101976214D01*
X41253371Y-101973805D01*
X41072805Y-101647385D01*
X40858576Y-101342000D01*
X40613107Y-101061110D01*
X40339180Y-100807894D01*
X40039896Y-100585221D01*
X40037629Y-100583883D01*
X40037620Y-100583877D01*
X39720916Y-100396952D01*
X39720910Y-100396949D01*
X39718645Y-100395612D01*
X39379064Y-100241214D01*
X39024999Y-100123775D01*
X39022424Y-100123216D01*
X39022417Y-100123214D01*
X38663029Y-100045183D01*
X38663025Y-100045182D01*
X38660458Y-100044625D01*
X38289572Y-100004662D01*
X38287604Y-100004609D01*
X38287593Y-100004608D01*
X38285667Y-100004556D01*
X38283586Y-100004500D01*
X38006761Y-100004500D01*
X37727495Y-100019380D01*
X37724899Y-100019798D01*
X37724891Y-100019799D01*
X37361820Y-100078279D01*
X37361815Y-100078280D01*
X37359208Y-100078700D01*
X37356662Y-100079394D01*
X37356658Y-100079395D01*
X37195931Y-100123214D01*
X36999309Y-100176819D01*
X36996859Y-100177777D01*
X36996849Y-100177780D01*
X36831777Y-100242306D01*
X36651876Y-100312628D01*
X36649537Y-100313843D01*
X36323187Y-100483368D01*
X36323182Y-100483371D01*
X36320841Y-100484587D01*
X36318648Y-100486041D01*
X36318640Y-100486046D01*
X36012153Y-100689290D01*
X36009953Y-100690749D01*
X35722733Y-100928780D01*
X35462434Y-101195985D01*
X35232002Y-101489337D01*
X35034049Y-101805515D01*
X34870814Y-102140938D01*
X34744147Y-102491808D01*
X34655482Y-102854152D01*
X34605824Y-103223865D01*
X34595733Y-103596762D01*
X500Y-103596762D01*
X500Y-92752095D01*
X3860028Y-92752095D01*
X3860368Y-92755657D01*
X3860368Y-92755664D01*
X3877922Y-92939648D01*
X3885534Y-93019431D01*
X3949364Y-93280285D01*
X4050182Y-93529192D01*
X4185875Y-93760938D01*
X4353601Y-93970669D01*
X4398172Y-94012305D01*
X4497266Y-94104873D01*
X4549846Y-94153991D01*
X4770499Y-94307064D01*
X4892066Y-94367542D01*
X5007723Y-94425081D01*
X5007728Y-94425083D01*
X5010938Y-94426680D01*
X5014349Y-94427798D01*
X5014351Y-94427799D01*
X5262721Y-94509219D01*
X5262724Y-94509220D01*
X5266126Y-94510335D01*
X5530717Y-94556276D01*
X5579761Y-94558717D01*
X5614335Y-94560439D01*
X5614348Y-94560439D01*
X5615567Y-94560500D01*
X5783223Y-94560500D01*
X5982846Y-94546016D01*
X6245080Y-94488120D01*
X6248429Y-94486851D01*
X6248433Y-94486850D01*
X6355045Y-94446458D01*
X6496211Y-94392975D01*
X6650879Y-94307064D01*
X6727837Y-94264318D01*
X6727841Y-94264315D01*
X6730976Y-94262574D01*
X6739242Y-94256266D01*
X6941607Y-94101826D01*
X6941609Y-94101825D01*
X6944458Y-94099650D01*
X7132185Y-93907614D01*
X7290225Y-93690491D01*
X7415265Y-93452828D01*
X7504688Y-93199603D01*
X7533119Y-93055359D01*
X7555925Y-92939648D01*
X7556620Y-92936122D01*
X7568595Y-92695572D01*
X12484511Y-92695572D01*
X12484675Y-92698553D01*
X12484675Y-92698560D01*
X12502138Y-93015861D01*
X12502735Y-93026712D01*
X12560608Y-93353265D01*
X12561479Y-93356123D01*
X12561480Y-93356127D01*
X12591920Y-93456002D01*
X12657294Y-93670500D01*
X12658499Y-93673226D01*
X12658501Y-93673231D01*
X12790183Y-93971089D01*
X12791391Y-93973821D01*
X12960957Y-94258836D01*
X12962777Y-94261195D01*
X12962781Y-94261201D01*
X13105707Y-94446458D01*
X13163536Y-94521415D01*
X13396193Y-94757756D01*
X13398521Y-94759611D01*
X13398522Y-94759612D01*
X13517352Y-94854303D01*
X13655558Y-94964434D01*
X13658098Y-94965999D01*
X13658097Y-94965999D01*
X13935336Y-95136891D01*
X13935341Y-95136894D01*
X13937874Y-95138455D01*
X13940582Y-95139704D01*
X13940585Y-95139705D01*
X14048048Y-95189246D01*
X14239051Y-95277300D01*
X14241895Y-95278216D01*
X14241898Y-95278217D01*
X14267371Y-95286420D01*
X14554728Y-95378957D01*
X14557647Y-95379522D01*
X14557648Y-95379522D01*
X14877416Y-95441389D01*
X14877419Y-95441389D01*
X14880332Y-95441953D01*
X14883294Y-95442163D01*
X14883296Y-95442163D01*
X14923860Y-95445035D01*
X15142279Y-95460500D01*
X15323386Y-95460500D01*
X15324840Y-95460412D01*
X15324852Y-95460412D01*
X15568075Y-95445749D01*
X15568079Y-95445748D01*
X15571040Y-95445570D01*
X15897285Y-95385987D01*
X15922869Y-95378043D01*
X16211163Y-95288525D01*
X16211167Y-95288523D01*
X16214009Y-95287641D01*
X16216728Y-95286422D01*
X16216733Y-95286420D01*
X16513905Y-95153178D01*
X16513911Y-95153175D01*
X16516625Y-95151958D01*
X16536978Y-95139705D01*
X16798192Y-94982441D01*
X16798194Y-94982440D01*
X16800748Y-94980902D01*
X16803100Y-94979068D01*
X16803104Y-94979065D01*
X17059903Y-94778792D01*
X17059908Y-94778788D01*
X17062263Y-94776951D01*
X17297382Y-94543060D01*
X17420698Y-94386635D01*
X17500851Y-94284962D01*
X17500856Y-94284955D01*
X17502699Y-94282617D01*
X17516236Y-94260397D01*
X17673690Y-94001937D01*
X17675240Y-93999393D01*
X17718289Y-93904712D01*
X17811270Y-93700212D01*
X17811271Y-93700208D01*
X17812506Y-93697493D01*
X17912509Y-93381288D01*
X17918332Y-93350323D01*
X17973248Y-93058290D01*
X17973248Y-93058287D01*
X17973799Y-93055359D01*
X17993676Y-92752095D01*
X22910028Y-92752095D01*
X22910368Y-92755657D01*
X22910368Y-92755664D01*
X22927922Y-92939648D01*
X22935534Y-93019431D01*
X22999364Y-93280285D01*
X23100182Y-93529192D01*
X23235875Y-93760938D01*
X23403601Y-93970669D01*
X23448172Y-94012305D01*
X23547266Y-94104873D01*
X23599846Y-94153991D01*
X23820499Y-94307064D01*
X23942066Y-94367542D01*
X24057723Y-94425081D01*
X24057728Y-94425083D01*
X24060938Y-94426680D01*
X24064349Y-94427798D01*
X24064351Y-94427799D01*
X24312721Y-94509219D01*
X24312724Y-94509220D01*
X24316126Y-94510335D01*
X24580717Y-94556276D01*
X24629761Y-94558717D01*
X24664335Y-94560439D01*
X24664348Y-94560439D01*
X24665567Y-94560500D01*
X24833223Y-94560500D01*
X25032846Y-94546016D01*
X25295080Y-94488120D01*
X25298429Y-94486851D01*
X25298433Y-94486850D01*
X25405045Y-94446458D01*
X25546211Y-94392975D01*
X25700879Y-94307064D01*
X25777837Y-94264318D01*
X25777841Y-94264315D01*
X25780976Y-94262574D01*
X25789242Y-94256266D01*
X25991607Y-94101826D01*
X25991609Y-94101825D01*
X25994458Y-94099650D01*
X26182185Y-93907614D01*
X26340225Y-93690491D01*
X26465265Y-93452828D01*
X26554688Y-93199603D01*
X26583119Y-93055359D01*
X26605925Y-92939648D01*
X26606620Y-92936122D01*
X26619972Y-92667905D01*
X26619632Y-92664343D01*
X26619632Y-92664336D01*
X26594807Y-92404139D01*
X26594806Y-92404134D01*
X26594466Y-92400569D01*
X26530636Y-92139715D01*
X26429818Y-91890808D01*
X26294125Y-91659062D01*
X26126399Y-91449331D01*
X26006946Y-91337744D01*
X44371163Y-91337744D01*
X44379592Y-91695419D01*
X44384171Y-91729509D01*
X44425703Y-92038712D01*
X44427220Y-92050009D01*
X44513470Y-92397232D01*
X44514411Y-92399784D01*
X44514413Y-92399789D01*
X44585770Y-92593209D01*
X44637302Y-92732892D01*
X44638512Y-92735313D01*
X44638513Y-92735316D01*
X44782629Y-93023735D01*
X44797220Y-93052937D01*
X44798696Y-93055222D01*
X44798700Y-93055230D01*
X44937803Y-93270662D01*
X44991291Y-93353501D01*
X45217173Y-93630954D01*
X45219105Y-93632856D01*
X45219106Y-93632857D01*
X45287528Y-93700212D01*
X45472137Y-93881944D01*
X45474269Y-93883625D01*
X45474275Y-93883630D01*
X45748295Y-94099650D01*
X45753103Y-94103440D01*
X46056678Y-94292766D01*
X46059123Y-94293940D01*
X46059132Y-94293945D01*
X46217937Y-94370201D01*
X46379196Y-94447637D01*
X46716760Y-94566181D01*
X47065295Y-94646967D01*
X47067987Y-94647286D01*
X47067995Y-94647287D01*
X47418465Y-94688768D01*
X47418474Y-94688769D01*
X47420589Y-94689019D01*
X47448052Y-94689882D01*
X47466911Y-94690475D01*
X47466926Y-94690475D01*
X47467714Y-94690500D01*
X47714817Y-94690500D01*
X47929511Y-94678685D01*
X47979510Y-94675933D01*
X47979512Y-94675933D01*
X47982234Y-94675783D01*
X48159054Y-94646352D01*
X48332462Y-94617489D01*
X48332464Y-94617489D01*
X48335153Y-94617041D01*
X48337777Y-94616301D01*
X48676868Y-94520668D01*
X48676870Y-94520667D01*
X48679495Y-94519927D01*
X48701666Y-94510947D01*
X49008578Y-94386635D01*
X49008585Y-94386632D01*
X49011100Y-94385613D01*
X49013492Y-94384322D01*
X49013497Y-94384320D01*
X49250821Y-94256266D01*
X49325964Y-94215721D01*
X49412322Y-94156036D01*
X49618047Y-94013851D01*
X49620284Y-94012305D01*
X49635164Y-93999393D01*
X49888451Y-93779601D01*
X49888456Y-93779596D01*
X49890504Y-93777819D01*
X49908968Y-93757845D01*
X50131511Y-93517100D01*
X50131516Y-93517094D01*
X50133362Y-93515097D01*
X50345923Y-93227312D01*
X50364066Y-93196078D01*
X50468744Y-93015861D01*
X50525621Y-92917940D01*
X50670285Y-92590717D01*
X50733651Y-92390356D01*
X50777347Y-92252190D01*
X50777349Y-92252184D01*
X50778167Y-92249596D01*
X50820681Y-92035867D01*
X50847438Y-91901352D01*
X50847439Y-91901346D01*
X50847966Y-91898696D01*
X50860888Y-91749500D01*
X50878603Y-91544961D01*
X50878603Y-91544956D01*
X50878837Y-91542256D01*
X50870408Y-91184581D01*
X50833482Y-90909665D01*
X50823143Y-90832692D01*
X50823142Y-90832688D01*
X50822780Y-90829991D01*
X50736530Y-90482768D01*
X50725918Y-90454001D01*
X50613636Y-90149650D01*
X50613635Y-90149647D01*
X50612698Y-90147108D01*
X50611121Y-90143952D01*
X50453999Y-89829502D01*
X50453997Y-89829498D01*
X50452780Y-89827063D01*
X50451304Y-89824778D01*
X50451300Y-89824770D01*
X50260190Y-89528793D01*
X50258709Y-89526499D01*
X50032827Y-89249046D01*
X49777863Y-88998056D01*
X49775731Y-88996375D01*
X49775725Y-88996370D01*
X49499031Y-88778242D01*
X49499027Y-88778239D01*
X49496897Y-88776560D01*
X49193322Y-88587234D01*
X49190877Y-88586060D01*
X49190868Y-88586055D01*
X49002661Y-88495680D01*
X48870804Y-88432363D01*
X48533240Y-88313819D01*
X48184705Y-88233033D01*
X48182013Y-88232714D01*
X48182005Y-88232713D01*
X47831535Y-88191232D01*
X47831526Y-88191231D01*
X47829411Y-88190981D01*
X47801948Y-88190118D01*
X47783089Y-88189525D01*
X47783074Y-88189525D01*
X47782286Y-88189500D01*
X47535183Y-88189500D01*
X47320489Y-88201315D01*
X47270490Y-88204067D01*
X47270488Y-88204067D01*
X47267766Y-88204217D01*
X47096563Y-88232713D01*
X46917538Y-88262511D01*
X46917536Y-88262511D01*
X46914847Y-88262959D01*
X46912224Y-88263699D01*
X46912223Y-88263699D01*
X46736691Y-88313204D01*
X46570505Y-88360073D01*
X46567981Y-88361095D01*
X46567979Y-88361096D01*
X46241422Y-88493365D01*
X46241415Y-88493368D01*
X46238900Y-88494387D01*
X46236508Y-88495678D01*
X46236503Y-88495680D01*
X46096993Y-88570956D01*
X45924036Y-88664279D01*
X45629716Y-88867695D01*
X45627664Y-88869476D01*
X45627661Y-88869478D01*
X45361549Y-89100399D01*
X45361544Y-89100404D01*
X45359496Y-89102181D01*
X45357649Y-89104179D01*
X45357648Y-89104180D01*
X45118489Y-89362900D01*
X45118484Y-89362906D01*
X45116638Y-89364903D01*
X44904077Y-89652688D01*
X44724379Y-89962060D01*
X44579715Y-90289283D01*
X44471833Y-90630404D01*
X44437533Y-90802840D01*
X44411613Y-90933150D01*
X44402034Y-90981304D01*
X44401801Y-90983999D01*
X44401800Y-90984003D01*
X44377164Y-91268459D01*
X44371163Y-91337744D01*
X26006946Y-91337744D01*
X25930154Y-91266009D01*
X25709501Y-91112936D01*
X25536812Y-91027025D01*
X25472277Y-90994919D01*
X25472272Y-90994917D01*
X25469062Y-90993320D01*
X25440641Y-90984003D01*
X25217279Y-90910781D01*
X25217276Y-90910780D01*
X25213874Y-90909665D01*
X24949283Y-90863724D01*
X24900239Y-90861283D01*
X24865665Y-90859561D01*
X24865652Y-90859561D01*
X24864433Y-90859500D01*
X24696777Y-90859500D01*
X24497154Y-90873984D01*
X24234920Y-90931880D01*
X24231571Y-90933149D01*
X24231567Y-90933150D01*
X24129913Y-90971663D01*
X23983789Y-91027025D01*
X23853411Y-91099444D01*
X23752163Y-91155682D01*
X23752159Y-91155685D01*
X23749024Y-91157426D01*
X23746174Y-91159601D01*
X23746171Y-91159603D01*
X23538393Y-91318174D01*
X23535542Y-91320350D01*
X23347815Y-91512386D01*
X23189775Y-91729509D01*
X23064735Y-91967172D01*
X22975312Y-92220397D01*
X22974618Y-92223919D01*
X22974617Y-92223922D01*
X22929479Y-92452934D01*
X22923380Y-92483878D01*
X22910028Y-92752095D01*
X17993676Y-92752095D01*
X17995489Y-92724428D01*
X17994066Y-92698560D01*
X17977429Y-92396265D01*
X17977429Y-92396262D01*
X17977265Y-92393288D01*
X17919392Y-92066735D01*
X17914295Y-92050009D01*
X17868987Y-91901352D01*
X17822706Y-91749500D01*
X17809571Y-91719788D01*
X17689817Y-91448911D01*
X17689816Y-91448908D01*
X17688609Y-91446179D01*
X17519043Y-91161164D01*
X17517223Y-91158805D01*
X17517219Y-91158799D01*
X17318283Y-90900943D01*
X17316464Y-90898585D01*
X17083807Y-90662244D01*
X17057409Y-90641208D01*
X16858578Y-90482768D01*
X16824442Y-90455566D01*
X16558893Y-90291880D01*
X16544664Y-90283109D01*
X16544659Y-90283106D01*
X16542126Y-90281545D01*
X16516166Y-90269577D01*
X16431952Y-90230754D01*
X16240949Y-90142700D01*
X16238105Y-90141784D01*
X16238102Y-90141783D01*
X16140991Y-90110511D01*
X15925272Y-90041043D01*
X15893506Y-90034897D01*
X15602584Y-89978611D01*
X15602581Y-89978611D01*
X15599668Y-89978047D01*
X15596706Y-89977837D01*
X15596704Y-89977837D01*
X15527208Y-89972917D01*
X15337721Y-89959500D01*
X15156614Y-89959500D01*
X15155160Y-89959588D01*
X15155148Y-89959588D01*
X14911925Y-89974251D01*
X14911921Y-89974252D01*
X14908960Y-89974430D01*
X14582715Y-90034013D01*
X14579868Y-90034897D01*
X14268837Y-90131475D01*
X14268833Y-90131477D01*
X14265991Y-90132359D01*
X14263272Y-90133578D01*
X14263267Y-90133580D01*
X13966095Y-90266822D01*
X13966089Y-90266825D01*
X13963375Y-90268042D01*
X13960828Y-90269576D01*
X13960825Y-90269577D01*
X13923780Y-90291880D01*
X13679252Y-90439098D01*
X13676900Y-90440932D01*
X13676896Y-90440935D01*
X13420097Y-90641208D01*
X13420092Y-90641212D01*
X13417737Y-90643049D01*
X13182618Y-90876940D01*
X13139307Y-90931880D01*
X12979149Y-91135038D01*
X12979144Y-91135045D01*
X12977301Y-91137383D01*
X12975753Y-91139925D01*
X12975751Y-91139927D01*
X12900187Y-91263964D01*
X12804760Y-91420607D01*
X12803526Y-91423321D01*
X12748220Y-91544961D01*
X12667494Y-91722507D01*
X12567491Y-92038712D01*
X12566940Y-92041642D01*
X12549123Y-92136392D01*
X12506201Y-92364641D01*
X12484511Y-92695572D01*
X7568595Y-92695572D01*
X7569972Y-92667905D01*
X7569632Y-92664343D01*
X7569632Y-92664336D01*
X7544807Y-92404139D01*
X7544806Y-92404134D01*
X7544466Y-92400569D01*
X7480636Y-92139715D01*
X7379818Y-91890808D01*
X7244125Y-91659062D01*
X7076399Y-91449331D01*
X6880154Y-91266009D01*
X6659501Y-91112936D01*
X6486812Y-91027025D01*
X6422277Y-90994919D01*
X6422272Y-90994917D01*
X6419062Y-90993320D01*
X6390641Y-90984003D01*
X6167279Y-90910781D01*
X6167276Y-90910780D01*
X6163874Y-90909665D01*
X5899283Y-90863724D01*
X5850239Y-90861283D01*
X5815665Y-90859561D01*
X5815652Y-90859561D01*
X5814433Y-90859500D01*
X5646777Y-90859500D01*
X5447154Y-90873984D01*
X5184920Y-90931880D01*
X5181571Y-90933149D01*
X5181567Y-90933150D01*
X5079913Y-90971663D01*
X4933789Y-91027025D01*
X4803411Y-91099444D01*
X4702163Y-91155682D01*
X4702159Y-91155685D01*
X4699024Y-91157426D01*
X4696174Y-91159601D01*
X4696171Y-91159603D01*
X4488393Y-91318174D01*
X4485542Y-91320350D01*
X4297815Y-91512386D01*
X4139775Y-91729509D01*
X4014735Y-91967172D01*
X3925312Y-92220397D01*
X3924618Y-92223919D01*
X3924617Y-92223922D01*
X3879479Y-92452934D01*
X3873380Y-92483878D01*
X3860028Y-92752095D01*
X500Y-92752095D01*
X500Y-80542744D01*
X2461163Y-80542744D01*
X2469592Y-80900419D01*
X2517220Y-81255009D01*
X2603470Y-81602232D01*
X2604411Y-81604784D01*
X2604413Y-81604789D01*
X2685974Y-81825869D01*
X2727302Y-81937892D01*
X2728512Y-81940313D01*
X2728513Y-81940316D01*
X2855025Y-82193504D01*
X2887220Y-82257937D01*
X2888696Y-82260222D01*
X2888700Y-82260230D01*
X3027803Y-82475662D01*
X3081291Y-82558501D01*
X3307173Y-82835954D01*
X3562137Y-83086944D01*
X3564269Y-83088625D01*
X3564275Y-83088630D01*
X3802685Y-83276577D01*
X3843103Y-83308440D01*
X4146678Y-83497766D01*
X4149123Y-83498940D01*
X4149132Y-83498945D01*
X4307937Y-83575201D01*
X4469196Y-83652637D01*
X4806760Y-83771181D01*
X5155295Y-83851967D01*
X5157987Y-83852286D01*
X5157995Y-83852287D01*
X5508465Y-83893768D01*
X5508474Y-83893769D01*
X5510589Y-83894019D01*
X5538052Y-83894882D01*
X5556911Y-83895475D01*
X5556926Y-83895475D01*
X5557714Y-83895500D01*
X5804817Y-83895500D01*
X6019511Y-83883685D01*
X6069510Y-83880933D01*
X6069512Y-83880933D01*
X6072234Y-83880783D01*
X6249054Y-83851352D01*
X6422462Y-83822489D01*
X6422464Y-83822489D01*
X6425153Y-83822041D01*
X6592789Y-83774763D01*
X6766868Y-83725668D01*
X6766870Y-83725667D01*
X6769495Y-83724927D01*
X6772021Y-83723904D01*
X7098578Y-83591635D01*
X7098585Y-83591632D01*
X7101100Y-83590613D01*
X7103492Y-83589322D01*
X7103497Y-83589320D01*
X7275838Y-83496329D01*
X7415964Y-83420721D01*
X7710284Y-83217305D01*
X7712339Y-83215522D01*
X7978451Y-82984601D01*
X7978456Y-82984596D01*
X7980504Y-82982819D01*
X8031001Y-82928192D01*
X8221511Y-82722100D01*
X8221516Y-82722094D01*
X8223362Y-82720097D01*
X8435923Y-82432312D01*
X8467110Y-82378621D01*
X8574634Y-82193504D01*
X8615621Y-82122940D01*
X8666983Y-82006762D01*
X34595733Y-82006762D01*
X34625326Y-82378621D01*
X34625812Y-82381205D01*
X34625813Y-82381213D01*
X34693781Y-82742651D01*
X34694266Y-82745229D01*
X34801773Y-83102435D01*
X34802795Y-83104861D01*
X34802796Y-83104863D01*
X34945609Y-83443776D01*
X34945614Y-83443786D01*
X34946629Y-83446195D01*
X35127195Y-83772615D01*
X35341424Y-84078000D01*
X35586893Y-84358890D01*
X35860820Y-84612106D01*
X36160104Y-84834779D01*
X36162371Y-84836117D01*
X36162380Y-84836123D01*
X36479084Y-85023048D01*
X36479090Y-85023051D01*
X36481355Y-85024388D01*
X36820936Y-85178786D01*
X37175001Y-85296225D01*
X37177576Y-85296784D01*
X37177583Y-85296786D01*
X37536971Y-85374817D01*
X37536975Y-85374818D01*
X37539542Y-85375375D01*
X37910428Y-85415338D01*
X37912396Y-85415391D01*
X37912407Y-85415392D01*
X37914333Y-85415444D01*
X37916414Y-85415500D01*
X38193239Y-85415500D01*
X38472505Y-85400620D01*
X38475101Y-85400202D01*
X38475109Y-85400201D01*
X38838180Y-85341721D01*
X38838185Y-85341720D01*
X38840792Y-85341300D01*
X38843338Y-85340606D01*
X38843342Y-85340605D01*
X39020742Y-85292240D01*
X39200691Y-85243181D01*
X39203141Y-85242223D01*
X39203151Y-85242220D01*
X39394864Y-85167280D01*
X39548124Y-85107372D01*
X39710455Y-85023048D01*
X39876813Y-84936632D01*
X39876818Y-84936629D01*
X39879159Y-84935413D01*
X39881352Y-84933959D01*
X39881360Y-84933954D01*
X40187847Y-84730710D01*
X40187848Y-84730709D01*
X40190047Y-84729251D01*
X40477267Y-84491220D01*
X40737566Y-84224015D01*
X40967998Y-83930663D01*
X40999227Y-83880783D01*
X41164552Y-83616720D01*
X41164554Y-83616716D01*
X41165951Y-83614485D01*
X41329186Y-83279062D01*
X41455853Y-82928192D01*
X41478424Y-82835954D01*
X41543891Y-82568411D01*
X41543892Y-82568408D01*
X41544518Y-82565848D01*
X41594176Y-82196135D01*
X41604267Y-81823238D01*
X41574674Y-81451379D01*
X41539959Y-81266768D01*
X41506219Y-81087349D01*
X41506218Y-81087345D01*
X41505734Y-81084771D01*
X41398227Y-80727565D01*
X41323799Y-80550938D01*
X41254391Y-80386224D01*
X41254386Y-80386214D01*
X41253371Y-80383805D01*
X41072805Y-80057385D01*
X40858576Y-79752000D01*
X40613107Y-79471110D01*
X40339180Y-79217894D01*
X40039896Y-78995221D01*
X40037629Y-78993883D01*
X40037620Y-78993877D01*
X39720916Y-78806952D01*
X39720910Y-78806949D01*
X39718645Y-78805612D01*
X39379064Y-78651214D01*
X39024999Y-78533775D01*
X39022424Y-78533216D01*
X39022417Y-78533214D01*
X38663029Y-78455183D01*
X38663025Y-78455182D01*
X38660458Y-78454625D01*
X38289572Y-78414662D01*
X38287604Y-78414609D01*
X38287593Y-78414608D01*
X38285667Y-78414556D01*
X38283586Y-78414500D01*
X38006761Y-78414500D01*
X37727495Y-78429380D01*
X37724899Y-78429798D01*
X37724891Y-78429799D01*
X37361820Y-78488279D01*
X37361815Y-78488280D01*
X37359208Y-78488700D01*
X37356662Y-78489394D01*
X37356658Y-78489395D01*
X37195931Y-78533214D01*
X36999309Y-78586819D01*
X36996859Y-78587777D01*
X36996849Y-78587780D01*
X36831777Y-78652306D01*
X36651876Y-78722628D01*
X36649537Y-78723843D01*
X36323187Y-78893368D01*
X36323182Y-78893371D01*
X36320841Y-78894587D01*
X36318648Y-78896041D01*
X36318640Y-78896046D01*
X36113530Y-79032063D01*
X36009953Y-79100749D01*
X35722733Y-79338780D01*
X35462434Y-79605985D01*
X35460806Y-79608058D01*
X35460803Y-79608061D01*
X35392022Y-79695623D01*
X35232002Y-79899337D01*
X35230603Y-79901572D01*
X35230602Y-79901573D01*
X35050648Y-80189003D01*
X35034049Y-80215515D01*
X34870814Y-80550938D01*
X34869917Y-80553423D01*
X34799942Y-80747256D01*
X34744147Y-80901808D01*
X34743523Y-80904360D01*
X34743521Y-80904365D01*
X34656109Y-81261589D01*
X34655482Y-81264152D01*
X34655131Y-81266768D01*
X34610073Y-81602232D01*
X34605824Y-81633865D01*
X34595733Y-82006762D01*
X8666983Y-82006762D01*
X8760285Y-81795717D01*
X8868167Y-81454596D01*
X8937966Y-81103696D01*
X8955338Y-80903120D01*
X8968603Y-80749961D01*
X8968603Y-80749956D01*
X8968837Y-80747256D01*
X8960408Y-80389581D01*
X8915788Y-80057385D01*
X8913143Y-80037692D01*
X8913142Y-80037688D01*
X8912780Y-80034991D01*
X8826530Y-79687768D01*
X8797125Y-79608061D01*
X8703636Y-79354650D01*
X8703635Y-79354647D01*
X8702698Y-79352108D01*
X8696986Y-79340676D01*
X8543999Y-79034502D01*
X8543997Y-79034498D01*
X8542780Y-79032063D01*
X8541304Y-79029778D01*
X8541300Y-79029770D01*
X8350190Y-78733793D01*
X8348709Y-78731499D01*
X8122827Y-78454046D01*
X8097771Y-78429380D01*
X7869799Y-78204962D01*
X7867863Y-78203056D01*
X7865731Y-78201375D01*
X7865725Y-78201370D01*
X7589031Y-77983242D01*
X7589027Y-77983239D01*
X7586897Y-77981560D01*
X7283322Y-77792234D01*
X7280877Y-77791060D01*
X7280868Y-77791055D01*
X7092661Y-77700680D01*
X6960804Y-77637363D01*
X6623240Y-77518819D01*
X6274705Y-77438033D01*
X6272013Y-77437714D01*
X6272005Y-77437713D01*
X5921535Y-77396232D01*
X5921526Y-77396231D01*
X5919411Y-77395981D01*
X5891948Y-77395118D01*
X5873089Y-77394525D01*
X5873074Y-77394525D01*
X5872286Y-77394500D01*
X5625183Y-77394500D01*
X5410489Y-77406315D01*
X5360490Y-77409067D01*
X5360488Y-77409067D01*
X5357766Y-77409217D01*
X5186563Y-77437713D01*
X5007538Y-77467511D01*
X5007536Y-77467511D01*
X5004847Y-77467959D01*
X5002224Y-77468699D01*
X5002223Y-77468699D01*
X4826691Y-77518204D01*
X4660505Y-77565073D01*
X4657981Y-77566095D01*
X4657979Y-77566096D01*
X4331422Y-77698365D01*
X4331415Y-77698368D01*
X4328900Y-77699387D01*
X4326508Y-77700678D01*
X4326503Y-77700680D01*
X4186993Y-77775956D01*
X4014036Y-77869279D01*
X3719716Y-78072695D01*
X3717664Y-78074476D01*
X3717661Y-78074478D01*
X3451549Y-78305399D01*
X3451544Y-78305404D01*
X3449496Y-78307181D01*
X3447649Y-78309179D01*
X3447648Y-78309180D01*
X3208489Y-78567900D01*
X3208484Y-78567906D01*
X3206638Y-78569903D01*
X2994077Y-78857688D01*
X2814379Y-79167060D01*
X2669715Y-79494283D01*
X2561833Y-79835404D01*
X2492034Y-80186304D01*
X2491801Y-80188999D01*
X2491800Y-80189003D01*
X2474193Y-80392303D01*
X2461163Y-80542744D01*
X500Y-80542744D01*
X500Y-71211762D01*
X11735733Y-71211762D01*
X11765326Y-71583621D01*
X11765812Y-71586205D01*
X11765813Y-71586213D01*
X11833781Y-71947651D01*
X11834266Y-71950229D01*
X11941773Y-72307435D01*
X11942795Y-72309861D01*
X11942796Y-72309863D01*
X12085609Y-72648776D01*
X12085614Y-72648786D01*
X12086629Y-72651195D01*
X12267195Y-72977615D01*
X12481424Y-73283000D01*
X12726893Y-73563890D01*
X13000820Y-73817106D01*
X13300104Y-74039779D01*
X13302371Y-74041117D01*
X13302380Y-74041123D01*
X13619084Y-74228048D01*
X13619090Y-74228051D01*
X13621355Y-74229388D01*
X13960936Y-74383786D01*
X14315001Y-74501225D01*
X14317576Y-74501784D01*
X14317583Y-74501786D01*
X14676971Y-74579817D01*
X14676975Y-74579818D01*
X14679542Y-74580375D01*
X15050428Y-74620338D01*
X15052396Y-74620391D01*
X15052407Y-74620392D01*
X15054333Y-74620444D01*
X15056414Y-74620500D01*
X15333239Y-74620500D01*
X15612505Y-74605620D01*
X15615101Y-74605202D01*
X15615109Y-74605201D01*
X15978180Y-74546721D01*
X15978185Y-74546720D01*
X15980792Y-74546300D01*
X15983338Y-74545606D01*
X15983342Y-74545605D01*
X16160742Y-74497240D01*
X16340691Y-74448181D01*
X16343141Y-74447223D01*
X16343151Y-74447220D01*
X16534864Y-74372280D01*
X16688124Y-74312372D01*
X16850455Y-74228048D01*
X17016813Y-74141632D01*
X17016818Y-74141629D01*
X17019159Y-74140413D01*
X17021352Y-74138959D01*
X17021360Y-74138954D01*
X17327847Y-73935710D01*
X17327848Y-73935709D01*
X17330047Y-73934251D01*
X17617267Y-73696220D01*
X17877566Y-73429015D01*
X18107998Y-73135663D01*
X18139227Y-73085783D01*
X18304552Y-72821720D01*
X18304554Y-72821716D01*
X18305951Y-72819485D01*
X18469186Y-72484062D01*
X18595853Y-72133192D01*
X18618424Y-72040954D01*
X18683891Y-71773411D01*
X18683892Y-71773408D01*
X18684518Y-71770848D01*
X18734176Y-71401135D01*
X18744267Y-71028238D01*
X18714674Y-70656379D01*
X18679959Y-70471768D01*
X18646219Y-70292349D01*
X18646218Y-70292345D01*
X18645734Y-70289771D01*
X18538227Y-69932565D01*
X18463799Y-69755938D01*
X18460346Y-69747744D01*
X44371163Y-69747744D01*
X44379592Y-70105419D01*
X44427220Y-70460009D01*
X44513470Y-70807232D01*
X44514411Y-70809784D01*
X44514413Y-70809789D01*
X44595974Y-71030869D01*
X44637302Y-71142892D01*
X44638512Y-71145313D01*
X44638513Y-71145316D01*
X44765025Y-71398504D01*
X44797220Y-71462937D01*
X44798696Y-71465222D01*
X44798700Y-71465230D01*
X44937803Y-71680662D01*
X44991291Y-71763501D01*
X45217173Y-72040954D01*
X45472137Y-72291944D01*
X45474269Y-72293625D01*
X45474275Y-72293630D01*
X45712685Y-72481577D01*
X45753103Y-72513440D01*
X46056678Y-72702766D01*
X46059123Y-72703940D01*
X46059132Y-72703945D01*
X46217937Y-72780202D01*
X46379196Y-72857637D01*
X46716760Y-72976181D01*
X47065295Y-73056967D01*
X47067987Y-73057286D01*
X47067995Y-73057287D01*
X47418465Y-73098768D01*
X47418474Y-73098769D01*
X47420589Y-73099019D01*
X47448052Y-73099882D01*
X47466911Y-73100475D01*
X47466926Y-73100475D01*
X47467714Y-73100500D01*
X47714817Y-73100500D01*
X47929511Y-73088685D01*
X47979510Y-73085933D01*
X47979512Y-73085933D01*
X47982234Y-73085783D01*
X48159054Y-73056352D01*
X48332462Y-73027489D01*
X48332464Y-73027489D01*
X48335153Y-73027041D01*
X48502789Y-72979763D01*
X48676868Y-72930668D01*
X48676870Y-72930667D01*
X48679495Y-72929927D01*
X48682021Y-72928904D01*
X49008578Y-72796635D01*
X49008585Y-72796632D01*
X49011100Y-72795613D01*
X49013492Y-72794322D01*
X49013497Y-72794320D01*
X49185838Y-72701329D01*
X49325964Y-72625721D01*
X49620284Y-72422305D01*
X49622339Y-72420522D01*
X49888451Y-72189601D01*
X49888456Y-72189596D01*
X49890504Y-72187819D01*
X49941001Y-72133192D01*
X50131511Y-71927100D01*
X50131516Y-71927094D01*
X50133362Y-71925097D01*
X50345923Y-71637312D01*
X50377110Y-71583621D01*
X50484634Y-71398504D01*
X50525621Y-71327940D01*
X50670285Y-71000717D01*
X50778167Y-70659596D01*
X50847966Y-70308696D01*
X50865338Y-70108120D01*
X50878603Y-69954961D01*
X50878603Y-69954956D01*
X50878837Y-69952256D01*
X50870408Y-69594581D01*
X50825788Y-69262385D01*
X50823143Y-69242692D01*
X50823142Y-69242688D01*
X50822780Y-69239991D01*
X50736530Y-68892768D01*
X50707125Y-68813061D01*
X50613636Y-68559650D01*
X50613635Y-68559647D01*
X50612698Y-68557108D01*
X50606986Y-68545676D01*
X50453999Y-68239502D01*
X50453997Y-68239498D01*
X50452780Y-68237063D01*
X50451304Y-68234778D01*
X50451300Y-68234770D01*
X50260190Y-67938793D01*
X50258709Y-67936499D01*
X50032827Y-67659046D01*
X50007771Y-67634380D01*
X49779799Y-67409962D01*
X49777863Y-67408056D01*
X49775731Y-67406375D01*
X49775725Y-67406370D01*
X49499031Y-67188242D01*
X49499027Y-67188239D01*
X49496897Y-67186560D01*
X49193322Y-66997234D01*
X49190877Y-66996060D01*
X49190868Y-66996055D01*
X49002661Y-66905680D01*
X48870804Y-66842363D01*
X48533240Y-66723819D01*
X48184705Y-66643033D01*
X48182013Y-66642714D01*
X48182005Y-66642713D01*
X47831535Y-66601232D01*
X47831526Y-66601231D01*
X47829411Y-66600981D01*
X47801948Y-66600118D01*
X47783089Y-66599525D01*
X47783074Y-66599525D01*
X47782286Y-66599500D01*
X47535183Y-66599500D01*
X47320489Y-66611315D01*
X47270490Y-66614067D01*
X47270488Y-66614067D01*
X47267766Y-66614217D01*
X47096563Y-66642713D01*
X46917538Y-66672511D01*
X46917536Y-66672511D01*
X46914847Y-66672959D01*
X46912224Y-66673699D01*
X46912223Y-66673699D01*
X46736691Y-66723204D01*
X46570505Y-66770073D01*
X46567981Y-66771095D01*
X46567979Y-66771096D01*
X46241422Y-66903365D01*
X46241415Y-66903368D01*
X46238900Y-66904387D01*
X46236508Y-66905678D01*
X46236503Y-66905680D01*
X46096993Y-66980956D01*
X45924036Y-67074279D01*
X45629716Y-67277695D01*
X45627664Y-67279476D01*
X45627661Y-67279478D01*
X45361549Y-67510399D01*
X45361544Y-67510404D01*
X45359496Y-67512181D01*
X45357649Y-67514179D01*
X45357648Y-67514180D01*
X45118489Y-67772900D01*
X45118484Y-67772906D01*
X45116638Y-67774903D01*
X44904077Y-68062688D01*
X44724379Y-68372060D01*
X44579715Y-68699283D01*
X44471833Y-69040404D01*
X44402034Y-69391304D01*
X44401801Y-69393999D01*
X44401800Y-69394003D01*
X44384193Y-69597303D01*
X44371163Y-69747744D01*
X18460346Y-69747744D01*
X18394391Y-69591224D01*
X18394386Y-69591214D01*
X18393371Y-69588805D01*
X18212805Y-69262385D01*
X17998576Y-68957000D01*
X17753107Y-68676110D01*
X17479180Y-68422894D01*
X17179896Y-68200221D01*
X17177629Y-68198883D01*
X17177620Y-68198877D01*
X16860916Y-68011952D01*
X16860910Y-68011949D01*
X16858645Y-68010612D01*
X16519064Y-67856214D01*
X16164999Y-67738775D01*
X16162424Y-67738216D01*
X16162417Y-67738214D01*
X15803029Y-67660183D01*
X15803025Y-67660182D01*
X15800458Y-67659625D01*
X15429572Y-67619662D01*
X15427604Y-67619609D01*
X15427593Y-67619608D01*
X15425667Y-67619556D01*
X15423586Y-67619500D01*
X15146761Y-67619500D01*
X14867495Y-67634380D01*
X14864899Y-67634798D01*
X14864891Y-67634799D01*
X14501820Y-67693279D01*
X14501815Y-67693280D01*
X14499208Y-67693700D01*
X14496662Y-67694394D01*
X14496658Y-67694395D01*
X14335931Y-67738214D01*
X14139309Y-67791819D01*
X14136859Y-67792777D01*
X14136849Y-67792780D01*
X13971777Y-67857306D01*
X13791876Y-67927628D01*
X13789537Y-67928843D01*
X13463187Y-68098368D01*
X13463182Y-68098371D01*
X13460841Y-68099587D01*
X13458648Y-68101041D01*
X13458640Y-68101046D01*
X13253530Y-68237063D01*
X13149953Y-68305749D01*
X12862733Y-68543780D01*
X12602434Y-68810985D01*
X12600806Y-68813058D01*
X12600803Y-68813061D01*
X12532022Y-68900623D01*
X12372002Y-69104337D01*
X12370603Y-69106572D01*
X12370602Y-69106573D01*
X12190648Y-69394003D01*
X12174049Y-69420515D01*
X12010814Y-69755938D01*
X12009917Y-69758423D01*
X11939942Y-69952256D01*
X11884147Y-70106808D01*
X11883523Y-70109360D01*
X11883521Y-70109365D01*
X11796109Y-70466589D01*
X11795482Y-70469152D01*
X11795131Y-70471768D01*
X11750073Y-70807232D01*
X11745824Y-70838865D01*
X11735733Y-71211762D01*
X500Y-71211762D01*
X500Y-60416762D01*
X34595733Y-60416762D01*
X34625326Y-60788621D01*
X34625812Y-60791205D01*
X34625813Y-60791213D01*
X34693781Y-61152651D01*
X34694266Y-61155229D01*
X34801773Y-61512435D01*
X34802795Y-61514861D01*
X34802796Y-61514863D01*
X34945609Y-61853776D01*
X34945614Y-61853786D01*
X34946629Y-61856195D01*
X35127195Y-62182615D01*
X35341424Y-62488000D01*
X35586893Y-62768890D01*
X35860820Y-63022106D01*
X36160104Y-63244779D01*
X36162371Y-63246117D01*
X36162380Y-63246123D01*
X36479084Y-63433048D01*
X36479090Y-63433051D01*
X36481355Y-63434388D01*
X36820936Y-63588786D01*
X37175001Y-63706225D01*
X37177576Y-63706784D01*
X37177583Y-63706786D01*
X37536971Y-63784817D01*
X37536975Y-63784818D01*
X37539542Y-63785375D01*
X37910428Y-63825338D01*
X37912396Y-63825391D01*
X37912407Y-63825392D01*
X37914333Y-63825444D01*
X37916414Y-63825500D01*
X38193239Y-63825500D01*
X38472505Y-63810620D01*
X38475101Y-63810202D01*
X38475109Y-63810201D01*
X38838180Y-63751721D01*
X38838185Y-63751720D01*
X38840792Y-63751300D01*
X38843338Y-63750606D01*
X38843342Y-63750605D01*
X39020742Y-63702240D01*
X39200691Y-63653181D01*
X39203141Y-63652223D01*
X39203151Y-63652220D01*
X39394864Y-63577280D01*
X39548124Y-63517372D01*
X39710455Y-63433048D01*
X39876813Y-63346632D01*
X39876818Y-63346629D01*
X39879159Y-63345413D01*
X39881352Y-63343959D01*
X39881360Y-63343954D01*
X40187847Y-63140710D01*
X40187848Y-63140709D01*
X40190047Y-63139251D01*
X40477267Y-62901220D01*
X40737566Y-62634015D01*
X40967998Y-62340663D01*
X41165951Y-62024485D01*
X41329186Y-61689062D01*
X41455853Y-61338192D01*
X41544518Y-60975848D01*
X41594176Y-60606135D01*
X41604267Y-60233238D01*
X41574674Y-59861379D01*
X41539959Y-59676768D01*
X41506219Y-59497349D01*
X41506218Y-59497345D01*
X41505734Y-59494771D01*
X41398227Y-59137565D01*
X41323799Y-58960938D01*
X41254391Y-58796224D01*
X41254386Y-58796214D01*
X41253371Y-58793805D01*
X41072805Y-58467385D01*
X40858576Y-58162000D01*
X40613107Y-57881110D01*
X40339180Y-57627894D01*
X40039896Y-57405221D01*
X40037629Y-57403883D01*
X40037620Y-57403877D01*
X39720916Y-57216952D01*
X39720910Y-57216949D01*
X39718645Y-57215612D01*
X39379064Y-57061214D01*
X39024999Y-56943775D01*
X39022424Y-56943216D01*
X39022417Y-56943214D01*
X38663029Y-56865183D01*
X38663025Y-56865182D01*
X38660458Y-56864625D01*
X38289572Y-56824662D01*
X38287604Y-56824609D01*
X38287593Y-56824608D01*
X38285667Y-56824556D01*
X38283586Y-56824500D01*
X38006761Y-56824500D01*
X37727495Y-56839380D01*
X37724899Y-56839798D01*
X37724891Y-56839799D01*
X37361820Y-56898279D01*
X37361815Y-56898280D01*
X37359208Y-56898700D01*
X37356662Y-56899394D01*
X37356658Y-56899395D01*
X37195931Y-56943214D01*
X36999309Y-56996819D01*
X36996859Y-56997777D01*
X36996849Y-56997780D01*
X36831777Y-57062306D01*
X36651876Y-57132628D01*
X36649537Y-57133843D01*
X36323187Y-57303368D01*
X36323182Y-57303371D01*
X36320841Y-57304587D01*
X36318648Y-57306041D01*
X36318640Y-57306046D01*
X36012153Y-57509290D01*
X36009953Y-57510749D01*
X35722733Y-57748780D01*
X35462434Y-58015985D01*
X35232002Y-58309337D01*
X35034049Y-58625515D01*
X34870814Y-58960938D01*
X34744147Y-59311808D01*
X34655482Y-59674152D01*
X34605824Y-60043865D01*
X34595733Y-60416762D01*
X500Y-60416762D01*
X500Y-49621762D01*
X11735733Y-49621762D01*
X11765326Y-49993621D01*
X11765812Y-49996205D01*
X11765813Y-49996213D01*
X11833781Y-50357651D01*
X11834266Y-50360229D01*
X11941773Y-50717435D01*
X11942795Y-50719861D01*
X11942796Y-50719863D01*
X12085609Y-51058776D01*
X12085614Y-51058786D01*
X12086629Y-51061195D01*
X12267195Y-51387615D01*
X12481424Y-51693000D01*
X12726893Y-51973890D01*
X13000820Y-52227106D01*
X13300104Y-52449779D01*
X13302371Y-52451117D01*
X13302380Y-52451123D01*
X13619084Y-52638048D01*
X13619090Y-52638051D01*
X13621355Y-52639388D01*
X13960936Y-52793786D01*
X14315001Y-52911225D01*
X14317576Y-52911784D01*
X14317583Y-52911786D01*
X14676971Y-52989817D01*
X14676975Y-52989818D01*
X14679542Y-52990375D01*
X15050428Y-53030338D01*
X15052396Y-53030391D01*
X15052407Y-53030392D01*
X15054333Y-53030444D01*
X15056414Y-53030500D01*
X15333239Y-53030500D01*
X15612505Y-53015620D01*
X15615101Y-53015202D01*
X15615109Y-53015201D01*
X15978180Y-52956721D01*
X15978185Y-52956720D01*
X15980792Y-52956300D01*
X15983338Y-52955606D01*
X15983342Y-52955605D01*
X16160741Y-52907241D01*
X16340691Y-52858181D01*
X16343141Y-52857223D01*
X16343151Y-52857220D01*
X16534864Y-52782280D01*
X16688124Y-52722372D01*
X16850455Y-52638048D01*
X17016813Y-52551632D01*
X17016818Y-52551629D01*
X17019159Y-52550413D01*
X17021352Y-52548959D01*
X17021360Y-52548954D01*
X17327847Y-52345710D01*
X17327848Y-52345709D01*
X17330047Y-52344251D01*
X17617267Y-52106220D01*
X17877566Y-51839015D01*
X18107998Y-51545663D01*
X18139227Y-51495783D01*
X18304552Y-51231720D01*
X18304554Y-51231716D01*
X18305951Y-51229485D01*
X18469186Y-50894062D01*
X18595853Y-50543192D01*
X18618424Y-50450954D01*
X18683891Y-50183411D01*
X18683892Y-50183408D01*
X18684518Y-50180848D01*
X18734176Y-49811135D01*
X18744267Y-49438238D01*
X18714674Y-49066379D01*
X18679959Y-48881768D01*
X18646219Y-48702349D01*
X18646218Y-48702345D01*
X18645734Y-48699771D01*
X18538227Y-48342565D01*
X18463799Y-48165938D01*
X18460346Y-48157744D01*
X44371163Y-48157744D01*
X44379592Y-48515419D01*
X44427220Y-48870009D01*
X44513470Y-49217232D01*
X44514411Y-49219784D01*
X44514413Y-49219789D01*
X44595974Y-49440869D01*
X44637302Y-49552892D01*
X44638512Y-49555313D01*
X44638513Y-49555316D01*
X44765025Y-49808504D01*
X44797220Y-49872937D01*
X44798696Y-49875222D01*
X44798700Y-49875230D01*
X44937803Y-50090662D01*
X44991291Y-50173501D01*
X45217173Y-50450954D01*
X45472137Y-50701944D01*
X45474269Y-50703625D01*
X45474275Y-50703630D01*
X45712685Y-50891577D01*
X45753103Y-50923440D01*
X46056678Y-51112766D01*
X46059123Y-51113940D01*
X46059132Y-51113945D01*
X46217937Y-51190202D01*
X46379196Y-51267637D01*
X46716760Y-51386181D01*
X47065295Y-51466967D01*
X47067987Y-51467286D01*
X47067995Y-51467287D01*
X47418465Y-51508768D01*
X47418474Y-51508769D01*
X47420589Y-51509019D01*
X47448052Y-51509882D01*
X47466911Y-51510475D01*
X47466926Y-51510475D01*
X47467714Y-51510500D01*
X47714817Y-51510500D01*
X47929511Y-51498685D01*
X47979510Y-51495933D01*
X47979512Y-51495933D01*
X47982234Y-51495783D01*
X48159054Y-51466352D01*
X48332462Y-51437489D01*
X48332464Y-51437489D01*
X48335153Y-51437041D01*
X48502789Y-51389763D01*
X48676868Y-51340668D01*
X48676870Y-51340667D01*
X48679495Y-51339927D01*
X48682021Y-51338904D01*
X49008578Y-51206635D01*
X49008585Y-51206632D01*
X49011100Y-51205613D01*
X49013492Y-51204322D01*
X49013497Y-51204320D01*
X49185838Y-51111329D01*
X49325964Y-51035721D01*
X49620284Y-50832305D01*
X49622339Y-50830522D01*
X49888451Y-50599601D01*
X49888456Y-50599596D01*
X49890504Y-50597819D01*
X49941001Y-50543192D01*
X50131511Y-50337100D01*
X50131516Y-50337094D01*
X50133362Y-50335097D01*
X50345923Y-50047312D01*
X50377110Y-49993621D01*
X50484634Y-49808504D01*
X50525621Y-49737940D01*
X50670285Y-49410717D01*
X50778167Y-49069596D01*
X50847966Y-48718696D01*
X50865338Y-48518120D01*
X50878603Y-48364961D01*
X50878603Y-48364956D01*
X50878837Y-48362256D01*
X50870408Y-48004581D01*
X50825788Y-47672385D01*
X50823143Y-47652692D01*
X50823142Y-47652688D01*
X50822780Y-47649991D01*
X50736530Y-47302768D01*
X50707125Y-47223061D01*
X50613636Y-46969650D01*
X50613635Y-46969647D01*
X50612698Y-46967108D01*
X50606986Y-46955676D01*
X50453999Y-46649502D01*
X50453997Y-46649498D01*
X50452780Y-46647063D01*
X50451304Y-46644778D01*
X50451300Y-46644770D01*
X50260190Y-46348793D01*
X50258709Y-46346499D01*
X50032827Y-46069046D01*
X50007771Y-46044380D01*
X49779799Y-45819962D01*
X49777863Y-45818056D01*
X49775731Y-45816375D01*
X49775725Y-45816370D01*
X49499031Y-45598242D01*
X49499027Y-45598239D01*
X49496897Y-45596560D01*
X49193322Y-45407234D01*
X49190877Y-45406060D01*
X49190868Y-45406055D01*
X49002661Y-45315680D01*
X48870804Y-45252363D01*
X48533240Y-45133819D01*
X48184705Y-45053033D01*
X48182013Y-45052714D01*
X48182005Y-45052713D01*
X47831535Y-45011232D01*
X47831526Y-45011231D01*
X47829411Y-45010981D01*
X47801948Y-45010118D01*
X47783089Y-45009525D01*
X47783074Y-45009525D01*
X47782286Y-45009500D01*
X47535183Y-45009500D01*
X47320489Y-45021315D01*
X47270490Y-45024067D01*
X47270488Y-45024067D01*
X47267766Y-45024217D01*
X47096563Y-45052713D01*
X46917538Y-45082511D01*
X46917536Y-45082511D01*
X46914847Y-45082959D01*
X46912224Y-45083699D01*
X46912223Y-45083699D01*
X46736691Y-45133204D01*
X46570505Y-45180073D01*
X46567981Y-45181095D01*
X46567979Y-45181096D01*
X46241422Y-45313365D01*
X46241415Y-45313368D01*
X46238900Y-45314387D01*
X46236508Y-45315678D01*
X46236503Y-45315680D01*
X46096993Y-45390956D01*
X45924036Y-45484279D01*
X45629716Y-45687695D01*
X45627664Y-45689476D01*
X45627661Y-45689478D01*
X45361549Y-45920399D01*
X45361544Y-45920404D01*
X45359496Y-45922181D01*
X45357649Y-45924179D01*
X45357648Y-45924180D01*
X45118489Y-46182900D01*
X45118484Y-46182906D01*
X45116638Y-46184903D01*
X44904077Y-46472688D01*
X44724379Y-46782060D01*
X44579715Y-47109283D01*
X44471833Y-47450404D01*
X44402034Y-47801304D01*
X44401801Y-47803999D01*
X44401800Y-47804003D01*
X44384193Y-48007303D01*
X44371163Y-48157744D01*
X18460346Y-48157744D01*
X18394391Y-48001224D01*
X18394386Y-48001214D01*
X18393371Y-47998805D01*
X18212805Y-47672385D01*
X17998576Y-47367000D01*
X17753107Y-47086110D01*
X17479180Y-46832894D01*
X17179896Y-46610221D01*
X17177629Y-46608883D01*
X17177620Y-46608877D01*
X16860916Y-46421952D01*
X16860910Y-46421949D01*
X16858645Y-46420612D01*
X16519064Y-46266214D01*
X16164999Y-46148775D01*
X16162424Y-46148216D01*
X16162417Y-46148214D01*
X15803029Y-46070183D01*
X15803025Y-46070182D01*
X15800458Y-46069625D01*
X15429572Y-46029662D01*
X15427604Y-46029609D01*
X15427593Y-46029608D01*
X15425667Y-46029556D01*
X15423586Y-46029500D01*
X15146761Y-46029500D01*
X14867495Y-46044380D01*
X14864899Y-46044798D01*
X14864891Y-46044799D01*
X14501820Y-46103279D01*
X14501815Y-46103280D01*
X14499208Y-46103700D01*
X14496662Y-46104394D01*
X14496658Y-46104395D01*
X14335931Y-46148214D01*
X14139309Y-46201819D01*
X14136859Y-46202777D01*
X14136849Y-46202780D01*
X13971777Y-46267306D01*
X13791876Y-46337628D01*
X13789537Y-46338843D01*
X13463187Y-46508368D01*
X13463182Y-46508371D01*
X13460841Y-46509587D01*
X13458648Y-46511041D01*
X13458640Y-46511046D01*
X13253530Y-46647063D01*
X13149953Y-46715749D01*
X12862733Y-46953780D01*
X12602434Y-47220985D01*
X12600806Y-47223058D01*
X12600803Y-47223061D01*
X12532022Y-47310623D01*
X12372002Y-47514337D01*
X12370603Y-47516572D01*
X12370602Y-47516573D01*
X12190648Y-47804003D01*
X12174049Y-47830515D01*
X12010814Y-48165938D01*
X12009917Y-48168423D01*
X11939942Y-48362256D01*
X11884147Y-48516808D01*
X11883523Y-48519360D01*
X11883521Y-48519365D01*
X11796109Y-48876589D01*
X11795482Y-48879152D01*
X11795131Y-48881768D01*
X11750073Y-49217232D01*
X11745824Y-49248865D01*
X11735733Y-49621762D01*
X500Y-49621762D01*
X500Y-38777095D01*
X3225028Y-38777095D01*
X3225368Y-38780657D01*
X3225368Y-38780664D01*
X3242922Y-38964648D01*
X3250534Y-39044431D01*
X3314364Y-39305285D01*
X3415182Y-39554192D01*
X3550875Y-39785938D01*
X3718601Y-39995669D01*
X3914846Y-40178991D01*
X4135499Y-40332064D01*
X4257066Y-40392542D01*
X4372723Y-40450081D01*
X4372728Y-40450083D01*
X4375938Y-40451680D01*
X4379349Y-40452798D01*
X4379351Y-40452799D01*
X4627721Y-40534219D01*
X4627724Y-40534220D01*
X4631126Y-40535335D01*
X4895717Y-40581276D01*
X4944761Y-40583717D01*
X4979335Y-40585439D01*
X4979348Y-40585439D01*
X4980567Y-40585500D01*
X5148223Y-40585500D01*
X5347846Y-40571016D01*
X5610080Y-40513120D01*
X5613429Y-40511851D01*
X5613433Y-40511850D01*
X5715087Y-40473337D01*
X5861211Y-40417975D01*
X6015879Y-40332064D01*
X6092837Y-40289318D01*
X6092841Y-40289315D01*
X6095976Y-40287574D01*
X6123990Y-40266195D01*
X6306607Y-40126826D01*
X6306609Y-40126825D01*
X6309458Y-40124650D01*
X6497185Y-39932614D01*
X6655225Y-39715491D01*
X6780265Y-39477828D01*
X6869688Y-39224603D01*
X6905904Y-39040861D01*
X6920925Y-38964648D01*
X6921620Y-38961122D01*
X6928309Y-38826762D01*
X34595733Y-38826762D01*
X34625326Y-39198621D01*
X34625812Y-39201205D01*
X34625813Y-39201213D01*
X34693781Y-39562651D01*
X34694266Y-39565229D01*
X34801773Y-39922435D01*
X34802795Y-39924861D01*
X34802796Y-39924863D01*
X34945609Y-40263776D01*
X34945614Y-40263786D01*
X34946629Y-40266195D01*
X35127195Y-40592615D01*
X35341424Y-40898000D01*
X35586893Y-41178890D01*
X35860820Y-41432106D01*
X36160104Y-41654779D01*
X36162371Y-41656117D01*
X36162380Y-41656123D01*
X36479084Y-41843048D01*
X36479090Y-41843051D01*
X36481355Y-41844388D01*
X36820936Y-41998786D01*
X37175001Y-42116225D01*
X37177576Y-42116784D01*
X37177583Y-42116786D01*
X37536971Y-42194817D01*
X37536975Y-42194818D01*
X37539542Y-42195375D01*
X37910428Y-42235338D01*
X37912396Y-42235391D01*
X37912407Y-42235392D01*
X37914333Y-42235444D01*
X37916414Y-42235500D01*
X38193239Y-42235500D01*
X38472505Y-42220620D01*
X38475101Y-42220202D01*
X38475109Y-42220201D01*
X38838180Y-42161721D01*
X38838185Y-42161720D01*
X38840792Y-42161300D01*
X38843338Y-42160606D01*
X38843342Y-42160605D01*
X39020742Y-42112240D01*
X39200691Y-42063181D01*
X39203141Y-42062223D01*
X39203151Y-42062220D01*
X39394864Y-41987280D01*
X39548124Y-41927372D01*
X39710455Y-41843048D01*
X39876813Y-41756632D01*
X39876818Y-41756629D01*
X39879159Y-41755413D01*
X39881352Y-41753959D01*
X39881360Y-41753954D01*
X40187847Y-41550710D01*
X40187848Y-41550709D01*
X40190047Y-41549251D01*
X40477267Y-41311220D01*
X40737566Y-41044015D01*
X40967998Y-40750663D01*
X41068389Y-40590315D01*
X41164552Y-40436720D01*
X41164554Y-40436716D01*
X41165951Y-40434485D01*
X41329186Y-40099062D01*
X41441216Y-39788737D01*
X41454959Y-39750669D01*
X41454960Y-39750665D01*
X41455853Y-39748192D01*
X41463148Y-39718383D01*
X41543891Y-39388411D01*
X41543892Y-39388408D01*
X41544518Y-39385848D01*
X41589908Y-39047911D01*
X41593826Y-39018744D01*
X41593827Y-39018736D01*
X41594176Y-39016135D01*
X41604267Y-38643238D01*
X41574674Y-38271379D01*
X41569789Y-38245397D01*
X41506219Y-37907349D01*
X41506218Y-37907345D01*
X41505734Y-37904771D01*
X41398227Y-37547565D01*
X41367367Y-37474331D01*
X41254391Y-37206224D01*
X41254386Y-37206214D01*
X41253371Y-37203805D01*
X41072805Y-36877385D01*
X40858576Y-36572000D01*
X40613107Y-36291110D01*
X40339180Y-36037894D01*
X40039896Y-35815221D01*
X40037629Y-35813883D01*
X40037620Y-35813877D01*
X39720916Y-35626952D01*
X39720910Y-35626949D01*
X39718645Y-35625612D01*
X39379064Y-35471214D01*
X39024999Y-35353775D01*
X39022424Y-35353216D01*
X39022417Y-35353214D01*
X38663029Y-35275183D01*
X38663025Y-35275182D01*
X38660458Y-35274625D01*
X38289572Y-35234662D01*
X38287604Y-35234609D01*
X38287593Y-35234608D01*
X38285667Y-35234556D01*
X38283586Y-35234500D01*
X38006761Y-35234500D01*
X37727495Y-35249380D01*
X37724899Y-35249798D01*
X37724891Y-35249799D01*
X37361820Y-35308279D01*
X37361815Y-35308280D01*
X37359208Y-35308700D01*
X37356662Y-35309394D01*
X37356658Y-35309395D01*
X37195931Y-35353214D01*
X36999309Y-35406819D01*
X36996859Y-35407777D01*
X36996849Y-35407780D01*
X36831777Y-35472306D01*
X36651876Y-35542628D01*
X36649537Y-35543843D01*
X36323187Y-35713368D01*
X36323182Y-35713371D01*
X36320841Y-35714587D01*
X36318648Y-35716041D01*
X36318640Y-35716046D01*
X36012153Y-35919290D01*
X36009953Y-35920749D01*
X35722733Y-36158780D01*
X35462434Y-36425985D01*
X35232002Y-36719337D01*
X35230603Y-36721572D01*
X35230602Y-36721573D01*
X35096491Y-36935781D01*
X35034049Y-37035515D01*
X34870814Y-37370938D01*
X34869917Y-37373423D01*
X34757774Y-37684062D01*
X34744147Y-37721808D01*
X34743523Y-37724360D01*
X34743521Y-37724365D01*
X34656109Y-38081589D01*
X34655482Y-38084152D01*
X34634280Y-38242007D01*
X34609625Y-38425569D01*
X34605824Y-38453865D01*
X34595733Y-38826762D01*
X6928309Y-38826762D01*
X6934972Y-38692905D01*
X6934632Y-38689343D01*
X6934632Y-38689336D01*
X6909807Y-38429139D01*
X6909806Y-38429134D01*
X6909466Y-38425569D01*
X6845636Y-38164715D01*
X6744818Y-37915808D01*
X6609125Y-37684062D01*
X6441399Y-37474331D01*
X6245154Y-37291009D01*
X6024501Y-37137936D01*
X5851812Y-37052025D01*
X5787277Y-37019919D01*
X5787272Y-37019917D01*
X5784062Y-37018320D01*
X5600515Y-36958150D01*
X5532279Y-36935781D01*
X5532276Y-36935780D01*
X5528874Y-36934665D01*
X5264283Y-36888724D01*
X5215239Y-36886283D01*
X5180665Y-36884561D01*
X5180652Y-36884561D01*
X5179433Y-36884500D01*
X5011777Y-36884500D01*
X4812154Y-36898984D01*
X4549920Y-36956880D01*
X4546571Y-36958149D01*
X4546567Y-36958150D01*
X4444913Y-36996663D01*
X4298789Y-37052025D01*
X4168411Y-37124444D01*
X4067163Y-37180682D01*
X4067159Y-37180685D01*
X4064024Y-37182426D01*
X4061174Y-37184601D01*
X4061171Y-37184603D01*
X3853393Y-37343174D01*
X3850542Y-37345350D01*
X3662815Y-37537386D01*
X3504775Y-37754509D01*
X3379735Y-37992172D01*
X3290312Y-38245397D01*
X3289618Y-38248919D01*
X3289617Y-38248922D01*
X3249737Y-38451256D01*
X3238380Y-38508878D01*
X3225028Y-38777095D01*
X500Y-38777095D01*
X500Y-28031762D01*
X11735733Y-28031762D01*
X11765326Y-28403621D01*
X11765812Y-28406205D01*
X11765813Y-28406213D01*
X11833781Y-28767651D01*
X11834266Y-28770229D01*
X11941773Y-29127435D01*
X11942795Y-29129861D01*
X11942796Y-29129863D01*
X12085609Y-29468776D01*
X12085614Y-29468786D01*
X12086629Y-29471195D01*
X12267195Y-29797615D01*
X12481424Y-30103000D01*
X12726893Y-30383890D01*
X13000820Y-30637106D01*
X13300104Y-30859779D01*
X13302371Y-30861117D01*
X13302380Y-30861123D01*
X13619084Y-31048048D01*
X13619090Y-31048051D01*
X13621355Y-31049388D01*
X13960936Y-31203786D01*
X14315001Y-31321225D01*
X14317576Y-31321784D01*
X14317583Y-31321786D01*
X14676971Y-31399817D01*
X14676975Y-31399818D01*
X14679542Y-31400375D01*
X15050428Y-31440338D01*
X15052396Y-31440391D01*
X15052407Y-31440392D01*
X15054333Y-31440444D01*
X15056414Y-31440500D01*
X15333239Y-31440500D01*
X15612505Y-31425620D01*
X15615101Y-31425202D01*
X15615109Y-31425201D01*
X15978180Y-31366721D01*
X15978185Y-31366720D01*
X15980792Y-31366300D01*
X15983338Y-31365606D01*
X15983342Y-31365605D01*
X16160742Y-31317240D01*
X16340691Y-31268181D01*
X16343141Y-31267223D01*
X16343151Y-31267220D01*
X16534864Y-31192280D01*
X16688124Y-31132372D01*
X16850455Y-31048048D01*
X17016813Y-30961632D01*
X17016818Y-30961629D01*
X17019159Y-30960413D01*
X17021352Y-30958959D01*
X17021360Y-30958954D01*
X17327847Y-30755710D01*
X17327848Y-30755709D01*
X17330047Y-30754251D01*
X17617267Y-30516220D01*
X17877566Y-30249015D01*
X18107998Y-29955663D01*
X18139227Y-29905783D01*
X18304552Y-29641720D01*
X18304554Y-29641716D01*
X18305951Y-29639485D01*
X18469186Y-29304062D01*
X18595853Y-28953192D01*
X18618424Y-28860954D01*
X18683891Y-28593411D01*
X18683892Y-28593408D01*
X18684518Y-28590848D01*
X18734176Y-28221135D01*
X18744267Y-27848238D01*
X18714674Y-27476379D01*
X18679959Y-27291768D01*
X18646219Y-27112349D01*
X18646218Y-27112345D01*
X18645734Y-27109771D01*
X18538227Y-26752565D01*
X18463799Y-26575938D01*
X18460346Y-26567744D01*
X44371163Y-26567744D01*
X44379592Y-26925419D01*
X44427220Y-27280009D01*
X44513470Y-27627232D01*
X44514411Y-27629784D01*
X44514413Y-27629789D01*
X44595974Y-27850869D01*
X44637302Y-27962892D01*
X44638512Y-27965313D01*
X44638513Y-27965316D01*
X44765025Y-28218504D01*
X44797220Y-28282937D01*
X44798696Y-28285222D01*
X44798700Y-28285230D01*
X44937803Y-28500662D01*
X44991291Y-28583501D01*
X45217173Y-28860954D01*
X45472137Y-29111944D01*
X45474269Y-29113625D01*
X45474275Y-29113630D01*
X45712685Y-29301577D01*
X45753103Y-29333440D01*
X46056678Y-29522766D01*
X46059123Y-29523940D01*
X46059132Y-29523945D01*
X46217937Y-29600201D01*
X46379196Y-29677637D01*
X46716760Y-29796181D01*
X47065295Y-29876967D01*
X47067987Y-29877286D01*
X47067995Y-29877287D01*
X47418465Y-29918768D01*
X47418474Y-29918769D01*
X47420589Y-29919019D01*
X47448052Y-29919882D01*
X47466911Y-29920475D01*
X47466926Y-29920475D01*
X47467714Y-29920500D01*
X47714817Y-29920500D01*
X47929511Y-29908685D01*
X47979510Y-29905933D01*
X47979512Y-29905933D01*
X47982234Y-29905783D01*
X48159054Y-29876352D01*
X48332462Y-29847489D01*
X48332464Y-29847489D01*
X48335153Y-29847041D01*
X48502789Y-29799763D01*
X48676868Y-29750668D01*
X48676870Y-29750667D01*
X48679495Y-29749927D01*
X48682021Y-29748904D01*
X49008578Y-29616635D01*
X49008585Y-29616632D01*
X49011100Y-29615613D01*
X49013492Y-29614322D01*
X49013497Y-29614320D01*
X49185838Y-29521329D01*
X49325964Y-29445721D01*
X49620284Y-29242305D01*
X49622339Y-29240522D01*
X49888451Y-29009601D01*
X49888456Y-29009596D01*
X49890504Y-29007819D01*
X49941001Y-28953192D01*
X50131511Y-28747100D01*
X50131516Y-28747094D01*
X50133362Y-28745097D01*
X50345923Y-28457312D01*
X50377110Y-28403621D01*
X50484634Y-28218504D01*
X50525621Y-28147940D01*
X50670285Y-27820717D01*
X50778167Y-27479596D01*
X50847966Y-27128696D01*
X50865338Y-26928120D01*
X50878603Y-26774961D01*
X50878603Y-26774956D01*
X50878837Y-26772256D01*
X50870408Y-26414581D01*
X50825788Y-26082385D01*
X50823143Y-26062692D01*
X50823142Y-26062688D01*
X50822780Y-26059991D01*
X50736530Y-25712768D01*
X50707125Y-25633061D01*
X50613636Y-25379650D01*
X50613635Y-25379647D01*
X50612698Y-25377108D01*
X50606986Y-25365676D01*
X50453999Y-25059502D01*
X50453997Y-25059498D01*
X50452780Y-25057063D01*
X50451304Y-25054778D01*
X50451300Y-25054770D01*
X50260190Y-24758793D01*
X50258709Y-24756499D01*
X50032827Y-24479046D01*
X50007771Y-24454380D01*
X49779799Y-24229962D01*
X49777863Y-24228056D01*
X49775731Y-24226375D01*
X49775725Y-24226370D01*
X49499031Y-24008242D01*
X49499027Y-24008239D01*
X49496897Y-24006560D01*
X49193322Y-23817234D01*
X49190877Y-23816060D01*
X49190868Y-23816055D01*
X49002661Y-23725680D01*
X48870804Y-23662363D01*
X48533240Y-23543819D01*
X48184705Y-23463033D01*
X48182013Y-23462714D01*
X48182005Y-23462713D01*
X47831535Y-23421232D01*
X47831526Y-23421231D01*
X47829411Y-23420981D01*
X47801948Y-23420118D01*
X47783089Y-23419525D01*
X47783074Y-23419525D01*
X47782286Y-23419500D01*
X47535183Y-23419500D01*
X47320489Y-23431315D01*
X47270490Y-23434067D01*
X47270488Y-23434067D01*
X47267766Y-23434217D01*
X47096563Y-23462713D01*
X46917538Y-23492511D01*
X46917536Y-23492511D01*
X46914847Y-23492959D01*
X46912224Y-23493699D01*
X46912223Y-23493699D01*
X46736691Y-23543204D01*
X46570505Y-23590073D01*
X46567981Y-23591095D01*
X46567979Y-23591096D01*
X46241422Y-23723365D01*
X46241415Y-23723368D01*
X46238900Y-23724387D01*
X46236508Y-23725678D01*
X46236503Y-23725680D01*
X46096993Y-23800956D01*
X45924036Y-23894279D01*
X45629716Y-24097695D01*
X45627664Y-24099476D01*
X45627661Y-24099478D01*
X45361549Y-24330399D01*
X45361544Y-24330404D01*
X45359496Y-24332181D01*
X45357649Y-24334179D01*
X45357648Y-24334180D01*
X45118489Y-24592900D01*
X45118484Y-24592906D01*
X45116638Y-24594903D01*
X44904077Y-24882688D01*
X44724379Y-25192060D01*
X44579715Y-25519283D01*
X44471833Y-25860404D01*
X44402034Y-26211304D01*
X44401801Y-26213999D01*
X44401800Y-26214003D01*
X44384193Y-26417303D01*
X44371163Y-26567744D01*
X18460346Y-26567744D01*
X18394391Y-26411224D01*
X18394386Y-26411214D01*
X18393371Y-26408805D01*
X18212805Y-26082385D01*
X17998576Y-25777000D01*
X17753107Y-25496110D01*
X17479180Y-25242894D01*
X17179896Y-25020221D01*
X17177629Y-25018883D01*
X17177620Y-25018877D01*
X16860916Y-24831952D01*
X16860910Y-24831949D01*
X16858645Y-24830612D01*
X16519064Y-24676214D01*
X16164999Y-24558775D01*
X16162424Y-24558216D01*
X16162417Y-24558214D01*
X15803029Y-24480183D01*
X15803025Y-24480182D01*
X15800458Y-24479625D01*
X15429572Y-24439662D01*
X15427604Y-24439609D01*
X15427593Y-24439608D01*
X15425667Y-24439556D01*
X15423586Y-24439500D01*
X15146761Y-24439500D01*
X14867495Y-24454380D01*
X14864899Y-24454798D01*
X14864891Y-24454799D01*
X14501820Y-24513279D01*
X14501815Y-24513280D01*
X14499208Y-24513700D01*
X14496662Y-24514394D01*
X14496658Y-24514395D01*
X14335931Y-24558214D01*
X14139309Y-24611819D01*
X14136859Y-24612777D01*
X14136849Y-24612780D01*
X13971777Y-24677306D01*
X13791876Y-24747628D01*
X13789537Y-24748843D01*
X13463187Y-24918368D01*
X13463182Y-24918371D01*
X13460841Y-24919587D01*
X13458648Y-24921041D01*
X13458640Y-24921046D01*
X13253530Y-25057063D01*
X13149953Y-25125749D01*
X12862733Y-25363780D01*
X12602434Y-25630985D01*
X12600806Y-25633058D01*
X12600803Y-25633061D01*
X12532022Y-25720623D01*
X12372002Y-25924337D01*
X12370603Y-25926572D01*
X12370602Y-25926573D01*
X12190648Y-26214003D01*
X12174049Y-26240515D01*
X12010814Y-26575938D01*
X12009917Y-26578423D01*
X11939942Y-26772256D01*
X11884147Y-26926808D01*
X11883523Y-26929360D01*
X11883521Y-26929365D01*
X11796109Y-27286589D01*
X11795482Y-27289152D01*
X11795131Y-27291768D01*
X11750073Y-27627232D01*
X11745824Y-27658865D01*
X11735733Y-28031762D01*
X500Y-28031762D01*
X500Y-17236762D01*
X34595733Y-17236762D01*
X34625326Y-17608621D01*
X34625812Y-17611205D01*
X34625813Y-17611213D01*
X34693781Y-17972651D01*
X34694266Y-17975229D01*
X34801773Y-18332435D01*
X34802795Y-18334861D01*
X34802796Y-18334863D01*
X34945609Y-18673776D01*
X34945614Y-18673786D01*
X34946629Y-18676195D01*
X35127195Y-19002615D01*
X35341424Y-19308000D01*
X35586893Y-19588890D01*
X35860820Y-19842106D01*
X36160104Y-20064779D01*
X36162371Y-20066117D01*
X36162380Y-20066123D01*
X36479084Y-20253048D01*
X36479090Y-20253051D01*
X36481355Y-20254388D01*
X36820936Y-20408786D01*
X37175001Y-20526225D01*
X37177576Y-20526784D01*
X37177583Y-20526786D01*
X37536971Y-20604817D01*
X37536975Y-20604818D01*
X37539542Y-20605375D01*
X37910428Y-20645338D01*
X37912396Y-20645391D01*
X37912407Y-20645392D01*
X37914333Y-20645444D01*
X37916414Y-20645500D01*
X38193239Y-20645500D01*
X38472505Y-20630620D01*
X38475101Y-20630202D01*
X38475109Y-20630201D01*
X38838180Y-20571721D01*
X38838185Y-20571720D01*
X38840792Y-20571300D01*
X38843338Y-20570606D01*
X38843342Y-20570605D01*
X39020742Y-20522240D01*
X39200691Y-20473181D01*
X39203141Y-20472223D01*
X39203151Y-20472220D01*
X39394864Y-20397280D01*
X39548124Y-20337372D01*
X39710455Y-20253048D01*
X39876813Y-20166632D01*
X39876818Y-20166629D01*
X39879159Y-20165413D01*
X39881352Y-20163959D01*
X39881360Y-20163954D01*
X40187847Y-19960710D01*
X40187848Y-19960709D01*
X40190047Y-19959251D01*
X40477267Y-19721220D01*
X40737566Y-19454015D01*
X40967998Y-19160663D01*
X41165951Y-18844485D01*
X41329186Y-18509062D01*
X41455853Y-18158192D01*
X41544518Y-17795848D01*
X41594176Y-17426135D01*
X41604267Y-17053238D01*
X41574674Y-16681379D01*
X41539959Y-16496768D01*
X41506219Y-16317349D01*
X41506218Y-16317345D01*
X41505734Y-16314771D01*
X41398227Y-15957565D01*
X41323799Y-15780938D01*
X41254391Y-15616224D01*
X41254386Y-15616214D01*
X41253371Y-15613805D01*
X41072805Y-15287385D01*
X40858576Y-14982000D01*
X40613107Y-14701110D01*
X40339180Y-14447894D01*
X40039896Y-14225221D01*
X40037629Y-14223883D01*
X40037620Y-14223877D01*
X39720916Y-14036952D01*
X39720910Y-14036949D01*
X39718645Y-14035612D01*
X39439314Y-13908608D01*
X39381466Y-13882306D01*
X39381464Y-13882305D01*
X39379064Y-13881214D01*
X39024999Y-13763775D01*
X39022424Y-13763216D01*
X39022417Y-13763214D01*
X38663029Y-13685183D01*
X38663025Y-13685182D01*
X38660458Y-13684625D01*
X38289572Y-13644662D01*
X38287604Y-13644609D01*
X38287593Y-13644608D01*
X38285667Y-13644556D01*
X38283586Y-13644500D01*
X38006761Y-13644500D01*
X37727495Y-13659380D01*
X37724899Y-13659798D01*
X37724891Y-13659799D01*
X37361820Y-13718279D01*
X37361815Y-13718280D01*
X37359208Y-13718700D01*
X37356662Y-13719394D01*
X37356658Y-13719395D01*
X37195931Y-13763214D01*
X36999309Y-13816819D01*
X36996859Y-13817777D01*
X36996849Y-13817780D01*
X36831777Y-13882306D01*
X36651876Y-13952628D01*
X36649537Y-13953843D01*
X36323187Y-14123368D01*
X36323182Y-14123371D01*
X36320841Y-14124587D01*
X36318648Y-14126041D01*
X36318640Y-14126046D01*
X36012153Y-14329290D01*
X36009953Y-14330749D01*
X35722733Y-14568780D01*
X35720886Y-14570676D01*
X35570892Y-14724650D01*
X35462434Y-14835985D01*
X35232002Y-15129337D01*
X35230603Y-15131572D01*
X35230602Y-15131573D01*
X35196878Y-15185439D01*
X35034049Y-15445515D01*
X34870814Y-15780938D01*
X34744147Y-16131808D01*
X34655482Y-16494152D01*
X34605824Y-16863865D01*
X34595733Y-17236762D01*
X500Y-17236762D01*
X500Y-13377095D01*
X13385028Y-13377095D01*
X13385368Y-13380657D01*
X13385368Y-13380664D01*
X13402922Y-13564648D01*
X13410534Y-13644431D01*
X13474364Y-13905285D01*
X13575182Y-14154192D01*
X13576993Y-14157285D01*
X13576994Y-14157287D01*
X13667773Y-14312325D01*
X13710875Y-14385938D01*
X13878601Y-14595669D01*
X14074846Y-14778991D01*
X14295499Y-14932064D01*
X14391889Y-14980017D01*
X14532723Y-15050081D01*
X14532728Y-15050083D01*
X14535938Y-15051680D01*
X14539349Y-15052798D01*
X14539351Y-15052799D01*
X14787721Y-15134219D01*
X14787724Y-15134220D01*
X14791126Y-15135335D01*
X15055717Y-15181276D01*
X15104761Y-15183717D01*
X15139335Y-15185439D01*
X15139348Y-15185439D01*
X15140567Y-15185500D01*
X15308223Y-15185500D01*
X15507846Y-15171016D01*
X15770080Y-15113120D01*
X15773429Y-15111851D01*
X15773433Y-15111850D01*
X15875087Y-15073337D01*
X16021211Y-15017975D01*
X16175879Y-14932064D01*
X16252837Y-14889318D01*
X16252841Y-14889315D01*
X16255976Y-14887574D01*
X16326055Y-14834092D01*
X16466607Y-14726826D01*
X16466609Y-14726825D01*
X16469458Y-14724650D01*
X16657185Y-14532614D01*
X16815225Y-14315491D01*
X16861889Y-14226798D01*
X16938595Y-14081002D01*
X16940265Y-14077828D01*
X17029688Y-13824603D01*
X17050425Y-13719395D01*
X17080925Y-13564648D01*
X17081620Y-13561122D01*
X17094972Y-13292905D01*
X17094632Y-13289343D01*
X17094632Y-13289336D01*
X17069807Y-13029139D01*
X17069806Y-13029134D01*
X17069466Y-13025569D01*
X17005636Y-12764715D01*
X16904818Y-12515808D01*
X16769125Y-12284062D01*
X16601399Y-12074331D01*
X16405154Y-11891009D01*
X16184501Y-11737936D01*
X16011812Y-11652025D01*
X15947277Y-11619919D01*
X15947272Y-11619917D01*
X15944062Y-11618320D01*
X15760515Y-11558150D01*
X15692279Y-11535781D01*
X15692276Y-11535780D01*
X15688874Y-11534665D01*
X15424283Y-11488724D01*
X15375239Y-11486283D01*
X15340665Y-11484561D01*
X15340652Y-11484561D01*
X15339433Y-11484500D01*
X15171777Y-11484500D01*
X14972154Y-11498984D01*
X14709920Y-11556880D01*
X14706571Y-11558149D01*
X14706567Y-11558150D01*
X14604913Y-11596663D01*
X14458789Y-11652025D01*
X14328411Y-11724444D01*
X14227163Y-11780682D01*
X14227159Y-11780685D01*
X14224024Y-11782426D01*
X14221174Y-11784601D01*
X14221171Y-11784603D01*
X14013393Y-11943174D01*
X14010542Y-11945350D01*
X13822815Y-12137386D01*
X13664775Y-12354509D01*
X13539735Y-12592172D01*
X13450312Y-12845397D01*
X13449618Y-12848919D01*
X13449617Y-12848922D01*
X13404479Y-13077934D01*
X13398380Y-13108878D01*
X13385028Y-13377095D01*
X500Y-13377095D01*
X500Y-3043233D01*
X2704906Y-3043233D01*
X2705246Y-3046795D01*
X2705246Y-3046802D01*
X2723274Y-3235748D01*
X2731102Y-3317792D01*
X2796657Y-3585694D01*
X2900199Y-3841326D01*
X3039558Y-4079335D01*
X3211816Y-4294732D01*
X3413364Y-4483008D01*
X3639979Y-4640216D01*
X3643184Y-4641811D01*
X3643190Y-4641814D01*
X3883699Y-4761466D01*
X3883704Y-4761468D01*
X3886914Y-4763065D01*
X3890325Y-4764183D01*
X3890327Y-4764184D01*
X4145593Y-4847864D01*
X4145596Y-4847865D01*
X4148998Y-4848980D01*
X4420738Y-4896162D01*
X4471160Y-4898672D01*
X4506644Y-4900439D01*
X4506657Y-4900439D01*
X4507876Y-4900500D01*
X6880070Y-4900500D01*
X7085083Y-4885625D01*
X7115490Y-4878912D01*
X7350904Y-4826937D01*
X7350910Y-4826935D01*
X7354403Y-4826164D01*
X7357752Y-4824895D01*
X7357756Y-4824894D01*
X7520951Y-4763065D01*
X7612319Y-4728449D01*
X7853428Y-4594525D01*
X8072678Y-4427198D01*
X8265477Y-4229974D01*
X8377376Y-4076242D01*
X8425682Y-4009876D01*
X8427787Y-4006984D01*
X8556206Y-3762899D01*
X8648045Y-3502832D01*
X8701380Y-3232232D01*
X8710789Y-3043233D01*
X44624906Y-3043233D01*
X44625246Y-3046795D01*
X44625246Y-3046802D01*
X44643274Y-3235748D01*
X44651102Y-3317792D01*
X44716657Y-3585694D01*
X44820199Y-3841326D01*
X44959558Y-4079335D01*
X45131816Y-4294732D01*
X45333364Y-4483008D01*
X45559979Y-4640216D01*
X45563184Y-4641811D01*
X45563190Y-4641814D01*
X45803699Y-4761466D01*
X45803704Y-4761468D01*
X45806914Y-4763065D01*
X45810325Y-4764183D01*
X45810327Y-4764184D01*
X46065593Y-4847864D01*
X46065596Y-4847865D01*
X46068998Y-4848980D01*
X46340738Y-4896162D01*
X46391160Y-4898672D01*
X46426644Y-4900439D01*
X46426657Y-4900439D01*
X46427876Y-4900500D01*
X48800070Y-4900500D01*
X49005083Y-4885625D01*
X49035490Y-4878912D01*
X49270904Y-4826937D01*
X49270910Y-4826935D01*
X49274403Y-4826164D01*
X49277752Y-4824895D01*
X49277756Y-4824894D01*
X49440951Y-4763065D01*
X49532319Y-4728449D01*
X49773428Y-4594525D01*
X49992678Y-4427198D01*
X50185477Y-4229974D01*
X50297376Y-4076242D01*
X50345682Y-4009876D01*
X50347787Y-4006984D01*
X50476206Y-3762899D01*
X50568045Y-3502832D01*
X50621380Y-3232232D01*
X50635094Y-2956767D01*
X50634754Y-2953205D01*
X50634754Y-2953198D01*
X50609239Y-2685779D01*
X50609238Y-2685775D01*
X50608898Y-2682208D01*
X50543343Y-2414306D01*
X50439801Y-2158674D01*
X50300442Y-1920665D01*
X50128184Y-1705268D01*
X49926636Y-1516992D01*
X49700021Y-1359784D01*
X49696816Y-1358189D01*
X49696810Y-1358186D01*
X49456301Y-1238534D01*
X49456296Y-1238532D01*
X49453086Y-1236935D01*
X49449675Y-1235817D01*
X49449673Y-1235816D01*
X49194407Y-1152136D01*
X49194404Y-1152135D01*
X49191002Y-1151020D01*
X48919262Y-1103838D01*
X48868840Y-1101328D01*
X48833356Y-1099561D01*
X48833343Y-1099561D01*
X48832124Y-1099500D01*
X46459930Y-1099500D01*
X46254917Y-1114375D01*
X46251406Y-1115150D01*
X46251407Y-1115150D01*
X45989096Y-1173063D01*
X45989090Y-1173065D01*
X45985597Y-1173836D01*
X45982248Y-1175105D01*
X45982244Y-1175106D01*
X45878185Y-1214530D01*
X45727681Y-1271551D01*
X45486572Y-1405475D01*
X45267322Y-1572802D01*
X45074523Y-1770026D01*
X45072414Y-1772923D01*
X45072411Y-1772927D01*
X44914318Y-1990124D01*
X44912213Y-1993016D01*
X44783794Y-2237101D01*
X44691955Y-2497168D01*
X44638620Y-2767768D01*
X44624906Y-3043233D01*
X8710789Y-3043233D01*
X8715094Y-2956767D01*
X8714754Y-2953205D01*
X8714754Y-2953198D01*
X8689239Y-2685779D01*
X8689238Y-2685775D01*
X8688898Y-2682208D01*
X8623343Y-2414306D01*
X8519801Y-2158674D01*
X8380442Y-1920665D01*
X8208184Y-1705268D01*
X8006636Y-1516992D01*
X7780021Y-1359784D01*
X7776816Y-1358189D01*
X7776810Y-1358186D01*
X7536301Y-1238534D01*
X7536296Y-1238532D01*
X7533086Y-1236935D01*
X7529675Y-1235817D01*
X7529673Y-1235816D01*
X7274407Y-1152136D01*
X7274404Y-1152135D01*
X7271002Y-1151020D01*
X6999262Y-1103838D01*
X6948840Y-1101328D01*
X6913356Y-1099561D01*
X6913343Y-1099561D01*
X6912124Y-1099500D01*
X4539930Y-1099500D01*
X4334917Y-1114375D01*
X4331406Y-1115150D01*
X4331407Y-1115150D01*
X4069096Y-1173063D01*
X4069090Y-1173065D01*
X4065597Y-1173836D01*
X4062248Y-1175105D01*
X4062244Y-1175106D01*
X3958185Y-1214530D01*
X3807681Y-1271551D01*
X3566572Y-1405475D01*
X3347322Y-1572802D01*
X3154523Y-1770026D01*
X3152414Y-1772923D01*
X3152411Y-1772927D01*
X2994318Y-1990124D01*
X2992213Y-1993016D01*
X2863794Y-2237101D01*
X2771955Y-2497168D01*
X2718620Y-2767768D01*
X2704906Y-3043233D01*
X500Y-3043233D01*
X500Y-99500D01*
X19407Y-41309D01*
X68907Y-5345D01*
X99500Y-500D01*
X53240500Y-500D01*
X53298691Y-19407D01*
G37*
G04 #@! TD.AperFunction*
M02*
