G04 #@! TF.GenerationSoftware,KiCad,Pcbnew,(6.0.0)*
G04 #@! TF.CreationDate,2022-08-09T16:48:56+02:00*
G04 #@! TF.ProjectId,FG-VCO-(panel),46472d56-434f-42d2-9870-616e656c292e,rev?*
G04 #@! TF.SameCoordinates,Original*
G04 #@! TF.FileFunction,Legend,Top*
G04 #@! TF.FilePolarity,Positive*
%FSLAX46Y46*%
G04 Gerber Fmt 4.6, Leading zero omitted, Abs format (unit mm)*
G04 Created by KiCad (PCBNEW (6.0.0)) date 2022-08-09 16:48:56*
%MOMM*%
%LPD*%
G01*
G04 APERTURE LIST*
%ADD10C,0.500000*%
%ADD11C,0.150000*%
%ADD12C,0.300000*%
%ADD13C,6.500000*%
%ADD14C,6.000000*%
%ADD15C,3.200000*%
%ADD16C,5.000000*%
%ADD17O,5.500000X3.200000*%
G04 APERTURE END LIST*
D10*
X18415000Y-92710000D02*
G75*
G03*
X18415000Y-92710000I-3175000J0D01*
G01*
X43497816Y-90170312D02*
G75*
G03*
X46355315Y-87312813I4127186J-1269687D01*
G01*
X43497816Y-111760312D02*
G75*
G03*
X46355315Y-108902813I4127186J-1269687D01*
G01*
X43497816Y-68580312D02*
G75*
G03*
X46355315Y-65722813I4127186J-1269687D01*
G01*
X43497501Y-25400000D02*
G75*
G03*
X46355000Y-22542501I4127186J-1269687D01*
G01*
X14287500Y-11112502D02*
G75*
G03*
X16192500Y-11112502I952500J-2222349D01*
G01*
X6985000Y-76517816D02*
G75*
G03*
X9842499Y-79375315I-1269687J-4127186D01*
G01*
X8255000Y-92710000D02*
G75*
G03*
X8255000Y-92710000I-2540000J0D01*
G01*
X27305000Y-92710000D02*
G75*
G03*
X27305000Y-92710000I-2540000J0D01*
G01*
X15240000Y-13334324D02*
X15240000Y-9525000D01*
X7620000Y-38735000D02*
G75*
G03*
X7620000Y-38735000I-2540000J0D01*
G01*
X43497816Y-46990312D02*
G75*
G03*
X46355315Y-44132813I4127186J-1269687D01*
G01*
X10160000Y-113030000D02*
G75*
G03*
X10160000Y-113030000I-4445000J0D01*
G01*
D11*
X37343095Y-17482380D02*
X37343095Y-16482380D01*
X37343095Y-16958571D02*
X37914523Y-16958571D01*
X37914523Y-17482380D02*
X37914523Y-16482380D01*
X38819285Y-16815714D02*
X38819285Y-17482380D01*
X38581190Y-16434761D02*
X38343095Y-17149047D01*
X38962142Y-17149047D01*
X4476904Y-113367380D02*
X4476904Y-112367380D01*
X4476904Y-112843571D02*
X5048333Y-112843571D01*
X5048333Y-113367380D02*
X5048333Y-112367380D01*
X6048333Y-113367380D02*
X5476904Y-113367380D01*
X5762619Y-113367380D02*
X5762619Y-112367380D01*
X5667380Y-112510238D01*
X5572142Y-112605476D01*
X5476904Y-112653095D01*
X6381666Y-112367380D02*
X7048333Y-112367380D01*
X6619761Y-113367380D01*
X46386904Y-91777380D02*
X46386904Y-90777380D01*
X46386904Y-91253571D02*
X46958333Y-91253571D01*
X46958333Y-91777380D02*
X46958333Y-90777380D01*
X47958333Y-91777380D02*
X47386904Y-91777380D01*
X47672619Y-91777380D02*
X47672619Y-90777380D01*
X47577380Y-90920238D01*
X47482142Y-91015476D01*
X47386904Y-91063095D01*
X48815476Y-91110714D02*
X48815476Y-91777380D01*
X48577380Y-90729761D02*
X48339285Y-91444047D01*
X48958333Y-91444047D01*
X4481904Y-80982380D02*
X4481904Y-79982380D01*
X4481904Y-80458571D02*
X5053333Y-80458571D01*
X5053333Y-80982380D02*
X5053333Y-79982380D01*
X6053333Y-80982380D02*
X5481904Y-80982380D01*
X5767619Y-80982380D02*
X5767619Y-79982380D01*
X5672380Y-80125238D01*
X5577142Y-80220476D01*
X5481904Y-80268095D01*
X6529523Y-80982380D02*
X6720000Y-80982380D01*
X6815238Y-80934761D01*
X6862857Y-80887142D01*
X6958095Y-80744285D01*
X7005714Y-80553809D01*
X7005714Y-80172857D01*
X6958095Y-80077619D01*
X6910476Y-80030000D01*
X6815238Y-79982380D01*
X6624761Y-79982380D01*
X6529523Y-80030000D01*
X6481904Y-80077619D01*
X6434285Y-80172857D01*
X6434285Y-80410952D01*
X6481904Y-80506190D01*
X6529523Y-80553809D01*
X6624761Y-80601428D01*
X6815238Y-80601428D01*
X6910476Y-80553809D01*
X6958095Y-80506190D01*
X7005714Y-80410952D01*
X46391904Y-113367380D02*
X46391904Y-112367380D01*
X46391904Y-112843571D02*
X46963333Y-112843571D01*
X46963333Y-113367380D02*
X46963333Y-112367380D01*
X47963333Y-113367380D02*
X47391904Y-113367380D01*
X47677619Y-113367380D02*
X47677619Y-112367380D01*
X47582380Y-112510238D01*
X47487142Y-112605476D01*
X47391904Y-112653095D01*
X48868095Y-112367380D02*
X48391904Y-112367380D01*
X48344285Y-112843571D01*
X48391904Y-112795952D01*
X48487142Y-112748333D01*
X48725238Y-112748333D01*
X48820476Y-112795952D01*
X48868095Y-112843571D01*
X48915714Y-112938809D01*
X48915714Y-113176904D01*
X48868095Y-113272142D01*
X48820476Y-113319761D01*
X48725238Y-113367380D01*
X48487142Y-113367380D01*
X48391904Y-113319761D01*
X48344285Y-113272142D01*
X46386904Y-27007380D02*
X46386904Y-26007380D01*
X46386904Y-26483571D02*
X46958333Y-26483571D01*
X46958333Y-27007380D02*
X46958333Y-26007380D01*
X47958333Y-27007380D02*
X47386904Y-27007380D01*
X47672619Y-27007380D02*
X47672619Y-26007380D01*
X47577380Y-26150238D01*
X47482142Y-26245476D01*
X47386904Y-26293095D01*
X48291666Y-26007380D02*
X48910714Y-26007380D01*
X48577380Y-26388333D01*
X48720238Y-26388333D01*
X48815476Y-26435952D01*
X48863095Y-26483571D01*
X48910714Y-26578809D01*
X48910714Y-26816904D01*
X48863095Y-26912142D01*
X48815476Y-26959761D01*
X48720238Y-27007380D01*
X48434523Y-27007380D01*
X48339285Y-26959761D01*
X48291666Y-26912142D01*
X14483095Y-28277380D02*
X14483095Y-27277380D01*
X14483095Y-27753571D02*
X15054523Y-27753571D01*
X15054523Y-28277380D02*
X15054523Y-27277380D01*
X16006904Y-27277380D02*
X15530714Y-27277380D01*
X15483095Y-27753571D01*
X15530714Y-27705952D01*
X15625952Y-27658333D01*
X15864047Y-27658333D01*
X15959285Y-27705952D01*
X16006904Y-27753571D01*
X16054523Y-27848809D01*
X16054523Y-28086904D01*
X16006904Y-28182142D01*
X15959285Y-28229761D01*
X15864047Y-28277380D01*
X15625952Y-28277380D01*
X15530714Y-28229761D01*
X15483095Y-28182142D01*
X37338095Y-82252380D02*
X37338095Y-81252380D01*
X37338095Y-81728571D02*
X37909523Y-81728571D01*
X37909523Y-82252380D02*
X37909523Y-81252380D01*
X38814285Y-81252380D02*
X38623809Y-81252380D01*
X38528571Y-81300000D01*
X38480952Y-81347619D01*
X38385714Y-81490476D01*
X38338095Y-81680952D01*
X38338095Y-82061904D01*
X38385714Y-82157142D01*
X38433333Y-82204761D01*
X38528571Y-82252380D01*
X38719047Y-82252380D01*
X38814285Y-82204761D01*
X38861904Y-82157142D01*
X38909523Y-82061904D01*
X38909523Y-81823809D01*
X38861904Y-81728571D01*
X38814285Y-81680952D01*
X38719047Y-81633333D01*
X38528571Y-81633333D01*
X38433333Y-81680952D01*
X38385714Y-81728571D01*
X38338095Y-81823809D01*
X4476904Y-93047380D02*
X4476904Y-92047380D01*
X4476904Y-92523571D02*
X5048333Y-92523571D01*
X5048333Y-93047380D02*
X5048333Y-92047380D01*
X6048333Y-93047380D02*
X5476904Y-93047380D01*
X5762619Y-93047380D02*
X5762619Y-92047380D01*
X5667380Y-92190238D01*
X5572142Y-92285476D01*
X5476904Y-92333095D01*
X7000714Y-93047380D02*
X6429285Y-93047380D01*
X6715000Y-93047380D02*
X6715000Y-92047380D01*
X6619761Y-92190238D01*
X6524523Y-92285476D01*
X6429285Y-92333095D01*
X37343095Y-39072380D02*
X37343095Y-38072380D01*
X37343095Y-38548571D02*
X37914523Y-38548571D01*
X37914523Y-39072380D02*
X37914523Y-38072380D01*
X38914523Y-39072380D02*
X38343095Y-39072380D01*
X38628809Y-39072380D02*
X38628809Y-38072380D01*
X38533571Y-38215238D01*
X38438333Y-38310476D01*
X38343095Y-38358095D01*
X14483095Y-49867380D02*
X14483095Y-48867380D01*
X14483095Y-49343571D02*
X15054523Y-49343571D01*
X15054523Y-49867380D02*
X15054523Y-48867380D01*
X15435476Y-48867380D02*
X16054523Y-48867380D01*
X15721190Y-49248333D01*
X15864047Y-49248333D01*
X15959285Y-49295952D01*
X16006904Y-49343571D01*
X16054523Y-49438809D01*
X16054523Y-49676904D01*
X16006904Y-49772142D01*
X15959285Y-49819761D01*
X15864047Y-49867380D01*
X15578333Y-49867380D01*
X15483095Y-49819761D01*
X15435476Y-49772142D01*
X14001904Y-93052380D02*
X14001904Y-92052380D01*
X14001904Y-92528571D02*
X14573333Y-92528571D01*
X14573333Y-93052380D02*
X14573333Y-92052380D01*
X15001904Y-92147619D02*
X15049523Y-92100000D01*
X15144761Y-92052380D01*
X15382857Y-92052380D01*
X15478095Y-92100000D01*
X15525714Y-92147619D01*
X15573333Y-92242857D01*
X15573333Y-92338095D01*
X15525714Y-92480952D01*
X14954285Y-93052380D01*
X15573333Y-93052380D01*
X16192380Y-92052380D02*
X16287619Y-92052380D01*
X16382857Y-92100000D01*
X16430476Y-92147619D01*
X16478095Y-92242857D01*
X16525714Y-92433333D01*
X16525714Y-92671428D01*
X16478095Y-92861904D01*
X16430476Y-92957142D01*
X16382857Y-93004761D01*
X16287619Y-93052380D01*
X16192380Y-93052380D01*
X16097142Y-93004761D01*
X16049523Y-92957142D01*
X16001904Y-92861904D01*
X15954285Y-92671428D01*
X15954285Y-92433333D01*
X16001904Y-92242857D01*
X16049523Y-92147619D01*
X16097142Y-92100000D01*
X16192380Y-92052380D01*
X46391904Y-48597380D02*
X46391904Y-47597380D01*
X46391904Y-48073571D02*
X46963333Y-48073571D01*
X46963333Y-48597380D02*
X46963333Y-47597380D01*
X47963333Y-48597380D02*
X47391904Y-48597380D01*
X47677619Y-48597380D02*
X47677619Y-47597380D01*
X47582380Y-47740238D01*
X47487142Y-47835476D01*
X47391904Y-47883095D01*
X48534761Y-48025952D02*
X48439523Y-47978333D01*
X48391904Y-47930714D01*
X48344285Y-47835476D01*
X48344285Y-47787857D01*
X48391904Y-47692619D01*
X48439523Y-47645000D01*
X48534761Y-47597380D01*
X48725238Y-47597380D01*
X48820476Y-47645000D01*
X48868095Y-47692619D01*
X48915714Y-47787857D01*
X48915714Y-47835476D01*
X48868095Y-47930714D01*
X48820476Y-47978333D01*
X48725238Y-48025952D01*
X48534761Y-48025952D01*
X48439523Y-48073571D01*
X48391904Y-48121190D01*
X48344285Y-48216428D01*
X48344285Y-48406904D01*
X48391904Y-48502142D01*
X48439523Y-48549761D01*
X48534761Y-48597380D01*
X48725238Y-48597380D01*
X48820476Y-48549761D01*
X48868095Y-48502142D01*
X48915714Y-48406904D01*
X48915714Y-48216428D01*
X48868095Y-48121190D01*
X48820476Y-48073571D01*
X48725238Y-48025952D01*
D12*
X36757428Y-59880500D02*
X36612285Y-59807928D01*
X36394571Y-59807928D01*
X36176857Y-59880500D01*
X36031714Y-60025642D01*
X35959142Y-60170785D01*
X35886571Y-60461071D01*
X35886571Y-60678785D01*
X35959142Y-60969071D01*
X36031714Y-61114214D01*
X36176857Y-61259357D01*
X36394571Y-61331928D01*
X36539714Y-61331928D01*
X36757428Y-61259357D01*
X36830000Y-61186785D01*
X36830000Y-60678785D01*
X36539714Y-60678785D01*
X37700857Y-59807928D02*
X37700857Y-60170785D01*
X37338000Y-60025642D02*
X37700857Y-60170785D01*
X38063714Y-60025642D01*
X37483142Y-60461071D02*
X37700857Y-60170785D01*
X37918571Y-60461071D01*
X38862000Y-59807928D02*
X38862000Y-60170785D01*
X38499142Y-60025642D02*
X38862000Y-60170785D01*
X39224857Y-60025642D01*
X38644285Y-60461071D02*
X38862000Y-60170785D01*
X39079714Y-60461071D01*
X40023142Y-59807928D02*
X40023142Y-60170785D01*
X39660285Y-60025642D02*
X40023142Y-60170785D01*
X40386000Y-60025642D01*
X39805428Y-60461071D02*
X40023142Y-60170785D01*
X40240857Y-60461071D01*
D11*
X46396904Y-126127380D02*
X46396904Y-125127380D01*
X46396904Y-125603571D02*
X46968333Y-125603571D01*
X46968333Y-126127380D02*
X46968333Y-125127380D01*
X47396904Y-125222619D02*
X47444523Y-125175000D01*
X47539761Y-125127380D01*
X47777857Y-125127380D01*
X47873095Y-125175000D01*
X47920714Y-125222619D01*
X47968333Y-125317857D01*
X47968333Y-125413095D01*
X47920714Y-125555952D01*
X47349285Y-126127380D01*
X47968333Y-126127380D01*
X48825476Y-125460714D02*
X48825476Y-126127380D01*
X48587380Y-125079761D02*
X48349285Y-125794047D01*
X48968333Y-125794047D01*
X4476904Y-3627380D02*
X4476904Y-2627380D01*
X4476904Y-3103571D02*
X5048333Y-3103571D01*
X5048333Y-3627380D02*
X5048333Y-2627380D01*
X5476904Y-2722619D02*
X5524523Y-2675000D01*
X5619761Y-2627380D01*
X5857857Y-2627380D01*
X5953095Y-2675000D01*
X6000714Y-2722619D01*
X6048333Y-2817857D01*
X6048333Y-2913095D01*
X6000714Y-3055952D01*
X5429285Y-3627380D01*
X6048333Y-3627380D01*
X6381666Y-2627380D02*
X7000714Y-2627380D01*
X6667380Y-3008333D01*
X6810238Y-3008333D01*
X6905476Y-3055952D01*
X6953095Y-3103571D01*
X7000714Y-3198809D01*
X7000714Y-3436904D01*
X6953095Y-3532142D01*
X6905476Y-3579761D01*
X6810238Y-3627380D01*
X6524523Y-3627380D01*
X6429285Y-3579761D01*
X6381666Y-3532142D01*
X14001904Y-13672380D02*
X14001904Y-12672380D01*
X14001904Y-13148571D02*
X14573333Y-13148571D01*
X14573333Y-13672380D02*
X14573333Y-12672380D01*
X15573333Y-13672380D02*
X15001904Y-13672380D01*
X15287619Y-13672380D02*
X15287619Y-12672380D01*
X15192380Y-12815238D01*
X15097142Y-12910476D01*
X15001904Y-12958095D01*
X15954285Y-12767619D02*
X16001904Y-12720000D01*
X16097142Y-12672380D01*
X16335238Y-12672380D01*
X16430476Y-12720000D01*
X16478095Y-12767619D01*
X16525714Y-12862857D01*
X16525714Y-12958095D01*
X16478095Y-13100952D01*
X15906666Y-13672380D01*
X16525714Y-13672380D01*
X46391904Y-70187380D02*
X46391904Y-69187380D01*
X46391904Y-69663571D02*
X46963333Y-69663571D01*
X46963333Y-70187380D02*
X46963333Y-69187380D01*
X47963333Y-70187380D02*
X47391904Y-70187380D01*
X47677619Y-70187380D02*
X47677619Y-69187380D01*
X47582380Y-69330238D01*
X47487142Y-69425476D01*
X47391904Y-69473095D01*
X48820476Y-69187380D02*
X48630000Y-69187380D01*
X48534761Y-69235000D01*
X48487142Y-69282619D01*
X48391904Y-69425476D01*
X48344285Y-69615952D01*
X48344285Y-69996904D01*
X48391904Y-70092142D01*
X48439523Y-70139761D01*
X48534761Y-70187380D01*
X48725238Y-70187380D01*
X48820476Y-70139761D01*
X48868095Y-70092142D01*
X48915714Y-69996904D01*
X48915714Y-69758809D01*
X48868095Y-69663571D01*
X48820476Y-69615952D01*
X48725238Y-69568333D01*
X48534761Y-69568333D01*
X48439523Y-69615952D01*
X48391904Y-69663571D01*
X48344285Y-69758809D01*
X3841904Y-39072380D02*
X3841904Y-38072380D01*
X3841904Y-38548571D02*
X4413333Y-38548571D01*
X4413333Y-39072380D02*
X4413333Y-38072380D01*
X5413333Y-39072380D02*
X4841904Y-39072380D01*
X5127619Y-39072380D02*
X5127619Y-38072380D01*
X5032380Y-38215238D01*
X4937142Y-38310476D01*
X4841904Y-38358095D01*
X6032380Y-38072380D02*
X6127619Y-38072380D01*
X6222857Y-38120000D01*
X6270476Y-38167619D01*
X6318095Y-38262857D01*
X6365714Y-38453333D01*
X6365714Y-38691428D01*
X6318095Y-38881904D01*
X6270476Y-38977142D01*
X6222857Y-39024761D01*
X6127619Y-39072380D01*
X6032380Y-39072380D01*
X5937142Y-39024761D01*
X5889523Y-38977142D01*
X5841904Y-38881904D01*
X5794285Y-38691428D01*
X5794285Y-38453333D01*
X5841904Y-38262857D01*
X5889523Y-38167619D01*
X5937142Y-38120000D01*
X6032380Y-38072380D01*
X37343095Y-103842380D02*
X37343095Y-102842380D01*
X37343095Y-103318571D02*
X37914523Y-103318571D01*
X37914523Y-103842380D02*
X37914523Y-102842380D01*
X38343095Y-102937619D02*
X38390714Y-102890000D01*
X38485952Y-102842380D01*
X38724047Y-102842380D01*
X38819285Y-102890000D01*
X38866904Y-102937619D01*
X38914523Y-103032857D01*
X38914523Y-103128095D01*
X38866904Y-103270952D01*
X38295476Y-103842380D01*
X38914523Y-103842380D01*
X1766904Y-126127380D02*
X1766904Y-125127380D01*
X1766904Y-125603571D02*
X2338333Y-125603571D01*
X2338333Y-126127380D02*
X2338333Y-125127380D01*
X2766904Y-125222619D02*
X2814523Y-125175000D01*
X2909761Y-125127380D01*
X3147857Y-125127380D01*
X3243095Y-125175000D01*
X3290714Y-125222619D01*
X3338333Y-125317857D01*
X3338333Y-125413095D01*
X3290714Y-125555952D01*
X2719285Y-126127380D01*
X3338333Y-126127380D01*
X4290714Y-126127380D02*
X3719285Y-126127380D01*
X4005000Y-126127380D02*
X4005000Y-125127380D01*
X3909761Y-125270238D01*
X3814523Y-125365476D01*
X3719285Y-125413095D01*
X46396904Y-3627380D02*
X46396904Y-2627380D01*
X46396904Y-3103571D02*
X46968333Y-3103571D01*
X46968333Y-3627380D02*
X46968333Y-2627380D01*
X47396904Y-2722619D02*
X47444523Y-2675000D01*
X47539761Y-2627380D01*
X47777857Y-2627380D01*
X47873095Y-2675000D01*
X47920714Y-2722619D01*
X47968333Y-2817857D01*
X47968333Y-2913095D01*
X47920714Y-3055952D01*
X47349285Y-3627380D01*
X47968333Y-3627380D01*
X48349285Y-2722619D02*
X48396904Y-2675000D01*
X48492142Y-2627380D01*
X48730238Y-2627380D01*
X48825476Y-2675000D01*
X48873095Y-2722619D01*
X48920714Y-2817857D01*
X48920714Y-2913095D01*
X48873095Y-3055952D01*
X48301666Y-3627380D01*
X48920714Y-3627380D01*
X24003095Y-93369880D02*
X24003095Y-92369880D01*
X24003095Y-92846071D02*
X24574523Y-92846071D01*
X24574523Y-93369880D02*
X24574523Y-92369880D01*
X25098333Y-93369880D02*
X25288809Y-93369880D01*
X25384047Y-93322261D01*
X25431666Y-93274642D01*
X25526904Y-93131785D01*
X25574523Y-92941309D01*
X25574523Y-92560357D01*
X25526904Y-92465119D01*
X25479285Y-92417500D01*
X25384047Y-92369880D01*
X25193571Y-92369880D01*
X25098333Y-92417500D01*
X25050714Y-92465119D01*
X25003095Y-92560357D01*
X25003095Y-92798452D01*
X25050714Y-92893690D01*
X25098333Y-92941309D01*
X25193571Y-92988928D01*
X25384047Y-92988928D01*
X25479285Y-92941309D01*
X25526904Y-92893690D01*
X25574523Y-92798452D01*
X37343095Y-60662380D02*
X37343095Y-59662380D01*
X37343095Y-60138571D02*
X37914523Y-60138571D01*
X37914523Y-60662380D02*
X37914523Y-59662380D01*
X38533571Y-60090952D02*
X38438333Y-60043333D01*
X38390714Y-59995714D01*
X38343095Y-59900476D01*
X38343095Y-59852857D01*
X38390714Y-59757619D01*
X38438333Y-59710000D01*
X38533571Y-59662380D01*
X38724047Y-59662380D01*
X38819285Y-59710000D01*
X38866904Y-59757619D01*
X38914523Y-59852857D01*
X38914523Y-59900476D01*
X38866904Y-59995714D01*
X38819285Y-60043333D01*
X38724047Y-60090952D01*
X38533571Y-60090952D01*
X38438333Y-60138571D01*
X38390714Y-60186190D01*
X38343095Y-60281428D01*
X38343095Y-60471904D01*
X38390714Y-60567142D01*
X38438333Y-60614761D01*
X38533571Y-60662380D01*
X38724047Y-60662380D01*
X38819285Y-60614761D01*
X38866904Y-60567142D01*
X38914523Y-60471904D01*
X38914523Y-60281428D01*
X38866904Y-60186190D01*
X38819285Y-60138571D01*
X38724047Y-60090952D01*
X14483095Y-71457380D02*
X14483095Y-70457380D01*
X14483095Y-70933571D02*
X15054523Y-70933571D01*
X15054523Y-71457380D02*
X15054523Y-70457380D01*
X15435476Y-70457380D02*
X16102142Y-70457380D01*
X15673571Y-71457380D01*
G36*
X38085844Y-7143580D02*
G01*
X38312738Y-7149194D01*
X38511769Y-7158808D01*
X38672174Y-7172505D01*
X38688952Y-7174505D01*
X39411242Y-7287296D01*
X40108134Y-7443675D01*
X40781530Y-7644462D01*
X41433335Y-7890480D01*
X42065453Y-8182551D01*
X42679787Y-8521496D01*
X43278241Y-8908138D01*
X43862719Y-9343298D01*
X44033641Y-9481795D01*
X44179358Y-9608077D01*
X44348643Y-9764670D01*
X44532688Y-9942604D01*
X44722685Y-10132914D01*
X44909827Y-10326629D01*
X45085304Y-10514784D01*
X45240309Y-10688410D01*
X45365070Y-10837335D01*
X45765250Y-11368164D01*
X46118798Y-11902610D01*
X46429867Y-12447766D01*
X46702607Y-13010726D01*
X46866309Y-13402270D01*
X47083546Y-14023751D01*
X47251856Y-14657257D01*
X47371276Y-15300892D01*
X47441839Y-15952759D01*
X47463579Y-16610960D01*
X47436533Y-17273598D01*
X47360734Y-17938775D01*
X47236216Y-18604596D01*
X47063016Y-19269162D01*
X46841166Y-19930576D01*
X46742406Y-20184936D01*
X46665951Y-20362781D01*
X46568689Y-20571016D01*
X46457098Y-20797062D01*
X46337660Y-21028338D01*
X46216854Y-21252266D01*
X46101161Y-21456266D01*
X46008178Y-21610186D01*
X45618563Y-22184987D01*
X45197013Y-22721191D01*
X44744260Y-23218038D01*
X44261034Y-23674764D01*
X43748068Y-24090608D01*
X43374443Y-24355124D01*
X43199517Y-24469199D01*
X43030348Y-24574192D01*
X42873177Y-24666640D01*
X42734247Y-24743077D01*
X42619798Y-24800040D01*
X42536072Y-24834064D01*
X42496415Y-24842451D01*
X42414987Y-24819840D01*
X42356446Y-24760909D01*
X42332553Y-24679007D01*
X42333293Y-24657297D01*
X42337327Y-24628010D01*
X42346496Y-24601478D01*
X42365806Y-24573622D01*
X42400262Y-24540364D01*
X42454868Y-24497625D01*
X42534629Y-24441327D01*
X42644550Y-24367393D01*
X42789636Y-24271742D01*
X42875625Y-24215353D01*
X43328119Y-23894936D01*
X43762758Y-23537545D01*
X44173822Y-23150498D01*
X44622432Y-22666141D01*
X45028591Y-22153977D01*
X45391760Y-21615084D01*
X45711400Y-21050539D01*
X45986971Y-20461422D01*
X46217934Y-19848810D01*
X46403750Y-19213782D01*
X46543880Y-18557416D01*
X46579486Y-18339745D01*
X46603336Y-18145787D01*
X46622920Y-17913493D01*
X46637907Y-17655277D01*
X46647962Y-17383551D01*
X46652754Y-17110729D01*
X46651950Y-16849225D01*
X46645215Y-16611453D01*
X46632219Y-16409826D01*
X46631458Y-16401558D01*
X46545655Y-15746251D01*
X46413357Y-15108666D01*
X46236303Y-14490523D01*
X46016233Y-13893543D01*
X45754886Y-13319448D01*
X45454001Y-12769957D01*
X45115318Y-12246793D01*
X44740577Y-11751675D01*
X44331516Y-11286325D01*
X43889875Y-10852463D01*
X43417393Y-10451811D01*
X42915810Y-10086089D01*
X42386865Y-9757018D01*
X41832297Y-9466319D01*
X41253846Y-9215713D01*
X40653252Y-9006921D01*
X40032252Y-8841663D01*
X39392588Y-8721661D01*
X38800241Y-8653602D01*
X38584706Y-8641280D01*
X38335991Y-8635547D01*
X38068090Y-8636074D01*
X37794994Y-8642531D01*
X37530697Y-8654587D01*
X37289190Y-8671913D01*
X37085545Y-8694034D01*
X36424146Y-8808281D01*
X35781680Y-8969091D01*
X35159842Y-9175400D01*
X34560321Y-9426149D01*
X33984809Y-9720274D01*
X33434999Y-10056715D01*
X32912582Y-10434410D01*
X32419250Y-10852298D01*
X31956694Y-11309316D01*
X31526606Y-11804404D01*
X31130677Y-12336500D01*
X31021227Y-12499502D01*
X30685550Y-13057292D01*
X30396139Y-13635667D01*
X30153402Y-14233123D01*
X29957746Y-14848156D01*
X29809577Y-15479261D01*
X29709304Y-16124936D01*
X29657333Y-16783676D01*
X29654072Y-17453977D01*
X29657091Y-17538042D01*
X29707914Y-18171577D01*
X29808032Y-18799687D01*
X29955877Y-19418959D01*
X30149880Y-20025975D01*
X30388474Y-20617321D01*
X30670091Y-21189580D01*
X30993163Y-21739338D01*
X31356122Y-22263178D01*
X31757401Y-22757685D01*
X32195432Y-23219444D01*
X32319163Y-23337468D01*
X32635939Y-23620423D01*
X32958764Y-23881880D01*
X33300581Y-24131604D01*
X33674331Y-24379364D01*
X33821743Y-24471532D01*
X34016789Y-24603487D01*
X34171065Y-24736352D01*
X34293943Y-24879784D01*
X34394799Y-25043441D01*
X34414562Y-25082306D01*
X34504840Y-25319920D01*
X34546950Y-25562363D01*
X34542515Y-25803874D01*
X34493155Y-26038694D01*
X34400492Y-26261061D01*
X34266147Y-26465216D01*
X34091742Y-26645397D01*
X33943416Y-26756310D01*
X33787900Y-26839192D01*
X33609551Y-26904936D01*
X33424922Y-26949277D01*
X33250568Y-26967950D01*
X33140655Y-26963102D01*
X32995576Y-26940245D01*
X32868033Y-26909528D01*
X32747589Y-26866260D01*
X32623804Y-26805747D01*
X32486241Y-26723295D01*
X32324459Y-26614211D01*
X32253936Y-26564426D01*
X31649325Y-26103937D01*
X31079901Y-25609050D01*
X30547694Y-25081838D01*
X30054733Y-24524379D01*
X29603048Y-23938745D01*
X29400168Y-23646258D01*
X28998174Y-23001052D01*
X28643519Y-22337330D01*
X28336114Y-21654846D01*
X28075873Y-20953357D01*
X27862705Y-20232616D01*
X27696524Y-19492379D01*
X27577240Y-18732402D01*
X27552432Y-18517902D01*
X27535890Y-18323646D01*
X27523148Y-18093209D01*
X27514283Y-17838139D01*
X27509374Y-17569986D01*
X27508500Y-17300300D01*
X27511740Y-17040630D01*
X27519172Y-16802525D01*
X27530875Y-16597535D01*
X27538734Y-16507280D01*
X27607690Y-15936830D01*
X27696191Y-15404895D01*
X27806686Y-14902047D01*
X27941621Y-14418859D01*
X28103446Y-13945900D01*
X28294607Y-13473744D01*
X28370506Y-13303403D01*
X28689687Y-12664033D01*
X29053712Y-12046174D01*
X29459998Y-11452853D01*
X29905962Y-10887094D01*
X30389022Y-10351925D01*
X30906594Y-9850371D01*
X31456097Y-9385457D01*
X32034946Y-8960210D01*
X32135345Y-8892572D01*
X32359045Y-8746489D01*
X32564656Y-8618720D01*
X32767175Y-8500623D01*
X32981596Y-8383554D01*
X33222916Y-8258871D01*
X33316001Y-8212087D01*
X33925301Y-7930788D01*
X34541888Y-7693138D01*
X35172664Y-7497077D01*
X35824531Y-7340545D01*
X36504392Y-7221480D01*
X36741958Y-7189316D01*
X36910051Y-7172648D01*
X37114848Y-7159489D01*
X37345587Y-7149920D01*
X37591507Y-7144025D01*
X37841846Y-7141884D01*
X38085844Y-7143580D01*
G37*
G36*
X35855811Y-47061329D02*
G01*
X36031149Y-47062570D01*
X36166128Y-47065590D01*
X36266020Y-47071167D01*
X36336096Y-47080079D01*
X36381628Y-47093106D01*
X36407887Y-47111025D01*
X36420145Y-47134614D01*
X36423673Y-47164653D01*
X36423822Y-47177591D01*
X36417070Y-47221590D01*
X36391922Y-47252774D01*
X36341042Y-47273564D01*
X36257091Y-47286378D01*
X36132733Y-47293637D01*
X36065960Y-47295630D01*
X35774824Y-47302872D01*
X35768314Y-48130026D01*
X35766295Y-48359095D01*
X35764029Y-48542528D01*
X35761214Y-48685592D01*
X35757545Y-48793553D01*
X35752721Y-48871677D01*
X35746438Y-48925230D01*
X35738394Y-48959479D01*
X35728285Y-48979689D01*
X35718910Y-48988994D01*
X35645509Y-49018926D01*
X35576895Y-48998583D01*
X35549710Y-48974264D01*
X35537964Y-48956685D01*
X35528597Y-48929139D01*
X35521346Y-48886244D01*
X35515950Y-48822619D01*
X35512146Y-48732881D01*
X35509672Y-48611649D01*
X35508268Y-48453541D01*
X35507670Y-48253176D01*
X35507589Y-48108934D01*
X35507589Y-47290146D01*
X35207269Y-47290146D01*
X35063645Y-47288374D01*
X34963375Y-47281480D01*
X34898987Y-47267094D01*
X34863006Y-47242849D01*
X34847960Y-47206377D01*
X34845866Y-47175617D01*
X34847576Y-47143538D01*
X34856220Y-47118083D01*
X34877068Y-47098487D01*
X34915390Y-47083984D01*
X34976455Y-47073811D01*
X35065533Y-47067202D01*
X35187895Y-47063391D01*
X35348811Y-47061615D01*
X35553549Y-47061107D01*
X35634844Y-47061088D01*
X35855811Y-47061329D01*
G37*
G36*
X12880387Y-79793143D02*
G01*
X12910129Y-79802994D01*
X12933543Y-79825395D01*
X12951381Y-79865242D01*
X12964397Y-79927432D01*
X12973345Y-80016860D01*
X12978980Y-80138423D01*
X12982054Y-80297014D01*
X12983321Y-80497532D01*
X12983541Y-80700118D01*
X12983541Y-81496158D01*
X13462018Y-81496158D01*
X13640880Y-81496747D01*
X13775197Y-81499512D01*
X13871321Y-81505951D01*
X13935605Y-81517563D01*
X13974402Y-81535846D01*
X13994063Y-81562298D01*
X14000941Y-81598417D01*
X14001577Y-81623413D01*
X13999712Y-81662527D01*
X13990216Y-81692682D01*
X13967240Y-81715042D01*
X13924932Y-81730769D01*
X13857444Y-81741028D01*
X13758925Y-81746982D01*
X13623524Y-81749794D01*
X13445392Y-81750627D01*
X13361658Y-81750667D01*
X13175630Y-81750524D01*
X13033911Y-81749694D01*
X12929908Y-81747572D01*
X12857028Y-81743557D01*
X12808679Y-81737045D01*
X12778268Y-81727433D01*
X12759201Y-81714118D01*
X12744886Y-81696498D01*
X12743201Y-81694102D01*
X12732339Y-81672649D01*
X12723613Y-81639108D01*
X12716800Y-81588299D01*
X12711677Y-81515041D01*
X12708022Y-81414154D01*
X12705612Y-81280457D01*
X12704227Y-81108769D01*
X12703642Y-80893911D01*
X12703581Y-80770807D01*
X12703848Y-80521723D01*
X12705098Y-80318816D01*
X12708006Y-80157362D01*
X12713247Y-80032638D01*
X12721496Y-79939919D01*
X12733427Y-79874483D01*
X12749716Y-79831605D01*
X12771037Y-79806561D01*
X12798066Y-79794628D01*
X12831476Y-79791083D01*
X12843561Y-79790948D01*
X12880387Y-79793143D01*
G37*
G36*
X20667Y183240D02*
G01*
X29032Y150335D01*
X11036Y107799D01*
X-21870Y99433D01*
X-64406Y117429D01*
X-72771Y150335D01*
X-54775Y192871D01*
X-21870Y201237D01*
X20667Y183240D01*
G37*
G36*
X24596008Y-96335163D02*
G01*
X24766178Y-96338416D01*
X24901133Y-96343594D01*
X24995911Y-96350495D01*
X25045551Y-96358921D01*
X25048942Y-96360380D01*
X25088451Y-96406597D01*
X25095395Y-96472164D01*
X25068764Y-96536487D01*
X25058176Y-96548549D01*
X25037437Y-96562369D01*
X25002218Y-96572683D01*
X24945820Y-96579970D01*
X24861544Y-96584708D01*
X24742689Y-96587375D01*
X24582557Y-96588451D01*
X24498256Y-96588543D01*
X23978331Y-96588543D01*
X23978331Y-97173914D01*
X24341706Y-97173914D01*
X24513157Y-97176232D01*
X24639838Y-97184244D01*
X24727713Y-97199539D01*
X24782749Y-97223706D01*
X24810910Y-97258332D01*
X24818210Y-97300793D01*
X24812886Y-97346554D01*
X24792485Y-97380047D01*
X24750362Y-97403119D01*
X24679874Y-97417611D01*
X24574376Y-97425368D01*
X24427225Y-97428233D01*
X24358276Y-97428423D01*
X23978331Y-97428423D01*
X23978331Y-97818967D01*
X23977728Y-97970414D01*
X23975327Y-98079225D01*
X23970239Y-98153657D01*
X23961577Y-98201966D01*
X23948452Y-98232409D01*
X23931788Y-98251632D01*
X23859026Y-98289629D01*
X23785350Y-98280773D01*
X23740492Y-98247210D01*
X23729196Y-98230317D01*
X23720093Y-98203767D01*
X23712952Y-98162420D01*
X23707541Y-98101136D01*
X23703631Y-98014774D01*
X23700989Y-97898195D01*
X23699386Y-97746258D01*
X23698590Y-97553824D01*
X23698371Y-97315751D01*
X23698371Y-97309471D01*
X23698518Y-97072035D01*
X23699132Y-96880316D01*
X23700471Y-96729129D01*
X23702794Y-96613290D01*
X23706359Y-96527615D01*
X23711425Y-96466918D01*
X23718251Y-96426017D01*
X23727094Y-96399725D01*
X23738214Y-96382860D01*
X23744914Y-96376155D01*
X23765294Y-96362643D01*
X23796991Y-96352316D01*
X23846364Y-96344763D01*
X23919771Y-96339571D01*
X24023572Y-96336330D01*
X24164126Y-96334627D01*
X24347791Y-96334050D01*
X24395585Y-96334034D01*
X24596008Y-96335163D01*
G37*
G36*
X6660094Y-96872644D02*
G01*
X6768856Y-96688964D01*
X6917415Y-96534575D01*
X7103631Y-96412972D01*
X7129834Y-96400068D01*
X7209716Y-96364019D01*
X7277076Y-96341005D01*
X7347767Y-96328138D01*
X7437638Y-96322535D01*
X7562499Y-96321308D01*
X7687159Y-96322510D01*
X7776940Y-96328085D01*
X7847849Y-96340986D01*
X7915889Y-96364167D01*
X7997064Y-96400581D01*
X8000273Y-96402100D01*
X8191797Y-96518985D01*
X8347453Y-96669979D01*
X8463650Y-96851574D01*
X8466442Y-96857361D01*
X8506568Y-96953027D01*
X8531425Y-97047680D01*
X8545589Y-97161937D01*
X8550182Y-97234628D01*
X8550609Y-97433090D01*
X8527492Y-97599105D01*
X8477587Y-97746903D01*
X8402284Y-97883599D01*
X8264491Y-98052115D01*
X8095094Y-98180795D01*
X7897043Y-98268185D01*
X7727409Y-98304369D01*
X7539888Y-98316316D01*
X7360355Y-98303009D01*
X7301524Y-98291573D01*
X7101273Y-98219593D01*
X6927281Y-98107072D01*
X6783413Y-97959184D01*
X6673539Y-97781101D01*
X6601525Y-97577996D01*
X6571240Y-97355041D01*
X6570518Y-97313894D01*
X6839296Y-97313894D01*
X6844664Y-97449364D01*
X6862777Y-97553202D01*
X6891813Y-97633323D01*
X6993871Y-97803076D01*
X7125754Y-97933310D01*
X7282927Y-98022065D01*
X7460856Y-98067375D01*
X7655004Y-98067280D01*
X7817008Y-98033768D01*
X7924066Y-97985598D01*
X8037946Y-97907374D01*
X8139092Y-97812574D01*
X8140968Y-97810469D01*
X8217043Y-97691655D01*
X8269536Y-97541253D01*
X8296179Y-97373901D01*
X8294700Y-97204237D01*
X8262830Y-97046898D01*
X8260487Y-97039879D01*
X8194360Y-96908501D01*
X8093301Y-96782006D01*
X7972013Y-96676559D01*
X7881605Y-96623298D01*
X7724421Y-96574209D01*
X7550574Y-96559691D01*
X7378678Y-96579598D01*
X7237768Y-96628431D01*
X7077630Y-96733768D01*
X6958111Y-96869623D01*
X6879596Y-97035333D01*
X6842472Y-97230232D01*
X6839296Y-97313894D01*
X6570518Y-97313894D01*
X6593269Y-97082118D01*
X6660094Y-96872644D01*
G37*
G36*
X27207952Y-2167805D02*
G01*
X27266738Y-2194942D01*
X27288613Y-2222962D01*
X27292976Y-2244550D01*
X27289418Y-2278267D01*
X27276208Y-2328690D01*
X27251619Y-2400398D01*
X27213920Y-2497967D01*
X27161384Y-2625976D01*
X27092282Y-2789002D01*
X27004884Y-2991623D01*
X26954647Y-3107228D01*
X26850556Y-3346167D01*
X26764674Y-3542684D01*
X26694996Y-3701072D01*
X26639517Y-3825624D01*
X26596229Y-3920634D01*
X26563129Y-3990396D01*
X26538209Y-4039201D01*
X26519464Y-4071344D01*
X26504888Y-4091118D01*
X26492475Y-4102816D01*
X26488056Y-4105939D01*
X26420359Y-4123919D01*
X26355145Y-4095689D01*
X26340402Y-4080878D01*
X26320123Y-4045885D01*
X26283239Y-3970940D01*
X26232532Y-3862448D01*
X26170786Y-3726818D01*
X26100786Y-3570455D01*
X26025315Y-3399767D01*
X25947156Y-3221161D01*
X25869094Y-3041043D01*
X25793912Y-2865821D01*
X25724394Y-2701902D01*
X25663323Y-2555692D01*
X25613484Y-2433600D01*
X25577660Y-2342030D01*
X25558634Y-2287392D01*
X25556287Y-2276177D01*
X25576625Y-2211514D01*
X25627003Y-2173684D01*
X25691461Y-2167719D01*
X25754043Y-2198654D01*
X25765390Y-2210236D01*
X25784510Y-2244220D01*
X25820131Y-2319209D01*
X25869553Y-2429069D01*
X25930077Y-2567664D01*
X25999005Y-2728857D01*
X26073636Y-2906513D01*
X26106559Y-2985833D01*
X26181495Y-3166036D01*
X26250532Y-3330145D01*
X26311223Y-3472493D01*
X26361121Y-3587413D01*
X26397778Y-3669240D01*
X26418749Y-3712306D01*
X26422500Y-3717546D01*
X26435351Y-3695165D01*
X26465401Y-3631406D01*
X26510187Y-3531845D01*
X26567248Y-3402057D01*
X26634124Y-3247615D01*
X26708352Y-3074096D01*
X26750905Y-2973763D01*
X26828788Y-2790394D01*
X26901207Y-2621431D01*
X26965582Y-2472776D01*
X27019331Y-2350332D01*
X27059874Y-2259999D01*
X27084631Y-2207678D01*
X27090363Y-2197511D01*
X27141404Y-2167665D01*
X27207952Y-2167805D01*
G37*
G36*
X16179520Y-39601384D02*
G01*
X16236487Y-39605308D01*
X16946070Y-39681424D01*
X17646244Y-39806677D01*
X18334692Y-39979794D01*
X19009097Y-40199506D01*
X19667142Y-40464543D01*
X20306510Y-40773635D01*
X20924883Y-41125511D01*
X21519946Y-41518902D01*
X22089379Y-41952537D01*
X22630868Y-42425147D01*
X23142093Y-42935461D01*
X23620739Y-43482208D01*
X23857950Y-43783072D01*
X24195182Y-44256041D01*
X24509809Y-44755874D01*
X24797641Y-45274146D01*
X25054489Y-45802431D01*
X25276165Y-46332305D01*
X25458480Y-46855341D01*
X25557384Y-47201068D01*
X25716363Y-47914855D01*
X25825797Y-48636081D01*
X25886038Y-49362140D01*
X25897442Y-50090427D01*
X25860364Y-50818336D01*
X25775159Y-51543262D01*
X25642179Y-52262599D01*
X25461782Y-52973742D01*
X25234320Y-53674085D01*
X24960149Y-54361023D01*
X24639623Y-55031950D01*
X24441967Y-55396258D01*
X24359470Y-55535783D01*
X24253968Y-55705048D01*
X24132674Y-55893252D01*
X24002802Y-56089595D01*
X23871565Y-56283277D01*
X23746177Y-56463496D01*
X23633851Y-56619453D01*
X23558075Y-56719705D01*
X23118805Y-57246488D01*
X22639130Y-57755238D01*
X22128136Y-58237243D01*
X21594913Y-58683793D01*
X21199975Y-58980145D01*
X21002021Y-59116917D01*
X20833287Y-59222583D01*
X20686048Y-59301054D01*
X20552582Y-59356244D01*
X20425165Y-59392064D01*
X20364303Y-59403461D01*
X20265025Y-59418269D01*
X20189943Y-59425002D01*
X20118911Y-59423620D01*
X20031784Y-59414084D01*
X19951154Y-59402641D01*
X19853301Y-59380405D01*
X19735551Y-59342416D01*
X19622971Y-59296787D01*
X19620293Y-59295550D01*
X19400169Y-59167415D01*
X19214238Y-59006088D01*
X19064570Y-58817339D01*
X18953235Y-58606937D01*
X18882303Y-58380649D01*
X18853843Y-58144245D01*
X18869925Y-57903492D01*
X18932620Y-57664160D01*
X18988256Y-57534134D01*
X19099247Y-57345796D01*
X19237529Y-57182342D01*
X19411672Y-57034886D01*
X19572173Y-56928720D01*
X20140380Y-56557429D01*
X20668859Y-56154366D01*
X21157872Y-55719250D01*
X21607683Y-55251800D01*
X22018553Y-54751738D01*
X22390745Y-54218782D01*
X22724521Y-53652652D01*
X22830973Y-53449264D01*
X23105342Y-52857739D01*
X23330515Y-52260841D01*
X23507131Y-51655582D01*
X23635829Y-51038976D01*
X23717246Y-50408037D01*
X23752021Y-49759776D01*
X23744586Y-49173513D01*
X23692518Y-48537113D01*
X23590994Y-47907107D01*
X23441355Y-47286594D01*
X23244938Y-46678672D01*
X23003083Y-46086440D01*
X22717130Y-45512996D01*
X22388418Y-44961438D01*
X22018286Y-44434865D01*
X21608074Y-43936376D01*
X21369635Y-43679204D01*
X20892478Y-43221441D01*
X20387459Y-42806139D01*
X19855392Y-42433705D01*
X19297094Y-42104546D01*
X18713378Y-41819068D01*
X18105060Y-41577678D01*
X17472955Y-41380782D01*
X16817879Y-41228787D01*
X16279433Y-41140011D01*
X16098518Y-41120997D01*
X15878352Y-41106857D01*
X15630354Y-41097588D01*
X15365940Y-41093182D01*
X15096528Y-41093636D01*
X14833534Y-41098943D01*
X14588376Y-41109098D01*
X14372472Y-41124095D01*
X14217910Y-41140996D01*
X13542620Y-41257449D01*
X12891070Y-41418780D01*
X12263514Y-41624868D01*
X11660208Y-41875592D01*
X11081408Y-42170831D01*
X10527370Y-42510463D01*
X9998350Y-42894367D01*
X9494603Y-43322423D01*
X9374687Y-43434380D01*
X8917877Y-43903278D01*
X8502276Y-44401766D01*
X8128354Y-44928917D01*
X7796582Y-45483801D01*
X7507432Y-46065489D01*
X7261374Y-46673052D01*
X7058881Y-47305561D01*
X6900422Y-47962087D01*
X6806397Y-48499064D01*
X6789229Y-48652291D01*
X6775820Y-48846124D01*
X6766165Y-49070606D01*
X6760264Y-49315785D01*
X6758114Y-49571706D01*
X6759712Y-49828415D01*
X6765057Y-50075957D01*
X6774146Y-50304378D01*
X6786976Y-50503724D01*
X6803546Y-50664040D01*
X6806904Y-50687842D01*
X6906095Y-51256722D01*
X7030293Y-51789805D01*
X7182563Y-52297224D01*
X7365971Y-52789114D01*
X7583582Y-53275606D01*
X7599962Y-53309284D01*
X7915714Y-53900124D01*
X8268036Y-54455561D01*
X8656978Y-54975654D01*
X9082591Y-55460460D01*
X9544925Y-55910036D01*
X10044032Y-56324439D01*
X10579962Y-56703728D01*
X10620757Y-56730190D01*
X10771275Y-56827612D01*
X10884239Y-56902372D01*
X10965028Y-56959149D01*
X11019023Y-57002620D01*
X11051604Y-57037465D01*
X11068154Y-57068361D01*
X11074052Y-57099988D01*
X11074723Y-57124911D01*
X11053546Y-57213667D01*
X10995228Y-57272139D01*
X10911098Y-57292351D01*
X10849561Y-57277758D01*
X10753388Y-57236515D01*
X10628731Y-57172424D01*
X10481743Y-57089287D01*
X10318576Y-56990907D01*
X10145380Y-56881085D01*
X9968310Y-56763623D01*
X9793516Y-56642325D01*
X9627151Y-56520992D01*
X9484042Y-56410377D01*
X8985180Y-55984029D01*
X8527465Y-55534340D01*
X8105942Y-55055654D01*
X7715653Y-54542311D01*
X7351644Y-53988654D01*
X7325976Y-53946522D01*
X6995717Y-53355374D01*
X6709636Y-52746214D01*
X6468111Y-52122099D01*
X6271521Y-51486085D01*
X6120242Y-50841227D01*
X6014654Y-50190583D01*
X5955133Y-49537208D01*
X5942058Y-48884160D01*
X5975807Y-48234493D01*
X6056757Y-47591265D01*
X6185286Y-46957532D01*
X6361772Y-46336349D01*
X6378793Y-46284836D01*
X6616511Y-45652756D01*
X6899638Y-45040413D01*
X7225855Y-44449847D01*
X7592845Y-43883102D01*
X7998289Y-43342219D01*
X8439867Y-42829241D01*
X8915262Y-42346211D01*
X9422155Y-41895170D01*
X9958227Y-41478161D01*
X10521160Y-41097227D01*
X11108635Y-40754409D01*
X11718333Y-40451751D01*
X12347937Y-40191293D01*
X12995127Y-39975080D01*
X13657585Y-39805153D01*
X13759354Y-39783529D01*
X14271037Y-39689293D01*
X14755554Y-39624921D01*
X15226245Y-39589452D01*
X15696454Y-39581927D01*
X16179520Y-39601384D01*
G37*
G36*
X13930756Y-58223285D02*
G01*
X13947280Y-58291390D01*
X13933821Y-58331451D01*
X13919457Y-58345840D01*
X13892515Y-58356851D01*
X13846461Y-58365054D01*
X13774757Y-58371023D01*
X13670867Y-58375329D01*
X13528257Y-58378545D01*
X13368915Y-58380883D01*
X12830836Y-58387752D01*
X12830836Y-58997561D01*
X13208655Y-58997561D01*
X13357419Y-58998202D01*
X13463711Y-59000748D01*
X13535950Y-59006133D01*
X13582556Y-59015288D01*
X13611948Y-59029147D01*
X13628595Y-59044104D01*
X13665695Y-59101787D01*
X13658047Y-59153981D01*
X13619814Y-59201168D01*
X13595476Y-59221279D01*
X13563587Y-59235301D01*
X13515290Y-59244313D01*
X13441730Y-59249392D01*
X13334048Y-59251617D01*
X13201665Y-59252070D01*
X12834419Y-59252070D01*
X12826265Y-59648664D01*
X12822606Y-59800577D01*
X12818152Y-59909678D01*
X12811826Y-59984054D01*
X12802552Y-60031796D01*
X12789253Y-60060992D01*
X12770855Y-60079729D01*
X12768707Y-60081329D01*
X12692501Y-60114816D01*
X12624221Y-60098052D01*
X12592997Y-60070858D01*
X12581659Y-60053901D01*
X12572531Y-60027260D01*
X12565379Y-59985770D01*
X12559969Y-59924271D01*
X12556068Y-59837599D01*
X12553442Y-59720592D01*
X12551857Y-59568088D01*
X12551079Y-59374923D01*
X12550876Y-59140226D01*
X12551655Y-58880433D01*
X12553945Y-58659106D01*
X12557678Y-58478707D01*
X12562784Y-58341697D01*
X12569193Y-58250538D01*
X12576835Y-58207691D01*
X12577222Y-58206910D01*
X12587722Y-58191838D01*
X12605127Y-58180197D01*
X12635488Y-58171546D01*
X12684856Y-58165443D01*
X12759279Y-58161447D01*
X12864808Y-58159117D01*
X13007493Y-58158012D01*
X13193383Y-58157691D01*
X13252217Y-58157681D01*
X13900865Y-58157681D01*
X13930756Y-58223285D01*
G37*
G36*
X38086361Y-72045580D02*
G01*
X38352275Y-72053826D01*
X38597922Y-72069888D01*
X38838042Y-72095225D01*
X39087372Y-72131298D01*
X39360650Y-72179566D01*
X39568547Y-72220273D01*
X40241323Y-72381129D01*
X40898155Y-72588232D01*
X41536834Y-72839654D01*
X42155151Y-73133467D01*
X42750897Y-73467743D01*
X43321863Y-73840552D01*
X43865841Y-74249967D01*
X44380620Y-74694059D01*
X44863992Y-75170899D01*
X45313749Y-75678560D01*
X45727682Y-76215114D01*
X46103580Y-76778631D01*
X46439236Y-77367183D01*
X46732441Y-77978842D01*
X46980985Y-78611679D01*
X47020015Y-78725324D01*
X47201731Y-79345226D01*
X47335480Y-79978438D01*
X47421502Y-80621934D01*
X47460040Y-81272687D01*
X47451333Y-81927669D01*
X47395623Y-82583855D01*
X47293151Y-83238216D01*
X47144159Y-83887727D01*
X46948887Y-84529361D01*
X46707578Y-85160090D01*
X46465207Y-85687876D01*
X46134646Y-86300124D01*
X45767484Y-86878692D01*
X45364735Y-87422405D01*
X44927413Y-87930088D01*
X44456530Y-88400564D01*
X43953100Y-88832660D01*
X43418138Y-89225200D01*
X43410094Y-89230635D01*
X43207308Y-89364341D01*
X43019468Y-89482016D01*
X42851338Y-89581013D01*
X42707681Y-89658683D01*
X42593260Y-89712379D01*
X42512838Y-89739453D01*
X42489823Y-89742250D01*
X42404945Y-89720418D01*
X42348654Y-89660233D01*
X42328431Y-89570389D01*
X42329439Y-89540309D01*
X42335774Y-89513555D01*
X42352398Y-89485965D01*
X42384277Y-89453376D01*
X42436372Y-89411626D01*
X42513650Y-89356552D01*
X42621072Y-89283993D01*
X42763603Y-89189785D01*
X42850174Y-89132875D01*
X43183842Y-88904050D01*
X43485781Y-88675147D01*
X43772789Y-88432501D01*
X44061661Y-88162445D01*
X44149467Y-88075768D01*
X44603523Y-87588377D01*
X45012881Y-87076928D01*
X45377696Y-86541109D01*
X45698127Y-85980605D01*
X45974330Y-85395104D01*
X46206463Y-84784293D01*
X46394682Y-84147858D01*
X46539145Y-83485486D01*
X46582616Y-83226820D01*
X46599276Y-83113599D01*
X46612430Y-83008138D01*
X46622492Y-82902136D01*
X46629875Y-82787295D01*
X46634993Y-82655314D01*
X46638259Y-82497894D01*
X46640086Y-82306734D01*
X46640888Y-82073536D01*
X46640915Y-82056078D01*
X46640526Y-81791386D01*
X46637915Y-81567598D01*
X46632204Y-81374734D01*
X46622512Y-81202814D01*
X46607958Y-81041859D01*
X46587664Y-80881888D01*
X46560750Y-80712921D01*
X46526334Y-80524979D01*
X46489336Y-80336918D01*
X46356938Y-79787015D01*
X46181107Y-79232995D01*
X45965990Y-78684143D01*
X45715735Y-78149746D01*
X45434490Y-77639091D01*
X45126403Y-77161463D01*
X44982232Y-76962597D01*
X44559947Y-76442397D01*
X44106245Y-75961921D01*
X43622479Y-75521941D01*
X43110000Y-75123231D01*
X42570163Y-74766563D01*
X42004320Y-74452712D01*
X41413824Y-74182449D01*
X40800028Y-73956549D01*
X40164284Y-73775785D01*
X39507946Y-73640929D01*
X39057990Y-73576720D01*
X38915970Y-73564239D01*
X38734183Y-73554802D01*
X38523673Y-73548408D01*
X38295484Y-73545057D01*
X38060659Y-73544750D01*
X37830243Y-73547487D01*
X37615279Y-73553267D01*
X37426811Y-73562091D01*
X37275882Y-73573958D01*
X37250976Y-73576720D01*
X36590643Y-73677443D01*
X35956512Y-73820843D01*
X35345514Y-74007953D01*
X34754580Y-74239804D01*
X34180641Y-74517431D01*
X33776928Y-74745811D01*
X33226387Y-75105799D01*
X32708394Y-75504074D01*
X32224629Y-75938634D01*
X31776772Y-76407476D01*
X31366505Y-76908596D01*
X30995506Y-77439993D01*
X30665457Y-77999661D01*
X30378039Y-78585600D01*
X30206292Y-79001970D01*
X30004632Y-79589661D01*
X29849078Y-80178363D01*
X29738677Y-80774094D01*
X29672479Y-81382875D01*
X29649530Y-82010724D01*
X29658626Y-82463292D01*
X29710611Y-83098744D01*
X29812497Y-83730468D01*
X29963284Y-84354621D01*
X30161971Y-84967359D01*
X30407558Y-85564838D01*
X30535685Y-85832863D01*
X30804620Y-86334287D01*
X31092535Y-86797377D01*
X31407469Y-87233321D01*
X31757464Y-87653306D01*
X32121913Y-88039818D01*
X32399078Y-88309532D01*
X32666799Y-88549955D01*
X32937536Y-88770943D01*
X33223749Y-88982352D01*
X33537898Y-89194037D01*
X33754908Y-89331445D01*
X33999096Y-89499444D01*
X34194928Y-89671972D01*
X34344946Y-89852919D01*
X34451692Y-90046175D01*
X34517707Y-90255631D01*
X34545532Y-90485175D01*
X34546809Y-90543419D01*
X34524052Y-90793359D01*
X34456355Y-91029323D01*
X34348107Y-91246151D01*
X34203694Y-91438680D01*
X34027502Y-91601748D01*
X33823918Y-91730195D01*
X33597329Y-91818857D01*
X33433341Y-91853647D01*
X33322153Y-91868464D01*
X33240562Y-91874878D01*
X33167951Y-91872820D01*
X33083703Y-91862218D01*
X33022084Y-91852243D01*
X32897237Y-91824667D01*
X32774580Y-91781944D01*
X32644349Y-91719341D01*
X32496779Y-91632124D01*
X32322106Y-91515557D01*
X32309228Y-91506605D01*
X31936439Y-91232640D01*
X31555091Y-90925691D01*
X31176804Y-90596208D01*
X30813198Y-90254639D01*
X30475893Y-89911434D01*
X30219830Y-89627721D01*
X29755012Y-89050382D01*
X29329284Y-88442541D01*
X28944229Y-87807562D01*
X28601429Y-87148806D01*
X28302469Y-86469636D01*
X28048933Y-85773413D01*
X27842402Y-85063501D01*
X27684462Y-84343261D01*
X27656606Y-84185024D01*
X27601845Y-83831548D01*
X27561045Y-83499117D01*
X27532867Y-83171097D01*
X27515970Y-82830857D01*
X27509015Y-82461764D01*
X27508666Y-82348763D01*
X27529984Y-81628976D01*
X27594637Y-80934284D01*
X27703513Y-80261692D01*
X27857499Y-79608203D01*
X28057484Y-78970822D01*
X28304354Y-78346552D01*
X28598997Y-77732397D01*
X28942300Y-77125362D01*
X29155921Y-76787741D01*
X29570609Y-76202330D01*
X30025754Y-75645955D01*
X30518483Y-75120948D01*
X31045919Y-74629639D01*
X31605189Y-74174358D01*
X32193416Y-73757434D01*
X32807728Y-73381199D01*
X33445248Y-73047982D01*
X34103101Y-72760112D01*
X34145966Y-72743234D01*
X34760885Y-72521760D01*
X35363083Y-72344556D01*
X35961608Y-72209884D01*
X36565511Y-72116003D01*
X37183844Y-72061175D01*
X37785445Y-72043691D01*
X38086361Y-72045580D01*
G37*
G36*
X36768915Y-68679282D02*
G01*
X36931106Y-68721075D01*
X37073538Y-68796839D01*
X37132147Y-68845837D01*
X37232223Y-68956672D01*
X37287761Y-69051142D01*
X37297894Y-69127553D01*
X37289029Y-69152701D01*
X37241046Y-69198936D01*
X37175669Y-69203619D01*
X37102211Y-69168526D01*
X37037035Y-69104589D01*
X36938800Y-69007244D01*
X36824297Y-68949026D01*
X36681998Y-68924815D01*
X36629128Y-68923413D01*
X36473052Y-68938380D01*
X36351335Y-68980921D01*
X36267194Y-69047490D01*
X36223843Y-69134545D01*
X36224499Y-69238541D01*
X36258822Y-69331460D01*
X36298086Y-69388021D01*
X36355387Y-69432125D01*
X36439430Y-69467705D01*
X36558916Y-69498689D01*
X36680513Y-69521882D01*
X36892115Y-69572152D01*
X37058838Y-69642753D01*
X37183263Y-69735623D01*
X37267972Y-69852698D01*
X37315549Y-69995917D01*
X37316089Y-69998787D01*
X37322180Y-70161668D01*
X37281278Y-70313576D01*
X37197133Y-70447556D01*
X37073495Y-70556654D01*
X36990052Y-70603515D01*
X36878806Y-70639870D01*
X36738457Y-70663330D01*
X36589558Y-70672187D01*
X36452662Y-70664727D01*
X36391181Y-70653368D01*
X36233752Y-70594773D01*
X36091903Y-70506466D01*
X35978772Y-70397905D01*
X35925358Y-70318113D01*
X35895478Y-70250420D01*
X35895506Y-70205118D01*
X35925923Y-70163061D01*
X35929347Y-70159599D01*
X35987557Y-70124289D01*
X36052076Y-70132694D01*
X36127785Y-70186271D01*
X36173001Y-70232251D01*
X36248269Y-70302718D01*
X36330363Y-70361544D01*
X36375636Y-70384957D01*
X36482297Y-70412241D01*
X36611299Y-70423393D01*
X36740675Y-70418187D01*
X36848454Y-70396403D01*
X36865757Y-70389924D01*
X36969990Y-70322301D01*
X37035459Y-70228507D01*
X37058874Y-70118577D01*
X37036948Y-70002544D01*
X37010223Y-69949047D01*
X36954550Y-69880181D01*
X36877104Y-69827719D01*
X36768465Y-69787070D01*
X36619216Y-69753641D01*
X36603911Y-69750907D01*
X36432695Y-69714322D01*
X36300757Y-69669856D01*
X36196568Y-69612743D01*
X36122602Y-69552033D01*
X36035061Y-69453076D01*
X35985954Y-69353195D01*
X35966858Y-69232574D01*
X35965705Y-69182949D01*
X35972588Y-69074296D01*
X35996755Y-68993581D01*
X36023576Y-68946870D01*
X36129416Y-68832954D01*
X36267214Y-68748294D01*
X36426625Y-68693834D01*
X36597306Y-68670516D01*
X36768915Y-68679282D01*
G37*
G36*
X14667290Y-112830028D02*
G01*
X14699870Y-112845156D01*
X14724368Y-112877157D01*
X14741911Y-112931581D01*
X14753627Y-113013980D01*
X14760644Y-113129907D01*
X14764091Y-113284913D01*
X14765094Y-113484550D01*
X14765104Y-113513393D01*
X14764586Y-113705364D01*
X14762761Y-113852923D01*
X14759220Y-113962549D01*
X14753558Y-114040722D01*
X14745366Y-114093924D01*
X14734239Y-114128636D01*
X14725485Y-114144002D01*
X14666911Y-114191618D01*
X14598342Y-114194557D01*
X14533119Y-114153379D01*
X14518200Y-114135302D01*
X14470657Y-114070036D01*
X14357009Y-114134995D01*
X14212110Y-114189893D01*
X14050480Y-114203478D01*
X13884984Y-114175845D01*
X13770844Y-114130577D01*
X13664740Y-114064359D01*
X13586919Y-113981593D01*
X13556310Y-113935425D01*
X13529044Y-113889650D01*
X13509035Y-113848957D01*
X13494985Y-113804484D01*
X13485598Y-113747367D01*
X13479577Y-113668743D01*
X13475625Y-113559749D01*
X13472444Y-113411523D01*
X13471392Y-113355167D01*
X13469212Y-113172582D01*
X13470496Y-113036277D01*
X13475449Y-112941736D01*
X13484273Y-112884441D01*
X13493596Y-112863145D01*
X13544250Y-112834339D01*
X13612985Y-112827754D01*
X13673785Y-112844065D01*
X13690802Y-112858032D01*
X13700490Y-112893915D01*
X13709570Y-112972369D01*
X13717405Y-113085066D01*
X13723358Y-113223674D01*
X13725732Y-113314351D01*
X13729506Y-113473493D01*
X13734098Y-113590229D01*
X13740556Y-113673056D01*
X13749932Y-113730471D01*
X13763274Y-113770969D01*
X13781632Y-113803046D01*
X13787054Y-113810644D01*
X13880478Y-113899066D01*
X13996996Y-113952143D01*
X14124393Y-113969485D01*
X14250453Y-113950701D01*
X14362962Y-113895403D01*
X14429969Y-113831181D01*
X14450317Y-113802202D01*
X14464950Y-113769438D01*
X14474802Y-113724455D01*
X14480808Y-113658815D01*
X14483906Y-113564085D01*
X14485029Y-113431829D01*
X14485144Y-113333622D01*
X14486193Y-113160277D01*
X14490534Y-113031338D01*
X14499956Y-112940335D01*
X14516251Y-112880794D01*
X14541208Y-112846242D01*
X14576618Y-112830209D01*
X14624271Y-112826220D01*
X14625499Y-112826218D01*
X14667290Y-112830028D01*
G37*
G36*
X37664411Y-69734981D02*
G01*
X37741016Y-69580982D01*
X37855345Y-69448978D01*
X38005653Y-69346644D01*
X38014613Y-69342184D01*
X38094395Y-69306658D01*
X38164052Y-69287370D01*
X38243868Y-69280796D01*
X38353179Y-69283368D01*
X38466667Y-69291655D01*
X38549296Y-69307720D01*
X38621051Y-69336862D01*
X38678224Y-69369545D01*
X38809722Y-69478006D01*
X38914991Y-69619532D01*
X38983123Y-69778645D01*
X38992165Y-69815033D01*
X39000344Y-69878902D01*
X39007526Y-69984638D01*
X39013364Y-70123208D01*
X39017510Y-70285580D01*
X39019619Y-70462723D01*
X39019814Y-70535135D01*
X39019095Y-70743551D01*
X39016210Y-70906573D01*
X39010067Y-71029698D01*
X38999573Y-71118420D01*
X38983636Y-71178238D01*
X38961164Y-71214646D01*
X38931063Y-71233141D01*
X38892243Y-71239219D01*
X38879834Y-71239445D01*
X38818800Y-71219176D01*
X38779473Y-71182880D01*
X38761998Y-71145958D01*
X38750217Y-71088319D01*
X38743243Y-71001343D01*
X38740188Y-70876412D01*
X38739854Y-70798012D01*
X38739854Y-70469709D01*
X38682589Y-70511742D01*
X38527234Y-70599024D01*
X38362185Y-70644823D01*
X38196218Y-70650047D01*
X38038109Y-70615602D01*
X37896633Y-70542396D01*
X37780568Y-70431336D01*
X37770138Y-70417413D01*
X37678394Y-70252191D01*
X37631354Y-70078262D01*
X37628442Y-69953370D01*
X37883314Y-69953370D01*
X37895065Y-70086459D01*
X37934282Y-70201531D01*
X37950146Y-70227853D01*
X38046048Y-70329264D01*
X38164804Y-70396428D01*
X38294756Y-70426584D01*
X38424251Y-70416971D01*
X38538240Y-70367146D01*
X38650235Y-70264197D01*
X38723090Y-70138570D01*
X38755283Y-70000127D01*
X38745291Y-69858733D01*
X38691593Y-69724253D01*
X38647075Y-69661732D01*
X38542206Y-69567305D01*
X38420601Y-69518467D01*
X38318280Y-69508783D01*
X38178784Y-69531839D01*
X38053068Y-69595841D01*
X37955470Y-69693040D01*
X37943256Y-69711421D01*
X37899290Y-69821834D01*
X37883314Y-69953370D01*
X37628442Y-69953370D01*
X37627275Y-69903300D01*
X37664411Y-69734981D01*
G37*
G36*
X37396799Y-26295408D02*
G01*
X37428541Y-26305932D01*
X37452398Y-26330356D01*
X37469492Y-26374314D01*
X37480942Y-26443440D01*
X37487870Y-26543366D01*
X37491396Y-26679726D01*
X37492641Y-26858154D01*
X37492760Y-26980327D01*
X37492343Y-27175981D01*
X37490838Y-27326909D01*
X37487865Y-27439280D01*
X37483042Y-27519264D01*
X37475987Y-27573031D01*
X37466319Y-27606751D01*
X37453657Y-27626594D01*
X37452765Y-27627507D01*
X37390323Y-27661403D01*
X37318863Y-27662870D01*
X37268792Y-27636960D01*
X37258326Y-27609690D01*
X37250247Y-27548837D01*
X37244382Y-27450690D01*
X37240558Y-27311535D01*
X37238602Y-27127661D01*
X37238251Y-26980327D01*
X37238594Y-26775598D01*
X37240267Y-26616129D01*
X37244238Y-26496277D01*
X37251475Y-26410403D01*
X37262942Y-26352864D01*
X37279609Y-26318020D01*
X37302442Y-26300230D01*
X37332408Y-26293851D01*
X37356052Y-26293152D01*
X37396799Y-26295408D01*
G37*
G36*
X38400236Y-47653184D02*
G01*
X38544659Y-47707701D01*
X38664652Y-47793978D01*
X38705351Y-47839894D01*
X38752597Y-47908151D01*
X38787517Y-47977438D01*
X38811918Y-48056971D01*
X38827607Y-48155965D01*
X38836393Y-48283636D01*
X38840083Y-48449199D01*
X38840540Y-48529060D01*
X38840201Y-48688371D01*
X38837750Y-48804398D01*
X38832536Y-48884739D01*
X38823903Y-48936989D01*
X38811198Y-48968747D01*
X38801663Y-48980813D01*
X38738230Y-49017458D01*
X38663363Y-49007194D01*
X38636377Y-48994461D01*
X38617186Y-48980438D01*
X38603722Y-48956886D01*
X38594980Y-48915630D01*
X38589952Y-48848497D01*
X38587631Y-48747312D01*
X38587012Y-48603902D01*
X38587006Y-48593609D01*
X38585139Y-48411873D01*
X38578585Y-48272702D01*
X38565679Y-48167852D01*
X38544757Y-48089077D01*
X38514154Y-48028131D01*
X38472206Y-47976769D01*
X38460081Y-47964774D01*
X38368048Y-47906610D01*
X38254662Y-47878374D01*
X38133461Y-47878583D01*
X38017983Y-47905756D01*
X37921763Y-47958411D01*
X37860677Y-48030390D01*
X37845266Y-48074924D01*
X37834424Y-48144118D01*
X37827596Y-48245098D01*
X37824224Y-48384988D01*
X37823621Y-48504863D01*
X37821900Y-48681835D01*
X37815629Y-48814119D01*
X37803143Y-48907846D01*
X37782779Y-48969150D01*
X37752874Y-49004161D01*
X37711764Y-49019011D01*
X37683641Y-49020807D01*
X37622608Y-49000539D01*
X37583281Y-48964243D01*
X37570082Y-48937893D01*
X37560078Y-48897158D01*
X37552861Y-48835557D01*
X37548023Y-48746610D01*
X37545159Y-48623836D01*
X37543859Y-48460754D01*
X37543661Y-48333633D01*
X37544179Y-48141661D01*
X37546005Y-47994103D01*
X37549545Y-47884477D01*
X37555208Y-47806304D01*
X37563399Y-47753101D01*
X37574527Y-47718390D01*
X37583281Y-47703024D01*
X37642153Y-47655492D01*
X37710780Y-47651337D01*
X37772886Y-47690194D01*
X37786141Y-47707577D01*
X37826188Y-47768696D01*
X37944475Y-47702584D01*
X38087736Y-47648386D01*
X38243792Y-47632666D01*
X38400236Y-47653184D01*
G37*
G36*
X25406447Y-96938725D02*
G01*
X25454411Y-96826615D01*
X25562469Y-96659434D01*
X25705843Y-96516252D01*
X25872414Y-96408345D01*
X25932918Y-96381404D01*
X26082480Y-96340990D01*
X26259033Y-96321906D01*
X26443355Y-96324140D01*
X26616224Y-96347683D01*
X26733306Y-96381833D01*
X26888495Y-96465210D01*
X27034661Y-96584143D01*
X27156351Y-96724423D01*
X27219022Y-96828379D01*
X27297996Y-97041162D01*
X27331739Y-97257412D01*
X27322287Y-97470547D01*
X27271674Y-97673991D01*
X27181933Y-97861163D01*
X27055101Y-98025484D01*
X26893211Y-98160375D01*
X26788543Y-98220340D01*
X26698362Y-98261240D01*
X26618194Y-98286766D01*
X26528683Y-98301265D01*
X26410475Y-98309084D01*
X26389684Y-98309926D01*
X26241398Y-98310370D01*
X26114267Y-98300602D01*
X26038056Y-98286016D01*
X25842632Y-98205941D01*
X25675521Y-98088213D01*
X25539205Y-97939039D01*
X25436168Y-97764626D01*
X25368891Y-97571181D01*
X25339857Y-97364911D01*
X25342659Y-97313894D01*
X25607188Y-97313894D01*
X25609843Y-97428558D01*
X25620822Y-97513616D01*
X25644652Y-97590221D01*
X25685060Y-97677931D01*
X25791058Y-97840193D01*
X25925409Y-97960956D01*
X26086320Y-98038847D01*
X26189293Y-98063546D01*
X26391825Y-98072420D01*
X26585780Y-98031228D01*
X26669108Y-97997083D01*
X26820290Y-97898733D01*
X26938650Y-97764680D01*
X27020771Y-97600771D01*
X27063233Y-97412854D01*
X27068527Y-97313894D01*
X27046281Y-97112514D01*
X26981175Y-96933696D01*
X26875650Y-96781966D01*
X26732151Y-96661852D01*
X26709039Y-96647740D01*
X26627392Y-96607604D01*
X26539090Y-96583417D01*
X26424205Y-96570137D01*
X26394978Y-96568270D01*
X26189668Y-96574948D01*
X26015362Y-96621403D01*
X25869900Y-96708797D01*
X25751124Y-96838288D01*
X25685060Y-96949856D01*
X25644160Y-97038801D01*
X25620565Y-97115376D01*
X25609749Y-97200732D01*
X25607188Y-97313894D01*
X25342659Y-97313894D01*
X25351548Y-97152023D01*
X25406447Y-96938725D01*
G37*
G36*
X38543358Y-93704006D02*
G01*
X39216132Y-93787617D01*
X39376126Y-93815075D01*
X40047989Y-93961939D01*
X40707477Y-94156396D01*
X41351887Y-94396488D01*
X41978514Y-94680258D01*
X42584653Y-95005749D01*
X43167599Y-95371004D01*
X43724648Y-95774066D01*
X44253095Y-96212977D01*
X44750235Y-96685781D01*
X45213363Y-97190520D01*
X45639774Y-97725238D01*
X46026765Y-98287977D01*
X46371630Y-98876779D01*
X46371774Y-98877049D01*
X46662566Y-99458667D01*
X46905494Y-100033512D01*
X47102031Y-100607337D01*
X47253650Y-101185893D01*
X47361823Y-101774932D01*
X47428024Y-102380207D01*
X47453726Y-103007469D01*
X47454179Y-103103974D01*
X47452098Y-103392469D01*
X47444969Y-103644884D01*
X47431606Y-103875895D01*
X47410819Y-104100177D01*
X47381421Y-104332405D01*
X47342222Y-104587256D01*
X47326406Y-104681930D01*
X47189088Y-105344695D01*
X47005176Y-105994554D01*
X46776466Y-106628533D01*
X46504757Y-107243658D01*
X46191847Y-107836953D01*
X45839533Y-108405445D01*
X45449615Y-108946159D01*
X45023889Y-109456122D01*
X44564155Y-109932358D01*
X44072209Y-110371893D01*
X43719436Y-110648866D01*
X43532088Y-110784349D01*
X43343190Y-110913899D01*
X43158547Y-111034088D01*
X42983966Y-111141486D01*
X42825253Y-111232663D01*
X42688214Y-111304190D01*
X42578655Y-111352638D01*
X42502380Y-111374576D01*
X42489272Y-111375517D01*
X42404726Y-111353549D01*
X42348371Y-111293425D01*
X42328431Y-111206156D01*
X42334141Y-111159470D01*
X42355585Y-111116210D01*
X42399232Y-111070227D01*
X42471554Y-111015373D01*
X42579021Y-110945500D01*
X42646567Y-110903856D01*
X43098683Y-110604893D01*
X43535687Y-110268209D01*
X43964194Y-109888523D01*
X44173963Y-109684279D01*
X44625577Y-109197107D01*
X45032424Y-108685755D01*
X45394691Y-108149918D01*
X45712564Y-107589296D01*
X45986229Y-107003584D01*
X46215874Y-106392479D01*
X46231757Y-106344301D01*
X46385673Y-105826046D01*
X46502757Y-105322372D01*
X46585168Y-104819593D01*
X46635064Y-104304024D01*
X46654603Y-103761977D01*
X46655063Y-103660228D01*
X46641619Y-103140546D01*
X46599923Y-102648041D01*
X46527999Y-102166294D01*
X46423869Y-101678886D01*
X46409547Y-101620959D01*
X46227325Y-100995605D01*
X46000416Y-100391589D01*
X45730801Y-99810813D01*
X45420464Y-99255178D01*
X45071386Y-98726584D01*
X44685552Y-98226934D01*
X44264942Y-97758128D01*
X43811540Y-97322068D01*
X43327329Y-96920655D01*
X42814291Y-96555790D01*
X42274408Y-96229375D01*
X41709665Y-95943310D01*
X41122042Y-95699498D01*
X40513524Y-95499838D01*
X39886091Y-95346234D01*
X39860853Y-95341120D01*
X39601818Y-95291213D01*
X39371243Y-95252285D01*
X39156186Y-95223107D01*
X38943705Y-95202453D01*
X38720857Y-95189095D01*
X38474699Y-95181806D01*
X38192289Y-95179359D01*
X38154483Y-95179333D01*
X37869519Y-95181217D01*
X37622373Y-95187661D01*
X37400074Y-95199849D01*
X37189651Y-95218964D01*
X36978133Y-95246192D01*
X36752548Y-95282717D01*
X36499925Y-95329723D01*
X36493251Y-95331024D01*
X35868056Y-95478546D01*
X35258494Y-95673303D01*
X34667126Y-95913364D01*
X34096508Y-96196795D01*
X33549201Y-96521667D01*
X33027763Y-96886047D01*
X32534753Y-97288003D01*
X32072731Y-97725603D01*
X31644254Y-98196917D01*
X31251883Y-98700011D01*
X30898176Y-99232956D01*
X30588383Y-99788512D01*
X30312659Y-100379248D01*
X30086098Y-100970265D01*
X29907765Y-101565895D01*
X29776723Y-102170476D01*
X29692038Y-102788339D01*
X29652773Y-103423822D01*
X29657994Y-104081258D01*
X29658626Y-104096559D01*
X29710525Y-104733934D01*
X29811376Y-105362263D01*
X29959643Y-105978974D01*
X30153789Y-106581498D01*
X30392280Y-107167265D01*
X30673578Y-107733705D01*
X30996147Y-108278247D01*
X31358452Y-108798321D01*
X31758956Y-109291358D01*
X32196124Y-109754787D01*
X32668418Y-110186038D01*
X33174304Y-110582540D01*
X33712244Y-110941725D01*
X33771257Y-110977611D01*
X34015455Y-111144048D01*
X34211195Y-111321115D01*
X34360339Y-111511765D01*
X34464748Y-111718948D01*
X34526283Y-111945614D01*
X34546805Y-112194714D01*
X34546792Y-112207063D01*
X34521237Y-112453257D01*
X34449827Y-112686107D01*
X34336975Y-112900257D01*
X34187098Y-113090352D01*
X34004610Y-113251035D01*
X33793925Y-113376952D01*
X33559460Y-113462746D01*
X33500073Y-113476785D01*
X33335911Y-113503871D01*
X33190235Y-113507774D01*
X33036178Y-113488426D01*
X32972031Y-113475438D01*
X32859461Y-113446140D01*
X32750362Y-113406168D01*
X32636287Y-113350983D01*
X32508789Y-113276048D01*
X32359422Y-113176824D01*
X32184862Y-113052504D01*
X31866064Y-112814509D01*
X31576579Y-112584650D01*
X31303571Y-112351770D01*
X31034204Y-112104713D01*
X30755641Y-111832324D01*
X30606745Y-111680928D01*
X30129441Y-111154331D01*
X29685611Y-110591722D01*
X29277272Y-109997109D01*
X28906439Y-109374499D01*
X28575131Y-108727897D01*
X28285363Y-108061311D01*
X28039152Y-107378747D01*
X27838515Y-106684213D01*
X27685469Y-105981715D01*
X27657547Y-105821453D01*
X27604604Y-105479780D01*
X27564740Y-105165268D01*
X27536603Y-104861214D01*
X27518840Y-104550920D01*
X27510100Y-104217685D01*
X27508617Y-103982030D01*
X27530198Y-103261065D01*
X27595502Y-102564662D01*
X27705371Y-101889957D01*
X27860650Y-101234085D01*
X28062180Y-100594180D01*
X28310805Y-99967377D01*
X28607367Y-99350812D01*
X28952708Y-98741619D01*
X29135463Y-98451881D01*
X29549114Y-97863134D01*
X30002319Y-97304842D01*
X30492489Y-96778906D01*
X31017037Y-96287231D01*
X31573376Y-95831718D01*
X32158918Y-95414271D01*
X32771076Y-95036792D01*
X33407262Y-94701185D01*
X34064890Y-94409352D01*
X34741371Y-94163195D01*
X35125826Y-94046473D01*
X35815750Y-93876616D01*
X36502687Y-93757429D01*
X37186414Y-93688924D01*
X37866712Y-93671112D01*
X38543358Y-93704006D01*
G37*
G36*
X37451526Y-25762400D02*
G01*
X37501282Y-25820117D01*
X37518210Y-25896162D01*
X37497509Y-25981346D01*
X37444230Y-26039263D01*
X37371612Y-26064378D01*
X37292894Y-26051158D01*
X37238251Y-26013192D01*
X37194037Y-25944362D01*
X37198268Y-25870867D01*
X37240098Y-25800292D01*
X37307332Y-25747798D01*
X37382342Y-25736731D01*
X37451526Y-25762400D01*
G37*
G36*
X39232835Y-48072481D02*
G01*
X39246083Y-48039284D01*
X39343989Y-47879678D01*
X39473727Y-47759187D01*
X39632726Y-47679407D01*
X39818419Y-47641935D01*
X39889962Y-47639110D01*
X40074850Y-47661472D01*
X40239561Y-47725995D01*
X40377752Y-47828374D01*
X40483078Y-47964302D01*
X40533432Y-48075870D01*
X40550238Y-48143248D01*
X40561905Y-48235633D01*
X40568997Y-48360657D01*
X40572081Y-48525951D01*
X40572319Y-48600868D01*
X40570180Y-48793203D01*
X40562498Y-48943739D01*
X40547371Y-49061445D01*
X40522900Y-49155295D01*
X40487185Y-49234258D01*
X40438325Y-49307306D01*
X40417029Y-49334032D01*
X40294965Y-49452201D01*
X40154719Y-49528184D01*
X39987370Y-49566192D01*
X39913568Y-49571603D01*
X39807109Y-49572076D01*
X39710111Y-49566223D01*
X39642618Y-49555299D01*
X39639918Y-49554501D01*
X39551542Y-49516288D01*
X39454108Y-49457664D01*
X39363628Y-49389994D01*
X39296113Y-49324638D01*
X39275840Y-49296144D01*
X39252360Y-49243944D01*
X39259872Y-49207057D01*
X39285474Y-49175252D01*
X39341855Y-49132185D01*
X39401966Y-49130488D01*
X39474243Y-49171374D01*
X39518170Y-49208703D01*
X39646180Y-49297468D01*
X39781557Y-49342727D01*
X39916608Y-49347571D01*
X40043637Y-49315090D01*
X40154950Y-49248373D01*
X40242851Y-49150511D01*
X40299646Y-49024594D01*
X40317810Y-48887597D01*
X40317810Y-48762393D01*
X40253588Y-48838716D01*
X40141038Y-48934630D01*
X39998057Y-48996947D01*
X39836292Y-49020715D01*
X39825390Y-49020807D01*
X39647744Y-48998243D01*
X39494409Y-48931125D01*
X39366706Y-48820313D01*
X39265957Y-48666669D01*
X39258729Y-48651769D01*
X39216138Y-48519447D01*
X39197348Y-48365415D01*
X39198544Y-48331118D01*
X39465204Y-48331118D01*
X39467249Y-48436510D01*
X39475995Y-48507544D01*
X39495357Y-48560688D01*
X39529253Y-48612411D01*
X39533403Y-48617891D01*
X39639189Y-48717636D01*
X39766938Y-48776035D01*
X39906136Y-48790941D01*
X40046275Y-48760206D01*
X40101477Y-48733961D01*
X40204515Y-48649625D01*
X40274067Y-48537744D01*
X40310297Y-48408892D01*
X40313371Y-48273645D01*
X40283452Y-48142579D01*
X40220706Y-48026268D01*
X40125297Y-47935288D01*
X40088700Y-47913667D01*
X39984944Y-47881724D01*
X39862789Y-47875534D01*
X39744033Y-47894135D01*
X39655827Y-47932781D01*
X39564291Y-48004925D01*
X39506658Y-48080164D01*
X39476028Y-48172912D01*
X39465506Y-48297583D01*
X39465204Y-48331118D01*
X39198544Y-48331118D01*
X39202776Y-48209739D01*
X39232835Y-48072481D01*
G37*
G36*
X12530659Y-112241981D02*
G01*
X12637436Y-112245323D01*
X12715681Y-112252508D01*
X12776575Y-112264923D01*
X12831298Y-112283954D01*
X12870816Y-112301440D01*
X13013511Y-112393479D01*
X13121392Y-112515189D01*
X13193351Y-112658099D01*
X13228281Y-112813739D01*
X13225076Y-112973636D01*
X13182626Y-113129320D01*
X13099825Y-113272320D01*
X13010063Y-113366592D01*
X12923498Y-113430183D01*
X12830729Y-113473358D01*
X12719696Y-113499366D01*
X12578340Y-113511457D01*
X12465208Y-113513393D01*
X12220014Y-113513393D01*
X12220014Y-113814859D01*
X12219024Y-113946800D01*
X12215184Y-114037494D01*
X12207190Y-114096571D01*
X12193737Y-114133663D01*
X12173521Y-114158401D01*
X12173471Y-114158446D01*
X12106504Y-114196238D01*
X12035056Y-114185919D01*
X12010044Y-114173078D01*
X11998363Y-114163155D01*
X11988912Y-114145063D01*
X11981457Y-114113823D01*
X11975764Y-114064457D01*
X11971600Y-113991986D01*
X11968730Y-113891431D01*
X11966921Y-113757812D01*
X11965939Y-113586152D01*
X11965551Y-113371470D01*
X11965524Y-113284335D01*
X12220014Y-113284335D01*
X12391808Y-113283712D01*
X12502156Y-113279231D01*
X12611270Y-113268266D01*
X12678130Y-113256783D01*
X12805820Y-113204807D01*
X12899607Y-113119835D01*
X12956500Y-113009312D01*
X12973504Y-112880685D01*
X12947626Y-112741400D01*
X12915613Y-112666025D01*
X12865165Y-112592785D01*
X12795800Y-112542466D01*
X12698943Y-112511799D01*
X12566020Y-112497517D01*
X12468160Y-112495452D01*
X12220014Y-112495357D01*
X12220014Y-113284335D01*
X11965524Y-113284335D01*
X11965505Y-113224533D01*
X11965984Y-112963594D01*
X11967496Y-112750098D01*
X11970150Y-112580593D01*
X11972733Y-112495357D01*
X11974058Y-112451628D01*
X11979330Y-112359752D01*
X11986077Y-112301513D01*
X11994409Y-112273460D01*
X11996046Y-112271389D01*
X12034153Y-112257204D01*
X12116905Y-112247560D01*
X12246484Y-112242285D01*
X12384172Y-112241096D01*
X12530659Y-112241981D01*
G37*
G36*
X36301145Y-25702147D02*
G01*
X36423412Y-25724270D01*
X36525311Y-25769396D01*
X36621490Y-25843447D01*
X36698563Y-25921400D01*
X36775064Y-26021828D01*
X36804562Y-26105770D01*
X36786829Y-26172437D01*
X36775044Y-26186258D01*
X36714064Y-26216823D01*
X36643886Y-26199901D01*
X36569268Y-26136958D01*
X36553468Y-26118016D01*
X36446620Y-26014945D01*
X36319810Y-25954668D01*
X36165009Y-25933537D01*
X36147274Y-25933438D01*
X35984709Y-25948570D01*
X35861692Y-25991582D01*
X35779700Y-26061503D01*
X35740211Y-26157364D01*
X35736647Y-26202847D01*
X35746986Y-26298230D01*
X35781842Y-26372972D01*
X35846980Y-26431253D01*
X35948161Y-26477252D01*
X36091148Y-26515149D01*
X36194445Y-26534880D01*
X36361087Y-26569536D01*
X36488984Y-26611111D01*
X36590270Y-26664939D01*
X36677076Y-26736357D01*
X36695858Y-26755401D01*
X36771083Y-26850371D01*
X36813610Y-26951048D01*
X36830142Y-27075657D01*
X36831036Y-27122977D01*
X36808576Y-27285675D01*
X36743050Y-27423849D01*
X36637238Y-27535091D01*
X36493918Y-27616995D01*
X36315871Y-27667151D01*
X36186297Y-27681409D01*
X36078738Y-27682911D01*
X35977020Y-27677340D01*
X35908046Y-27666878D01*
X35774268Y-27619938D01*
X35651266Y-27552726D01*
X35546159Y-27472040D01*
X35466063Y-27384678D01*
X35418097Y-27297439D01*
X35409378Y-27217120D01*
X35415189Y-27196139D01*
X35455780Y-27148964D01*
X35518120Y-27134950D01*
X35587267Y-27151979D01*
X35648282Y-27197927D01*
X35671852Y-27232576D01*
X35735766Y-27307656D01*
X35836792Y-27370781D01*
X35961487Y-27415924D01*
X36096406Y-27437057D01*
X36129771Y-27437884D01*
X36286639Y-27421473D01*
X36413727Y-27375964D01*
X36506363Y-27305085D01*
X36559876Y-27212567D01*
X36569595Y-27102140D01*
X36567656Y-27088224D01*
X36539408Y-26986147D01*
X36487665Y-26907567D01*
X36405734Y-26847714D01*
X36286925Y-26801817D01*
X36124547Y-26765106D01*
X36111107Y-26762710D01*
X35904396Y-26713495D01*
X35742408Y-26645661D01*
X35621862Y-26557520D01*
X35557021Y-26477617D01*
X35487952Y-26329459D01*
X35467258Y-26183363D01*
X35494328Y-26044792D01*
X35568556Y-25919209D01*
X35625700Y-25860757D01*
X35720900Y-25787524D01*
X35817515Y-25739085D01*
X35929753Y-25710953D01*
X36071827Y-25698638D01*
X36143862Y-25697103D01*
X36301145Y-25702147D01*
G37*
G36*
X15347442Y-112254948D02*
G01*
X15371732Y-112273971D01*
X15380905Y-112311001D01*
X15388870Y-112397863D01*
X15395582Y-112533501D01*
X15400997Y-112716858D01*
X15405067Y-112946879D01*
X15406662Y-113087162D01*
X15409625Y-113329769D01*
X15413512Y-113524719D01*
X15418474Y-113675251D01*
X15424664Y-113784605D01*
X15432232Y-113856020D01*
X15441331Y-113892735D01*
X15444622Y-113897715D01*
X15488748Y-113921709D01*
X15557964Y-113941423D01*
X15571387Y-113943844D01*
X15642271Y-113964176D01*
X15681056Y-114003804D01*
X15693060Y-114031790D01*
X15705197Y-114089375D01*
X15683747Y-114130324D01*
X15658916Y-114152329D01*
X15570064Y-114193494D01*
X15465948Y-114192794D01*
X15359686Y-114150619D01*
X15347876Y-114143097D01*
X15282820Y-114083977D01*
X15221912Y-114003580D01*
X15204132Y-113972273D01*
X15187788Y-113938217D01*
X15174890Y-113903971D01*
X15165031Y-113863320D01*
X15157803Y-113810048D01*
X15152800Y-113737940D01*
X15149612Y-113640781D01*
X15147833Y-113512354D01*
X15147055Y-113346444D01*
X15146870Y-113136835D01*
X15146868Y-113099112D01*
X15147772Y-112864231D01*
X15150413Y-112664778D01*
X15154682Y-112504066D01*
X15160472Y-112385405D01*
X15167676Y-112312110D01*
X15173214Y-112290076D01*
X15217936Y-112253208D01*
X15284083Y-112240844D01*
X15347442Y-112254948D01*
G37*
G36*
X53467560Y183240D02*
G01*
X53475926Y150335D01*
X53457929Y107799D01*
X53425024Y99433D01*
X53382488Y117429D01*
X53374122Y150335D01*
X53392119Y192871D01*
X53425024Y201237D01*
X53467560Y183240D01*
G37*
G36*
X36568836Y-112237078D02*
G01*
X36692414Y-112263292D01*
X36797007Y-112314674D01*
X36897790Y-112397545D01*
X36954603Y-112456127D01*
X37017329Y-112530023D01*
X37048707Y-112586132D01*
X37056317Y-112639466D01*
X37055263Y-112655517D01*
X37042595Y-112713486D01*
X37008583Y-112738292D01*
X36967043Y-112744937D01*
X36909459Y-112742505D01*
X36863130Y-112714785D01*
X36816401Y-112660546D01*
X36709477Y-112555897D01*
X36578179Y-112493170D01*
X36417576Y-112470116D01*
X36398567Y-112469906D01*
X36236975Y-112484704D01*
X36115100Y-112528599D01*
X36034031Y-112600844D01*
X35994856Y-112700691D01*
X35991156Y-112749866D01*
X36004697Y-112844589D01*
X36048573Y-112920043D01*
X36127665Y-112979698D01*
X36246852Y-113027022D01*
X36411014Y-113065486D01*
X36443300Y-113071316D01*
X36556204Y-113093574D01*
X36661030Y-113118647D01*
X36739160Y-113141965D01*
X36753258Y-113147366D01*
X36860014Y-113209852D01*
X36959602Y-113298892D01*
X37034076Y-113397424D01*
X37050404Y-113429860D01*
X37075590Y-113527923D01*
X37084271Y-113650542D01*
X37076433Y-113774118D01*
X37052062Y-113875049D01*
X37050681Y-113878430D01*
X36992210Y-113969006D01*
X36899502Y-114058924D01*
X36787850Y-114135782D01*
X36672543Y-114187179D01*
X36668460Y-114188415D01*
X36522537Y-114216090D01*
X36359215Y-114222474D01*
X36203147Y-114207534D01*
X36125691Y-114189095D01*
X35968565Y-114123826D01*
X35833602Y-114036339D01*
X35734558Y-113935702D01*
X35728498Y-113927211D01*
X35674353Y-113828008D01*
X35664918Y-113751562D01*
X35700233Y-113698512D01*
X35713567Y-113690280D01*
X35793899Y-113672448D01*
X35870203Y-113702482D01*
X35934563Y-113776696D01*
X36014560Y-113865506D01*
X36127444Y-113929537D01*
X36261134Y-113967861D01*
X36403550Y-113979549D01*
X36542609Y-113963675D01*
X36666231Y-113919309D01*
X36762336Y-113845524D01*
X36766576Y-113840603D01*
X36819694Y-113740497D01*
X36827956Y-113627194D01*
X36790864Y-113512463D01*
X36781165Y-113495540D01*
X36735514Y-113435452D01*
X36675734Y-113389384D01*
X36592068Y-113352779D01*
X36474761Y-113321078D01*
X36357243Y-113297487D01*
X36143084Y-113242206D01*
X35972628Y-113163385D01*
X35846459Y-113061543D01*
X35765163Y-112937202D01*
X35729325Y-112790880D01*
X35727577Y-112737639D01*
X35747902Y-112591394D01*
X35806743Y-112471066D01*
X35907872Y-112371466D01*
X36055065Y-112287405D01*
X36055101Y-112287388D01*
X36134236Y-112256816D01*
X36216858Y-112238963D01*
X36320614Y-112230971D01*
X36411096Y-112229708D01*
X36568836Y-112237078D01*
G37*
G36*
X53467560Y-128572872D02*
G01*
X53475926Y-128605777D01*
X53457929Y-128648314D01*
X53425024Y-128656679D01*
X53382488Y-128638683D01*
X53374122Y-128605777D01*
X53392119Y-128563241D01*
X53425024Y-128554876D01*
X53467560Y-128572872D01*
G37*
G36*
X39670734Y-26658298D02*
G01*
X39760168Y-26514721D01*
X39884160Y-26403641D01*
X40039088Y-26329043D01*
X40221331Y-26294913D01*
X40276595Y-26293152D01*
X40454524Y-26310768D01*
X40600824Y-26365265D01*
X40721377Y-26459115D01*
X40751237Y-26492682D01*
X40820764Y-26604183D01*
X40873714Y-26741060D01*
X40901207Y-26878371D01*
X40903180Y-26919501D01*
X40900938Y-26971922D01*
X40890104Y-27011687D01*
X40864514Y-27040539D01*
X40818007Y-27060221D01*
X40744420Y-27072477D01*
X40637589Y-27079050D01*
X40491354Y-27081685D01*
X40328376Y-27082130D01*
X39833559Y-27082130D01*
X39872317Y-27177571D01*
X39944567Y-27292571D01*
X40049708Y-27378734D01*
X40176771Y-27433055D01*
X40314788Y-27452534D01*
X40452791Y-27434165D01*
X40579811Y-27374946D01*
X40583604Y-27372321D01*
X40658916Y-27340761D01*
X40731405Y-27344718D01*
X40774763Y-27373415D01*
X40802135Y-27436492D01*
X40784278Y-27498314D01*
X40726810Y-27555224D01*
X40635346Y-27603566D01*
X40515504Y-27639682D01*
X40372900Y-27659914D01*
X40331277Y-27662177D01*
X40216731Y-27663565D01*
X40133232Y-27655743D01*
X40061292Y-27635571D01*
X39999673Y-27608771D01*
X39839160Y-27508835D01*
X39721699Y-27382167D01*
X39646056Y-27226918D01*
X39610993Y-27041244D01*
X39610023Y-27026993D01*
X39617164Y-26878523D01*
X39853331Y-26878523D01*
X40249499Y-26878523D01*
X40386206Y-26877289D01*
X40504136Y-26873886D01*
X40594287Y-26868757D01*
X40647656Y-26862349D01*
X40658161Y-26858308D01*
X40656774Y-26820846D01*
X40633933Y-26758161D01*
X40597617Y-26686560D01*
X40555806Y-26622353D01*
X40526833Y-26589904D01*
X40426249Y-26531205D01*
X40308595Y-26509609D01*
X40185324Y-26521515D01*
X40067886Y-26563322D01*
X39967734Y-26631430D01*
X39896319Y-26722239D01*
X39869734Y-26796507D01*
X39853331Y-26878523D01*
X39617164Y-26878523D01*
X39619479Y-26830384D01*
X39670734Y-26658298D01*
G37*
G36*
X26251548Y-123049059D02*
G01*
X26275709Y-123029775D01*
X26338955Y-122988440D01*
X26436130Y-122928176D01*
X26562078Y-122852103D01*
X26711641Y-122763343D01*
X26879662Y-122665016D01*
X27024204Y-122581393D01*
X27267134Y-122442567D01*
X27472046Y-122328520D01*
X27644321Y-122237434D01*
X27789341Y-122167492D01*
X27912488Y-122116875D01*
X28019144Y-122083764D01*
X28114689Y-122066343D01*
X28204506Y-122062792D01*
X28293977Y-122071294D01*
X28388483Y-122090030D01*
X28440393Y-122102951D01*
X28662630Y-122184015D01*
X28851275Y-122303189D01*
X29007690Y-122461580D01*
X29133236Y-122660294D01*
X29138097Y-122670030D01*
X29182140Y-122761960D01*
X29210052Y-122833414D01*
X29225444Y-122901496D01*
X29231927Y-122983308D01*
X29233111Y-123095955D01*
X29233044Y-123119788D01*
X29223925Y-123309981D01*
X29194475Y-123465482D01*
X29139322Y-123600251D01*
X29053091Y-123728251D01*
X28957466Y-123835838D01*
X28906822Y-123885771D01*
X28851280Y-123934222D01*
X28785171Y-123984934D01*
X28702827Y-124041649D01*
X28598580Y-124108112D01*
X28466761Y-124188067D01*
X28301703Y-124285256D01*
X28100089Y-124402065D01*
X27926305Y-124502202D01*
X27764879Y-124595090D01*
X27621582Y-124677419D01*
X27502183Y-124745878D01*
X27412452Y-124797158D01*
X27358160Y-124827948D01*
X27346128Y-124834613D01*
X27297036Y-124848583D01*
X27256928Y-124820999D01*
X27255291Y-124819137D01*
X27228303Y-124780677D01*
X27181378Y-124705745D01*
X27117803Y-124600133D01*
X27040862Y-124469636D01*
X26953841Y-124320047D01*
X26860025Y-124157159D01*
X26762700Y-123986767D01*
X26665151Y-123814664D01*
X26570663Y-123646643D01*
X26482521Y-123488498D01*
X26404012Y-123346022D01*
X26338419Y-123225010D01*
X26289029Y-123131255D01*
X26264762Y-123081991D01*
X26413577Y-123081991D01*
X26421112Y-123107715D01*
X26451687Y-123172339D01*
X26502603Y-123270850D01*
X26571159Y-123398233D01*
X26654658Y-123549473D01*
X26750399Y-123719558D01*
X26855684Y-123903473D01*
X26857362Y-123906381D01*
X27321914Y-124711203D01*
X27412597Y-124657558D01*
X27458162Y-124630939D01*
X27541158Y-124582788D01*
X27654902Y-124516969D01*
X27792711Y-124437346D01*
X27947902Y-124347782D01*
X28113792Y-124252142D01*
X28126828Y-124244630D01*
X28341840Y-124119459D01*
X28516941Y-124013978D01*
X28657241Y-123924129D01*
X28767851Y-123845855D01*
X28853881Y-123775097D01*
X28920442Y-123707797D01*
X28972646Y-123639898D01*
X29015602Y-123567342D01*
X29038729Y-123520598D01*
X29071203Y-123444896D01*
X29091443Y-123375539D01*
X29102217Y-123296249D01*
X29106295Y-123190751D01*
X29106687Y-123121108D01*
X29099755Y-122950357D01*
X29075098Y-122813881D01*
X29026926Y-122696475D01*
X28949449Y-122582931D01*
X28865623Y-122487976D01*
X28701101Y-122349668D01*
X28513031Y-122254092D01*
X28308814Y-122203565D01*
X28095851Y-122200405D01*
X27996255Y-122215648D01*
X27939303Y-122232356D01*
X27862454Y-122263823D01*
X27761499Y-122312216D01*
X27632227Y-122379697D01*
X27470430Y-122468433D01*
X27271897Y-122580588D01*
X27144212Y-122653794D01*
X26971032Y-122753712D01*
X26811849Y-122845993D01*
X26672081Y-122927463D01*
X26557147Y-122994944D01*
X26472466Y-123045261D01*
X26423456Y-123075239D01*
X26413577Y-123081991D01*
X26264762Y-123081991D01*
X26259127Y-123070551D01*
X26251548Y-123049059D01*
G37*
G36*
X25214805Y-126174909D02*
G01*
X25239802Y-126189313D01*
X25254136Y-126225666D01*
X25264737Y-126301445D01*
X25271751Y-126407186D01*
X25275327Y-126533426D01*
X25275608Y-126670700D01*
X25272742Y-126809543D01*
X25266875Y-126940492D01*
X25258153Y-127054082D01*
X25246723Y-127140850D01*
X25232730Y-127191330D01*
X25224184Y-127200165D01*
X25178937Y-127197011D01*
X25166919Y-127189890D01*
X25159529Y-127157944D01*
X25154089Y-127085269D01*
X25150518Y-126981432D01*
X25148732Y-126856001D01*
X25148651Y-126718543D01*
X25150192Y-126578625D01*
X25153272Y-126445814D01*
X25157810Y-126329678D01*
X25163724Y-126239784D01*
X25170930Y-126185699D01*
X25175638Y-126174527D01*
X25214805Y-126174909D01*
G37*
G36*
X3055685Y-96370459D02*
G01*
X3075049Y-96402333D01*
X3110859Y-96475362D01*
X3160433Y-96583530D01*
X3221093Y-96720821D01*
X3290158Y-96881219D01*
X3364947Y-97058707D01*
X3401277Y-97146228D01*
X3476617Y-97327507D01*
X3546154Y-97492709D01*
X3607446Y-97636197D01*
X3658051Y-97752337D01*
X3695528Y-97835493D01*
X3717435Y-97880028D01*
X3721819Y-97886055D01*
X3735042Y-97863631D01*
X3765541Y-97799788D01*
X3810865Y-97700032D01*
X3868564Y-97569869D01*
X3936189Y-97414804D01*
X4011289Y-97240344D01*
X4060825Y-97124162D01*
X4158825Y-96895381D01*
X4239725Y-96710925D01*
X4304996Y-96567724D01*
X4356109Y-96462710D01*
X4394536Y-96392815D01*
X4421748Y-96354970D01*
X4433820Y-96346194D01*
X4508981Y-96341402D01*
X4570826Y-96370071D01*
X4597117Y-96409276D01*
X4590076Y-96440308D01*
X4565134Y-96511664D01*
X4524929Y-96617093D01*
X4472100Y-96750345D01*
X4409284Y-96905170D01*
X4339118Y-97075317D01*
X4264242Y-97254536D01*
X4187293Y-97436576D01*
X4110908Y-97615188D01*
X4037726Y-97784120D01*
X3970385Y-97937123D01*
X3911522Y-98067945D01*
X3863776Y-98170337D01*
X3829785Y-98238049D01*
X3815211Y-98261940D01*
X3763688Y-98290390D01*
X3697634Y-98286374D01*
X3640275Y-98251563D01*
X3638198Y-98249214D01*
X3617919Y-98214222D01*
X3581034Y-98139277D01*
X3530327Y-98030785D01*
X3468582Y-97895154D01*
X3398582Y-97738792D01*
X3323111Y-97568103D01*
X3244952Y-97389497D01*
X3166890Y-97209380D01*
X3091708Y-97034158D01*
X3022190Y-96870239D01*
X2961119Y-96724029D01*
X2911280Y-96601936D01*
X2875455Y-96510367D01*
X2856430Y-96455728D01*
X2854082Y-96444514D01*
X2874468Y-96379160D01*
X2925350Y-96341455D01*
X2991319Y-96337058D01*
X3055685Y-96370459D01*
G37*
G36*
X23163238Y-2171080D02*
G01*
X23292176Y-2174554D01*
X23378773Y-2180646D01*
X23425865Y-2189452D01*
X23434347Y-2193813D01*
X23460049Y-2239060D01*
X23469313Y-2296698D01*
X23455892Y-2358867D01*
X23407447Y-2394056D01*
X23404029Y-2395385D01*
X23358760Y-2403140D01*
X23271740Y-2409905D01*
X23152118Y-2415275D01*
X23009041Y-2418842D01*
X22851657Y-2420203D01*
X22844109Y-2420206D01*
X22349473Y-2420206D01*
X22349473Y-3005577D01*
X22729419Y-3005577D01*
X22882497Y-3006480D01*
X22992590Y-3009690D01*
X23067591Y-3015959D01*
X23115394Y-3026038D01*
X23143891Y-3040679D01*
X23149358Y-3045571D01*
X23183594Y-3106819D01*
X23184029Y-3173889D01*
X23151674Y-3226190D01*
X23140124Y-3233740D01*
X23097291Y-3243356D01*
X23013767Y-3251348D01*
X22899753Y-3257077D01*
X22765450Y-3259900D01*
X22720184Y-3260086D01*
X22349473Y-3260086D01*
X22349473Y-3650630D01*
X22348870Y-3802078D01*
X22346469Y-3910889D01*
X22341381Y-3985320D01*
X22332719Y-4033629D01*
X22319594Y-4064073D01*
X22302930Y-4083296D01*
X22235635Y-4121564D01*
X22166636Y-4110771D01*
X22131642Y-4089314D01*
X22118382Y-4077436D01*
X22107665Y-4059716D01*
X22099170Y-4030936D01*
X22092578Y-3985878D01*
X22087567Y-3919324D01*
X22083818Y-3826055D01*
X22081008Y-3700852D01*
X22078818Y-3538498D01*
X22076926Y-3333774D01*
X22075735Y-3179445D01*
X22074325Y-2929091D01*
X22074271Y-2725234D01*
X22075696Y-2563481D01*
X22078724Y-2439443D01*
X22083476Y-2348727D01*
X22090075Y-2286942D01*
X22098644Y-2249699D01*
X22101922Y-2242050D01*
X22134614Y-2178423D01*
X22766998Y-2171608D01*
X22989124Y-2170129D01*
X23163238Y-2171080D01*
G37*
G36*
X14831189Y-36809883D02*
G01*
X14941909Y-36830558D01*
X15020682Y-36868384D01*
X15062412Y-36918162D01*
X15061998Y-36974696D01*
X15033369Y-37016041D01*
X14995662Y-37037060D01*
X14931279Y-37044479D01*
X14833444Y-37040121D01*
X14668878Y-37041074D01*
X14539629Y-37074390D01*
X14440612Y-37141469D01*
X14431622Y-37150676D01*
X14409841Y-37176030D01*
X14393681Y-37204303D01*
X14382024Y-37243436D01*
X14373755Y-37301370D01*
X14367755Y-37386046D01*
X14362910Y-37505405D01*
X14358101Y-37667388D01*
X14357890Y-37675016D01*
X14352959Y-37839368D01*
X14347973Y-37960240D01*
X14341970Y-38045043D01*
X14333993Y-38101191D01*
X14323081Y-38136096D01*
X14308274Y-38157172D01*
X14294025Y-38168370D01*
X14243822Y-38189165D01*
X14189221Y-38175352D01*
X14179495Y-38170661D01*
X14116106Y-38139073D01*
X14109301Y-37510777D01*
X14102495Y-36882481D01*
X14160773Y-36844296D01*
X14235967Y-36817279D01*
X14301031Y-36833042D01*
X14343409Y-36887274D01*
X14349573Y-36909131D01*
X14364111Y-36981821D01*
X14436706Y-36920736D01*
X14568084Y-36842934D01*
X14724472Y-36808930D01*
X14831189Y-36809883D01*
G37*
G36*
X39458586Y-90899051D02*
G01*
X39547806Y-90926688D01*
X39657591Y-90985321D01*
X39733976Y-91061795D01*
X39786376Y-91154775D01*
X39803053Y-91197419D01*
X39815336Y-91247642D01*
X39823878Y-91313602D01*
X39829328Y-91403456D01*
X39832340Y-91525363D01*
X39833565Y-91687481D01*
X39833684Y-91747055D01*
X39834243Y-92237530D01*
X39771658Y-92266046D01*
X39713740Y-92280791D01*
X39657614Y-92260496D01*
X39644403Y-92252188D01*
X39579734Y-92209814D01*
X39579358Y-91771373D01*
X39578182Y-91591442D01*
X39573734Y-91455006D01*
X39564114Y-91354681D01*
X39547420Y-91283077D01*
X39521752Y-91232810D01*
X39485209Y-91196491D01*
X39435889Y-91166733D01*
X39421957Y-91159755D01*
X39311622Y-91130105D01*
X39204242Y-91144183D01*
X39112835Y-91198600D01*
X39069650Y-91251510D01*
X39051068Y-91287050D01*
X39037735Y-91328957D01*
X39028803Y-91385889D01*
X39023422Y-91466506D01*
X39020745Y-91579465D01*
X39019924Y-91733425D01*
X39019909Y-91759234D01*
X39019438Y-91917256D01*
X39017534Y-92032450D01*
X39013331Y-92112889D01*
X39005970Y-92166645D01*
X38994586Y-92201790D01*
X38978317Y-92226394D01*
X38968912Y-92236439D01*
X38918525Y-92274190D01*
X38879834Y-92287341D01*
X38834672Y-92270492D01*
X38790756Y-92236439D01*
X38772267Y-92214449D01*
X38758872Y-92185837D01*
X38749758Y-92142722D01*
X38744113Y-92077225D01*
X38741127Y-91981467D01*
X38739988Y-91847568D01*
X38739854Y-91742099D01*
X38739613Y-91581821D01*
X38738221Y-91464176D01*
X38734671Y-91380895D01*
X38727955Y-91323710D01*
X38717066Y-91284352D01*
X38700999Y-91254552D01*
X38678746Y-91226042D01*
X38676725Y-91223636D01*
X38591636Y-91157573D01*
X38489513Y-91129639D01*
X38384433Y-91138948D01*
X38290473Y-91184614D01*
X38229607Y-91251778D01*
X38211080Y-91287278D01*
X38197787Y-91329269D01*
X38188882Y-91386401D01*
X38183520Y-91467327D01*
X38180855Y-91580695D01*
X38180043Y-91735158D01*
X38180029Y-91759234D01*
X38179559Y-91917256D01*
X38177654Y-92032450D01*
X38173452Y-92112889D01*
X38166090Y-92166645D01*
X38154706Y-92201790D01*
X38138437Y-92226394D01*
X38129032Y-92236439D01*
X38067399Y-92280501D01*
X38007949Y-92278041D01*
X37962103Y-92251254D01*
X37946255Y-92236672D01*
X37934048Y-92214712D01*
X37924892Y-92178907D01*
X37918197Y-92122792D01*
X37913372Y-92039899D01*
X37909829Y-91923761D01*
X37906976Y-91767911D01*
X37904989Y-91625296D01*
X37902906Y-91431857D01*
X37902567Y-91282745D01*
X37904298Y-91171402D01*
X37908425Y-91091275D01*
X37915275Y-91035805D01*
X37925174Y-90998439D01*
X37937390Y-90974208D01*
X37990843Y-90927797D01*
X38058278Y-90911878D01*
X38120733Y-90927630D01*
X38152834Y-90960813D01*
X38170474Y-90987213D01*
X38193963Y-90993363D01*
X38237145Y-90978049D01*
X38298023Y-90948088D01*
X38445186Y-90899341D01*
X38595226Y-90896056D01*
X38737234Y-90936856D01*
X38858553Y-91018713D01*
X38914319Y-91071103D01*
X38998880Y-91008288D01*
X39145422Y-90927285D01*
X39302105Y-90890360D01*
X39458586Y-90899051D01*
G37*
G36*
X14494812Y-58212299D02*
G01*
X14544568Y-58270017D01*
X14561497Y-58346062D01*
X14540795Y-58431246D01*
X14487516Y-58489163D01*
X14414899Y-58514278D01*
X14336181Y-58501058D01*
X14281537Y-58463092D01*
X14237324Y-58394262D01*
X14241555Y-58320767D01*
X14283384Y-58250192D01*
X14350619Y-58197698D01*
X14425629Y-58186630D01*
X14494812Y-58212299D01*
G37*
G36*
X15882502Y-58753547D02*
G01*
X16026892Y-58814352D01*
X16142950Y-58916582D01*
X16233692Y-59062171D01*
X16239118Y-59073914D01*
X16258462Y-59121937D01*
X16272400Y-59173594D01*
X16281805Y-59238076D01*
X16287551Y-59324575D01*
X16290511Y-59442282D01*
X16291556Y-59600390D01*
X16291599Y-59626575D01*
X16291436Y-59786242D01*
X16289955Y-59902503D01*
X16286369Y-59982849D01*
X16279895Y-60034773D01*
X16269747Y-60065767D01*
X16255140Y-60083324D01*
X16242930Y-60091054D01*
X16162890Y-60115852D01*
X16096719Y-60093943D01*
X16077644Y-60077406D01*
X16061642Y-60052841D01*
X16050397Y-60011148D01*
X16043160Y-59944444D01*
X16039182Y-59844844D01*
X16037713Y-59704463D01*
X16037649Y-59656649D01*
X16035856Y-59481754D01*
X16029138Y-59348881D01*
X16015490Y-59249236D01*
X15992903Y-59174023D01*
X15959373Y-59114448D01*
X15912893Y-59061714D01*
X15898899Y-59048463D01*
X15856597Y-59015033D01*
X15810006Y-58995796D01*
X15743749Y-58986986D01*
X15642449Y-58984837D01*
X15639154Y-58984836D01*
X15540818Y-58985942D01*
X15477579Y-58992865D01*
X15433636Y-59011009D01*
X15393187Y-59045782D01*
X15361245Y-59079903D01*
X15274122Y-59174970D01*
X15274122Y-59604064D01*
X15273615Y-59763437D01*
X15271578Y-59879729D01*
X15267240Y-59960754D01*
X15259829Y-60014326D01*
X15248572Y-60048262D01*
X15232699Y-60070374D01*
X15227579Y-60075280D01*
X15157371Y-60112536D01*
X15086523Y-60107809D01*
X15041818Y-60075376D01*
X15029493Y-60048278D01*
X15019733Y-59996429D01*
X15012157Y-59914426D01*
X15006385Y-59796868D01*
X15002038Y-59638351D01*
X14999210Y-59469671D01*
X14997347Y-59260043D01*
X14998575Y-59095657D01*
X15003545Y-58970916D01*
X15012911Y-58880219D01*
X15027327Y-58817966D01*
X15047447Y-58778558D01*
X15073923Y-58756394D01*
X15082915Y-58752380D01*
X15148697Y-58746376D01*
X15214400Y-58767504D01*
X15256939Y-58807558D01*
X15260115Y-58815367D01*
X15271778Y-58839875D01*
X15293468Y-58845335D01*
X15337153Y-58830199D01*
X15408132Y-58796220D01*
X15509832Y-58754280D01*
X15609999Y-58735183D01*
X15706766Y-58732231D01*
X15882502Y-58753547D01*
G37*
G36*
X14437207Y-58746783D02*
G01*
X14494466Y-58773336D01*
X14509700Y-58792281D01*
X14518381Y-58834371D01*
X14525561Y-58922269D01*
X14531034Y-59050899D01*
X14534592Y-59215183D01*
X14536026Y-59410045D01*
X14536046Y-59437334D01*
X14535761Y-59627973D01*
X14534590Y-59774188D01*
X14532062Y-59882455D01*
X14527703Y-59959251D01*
X14521041Y-60011053D01*
X14511604Y-60044335D01*
X14498919Y-60065576D01*
X14489503Y-60075280D01*
X14422536Y-60113072D01*
X14351088Y-60102752D01*
X14326076Y-60089911D01*
X14312196Y-60078037D01*
X14301519Y-60056552D01*
X14293630Y-60019367D01*
X14288116Y-59960397D01*
X14284564Y-59873553D01*
X14282560Y-59752750D01*
X14281692Y-59591900D01*
X14281537Y-59434052D01*
X14282350Y-59218062D01*
X14284901Y-59049237D01*
X14289364Y-58923867D01*
X14295910Y-58838239D01*
X14304709Y-58788642D01*
X14312078Y-58773593D01*
X14368476Y-58746118D01*
X14437207Y-58746783D01*
G37*
G36*
X37416734Y-113330009D02*
G01*
X37478177Y-113175198D01*
X37555874Y-113062774D01*
X37688235Y-112944786D01*
X37843063Y-112866832D01*
X38011100Y-112829213D01*
X38183088Y-112832228D01*
X38349768Y-112876178D01*
X38501885Y-112961363D01*
X38579606Y-113029592D01*
X38659722Y-113129567D01*
X38718768Y-113246819D01*
X38758844Y-113389122D01*
X38782051Y-113564252D01*
X38790487Y-113779985D01*
X38790608Y-113810784D01*
X38786117Y-113969345D01*
X38770806Y-114082472D01*
X38742266Y-114154931D01*
X38698089Y-114191491D01*
X38635865Y-114196919D01*
X38599045Y-114189908D01*
X38543706Y-114156566D01*
X38519393Y-114097209D01*
X38505914Y-114046019D01*
X38485921Y-114037317D01*
X38450175Y-114059589D01*
X38285438Y-114154363D01*
X38117626Y-114200513D01*
X37938800Y-114200085D01*
X37916610Y-114197059D01*
X37762775Y-114150542D01*
X37632316Y-114065353D01*
X37527691Y-113949225D01*
X37451361Y-113809893D01*
X37405785Y-113655090D01*
X37395135Y-113515065D01*
X37646024Y-113515065D01*
X37668246Y-113660983D01*
X37728881Y-113790505D01*
X37821118Y-113892953D01*
X37925425Y-113953145D01*
X38021035Y-113971158D01*
X38134370Y-113967554D01*
X38241724Y-113944748D01*
X38307447Y-113914244D01*
X38423856Y-113807891D01*
X38494722Y-113679695D01*
X38519040Y-113532457D01*
X38498929Y-113380623D01*
X38443530Y-113248106D01*
X38360705Y-113151110D01*
X38258248Y-113088407D01*
X38143953Y-113058767D01*
X38025614Y-113060963D01*
X37911024Y-113093766D01*
X37807979Y-113155946D01*
X37724271Y-113246276D01*
X37667696Y-113363527D01*
X37646046Y-113506471D01*
X37646024Y-113515065D01*
X37395135Y-113515065D01*
X37393423Y-113492551D01*
X37416734Y-113330009D01*
G37*
G36*
X13301167Y-36219739D02*
G01*
X13464517Y-36222650D01*
X13587934Y-36228795D01*
X13676898Y-36239233D01*
X13736888Y-36255022D01*
X13773383Y-36277222D01*
X13791861Y-36306891D01*
X13797801Y-36345088D01*
X13797970Y-36355337D01*
X13795436Y-36393008D01*
X13783789Y-36421707D01*
X13756960Y-36442649D01*
X13708878Y-36457047D01*
X13633475Y-36466118D01*
X13524682Y-36471075D01*
X13376430Y-36473134D01*
X13207509Y-36473513D01*
X12678130Y-36473513D01*
X12678130Y-37084335D01*
X13067529Y-37084335D01*
X13229635Y-37085364D01*
X13347714Y-37089614D01*
X13428619Y-37098827D01*
X13479204Y-37114745D01*
X13506323Y-37139111D01*
X13516828Y-37173667D01*
X13518010Y-37198864D01*
X13513961Y-37240077D01*
X13497244Y-37270097D01*
X13461007Y-37290666D01*
X13398396Y-37303527D01*
X13302557Y-37310421D01*
X13166637Y-37313092D01*
X13067529Y-37313393D01*
X12678130Y-37313393D01*
X12678130Y-37703017D01*
X12676972Y-37866379D01*
X12672452Y-37986279D01*
X12663003Y-38070123D01*
X12647057Y-38125321D01*
X12623047Y-38159279D01*
X12589406Y-38179406D01*
X12576327Y-38184143D01*
X12517662Y-38188387D01*
X12499974Y-38184772D01*
X12473672Y-38174769D01*
X12452335Y-38159499D01*
X12435445Y-38133983D01*
X12422483Y-38093239D01*
X12412930Y-38032289D01*
X12406269Y-37946153D01*
X12401982Y-37829851D01*
X12399549Y-37678403D01*
X12398452Y-37486829D01*
X12398174Y-37250150D01*
X12398170Y-37206725D01*
X12398279Y-36970699D01*
X12398796Y-36780301D01*
X12400007Y-36630260D01*
X12402199Y-36515302D01*
X12405659Y-36430153D01*
X12410673Y-36369542D01*
X12417528Y-36328195D01*
X12426510Y-36300839D01*
X12437906Y-36282202D01*
X12449072Y-36269906D01*
X12467992Y-36253659D01*
X12492456Y-36241285D01*
X12529092Y-36232260D01*
X12584531Y-36226059D01*
X12665402Y-36222158D01*
X12778336Y-36220032D01*
X12929961Y-36219157D01*
X13092407Y-36219004D01*
X13301167Y-36219739D01*
G37*
G36*
X17331407Y-113148175D02*
G01*
X17429490Y-113011041D01*
X17561227Y-112908713D01*
X17723366Y-112844559D01*
X17912653Y-112821945D01*
X17917038Y-112821940D01*
X18054145Y-112828906D01*
X18160866Y-112853288D01*
X18256379Y-112900913D01*
X18316616Y-112943320D01*
X18389194Y-113018380D01*
X18452564Y-113119607D01*
X18502562Y-113234506D01*
X18535023Y-113350582D01*
X18545785Y-113455338D01*
X18530684Y-113536281D01*
X18520238Y-113554396D01*
X18504230Y-113571069D01*
X18479213Y-113583624D01*
X18438113Y-113592802D01*
X18373859Y-113599346D01*
X18279376Y-113603997D01*
X18147594Y-113607496D01*
X17986740Y-113610346D01*
X17809157Y-113614403D01*
X17666401Y-113620267D01*
X17562753Y-113627653D01*
X17502495Y-113636278D01*
X17488351Y-113643424D01*
X17508549Y-113712561D01*
X17561581Y-113793318D01*
X17636098Y-113872028D01*
X17720756Y-113935029D01*
X17738767Y-113944988D01*
X17832475Y-113971820D01*
X17951575Y-113976125D01*
X18076329Y-113958917D01*
X18185253Y-113922058D01*
X18297822Y-113881084D01*
X18381582Y-113881417D01*
X18437490Y-113923076D01*
X18440030Y-113926970D01*
X18453741Y-113981070D01*
X18423761Y-114034937D01*
X18347500Y-114091947D01*
X18288594Y-114124002D01*
X18160621Y-114168668D01*
X18007755Y-114192408D01*
X17851063Y-114193933D01*
X17711612Y-114171957D01*
X17678286Y-114161329D01*
X17527756Y-114080166D01*
X17399345Y-113959396D01*
X17317068Y-113835317D01*
X17278743Y-113750282D01*
X17257904Y-113668575D01*
X17249882Y-113568041D01*
X17249210Y-113513393D01*
X17262812Y-113386138D01*
X17484921Y-113386138D01*
X17893850Y-113386138D01*
X18067523Y-113384640D01*
X18192180Y-113380064D01*
X18269622Y-113372288D01*
X18301648Y-113361187D01*
X18302780Y-113358171D01*
X18286074Y-113293970D01*
X18244143Y-113215443D01*
X18189262Y-113142683D01*
X18147836Y-113104584D01*
X18077121Y-113069951D01*
X17986200Y-113044639D01*
X17953729Y-113039706D01*
X17818760Y-113047740D01*
X17693093Y-113096693D01*
X17588414Y-113179092D01*
X17516412Y-113287464D01*
X17501459Y-113328874D01*
X17484921Y-113386138D01*
X17262812Y-113386138D01*
X17270229Y-113316748D01*
X17331407Y-113148175D01*
G37*
G36*
X28493674Y-2154682D02*
G01*
X28582564Y-2161405D01*
X28649940Y-2175532D01*
X28710464Y-2199453D01*
X28737649Y-2213143D01*
X28875626Y-2293032D01*
X28965828Y-2363566D01*
X29010017Y-2427094D01*
X29009955Y-2485964D01*
X28977615Y-2532917D01*
X28919589Y-2567645D01*
X28849669Y-2562187D01*
X28760669Y-2515505D01*
X28735568Y-2497977D01*
X28587374Y-2420801D01*
X28418706Y-2384653D01*
X28242560Y-2392208D01*
X28231524Y-2394207D01*
X28087798Y-2435741D01*
X27964549Y-2506184D01*
X27846366Y-2614818D01*
X27824065Y-2639571D01*
X27722469Y-2790340D01*
X27662509Y-2957641D01*
X27642420Y-3133177D01*
X27660435Y-3308653D01*
X27714791Y-3475772D01*
X27803723Y-3626238D01*
X27925464Y-3751755D01*
X28078252Y-3844026D01*
X28080516Y-3845005D01*
X28245706Y-3890157D01*
X28421686Y-3893417D01*
X28592716Y-3855945D01*
X28713857Y-3798379D01*
X28828786Y-3738492D01*
X28914265Y-3720056D01*
X28970378Y-3743063D01*
X28989180Y-3774518D01*
X29001861Y-3843798D01*
X28979091Y-3903418D01*
X28915516Y-3963165D01*
X28868533Y-3995017D01*
X28674736Y-4089419D01*
X28465977Y-4139454D01*
X28252856Y-4143454D01*
X28099579Y-4116067D01*
X27912486Y-4040444D01*
X27740533Y-3922176D01*
X27592838Y-3769163D01*
X27478521Y-3589304D01*
X27469187Y-3569954D01*
X27438487Y-3499131D01*
X27418694Y-3434490D01*
X27407480Y-3361443D01*
X27402520Y-3265405D01*
X27401477Y-3145557D01*
X27402747Y-3016078D01*
X27408129Y-2922830D01*
X27419979Y-2851169D01*
X27440652Y-2786455D01*
X27470090Y-2719187D01*
X27571499Y-2551432D01*
X27706250Y-2399973D01*
X27861155Y-2278198D01*
X27955737Y-2226122D01*
X28036560Y-2191393D01*
X28107333Y-2169702D01*
X28184851Y-2158075D01*
X28285913Y-2153534D01*
X28368611Y-2152972D01*
X28493674Y-2154682D01*
G37*
G36*
X38073699Y-28778627D02*
G01*
X38311824Y-28784477D01*
X38525959Y-28795776D01*
X38729515Y-28813759D01*
X38935904Y-28839660D01*
X39158538Y-28874713D01*
X39410829Y-28920154D01*
X39465204Y-28930441D01*
X40138078Y-29083508D01*
X40794637Y-29282424D01*
X41432833Y-29525262D01*
X42050622Y-29810092D01*
X42645957Y-30134987D01*
X43216793Y-30498017D01*
X43761084Y-30897255D01*
X44276783Y-31330771D01*
X44761845Y-31796638D01*
X45214224Y-32292928D01*
X45631875Y-32817711D01*
X46012750Y-33369059D01*
X46354805Y-33945044D01*
X46655994Y-34543738D01*
X46914269Y-35163211D01*
X47127587Y-35801536D01*
X47251759Y-36269906D01*
X47342966Y-36728519D01*
X47408608Y-37219248D01*
X47448056Y-37729830D01*
X47460679Y-38248004D01*
X47445847Y-38761510D01*
X47404558Y-39244201D01*
X47300006Y-39930084D01*
X47148060Y-40602220D01*
X46950051Y-41258201D01*
X46707309Y-41895620D01*
X46421164Y-42512069D01*
X46092947Y-43105141D01*
X45723987Y-43672428D01*
X45315616Y-44211522D01*
X44869163Y-44720017D01*
X44385958Y-45195504D01*
X43877504Y-45627563D01*
X43735231Y-45735864D01*
X43577289Y-45849355D01*
X43409987Y-45964132D01*
X43239634Y-46076292D01*
X43072539Y-46181932D01*
X42915012Y-46277149D01*
X42773361Y-46358039D01*
X42653895Y-46420699D01*
X42562925Y-46461226D01*
X42506759Y-46475717D01*
X42506550Y-46475717D01*
X42414637Y-46455301D01*
X42352492Y-46399215D01*
X42328481Y-46315205D01*
X42328431Y-46310779D01*
X42329629Y-46276713D01*
X42336681Y-46246875D01*
X42354771Y-46216783D01*
X42389085Y-46181957D01*
X42444808Y-46137916D01*
X42527125Y-46080177D01*
X42641220Y-46004261D01*
X42792280Y-45905686D01*
X42811998Y-45892863D01*
X43346179Y-45515660D01*
X43845315Y-45102310D01*
X44308226Y-44654670D01*
X44733729Y-44174596D01*
X45120643Y-43663945D01*
X45467786Y-43124575D01*
X45773975Y-42558343D01*
X46038029Y-41967106D01*
X46258766Y-41352721D01*
X46435004Y-40717044D01*
X46565562Y-40061934D01*
X46579486Y-39973012D01*
X46603336Y-39779054D01*
X46622920Y-39546760D01*
X46637907Y-39288543D01*
X46647962Y-39016817D01*
X46652754Y-38743996D01*
X46651950Y-38482492D01*
X46645215Y-38244720D01*
X46632219Y-38043092D01*
X46631458Y-38034825D01*
X46545380Y-37378427D01*
X46412032Y-36737635D01*
X46232836Y-36114505D01*
X46009215Y-35511091D01*
X45742592Y-34929450D01*
X45434391Y-34371637D01*
X45086034Y-33839707D01*
X44698943Y-33335716D01*
X44274543Y-32861719D01*
X43814255Y-32419772D01*
X43319502Y-32011930D01*
X42791708Y-31640249D01*
X42232295Y-31306784D01*
X41832138Y-31101743D01*
X41240801Y-30844919D01*
X40631587Y-30633916D01*
X40001671Y-30467903D01*
X39348225Y-30346047D01*
X39185245Y-30322968D01*
X39005733Y-30304527D01*
X38786909Y-30290748D01*
X38540151Y-30281631D01*
X38276834Y-30277177D01*
X38008335Y-30277384D01*
X37746029Y-30282253D01*
X37501295Y-30291785D01*
X37285507Y-30305979D01*
X37123721Y-30322968D01*
X36460222Y-30435936D01*
X35814200Y-30595558D01*
X35187552Y-30801084D01*
X34582176Y-31051763D01*
X33999968Y-31346846D01*
X33442823Y-31685582D01*
X33131118Y-31902334D01*
X32627820Y-32300245D01*
X32158167Y-32733999D01*
X31723724Y-33200689D01*
X31326054Y-33697409D01*
X30966723Y-34221250D01*
X30647293Y-34769306D01*
X30369331Y-35338669D01*
X30134400Y-35926433D01*
X29944064Y-36529689D01*
X29799888Y-37145532D01*
X29703436Y-37771052D01*
X29658019Y-38356880D01*
X29652961Y-39019971D01*
X29692874Y-39661586D01*
X29778306Y-40285101D01*
X29909809Y-40893895D01*
X30087931Y-41491344D01*
X30231590Y-41881830D01*
X30500282Y-42494006D01*
X30809343Y-43075192D01*
X31158632Y-43625223D01*
X31548013Y-44143932D01*
X31977346Y-44631156D01*
X32446494Y-45086729D01*
X32955317Y-45510485D01*
X33503676Y-45902260D01*
X33721911Y-46042416D01*
X33911471Y-46165576D01*
X34061958Y-46276084D01*
X34181056Y-46381406D01*
X34276447Y-46489010D01*
X34355815Y-46606362D01*
X34414562Y-46715573D01*
X34504128Y-46949560D01*
X34546360Y-47184305D01*
X34544562Y-47415352D01*
X34502034Y-47638250D01*
X34422079Y-47848544D01*
X34307998Y-48041781D01*
X34163092Y-48213506D01*
X33990664Y-48359267D01*
X33794015Y-48474610D01*
X33576447Y-48555081D01*
X33341262Y-48596227D01*
X33091760Y-48593594D01*
X33028164Y-48585666D01*
X32899290Y-48557057D01*
X32762917Y-48506455D01*
X32611899Y-48430273D01*
X32439091Y-48324924D01*
X32246221Y-48193132D01*
X31654821Y-47743565D01*
X31093496Y-47256954D01*
X30566562Y-46737478D01*
X30078333Y-46189316D01*
X29750630Y-45775818D01*
X29330168Y-45176290D01*
X28948665Y-44547487D01*
X28608021Y-43893811D01*
X28310137Y-43219668D01*
X28056914Y-42529462D01*
X27850253Y-41827598D01*
X27692056Y-41118480D01*
X27658079Y-40927421D01*
X27603159Y-40573733D01*
X27562166Y-40242687D01*
X27533742Y-39917508D01*
X27516528Y-39581421D01*
X27509167Y-39217650D01*
X27508666Y-39082230D01*
X27530995Y-38354050D01*
X27598505Y-37648528D01*
X27711819Y-36963720D01*
X27871557Y-36297680D01*
X28078343Y-35648460D01*
X28332798Y-35014117D01*
X28635543Y-34392702D01*
X28987201Y-33782272D01*
X29388393Y-33180878D01*
X29399281Y-33165638D01*
X29577854Y-32922926D01*
X29755516Y-32696556D01*
X29941062Y-32476335D01*
X30143283Y-32252070D01*
X30370973Y-32013570D01*
X30542501Y-31840385D01*
X31083252Y-31335274D01*
X31648375Y-30874768D01*
X32238545Y-30458422D01*
X32854437Y-30085793D01*
X33496726Y-29756436D01*
X34108383Y-29492504D01*
X34691275Y-29278398D01*
X35255988Y-29104958D01*
X35812270Y-28970294D01*
X36369868Y-28872515D01*
X36938532Y-28809730D01*
X37528009Y-28780050D01*
X37798170Y-28776991D01*
X38073699Y-28778627D01*
G37*
G36*
X36180706Y-91384651D02*
G01*
X36250505Y-91231101D01*
X36359684Y-91097087D01*
X36498149Y-90990177D01*
X36655805Y-90917940D01*
X36822556Y-90887944D01*
X36843762Y-90887541D01*
X37011443Y-90911838D01*
X37171814Y-90980307D01*
X37314407Y-91086318D01*
X37428757Y-91223238D01*
X37460839Y-91278521D01*
X37487285Y-91332844D01*
X37506202Y-91384308D01*
X37519172Y-91443372D01*
X37527774Y-91520493D01*
X37533587Y-91626130D01*
X37538193Y-91770739D01*
X37538833Y-91794752D01*
X37542343Y-91943245D01*
X37543226Y-92049522D01*
X37540624Y-92122240D01*
X37533682Y-92170055D01*
X37521543Y-92201623D01*
X37503352Y-92225601D01*
X37495418Y-92233781D01*
X37444491Y-92272695D01*
X37403681Y-92287341D01*
X37350066Y-92266285D01*
X37298640Y-92215970D01*
X37266936Y-92155668D01*
X37263701Y-92133436D01*
X37260442Y-92104716D01*
X37243862Y-92102267D01*
X37203755Y-92128474D01*
X37168261Y-92155741D01*
X37015798Y-92244702D01*
X36852404Y-92284932D01*
X36683817Y-92275778D01*
X36538165Y-92227498D01*
X36387458Y-92130907D01*
X36270908Y-92001381D01*
X36191668Y-91846354D01*
X36152892Y-91673261D01*
X36156952Y-91519155D01*
X36408556Y-91519155D01*
X36408661Y-91671447D01*
X36453027Y-91809182D01*
X36537223Y-91923833D01*
X36656817Y-92006869D01*
X36663605Y-92010019D01*
X36789617Y-92050678D01*
X36906444Y-92048478D01*
X37031465Y-92002997D01*
X37035408Y-92001018D01*
X37151856Y-91916234D01*
X37232696Y-91803765D01*
X37276389Y-91673744D01*
X37281396Y-91536304D01*
X37246178Y-91401578D01*
X37169196Y-91279699D01*
X37148324Y-91257427D01*
X37031111Y-91171179D01*
X36904110Y-91129541D01*
X36775665Y-91129562D01*
X36654121Y-91168290D01*
X36547820Y-91242772D01*
X36465109Y-91350056D01*
X36414329Y-91487191D01*
X36408556Y-91519155D01*
X36156952Y-91519155D01*
X36157732Y-91489535D01*
X36180706Y-91384651D01*
G37*
G36*
X27418854Y-124921548D02*
G01*
X27443441Y-124947742D01*
X27486361Y-125009596D01*
X27542203Y-125097745D01*
X27605555Y-125202823D01*
X27671006Y-125315465D01*
X27733144Y-125426308D01*
X27786558Y-125525986D01*
X27825836Y-125605135D01*
X27845566Y-125654389D01*
X27846868Y-125662231D01*
X27825942Y-125697727D01*
X27800172Y-125704375D01*
X27772184Y-125688803D01*
X27730403Y-125639803D01*
X27672436Y-125553943D01*
X27595886Y-125427795D01*
X27541689Y-125334221D01*
X27457424Y-125183920D01*
X27399144Y-125072497D01*
X27365094Y-124996156D01*
X27353515Y-124951097D01*
X27357615Y-124936353D01*
X27401484Y-124918709D01*
X27418854Y-124921548D01*
G37*
G36*
X40286017Y-91453419D02*
G01*
X40300942Y-91364557D01*
X40321986Y-91293637D01*
X40350160Y-91234069D01*
X40386474Y-91179263D01*
X40417637Y-91139769D01*
X40482200Y-91077023D01*
X40569319Y-91011317D01*
X40626897Y-90975763D01*
X40708601Y-90934719D01*
X40781018Y-90911930D01*
X40865736Y-90902476D01*
X40954082Y-90901195D01*
X41065538Y-90905077D01*
X41148362Y-90918818D01*
X41224597Y-90947506D01*
X41281268Y-90976692D01*
X41436055Y-91086302D01*
X41547071Y-91221862D01*
X41614356Y-91383450D01*
X41637953Y-91571145D01*
X41635379Y-91650644D01*
X41600874Y-91832339D01*
X41529382Y-91988014D01*
X41427370Y-92114526D01*
X41301305Y-92208730D01*
X41157653Y-92267480D01*
X41002881Y-92287633D01*
X40843457Y-92266043D01*
X40685847Y-92199566D01*
X40610443Y-92149047D01*
X40521417Y-92081143D01*
X40521417Y-92437308D01*
X40520994Y-92578915D01*
X40518889Y-92678394D01*
X40513849Y-92744516D01*
X40504620Y-92786051D01*
X40489949Y-92811771D01*
X40468582Y-92830447D01*
X40464852Y-92833092D01*
X40417994Y-92862911D01*
X40384635Y-92867558D01*
X40343261Y-92854160D01*
X40297483Y-92824447D01*
X40286386Y-92811631D01*
X40281339Y-92779532D01*
X40276779Y-92703587D01*
X40272899Y-92590847D01*
X40269896Y-92448368D01*
X40267962Y-92283202D01*
X40267298Y-92120081D01*
X40267852Y-91893554D01*
X40270483Y-91711328D01*
X40274750Y-91603475D01*
X40521417Y-91603475D01*
X40543660Y-91752639D01*
X40607410Y-91879527D01*
X40708195Y-91976505D01*
X40756154Y-92004362D01*
X40862596Y-92046136D01*
X40961189Y-92055540D01*
X41076253Y-92034631D01*
X41085194Y-92032185D01*
X41178107Y-91985269D01*
X41267621Y-91905264D01*
X41338678Y-91808630D01*
X41375715Y-91714624D01*
X41385027Y-91549443D01*
X41349973Y-91402699D01*
X41273221Y-91279735D01*
X41157437Y-91185893D01*
X41096931Y-91156082D01*
X41017010Y-91127020D01*
X40954145Y-91119885D01*
X40880490Y-91132630D01*
X40857808Y-91138502D01*
X40717795Y-91198893D01*
X40613872Y-91294381D01*
X40547912Y-91422375D01*
X40521789Y-91580288D01*
X40521417Y-91603475D01*
X40274750Y-91603475D01*
X40276201Y-91566813D01*
X40286017Y-91453419D01*
G37*
G36*
X15068590Y-79791286D02*
G01*
X15228645Y-79792940D01*
X15349052Y-79796870D01*
X15435440Y-79804035D01*
X15493433Y-79815394D01*
X15528660Y-79831907D01*
X15546746Y-79854534D01*
X15553318Y-79884233D01*
X15554082Y-79908749D01*
X15551147Y-79952068D01*
X15538342Y-79985156D01*
X15509665Y-80009382D01*
X15459113Y-80026114D01*
X15380685Y-80036718D01*
X15268380Y-80042563D01*
X15116195Y-80045016D01*
X14954168Y-80045457D01*
X14434243Y-80045457D01*
X14434243Y-80630828D01*
X14797618Y-80630828D01*
X14969069Y-80633145D01*
X15095749Y-80641158D01*
X15183625Y-80656453D01*
X15238660Y-80680620D01*
X15266822Y-80715246D01*
X15274122Y-80757707D01*
X15268798Y-80803467D01*
X15248397Y-80836961D01*
X15206274Y-80860032D01*
X15135786Y-80874525D01*
X15030288Y-80882281D01*
X14883136Y-80885147D01*
X14814188Y-80885337D01*
X14434243Y-80885337D01*
X14434243Y-81275881D01*
X14433640Y-81427328D01*
X14431238Y-81536139D01*
X14426151Y-81610570D01*
X14417489Y-81658879D01*
X14404363Y-81689323D01*
X14387699Y-81708546D01*
X14316098Y-81746389D01*
X14245185Y-81738308D01*
X14193902Y-81694102D01*
X14183041Y-81672649D01*
X14174315Y-81639108D01*
X14167501Y-81588299D01*
X14162378Y-81515041D01*
X14158723Y-81414154D01*
X14156314Y-81280457D01*
X14154928Y-81108769D01*
X14154344Y-80893911D01*
X14154283Y-80770807D01*
X14154554Y-80532814D01*
X14155518Y-80340539D01*
X14157396Y-80188803D01*
X14160410Y-80072424D01*
X14164784Y-79986223D01*
X14170738Y-79925019D01*
X14178496Y-79883632D01*
X14188279Y-79856880D01*
X14193902Y-79847513D01*
X14207475Y-79830006D01*
X14224778Y-79816545D01*
X14252098Y-79806597D01*
X14295720Y-79799631D01*
X14361931Y-79795116D01*
X14457015Y-79792521D01*
X14587259Y-79791315D01*
X14758949Y-79790967D01*
X14863261Y-79790948D01*
X15068590Y-79791286D01*
G37*
G36*
X15835583Y-80492903D02*
G01*
X15908040Y-80294350D01*
X16016687Y-80119268D01*
X16158244Y-79973898D01*
X16329429Y-79864482D01*
X16388830Y-79838514D01*
X16538228Y-79797980D01*
X16713824Y-79778472D01*
X16896699Y-79780010D01*
X17067935Y-79802619D01*
X17188072Y-79837561D01*
X17372962Y-79937679D01*
X17528817Y-80075497D01*
X17651751Y-80244458D01*
X17737879Y-80438008D01*
X17783317Y-80649591D01*
X17786431Y-80847160D01*
X17746756Y-81071106D01*
X17665786Y-81273301D01*
X17547136Y-81448297D01*
X17394419Y-81590644D01*
X17229311Y-81687025D01*
X17080981Y-81735197D01*
X16906029Y-81763670D01*
X16724920Y-81770976D01*
X16558116Y-81755646D01*
X16490063Y-81740083D01*
X16289400Y-81657055D01*
X16118273Y-81534507D01*
X15980290Y-81376719D01*
X15879056Y-81187974D01*
X15818176Y-80972553D01*
X15812358Y-80935449D01*
X15805270Y-80770807D01*
X16075826Y-80770807D01*
X16077605Y-80896550D01*
X16084455Y-80985759D01*
X16098643Y-81052725D01*
X16122436Y-81111740D01*
X16133263Y-81132807D01*
X16245345Y-81292990D01*
X16385895Y-81414177D01*
X16548242Y-81494203D01*
X16725717Y-81530903D01*
X16911651Y-81522109D01*
X17099374Y-81465656D01*
X17123935Y-81454527D01*
X17282102Y-81354144D01*
X17401522Y-81221291D01*
X17481243Y-81057594D01*
X17520313Y-80864677D01*
X17524380Y-80770807D01*
X17504472Y-80566094D01*
X17443997Y-80391483D01*
X17341824Y-80244896D01*
X17196826Y-80124255D01*
X17161169Y-80102222D01*
X17099500Y-80068973D01*
X17042265Y-80048355D01*
X16974213Y-80037423D01*
X16880091Y-80033234D01*
X16801176Y-80032731D01*
X16641247Y-80039070D01*
X16517245Y-80061291D01*
X16415416Y-80104200D01*
X16322004Y-80172601D01*
X16275701Y-80216316D01*
X16187519Y-80315779D01*
X16128542Y-80414542D01*
X16093747Y-80526544D01*
X16078107Y-80665726D01*
X16075826Y-80770807D01*
X15805270Y-80770807D01*
X15802595Y-80708683D01*
X15835583Y-80492903D01*
G37*
G36*
X39819856Y-112832083D02*
G01*
X39854827Y-112855671D01*
X39887514Y-112903777D01*
X39920415Y-112981331D01*
X39956027Y-113093261D01*
X39996849Y-113244496D01*
X40045380Y-113439965D01*
X40052348Y-113468730D01*
X40081295Y-113581749D01*
X40107532Y-113671999D01*
X40128272Y-113730699D01*
X40140731Y-113749065D01*
X40141157Y-113748690D01*
X40153890Y-113719326D01*
X40179003Y-113649573D01*
X40213698Y-113547631D01*
X40255177Y-113421698D01*
X40294172Y-113300361D01*
X40345751Y-113140893D01*
X40386193Y-113023626D01*
X40418393Y-112941834D01*
X40445248Y-112888787D01*
X40469652Y-112857758D01*
X40490740Y-112843621D01*
X40561980Y-112832687D01*
X40618933Y-112861942D01*
X40644267Y-112912139D01*
X40638666Y-112946559D01*
X40619013Y-113020923D01*
X40587960Y-113127088D01*
X40548158Y-113256914D01*
X40502260Y-113402262D01*
X40452916Y-113554990D01*
X40402779Y-113706958D01*
X40354501Y-113850025D01*
X40310733Y-113976051D01*
X40274127Y-114076895D01*
X40247335Y-114144417D01*
X40234926Y-114168753D01*
X40185336Y-114196082D01*
X40118776Y-114195991D01*
X40060889Y-114168900D01*
X40057670Y-114165849D01*
X40039821Y-114130558D01*
X40012410Y-114054863D01*
X39978325Y-113947720D01*
X39940453Y-113818081D01*
X39911997Y-113714096D01*
X39874393Y-113575214D01*
X39840230Y-113453605D01*
X39812000Y-113357789D01*
X39792194Y-113296281D01*
X39784331Y-113277747D01*
X39772448Y-113294594D01*
X39749671Y-113353199D01*
X39718478Y-113446206D01*
X39681348Y-113566261D01*
X39644316Y-113693417D01*
X39602301Y-113836665D01*
X39562233Y-113964233D01*
X39527057Y-114067416D01*
X39499720Y-114137508D01*
X39484927Y-114164483D01*
X39427933Y-114194518D01*
X39360813Y-114197140D01*
X39308736Y-114171748D01*
X39306183Y-114168753D01*
X39291490Y-114136619D01*
X39263498Y-114063029D01*
X39224666Y-113954924D01*
X39177453Y-113819251D01*
X39124319Y-113662951D01*
X39080682Y-113532195D01*
X39016415Y-113336027D01*
X38967903Y-113182642D01*
X38933778Y-113066889D01*
X38912670Y-112983618D01*
X38903210Y-112927676D01*
X38904029Y-112893912D01*
X38908194Y-112883197D01*
X38959578Y-112841475D01*
X39027382Y-112830311D01*
X39083066Y-112851358D01*
X39102115Y-112884365D01*
X39132718Y-112957379D01*
X39171601Y-113061714D01*
X39215489Y-113188682D01*
X39249337Y-113292340D01*
X39293719Y-113429453D01*
X39333901Y-113549560D01*
X39366966Y-113644257D01*
X39389999Y-113705144D01*
X39398996Y-113723631D01*
X39413078Y-113709163D01*
X39436599Y-113654815D01*
X39465914Y-113569898D01*
X39488700Y-113494573D01*
X39546022Y-113296923D01*
X39592246Y-113143047D01*
X39629388Y-113027534D01*
X39659464Y-112944973D01*
X39684490Y-112889954D01*
X39706481Y-112857067D01*
X39727454Y-112840901D01*
X39733067Y-112838744D01*
X39780102Y-112828083D01*
X39819856Y-112832083D01*
G37*
G36*
X20667Y-128572872D02*
G01*
X29032Y-128605777D01*
X11036Y-128648314D01*
X-21870Y-128656679D01*
X-64406Y-128638683D01*
X-72771Y-128605777D01*
X-54775Y-128563241D01*
X-21870Y-128554876D01*
X20667Y-128572872D01*
G37*
G36*
X37158269Y-47647515D02*
G01*
X37236288Y-47683428D01*
X37281718Y-47736957D01*
X37289152Y-47774542D01*
X37270184Y-47833578D01*
X37212093Y-47863813D01*
X37113102Y-47866009D01*
X37084096Y-47862592D01*
X36935101Y-47859592D01*
X36801794Y-47890388D01*
X36696007Y-47951586D01*
X36664924Y-47982772D01*
X36641787Y-48012107D01*
X36625149Y-48042214D01*
X36613941Y-48081598D01*
X36607091Y-48138763D01*
X36603528Y-48222214D01*
X36602181Y-48340456D01*
X36601978Y-48482628D01*
X36601104Y-48647828D01*
X36598063Y-48769760D01*
X36592231Y-48856038D01*
X36582980Y-48914271D01*
X36569685Y-48952073D01*
X36562358Y-48964243D01*
X36504937Y-49009944D01*
X36435936Y-49017183D01*
X36374834Y-48984498D01*
X36369673Y-48978695D01*
X36358207Y-48954351D01*
X36349390Y-48908739D01*
X36342934Y-48836374D01*
X36338548Y-48731772D01*
X36335945Y-48589450D01*
X36334834Y-48403924D01*
X36334744Y-48316033D01*
X36334889Y-48114611D01*
X36336167Y-47958350D01*
X36339838Y-47841510D01*
X36347162Y-47758350D01*
X36359401Y-47703130D01*
X36377815Y-47670110D01*
X36403665Y-47653549D01*
X36438211Y-47647707D01*
X36481716Y-47646849D01*
X36543039Y-47661513D01*
X36576975Y-47711265D01*
X36601615Y-47776072D01*
X36722688Y-47704903D01*
X36829869Y-47657912D01*
X36944940Y-47633513D01*
X37057779Y-47630462D01*
X37158269Y-47647515D01*
G37*
G36*
X38827925Y-26308157D02*
G01*
X38979997Y-26371207D01*
X39101944Y-26474361D01*
X39191430Y-26616041D01*
X39212560Y-26668501D01*
X39225645Y-26729947D01*
X39235919Y-26826402D01*
X39243323Y-26947681D01*
X39247795Y-27083603D01*
X39249275Y-27223985D01*
X39247702Y-27358644D01*
X39243015Y-27477397D01*
X39235153Y-27570061D01*
X39224057Y-27626454D01*
X39218331Y-27636960D01*
X39165517Y-27661926D01*
X39096564Y-27665190D01*
X39038080Y-27646926D01*
X39025178Y-27635687D01*
X39015490Y-27599805D01*
X39006410Y-27521350D01*
X38998575Y-27408654D01*
X38992622Y-27270045D01*
X38990248Y-27179368D01*
X38986474Y-27020227D01*
X38981882Y-26903490D01*
X38975424Y-26820663D01*
X38966048Y-26763248D01*
X38952706Y-26722750D01*
X38934348Y-26690673D01*
X38928926Y-26683076D01*
X38834058Y-26592794D01*
X38716724Y-26539149D01*
X38588853Y-26522473D01*
X38462372Y-26543097D01*
X38349209Y-26601355D01*
X38283985Y-26665114D01*
X38264299Y-26693683D01*
X38250160Y-26727128D01*
X38240660Y-26773863D01*
X38234890Y-26842304D01*
X38231945Y-26940865D01*
X38230916Y-27077961D01*
X38230836Y-27157971D01*
X38230320Y-27316574D01*
X38228251Y-27432137D01*
X38223848Y-27512515D01*
X38216327Y-27565563D01*
X38204907Y-27599136D01*
X38188805Y-27621090D01*
X38184293Y-27625380D01*
X38112691Y-27663223D01*
X38041778Y-27655142D01*
X37990495Y-27610936D01*
X37977297Y-27584586D01*
X37967293Y-27543851D01*
X37960075Y-27482251D01*
X37955238Y-27393303D01*
X37952373Y-27270529D01*
X37951074Y-27107448D01*
X37950876Y-26980327D01*
X37951394Y-26788355D01*
X37953220Y-26640796D01*
X37956760Y-26531171D01*
X37962422Y-26452997D01*
X37970614Y-26399795D01*
X37981741Y-26365084D01*
X37990495Y-26349717D01*
X38049339Y-26302625D01*
X38119174Y-26298771D01*
X38184494Y-26337930D01*
X38197013Y-26352686D01*
X38241919Y-26412219D01*
X38362799Y-26349504D01*
X38461823Y-26308302D01*
X38566838Y-26289620D01*
X38648061Y-26286789D01*
X38827925Y-26308157D01*
G37*
G36*
X15914881Y-61229231D02*
G01*
X16190724Y-61238836D01*
X16444163Y-61254444D01*
X16631422Y-61272257D01*
X17356045Y-61381228D01*
X18065747Y-61538746D01*
X18759667Y-61744438D01*
X19436940Y-61997929D01*
X20096705Y-62298845D01*
X20738097Y-62646812D01*
X21360254Y-63041454D01*
X21962312Y-63482399D01*
X22234944Y-63702905D01*
X22352503Y-63805486D01*
X22495772Y-63937678D01*
X22656470Y-64091198D01*
X22826318Y-64257768D01*
X22997035Y-64429107D01*
X23160341Y-64596935D01*
X23307955Y-64752972D01*
X23431598Y-64888937D01*
X23497836Y-64965797D01*
X23953044Y-65548174D01*
X24361048Y-66146781D01*
X24721460Y-66760809D01*
X25033892Y-67389449D01*
X25297958Y-68031891D01*
X25513270Y-68687325D01*
X25679439Y-69354942D01*
X25733995Y-69636038D01*
X25837791Y-70362313D01*
X25891665Y-71091889D01*
X25896251Y-71822150D01*
X25852185Y-72550483D01*
X25760101Y-73274271D01*
X25620635Y-73990900D01*
X25434419Y-74697755D01*
X25202090Y-75392220D01*
X24924283Y-76071681D01*
X24601631Y-76733522D01*
X24234770Y-77375129D01*
X23824335Y-77993886D01*
X23646342Y-78236740D01*
X23425507Y-78519940D01*
X23198585Y-78790405D01*
X22955437Y-79059524D01*
X22685926Y-79338691D01*
X22511843Y-79511353D01*
X22294434Y-79718080D01*
X22068298Y-79922120D01*
X21838559Y-80119552D01*
X21610343Y-80306456D01*
X21388776Y-80478909D01*
X21178981Y-80632990D01*
X20986085Y-80764777D01*
X20815212Y-80870350D01*
X20671488Y-80945786D01*
X20597804Y-80975860D01*
X20402779Y-81025662D01*
X20193430Y-81049336D01*
X19993121Y-81044757D01*
X19931637Y-81036456D01*
X19841947Y-81013476D01*
X19728653Y-80973635D01*
X19612792Y-80924531D01*
X19584977Y-80911251D01*
X19369155Y-80778119D01*
X19186709Y-80609906D01*
X19040717Y-80412430D01*
X18934257Y-80191511D01*
X18870408Y-79952972D01*
X18852249Y-79702631D01*
X18864568Y-79549164D01*
X18915437Y-79327332D01*
X19005585Y-79123637D01*
X19137621Y-78934636D01*
X19314152Y-78756886D01*
X19537789Y-78586946D01*
X19647235Y-78516553D01*
X20017106Y-78279124D01*
X20351748Y-78041766D01*
X20665532Y-77793105D01*
X20972828Y-77521767D01*
X21281241Y-77223185D01*
X21720392Y-76749548D01*
X22114413Y-76256238D01*
X22466189Y-75738840D01*
X22778605Y-75192940D01*
X23054549Y-74614124D01*
X23171564Y-74331729D01*
X23384129Y-73726156D01*
X23549039Y-73105731D01*
X23666153Y-72473866D01*
X23735326Y-71833971D01*
X23756418Y-71189460D01*
X23729286Y-70543743D01*
X23653787Y-69900233D01*
X23529780Y-69262341D01*
X23403076Y-68783646D01*
X23232461Y-68277987D01*
X23019471Y-67765376D01*
X22769583Y-67256218D01*
X22488274Y-66760921D01*
X22181018Y-66289890D01*
X21876223Y-65882030D01*
X21622187Y-65584374D01*
X21332093Y-65278693D01*
X21017255Y-64975584D01*
X20688990Y-64685644D01*
X20358611Y-64419470D01*
X20151212Y-64266433D01*
X19612893Y-63915525D01*
X19050214Y-63608162D01*
X18466332Y-63345066D01*
X17864403Y-63126959D01*
X17247586Y-62954563D01*
X16619036Y-62828602D01*
X15981911Y-62749796D01*
X15339368Y-62718867D01*
X14694563Y-62736539D01*
X14050654Y-62803532D01*
X13874323Y-62830671D01*
X13230325Y-62962163D01*
X12603304Y-63140835D01*
X11995462Y-63365225D01*
X11409001Y-63633869D01*
X10846122Y-63945307D01*
X10309027Y-64298075D01*
X9799919Y-64690711D01*
X9320998Y-65121752D01*
X8874466Y-65589737D01*
X8462526Y-66093204D01*
X8087380Y-66630688D01*
X8039606Y-66705883D01*
X7718573Y-67264692D01*
X7440507Y-67849900D01*
X7206149Y-68459483D01*
X7016239Y-69091417D01*
X6871519Y-69743677D01*
X6823270Y-70030527D01*
X6799575Y-70222517D01*
X6780111Y-70452965D01*
X6765205Y-70709577D01*
X6755182Y-70980059D01*
X6750368Y-71252118D01*
X6751090Y-71513460D01*
X6757672Y-71751790D01*
X6770441Y-71954816D01*
X6771855Y-71970402D01*
X6858612Y-72633943D01*
X6993010Y-73280744D01*
X7174354Y-73909321D01*
X7401948Y-74518192D01*
X7675095Y-75105873D01*
X7993101Y-75670881D01*
X8355270Y-76211734D01*
X8760905Y-76726949D01*
X9209311Y-77215042D01*
X9253074Y-77258916D01*
X9545352Y-77538872D01*
X9830118Y-77787283D01*
X10123810Y-78017520D01*
X10442866Y-78242951D01*
X10552980Y-78316242D01*
X10715004Y-78422860D01*
X10839444Y-78505732D01*
X10931260Y-78569058D01*
X10995412Y-78617038D01*
X11036859Y-78653874D01*
X11060560Y-78683766D01*
X11071475Y-78710916D01*
X11074564Y-78739524D01*
X11074723Y-78758177D01*
X11053492Y-78847119D01*
X10994801Y-78905459D01*
X10909482Y-78925617D01*
X10851163Y-78911651D01*
X10757647Y-78872133D01*
X10635486Y-78810637D01*
X10491230Y-78730736D01*
X10331429Y-78636003D01*
X10162633Y-78530011D01*
X10056687Y-78460444D01*
X9526441Y-78076583D01*
X9028688Y-77656666D01*
X8564387Y-77203448D01*
X8134499Y-76719680D01*
X7739983Y-76208115D01*
X7381797Y-75671504D01*
X7060902Y-75112601D01*
X6778257Y-74534158D01*
X6534821Y-73938926D01*
X6331554Y-73329659D01*
X6169414Y-72709108D01*
X6049363Y-72080026D01*
X5972358Y-71445165D01*
X5939359Y-70807278D01*
X5951326Y-70169117D01*
X6009217Y-69533433D01*
X6113994Y-68902981D01*
X6266614Y-68280511D01*
X6380655Y-67914656D01*
X6626299Y-67265282D01*
X6916957Y-66639531D01*
X7252707Y-66037278D01*
X7633628Y-65458398D01*
X8059799Y-64902765D01*
X8531297Y-64370254D01*
X8707790Y-64188565D01*
X9239545Y-63688747D01*
X9796282Y-63233225D01*
X10377335Y-62822328D01*
X10982035Y-62456384D01*
X11609718Y-62135723D01*
X12259716Y-61860673D01*
X12931363Y-61631562D01*
X13623992Y-61448719D01*
X14336937Y-61312472D01*
X14625124Y-61271420D01*
X14830621Y-61250937D01*
X15074503Y-61236481D01*
X15344613Y-61228048D01*
X15628791Y-61225633D01*
X15914881Y-61229231D01*
G37*
G36*
X41115701Y-47083204D02*
G01*
X41128045Y-47094211D01*
X41137218Y-47131241D01*
X41145183Y-47218103D01*
X41151895Y-47353741D01*
X41157309Y-47537099D01*
X41161380Y-47767120D01*
X41162975Y-47907403D01*
X41165938Y-48150009D01*
X41169824Y-48344959D01*
X41174787Y-48495491D01*
X41180976Y-48604845D01*
X41188545Y-48676260D01*
X41197644Y-48712975D01*
X41200934Y-48717955D01*
X41245061Y-48741950D01*
X41314277Y-48761664D01*
X41327700Y-48764084D01*
X41398583Y-48784416D01*
X41437368Y-48824045D01*
X41449373Y-48852030D01*
X41453768Y-48922820D01*
X41418287Y-48976440D01*
X41352241Y-49008821D01*
X41264942Y-49015891D01*
X41165701Y-48993580D01*
X41144964Y-48985112D01*
X41049671Y-48924773D01*
X40978026Y-48833394D01*
X40942327Y-48759822D01*
X40930812Y-48724352D01*
X40921706Y-48675441D01*
X40914753Y-48607387D01*
X40909694Y-48514488D01*
X40906271Y-48391041D01*
X40904227Y-48231344D01*
X40903304Y-48029695D01*
X40903180Y-47894150D01*
X40903789Y-47655518D01*
X40905708Y-47464160D01*
X40909075Y-47316461D01*
X40914026Y-47208807D01*
X40920700Y-47137582D01*
X40929235Y-47099173D01*
X40933721Y-47091629D01*
X40987253Y-47066403D01*
X41056817Y-47063713D01*
X41115701Y-47083204D01*
G37*
G36*
X5773145Y-96323070D02*
G01*
X5858939Y-96329859D01*
X5929152Y-96345657D01*
X6001426Y-96373982D01*
X6063194Y-96403398D01*
X6184458Y-96468201D01*
X6262193Y-96523895D01*
X6301600Y-96576087D01*
X6307879Y-96630383D01*
X6300490Y-96659304D01*
X6259031Y-96719822D01*
X6193145Y-96736358D01*
X6104036Y-96708907D01*
X6024003Y-96660377D01*
X5953248Y-96615021D01*
X5888393Y-96588178D01*
X5809666Y-96573887D01*
X5714265Y-96567014D01*
X5533762Y-96572500D01*
X5382465Y-96611678D01*
X5248296Y-96688457D01*
X5189679Y-96736869D01*
X5070437Y-96875746D01*
X4990938Y-97034979D01*
X4950096Y-97206487D01*
X4946824Y-97382189D01*
X4980036Y-97554005D01*
X5048648Y-97713855D01*
X5151572Y-97853660D01*
X5287724Y-97965338D01*
X5360026Y-98004489D01*
X5536025Y-98059726D01*
X5717259Y-98064700D01*
X5901556Y-98019510D01*
X5999037Y-97975617D01*
X6085936Y-97932545D01*
X6157863Y-97900921D01*
X6200941Y-97886780D01*
X6203907Y-97886539D01*
X6241049Y-97905994D01*
X6279569Y-97950166D01*
X6306444Y-98000291D01*
X6301867Y-98039743D01*
X6280832Y-98075493D01*
X6238135Y-98117336D01*
X6164404Y-98168608D01*
X6075299Y-98218465D01*
X6071868Y-98220163D01*
X5969453Y-98266039D01*
X5879060Y-98292917D01*
X5776804Y-98306562D01*
X5695791Y-98310950D01*
X5560498Y-98310270D01*
X5445378Y-98298713D01*
X5386447Y-98285003D01*
X5176492Y-98189797D01*
X4996212Y-98054939D01*
X4850101Y-97884390D01*
X4767482Y-97739383D01*
X4736610Y-97668285D01*
X4716689Y-97603688D01*
X4705383Y-97531006D01*
X4700357Y-97435651D01*
X4699273Y-97313358D01*
X4700217Y-97186913D01*
X4704876Y-97096475D01*
X4715992Y-97027159D01*
X4736304Y-96964079D01*
X4768554Y-96892351D01*
X4781766Y-96865295D01*
X4897436Y-96684466D01*
X5050231Y-96528498D01*
X5228751Y-96408574D01*
X5266368Y-96389978D01*
X5345619Y-96356517D01*
X5418891Y-96336067D01*
X5503578Y-96325567D01*
X5617077Y-96321957D01*
X5654128Y-96321768D01*
X5773145Y-96323070D01*
G37*
G36*
X26119097Y-123154244D02*
G01*
X26144995Y-123179677D01*
X26180954Y-123226422D01*
X26229247Y-123298046D01*
X26292149Y-123398114D01*
X26371932Y-123530192D01*
X26470870Y-123697846D01*
X26591237Y-123904640D01*
X26658402Y-124020774D01*
X26768904Y-124213389D01*
X26870466Y-124392836D01*
X26960428Y-124554231D01*
X27036130Y-124692693D01*
X27094911Y-124803337D01*
X27134111Y-124881281D01*
X27151070Y-124921641D01*
X27151420Y-124925697D01*
X27128071Y-124943419D01*
X27066007Y-124983178D01*
X26970720Y-125041772D01*
X26847699Y-125115996D01*
X26702435Y-125202650D01*
X26540416Y-125298530D01*
X26367134Y-125400433D01*
X26188079Y-125505157D01*
X26008740Y-125609499D01*
X25834607Y-125710257D01*
X25671170Y-125804228D01*
X25523920Y-125888210D01*
X25398346Y-125958999D01*
X25299939Y-126013393D01*
X25234188Y-126048189D01*
X25206660Y-126060189D01*
X25180031Y-126047799D01*
X25115838Y-126013304D01*
X25020465Y-125960275D01*
X24900299Y-125892287D01*
X24761724Y-125812911D01*
X24672118Y-125761141D01*
X24156987Y-125462591D01*
X24156737Y-124850683D01*
X24156487Y-124238774D01*
X25102430Y-123692667D01*
X25303930Y-123577027D01*
X25493196Y-123469733D01*
X25665405Y-123373422D01*
X25815735Y-123290730D01*
X25939366Y-123224294D01*
X26031474Y-123176753D01*
X26087238Y-123150741D01*
X26100987Y-123146559D01*
X26119097Y-123154244D01*
G37*
G36*
X22436727Y-96346393D02*
G01*
X22488010Y-96390599D01*
X22499314Y-96412943D01*
X22508300Y-96447764D01*
X22515218Y-96500486D01*
X22520322Y-96576532D01*
X22523862Y-96681329D01*
X22526092Y-96820301D01*
X22527263Y-96998873D01*
X22527627Y-97222469D01*
X22527629Y-97243204D01*
X22527629Y-98039244D01*
X23006106Y-98039244D01*
X23184968Y-98039833D01*
X23319285Y-98042598D01*
X23415409Y-98049037D01*
X23479693Y-98060649D01*
X23518490Y-98078932D01*
X23538151Y-98105384D01*
X23545029Y-98141503D01*
X23545665Y-98166499D01*
X23543787Y-98205681D01*
X23534245Y-98235871D01*
X23511177Y-98258240D01*
X23468722Y-98273958D01*
X23401019Y-98284194D01*
X23302207Y-98290119D01*
X23166424Y-98292904D01*
X22987809Y-98293717D01*
X22908247Y-98293753D01*
X22721043Y-98293452D01*
X22578139Y-98292215D01*
X22472938Y-98289547D01*
X22398840Y-98284951D01*
X22349246Y-98277931D01*
X22317558Y-98267989D01*
X22297176Y-98254629D01*
X22289790Y-98247210D01*
X22278495Y-98230317D01*
X22269392Y-98203767D01*
X22262250Y-98162420D01*
X22256840Y-98101136D01*
X22252929Y-98014774D01*
X22250288Y-97898195D01*
X22248685Y-97746258D01*
X22247889Y-97553824D01*
X22247669Y-97315751D01*
X22247669Y-97309471D01*
X22247817Y-97072035D01*
X22248430Y-96880316D01*
X22249770Y-96729129D01*
X22252092Y-96613290D01*
X22255658Y-96527615D01*
X22260724Y-96466918D01*
X22267549Y-96426017D01*
X22276393Y-96399725D01*
X22287512Y-96382860D01*
X22294212Y-96376155D01*
X22365814Y-96338312D01*
X22436727Y-96346393D01*
G37*
G36*
X15270427Y-37104116D02*
G01*
X15373345Y-36978247D01*
X15385216Y-36967758D01*
X15523168Y-36879208D01*
X15680019Y-36827139D01*
X15844808Y-36811318D01*
X16006575Y-36831515D01*
X16154361Y-36887498D01*
X16277204Y-36979037D01*
X16284552Y-36986734D01*
X16348283Y-37078185D01*
X16404564Y-37200636D01*
X16445010Y-37334197D01*
X16455888Y-37393171D01*
X16463398Y-37456830D01*
X16461740Y-37505326D01*
X16445120Y-37540722D01*
X16407741Y-37565078D01*
X16343807Y-37580457D01*
X16247523Y-37588920D01*
X16113094Y-37592529D01*
X15934723Y-37593343D01*
X15893092Y-37593353D01*
X15395859Y-37593353D01*
X15413035Y-37661790D01*
X15468724Y-37782118D01*
X15566991Y-37879694D01*
X15638648Y-37922030D01*
X15789188Y-37968276D01*
X15946736Y-37964389D01*
X16111303Y-37910714D01*
X16190162Y-37875928D01*
X16239710Y-37862276D01*
X16275978Y-37867755D01*
X16308548Y-37886098D01*
X16358849Y-37938015D01*
X16359200Y-37994033D01*
X16310276Y-38052962D01*
X16212754Y-38113613D01*
X16166998Y-38135146D01*
X16002859Y-38183649D01*
X15824549Y-38195844D01*
X15653047Y-38170903D01*
X15609188Y-38157181D01*
X15473068Y-38087080D01*
X15348307Y-37983762D01*
X15249546Y-37861133D01*
X15204284Y-37772700D01*
X15163543Y-37605018D01*
X15162802Y-37429617D01*
X15177377Y-37361397D01*
X15401377Y-37361397D01*
X15421923Y-37373297D01*
X15485187Y-37381851D01*
X15593606Y-37387228D01*
X15749616Y-37389596D01*
X15811350Y-37389745D01*
X16221324Y-37389745D01*
X16204116Y-37319755D01*
X16150885Y-37199586D01*
X16063324Y-37108793D01*
X15951080Y-37051117D01*
X15823800Y-37030303D01*
X15691129Y-37050093D01*
X15605087Y-37087335D01*
X15538543Y-37139066D01*
X15474322Y-37211772D01*
X15424650Y-37289004D01*
X15401750Y-37354315D01*
X15401377Y-37361397D01*
X15177377Y-37361397D01*
X15199338Y-37258611D01*
X15270427Y-37104116D01*
G37*
G36*
X38086361Y-50412313D02*
G01*
X38352275Y-50420559D01*
X38597922Y-50436621D01*
X38838042Y-50461959D01*
X39087372Y-50498032D01*
X39360650Y-50546299D01*
X39568547Y-50587007D01*
X40241068Y-50747812D01*
X40897698Y-50954876D01*
X41536222Y-51206264D01*
X42154425Y-51500046D01*
X42750096Y-51834288D01*
X43321019Y-52207058D01*
X43864981Y-52616422D01*
X44379769Y-53060450D01*
X44863168Y-53537207D01*
X45312965Y-54044762D01*
X45726946Y-54581182D01*
X46102898Y-55144535D01*
X46438607Y-55732887D01*
X46731859Y-56344307D01*
X46980440Y-56976861D01*
X47020015Y-57092057D01*
X47201731Y-57711959D01*
X47335480Y-58345172D01*
X47421502Y-58988668D01*
X47460040Y-59639420D01*
X47451333Y-60294403D01*
X47395623Y-60950588D01*
X47293151Y-61604950D01*
X47144159Y-62254461D01*
X46948887Y-62896094D01*
X46707578Y-63526823D01*
X46465207Y-64054610D01*
X46140181Y-64656187D01*
X45777553Y-65227724D01*
X45379283Y-65767116D01*
X44947328Y-66272263D01*
X44483646Y-66741062D01*
X43990195Y-67171411D01*
X43468933Y-67561207D01*
X42921818Y-67908349D01*
X42823103Y-67964815D01*
X42677433Y-68041870D01*
X42565430Y-68088657D01*
X42480864Y-68106520D01*
X42417506Y-68096801D01*
X42370552Y-68062441D01*
X42339793Y-68003358D01*
X42328431Y-67937122D01*
X42329439Y-67907042D01*
X42335774Y-67880288D01*
X42352398Y-67852698D01*
X42384277Y-67820109D01*
X42436372Y-67778360D01*
X42513650Y-67723286D01*
X42621072Y-67650726D01*
X42763603Y-67556518D01*
X42850174Y-67499609D01*
X43183842Y-67270783D01*
X43485781Y-67041881D01*
X43772789Y-66799235D01*
X44061661Y-66529179D01*
X44149467Y-66442502D01*
X44603523Y-65955111D01*
X45012881Y-65443662D01*
X45377696Y-64907842D01*
X45698127Y-64347339D01*
X45974330Y-63761838D01*
X46206463Y-63151026D01*
X46394682Y-62514591D01*
X46539145Y-61852219D01*
X46582616Y-61593553D01*
X46599276Y-61480333D01*
X46612430Y-61374871D01*
X46622492Y-61268870D01*
X46629875Y-61154029D01*
X46634993Y-61022047D01*
X46638259Y-60864627D01*
X46640086Y-60673468D01*
X46640888Y-60440269D01*
X46640915Y-60422811D01*
X46640526Y-60158119D01*
X46637915Y-59934331D01*
X46632204Y-59741467D01*
X46622512Y-59569548D01*
X46607958Y-59408592D01*
X46587664Y-59248621D01*
X46560750Y-59079654D01*
X46526334Y-58891712D01*
X46489336Y-58703652D01*
X46356938Y-58153749D01*
X46181107Y-57599728D01*
X45965990Y-57050876D01*
X45715735Y-56516480D01*
X45434490Y-56005824D01*
X45126403Y-55528197D01*
X44982232Y-55329330D01*
X44561880Y-54811691D01*
X44108236Y-54331526D01*
X43622833Y-53890240D01*
X43107207Y-53489242D01*
X42621116Y-53165519D01*
X42055683Y-52846169D01*
X41471199Y-52572793D01*
X40870601Y-52345623D01*
X40256828Y-52164887D01*
X39632817Y-52030816D01*
X39001507Y-51943640D01*
X38365835Y-51903589D01*
X37728741Y-51910892D01*
X37093160Y-51965781D01*
X36462033Y-52068485D01*
X35838296Y-52219234D01*
X35224888Y-52418259D01*
X34868730Y-52558538D01*
X34291272Y-52825106D01*
X33748640Y-53125315D01*
X33235246Y-53462925D01*
X32745504Y-53841695D01*
X32273826Y-54265386D01*
X32146800Y-54390013D01*
X31765023Y-54792527D01*
X31425404Y-55197093D01*
X31119994Y-55614730D01*
X30840847Y-56056460D01*
X30580013Y-56533302D01*
X30531160Y-56630206D01*
X30263330Y-57222044D01*
X30044367Y-57824031D01*
X29873912Y-58437890D01*
X29751606Y-59065347D01*
X29677092Y-59708124D01*
X29650012Y-60367945D01*
X29658626Y-60830026D01*
X29710534Y-61465402D01*
X29811738Y-62093839D01*
X29960784Y-62712365D01*
X30156220Y-63318003D01*
X30396594Y-63907780D01*
X30680453Y-64478722D01*
X31006346Y-65027854D01*
X31372819Y-65552201D01*
X31778420Y-66048790D01*
X32221697Y-66514646D01*
X32606186Y-66866400D01*
X33031613Y-67206861D01*
X33504853Y-67538599D01*
X33754908Y-67698325D01*
X33999127Y-67866244D01*
X34194985Y-68038753D01*
X34345020Y-68219733D01*
X34451768Y-68413068D01*
X34517765Y-68622638D01*
X34545549Y-68852324D01*
X34546809Y-68910152D01*
X34526749Y-69162789D01*
X34462684Y-69393747D01*
X34352449Y-69608449D01*
X34193878Y-69812317D01*
X34180947Y-69826285D01*
X34001785Y-69984020D01*
X33795063Y-70108076D01*
X33573082Y-70191958D01*
X33433341Y-70220920D01*
X33322016Y-70235431D01*
X33240353Y-70241672D01*
X33167776Y-70239544D01*
X33083703Y-70228951D01*
X33022084Y-70218977D01*
X32897237Y-70191400D01*
X32774580Y-70148678D01*
X32644349Y-70086075D01*
X32496779Y-69998857D01*
X32322106Y-69882291D01*
X32309228Y-69873339D01*
X31791295Y-69488026D01*
X31285493Y-69063618D01*
X30800501Y-68608470D01*
X30344997Y-68130938D01*
X29927662Y-67639378D01*
X29749571Y-67409084D01*
X29312572Y-66784298D01*
X28921992Y-66138659D01*
X28577924Y-65472401D01*
X28280459Y-64785757D01*
X28029686Y-64078959D01*
X27825698Y-63352241D01*
X27668585Y-62605834D01*
X27558439Y-61839973D01*
X27552360Y-61784435D01*
X27532406Y-61548091D01*
X27518351Y-61275093D01*
X27510203Y-60978472D01*
X27507970Y-60671258D01*
X27511660Y-60366481D01*
X27521280Y-60077172D01*
X27536838Y-59816360D01*
X27551097Y-59659284D01*
X27643299Y-58979395D01*
X27770973Y-58331978D01*
X27936255Y-57711041D01*
X28141279Y-57110590D01*
X28388181Y-56524633D01*
X28679096Y-55947176D01*
X29016158Y-55372228D01*
X29155921Y-55154475D01*
X29570609Y-54569063D01*
X30025754Y-54012689D01*
X30518483Y-53487682D01*
X31045919Y-52996373D01*
X31605189Y-52541091D01*
X32193416Y-52124168D01*
X32807728Y-51747932D01*
X33445248Y-51414715D01*
X34103101Y-51126846D01*
X34145966Y-51109967D01*
X34760885Y-50888493D01*
X35363083Y-50711290D01*
X35961608Y-50576618D01*
X36565511Y-50482737D01*
X37183844Y-50427908D01*
X37785445Y-50410424D01*
X38086361Y-50412313D01*
G37*
G36*
X16683671Y-59184678D02*
G01*
X16763144Y-59019641D01*
X16878114Y-58889238D01*
X17024051Y-58796654D01*
X17196428Y-58745075D01*
X17322920Y-58735041D01*
X17505590Y-58757058D01*
X17661310Y-58821056D01*
X17786497Y-58923792D01*
X17877566Y-59062023D01*
X17930932Y-59232508D01*
X17939387Y-59292634D01*
X17945816Y-59362041D01*
X17944868Y-59414537D01*
X17930551Y-59452482D01*
X17896869Y-59478237D01*
X17837827Y-59494164D01*
X17747430Y-59502622D01*
X17619684Y-59505974D01*
X17448593Y-59506580D01*
X17396156Y-59506579D01*
X16902980Y-59506579D01*
X16903148Y-59563844D01*
X16925548Y-59647400D01*
X16985548Y-59734919D01*
X17073025Y-59812661D01*
X17098850Y-59829473D01*
X17217202Y-59875285D01*
X17356087Y-59889595D01*
X17495806Y-59872086D01*
X17590154Y-59837441D01*
X17692372Y-59795689D01*
X17766529Y-59790830D01*
X17814122Y-59817080D01*
X17846758Y-59875818D01*
X17834480Y-59935385D01*
X17783055Y-59991857D01*
X17698249Y-60041309D01*
X17585827Y-60079816D01*
X17451556Y-60103451D01*
X17386547Y-60108149D01*
X17283825Y-60109288D01*
X17193529Y-60104869D01*
X17134226Y-60095843D01*
X17131873Y-60095116D01*
X16963328Y-60014342D01*
X16821228Y-59894375D01*
X16714848Y-59743138D01*
X16711109Y-59735840D01*
X16673502Y-59623078D01*
X16654618Y-59483359D01*
X16655492Y-59337458D01*
X16668531Y-59258433D01*
X16903148Y-59258433D01*
X16907058Y-59275190D01*
X16923761Y-59287152D01*
X16960492Y-59295114D01*
X17024488Y-59299870D01*
X17122986Y-59302216D01*
X17263223Y-59302948D01*
X17308418Y-59302972D01*
X17713856Y-59302972D01*
X17690683Y-59222172D01*
X17634632Y-59108262D01*
X17546941Y-59024936D01*
X17437446Y-58973273D01*
X17315985Y-58954351D01*
X17192394Y-58969247D01*
X17076511Y-59019041D01*
X16978172Y-59104809D01*
X16951283Y-59141137D01*
X16917971Y-59204117D01*
X16903189Y-59256676D01*
X16903148Y-59258433D01*
X16668531Y-59258433D01*
X16677157Y-59206149D01*
X16683671Y-59184678D01*
G37*
G36*
X24823231Y-2154066D02*
G01*
X24907749Y-2159541D01*
X24973096Y-2172688D01*
X25035128Y-2196796D01*
X25109707Y-2235155D01*
X25115838Y-2238476D01*
X25230193Y-2305080D01*
X25302777Y-2360300D01*
X25339519Y-2410514D01*
X25346350Y-2462102D01*
X25342583Y-2482420D01*
X25307409Y-2544323D01*
X25245045Y-2564739D01*
X25158040Y-2543490D01*
X25079201Y-2500778D01*
X24915894Y-2422417D01*
X24742245Y-2385746D01*
X24569169Y-2391187D01*
X24407582Y-2439163D01*
X24345308Y-2472382D01*
X24197704Y-2590529D01*
X24088438Y-2733694D01*
X24017040Y-2894463D01*
X23983038Y-3065425D01*
X23985960Y-3239168D01*
X24025336Y-3408281D01*
X24100695Y-3565352D01*
X24211564Y-3702969D01*
X24357473Y-3813719D01*
X24433048Y-3852204D01*
X24545164Y-3882812D01*
X24682122Y-3893038D01*
X24822894Y-3883487D01*
X24946457Y-3854763D01*
X24990004Y-3836182D01*
X25072719Y-3793248D01*
X25072719Y-3336439D01*
X24874202Y-3336439D01*
X24753775Y-3332355D01*
X24675832Y-3317768D01*
X24632437Y-3289180D01*
X24615657Y-3243088D01*
X24614603Y-3221910D01*
X24620228Y-3176312D01*
X24642091Y-3144505D01*
X24687675Y-3124107D01*
X24764465Y-3112737D01*
X24879943Y-3108015D01*
X24974563Y-3107381D01*
X25111300Y-3108037D01*
X25210335Y-3114718D01*
X25277744Y-3134488D01*
X25319606Y-3174413D01*
X25341999Y-3241558D01*
X25351001Y-3342990D01*
X25352691Y-3485773D01*
X25352679Y-3546924D01*
X25352329Y-3681164D01*
X25350101Y-3774397D01*
X25344231Y-3836517D01*
X25332954Y-3877419D01*
X25314505Y-3906998D01*
X25287120Y-3935149D01*
X25282689Y-3939335D01*
X25157349Y-4027431D01*
X24999223Y-4093262D01*
X24822647Y-4133810D01*
X24641954Y-4146062D01*
X24471480Y-4127002D01*
X24434649Y-4117709D01*
X24242337Y-4037697D01*
X24067554Y-3915227D01*
X23919165Y-3758000D01*
X23806031Y-3573719D01*
X23804257Y-3569954D01*
X23773557Y-3499131D01*
X23753764Y-3434490D01*
X23742551Y-3361443D01*
X23737590Y-3265405D01*
X23736547Y-3145557D01*
X23737817Y-3016078D01*
X23743199Y-2922830D01*
X23755049Y-2851169D01*
X23775722Y-2786455D01*
X23805160Y-2719187D01*
X23906569Y-2551432D01*
X24041320Y-2399973D01*
X24196225Y-2278198D01*
X24290807Y-2226122D01*
X24371631Y-2191393D01*
X24442403Y-2169702D01*
X24519921Y-2158075D01*
X24620983Y-2153534D01*
X24703681Y-2152972D01*
X24823231Y-2154066D01*
G37*
G36*
X40248364Y-69278468D02*
G01*
X40344275Y-69308384D01*
X40403464Y-69355338D01*
X40419613Y-69404450D01*
X40408274Y-69452673D01*
X40369417Y-69483260D01*
X40295780Y-69499000D01*
X40180103Y-69502681D01*
X40164377Y-69502467D01*
X40031878Y-69506272D01*
X39932650Y-69524530D01*
X39875650Y-69546590D01*
X39819239Y-69578595D01*
X39776836Y-69617948D01*
X39746499Y-69671907D01*
X39726287Y-69747732D01*
X39714258Y-69852683D01*
X39708473Y-69994019D01*
X39706988Y-70177325D01*
X39705420Y-70356140D01*
X39700576Y-70487206D01*
X39692248Y-70573580D01*
X39680224Y-70618322D01*
X39676447Y-70623533D01*
X39617166Y-70651175D01*
X39545479Y-70645287D01*
X39492473Y-70614080D01*
X39479522Y-70594748D01*
X39469633Y-70561832D01*
X39462417Y-70509111D01*
X39457483Y-70430365D01*
X39454442Y-70319373D01*
X39452904Y-70169915D01*
X39452479Y-69976134D01*
X39453619Y-69777169D01*
X39456902Y-69608209D01*
X39462123Y-69474301D01*
X39469075Y-69380491D01*
X39477555Y-69331827D01*
X39478825Y-69328954D01*
X39525154Y-69287052D01*
X39588430Y-69278115D01*
X39651154Y-69297801D01*
X39695826Y-69341767D01*
X39706988Y-69385568D01*
X39712957Y-69406869D01*
X39736961Y-69405584D01*
X39788146Y-69379213D01*
X39835403Y-69350501D01*
X39923918Y-69301960D01*
X40004504Y-69277407D01*
X40104239Y-69269150D01*
X40122837Y-69268837D01*
X40248364Y-69278468D01*
G37*
G36*
X15782089Y-17960531D02*
G01*
X16029940Y-17966230D01*
X16264207Y-17975715D01*
X16474172Y-17988909D01*
X16648471Y-18005656D01*
X17381366Y-18119077D01*
X18096442Y-18280167D01*
X18793451Y-18488820D01*
X19472146Y-18744934D01*
X20132280Y-19048404D01*
X20773606Y-19399125D01*
X21395874Y-19796994D01*
X21998839Y-20241906D01*
X22044062Y-20277795D01*
X22201626Y-20409452D01*
X22383585Y-20571464D01*
X22581374Y-20755394D01*
X22786427Y-20952809D01*
X22990179Y-21155274D01*
X23184064Y-21354353D01*
X23359516Y-21541613D01*
X23507970Y-21708618D01*
X23560553Y-21771108D01*
X23943937Y-22266264D01*
X24299778Y-22785862D01*
X24624629Y-23323351D01*
X24915042Y-23872177D01*
X25167570Y-24425787D01*
X25378763Y-24977627D01*
X25545176Y-25521146D01*
X25556745Y-25565205D01*
X25716715Y-26283351D01*
X25826924Y-27009638D01*
X25887394Y-27741597D01*
X25898148Y-28476758D01*
X25859207Y-29212652D01*
X25770595Y-29946810D01*
X25632333Y-30676764D01*
X25505696Y-31185090D01*
X25282875Y-31901876D01*
X25012576Y-32601399D01*
X24695922Y-33281517D01*
X24334040Y-33940089D01*
X23928053Y-34574976D01*
X23479087Y-35184035D01*
X23268665Y-35442751D01*
X23051486Y-35690334D01*
X22801927Y-35954838D01*
X22530622Y-36225968D01*
X22248207Y-36493426D01*
X21965316Y-36746918D01*
X21692583Y-36976148D01*
X21646949Y-37012797D01*
X21521086Y-37110473D01*
X21379460Y-37216015D01*
X21231032Y-37323168D01*
X21084764Y-37425673D01*
X20949620Y-37517273D01*
X20834562Y-37591711D01*
X20748553Y-37642730D01*
X20732915Y-37650953D01*
X20507561Y-37737227D01*
X20265422Y-37779639D01*
X20018589Y-37776243D01*
X19982539Y-37771750D01*
X19739937Y-37713549D01*
X19518462Y-37612660D01*
X19322033Y-37474299D01*
X19154570Y-37303682D01*
X19019992Y-37106027D01*
X18922219Y-36886549D01*
X18865171Y-36650465D01*
X18852766Y-36402992D01*
X18863690Y-36282631D01*
X18908012Y-36097128D01*
X18986652Y-35904224D01*
X19090329Y-35722786D01*
X19209758Y-35571676D01*
X19217461Y-35563742D01*
X19285802Y-35503275D01*
X19386318Y-35425775D01*
X19507205Y-35339832D01*
X19636659Y-35254040D01*
X19682905Y-35224959D01*
X20236352Y-34853196D01*
X20754405Y-34445800D01*
X21235837Y-34004676D01*
X21679421Y-33531730D01*
X22083929Y-33028865D01*
X22448134Y-32497986D01*
X22770809Y-31940999D01*
X23050726Y-31359809D01*
X23286658Y-30756319D01*
X23477379Y-30132436D01*
X23621660Y-29490063D01*
X23699464Y-28990948D01*
X23739062Y-28560813D01*
X23754234Y-28100331D01*
X23745671Y-27623430D01*
X23714062Y-27144036D01*
X23660096Y-26676078D01*
X23584462Y-26233482D01*
X23556471Y-26102483D01*
X23389553Y-25472678D01*
X23178308Y-24865032D01*
X22924780Y-24281135D01*
X22631015Y-23722577D01*
X22299056Y-23190946D01*
X21930949Y-22687833D01*
X21528738Y-22214827D01*
X21094467Y-21773517D01*
X20630182Y-21365493D01*
X20137927Y-20992345D01*
X19619745Y-20655661D01*
X19077683Y-20357032D01*
X18513785Y-20098046D01*
X17930094Y-19880294D01*
X17328656Y-19705365D01*
X16711516Y-19574848D01*
X16080718Y-19490333D01*
X15438306Y-19453410D01*
X15006888Y-19455946D01*
X14635126Y-19472808D01*
X14297092Y-19500381D01*
X13976306Y-19540999D01*
X13656289Y-19596992D01*
X13320562Y-19670695D01*
X13098070Y-19726105D01*
X12476599Y-19912511D01*
X11876387Y-20144066D01*
X11299373Y-20418826D01*
X10747497Y-20734848D01*
X10222699Y-21090187D01*
X9726918Y-21482900D01*
X9262094Y-21911043D01*
X8830166Y-22372673D01*
X8433074Y-22865844D01*
X8072757Y-23388614D01*
X7751155Y-23939038D01*
X7470208Y-24515173D01*
X7231854Y-25115075D01*
X7038033Y-25736800D01*
X7015382Y-25822310D01*
X6947239Y-26094277D01*
X6891994Y-26338813D01*
X6848418Y-26566385D01*
X6815276Y-26787457D01*
X6791339Y-27012495D01*
X6775374Y-27251962D01*
X6766149Y-27516324D01*
X6762432Y-27816045D01*
X6762239Y-27972912D01*
X6764059Y-28263966D01*
X6769299Y-28514591D01*
X6779029Y-28735205D01*
X6794320Y-28936226D01*
X6816243Y-29128073D01*
X6845867Y-29321165D01*
X6884265Y-29525918D01*
X6932505Y-29752752D01*
X6955769Y-29856278D01*
X7123654Y-30481385D01*
X7338386Y-31089672D01*
X7598099Y-31678472D01*
X7900928Y-32245114D01*
X8245007Y-32786929D01*
X8628471Y-33301249D01*
X9049453Y-33785403D01*
X9506088Y-34236723D01*
X9996511Y-34652540D01*
X10518857Y-35030183D01*
X10616642Y-35094232D01*
X10767853Y-35192091D01*
X10881511Y-35267238D01*
X10962971Y-35324347D01*
X11017588Y-35368092D01*
X11050715Y-35403149D01*
X11067707Y-35434191D01*
X11073918Y-35465894D01*
X11074723Y-35494146D01*
X11052675Y-35579258D01*
X10992107Y-35636804D01*
X10901385Y-35659038D01*
X10896604Y-35659084D01*
X10840505Y-35644738D01*
X10749565Y-35604294D01*
X10630074Y-35541647D01*
X10488321Y-35460689D01*
X10330594Y-35365314D01*
X10163183Y-35259414D01*
X9992375Y-35146883D01*
X9824460Y-35031614D01*
X9665726Y-34917500D01*
X9522462Y-34808435D01*
X9522218Y-34808243D01*
X9006228Y-34369004D01*
X8524409Y-33893160D01*
X8078389Y-33383241D01*
X7669792Y-32841779D01*
X7300247Y-32271306D01*
X6971378Y-31674353D01*
X6684813Y-31053453D01*
X6442178Y-30411137D01*
X6245098Y-29749937D01*
X6226763Y-29678122D01*
X6082128Y-29003503D01*
X5987343Y-28330810D01*
X5942323Y-27661550D01*
X5946982Y-26997231D01*
X6001234Y-26339360D01*
X6104995Y-25689443D01*
X6258178Y-25048988D01*
X6460697Y-24419501D01*
X6536586Y-24218904D01*
X6810923Y-23588940D01*
X7130353Y-22980305D01*
X7492777Y-22395263D01*
X7896091Y-21836074D01*
X8338193Y-21305003D01*
X8816983Y-20804312D01*
X9330359Y-20336263D01*
X9876217Y-19903120D01*
X10452458Y-19507145D01*
X11056978Y-19150600D01*
X11418311Y-18963461D01*
X11991260Y-18701649D01*
X12566485Y-18480583D01*
X13152790Y-18297667D01*
X13758982Y-18150305D01*
X14393867Y-18035900D01*
X14714202Y-17991576D01*
X14869204Y-17977169D01*
X15064212Y-17966939D01*
X15288507Y-17960808D01*
X15531372Y-17958698D01*
X15782089Y-17960531D01*
G37*
G36*
X34732150Y-90337473D02*
G01*
X34768200Y-90319148D01*
X34815352Y-90308163D01*
X34884040Y-90303715D01*
X34984697Y-90305002D01*
X35094826Y-90309603D01*
X35266755Y-90320879D01*
X35398463Y-90337737D01*
X35500553Y-90362961D01*
X35583628Y-90399333D01*
X35658293Y-90449637D01*
X35672774Y-90461305D01*
X35779620Y-90574422D01*
X35845491Y-90707406D01*
X35874033Y-90868597D01*
X35875871Y-90925717D01*
X35864111Y-91075985D01*
X35823369Y-91200488D01*
X35747578Y-91309646D01*
X35630667Y-91413880D01*
X35563946Y-91461335D01*
X35574164Y-91483371D01*
X35607136Y-91540872D01*
X35658377Y-91626304D01*
X35723401Y-91732130D01*
X35761191Y-91792746D01*
X35832803Y-91909955D01*
X35893468Y-92014740D01*
X35938380Y-92098364D01*
X35962731Y-92152088D01*
X35965705Y-92164532D01*
X35945958Y-92210186D01*
X35902078Y-92251505D01*
X35852004Y-92278388D01*
X35812599Y-92273847D01*
X35776454Y-92252573D01*
X35742007Y-92217339D01*
X35687801Y-92146898D01*
X35619968Y-92049868D01*
X35544639Y-91934865D01*
X35502856Y-91868085D01*
X35291257Y-91524221D01*
X35106738Y-91524017D01*
X34922218Y-91523814D01*
X34922218Y-91865958D01*
X34921756Y-92004398D01*
X34919481Y-92100929D01*
X34914062Y-92164540D01*
X34904166Y-92204220D01*
X34888462Y-92228959D01*
X34865654Y-92247721D01*
X34819103Y-92277063D01*
X34794964Y-92287341D01*
X34765846Y-92274273D01*
X34724274Y-92247721D01*
X34667709Y-92208102D01*
X34667709Y-91269304D01*
X34922218Y-91269304D01*
X35145311Y-91269304D01*
X35275731Y-91265725D01*
X35369004Y-91253652D01*
X35438470Y-91231083D01*
X35455118Y-91222799D01*
X35552549Y-91145580D01*
X35611111Y-91046281D01*
X35631225Y-90935186D01*
X35613309Y-90822581D01*
X35557782Y-90718752D01*
X35465062Y-90633983D01*
X35430323Y-90613944D01*
X35352161Y-90581135D01*
X35266677Y-90563303D01*
X35154712Y-90556906D01*
X35120433Y-90556679D01*
X34922218Y-90556679D01*
X34922218Y-91269304D01*
X34667709Y-91269304D01*
X34667709Y-90379696D01*
X34732150Y-90337473D01*
G37*
G36*
X16762615Y-37227025D02*
G01*
X16829275Y-37111942D01*
X16903414Y-37023184D01*
X17037157Y-36913427D01*
X17195043Y-36841356D01*
X17365759Y-36809056D01*
X17537991Y-36818613D01*
X17700427Y-36872110D01*
X17706576Y-36875201D01*
X17832623Y-36961815D01*
X17944635Y-37079735D01*
X18028760Y-37212669D01*
X18059292Y-37290144D01*
X18071876Y-37357483D01*
X18082351Y-37462171D01*
X18090670Y-37595829D01*
X18096785Y-37750073D01*
X18100650Y-37916524D01*
X18102218Y-38086798D01*
X18101439Y-38252516D01*
X18098269Y-38405296D01*
X18092658Y-38536756D01*
X18084559Y-38638515D01*
X18073926Y-38702192D01*
X18067359Y-38717497D01*
X18002100Y-38766597D01*
X17928387Y-38771452D01*
X17921016Y-38769254D01*
X17892103Y-38755223D01*
X17871598Y-38730389D01*
X17858073Y-38686871D01*
X17850097Y-38616787D01*
X17846241Y-38512256D01*
X17845074Y-38365396D01*
X17845053Y-38350517D01*
X17843385Y-38223689D01*
X17839079Y-38117359D01*
X17832729Y-38040715D01*
X17824934Y-38002946D01*
X17822329Y-38000567D01*
X17789434Y-38018016D01*
X17766767Y-38040604D01*
X17700154Y-38094701D01*
X17601564Y-38144530D01*
X17489762Y-38181785D01*
X17416620Y-38195598D01*
X17246913Y-38191336D01*
X17088642Y-38140196D01*
X16948499Y-38045981D01*
X16833176Y-37912494D01*
X16790836Y-37839990D01*
X16748394Y-37747095D01*
X16725769Y-37663937D01*
X16717452Y-37565944D01*
X16716911Y-37510221D01*
X16717565Y-37500525D01*
X16966727Y-37500525D01*
X16983597Y-37641119D01*
X17033761Y-37768970D01*
X17115468Y-37870069D01*
X17119379Y-37873368D01*
X17181191Y-37909265D01*
X17268764Y-37943615D01*
X17357455Y-37967780D01*
X17406453Y-37973999D01*
X17468117Y-37964966D01*
X17544914Y-37941295D01*
X17558227Y-37935969D01*
X17668012Y-37877337D01*
X17744397Y-37800862D01*
X17796797Y-37707882D01*
X17833986Y-37575421D01*
X17834031Y-37434671D01*
X17799535Y-37300634D01*
X17733097Y-37188310D01*
X17700984Y-37155295D01*
X17619858Y-37101882D01*
X17517638Y-37058572D01*
X17419913Y-37035467D01*
X17393727Y-37033992D01*
X17276333Y-37057105D01*
X17160201Y-37117673D01*
X17063635Y-37205186D01*
X17039871Y-37237142D01*
X16984901Y-37361197D01*
X16966727Y-37500525D01*
X16717565Y-37500525D01*
X16727461Y-37353775D01*
X16762615Y-37227025D01*
G37*
G36*
X29372222Y-2820882D02*
G01*
X29447528Y-2629197D01*
X29542136Y-2490617D01*
X29674463Y-2362685D01*
X29831347Y-2257484D01*
X29878903Y-2233262D01*
X29958139Y-2197429D01*
X30024280Y-2174198D01*
X30092460Y-2160868D01*
X30177814Y-2154740D01*
X30295478Y-2153113D01*
X30328331Y-2153091D01*
X30458130Y-2154447D01*
X30551658Y-2159938D01*
X30623517Y-2171893D01*
X30688305Y-2192641D01*
X30752728Y-2220801D01*
X30938348Y-2334399D01*
X31090126Y-2482874D01*
X31205308Y-2660794D01*
X31281141Y-2862732D01*
X31314871Y-3083256D01*
X31304820Y-3309331D01*
X31251621Y-3523633D01*
X31158083Y-3711902D01*
X31029401Y-3870859D01*
X30870767Y-3997227D01*
X30687378Y-4087726D01*
X30484426Y-4139079D01*
X30267105Y-4148005D01*
X30040611Y-4111227D01*
X30036262Y-4110067D01*
X29849427Y-4040245D01*
X29688430Y-3934901D01*
X29569118Y-3819429D01*
X29452473Y-3653018D01*
X29373512Y-3460664D01*
X29333183Y-3251661D01*
X29332525Y-3060694D01*
X29587973Y-3060694D01*
X29589928Y-3222550D01*
X29628170Y-3389759D01*
X29696805Y-3548132D01*
X29789940Y-3683481D01*
X29881904Y-3768366D01*
X30029137Y-3844783D01*
X30200029Y-3887825D01*
X30378598Y-3896049D01*
X30548860Y-3868008D01*
X30633742Y-3836339D01*
X30795129Y-3734843D01*
X30918708Y-3600666D01*
X31002637Y-3437144D01*
X31045072Y-3247617D01*
X31048261Y-3085153D01*
X31014864Y-2883661D01*
X30942545Y-2712033D01*
X30834508Y-2573395D01*
X30693955Y-2470869D01*
X30524089Y-2407581D01*
X30332128Y-2386637D01*
X30132828Y-2409624D01*
X29958482Y-2475527D01*
X29812757Y-2581023D01*
X29699318Y-2722793D01*
X29621835Y-2897513D01*
X29587973Y-3060694D01*
X29332525Y-3060694D01*
X29332437Y-3035302D01*
X29372222Y-2820882D01*
G37*
G36*
X27200983Y-125021682D02*
G01*
X27227492Y-125045849D01*
X27272014Y-125106054D01*
X27329311Y-125193257D01*
X27394144Y-125298417D01*
X27461274Y-125412495D01*
X27525464Y-125526450D01*
X27581473Y-125631241D01*
X27624063Y-125717829D01*
X27647997Y-125777173D01*
X27650767Y-125797877D01*
X27619565Y-125829091D01*
X27575164Y-125819570D01*
X27532428Y-125774365D01*
X27507008Y-125732008D01*
X27461900Y-125655362D01*
X27402842Y-125554232D01*
X27335573Y-125438424D01*
X27314231Y-125401561D01*
X27232763Y-125255808D01*
X27179691Y-125148167D01*
X27153991Y-125075210D01*
X27154641Y-125033506D01*
X27180619Y-125019628D01*
X27200983Y-125021682D01*
G37*
G36*
X16583242Y-112831704D02*
G01*
X16710629Y-112866467D01*
X16819039Y-112918727D01*
X16899893Y-112983537D01*
X16944613Y-113055950D01*
X16949616Y-113110050D01*
X16921844Y-113160566D01*
X16862317Y-113178036D01*
X16778294Y-113162104D01*
X16693915Y-113122545D01*
X16581150Y-113074327D01*
X16460688Y-113050667D01*
X16346874Y-113052056D01*
X16254053Y-113078984D01*
X16215806Y-113106178D01*
X16170463Y-113171245D01*
X16172061Y-113230116D01*
X16221554Y-113283778D01*
X16319901Y-113333216D01*
X16468055Y-113379418D01*
X16484844Y-113383696D01*
X16649669Y-113430304D01*
X16771966Y-113478585D01*
X16860015Y-113533321D01*
X16922096Y-113599293D01*
X16954687Y-113655036D01*
X16989964Y-113779815D01*
X16977404Y-113900977D01*
X16919971Y-114011727D01*
X16820632Y-114105274D01*
X16737549Y-114152464D01*
X16651126Y-114177801D01*
X16533733Y-114193670D01*
X16404568Y-114199219D01*
X16282830Y-114193595D01*
X16190355Y-114176767D01*
X16106745Y-114144684D01*
X16016621Y-114100325D01*
X15937818Y-114053374D01*
X15888168Y-114013519D01*
X15886762Y-114011876D01*
X15865456Y-113951222D01*
X15880720Y-113882995D01*
X15926332Y-113827188D01*
X15948231Y-113814328D01*
X16002537Y-113800173D01*
X16054459Y-113819012D01*
X16077123Y-113834281D01*
X16193752Y-113909607D01*
X16294624Y-113952736D01*
X16397007Y-113970202D01*
X16439765Y-113971469D01*
X16551233Y-113961191D01*
X16643772Y-113933390D01*
X16706338Y-113892725D01*
X16727839Y-113849964D01*
X16724776Y-113777329D01*
X16699744Y-113720986D01*
X16645987Y-113675740D01*
X16556751Y-113636398D01*
X16425281Y-113597765D01*
X16387427Y-113588202D01*
X16204338Y-113531100D01*
X16068695Y-113461536D01*
X15978250Y-113378068D01*
X15936368Y-113298641D01*
X15918293Y-113174504D01*
X15945959Y-113062346D01*
X16014786Y-112966481D01*
X16120193Y-112891220D01*
X16257600Y-112840874D01*
X16422428Y-112819755D01*
X16445458Y-112819382D01*
X16583242Y-112831704D01*
G37*
%LPC*%
D13*
X38100000Y-17145000D03*
D14*
X5715000Y-113030000D03*
X47625000Y-91440000D03*
X5715000Y-80645000D03*
X47625000Y-113030000D03*
X47625000Y-26670000D03*
D13*
X15240000Y-27940000D03*
X38100000Y-81915000D03*
D15*
X5715000Y-92710000D03*
D13*
X38100000Y-38735000D03*
X15240000Y-49530000D03*
D16*
X15240000Y-92710000D03*
D14*
X47625000Y-48260000D03*
D17*
X47630000Y-125500000D03*
X5710000Y-3000000D03*
D15*
X15240000Y-13335000D03*
D14*
X47625000Y-69850000D03*
D15*
X5080000Y-38735000D03*
D13*
X38100000Y-103505000D03*
D17*
X3000000Y-125500000D03*
X47630000Y-3000000D03*
D15*
X24765000Y-92710000D03*
D13*
X38100000Y-60325000D03*
X15240000Y-71120000D03*
M02*
