G04 #@! TF.GenerationSoftware,KiCad,Pcbnew,(6.0.0)*
G04 #@! TF.CreationDate,2022-08-25T14:32:43+02:00*
G04 #@! TF.ProjectId,FG-VCO-(panel),46472d56-434f-42d2-9870-616e656c292e,rev?*
G04 #@! TF.SameCoordinates,Original*
G04 #@! TF.FileFunction,Legend,Bot*
G04 #@! TF.FilePolarity,Positive*
%FSLAX46Y46*%
G04 Gerber Fmt 4.6, Leading zero omitted, Abs format (unit mm)*
G04 Created by KiCad (PCBNEW (6.0.0)) date 2022-08-25 14:32:43*
%MOMM*%
%LPD*%
G01*
G04 APERTURE LIST*
%ADD10C,0.150000*%
%ADD11C,6.500000*%
%ADD12C,6.000000*%
%ADD13C,3.200000*%
%ADD14C,5.000000*%
%ADD15O,5.500000X3.200000*%
G04 APERTURE END LIST*
D10*
X46355000Y-6350000D02*
G75*
G03*
X46355000Y-6350000I-8255000J0D01*
G01*
X23495000Y-17145000D02*
G75*
G03*
X23495000Y-17145000I-8255000J0D01*
G01*
X31289047Y-114069880D02*
X31289047Y-114784166D01*
X31336666Y-114927023D01*
X31431904Y-115022261D01*
X31574761Y-115069880D01*
X31670000Y-115069880D01*
X30336666Y-115069880D02*
X30812857Y-115069880D01*
X30812857Y-114069880D01*
X29431904Y-114974642D02*
X29479523Y-115022261D01*
X29622380Y-115069880D01*
X29717619Y-115069880D01*
X29860476Y-115022261D01*
X29955714Y-114927023D01*
X30003333Y-114831785D01*
X30050952Y-114641309D01*
X30050952Y-114498452D01*
X30003333Y-114307976D01*
X29955714Y-114212738D01*
X29860476Y-114117500D01*
X29717619Y-114069880D01*
X29622380Y-114069880D01*
X29479523Y-114117500D01*
X29431904Y-114165119D01*
X28717619Y-114069880D02*
X28717619Y-114784166D01*
X28765238Y-114927023D01*
X28860476Y-115022261D01*
X29003333Y-115069880D01*
X29098571Y-115069880D01*
X27765238Y-115069880D02*
X28241428Y-115069880D01*
X28241428Y-114069880D01*
X26860476Y-114974642D02*
X26908095Y-115022261D01*
X27050952Y-115069880D01*
X27146190Y-115069880D01*
X27289047Y-115022261D01*
X27384285Y-114927023D01*
X27431904Y-114831785D01*
X27479523Y-114641309D01*
X27479523Y-114498452D01*
X27431904Y-114307976D01*
X27384285Y-114212738D01*
X27289047Y-114117500D01*
X27146190Y-114069880D01*
X27050952Y-114069880D01*
X26908095Y-114117500D01*
X26860476Y-114165119D01*
X26146190Y-114069880D02*
X26146190Y-114784166D01*
X26193809Y-114927023D01*
X26289047Y-115022261D01*
X26431904Y-115069880D01*
X26527142Y-115069880D01*
X25193809Y-115069880D02*
X25670000Y-115069880D01*
X25670000Y-114069880D01*
X24289047Y-114974642D02*
X24336666Y-115022261D01*
X24479523Y-115069880D01*
X24574761Y-115069880D01*
X24717619Y-115022261D01*
X24812857Y-114927023D01*
X24860476Y-114831785D01*
X24908095Y-114641309D01*
X24908095Y-114498452D01*
X24860476Y-114307976D01*
X24812857Y-114212738D01*
X24717619Y-114117500D01*
X24574761Y-114069880D01*
X24479523Y-114069880D01*
X24336666Y-114117500D01*
X24289047Y-114165119D01*
X23574761Y-114069880D02*
X23574761Y-114784166D01*
X23622380Y-114927023D01*
X23717619Y-115022261D01*
X23860476Y-115069880D01*
X23955714Y-115069880D01*
X22622380Y-115069880D02*
X23098571Y-115069880D01*
X23098571Y-114069880D01*
X21717619Y-114974642D02*
X21765238Y-115022261D01*
X21908095Y-115069880D01*
X22003333Y-115069880D01*
X22146190Y-115022261D01*
X22241428Y-114927023D01*
X22289047Y-114831785D01*
X22336666Y-114641309D01*
X22336666Y-114498452D01*
X22289047Y-114307976D01*
X22241428Y-114212738D01*
X22146190Y-114117500D01*
X22003333Y-114069880D01*
X21908095Y-114069880D01*
X21765238Y-114117500D01*
X21717619Y-114165119D01*
%LPC*%
D11*
X38100000Y-6350000D03*
D12*
X5715000Y-102235000D03*
X47625000Y-80645000D03*
X5715000Y-69850000D03*
X47625000Y-102235000D03*
X47625000Y-15875000D03*
D11*
X15240000Y-17145000D03*
X38100000Y-71120000D03*
D13*
X5715000Y-85725000D03*
D11*
X38100000Y-27940000D03*
X15240000Y-38735000D03*
D14*
X15240000Y-85725000D03*
D12*
X47625000Y-37465000D03*
D15*
X47630000Y-114705000D03*
X5710000Y7795000D03*
D13*
X15240000Y-2540000D03*
D12*
X47625000Y-59055000D03*
D13*
X5080000Y-27940000D03*
D11*
X38100000Y-92710000D03*
D15*
X5710000Y-114705000D03*
X47630000Y7795000D03*
D13*
X24765000Y-85725000D03*
D11*
X38100000Y-49530000D03*
X15240000Y-60325000D03*
M02*
