%FSLAX45Y45*%
G04 Gerber Fmt 4.5, Leading zero omitted, Abs format (unit mm)*
G04 Created by KiCad (PCBNEW (6.0.0)) date 2022-08-09 16:48:59*
%MOMM*%
%LPD*%
G01*
G04 APERTURE LIST*
%TA.AperFunction,Profile*%
%ADD10C,0.100000*%
%TD*%
%ADD11C,0.200000*%
G04 APERTURE END LIST*
D10*
X0Y0D02*
X5334000Y0D01*
X5334000Y0D02*
X5334000Y-12850000D01*
X5334000Y-12850000D02*
X0Y-12850000D01*
X0Y-12850000D02*
X0Y0D01*
D11*
X252619Y-13165476D02*
X252619Y-12965476D01*
X300238Y-12965476D01*
X328810Y-12975000D01*
X347857Y-12994048D01*
X357381Y-13013095D01*
X366905Y-13051190D01*
X366905Y-13079762D01*
X357381Y-13117857D01*
X347857Y-13136905D01*
X328810Y-13155952D01*
X300238Y-13165476D01*
X252619Y-13165476D01*
X452619Y-13165476D02*
X452619Y-13032143D01*
X452619Y-13070238D02*
X462143Y-13051190D01*
X471667Y-13041667D01*
X490714Y-13032143D01*
X509762Y-13032143D01*
X576429Y-13165476D02*
X576429Y-13032143D01*
X576429Y-12965476D02*
X566905Y-12975000D01*
X576429Y-12984524D01*
X585952Y-12975000D01*
X576429Y-12965476D01*
X576429Y-12984524D01*
X700238Y-13165476D02*
X681190Y-13155952D01*
X671667Y-13136905D01*
X671667Y-12965476D01*
X805000Y-13165476D02*
X785952Y-13155952D01*
X776428Y-13136905D01*
X776428Y-12965476D01*
X1033571Y-13165476D02*
X1033571Y-12965476D01*
X1100238Y-13108333D01*
X1166905Y-12965476D01*
X1166905Y-13165476D01*
X1347857Y-13165476D02*
X1347857Y-13060714D01*
X1338333Y-13041667D01*
X1319286Y-13032143D01*
X1281190Y-13032143D01*
X1262143Y-13041667D01*
X1347857Y-13155952D02*
X1328810Y-13165476D01*
X1281190Y-13165476D01*
X1262143Y-13155952D01*
X1252619Y-13136905D01*
X1252619Y-13117857D01*
X1262143Y-13098809D01*
X1281190Y-13089286D01*
X1328810Y-13089286D01*
X1347857Y-13079762D01*
X1443095Y-13032143D02*
X1443095Y-13232143D01*
X1443095Y-13041667D02*
X1462143Y-13032143D01*
X1500238Y-13032143D01*
X1519286Y-13041667D01*
X1528809Y-13051190D01*
X1538333Y-13070238D01*
X1538333Y-13127381D01*
X1528809Y-13146428D01*
X1519286Y-13155952D01*
X1500238Y-13165476D01*
X1462143Y-13165476D01*
X1443095Y-13155952D01*
X1624048Y-13146428D02*
X1633571Y-13155952D01*
X1624048Y-13165476D01*
X1614524Y-13155952D01*
X1624048Y-13146428D01*
X1624048Y-13165476D01*
X1624048Y-13041667D02*
X1633571Y-13051190D01*
X1624048Y-13060714D01*
X1614524Y-13051190D01*
X1624048Y-13041667D01*
X1624048Y-13060714D01*
M02*
