G04 #@! TF.GenerationSoftware,KiCad,Pcbnew,(6.0.0)*
G04 #@! TF.CreationDate,2022-08-19T17:33:24+02:00*
G04 #@! TF.ProjectId,FG-VCO-(panel),46472d56-434f-42d2-9870-616e656c292e,rev?*
G04 #@! TF.SameCoordinates,Original*
G04 #@! TF.FileFunction,Copper,L1,Top*
G04 #@! TF.FilePolarity,Positive*
%FSLAX46Y46*%
G04 Gerber Fmt 4.6, Leading zero omitted, Abs format (unit mm)*
G04 Created by KiCad (PCBNEW (6.0.0)) date 2022-08-19 17:33:24*
%MOMM*%
%LPD*%
G01*
G04 APERTURE LIST*
G04 APERTURE END LIST*
G04 #@! TA.AperFunction,NonConductor*
G36*
X53298691Y10775593D02*
G01*
X53334655Y10726093D01*
X53339500Y10695500D01*
X53339500Y-117376000D01*
X53320593Y-117434191D01*
X53271093Y-117470155D01*
X53240500Y-117475000D01*
X99500Y-117475000D01*
X41309Y-117456093D01*
X5345Y-117406593D01*
X500Y-117376000D01*
X500Y-114748233D01*
X2704906Y-114748233D01*
X2705246Y-114751795D01*
X2705246Y-114751802D01*
X2723274Y-114940748D01*
X2731102Y-115022792D01*
X2796657Y-115290694D01*
X2900199Y-115546326D01*
X3039558Y-115784335D01*
X3211816Y-115999732D01*
X3413364Y-116188008D01*
X3639979Y-116345216D01*
X3643184Y-116346811D01*
X3643190Y-116346814D01*
X3883699Y-116466466D01*
X3883704Y-116466468D01*
X3886914Y-116468065D01*
X3890325Y-116469183D01*
X3890327Y-116469184D01*
X4145593Y-116552864D01*
X4145596Y-116552865D01*
X4148998Y-116553980D01*
X4420738Y-116601162D01*
X4471160Y-116603672D01*
X4506644Y-116605439D01*
X4506657Y-116605439D01*
X4507876Y-116605500D01*
X6880070Y-116605500D01*
X7085083Y-116590625D01*
X7115490Y-116583912D01*
X7350904Y-116531937D01*
X7350910Y-116531935D01*
X7354403Y-116531164D01*
X7357752Y-116529895D01*
X7357756Y-116529894D01*
X7520951Y-116468065D01*
X7612319Y-116433449D01*
X7853428Y-116299525D01*
X8072678Y-116132198D01*
X8265477Y-115934974D01*
X8377376Y-115781242D01*
X8425682Y-115714876D01*
X8427787Y-115711984D01*
X8556206Y-115467899D01*
X8648045Y-115207832D01*
X8701380Y-114937232D01*
X8710789Y-114748233D01*
X44624906Y-114748233D01*
X44625246Y-114751795D01*
X44625246Y-114751802D01*
X44643274Y-114940748D01*
X44651102Y-115022792D01*
X44716657Y-115290694D01*
X44820199Y-115546326D01*
X44959558Y-115784335D01*
X45131816Y-115999732D01*
X45333364Y-116188008D01*
X45559979Y-116345216D01*
X45563184Y-116346811D01*
X45563190Y-116346814D01*
X45803699Y-116466466D01*
X45803704Y-116466468D01*
X45806914Y-116468065D01*
X45810325Y-116469183D01*
X45810327Y-116469184D01*
X46065593Y-116552864D01*
X46065596Y-116552865D01*
X46068998Y-116553980D01*
X46340738Y-116601162D01*
X46391160Y-116603672D01*
X46426644Y-116605439D01*
X46426657Y-116605439D01*
X46427876Y-116605500D01*
X48800070Y-116605500D01*
X49005083Y-116590625D01*
X49035490Y-116583912D01*
X49270904Y-116531937D01*
X49270910Y-116531935D01*
X49274403Y-116531164D01*
X49277752Y-116529895D01*
X49277756Y-116529894D01*
X49440951Y-116468065D01*
X49532319Y-116433449D01*
X49773428Y-116299525D01*
X49992678Y-116132198D01*
X50185477Y-115934974D01*
X50297376Y-115781242D01*
X50345682Y-115714876D01*
X50347787Y-115711984D01*
X50476206Y-115467899D01*
X50568045Y-115207832D01*
X50621380Y-114937232D01*
X50635094Y-114661767D01*
X50634754Y-114658205D01*
X50634754Y-114658198D01*
X50609239Y-114390779D01*
X50609238Y-114390775D01*
X50608898Y-114387208D01*
X50543343Y-114119306D01*
X50439801Y-113863674D01*
X50300442Y-113625665D01*
X50128184Y-113410268D01*
X49926636Y-113221992D01*
X49700021Y-113064784D01*
X49696816Y-113063189D01*
X49696810Y-113063186D01*
X49456301Y-112943534D01*
X49456296Y-112943532D01*
X49453086Y-112941935D01*
X49449675Y-112940817D01*
X49449673Y-112940816D01*
X49194407Y-112857136D01*
X49194404Y-112857135D01*
X49191002Y-112856020D01*
X48919262Y-112808838D01*
X48868840Y-112806328D01*
X48833356Y-112804561D01*
X48833343Y-112804561D01*
X48832124Y-112804500D01*
X46459930Y-112804500D01*
X46254917Y-112819375D01*
X46251406Y-112820150D01*
X46251407Y-112820150D01*
X45989096Y-112878063D01*
X45989090Y-112878065D01*
X45985597Y-112878836D01*
X45982248Y-112880105D01*
X45982244Y-112880106D01*
X45878185Y-112919530D01*
X45727681Y-112976551D01*
X45486572Y-113110475D01*
X45267322Y-113277802D01*
X45074523Y-113475026D01*
X45072414Y-113477923D01*
X45072411Y-113477927D01*
X44914318Y-113695124D01*
X44912213Y-113698016D01*
X44783794Y-113942101D01*
X44691955Y-114202168D01*
X44638620Y-114472768D01*
X44624906Y-114748233D01*
X8710789Y-114748233D01*
X8715094Y-114661767D01*
X8714754Y-114658205D01*
X8714754Y-114658198D01*
X8689239Y-114390779D01*
X8689238Y-114390775D01*
X8688898Y-114387208D01*
X8623343Y-114119306D01*
X8519801Y-113863674D01*
X8380442Y-113625665D01*
X8208184Y-113410268D01*
X8006636Y-113221992D01*
X7780021Y-113064784D01*
X7776816Y-113063189D01*
X7776810Y-113063186D01*
X7536301Y-112943534D01*
X7536296Y-112943532D01*
X7533086Y-112941935D01*
X7529675Y-112940817D01*
X7529673Y-112940816D01*
X7274407Y-112857136D01*
X7274404Y-112857135D01*
X7271002Y-112856020D01*
X6999262Y-112808838D01*
X6948840Y-112806328D01*
X6913356Y-112804561D01*
X6913343Y-112804561D01*
X6912124Y-112804500D01*
X4539930Y-112804500D01*
X4334917Y-112819375D01*
X4331406Y-112820150D01*
X4331407Y-112820150D01*
X4069096Y-112878063D01*
X4069090Y-112878065D01*
X4065597Y-112878836D01*
X4062248Y-112880105D01*
X4062244Y-112880106D01*
X3958185Y-112919530D01*
X3807681Y-112976551D01*
X3566572Y-113110475D01*
X3347322Y-113277802D01*
X3154523Y-113475026D01*
X3152414Y-113477923D01*
X3152411Y-113477927D01*
X2994318Y-113695124D01*
X2992213Y-113698016D01*
X2863794Y-113942101D01*
X2771955Y-114202168D01*
X2718620Y-114472768D01*
X2704906Y-114748233D01*
X500Y-114748233D01*
X500Y-102132744D01*
X2461163Y-102132744D01*
X2469592Y-102490419D01*
X2517220Y-102845009D01*
X2603470Y-103192232D01*
X2604411Y-103194784D01*
X2604413Y-103194789D01*
X2675770Y-103388209D01*
X2727302Y-103527892D01*
X2728512Y-103530313D01*
X2728513Y-103530316D01*
X2819766Y-103712940D01*
X2887220Y-103847937D01*
X2888696Y-103850222D01*
X2888700Y-103850230D01*
X3027803Y-104065662D01*
X3081291Y-104148501D01*
X3307173Y-104425954D01*
X3562137Y-104676944D01*
X3564269Y-104678625D01*
X3564275Y-104678630D01*
X3840969Y-104896758D01*
X3843103Y-104898440D01*
X4146678Y-105087766D01*
X4149123Y-105088940D01*
X4149132Y-105088945D01*
X4307937Y-105165202D01*
X4469196Y-105242637D01*
X4806760Y-105361181D01*
X5155295Y-105441967D01*
X5157987Y-105442286D01*
X5157995Y-105442287D01*
X5508465Y-105483768D01*
X5508474Y-105483769D01*
X5510589Y-105484019D01*
X5538052Y-105484882D01*
X5556911Y-105485475D01*
X5556926Y-105485475D01*
X5557714Y-105485500D01*
X5804817Y-105485500D01*
X6019511Y-105473685D01*
X6069510Y-105470933D01*
X6069512Y-105470933D01*
X6072234Y-105470783D01*
X6249054Y-105441352D01*
X6422462Y-105412489D01*
X6422464Y-105412489D01*
X6425153Y-105412041D01*
X6427777Y-105411301D01*
X6766868Y-105315668D01*
X6766870Y-105315667D01*
X6769495Y-105314927D01*
X6772021Y-105313904D01*
X7098578Y-105181635D01*
X7098585Y-105181632D01*
X7101100Y-105180613D01*
X7103492Y-105179322D01*
X7103497Y-105179320D01*
X7275838Y-105086329D01*
X7415964Y-105010721D01*
X7710284Y-104807305D01*
X7712339Y-104805522D01*
X7978451Y-104574601D01*
X7978456Y-104574596D01*
X7980504Y-104572819D01*
X8118210Y-104423850D01*
X8221511Y-104312100D01*
X8221516Y-104312094D01*
X8223362Y-104310097D01*
X8435923Y-104022312D01*
X8615621Y-103712940D01*
X8760285Y-103385717D01*
X8868167Y-103044596D01*
X8937966Y-102693696D01*
X8955572Y-102490419D01*
X8968603Y-102339961D01*
X8968603Y-102339956D01*
X8968837Y-102337256D01*
X8964017Y-102132744D01*
X44371163Y-102132744D01*
X44379592Y-102490419D01*
X44427220Y-102845009D01*
X44513470Y-103192232D01*
X44514411Y-103194784D01*
X44514413Y-103194789D01*
X44585770Y-103388209D01*
X44637302Y-103527892D01*
X44638512Y-103530313D01*
X44638513Y-103530316D01*
X44729766Y-103712940D01*
X44797220Y-103847937D01*
X44798696Y-103850222D01*
X44798700Y-103850230D01*
X44937803Y-104065662D01*
X44991291Y-104148501D01*
X45217173Y-104425954D01*
X45472137Y-104676944D01*
X45474269Y-104678625D01*
X45474275Y-104678630D01*
X45750969Y-104896758D01*
X45753103Y-104898440D01*
X46056678Y-105087766D01*
X46059123Y-105088940D01*
X46059132Y-105088945D01*
X46217937Y-105165202D01*
X46379196Y-105242637D01*
X46716760Y-105361181D01*
X47065295Y-105441967D01*
X47067987Y-105442286D01*
X47067995Y-105442287D01*
X47418465Y-105483768D01*
X47418474Y-105483769D01*
X47420589Y-105484019D01*
X47448052Y-105484882D01*
X47466911Y-105485475D01*
X47466926Y-105485475D01*
X47467714Y-105485500D01*
X47714817Y-105485500D01*
X47929511Y-105473685D01*
X47979510Y-105470933D01*
X47979512Y-105470933D01*
X47982234Y-105470783D01*
X48159054Y-105441352D01*
X48332462Y-105412489D01*
X48332464Y-105412489D01*
X48335153Y-105412041D01*
X48337777Y-105411301D01*
X48676868Y-105315668D01*
X48676870Y-105315667D01*
X48679495Y-105314927D01*
X48682021Y-105313904D01*
X49008578Y-105181635D01*
X49008585Y-105181632D01*
X49011100Y-105180613D01*
X49013492Y-105179322D01*
X49013497Y-105179320D01*
X49185838Y-105086329D01*
X49325964Y-105010721D01*
X49620284Y-104807305D01*
X49622339Y-104805522D01*
X49888451Y-104574601D01*
X49888456Y-104574596D01*
X49890504Y-104572819D01*
X50028210Y-104423850D01*
X50131511Y-104312100D01*
X50131516Y-104312094D01*
X50133362Y-104310097D01*
X50345923Y-104022312D01*
X50525621Y-103712940D01*
X50670285Y-103385717D01*
X50778167Y-103044596D01*
X50847966Y-102693696D01*
X50865572Y-102490419D01*
X50878603Y-102339961D01*
X50878603Y-102339956D01*
X50878837Y-102337256D01*
X50870408Y-101979581D01*
X50822780Y-101624991D01*
X50736530Y-101277768D01*
X50666108Y-101086880D01*
X50613636Y-100944650D01*
X50613635Y-100944647D01*
X50612698Y-100942108D01*
X50521481Y-100759555D01*
X50453999Y-100624502D01*
X50453997Y-100624498D01*
X50452780Y-100622063D01*
X50451304Y-100619778D01*
X50451300Y-100619770D01*
X50260190Y-100323793D01*
X50258709Y-100321499D01*
X50032827Y-100044046D01*
X49777863Y-99793056D01*
X49775731Y-99791375D01*
X49775725Y-99791370D01*
X49499031Y-99573242D01*
X49499027Y-99573239D01*
X49496897Y-99571560D01*
X49193322Y-99382234D01*
X49190877Y-99381060D01*
X49190868Y-99381055D01*
X49002661Y-99290680D01*
X48870804Y-99227363D01*
X48533240Y-99108819D01*
X48184705Y-99028033D01*
X48182013Y-99027714D01*
X48182005Y-99027713D01*
X47831535Y-98986232D01*
X47831526Y-98986231D01*
X47829411Y-98985981D01*
X47801948Y-98985118D01*
X47783089Y-98984525D01*
X47783074Y-98984525D01*
X47782286Y-98984500D01*
X47535183Y-98984500D01*
X47320489Y-98996315D01*
X47270490Y-98999067D01*
X47270488Y-98999067D01*
X47267766Y-98999217D01*
X47096563Y-99027713D01*
X46917538Y-99057511D01*
X46917536Y-99057511D01*
X46914847Y-99057959D01*
X46912224Y-99058699D01*
X46912223Y-99058699D01*
X46736691Y-99108204D01*
X46570505Y-99155073D01*
X46567981Y-99156095D01*
X46567979Y-99156096D01*
X46241422Y-99288365D01*
X46241415Y-99288368D01*
X46238900Y-99289387D01*
X46236508Y-99290678D01*
X46236503Y-99290680D01*
X46096993Y-99365956D01*
X45924036Y-99459279D01*
X45629716Y-99662695D01*
X45627664Y-99664476D01*
X45627661Y-99664478D01*
X45361549Y-99895399D01*
X45361544Y-99895404D01*
X45359496Y-99897181D01*
X45357649Y-99899179D01*
X45357648Y-99899180D01*
X45118489Y-100157900D01*
X45118484Y-100157906D01*
X45116638Y-100159903D01*
X44904077Y-100447688D01*
X44724379Y-100757060D01*
X44579715Y-101084283D01*
X44471833Y-101425404D01*
X44402034Y-101776304D01*
X44401801Y-101778999D01*
X44401800Y-101779003D01*
X44384193Y-101982303D01*
X44371163Y-102132744D01*
X8964017Y-102132744D01*
X8960408Y-101979581D01*
X8912780Y-101624991D01*
X8826530Y-101277768D01*
X8756108Y-101086880D01*
X8703636Y-100944650D01*
X8703635Y-100944647D01*
X8702698Y-100942108D01*
X8611481Y-100759555D01*
X8543999Y-100624502D01*
X8543997Y-100624498D01*
X8542780Y-100622063D01*
X8541304Y-100619778D01*
X8541300Y-100619770D01*
X8350190Y-100323793D01*
X8348709Y-100321499D01*
X8122827Y-100044046D01*
X7867863Y-99793056D01*
X7865731Y-99791375D01*
X7865725Y-99791370D01*
X7589031Y-99573242D01*
X7589027Y-99573239D01*
X7586897Y-99571560D01*
X7283322Y-99382234D01*
X7280877Y-99381060D01*
X7280868Y-99381055D01*
X7092661Y-99290680D01*
X6960804Y-99227363D01*
X6623240Y-99108819D01*
X6274705Y-99028033D01*
X6272013Y-99027714D01*
X6272005Y-99027713D01*
X5921535Y-98986232D01*
X5921526Y-98986231D01*
X5919411Y-98985981D01*
X5891948Y-98985118D01*
X5873089Y-98984525D01*
X5873074Y-98984525D01*
X5872286Y-98984500D01*
X5625183Y-98984500D01*
X5410489Y-98996315D01*
X5360490Y-98999067D01*
X5360488Y-98999067D01*
X5357766Y-98999217D01*
X5186563Y-99027713D01*
X5007538Y-99057511D01*
X5007536Y-99057511D01*
X5004847Y-99057959D01*
X5002224Y-99058699D01*
X5002223Y-99058699D01*
X4826691Y-99108204D01*
X4660505Y-99155073D01*
X4657981Y-99156095D01*
X4657979Y-99156096D01*
X4331422Y-99288365D01*
X4331415Y-99288368D01*
X4328900Y-99289387D01*
X4326508Y-99290678D01*
X4326503Y-99290680D01*
X4186993Y-99365956D01*
X4014036Y-99459279D01*
X3719716Y-99662695D01*
X3717664Y-99664476D01*
X3717661Y-99664478D01*
X3451549Y-99895399D01*
X3451544Y-99895404D01*
X3449496Y-99897181D01*
X3447649Y-99899179D01*
X3447648Y-99899180D01*
X3208489Y-100157900D01*
X3208484Y-100157906D01*
X3206638Y-100159903D01*
X2994077Y-100447688D01*
X2814379Y-100757060D01*
X2669715Y-101084283D01*
X2561833Y-101425404D01*
X2492034Y-101776304D01*
X2491801Y-101778999D01*
X2491800Y-101779003D01*
X2474193Y-101982303D01*
X2461163Y-102132744D01*
X500Y-102132744D01*
X500Y-92801762D01*
X34595733Y-92801762D01*
X34625326Y-93173621D01*
X34625812Y-93176205D01*
X34625813Y-93176213D01*
X34693781Y-93537651D01*
X34694266Y-93540229D01*
X34801773Y-93897435D01*
X34802795Y-93899861D01*
X34802796Y-93899863D01*
X34945609Y-94238776D01*
X34945614Y-94238786D01*
X34946629Y-94241195D01*
X35127195Y-94567615D01*
X35341424Y-94873000D01*
X35586893Y-95153890D01*
X35860820Y-95407106D01*
X36160104Y-95629779D01*
X36162371Y-95631117D01*
X36162380Y-95631123D01*
X36479084Y-95818048D01*
X36479090Y-95818051D01*
X36481355Y-95819388D01*
X36820936Y-95973786D01*
X37175001Y-96091225D01*
X37177576Y-96091784D01*
X37177583Y-96091786D01*
X37536971Y-96169817D01*
X37536975Y-96169818D01*
X37539542Y-96170375D01*
X37910428Y-96210338D01*
X37912396Y-96210391D01*
X37912407Y-96210392D01*
X37914333Y-96210444D01*
X37916414Y-96210500D01*
X38193239Y-96210500D01*
X38472505Y-96195620D01*
X38475101Y-96195202D01*
X38475109Y-96195201D01*
X38838180Y-96136721D01*
X38838185Y-96136720D01*
X38840792Y-96136300D01*
X38843338Y-96135606D01*
X38843342Y-96135605D01*
X39020742Y-96087240D01*
X39200691Y-96038181D01*
X39203141Y-96037223D01*
X39203151Y-96037220D01*
X39394864Y-95962280D01*
X39548124Y-95902372D01*
X39710455Y-95818048D01*
X39876813Y-95731632D01*
X39876818Y-95731629D01*
X39879159Y-95730413D01*
X39881352Y-95728959D01*
X39881360Y-95728954D01*
X40187847Y-95525710D01*
X40187848Y-95525709D01*
X40190047Y-95524251D01*
X40477267Y-95286220D01*
X40737566Y-95019015D01*
X40967998Y-94725663D01*
X41165951Y-94409485D01*
X41329186Y-94074062D01*
X41455853Y-93723192D01*
X41544518Y-93360848D01*
X41594176Y-92991135D01*
X41604267Y-92618238D01*
X41574674Y-92246379D01*
X41539959Y-92061768D01*
X41506219Y-91882349D01*
X41506218Y-91882345D01*
X41505734Y-91879771D01*
X41398227Y-91522565D01*
X41323799Y-91345938D01*
X41254391Y-91181224D01*
X41254386Y-91181214D01*
X41253371Y-91178805D01*
X41072805Y-90852385D01*
X40858576Y-90547000D01*
X40613107Y-90266110D01*
X40339180Y-90012894D01*
X40039896Y-89790221D01*
X40037629Y-89788883D01*
X40037620Y-89788877D01*
X39720916Y-89601952D01*
X39720910Y-89601949D01*
X39718645Y-89600612D01*
X39379064Y-89446214D01*
X39024999Y-89328775D01*
X39022424Y-89328216D01*
X39022417Y-89328214D01*
X38663029Y-89250183D01*
X38663025Y-89250182D01*
X38660458Y-89249625D01*
X38289572Y-89209662D01*
X38287604Y-89209609D01*
X38287593Y-89209608D01*
X38285667Y-89209556D01*
X38283586Y-89209500D01*
X38006761Y-89209500D01*
X37727495Y-89224380D01*
X37724899Y-89224798D01*
X37724891Y-89224799D01*
X37361820Y-89283279D01*
X37361815Y-89283280D01*
X37359208Y-89283700D01*
X37356662Y-89284394D01*
X37356658Y-89284395D01*
X37195931Y-89328214D01*
X36999309Y-89381819D01*
X36996859Y-89382777D01*
X36996849Y-89382780D01*
X36831777Y-89447306D01*
X36651876Y-89517628D01*
X36649537Y-89518843D01*
X36323187Y-89688368D01*
X36323182Y-89688371D01*
X36320841Y-89689587D01*
X36318648Y-89691041D01*
X36318640Y-89691046D01*
X36012153Y-89894290D01*
X36009953Y-89895749D01*
X35722733Y-90133780D01*
X35462434Y-90400985D01*
X35232002Y-90694337D01*
X35034049Y-91010515D01*
X34870814Y-91345938D01*
X34744147Y-91696808D01*
X34655482Y-92059152D01*
X34605824Y-92428865D01*
X34595733Y-92801762D01*
X500Y-92801762D01*
X500Y-85767095D01*
X3860028Y-85767095D01*
X3860368Y-85770657D01*
X3860368Y-85770664D01*
X3877922Y-85954648D01*
X3885534Y-86034431D01*
X3949364Y-86295285D01*
X4050182Y-86544192D01*
X4185875Y-86775938D01*
X4353601Y-86985669D01*
X4549846Y-87168991D01*
X4770499Y-87322064D01*
X4892066Y-87382542D01*
X5007723Y-87440081D01*
X5007728Y-87440083D01*
X5010938Y-87441680D01*
X5014349Y-87442798D01*
X5014351Y-87442799D01*
X5262721Y-87524219D01*
X5262724Y-87524220D01*
X5266126Y-87525335D01*
X5530717Y-87571276D01*
X5579761Y-87573717D01*
X5614335Y-87575439D01*
X5614348Y-87575439D01*
X5615567Y-87575500D01*
X5783223Y-87575500D01*
X5982846Y-87561016D01*
X6245080Y-87503120D01*
X6248429Y-87501851D01*
X6248433Y-87501850D01*
X6350087Y-87463337D01*
X6496211Y-87407975D01*
X6650879Y-87322064D01*
X6727837Y-87279318D01*
X6727841Y-87279315D01*
X6730976Y-87277574D01*
X6739242Y-87271266D01*
X6941607Y-87116826D01*
X6941609Y-87116825D01*
X6944458Y-87114650D01*
X7132185Y-86922614D01*
X7290225Y-86705491D01*
X7415265Y-86467828D01*
X7504688Y-86214603D01*
X7533119Y-86070359D01*
X7555925Y-85954648D01*
X7556620Y-85951122D01*
X7568595Y-85710572D01*
X12484511Y-85710572D01*
X12484675Y-85713553D01*
X12484675Y-85713560D01*
X12502138Y-86030861D01*
X12502735Y-86041712D01*
X12560608Y-86368265D01*
X12561479Y-86371123D01*
X12561480Y-86371127D01*
X12591920Y-86471002D01*
X12657294Y-86685500D01*
X12658499Y-86688226D01*
X12658501Y-86688231D01*
X12790183Y-86986089D01*
X12791391Y-86988821D01*
X12960957Y-87273836D01*
X12962777Y-87276195D01*
X12962781Y-87276201D01*
X13113193Y-87471162D01*
X13163536Y-87536415D01*
X13396193Y-87772756D01*
X13398521Y-87774611D01*
X13398522Y-87774612D01*
X13517352Y-87869303D01*
X13655558Y-87979434D01*
X13658098Y-87980999D01*
X13658097Y-87980999D01*
X13935336Y-88151891D01*
X13935341Y-88151894D01*
X13937874Y-88153455D01*
X13940582Y-88154704D01*
X13940585Y-88154705D01*
X14048048Y-88204246D01*
X14239051Y-88292300D01*
X14241895Y-88293216D01*
X14241898Y-88293217D01*
X14267371Y-88301420D01*
X14554728Y-88393957D01*
X14557647Y-88394522D01*
X14557648Y-88394522D01*
X14877416Y-88456389D01*
X14877419Y-88456389D01*
X14880332Y-88456953D01*
X14883294Y-88457163D01*
X14883296Y-88457163D01*
X14923860Y-88460035D01*
X15142279Y-88475500D01*
X15323386Y-88475500D01*
X15324840Y-88475412D01*
X15324852Y-88475412D01*
X15568075Y-88460749D01*
X15568079Y-88460748D01*
X15571040Y-88460570D01*
X15897285Y-88400987D01*
X15922869Y-88393043D01*
X16211163Y-88303525D01*
X16211167Y-88303523D01*
X16214009Y-88302641D01*
X16216728Y-88301422D01*
X16216733Y-88301420D01*
X16513905Y-88168178D01*
X16513911Y-88168175D01*
X16516625Y-88166958D01*
X16536978Y-88154705D01*
X16798192Y-87997441D01*
X16798194Y-87997440D01*
X16800748Y-87995902D01*
X16803100Y-87994068D01*
X16803104Y-87994065D01*
X17059903Y-87793792D01*
X17059908Y-87793788D01*
X17062263Y-87791951D01*
X17297382Y-87558060D01*
X17483427Y-87322064D01*
X17500851Y-87299962D01*
X17500856Y-87299955D01*
X17502699Y-87297617D01*
X17516236Y-87275397D01*
X17673690Y-87016937D01*
X17675240Y-87014393D01*
X17812506Y-86712493D01*
X17912509Y-86396288D01*
X17918332Y-86365323D01*
X17973248Y-86073290D01*
X17973248Y-86073287D01*
X17973799Y-86070359D01*
X17993676Y-85767095D01*
X22910028Y-85767095D01*
X22910368Y-85770657D01*
X22910368Y-85770664D01*
X22927922Y-85954648D01*
X22935534Y-86034431D01*
X22999364Y-86295285D01*
X23100182Y-86544192D01*
X23235875Y-86775938D01*
X23403601Y-86985669D01*
X23599846Y-87168991D01*
X23820499Y-87322064D01*
X23942066Y-87382542D01*
X24057723Y-87440081D01*
X24057728Y-87440083D01*
X24060938Y-87441680D01*
X24064349Y-87442798D01*
X24064351Y-87442799D01*
X24312721Y-87524219D01*
X24312724Y-87524220D01*
X24316126Y-87525335D01*
X24580717Y-87571276D01*
X24629761Y-87573717D01*
X24664335Y-87575439D01*
X24664348Y-87575439D01*
X24665567Y-87575500D01*
X24833223Y-87575500D01*
X25032846Y-87561016D01*
X25295080Y-87503120D01*
X25298429Y-87501851D01*
X25298433Y-87501850D01*
X25400087Y-87463337D01*
X25546211Y-87407975D01*
X25700879Y-87322064D01*
X25777837Y-87279318D01*
X25777841Y-87279315D01*
X25780976Y-87277574D01*
X25789242Y-87271266D01*
X25991607Y-87116826D01*
X25991609Y-87116825D01*
X25994458Y-87114650D01*
X26182185Y-86922614D01*
X26340225Y-86705491D01*
X26465265Y-86467828D01*
X26554688Y-86214603D01*
X26583119Y-86070359D01*
X26605925Y-85954648D01*
X26606620Y-85951122D01*
X26619972Y-85682905D01*
X26619632Y-85679343D01*
X26619632Y-85679336D01*
X26594807Y-85419139D01*
X26594806Y-85419134D01*
X26594466Y-85415569D01*
X26530636Y-85154715D01*
X26429818Y-84905808D01*
X26294125Y-84674062D01*
X26126399Y-84464331D01*
X25930154Y-84281009D01*
X25709501Y-84127936D01*
X25536812Y-84042025D01*
X25472277Y-84009919D01*
X25472272Y-84009917D01*
X25469062Y-84008320D01*
X25285515Y-83948150D01*
X25217279Y-83925781D01*
X25217276Y-83925780D01*
X25213874Y-83924665D01*
X24949283Y-83878724D01*
X24900239Y-83876283D01*
X24865665Y-83874561D01*
X24865652Y-83874561D01*
X24864433Y-83874500D01*
X24696777Y-83874500D01*
X24497154Y-83888984D01*
X24234920Y-83946880D01*
X24231571Y-83948149D01*
X24231567Y-83948150D01*
X24129913Y-83986663D01*
X23983789Y-84042025D01*
X23853411Y-84114444D01*
X23752163Y-84170682D01*
X23752159Y-84170685D01*
X23749024Y-84172426D01*
X23746174Y-84174601D01*
X23746171Y-84174603D01*
X23538393Y-84333174D01*
X23535542Y-84335350D01*
X23347815Y-84527386D01*
X23189775Y-84744509D01*
X23064735Y-84982172D01*
X22975312Y-85235397D01*
X22974618Y-85238919D01*
X22974617Y-85238922D01*
X22929479Y-85467934D01*
X22923380Y-85498878D01*
X22910028Y-85767095D01*
X17993676Y-85767095D01*
X17995489Y-85739428D01*
X17994066Y-85713560D01*
X17977429Y-85411265D01*
X17977429Y-85411262D01*
X17977265Y-85408288D01*
X17919392Y-85081735D01*
X17889048Y-84982172D01*
X17823577Y-84767359D01*
X17822706Y-84764500D01*
X17809571Y-84734788D01*
X17689817Y-84463911D01*
X17689816Y-84463908D01*
X17688609Y-84461179D01*
X17519043Y-84176164D01*
X17517223Y-84173805D01*
X17517219Y-84173799D01*
X17318283Y-83915943D01*
X17316464Y-83913585D01*
X17083807Y-83677244D01*
X17057409Y-83656208D01*
X16858576Y-83497766D01*
X16824442Y-83470566D01*
X16741067Y-83419173D01*
X16544664Y-83298109D01*
X16544659Y-83298106D01*
X16542126Y-83296545D01*
X16516166Y-83284577D01*
X16431952Y-83245754D01*
X16240949Y-83157700D01*
X16238105Y-83156784D01*
X16238102Y-83156783D01*
X16140991Y-83125511D01*
X15925272Y-83056043D01*
X15893506Y-83049897D01*
X15602584Y-82993611D01*
X15602581Y-82993611D01*
X15599668Y-82993047D01*
X15596706Y-82992837D01*
X15596704Y-82992837D01*
X15527208Y-82987917D01*
X15337721Y-82974500D01*
X15156614Y-82974500D01*
X15155160Y-82974588D01*
X15155148Y-82974588D01*
X14911925Y-82989251D01*
X14911921Y-82989252D01*
X14908960Y-82989430D01*
X14582715Y-83049013D01*
X14579868Y-83049897D01*
X14268837Y-83146475D01*
X14268833Y-83146477D01*
X14265991Y-83147359D01*
X14263272Y-83148578D01*
X14263267Y-83148580D01*
X13966095Y-83281822D01*
X13966089Y-83281825D01*
X13963375Y-83283042D01*
X13960828Y-83284576D01*
X13960825Y-83284577D01*
X13681808Y-83452559D01*
X13679252Y-83454098D01*
X13676900Y-83455932D01*
X13676896Y-83455935D01*
X13420097Y-83656208D01*
X13420092Y-83656212D01*
X13417737Y-83658049D01*
X13182618Y-83891940D01*
X13139307Y-83946880D01*
X12979149Y-84150038D01*
X12979144Y-84150045D01*
X12977301Y-84152383D01*
X12975753Y-84154925D01*
X12975751Y-84154927D01*
X12961248Y-84178734D01*
X12804760Y-84435607D01*
X12667494Y-84737507D01*
X12567491Y-85053712D01*
X12566940Y-85056642D01*
X12549123Y-85151392D01*
X12506201Y-85379641D01*
X12484511Y-85710572D01*
X7568595Y-85710572D01*
X7569972Y-85682905D01*
X7569632Y-85679343D01*
X7569632Y-85679336D01*
X7544807Y-85419139D01*
X7544806Y-85419134D01*
X7544466Y-85415569D01*
X7480636Y-85154715D01*
X7379818Y-84905808D01*
X7244125Y-84674062D01*
X7076399Y-84464331D01*
X6880154Y-84281009D01*
X6659501Y-84127936D01*
X6486812Y-84042025D01*
X6422277Y-84009919D01*
X6422272Y-84009917D01*
X6419062Y-84008320D01*
X6235515Y-83948150D01*
X6167279Y-83925781D01*
X6167276Y-83925780D01*
X6163874Y-83924665D01*
X5899283Y-83878724D01*
X5850239Y-83876283D01*
X5815665Y-83874561D01*
X5815652Y-83874561D01*
X5814433Y-83874500D01*
X5646777Y-83874500D01*
X5447154Y-83888984D01*
X5184920Y-83946880D01*
X5181571Y-83948149D01*
X5181567Y-83948150D01*
X5079913Y-83986663D01*
X4933789Y-84042025D01*
X4803411Y-84114444D01*
X4702163Y-84170682D01*
X4702159Y-84170685D01*
X4699024Y-84172426D01*
X4696174Y-84174601D01*
X4696171Y-84174603D01*
X4488393Y-84333174D01*
X4485542Y-84335350D01*
X4297815Y-84527386D01*
X4139775Y-84744509D01*
X4014735Y-84982172D01*
X3925312Y-85235397D01*
X3924618Y-85238919D01*
X3924617Y-85238922D01*
X3879479Y-85467934D01*
X3873380Y-85498878D01*
X3860028Y-85767095D01*
X500Y-85767095D01*
X500Y-80542744D01*
X44371163Y-80542744D01*
X44379592Y-80900419D01*
X44427220Y-81255009D01*
X44513470Y-81602232D01*
X44514411Y-81604784D01*
X44514413Y-81604789D01*
X44585770Y-81798209D01*
X44637302Y-81937892D01*
X44638512Y-81940313D01*
X44638513Y-81940316D01*
X44729766Y-82122940D01*
X44797220Y-82257937D01*
X44798696Y-82260222D01*
X44798700Y-82260230D01*
X44937803Y-82475662D01*
X44991291Y-82558501D01*
X45217173Y-82835954D01*
X45472137Y-83086944D01*
X45474269Y-83088625D01*
X45474275Y-83088630D01*
X45738014Y-83296545D01*
X45753103Y-83308440D01*
X46056678Y-83497766D01*
X46059123Y-83498940D01*
X46059132Y-83498945D01*
X46217937Y-83575201D01*
X46379196Y-83652637D01*
X46716760Y-83771181D01*
X47065295Y-83851967D01*
X47067987Y-83852286D01*
X47067995Y-83852287D01*
X47418465Y-83893768D01*
X47418474Y-83893769D01*
X47420589Y-83894019D01*
X47448052Y-83894882D01*
X47466911Y-83895475D01*
X47466926Y-83895475D01*
X47467714Y-83895500D01*
X47714817Y-83895500D01*
X47929511Y-83883685D01*
X47979510Y-83880933D01*
X47979512Y-83880933D01*
X47982234Y-83880783D01*
X48159054Y-83851352D01*
X48332462Y-83822489D01*
X48332464Y-83822489D01*
X48335153Y-83822041D01*
X48337777Y-83821301D01*
X48676868Y-83725668D01*
X48676870Y-83725667D01*
X48679495Y-83724927D01*
X48801801Y-83675388D01*
X49008578Y-83591635D01*
X49008585Y-83591632D01*
X49011100Y-83590613D01*
X49013492Y-83589322D01*
X49013497Y-83589320D01*
X49233585Y-83470566D01*
X49325964Y-83420721D01*
X49620284Y-83217305D01*
X49687530Y-83158952D01*
X49888451Y-82984601D01*
X49888456Y-82984596D01*
X49890504Y-82982819D01*
X50028210Y-82833850D01*
X50131511Y-82722100D01*
X50131516Y-82722094D01*
X50133362Y-82720097D01*
X50345923Y-82432312D01*
X50525621Y-82122940D01*
X50670285Y-81795717D01*
X50778167Y-81454596D01*
X50847966Y-81103696D01*
X50865572Y-80900419D01*
X50878603Y-80749961D01*
X50878603Y-80749956D01*
X50878837Y-80747256D01*
X50870408Y-80389581D01*
X50822780Y-80034991D01*
X50736530Y-79687768D01*
X50666108Y-79496880D01*
X50613636Y-79354650D01*
X50613635Y-79354647D01*
X50612698Y-79352108D01*
X50521481Y-79169555D01*
X50453999Y-79034502D01*
X50453997Y-79034498D01*
X50452780Y-79032063D01*
X50451304Y-79029778D01*
X50451300Y-79029770D01*
X50260190Y-78733793D01*
X50258709Y-78731499D01*
X50032827Y-78454046D01*
X49777863Y-78203056D01*
X49775731Y-78201375D01*
X49775725Y-78201370D01*
X49499031Y-77983242D01*
X49499027Y-77983239D01*
X49496897Y-77981560D01*
X49193322Y-77792234D01*
X49190877Y-77791060D01*
X49190868Y-77791055D01*
X49002661Y-77700680D01*
X48870804Y-77637363D01*
X48533240Y-77518819D01*
X48184705Y-77438033D01*
X48182013Y-77437714D01*
X48182005Y-77437713D01*
X47831535Y-77396232D01*
X47831526Y-77396231D01*
X47829411Y-77395981D01*
X47801948Y-77395118D01*
X47783089Y-77394525D01*
X47783074Y-77394525D01*
X47782286Y-77394500D01*
X47535183Y-77394500D01*
X47320489Y-77406315D01*
X47270490Y-77409067D01*
X47270488Y-77409067D01*
X47267766Y-77409217D01*
X47096563Y-77437713D01*
X46917538Y-77467511D01*
X46917536Y-77467511D01*
X46914847Y-77467959D01*
X46912224Y-77468699D01*
X46912223Y-77468699D01*
X46736691Y-77518204D01*
X46570505Y-77565073D01*
X46567981Y-77566095D01*
X46567979Y-77566096D01*
X46241422Y-77698365D01*
X46241415Y-77698368D01*
X46238900Y-77699387D01*
X46236508Y-77700678D01*
X46236503Y-77700680D01*
X46096993Y-77775956D01*
X45924036Y-77869279D01*
X45629716Y-78072695D01*
X45627664Y-78074476D01*
X45627661Y-78074478D01*
X45361549Y-78305399D01*
X45361544Y-78305404D01*
X45359496Y-78307181D01*
X45357649Y-78309179D01*
X45357648Y-78309180D01*
X45118489Y-78567900D01*
X45118484Y-78567906D01*
X45116638Y-78569903D01*
X44904077Y-78857688D01*
X44724379Y-79167060D01*
X44579715Y-79494283D01*
X44471833Y-79835404D01*
X44402034Y-80186304D01*
X44401801Y-80188999D01*
X44401800Y-80189003D01*
X44384193Y-80392303D01*
X44371163Y-80542744D01*
X500Y-80542744D01*
X500Y-69747744D01*
X2461163Y-69747744D01*
X2469592Y-70105419D01*
X2517220Y-70460009D01*
X2603470Y-70807232D01*
X2604411Y-70809784D01*
X2604413Y-70809789D01*
X2685974Y-71030869D01*
X2727302Y-71142892D01*
X2728512Y-71145313D01*
X2728513Y-71145316D01*
X2855025Y-71398504D01*
X2887220Y-71462937D01*
X2888696Y-71465222D01*
X2888700Y-71465230D01*
X3027803Y-71680662D01*
X3081291Y-71763501D01*
X3307173Y-72040954D01*
X3562137Y-72291944D01*
X3564269Y-72293625D01*
X3564275Y-72293630D01*
X3802685Y-72481577D01*
X3843103Y-72513440D01*
X4146678Y-72702766D01*
X4149123Y-72703940D01*
X4149132Y-72703945D01*
X4307937Y-72780202D01*
X4469196Y-72857637D01*
X4806760Y-72976181D01*
X5155295Y-73056967D01*
X5157987Y-73057286D01*
X5157995Y-73057287D01*
X5508465Y-73098768D01*
X5508474Y-73098769D01*
X5510589Y-73099019D01*
X5538052Y-73099882D01*
X5556911Y-73100475D01*
X5556926Y-73100475D01*
X5557714Y-73100500D01*
X5804817Y-73100500D01*
X6019511Y-73088685D01*
X6069510Y-73085933D01*
X6069512Y-73085933D01*
X6072234Y-73085783D01*
X6249054Y-73056352D01*
X6422462Y-73027489D01*
X6422464Y-73027489D01*
X6425153Y-73027041D01*
X6592789Y-72979763D01*
X6766868Y-72930668D01*
X6766870Y-72930667D01*
X6769495Y-72929927D01*
X6772021Y-72928904D01*
X7098578Y-72796635D01*
X7098585Y-72796632D01*
X7101100Y-72795613D01*
X7103492Y-72794322D01*
X7103497Y-72794320D01*
X7275838Y-72701329D01*
X7415964Y-72625721D01*
X7710284Y-72422305D01*
X7712339Y-72420522D01*
X7978451Y-72189601D01*
X7978456Y-72189596D01*
X7980504Y-72187819D01*
X8031001Y-72133192D01*
X8221511Y-71927100D01*
X8221516Y-71927094D01*
X8223362Y-71925097D01*
X8435923Y-71637312D01*
X8467110Y-71583621D01*
X8574634Y-71398504D01*
X8615621Y-71327940D01*
X8666983Y-71211762D01*
X34595733Y-71211762D01*
X34625326Y-71583621D01*
X34625812Y-71586205D01*
X34625813Y-71586213D01*
X34693781Y-71947651D01*
X34694266Y-71950229D01*
X34801773Y-72307435D01*
X34802795Y-72309861D01*
X34802796Y-72309863D01*
X34945609Y-72648776D01*
X34945614Y-72648786D01*
X34946629Y-72651195D01*
X35127195Y-72977615D01*
X35341424Y-73283000D01*
X35586893Y-73563890D01*
X35860820Y-73817106D01*
X36160104Y-74039779D01*
X36162371Y-74041117D01*
X36162380Y-74041123D01*
X36479084Y-74228048D01*
X36479090Y-74228051D01*
X36481355Y-74229388D01*
X36820936Y-74383786D01*
X37175001Y-74501225D01*
X37177576Y-74501784D01*
X37177583Y-74501786D01*
X37536971Y-74579817D01*
X37536975Y-74579818D01*
X37539542Y-74580375D01*
X37910428Y-74620338D01*
X37912396Y-74620391D01*
X37912407Y-74620392D01*
X37914333Y-74620444D01*
X37916414Y-74620500D01*
X38193239Y-74620500D01*
X38472505Y-74605620D01*
X38475101Y-74605202D01*
X38475109Y-74605201D01*
X38838180Y-74546721D01*
X38838185Y-74546720D01*
X38840792Y-74546300D01*
X38843338Y-74545606D01*
X38843342Y-74545605D01*
X39020742Y-74497240D01*
X39200691Y-74448181D01*
X39203141Y-74447223D01*
X39203151Y-74447220D01*
X39394864Y-74372280D01*
X39548124Y-74312372D01*
X39710455Y-74228048D01*
X39876813Y-74141632D01*
X39876818Y-74141629D01*
X39879159Y-74140413D01*
X39881352Y-74138959D01*
X39881360Y-74138954D01*
X40187847Y-73935710D01*
X40187848Y-73935709D01*
X40190047Y-73934251D01*
X40477267Y-73696220D01*
X40737566Y-73429015D01*
X40967998Y-73135663D01*
X40999227Y-73085783D01*
X41164552Y-72821720D01*
X41164554Y-72821716D01*
X41165951Y-72819485D01*
X41329186Y-72484062D01*
X41455853Y-72133192D01*
X41478424Y-72040954D01*
X41543891Y-71773411D01*
X41543892Y-71773408D01*
X41544518Y-71770848D01*
X41594176Y-71401135D01*
X41604267Y-71028238D01*
X41574674Y-70656379D01*
X41539959Y-70471768D01*
X41506219Y-70292349D01*
X41506218Y-70292345D01*
X41505734Y-70289771D01*
X41398227Y-69932565D01*
X41323799Y-69755938D01*
X41254391Y-69591224D01*
X41254386Y-69591214D01*
X41253371Y-69588805D01*
X41072805Y-69262385D01*
X40858576Y-68957000D01*
X40613107Y-68676110D01*
X40339180Y-68422894D01*
X40039896Y-68200221D01*
X40037629Y-68198883D01*
X40037620Y-68198877D01*
X39720916Y-68011952D01*
X39720910Y-68011949D01*
X39718645Y-68010612D01*
X39379064Y-67856214D01*
X39024999Y-67738775D01*
X39022424Y-67738216D01*
X39022417Y-67738214D01*
X38663029Y-67660183D01*
X38663025Y-67660182D01*
X38660458Y-67659625D01*
X38289572Y-67619662D01*
X38287604Y-67619609D01*
X38287593Y-67619608D01*
X38285667Y-67619556D01*
X38283586Y-67619500D01*
X38006761Y-67619500D01*
X37727495Y-67634380D01*
X37724899Y-67634798D01*
X37724891Y-67634799D01*
X37361820Y-67693279D01*
X37361815Y-67693280D01*
X37359208Y-67693700D01*
X37356662Y-67694394D01*
X37356658Y-67694395D01*
X37195931Y-67738214D01*
X36999309Y-67791819D01*
X36996859Y-67792777D01*
X36996849Y-67792780D01*
X36831777Y-67857306D01*
X36651876Y-67927628D01*
X36649537Y-67928843D01*
X36323187Y-68098368D01*
X36323182Y-68098371D01*
X36320841Y-68099587D01*
X36318648Y-68101041D01*
X36318640Y-68101046D01*
X36113530Y-68237063D01*
X36009953Y-68305749D01*
X35722733Y-68543780D01*
X35462434Y-68810985D01*
X35460806Y-68813058D01*
X35460803Y-68813061D01*
X35392022Y-68900623D01*
X35232002Y-69104337D01*
X35230603Y-69106572D01*
X35230602Y-69106573D01*
X35050648Y-69394003D01*
X35034049Y-69420515D01*
X34870814Y-69755938D01*
X34869917Y-69758423D01*
X34799942Y-69952256D01*
X34744147Y-70106808D01*
X34743523Y-70109360D01*
X34743521Y-70109365D01*
X34656109Y-70466589D01*
X34655482Y-70469152D01*
X34655131Y-70471768D01*
X34610073Y-70807232D01*
X34605824Y-70838865D01*
X34595733Y-71211762D01*
X8666983Y-71211762D01*
X8760285Y-71000717D01*
X8868167Y-70659596D01*
X8937966Y-70308696D01*
X8955338Y-70108120D01*
X8968603Y-69954961D01*
X8968603Y-69954956D01*
X8968837Y-69952256D01*
X8960408Y-69594581D01*
X8915788Y-69262385D01*
X8913143Y-69242692D01*
X8913142Y-69242688D01*
X8912780Y-69239991D01*
X8826530Y-68892768D01*
X8797125Y-68813061D01*
X8703636Y-68559650D01*
X8703635Y-68559647D01*
X8702698Y-68557108D01*
X8696986Y-68545676D01*
X8543999Y-68239502D01*
X8543997Y-68239498D01*
X8542780Y-68237063D01*
X8541304Y-68234778D01*
X8541300Y-68234770D01*
X8350190Y-67938793D01*
X8348709Y-67936499D01*
X8122827Y-67659046D01*
X8097771Y-67634380D01*
X7869799Y-67409962D01*
X7867863Y-67408056D01*
X7865731Y-67406375D01*
X7865725Y-67406370D01*
X7589031Y-67188242D01*
X7589027Y-67188239D01*
X7586897Y-67186560D01*
X7283322Y-66997234D01*
X7280877Y-66996060D01*
X7280868Y-66996055D01*
X7092661Y-66905680D01*
X6960804Y-66842363D01*
X6623240Y-66723819D01*
X6274705Y-66643033D01*
X6272013Y-66642714D01*
X6272005Y-66642713D01*
X5921535Y-66601232D01*
X5921526Y-66601231D01*
X5919411Y-66600981D01*
X5891948Y-66600118D01*
X5873089Y-66599525D01*
X5873074Y-66599525D01*
X5872286Y-66599500D01*
X5625183Y-66599500D01*
X5410489Y-66611315D01*
X5360490Y-66614067D01*
X5360488Y-66614067D01*
X5357766Y-66614217D01*
X5186563Y-66642713D01*
X5007538Y-66672511D01*
X5007536Y-66672511D01*
X5004847Y-66672959D01*
X5002224Y-66673699D01*
X5002223Y-66673699D01*
X4826691Y-66723204D01*
X4660505Y-66770073D01*
X4657981Y-66771095D01*
X4657979Y-66771096D01*
X4331422Y-66903365D01*
X4331415Y-66903368D01*
X4328900Y-66904387D01*
X4326508Y-66905678D01*
X4326503Y-66905680D01*
X4186993Y-66980956D01*
X4014036Y-67074279D01*
X3719716Y-67277695D01*
X3717664Y-67279476D01*
X3717661Y-67279478D01*
X3451549Y-67510399D01*
X3451544Y-67510404D01*
X3449496Y-67512181D01*
X3447649Y-67514179D01*
X3447648Y-67514180D01*
X3208489Y-67772900D01*
X3208484Y-67772906D01*
X3206638Y-67774903D01*
X2994077Y-68062688D01*
X2814379Y-68372060D01*
X2669715Y-68699283D01*
X2561833Y-69040404D01*
X2492034Y-69391304D01*
X2491801Y-69393999D01*
X2491800Y-69394003D01*
X2474193Y-69597303D01*
X2461163Y-69747744D01*
X500Y-69747744D01*
X500Y-60416762D01*
X11735733Y-60416762D01*
X11765326Y-60788621D01*
X11765812Y-60791205D01*
X11765813Y-60791213D01*
X11833781Y-61152651D01*
X11834266Y-61155229D01*
X11941773Y-61512435D01*
X11942795Y-61514861D01*
X11942796Y-61514863D01*
X12085609Y-61853776D01*
X12085614Y-61853786D01*
X12086629Y-61856195D01*
X12267195Y-62182615D01*
X12481424Y-62488000D01*
X12726893Y-62768890D01*
X13000820Y-63022106D01*
X13300104Y-63244779D01*
X13302371Y-63246117D01*
X13302380Y-63246123D01*
X13619084Y-63433048D01*
X13619090Y-63433051D01*
X13621355Y-63434388D01*
X13960936Y-63588786D01*
X14315001Y-63706225D01*
X14317576Y-63706784D01*
X14317583Y-63706786D01*
X14676971Y-63784817D01*
X14676975Y-63784818D01*
X14679542Y-63785375D01*
X15050428Y-63825338D01*
X15052396Y-63825391D01*
X15052407Y-63825392D01*
X15054333Y-63825444D01*
X15056414Y-63825500D01*
X15333239Y-63825500D01*
X15612505Y-63810620D01*
X15615101Y-63810202D01*
X15615109Y-63810201D01*
X15978180Y-63751721D01*
X15978185Y-63751720D01*
X15980792Y-63751300D01*
X15983338Y-63750606D01*
X15983342Y-63750605D01*
X16160742Y-63702240D01*
X16340691Y-63653181D01*
X16343141Y-63652223D01*
X16343151Y-63652220D01*
X16534864Y-63577280D01*
X16688124Y-63517372D01*
X16850455Y-63433048D01*
X17016813Y-63346632D01*
X17016818Y-63346629D01*
X17019159Y-63345413D01*
X17021352Y-63343959D01*
X17021360Y-63343954D01*
X17327847Y-63140710D01*
X17327848Y-63140709D01*
X17330047Y-63139251D01*
X17617267Y-62901220D01*
X17877566Y-62634015D01*
X18107998Y-62340663D01*
X18139227Y-62290783D01*
X18304552Y-62026720D01*
X18304554Y-62026716D01*
X18305951Y-62024485D01*
X18469186Y-61689062D01*
X18595853Y-61338192D01*
X18618424Y-61245954D01*
X18683891Y-60978411D01*
X18683892Y-60978408D01*
X18684518Y-60975848D01*
X18734176Y-60606135D01*
X18744267Y-60233238D01*
X18714674Y-59861379D01*
X18679959Y-59676768D01*
X18646219Y-59497349D01*
X18646218Y-59497345D01*
X18645734Y-59494771D01*
X18538227Y-59137565D01*
X18463799Y-58960938D01*
X18460346Y-58952744D01*
X44371163Y-58952744D01*
X44379592Y-59310419D01*
X44427220Y-59665009D01*
X44513470Y-60012232D01*
X44514411Y-60014784D01*
X44514413Y-60014789D01*
X44595974Y-60235869D01*
X44637302Y-60347892D01*
X44638512Y-60350313D01*
X44638513Y-60350316D01*
X44765025Y-60603504D01*
X44797220Y-60667937D01*
X44798696Y-60670222D01*
X44798700Y-60670230D01*
X44937803Y-60885662D01*
X44991291Y-60968501D01*
X45217173Y-61245954D01*
X45472137Y-61496944D01*
X45474269Y-61498625D01*
X45474275Y-61498630D01*
X45712685Y-61686577D01*
X45753103Y-61718440D01*
X46056678Y-61907766D01*
X46059123Y-61908940D01*
X46059132Y-61908945D01*
X46217937Y-61985201D01*
X46379196Y-62062637D01*
X46716760Y-62181181D01*
X47065295Y-62261967D01*
X47067987Y-62262286D01*
X47067995Y-62262287D01*
X47418465Y-62303768D01*
X47418474Y-62303769D01*
X47420589Y-62304019D01*
X47448052Y-62304882D01*
X47466911Y-62305475D01*
X47466926Y-62305475D01*
X47467714Y-62305500D01*
X47714817Y-62305500D01*
X47929511Y-62293685D01*
X47979510Y-62290933D01*
X47979512Y-62290933D01*
X47982234Y-62290783D01*
X48159054Y-62261352D01*
X48332462Y-62232489D01*
X48332464Y-62232489D01*
X48335153Y-62232041D01*
X48502789Y-62184763D01*
X48676868Y-62135668D01*
X48676870Y-62135667D01*
X48679495Y-62134927D01*
X48682021Y-62133904D01*
X49008578Y-62001635D01*
X49008585Y-62001632D01*
X49011100Y-62000613D01*
X49013492Y-61999322D01*
X49013497Y-61999320D01*
X49185838Y-61906329D01*
X49325964Y-61830721D01*
X49620284Y-61627305D01*
X49622339Y-61625522D01*
X49888451Y-61394601D01*
X49888456Y-61394596D01*
X49890504Y-61392819D01*
X49941001Y-61338192D01*
X50131511Y-61132100D01*
X50131516Y-61132094D01*
X50133362Y-61130097D01*
X50345923Y-60842312D01*
X50377110Y-60788621D01*
X50484634Y-60603504D01*
X50525621Y-60532940D01*
X50670285Y-60205717D01*
X50778167Y-59864596D01*
X50847966Y-59513696D01*
X50865338Y-59313120D01*
X50878603Y-59159961D01*
X50878603Y-59159956D01*
X50878837Y-59157256D01*
X50870408Y-58799581D01*
X50825788Y-58467385D01*
X50823143Y-58447692D01*
X50823142Y-58447688D01*
X50822780Y-58444991D01*
X50736530Y-58097768D01*
X50707125Y-58018061D01*
X50613636Y-57764650D01*
X50613635Y-57764647D01*
X50612698Y-57762108D01*
X50606986Y-57750676D01*
X50453999Y-57444502D01*
X50453997Y-57444498D01*
X50452780Y-57442063D01*
X50451304Y-57439778D01*
X50451300Y-57439770D01*
X50260190Y-57143793D01*
X50258709Y-57141499D01*
X50032827Y-56864046D01*
X50007771Y-56839380D01*
X49779799Y-56614962D01*
X49777863Y-56613056D01*
X49775731Y-56611375D01*
X49775725Y-56611370D01*
X49499031Y-56393242D01*
X49499027Y-56393239D01*
X49496897Y-56391560D01*
X49193322Y-56202234D01*
X49190877Y-56201060D01*
X49190868Y-56201055D01*
X49002661Y-56110680D01*
X48870804Y-56047363D01*
X48533240Y-55928819D01*
X48184705Y-55848033D01*
X48182013Y-55847714D01*
X48182005Y-55847713D01*
X47831535Y-55806232D01*
X47831526Y-55806231D01*
X47829411Y-55805981D01*
X47801948Y-55805118D01*
X47783089Y-55804525D01*
X47783074Y-55804525D01*
X47782286Y-55804500D01*
X47535183Y-55804500D01*
X47320489Y-55816315D01*
X47270490Y-55819067D01*
X47270488Y-55819067D01*
X47267766Y-55819217D01*
X47096563Y-55847713D01*
X46917538Y-55877511D01*
X46917536Y-55877511D01*
X46914847Y-55877959D01*
X46912224Y-55878699D01*
X46912223Y-55878699D01*
X46736691Y-55928204D01*
X46570505Y-55975073D01*
X46567981Y-55976095D01*
X46567979Y-55976096D01*
X46241422Y-56108365D01*
X46241415Y-56108368D01*
X46238900Y-56109387D01*
X46236508Y-56110678D01*
X46236503Y-56110680D01*
X46096993Y-56185956D01*
X45924036Y-56279279D01*
X45629716Y-56482695D01*
X45627664Y-56484476D01*
X45627661Y-56484478D01*
X45361549Y-56715399D01*
X45361544Y-56715404D01*
X45359496Y-56717181D01*
X45357649Y-56719179D01*
X45357648Y-56719180D01*
X45118489Y-56977900D01*
X45118484Y-56977906D01*
X45116638Y-56979903D01*
X44904077Y-57267688D01*
X44724379Y-57577060D01*
X44579715Y-57904283D01*
X44471833Y-58245404D01*
X44402034Y-58596304D01*
X44401801Y-58598999D01*
X44401800Y-58599003D01*
X44384193Y-58802303D01*
X44371163Y-58952744D01*
X18460346Y-58952744D01*
X18394391Y-58796224D01*
X18394386Y-58796214D01*
X18393371Y-58793805D01*
X18212805Y-58467385D01*
X17998576Y-58162000D01*
X17753107Y-57881110D01*
X17479180Y-57627894D01*
X17179896Y-57405221D01*
X17177629Y-57403883D01*
X17177620Y-57403877D01*
X16860916Y-57216952D01*
X16860910Y-57216949D01*
X16858645Y-57215612D01*
X16519064Y-57061214D01*
X16164999Y-56943775D01*
X16162424Y-56943216D01*
X16162417Y-56943214D01*
X15803029Y-56865183D01*
X15803025Y-56865182D01*
X15800458Y-56864625D01*
X15429572Y-56824662D01*
X15427604Y-56824609D01*
X15427593Y-56824608D01*
X15425667Y-56824556D01*
X15423586Y-56824500D01*
X15146761Y-56824500D01*
X14867495Y-56839380D01*
X14864899Y-56839798D01*
X14864891Y-56839799D01*
X14501820Y-56898279D01*
X14501815Y-56898280D01*
X14499208Y-56898700D01*
X14496662Y-56899394D01*
X14496658Y-56899395D01*
X14335931Y-56943214D01*
X14139309Y-56996819D01*
X14136859Y-56997777D01*
X14136849Y-56997780D01*
X13971777Y-57062306D01*
X13791876Y-57132628D01*
X13789537Y-57133843D01*
X13463187Y-57303368D01*
X13463182Y-57303371D01*
X13460841Y-57304587D01*
X13458648Y-57306041D01*
X13458640Y-57306046D01*
X13253530Y-57442063D01*
X13149953Y-57510749D01*
X12862733Y-57748780D01*
X12602434Y-58015985D01*
X12600806Y-58018058D01*
X12600803Y-58018061D01*
X12532022Y-58105623D01*
X12372002Y-58309337D01*
X12370603Y-58311572D01*
X12370602Y-58311573D01*
X12190648Y-58599003D01*
X12174049Y-58625515D01*
X12010814Y-58960938D01*
X12009917Y-58963423D01*
X11939942Y-59157256D01*
X11884147Y-59311808D01*
X11883523Y-59314360D01*
X11883521Y-59314365D01*
X11796109Y-59671589D01*
X11795482Y-59674152D01*
X11795131Y-59676768D01*
X11750073Y-60012232D01*
X11745824Y-60043865D01*
X11735733Y-60416762D01*
X500Y-60416762D01*
X500Y-49621762D01*
X34595733Y-49621762D01*
X34625326Y-49993621D01*
X34625812Y-49996205D01*
X34625813Y-49996213D01*
X34693781Y-50357651D01*
X34694266Y-50360229D01*
X34801773Y-50717435D01*
X34802795Y-50719861D01*
X34802796Y-50719863D01*
X34945609Y-51058776D01*
X34945614Y-51058786D01*
X34946629Y-51061195D01*
X35127195Y-51387615D01*
X35341424Y-51693000D01*
X35586893Y-51973890D01*
X35860820Y-52227106D01*
X36160104Y-52449779D01*
X36162371Y-52451117D01*
X36162380Y-52451123D01*
X36479084Y-52638048D01*
X36479090Y-52638051D01*
X36481355Y-52639388D01*
X36820936Y-52793786D01*
X37175001Y-52911225D01*
X37177576Y-52911784D01*
X37177583Y-52911786D01*
X37536971Y-52989817D01*
X37536975Y-52989818D01*
X37539542Y-52990375D01*
X37910428Y-53030338D01*
X37912396Y-53030391D01*
X37912407Y-53030392D01*
X37914333Y-53030444D01*
X37916414Y-53030500D01*
X38193239Y-53030500D01*
X38472505Y-53015620D01*
X38475101Y-53015202D01*
X38475109Y-53015201D01*
X38838180Y-52956721D01*
X38838185Y-52956720D01*
X38840792Y-52956300D01*
X38843338Y-52955606D01*
X38843342Y-52955605D01*
X39020741Y-52907241D01*
X39200691Y-52858181D01*
X39203141Y-52857223D01*
X39203151Y-52857220D01*
X39394864Y-52782280D01*
X39548124Y-52722372D01*
X39710455Y-52638048D01*
X39876813Y-52551632D01*
X39876818Y-52551629D01*
X39879159Y-52550413D01*
X39881352Y-52548959D01*
X39881360Y-52548954D01*
X40187847Y-52345710D01*
X40187848Y-52345709D01*
X40190047Y-52344251D01*
X40477267Y-52106220D01*
X40737566Y-51839015D01*
X40967998Y-51545663D01*
X41165951Y-51229485D01*
X41329186Y-50894062D01*
X41455853Y-50543192D01*
X41544518Y-50180848D01*
X41594176Y-49811135D01*
X41604267Y-49438238D01*
X41574674Y-49066379D01*
X41539959Y-48881768D01*
X41506219Y-48702349D01*
X41506218Y-48702345D01*
X41505734Y-48699771D01*
X41398227Y-48342565D01*
X41323799Y-48165938D01*
X41254391Y-48001224D01*
X41254386Y-48001214D01*
X41253371Y-47998805D01*
X41072805Y-47672385D01*
X40858576Y-47367000D01*
X40613107Y-47086110D01*
X40339180Y-46832894D01*
X40039896Y-46610221D01*
X40037629Y-46608883D01*
X40037620Y-46608877D01*
X39720916Y-46421952D01*
X39720910Y-46421949D01*
X39718645Y-46420612D01*
X39379064Y-46266214D01*
X39024999Y-46148775D01*
X39022424Y-46148216D01*
X39022417Y-46148214D01*
X38663029Y-46070183D01*
X38663025Y-46070182D01*
X38660458Y-46069625D01*
X38289572Y-46029662D01*
X38287604Y-46029609D01*
X38287593Y-46029608D01*
X38285667Y-46029556D01*
X38283586Y-46029500D01*
X38006761Y-46029500D01*
X37727495Y-46044380D01*
X37724899Y-46044798D01*
X37724891Y-46044799D01*
X37361820Y-46103279D01*
X37361815Y-46103280D01*
X37359208Y-46103700D01*
X37356662Y-46104394D01*
X37356658Y-46104395D01*
X37195931Y-46148214D01*
X36999309Y-46201819D01*
X36996859Y-46202777D01*
X36996849Y-46202780D01*
X36831777Y-46267306D01*
X36651876Y-46337628D01*
X36649537Y-46338843D01*
X36323187Y-46508368D01*
X36323182Y-46508371D01*
X36320841Y-46509587D01*
X36318648Y-46511041D01*
X36318640Y-46511046D01*
X36012153Y-46714290D01*
X36009953Y-46715749D01*
X35722733Y-46953780D01*
X35462434Y-47220985D01*
X35232002Y-47514337D01*
X35034049Y-47830515D01*
X34870814Y-48165938D01*
X34744147Y-48516808D01*
X34655482Y-48879152D01*
X34605824Y-49248865D01*
X34595733Y-49621762D01*
X500Y-49621762D01*
X500Y-38826762D01*
X11735733Y-38826762D01*
X11765326Y-39198621D01*
X11765812Y-39201205D01*
X11765813Y-39201213D01*
X11833781Y-39562651D01*
X11834266Y-39565229D01*
X11941773Y-39922435D01*
X11942795Y-39924861D01*
X11942796Y-39924863D01*
X12085609Y-40263776D01*
X12085614Y-40263786D01*
X12086629Y-40266195D01*
X12267195Y-40592615D01*
X12481424Y-40898000D01*
X12726893Y-41178890D01*
X13000820Y-41432106D01*
X13300104Y-41654779D01*
X13302371Y-41656117D01*
X13302380Y-41656123D01*
X13619084Y-41843048D01*
X13619090Y-41843051D01*
X13621355Y-41844388D01*
X13960936Y-41998786D01*
X14315001Y-42116225D01*
X14317576Y-42116784D01*
X14317583Y-42116786D01*
X14676971Y-42194817D01*
X14676975Y-42194818D01*
X14679542Y-42195375D01*
X15050428Y-42235338D01*
X15052396Y-42235391D01*
X15052407Y-42235392D01*
X15054333Y-42235444D01*
X15056414Y-42235500D01*
X15333239Y-42235500D01*
X15612505Y-42220620D01*
X15615101Y-42220202D01*
X15615109Y-42220201D01*
X15978180Y-42161721D01*
X15978185Y-42161720D01*
X15980792Y-42161300D01*
X15983338Y-42160606D01*
X15983342Y-42160605D01*
X16160742Y-42112240D01*
X16340691Y-42063181D01*
X16343141Y-42062223D01*
X16343151Y-42062220D01*
X16534864Y-41987280D01*
X16688124Y-41927372D01*
X16850455Y-41843048D01*
X17016813Y-41756632D01*
X17016818Y-41756629D01*
X17019159Y-41755413D01*
X17021352Y-41753959D01*
X17021360Y-41753954D01*
X17327847Y-41550710D01*
X17327848Y-41550709D01*
X17330047Y-41549251D01*
X17617267Y-41311220D01*
X17877566Y-41044015D01*
X18107998Y-40750663D01*
X18139227Y-40700783D01*
X18304552Y-40436720D01*
X18304554Y-40436716D01*
X18305951Y-40434485D01*
X18469186Y-40099062D01*
X18595853Y-39748192D01*
X18618424Y-39655954D01*
X18683891Y-39388411D01*
X18683892Y-39388408D01*
X18684518Y-39385848D01*
X18734176Y-39016135D01*
X18744267Y-38643238D01*
X18714674Y-38271379D01*
X18679959Y-38086768D01*
X18646219Y-37907349D01*
X18646218Y-37907345D01*
X18645734Y-37904771D01*
X18538227Y-37547565D01*
X18463799Y-37370938D01*
X18460346Y-37362744D01*
X44371163Y-37362744D01*
X44379592Y-37720419D01*
X44427220Y-38075009D01*
X44513470Y-38422232D01*
X44514411Y-38424784D01*
X44514413Y-38424789D01*
X44595974Y-38645869D01*
X44637302Y-38757892D01*
X44638512Y-38760313D01*
X44638513Y-38760316D01*
X44765025Y-39013504D01*
X44797220Y-39077937D01*
X44798696Y-39080222D01*
X44798700Y-39080230D01*
X44937803Y-39295662D01*
X44991291Y-39378501D01*
X45217173Y-39655954D01*
X45472137Y-39906944D01*
X45474269Y-39908625D01*
X45474275Y-39908630D01*
X45712685Y-40096577D01*
X45753103Y-40128440D01*
X46056678Y-40317766D01*
X46059123Y-40318940D01*
X46059132Y-40318945D01*
X46217937Y-40395201D01*
X46379196Y-40472637D01*
X46716760Y-40591181D01*
X47065295Y-40671967D01*
X47067987Y-40672286D01*
X47067995Y-40672287D01*
X47418465Y-40713768D01*
X47418474Y-40713769D01*
X47420589Y-40714019D01*
X47448052Y-40714882D01*
X47466911Y-40715475D01*
X47466926Y-40715475D01*
X47467714Y-40715500D01*
X47714817Y-40715500D01*
X47929511Y-40703685D01*
X47979510Y-40700933D01*
X47979512Y-40700933D01*
X47982234Y-40700783D01*
X48159054Y-40671352D01*
X48332462Y-40642489D01*
X48332464Y-40642489D01*
X48335153Y-40642041D01*
X48502789Y-40594763D01*
X48676868Y-40545668D01*
X48676870Y-40545667D01*
X48679495Y-40544927D01*
X48682021Y-40543904D01*
X49008578Y-40411635D01*
X49008585Y-40411632D01*
X49011100Y-40410613D01*
X49013492Y-40409322D01*
X49013497Y-40409320D01*
X49185838Y-40316329D01*
X49325964Y-40240721D01*
X49620284Y-40037305D01*
X49622339Y-40035522D01*
X49888451Y-39804601D01*
X49888456Y-39804596D01*
X49890504Y-39802819D01*
X49941001Y-39748192D01*
X50131511Y-39542100D01*
X50131516Y-39542094D01*
X50133362Y-39540097D01*
X50345923Y-39252312D01*
X50377110Y-39198621D01*
X50484634Y-39013504D01*
X50525621Y-38942940D01*
X50670285Y-38615717D01*
X50778167Y-38274596D01*
X50847966Y-37923696D01*
X50865338Y-37723120D01*
X50878603Y-37569961D01*
X50878603Y-37569956D01*
X50878837Y-37567256D01*
X50870408Y-37209581D01*
X50825788Y-36877385D01*
X50823143Y-36857692D01*
X50823142Y-36857688D01*
X50822780Y-36854991D01*
X50736530Y-36507768D01*
X50707125Y-36428061D01*
X50613636Y-36174650D01*
X50613635Y-36174647D01*
X50612698Y-36172108D01*
X50606986Y-36160676D01*
X50453999Y-35854502D01*
X50453997Y-35854498D01*
X50452780Y-35852063D01*
X50451304Y-35849778D01*
X50451300Y-35849770D01*
X50260190Y-35553793D01*
X50258709Y-35551499D01*
X50032827Y-35274046D01*
X50007771Y-35249380D01*
X49779799Y-35024962D01*
X49777863Y-35023056D01*
X49775731Y-35021375D01*
X49775725Y-35021370D01*
X49499031Y-34803242D01*
X49499027Y-34803239D01*
X49496897Y-34801560D01*
X49193322Y-34612234D01*
X49190877Y-34611060D01*
X49190868Y-34611055D01*
X49002661Y-34520680D01*
X48870804Y-34457363D01*
X48533240Y-34338819D01*
X48184705Y-34258033D01*
X48182013Y-34257714D01*
X48182005Y-34257713D01*
X47831535Y-34216232D01*
X47831526Y-34216231D01*
X47829411Y-34215981D01*
X47801948Y-34215118D01*
X47783089Y-34214525D01*
X47783074Y-34214525D01*
X47782286Y-34214500D01*
X47535183Y-34214500D01*
X47320489Y-34226315D01*
X47270490Y-34229067D01*
X47270488Y-34229067D01*
X47267766Y-34229217D01*
X47096563Y-34257713D01*
X46917538Y-34287511D01*
X46917536Y-34287511D01*
X46914847Y-34287959D01*
X46912224Y-34288699D01*
X46912223Y-34288699D01*
X46736691Y-34338204D01*
X46570505Y-34385073D01*
X46567981Y-34386095D01*
X46567979Y-34386096D01*
X46241422Y-34518365D01*
X46241415Y-34518368D01*
X46238900Y-34519387D01*
X46236508Y-34520678D01*
X46236503Y-34520680D01*
X46096993Y-34595956D01*
X45924036Y-34689279D01*
X45629716Y-34892695D01*
X45627664Y-34894476D01*
X45627661Y-34894478D01*
X45361549Y-35125399D01*
X45361544Y-35125404D01*
X45359496Y-35127181D01*
X45357649Y-35129179D01*
X45357648Y-35129180D01*
X45118489Y-35387900D01*
X45118484Y-35387906D01*
X45116638Y-35389903D01*
X44904077Y-35677688D01*
X44724379Y-35987060D01*
X44579715Y-36314283D01*
X44471833Y-36655404D01*
X44402034Y-37006304D01*
X44401801Y-37008999D01*
X44401800Y-37009003D01*
X44384193Y-37212303D01*
X44371163Y-37362744D01*
X18460346Y-37362744D01*
X18394391Y-37206224D01*
X18394386Y-37206214D01*
X18393371Y-37203805D01*
X18212805Y-36877385D01*
X17998576Y-36572000D01*
X17753107Y-36291110D01*
X17479180Y-36037894D01*
X17179896Y-35815221D01*
X17177629Y-35813883D01*
X17177620Y-35813877D01*
X16860916Y-35626952D01*
X16860910Y-35626949D01*
X16858645Y-35625612D01*
X16519064Y-35471214D01*
X16164999Y-35353775D01*
X16162424Y-35353216D01*
X16162417Y-35353214D01*
X15803029Y-35275183D01*
X15803025Y-35275182D01*
X15800458Y-35274625D01*
X15429572Y-35234662D01*
X15427604Y-35234609D01*
X15427593Y-35234608D01*
X15425667Y-35234556D01*
X15423586Y-35234500D01*
X15146761Y-35234500D01*
X14867495Y-35249380D01*
X14864899Y-35249798D01*
X14864891Y-35249799D01*
X14501820Y-35308279D01*
X14501815Y-35308280D01*
X14499208Y-35308700D01*
X14496662Y-35309394D01*
X14496658Y-35309395D01*
X14335931Y-35353214D01*
X14139309Y-35406819D01*
X14136859Y-35407777D01*
X14136849Y-35407780D01*
X13971777Y-35472306D01*
X13791876Y-35542628D01*
X13789537Y-35543843D01*
X13463187Y-35713368D01*
X13463182Y-35713371D01*
X13460841Y-35714587D01*
X13458648Y-35716041D01*
X13458640Y-35716046D01*
X13253530Y-35852063D01*
X13149953Y-35920749D01*
X12862733Y-36158780D01*
X12602434Y-36425985D01*
X12600806Y-36428058D01*
X12600803Y-36428061D01*
X12532022Y-36515623D01*
X12372002Y-36719337D01*
X12370603Y-36721572D01*
X12370602Y-36721573D01*
X12190648Y-37009003D01*
X12174049Y-37035515D01*
X12010814Y-37370938D01*
X12009917Y-37373423D01*
X11939942Y-37567256D01*
X11884147Y-37721808D01*
X11883523Y-37724360D01*
X11883521Y-37724365D01*
X11796109Y-38081589D01*
X11795482Y-38084152D01*
X11795131Y-38086768D01*
X11750073Y-38422232D01*
X11745824Y-38453865D01*
X11735733Y-38826762D01*
X500Y-38826762D01*
X500Y-27982095D01*
X3225028Y-27982095D01*
X3225368Y-27985657D01*
X3225368Y-27985664D01*
X3242922Y-28169648D01*
X3250534Y-28249431D01*
X3314364Y-28510285D01*
X3415182Y-28759192D01*
X3550875Y-28990938D01*
X3718601Y-29200669D01*
X3914846Y-29383991D01*
X4135499Y-29537064D01*
X4257066Y-29597542D01*
X4372723Y-29655081D01*
X4372728Y-29655083D01*
X4375938Y-29656680D01*
X4379349Y-29657798D01*
X4379351Y-29657799D01*
X4627721Y-29739219D01*
X4627724Y-29739220D01*
X4631126Y-29740335D01*
X4895717Y-29786276D01*
X4944761Y-29788717D01*
X4979335Y-29790439D01*
X4979348Y-29790439D01*
X4980567Y-29790500D01*
X5148223Y-29790500D01*
X5347846Y-29776016D01*
X5610080Y-29718120D01*
X5613429Y-29716851D01*
X5613433Y-29716850D01*
X5715087Y-29678337D01*
X5861211Y-29622975D01*
X6015879Y-29537064D01*
X6092837Y-29494318D01*
X6092841Y-29494315D01*
X6095976Y-29492574D01*
X6123990Y-29471195D01*
X6306607Y-29331826D01*
X6306609Y-29331825D01*
X6309458Y-29329650D01*
X6497185Y-29137614D01*
X6655225Y-28920491D01*
X6780265Y-28682828D01*
X6869688Y-28429603D01*
X6905904Y-28245861D01*
X6920925Y-28169648D01*
X6921620Y-28166122D01*
X6928309Y-28031762D01*
X34595733Y-28031762D01*
X34625326Y-28403621D01*
X34625812Y-28406205D01*
X34625813Y-28406213D01*
X34693781Y-28767651D01*
X34694266Y-28770229D01*
X34801773Y-29127435D01*
X34802795Y-29129861D01*
X34802796Y-29129863D01*
X34945609Y-29468776D01*
X34945614Y-29468786D01*
X34946629Y-29471195D01*
X35127195Y-29797615D01*
X35341424Y-30103000D01*
X35586893Y-30383890D01*
X35860820Y-30637106D01*
X36160104Y-30859779D01*
X36162371Y-30861117D01*
X36162380Y-30861123D01*
X36479084Y-31048048D01*
X36479090Y-31048051D01*
X36481355Y-31049388D01*
X36820936Y-31203786D01*
X37175001Y-31321225D01*
X37177576Y-31321784D01*
X37177583Y-31321786D01*
X37536971Y-31399817D01*
X37536975Y-31399818D01*
X37539542Y-31400375D01*
X37910428Y-31440338D01*
X37912396Y-31440391D01*
X37912407Y-31440392D01*
X37914333Y-31440444D01*
X37916414Y-31440500D01*
X38193239Y-31440500D01*
X38472505Y-31425620D01*
X38475101Y-31425202D01*
X38475109Y-31425201D01*
X38838180Y-31366721D01*
X38838185Y-31366720D01*
X38840792Y-31366300D01*
X38843338Y-31365606D01*
X38843342Y-31365605D01*
X39020741Y-31317241D01*
X39200691Y-31268181D01*
X39203141Y-31267223D01*
X39203151Y-31267220D01*
X39394864Y-31192280D01*
X39548124Y-31132372D01*
X39710455Y-31048048D01*
X39876813Y-30961632D01*
X39876818Y-30961629D01*
X39879159Y-30960413D01*
X39881352Y-30958959D01*
X39881360Y-30958954D01*
X40187847Y-30755710D01*
X40187848Y-30755709D01*
X40190047Y-30754251D01*
X40477267Y-30516220D01*
X40737566Y-30249015D01*
X40967998Y-29955663D01*
X41068389Y-29795315D01*
X41164552Y-29641720D01*
X41164554Y-29641716D01*
X41165951Y-29639485D01*
X41329186Y-29304062D01*
X41441216Y-28993737D01*
X41454959Y-28955669D01*
X41454960Y-28955665D01*
X41455853Y-28953192D01*
X41463148Y-28923383D01*
X41543891Y-28593411D01*
X41543892Y-28593408D01*
X41544518Y-28590848D01*
X41589908Y-28252911D01*
X41593826Y-28223744D01*
X41593827Y-28223736D01*
X41594176Y-28221135D01*
X41604267Y-27848238D01*
X41574674Y-27476379D01*
X41569789Y-27450397D01*
X41506219Y-27112349D01*
X41506218Y-27112345D01*
X41505734Y-27109771D01*
X41398227Y-26752565D01*
X41367367Y-26679331D01*
X41254391Y-26411224D01*
X41254386Y-26411214D01*
X41253371Y-26408805D01*
X41072805Y-26082385D01*
X40858576Y-25777000D01*
X40613107Y-25496110D01*
X40339180Y-25242894D01*
X40039896Y-25020221D01*
X40037629Y-25018883D01*
X40037620Y-25018877D01*
X39720916Y-24831952D01*
X39720910Y-24831949D01*
X39718645Y-24830612D01*
X39379064Y-24676214D01*
X39024999Y-24558775D01*
X39022424Y-24558216D01*
X39022417Y-24558214D01*
X38663029Y-24480183D01*
X38663025Y-24480182D01*
X38660458Y-24479625D01*
X38289572Y-24439662D01*
X38287604Y-24439609D01*
X38287593Y-24439608D01*
X38285667Y-24439556D01*
X38283586Y-24439500D01*
X38006761Y-24439500D01*
X37727495Y-24454380D01*
X37724899Y-24454798D01*
X37724891Y-24454799D01*
X37361820Y-24513279D01*
X37361815Y-24513280D01*
X37359208Y-24513700D01*
X37356662Y-24514394D01*
X37356658Y-24514395D01*
X37195931Y-24558214D01*
X36999309Y-24611819D01*
X36996859Y-24612777D01*
X36996849Y-24612780D01*
X36831777Y-24677306D01*
X36651876Y-24747628D01*
X36649537Y-24748843D01*
X36323187Y-24918368D01*
X36323182Y-24918371D01*
X36320841Y-24919587D01*
X36318648Y-24921041D01*
X36318640Y-24921046D01*
X36012153Y-25124290D01*
X36009953Y-25125749D01*
X35722733Y-25363780D01*
X35462434Y-25630985D01*
X35232002Y-25924337D01*
X35230603Y-25926572D01*
X35230602Y-25926573D01*
X35096491Y-26140781D01*
X35034049Y-26240515D01*
X34870814Y-26575938D01*
X34869917Y-26578423D01*
X34757774Y-26889062D01*
X34744147Y-26926808D01*
X34743523Y-26929360D01*
X34743521Y-26929365D01*
X34656109Y-27286589D01*
X34655482Y-27289152D01*
X34634280Y-27447007D01*
X34609625Y-27630569D01*
X34605824Y-27658865D01*
X34595733Y-28031762D01*
X6928309Y-28031762D01*
X6934972Y-27897905D01*
X6934632Y-27894343D01*
X6934632Y-27894336D01*
X6909807Y-27634139D01*
X6909806Y-27634134D01*
X6909466Y-27630569D01*
X6845636Y-27369715D01*
X6744818Y-27120808D01*
X6609125Y-26889062D01*
X6441399Y-26679331D01*
X6245154Y-26496009D01*
X6024501Y-26342936D01*
X5851812Y-26257025D01*
X5787277Y-26224919D01*
X5787272Y-26224917D01*
X5784062Y-26223320D01*
X5600515Y-26163150D01*
X5532279Y-26140781D01*
X5532276Y-26140780D01*
X5528874Y-26139665D01*
X5264283Y-26093724D01*
X5215239Y-26091283D01*
X5180665Y-26089561D01*
X5180652Y-26089561D01*
X5179433Y-26089500D01*
X5011777Y-26089500D01*
X4812154Y-26103984D01*
X4549920Y-26161880D01*
X4546571Y-26163149D01*
X4546567Y-26163150D01*
X4444913Y-26201663D01*
X4298789Y-26257025D01*
X4168411Y-26329444D01*
X4067163Y-26385682D01*
X4067159Y-26385685D01*
X4064024Y-26387426D01*
X4061174Y-26389601D01*
X4061171Y-26389603D01*
X3853393Y-26548174D01*
X3850542Y-26550350D01*
X3662815Y-26742386D01*
X3504775Y-26959509D01*
X3379735Y-27197172D01*
X3290312Y-27450397D01*
X3289618Y-27453919D01*
X3289617Y-27453922D01*
X3249737Y-27656256D01*
X3238380Y-27713878D01*
X3225028Y-27982095D01*
X500Y-27982095D01*
X500Y-17236762D01*
X11735733Y-17236762D01*
X11765326Y-17608621D01*
X11765812Y-17611205D01*
X11765813Y-17611213D01*
X11833781Y-17972651D01*
X11834266Y-17975229D01*
X11941773Y-18332435D01*
X11942795Y-18334861D01*
X11942796Y-18334863D01*
X12085609Y-18673776D01*
X12085614Y-18673786D01*
X12086629Y-18676195D01*
X12267195Y-19002615D01*
X12481424Y-19308000D01*
X12726893Y-19588890D01*
X13000820Y-19842106D01*
X13300104Y-20064779D01*
X13302371Y-20066117D01*
X13302380Y-20066123D01*
X13619084Y-20253048D01*
X13619090Y-20253051D01*
X13621355Y-20254388D01*
X13960936Y-20408786D01*
X14315001Y-20526225D01*
X14317576Y-20526784D01*
X14317583Y-20526786D01*
X14676971Y-20604817D01*
X14676975Y-20604818D01*
X14679542Y-20605375D01*
X15050428Y-20645338D01*
X15052396Y-20645391D01*
X15052407Y-20645392D01*
X15054333Y-20645444D01*
X15056414Y-20645500D01*
X15333239Y-20645500D01*
X15612505Y-20630620D01*
X15615101Y-20630202D01*
X15615109Y-20630201D01*
X15978180Y-20571721D01*
X15978185Y-20571720D01*
X15980792Y-20571300D01*
X15983338Y-20570606D01*
X15983342Y-20570605D01*
X16160742Y-20522240D01*
X16340691Y-20473181D01*
X16343141Y-20472223D01*
X16343151Y-20472220D01*
X16534864Y-20397280D01*
X16688124Y-20337372D01*
X16850455Y-20253048D01*
X17016813Y-20166632D01*
X17016818Y-20166629D01*
X17019159Y-20165413D01*
X17021352Y-20163959D01*
X17021360Y-20163954D01*
X17327847Y-19960710D01*
X17327848Y-19960709D01*
X17330047Y-19959251D01*
X17617267Y-19721220D01*
X17877566Y-19454015D01*
X18107998Y-19160663D01*
X18139227Y-19110783D01*
X18304552Y-18846720D01*
X18304554Y-18846716D01*
X18305951Y-18844485D01*
X18469186Y-18509062D01*
X18595853Y-18158192D01*
X18618424Y-18065954D01*
X18683891Y-17798411D01*
X18683892Y-17798408D01*
X18684518Y-17795848D01*
X18734176Y-17426135D01*
X18744267Y-17053238D01*
X18714674Y-16681379D01*
X18679959Y-16496768D01*
X18646219Y-16317349D01*
X18646218Y-16317345D01*
X18645734Y-16314771D01*
X18538227Y-15957565D01*
X18463799Y-15780938D01*
X18460346Y-15772744D01*
X44371163Y-15772744D01*
X44379592Y-16130419D01*
X44427220Y-16485009D01*
X44513470Y-16832232D01*
X44514411Y-16834784D01*
X44514413Y-16834789D01*
X44595974Y-17055869D01*
X44637302Y-17167892D01*
X44638512Y-17170313D01*
X44638513Y-17170316D01*
X44765025Y-17423504D01*
X44797220Y-17487937D01*
X44798696Y-17490222D01*
X44798700Y-17490230D01*
X44937803Y-17705662D01*
X44991291Y-17788501D01*
X45217173Y-18065954D01*
X45472137Y-18316944D01*
X45474269Y-18318625D01*
X45474275Y-18318630D01*
X45712685Y-18506577D01*
X45753103Y-18538440D01*
X46056678Y-18727766D01*
X46059123Y-18728940D01*
X46059132Y-18728945D01*
X46217937Y-18805201D01*
X46379196Y-18882637D01*
X46716760Y-19001181D01*
X47065295Y-19081967D01*
X47067987Y-19082286D01*
X47067995Y-19082287D01*
X47418465Y-19123768D01*
X47418474Y-19123769D01*
X47420589Y-19124019D01*
X47448052Y-19124882D01*
X47466911Y-19125475D01*
X47466926Y-19125475D01*
X47467714Y-19125500D01*
X47714817Y-19125500D01*
X47929511Y-19113685D01*
X47979510Y-19110933D01*
X47979512Y-19110933D01*
X47982234Y-19110783D01*
X48159054Y-19081352D01*
X48332462Y-19052489D01*
X48332464Y-19052489D01*
X48335153Y-19052041D01*
X48502789Y-19004763D01*
X48676868Y-18955668D01*
X48676870Y-18955667D01*
X48679495Y-18954927D01*
X48682021Y-18953904D01*
X49008578Y-18821635D01*
X49008585Y-18821632D01*
X49011100Y-18820613D01*
X49013492Y-18819322D01*
X49013497Y-18819320D01*
X49185838Y-18726329D01*
X49325964Y-18650721D01*
X49620284Y-18447305D01*
X49622339Y-18445522D01*
X49888451Y-18214601D01*
X49888456Y-18214596D01*
X49890504Y-18212819D01*
X49941001Y-18158192D01*
X50131511Y-17952100D01*
X50131516Y-17952094D01*
X50133362Y-17950097D01*
X50345923Y-17662312D01*
X50377110Y-17608621D01*
X50484634Y-17423504D01*
X50525621Y-17352940D01*
X50670285Y-17025717D01*
X50778167Y-16684596D01*
X50847966Y-16333696D01*
X50865338Y-16133120D01*
X50878603Y-15979961D01*
X50878603Y-15979956D01*
X50878837Y-15977256D01*
X50870408Y-15619581D01*
X50825788Y-15287385D01*
X50823143Y-15267692D01*
X50823142Y-15267688D01*
X50822780Y-15264991D01*
X50736530Y-14917768D01*
X50707125Y-14838061D01*
X50613636Y-14584650D01*
X50613635Y-14584647D01*
X50612698Y-14582108D01*
X50606986Y-14570676D01*
X50453999Y-14264502D01*
X50453997Y-14264498D01*
X50452780Y-14262063D01*
X50451304Y-14259778D01*
X50451300Y-14259770D01*
X50260190Y-13963793D01*
X50258709Y-13961499D01*
X50032827Y-13684046D01*
X50007771Y-13659380D01*
X49779799Y-13434962D01*
X49777863Y-13433056D01*
X49775731Y-13431375D01*
X49775725Y-13431370D01*
X49499031Y-13213242D01*
X49499027Y-13213239D01*
X49496897Y-13211560D01*
X49193322Y-13022234D01*
X49190877Y-13021060D01*
X49190868Y-13021055D01*
X49002661Y-12930680D01*
X48870804Y-12867363D01*
X48533240Y-12748819D01*
X48184705Y-12668033D01*
X48182013Y-12667714D01*
X48182005Y-12667713D01*
X47831535Y-12626232D01*
X47831526Y-12626231D01*
X47829411Y-12625981D01*
X47801948Y-12625118D01*
X47783089Y-12624525D01*
X47783074Y-12624525D01*
X47782286Y-12624500D01*
X47535183Y-12624500D01*
X47320489Y-12636315D01*
X47270490Y-12639067D01*
X47270488Y-12639067D01*
X47267766Y-12639217D01*
X47096563Y-12667713D01*
X46917538Y-12697511D01*
X46917536Y-12697511D01*
X46914847Y-12697959D01*
X46912224Y-12698699D01*
X46912223Y-12698699D01*
X46736691Y-12748204D01*
X46570505Y-12795073D01*
X46567981Y-12796095D01*
X46567979Y-12796096D01*
X46241422Y-12928365D01*
X46241415Y-12928368D01*
X46238900Y-12929387D01*
X46236508Y-12930678D01*
X46236503Y-12930680D01*
X46096993Y-13005956D01*
X45924036Y-13099279D01*
X45629716Y-13302695D01*
X45627664Y-13304476D01*
X45627661Y-13304478D01*
X45361549Y-13535399D01*
X45361544Y-13535404D01*
X45359496Y-13537181D01*
X45357649Y-13539179D01*
X45357648Y-13539180D01*
X45118489Y-13797900D01*
X45118484Y-13797906D01*
X45116638Y-13799903D01*
X44904077Y-14087688D01*
X44724379Y-14397060D01*
X44579715Y-14724283D01*
X44471833Y-15065404D01*
X44402034Y-15416304D01*
X44401801Y-15418999D01*
X44401800Y-15419003D01*
X44384193Y-15622303D01*
X44371163Y-15772744D01*
X18460346Y-15772744D01*
X18394391Y-15616224D01*
X18394386Y-15616214D01*
X18393371Y-15613805D01*
X18212805Y-15287385D01*
X17998576Y-14982000D01*
X17753107Y-14701110D01*
X17479180Y-14447894D01*
X17179896Y-14225221D01*
X17177629Y-14223883D01*
X17177620Y-14223877D01*
X16860916Y-14036952D01*
X16860910Y-14036949D01*
X16858645Y-14035612D01*
X16519064Y-13881214D01*
X16164999Y-13763775D01*
X16162424Y-13763216D01*
X16162417Y-13763214D01*
X15803029Y-13685183D01*
X15803025Y-13685182D01*
X15800458Y-13684625D01*
X15429572Y-13644662D01*
X15427604Y-13644609D01*
X15427593Y-13644608D01*
X15425667Y-13644556D01*
X15423586Y-13644500D01*
X15146761Y-13644500D01*
X14867495Y-13659380D01*
X14864899Y-13659798D01*
X14864891Y-13659799D01*
X14501820Y-13718279D01*
X14501815Y-13718280D01*
X14499208Y-13718700D01*
X14496662Y-13719394D01*
X14496658Y-13719395D01*
X14335931Y-13763214D01*
X14139309Y-13816819D01*
X14136859Y-13817777D01*
X14136849Y-13817780D01*
X13971777Y-13882306D01*
X13791876Y-13952628D01*
X13789537Y-13953843D01*
X13463187Y-14123368D01*
X13463182Y-14123371D01*
X13460841Y-14124587D01*
X13458648Y-14126041D01*
X13458640Y-14126046D01*
X13253530Y-14262063D01*
X13149953Y-14330749D01*
X12862733Y-14568780D01*
X12602434Y-14835985D01*
X12600806Y-14838058D01*
X12600803Y-14838061D01*
X12532022Y-14925623D01*
X12372002Y-15129337D01*
X12370603Y-15131572D01*
X12370602Y-15131573D01*
X12190648Y-15419003D01*
X12174049Y-15445515D01*
X12010814Y-15780938D01*
X12009917Y-15783423D01*
X11939942Y-15977256D01*
X11884147Y-16131808D01*
X11883523Y-16134360D01*
X11883521Y-16134365D01*
X11796109Y-16491589D01*
X11795482Y-16494152D01*
X11795131Y-16496768D01*
X11750073Y-16832232D01*
X11745824Y-16863865D01*
X11735733Y-17236762D01*
X500Y-17236762D01*
X500Y-6441762D01*
X34595733Y-6441762D01*
X34625326Y-6813621D01*
X34625812Y-6816205D01*
X34625813Y-6816213D01*
X34693781Y-7177651D01*
X34694266Y-7180229D01*
X34801773Y-7537435D01*
X34802795Y-7539861D01*
X34802796Y-7539863D01*
X34945609Y-7878776D01*
X34945614Y-7878786D01*
X34946629Y-7881195D01*
X35127195Y-8207615D01*
X35341424Y-8513000D01*
X35586893Y-8793890D01*
X35860820Y-9047106D01*
X36160104Y-9269779D01*
X36162371Y-9271117D01*
X36162380Y-9271123D01*
X36479084Y-9458048D01*
X36479090Y-9458051D01*
X36481355Y-9459388D01*
X36820936Y-9613786D01*
X37175001Y-9731225D01*
X37177576Y-9731784D01*
X37177583Y-9731786D01*
X37536971Y-9809817D01*
X37536975Y-9809818D01*
X37539542Y-9810375D01*
X37910428Y-9850338D01*
X37912396Y-9850391D01*
X37912407Y-9850392D01*
X37914333Y-9850444D01*
X37916414Y-9850500D01*
X38193239Y-9850500D01*
X38472505Y-9835620D01*
X38475101Y-9835202D01*
X38475109Y-9835201D01*
X38838180Y-9776721D01*
X38838185Y-9776720D01*
X38840792Y-9776300D01*
X38843338Y-9775606D01*
X38843342Y-9775605D01*
X39020742Y-9727240D01*
X39200691Y-9678181D01*
X39203141Y-9677223D01*
X39203151Y-9677220D01*
X39394864Y-9602280D01*
X39548124Y-9542372D01*
X39710455Y-9458048D01*
X39876813Y-9371632D01*
X39876818Y-9371629D01*
X39879159Y-9370413D01*
X39881352Y-9368959D01*
X39881360Y-9368954D01*
X40187847Y-9165710D01*
X40187848Y-9165709D01*
X40190047Y-9164251D01*
X40477267Y-8926220D01*
X40737566Y-8659015D01*
X40967998Y-8365663D01*
X41165951Y-8049485D01*
X41329186Y-7714062D01*
X41455853Y-7363192D01*
X41544518Y-7000848D01*
X41594176Y-6631135D01*
X41604267Y-6258238D01*
X41574674Y-5886379D01*
X41539959Y-5701768D01*
X41506219Y-5522349D01*
X41506218Y-5522345D01*
X41505734Y-5519771D01*
X41398227Y-5162565D01*
X41323799Y-4985938D01*
X41254391Y-4821224D01*
X41254386Y-4821214D01*
X41253371Y-4818805D01*
X41072805Y-4492385D01*
X40858576Y-4187000D01*
X40613107Y-3906110D01*
X40339180Y-3652894D01*
X40039896Y-3430221D01*
X40037629Y-3428883D01*
X40037620Y-3428877D01*
X39720916Y-3241952D01*
X39720910Y-3241949D01*
X39718645Y-3240612D01*
X39439314Y-3113608D01*
X39381466Y-3087306D01*
X39381464Y-3087305D01*
X39379064Y-3086214D01*
X39024999Y-2968775D01*
X39022424Y-2968216D01*
X39022417Y-2968214D01*
X38663029Y-2890183D01*
X38663025Y-2890182D01*
X38660458Y-2889625D01*
X38289572Y-2849662D01*
X38287604Y-2849609D01*
X38287593Y-2849608D01*
X38285667Y-2849556D01*
X38283586Y-2849500D01*
X38006761Y-2849500D01*
X37727495Y-2864380D01*
X37724899Y-2864798D01*
X37724891Y-2864799D01*
X37361820Y-2923279D01*
X37361815Y-2923280D01*
X37359208Y-2923700D01*
X37356662Y-2924394D01*
X37356658Y-2924395D01*
X37195931Y-2968214D01*
X36999309Y-3021819D01*
X36996859Y-3022777D01*
X36996849Y-3022780D01*
X36831777Y-3087306D01*
X36651876Y-3157628D01*
X36649537Y-3158843D01*
X36323187Y-3328368D01*
X36323182Y-3328371D01*
X36320841Y-3329587D01*
X36318648Y-3331041D01*
X36318640Y-3331046D01*
X36012153Y-3534290D01*
X36009953Y-3535749D01*
X35722733Y-3773780D01*
X35720886Y-3775676D01*
X35570892Y-3929650D01*
X35462434Y-4040985D01*
X35232002Y-4334337D01*
X35230603Y-4336572D01*
X35230602Y-4336573D01*
X35196878Y-4390439D01*
X35034049Y-4650515D01*
X34870814Y-4985938D01*
X34744147Y-5336808D01*
X34655482Y-5699152D01*
X34605824Y-6068865D01*
X34595733Y-6441762D01*
X500Y-6441762D01*
X500Y-2582095D01*
X13385028Y-2582095D01*
X13385368Y-2585657D01*
X13385368Y-2585664D01*
X13402922Y-2769648D01*
X13410534Y-2849431D01*
X13474364Y-3110285D01*
X13575182Y-3359192D01*
X13576993Y-3362285D01*
X13576994Y-3362287D01*
X13667773Y-3517325D01*
X13710875Y-3590938D01*
X13878601Y-3800669D01*
X14074846Y-3983991D01*
X14295499Y-4137064D01*
X14391889Y-4185017D01*
X14532723Y-4255081D01*
X14532728Y-4255083D01*
X14535938Y-4256680D01*
X14539349Y-4257798D01*
X14539351Y-4257799D01*
X14787721Y-4339219D01*
X14787724Y-4339220D01*
X14791126Y-4340335D01*
X15055717Y-4386276D01*
X15104761Y-4388717D01*
X15139335Y-4390439D01*
X15139348Y-4390439D01*
X15140567Y-4390500D01*
X15308223Y-4390500D01*
X15507846Y-4376016D01*
X15770080Y-4318120D01*
X15773429Y-4316851D01*
X15773433Y-4316850D01*
X15875087Y-4278337D01*
X16021211Y-4222975D01*
X16175879Y-4137064D01*
X16252837Y-4094318D01*
X16252841Y-4094315D01*
X16255976Y-4092574D01*
X16326055Y-4039092D01*
X16466607Y-3931826D01*
X16466609Y-3931825D01*
X16469458Y-3929650D01*
X16657185Y-3737614D01*
X16815225Y-3520491D01*
X16861889Y-3431798D01*
X16938595Y-3286002D01*
X16940265Y-3282828D01*
X17029688Y-3029603D01*
X17050425Y-2924395D01*
X17080925Y-2769648D01*
X17081620Y-2766122D01*
X17094972Y-2497905D01*
X17094632Y-2494343D01*
X17094632Y-2494336D01*
X17069807Y-2234139D01*
X17069806Y-2234134D01*
X17069466Y-2230569D01*
X17005636Y-1969715D01*
X16904818Y-1720808D01*
X16769125Y-1489062D01*
X16601399Y-1279331D01*
X16405154Y-1096009D01*
X16184501Y-942936D01*
X16011812Y-857025D01*
X15947277Y-824919D01*
X15947272Y-824917D01*
X15944062Y-823320D01*
X15760515Y-763150D01*
X15692279Y-740781D01*
X15692276Y-740780D01*
X15688874Y-739665D01*
X15424283Y-693724D01*
X15375239Y-691283D01*
X15340665Y-689561D01*
X15340652Y-689561D01*
X15339433Y-689500D01*
X15171777Y-689500D01*
X14972154Y-703984D01*
X14709920Y-761880D01*
X14706571Y-763149D01*
X14706567Y-763150D01*
X14604913Y-801663D01*
X14458789Y-857025D01*
X14328411Y-929444D01*
X14227163Y-985682D01*
X14227159Y-985685D01*
X14224024Y-987426D01*
X14221174Y-989601D01*
X14221171Y-989603D01*
X14013393Y-1148174D01*
X14010542Y-1150350D01*
X13822815Y-1342386D01*
X13664775Y-1559509D01*
X13539735Y-1797172D01*
X13450312Y-2050397D01*
X13449618Y-2053919D01*
X13449617Y-2053922D01*
X13404479Y-2282934D01*
X13398380Y-2313878D01*
X13385028Y-2582095D01*
X500Y-2582095D01*
X500Y7751767D01*
X2704906Y7751767D01*
X2705246Y7748205D01*
X2705246Y7748198D01*
X2723274Y7559252D01*
X2731102Y7477208D01*
X2796657Y7209306D01*
X2900199Y6953674D01*
X3039558Y6715665D01*
X3211816Y6500268D01*
X3413364Y6311992D01*
X3639979Y6154784D01*
X3643184Y6153189D01*
X3643190Y6153186D01*
X3883699Y6033534D01*
X3883704Y6033532D01*
X3886914Y6031935D01*
X3890325Y6030817D01*
X3890327Y6030816D01*
X4145593Y5947136D01*
X4145596Y5947135D01*
X4148998Y5946020D01*
X4420738Y5898838D01*
X4471160Y5896328D01*
X4506644Y5894561D01*
X4506657Y5894561D01*
X4507876Y5894500D01*
X6880070Y5894500D01*
X7085083Y5909375D01*
X7115490Y5916088D01*
X7350904Y5968063D01*
X7350910Y5968065D01*
X7354403Y5968836D01*
X7357752Y5970105D01*
X7357756Y5970106D01*
X7520951Y6031935D01*
X7612319Y6066551D01*
X7853428Y6200475D01*
X8072678Y6367802D01*
X8265477Y6565026D01*
X8377376Y6718758D01*
X8425682Y6785124D01*
X8427787Y6788016D01*
X8556206Y7032101D01*
X8648045Y7292168D01*
X8701380Y7562768D01*
X8710789Y7751767D01*
X44624906Y7751767D01*
X44625246Y7748205D01*
X44625246Y7748198D01*
X44643274Y7559252D01*
X44651102Y7477208D01*
X44716657Y7209306D01*
X44820199Y6953674D01*
X44959558Y6715665D01*
X45131816Y6500268D01*
X45333364Y6311992D01*
X45559979Y6154784D01*
X45563184Y6153189D01*
X45563190Y6153186D01*
X45803699Y6033534D01*
X45803704Y6033532D01*
X45806914Y6031935D01*
X45810325Y6030817D01*
X45810327Y6030816D01*
X46065593Y5947136D01*
X46065596Y5947135D01*
X46068998Y5946020D01*
X46340738Y5898838D01*
X46391160Y5896328D01*
X46426644Y5894561D01*
X46426657Y5894561D01*
X46427876Y5894500D01*
X48800070Y5894500D01*
X49005083Y5909375D01*
X49035490Y5916088D01*
X49270904Y5968063D01*
X49270910Y5968065D01*
X49274403Y5968836D01*
X49277752Y5970105D01*
X49277756Y5970106D01*
X49440951Y6031935D01*
X49532319Y6066551D01*
X49773428Y6200475D01*
X49992678Y6367802D01*
X50185477Y6565026D01*
X50297376Y6718758D01*
X50345682Y6785124D01*
X50347787Y6788016D01*
X50476206Y7032101D01*
X50568045Y7292168D01*
X50621380Y7562768D01*
X50635094Y7838233D01*
X50634754Y7841795D01*
X50634754Y7841802D01*
X50609239Y8109221D01*
X50609238Y8109225D01*
X50608898Y8112792D01*
X50543343Y8380694D01*
X50439801Y8636326D01*
X50300442Y8874335D01*
X50128184Y9089732D01*
X49926636Y9278008D01*
X49700021Y9435216D01*
X49696816Y9436811D01*
X49696810Y9436814D01*
X49456301Y9556466D01*
X49456296Y9556468D01*
X49453086Y9558065D01*
X49449675Y9559183D01*
X49449673Y9559184D01*
X49194407Y9642864D01*
X49194404Y9642865D01*
X49191002Y9643980D01*
X48919262Y9691162D01*
X48868840Y9693672D01*
X48833356Y9695439D01*
X48833343Y9695439D01*
X48832124Y9695500D01*
X46459930Y9695500D01*
X46254917Y9680625D01*
X46251406Y9679850D01*
X46251407Y9679850D01*
X45989096Y9621937D01*
X45989090Y9621935D01*
X45985597Y9621164D01*
X45982248Y9619895D01*
X45982244Y9619894D01*
X45878185Y9580470D01*
X45727681Y9523449D01*
X45486572Y9389525D01*
X45267322Y9222198D01*
X45074523Y9024974D01*
X45072414Y9022077D01*
X45072411Y9022073D01*
X44914318Y8804876D01*
X44912213Y8801984D01*
X44783794Y8557899D01*
X44691955Y8297832D01*
X44638620Y8027232D01*
X44624906Y7751767D01*
X8710789Y7751767D01*
X8715094Y7838233D01*
X8714754Y7841795D01*
X8714754Y7841802D01*
X8689239Y8109221D01*
X8689238Y8109225D01*
X8688898Y8112792D01*
X8623343Y8380694D01*
X8519801Y8636326D01*
X8380442Y8874335D01*
X8208184Y9089732D01*
X8006636Y9278008D01*
X7780021Y9435216D01*
X7776816Y9436811D01*
X7776810Y9436814D01*
X7536301Y9556466D01*
X7536296Y9556468D01*
X7533086Y9558065D01*
X7529675Y9559183D01*
X7529673Y9559184D01*
X7274407Y9642864D01*
X7274404Y9642865D01*
X7271002Y9643980D01*
X6999262Y9691162D01*
X6948840Y9693672D01*
X6913356Y9695439D01*
X6913343Y9695439D01*
X6912124Y9695500D01*
X4539930Y9695500D01*
X4334917Y9680625D01*
X4331406Y9679850D01*
X4331407Y9679850D01*
X4069096Y9621937D01*
X4069090Y9621935D01*
X4065597Y9621164D01*
X4062248Y9619895D01*
X4062244Y9619894D01*
X3958185Y9580470D01*
X3807681Y9523449D01*
X3566572Y9389525D01*
X3347322Y9222198D01*
X3154523Y9024974D01*
X3152414Y9022077D01*
X3152411Y9022073D01*
X2994318Y8804876D01*
X2992213Y8801984D01*
X2863794Y8557899D01*
X2771955Y8297832D01*
X2718620Y8027232D01*
X2704906Y7751767D01*
X500Y7751767D01*
X500Y10695500D01*
X19407Y10753691D01*
X68907Y10789655D01*
X99500Y10794500D01*
X53240500Y10794500D01*
X53298691Y10775593D01*
G37*
G04 #@! TD.AperFunction*
M02*
