M48
; DRILL file {KiCad (6.0.0)} date Thu Aug 25 14:32:44 2022
; FORMAT={-:-/ absolute / metric / decimal}
; #@! TF.CreationDate,2022-08-25T14:32:44+02:00
; #@! TF.GenerationSoftware,Kicad,Pcbnew,(6.0.0)
; #@! TF.FileFunction,NonPlated,1,2,NPTH
FMAT,2
METRIC
; #@! TA.AperFunction,NonPlated,NPTH,ComponentDrill
T1C3.200
; #@! TA.AperFunction,NonPlated,NPTH,ComponentDrill
T2C3.300
; #@! TA.AperFunction,NonPlated,NPTH,ComponentDrill
T3C5.000
; #@! TA.AperFunction,NonPlated,NPTH,ComponentDrill
T4C6.000
; #@! TA.AperFunction,NonPlated,NPTH,ComponentDrill
T5C6.500
%
G90
G05
T1
X5.08Y-27.94
X5.715Y-85.725
X15.24Y-2.54
X24.765Y-85.725
T3
X15.24Y-85.725
T4
X5.715Y-69.85
X5.715Y-102.235
X47.625Y-15.875
X47.625Y-37.465
X47.625Y-59.055
X47.625Y-80.645
X47.625Y-102.235
T5
X15.24Y-17.145
X15.24Y-38.735
X15.24Y-60.325
X38.1Y-6.35
X38.1Y-27.94
X38.1Y-49.53
X38.1Y-71.12
X38.1Y-92.71
T2
X6.81Y7.795G85X4.61Y7.795
G05
X6.81Y-114.705G85X4.61Y-114.705
G05
X48.73Y7.795G85X46.53Y7.795
G05
X48.73Y-114.705G85X46.53Y-114.705
G05
T0
M30
