M48
; DRILL file {KiCad (6.0.0)} date Tue Aug  9 16:48:59 2022
; FORMAT={-:-/ absolute / metric / decimal}
; #@! TF.CreationDate,2022-08-09T16:48:59+02:00
; #@! TF.GenerationSoftware,Kicad,Pcbnew,(6.0.0)
; #@! TF.FileFunction,NonPlated,1,2,NPTH
FMAT,2
METRIC
; #@! TA.AperFunction,NonPlated,NPTH,ComponentDrill
T1C3.200
; #@! TA.AperFunction,NonPlated,NPTH,ComponentDrill
T2C3.300
; #@! TA.AperFunction,NonPlated,NPTH,ComponentDrill
T3C5.000
; #@! TA.AperFunction,NonPlated,NPTH,ComponentDrill
T4C6.000
; #@! TA.AperFunction,NonPlated,NPTH,ComponentDrill
T5C6.500
%
G90
G05
T1
X5.08Y-38.735
X5.715Y-92.71
X15.24Y-13.335
X24.765Y-92.71
T3
X15.24Y-92.71
T4
X5.715Y-80.645
X5.715Y-113.03
X47.625Y-26.67
X47.625Y-48.26
X47.625Y-69.85
X47.625Y-91.44
X47.625Y-113.03
T5
X15.24Y-27.94
X15.24Y-49.53
X15.24Y-71.12
X38.1Y-17.145
X38.1Y-38.735
X38.1Y-60.325
X38.1Y-81.915
X38.1Y-103.505
T2
X4.1Y-125.5G85X1.9Y-125.5
G05
X6.81Y-3.0G85X4.61Y-3.0
G05
X48.73Y-3.0G85X46.53Y-3.0
G05
X48.73Y-125.5G85X46.53Y-125.5
G05
T0
M30
