%FSLAX45Y45*%
G04 Gerber Fmt 4.5, Leading zero omitted, Abs format (unit mm)*
G04 Created by KiCad (PCBNEW (6.0.0)) date 2022-08-19 17:33:28*
%MOMM*%
%LPD*%
G01*
G04 APERTURE LIST*
%TA.AperFunction,Profile*%
%ADD10C,0.100000*%
%TD*%
%ADD11C,0.200000*%
%ADD12C,0.320000*%
%ADD13C,0.330000*%
%ADD14C,0.500000*%
%ADD15C,0.600000*%
%ADD16C,0.650000*%
G04 APERTURE END LIST*
D10*
X0Y1079500D02*
X5334000Y1079500D01*
X5334000Y1079500D02*
X5334000Y-11770500D01*
X5334000Y-11770500D02*
X0Y-11770500D01*
X0Y-11770500D02*
X0Y1079500D01*
D11*
D12*
X348000Y-2634000D02*
X668000Y-2954000D01*
X668000Y-2634000D02*
X348000Y-2954000D01*
X411500Y-8412500D02*
X731500Y-8732500D01*
X731500Y-8412500D02*
X411500Y-8732500D01*
X1364000Y-94000D02*
X1684000Y-414000D01*
X1684000Y-94000D02*
X1364000Y-414000D01*
X2316500Y-8412500D02*
X2636500Y-8732500D01*
X2636500Y-8412500D02*
X2316500Y-8732500D01*
D13*
X736000Y779500D02*
G75*
G03*
X736000Y779500I-165000J0D01*
G01*
D11*
X681000Y934500D02*
X461000Y934500D01*
X681000Y624500D02*
X461000Y624500D01*
X461000Y934500D02*
G75*
G03*
X461000Y624500I0J-155000D01*
G01*
X681000Y624500D02*
G75*
G03*
X681000Y934500I0J155000D01*
G01*
D13*
X736000Y-11470500D02*
G75*
G03*
X736000Y-11470500I-165000J0D01*
G01*
D11*
X681000Y-11315500D02*
X461000Y-11315500D01*
X681000Y-11625500D02*
X461000Y-11625500D01*
X461000Y-11315500D02*
G75*
G03*
X461000Y-11625500I0J-155000D01*
G01*
X681000Y-11625500D02*
G75*
G03*
X681000Y-11315500I0J155000D01*
G01*
D13*
X4928000Y779500D02*
G75*
G03*
X4928000Y779500I-165000J0D01*
G01*
D11*
X4873000Y934500D02*
X4653000Y934500D01*
X4873000Y624500D02*
X4653000Y624500D01*
X4653000Y934500D02*
G75*
G03*
X4653000Y624500I0J-155000D01*
G01*
X4873000Y624500D02*
G75*
G03*
X4873000Y934500I0J155000D01*
G01*
D13*
X4928000Y-11470500D02*
G75*
G03*
X4928000Y-11470500I-165000J0D01*
G01*
D11*
X4873000Y-11315500D02*
X4653000Y-11315500D01*
X4873000Y-11625500D02*
X4653000Y-11625500D01*
X4653000Y-11315500D02*
G75*
G03*
X4653000Y-11625500I0J-155000D01*
G01*
X4873000Y-11625500D02*
G75*
G03*
X4873000Y-11315500I0J155000D01*
G01*
D14*
X1524000Y-8322500D02*
X1524000Y-8822500D01*
X1274000Y-8572500D02*
X1774000Y-8572500D01*
D15*
X783634Y-7197134D02*
X783634Y-6772866D01*
X359366Y-6772866D01*
X359366Y-7197134D01*
X783634Y-7197134D01*
X783634Y-10435634D02*
X783634Y-10011366D01*
X359366Y-10011366D01*
X359366Y-10435634D01*
X783634Y-10435634D01*
X4974634Y-1799634D02*
X4974634Y-1375366D01*
X4550366Y-1375366D01*
X4550366Y-1799634D01*
X4974634Y-1799634D01*
X4974634Y-3958634D02*
X4974634Y-3534366D01*
X4550366Y-3534366D01*
X4550366Y-3958634D01*
X4974634Y-3958634D01*
X4974634Y-6117634D02*
X4974634Y-5693366D01*
X4550366Y-5693366D01*
X4550366Y-6117634D01*
X4974634Y-6117634D01*
X4974634Y-8276634D02*
X4974634Y-7852366D01*
X4550366Y-7852366D01*
X4550366Y-8276634D01*
X4974634Y-8276634D01*
X4974634Y-10435634D02*
X4974634Y-10011366D01*
X4550366Y-10011366D01*
X4550366Y-10435634D01*
X4974634Y-10435634D01*
D16*
X1524000Y-2039500D02*
X1849000Y-1714500D01*
X1524000Y-1389500D01*
X1199000Y-1714500D01*
X1524000Y-2039500D01*
X1524000Y-4198500D02*
X1849000Y-3873500D01*
X1524000Y-3548500D01*
X1199000Y-3873500D01*
X1524000Y-4198500D01*
X1524000Y-6357500D02*
X1849000Y-6032500D01*
X1524000Y-5707500D01*
X1199000Y-6032500D01*
X1524000Y-6357500D01*
X3810000Y-960000D02*
X4135000Y-635000D01*
X3810000Y-310000D01*
X3485000Y-635000D01*
X3810000Y-960000D01*
X3810000Y-3119000D02*
X4135000Y-2794000D01*
X3810000Y-2469000D01*
X3485000Y-2794000D01*
X3810000Y-3119000D01*
X3810000Y-5278000D02*
X4135000Y-4953000D01*
X3810000Y-4628000D01*
X3485000Y-4953000D01*
X3810000Y-5278000D01*
X3810000Y-7437000D02*
X4135000Y-7112000D01*
X3810000Y-6787000D01*
X3485000Y-7112000D01*
X3810000Y-7437000D01*
X3810000Y-9596000D02*
X4135000Y-9271000D01*
X3810000Y-8946000D01*
X3485000Y-9271000D01*
X3810000Y-9596000D01*
D11*
X252619Y-12085976D02*
X252619Y-11885976D01*
X300238Y-11885976D01*
X328810Y-11895500D01*
X347857Y-11914548D01*
X357381Y-11933595D01*
X366905Y-11971690D01*
X366905Y-12000262D01*
X357381Y-12038357D01*
X347857Y-12057405D01*
X328810Y-12076452D01*
X300238Y-12085976D01*
X252619Y-12085976D01*
X452619Y-12085976D02*
X452619Y-11952643D01*
X452619Y-11990738D02*
X462143Y-11971690D01*
X471667Y-11962167D01*
X490714Y-11952643D01*
X509762Y-11952643D01*
X576429Y-12085976D02*
X576429Y-11952643D01*
X576429Y-11885976D02*
X566905Y-11895500D01*
X576429Y-11905024D01*
X585952Y-11895500D01*
X576429Y-11885976D01*
X576429Y-11905024D01*
X700238Y-12085976D02*
X681190Y-12076452D01*
X671667Y-12057405D01*
X671667Y-11885976D01*
X805000Y-12085976D02*
X785952Y-12076452D01*
X776428Y-12057405D01*
X776428Y-11885976D01*
X1033571Y-12085976D02*
X1033571Y-11885976D01*
X1100238Y-12028833D01*
X1166905Y-11885976D01*
X1166905Y-12085976D01*
X1347857Y-12085976D02*
X1347857Y-11981214D01*
X1338333Y-11962167D01*
X1319286Y-11952643D01*
X1281190Y-11952643D01*
X1262143Y-11962167D01*
X1347857Y-12076452D02*
X1328810Y-12085976D01*
X1281190Y-12085976D01*
X1262143Y-12076452D01*
X1252619Y-12057405D01*
X1252619Y-12038357D01*
X1262143Y-12019309D01*
X1281190Y-12009786D01*
X1328810Y-12009786D01*
X1347857Y-12000262D01*
X1443095Y-11952643D02*
X1443095Y-12152643D01*
X1443095Y-11962167D02*
X1462143Y-11952643D01*
X1500238Y-11952643D01*
X1519286Y-11962167D01*
X1528809Y-11971690D01*
X1538333Y-11990738D01*
X1538333Y-12047881D01*
X1528809Y-12066928D01*
X1519286Y-12076452D01*
X1500238Y-12085976D01*
X1462143Y-12085976D01*
X1443095Y-12076452D01*
X1624048Y-12066928D02*
X1633571Y-12076452D01*
X1624048Y-12085976D01*
X1614524Y-12076452D01*
X1624048Y-12066928D01*
X1624048Y-12085976D01*
X1624048Y-11962167D02*
X1633571Y-11971690D01*
X1624048Y-11981214D01*
X1614524Y-11971690D01*
X1624048Y-11962167D01*
X1624048Y-11981214D01*
X-205000Y-12315500D02*
X-5000Y-12515500D01*
X-5000Y-12315500D02*
X-205000Y-12515500D01*
X233571Y-12305976D02*
X357381Y-12305976D01*
X290714Y-12382167D01*
X319286Y-12382167D01*
X338333Y-12391690D01*
X347857Y-12401214D01*
X357381Y-12420262D01*
X357381Y-12467881D01*
X347857Y-12486928D01*
X338333Y-12496452D01*
X319286Y-12505976D01*
X262143Y-12505976D01*
X243095Y-12496452D01*
X233571Y-12486928D01*
X443095Y-12486928D02*
X452619Y-12496452D01*
X443095Y-12505976D01*
X433571Y-12496452D01*
X443095Y-12486928D01*
X443095Y-12505976D01*
X528810Y-12325024D02*
X538333Y-12315500D01*
X557381Y-12305976D01*
X605000Y-12305976D01*
X624048Y-12315500D01*
X633571Y-12325024D01*
X643095Y-12344071D01*
X643095Y-12363119D01*
X633571Y-12391690D01*
X519286Y-12505976D01*
X643095Y-12505976D01*
X766905Y-12305976D02*
X785952Y-12305976D01*
X805000Y-12315500D01*
X814524Y-12325024D01*
X824048Y-12344071D01*
X833571Y-12382167D01*
X833571Y-12429786D01*
X824048Y-12467881D01*
X814524Y-12486928D01*
X805000Y-12496452D01*
X785952Y-12505976D01*
X766905Y-12505976D01*
X747857Y-12496452D01*
X738333Y-12486928D01*
X728809Y-12467881D01*
X719286Y-12429786D01*
X719286Y-12382167D01*
X728809Y-12344071D01*
X738333Y-12325024D01*
X747857Y-12315500D01*
X766905Y-12305976D01*
X957381Y-12305976D02*
X976428Y-12305976D01*
X995476Y-12315500D01*
X1005000Y-12325024D01*
X1014524Y-12344071D01*
X1024048Y-12382167D01*
X1024048Y-12429786D01*
X1014524Y-12467881D01*
X1005000Y-12486928D01*
X995476Y-12496452D01*
X976428Y-12505976D01*
X957381Y-12505976D01*
X938333Y-12496452D01*
X928809Y-12486928D01*
X919286Y-12467881D01*
X909762Y-12429786D01*
X909762Y-12382167D01*
X919286Y-12344071D01*
X928809Y-12325024D01*
X938333Y-12315500D01*
X957381Y-12305976D01*
X1109762Y-12505976D02*
X1109762Y-12372643D01*
X1109762Y-12391690D02*
X1119286Y-12382167D01*
X1138333Y-12372643D01*
X1166905Y-12372643D01*
X1185952Y-12382167D01*
X1195476Y-12401214D01*
X1195476Y-12505976D01*
X1195476Y-12401214D02*
X1205000Y-12382167D01*
X1224048Y-12372643D01*
X1252619Y-12372643D01*
X1271667Y-12382167D01*
X1281190Y-12401214D01*
X1281190Y-12505976D01*
X1376429Y-12505976D02*
X1376429Y-12372643D01*
X1376429Y-12391690D02*
X1385952Y-12382167D01*
X1405000Y-12372643D01*
X1433571Y-12372643D01*
X1452619Y-12382167D01*
X1462143Y-12401214D01*
X1462143Y-12505976D01*
X1462143Y-12401214D02*
X1471667Y-12382167D01*
X1490714Y-12372643D01*
X1519286Y-12372643D01*
X1538333Y-12382167D01*
X1547857Y-12401214D01*
X1547857Y-12505976D01*
X1938333Y-12296452D02*
X1766905Y-12553595D01*
X2195476Y-12305976D02*
X2214524Y-12305976D01*
X2233571Y-12315500D01*
X2243095Y-12325024D01*
X2252619Y-12344071D01*
X2262143Y-12382167D01*
X2262143Y-12429786D01*
X2252619Y-12467881D01*
X2243095Y-12486928D01*
X2233571Y-12496452D01*
X2214524Y-12505976D01*
X2195476Y-12505976D01*
X2176429Y-12496452D01*
X2166905Y-12486928D01*
X2157381Y-12467881D01*
X2147857Y-12429786D01*
X2147857Y-12382167D01*
X2157381Y-12344071D01*
X2166905Y-12325024D01*
X2176429Y-12315500D01*
X2195476Y-12305976D01*
X2347857Y-12486928D02*
X2357381Y-12496452D01*
X2347857Y-12505976D01*
X2338333Y-12496452D01*
X2347857Y-12486928D01*
X2347857Y-12505976D01*
X2547857Y-12505976D02*
X2433571Y-12505976D01*
X2490714Y-12505976D02*
X2490714Y-12305976D01*
X2471667Y-12334548D01*
X2452619Y-12353595D01*
X2433571Y-12363119D01*
X2624048Y-12325024D02*
X2633571Y-12315500D01*
X2652619Y-12305976D01*
X2700238Y-12305976D01*
X2719286Y-12315500D01*
X2728810Y-12325024D01*
X2738333Y-12344071D01*
X2738333Y-12363119D01*
X2728810Y-12391690D01*
X2614524Y-12505976D01*
X2738333Y-12505976D01*
X2909762Y-12305976D02*
X2871667Y-12305976D01*
X2852619Y-12315500D01*
X2843095Y-12325024D01*
X2824048Y-12353595D01*
X2814524Y-12391690D01*
X2814524Y-12467881D01*
X2824048Y-12486928D01*
X2833571Y-12496452D01*
X2852619Y-12505976D01*
X2890714Y-12505976D01*
X2909762Y-12496452D01*
X2919286Y-12486928D01*
X2928809Y-12467881D01*
X2928809Y-12420262D01*
X2919286Y-12401214D01*
X2909762Y-12391690D01*
X2890714Y-12382167D01*
X2852619Y-12382167D01*
X2833571Y-12391690D01*
X2824048Y-12401214D01*
X2814524Y-12420262D01*
X3052619Y-12305976D02*
X3071667Y-12305976D01*
X3090714Y-12315500D01*
X3100238Y-12325024D01*
X3109762Y-12344071D01*
X3119286Y-12382167D01*
X3119286Y-12429786D01*
X3109762Y-12467881D01*
X3100238Y-12486928D01*
X3090714Y-12496452D01*
X3071667Y-12505976D01*
X3052619Y-12505976D01*
X3033571Y-12496452D01*
X3024048Y-12486928D01*
X3014524Y-12467881D01*
X3005000Y-12429786D01*
X3005000Y-12382167D01*
X3014524Y-12344071D01*
X3024048Y-12325024D01*
X3033571Y-12315500D01*
X3052619Y-12305976D01*
X3195476Y-12305976D02*
X3195476Y-12344071D01*
X3271667Y-12305976D02*
X3271667Y-12344071D01*
X3566905Y-12582167D02*
X3557381Y-12572643D01*
X3538333Y-12544071D01*
X3528809Y-12525024D01*
X3519286Y-12496452D01*
X3509762Y-12448833D01*
X3509762Y-12410738D01*
X3519286Y-12363119D01*
X3528809Y-12334548D01*
X3538333Y-12315500D01*
X3557381Y-12286928D01*
X3566905Y-12277405D01*
X3728809Y-12372643D02*
X3728809Y-12505976D01*
X3681190Y-12296452D02*
X3633571Y-12439309D01*
X3757381Y-12439309D01*
X3985952Y-12505976D02*
X3985952Y-12305976D01*
X4071667Y-12505976D02*
X4071667Y-12401214D01*
X4062143Y-12382167D01*
X4043095Y-12372643D01*
X4014524Y-12372643D01*
X3995476Y-12382167D01*
X3985952Y-12391690D01*
X4195476Y-12505976D02*
X4176428Y-12496452D01*
X4166905Y-12486928D01*
X4157381Y-12467881D01*
X4157381Y-12410738D01*
X4166905Y-12391690D01*
X4176428Y-12382167D01*
X4195476Y-12372643D01*
X4224048Y-12372643D01*
X4243095Y-12382167D01*
X4252619Y-12391690D01*
X4262143Y-12410738D01*
X4262143Y-12467881D01*
X4252619Y-12486928D01*
X4243095Y-12496452D01*
X4224048Y-12505976D01*
X4195476Y-12505976D01*
X4376429Y-12505976D02*
X4357381Y-12496452D01*
X4347857Y-12477405D01*
X4347857Y-12305976D01*
X4528810Y-12496452D02*
X4509762Y-12505976D01*
X4471667Y-12505976D01*
X4452619Y-12496452D01*
X4443095Y-12477405D01*
X4443095Y-12401214D01*
X4452619Y-12382167D01*
X4471667Y-12372643D01*
X4509762Y-12372643D01*
X4528810Y-12382167D01*
X4538333Y-12401214D01*
X4538333Y-12420262D01*
X4443095Y-12439309D01*
X4614524Y-12496452D02*
X4633571Y-12505976D01*
X4671667Y-12505976D01*
X4690714Y-12496452D01*
X4700238Y-12477405D01*
X4700238Y-12467881D01*
X4690714Y-12448833D01*
X4671667Y-12439309D01*
X4643095Y-12439309D01*
X4624048Y-12429786D01*
X4614524Y-12410738D01*
X4614524Y-12401214D01*
X4624048Y-12382167D01*
X4643095Y-12372643D01*
X4671667Y-12372643D01*
X4690714Y-12382167D01*
X4766905Y-12582167D02*
X4776429Y-12572643D01*
X4795476Y-12544071D01*
X4805000Y-12525024D01*
X4814524Y-12496452D01*
X4824048Y-12448833D01*
X4824048Y-12410738D01*
X4814524Y-12363119D01*
X4805000Y-12334548D01*
X4795476Y-12315500D01*
X4776429Y-12286928D01*
X4766905Y-12277405D01*
X5128810Y-12582167D02*
X5119286Y-12572643D01*
X5100238Y-12544071D01*
X5090714Y-12525024D01*
X5081190Y-12496452D01*
X5071667Y-12448833D01*
X5071667Y-12410738D01*
X5081190Y-12363119D01*
X5090714Y-12334548D01*
X5100238Y-12315500D01*
X5119286Y-12286928D01*
X5128810Y-12277405D01*
X5205000Y-12372643D02*
X5205000Y-12505976D01*
X5205000Y-12391690D02*
X5214524Y-12382167D01*
X5233571Y-12372643D01*
X5262143Y-12372643D01*
X5281190Y-12382167D01*
X5290714Y-12401214D01*
X5290714Y-12505976D01*
X5414524Y-12505976D02*
X5395476Y-12496452D01*
X5385952Y-12486928D01*
X5376429Y-12467881D01*
X5376429Y-12410738D01*
X5385952Y-12391690D01*
X5395476Y-12382167D01*
X5414524Y-12372643D01*
X5443095Y-12372643D01*
X5462143Y-12382167D01*
X5471667Y-12391690D01*
X5481190Y-12410738D01*
X5481190Y-12467881D01*
X5471667Y-12486928D01*
X5462143Y-12496452D01*
X5443095Y-12505976D01*
X5414524Y-12505976D01*
X5538333Y-12372643D02*
X5614524Y-12372643D01*
X5566905Y-12305976D02*
X5566905Y-12477405D01*
X5576429Y-12496452D01*
X5595476Y-12505976D01*
X5614524Y-12505976D01*
X5833571Y-12372643D02*
X5833571Y-12572643D01*
X5833571Y-12382167D02*
X5852619Y-12372643D01*
X5890714Y-12372643D01*
X5909762Y-12382167D01*
X5919286Y-12391690D01*
X5928809Y-12410738D01*
X5928809Y-12467881D01*
X5919286Y-12486928D01*
X5909762Y-12496452D01*
X5890714Y-12505976D01*
X5852619Y-12505976D01*
X5833571Y-12496452D01*
X6043095Y-12505976D02*
X6024048Y-12496452D01*
X6014524Y-12477405D01*
X6014524Y-12305976D01*
X6205000Y-12505976D02*
X6205000Y-12401214D01*
X6195476Y-12382167D01*
X6176428Y-12372643D01*
X6138333Y-12372643D01*
X6119286Y-12382167D01*
X6205000Y-12496452D02*
X6185952Y-12505976D01*
X6138333Y-12505976D01*
X6119286Y-12496452D01*
X6109762Y-12477405D01*
X6109762Y-12458357D01*
X6119286Y-12439309D01*
X6138333Y-12429786D01*
X6185952Y-12429786D01*
X6205000Y-12420262D01*
X6271667Y-12372643D02*
X6347857Y-12372643D01*
X6300238Y-12305976D02*
X6300238Y-12477405D01*
X6309762Y-12496452D01*
X6328809Y-12505976D01*
X6347857Y-12505976D01*
X6490714Y-12496452D02*
X6471667Y-12505976D01*
X6433571Y-12505976D01*
X6414524Y-12496452D01*
X6405000Y-12477405D01*
X6405000Y-12401214D01*
X6414524Y-12382167D01*
X6433571Y-12372643D01*
X6471667Y-12372643D01*
X6490714Y-12382167D01*
X6500238Y-12401214D01*
X6500238Y-12420262D01*
X6405000Y-12439309D01*
X6671667Y-12505976D02*
X6671667Y-12305976D01*
X6671667Y-12496452D02*
X6652619Y-12505976D01*
X6614524Y-12505976D01*
X6595476Y-12496452D01*
X6585952Y-12486928D01*
X6576428Y-12467881D01*
X6576428Y-12410738D01*
X6585952Y-12391690D01*
X6595476Y-12382167D01*
X6614524Y-12372643D01*
X6652619Y-12372643D01*
X6671667Y-12382167D01*
X6747857Y-12582167D02*
X6757381Y-12572643D01*
X6776428Y-12544071D01*
X6785952Y-12525024D01*
X6795476Y-12496452D01*
X6805000Y-12448833D01*
X6805000Y-12410738D01*
X6795476Y-12363119D01*
X6785952Y-12334548D01*
X6776428Y-12315500D01*
X6757381Y-12286928D01*
X6747857Y-12277405D01*
X-5000Y-12735500D02*
G75*
G03*
X-5000Y-12735500I-100000J0D01*
G01*
X233571Y-12625976D02*
X357381Y-12625976D01*
X290714Y-12702167D01*
X319286Y-12702167D01*
X338333Y-12711690D01*
X347857Y-12721214D01*
X357381Y-12740262D01*
X357381Y-12787881D01*
X347857Y-12806928D01*
X338333Y-12816452D01*
X319286Y-12825976D01*
X262143Y-12825976D01*
X243095Y-12816452D01*
X233571Y-12806928D01*
X443095Y-12806928D02*
X452619Y-12816452D01*
X443095Y-12825976D01*
X433571Y-12816452D01*
X443095Y-12806928D01*
X443095Y-12825976D01*
X519286Y-12625976D02*
X643095Y-12625976D01*
X576429Y-12702167D01*
X605000Y-12702167D01*
X624048Y-12711690D01*
X633571Y-12721214D01*
X643095Y-12740262D01*
X643095Y-12787881D01*
X633571Y-12806928D01*
X624048Y-12816452D01*
X605000Y-12825976D01*
X547857Y-12825976D01*
X528810Y-12816452D01*
X519286Y-12806928D01*
X766905Y-12625976D02*
X785952Y-12625976D01*
X805000Y-12635500D01*
X814524Y-12645024D01*
X824048Y-12664071D01*
X833571Y-12702167D01*
X833571Y-12749786D01*
X824048Y-12787881D01*
X814524Y-12806928D01*
X805000Y-12816452D01*
X785952Y-12825976D01*
X766905Y-12825976D01*
X747857Y-12816452D01*
X738333Y-12806928D01*
X728809Y-12787881D01*
X719286Y-12749786D01*
X719286Y-12702167D01*
X728809Y-12664071D01*
X738333Y-12645024D01*
X747857Y-12635500D01*
X766905Y-12625976D01*
X957381Y-12625976D02*
X976428Y-12625976D01*
X995476Y-12635500D01*
X1005000Y-12645024D01*
X1014524Y-12664071D01*
X1024048Y-12702167D01*
X1024048Y-12749786D01*
X1014524Y-12787881D01*
X1005000Y-12806928D01*
X995476Y-12816452D01*
X976428Y-12825976D01*
X957381Y-12825976D01*
X938333Y-12816452D01*
X928809Y-12806928D01*
X919286Y-12787881D01*
X909762Y-12749786D01*
X909762Y-12702167D01*
X919286Y-12664071D01*
X928809Y-12645024D01*
X938333Y-12635500D01*
X957381Y-12625976D01*
X1109762Y-12825976D02*
X1109762Y-12692643D01*
X1109762Y-12711690D02*
X1119286Y-12702167D01*
X1138333Y-12692643D01*
X1166905Y-12692643D01*
X1185952Y-12702167D01*
X1195476Y-12721214D01*
X1195476Y-12825976D01*
X1195476Y-12721214D02*
X1205000Y-12702167D01*
X1224048Y-12692643D01*
X1252619Y-12692643D01*
X1271667Y-12702167D01*
X1281190Y-12721214D01*
X1281190Y-12825976D01*
X1376429Y-12825976D02*
X1376429Y-12692643D01*
X1376429Y-12711690D02*
X1385952Y-12702167D01*
X1405000Y-12692643D01*
X1433571Y-12692643D01*
X1452619Y-12702167D01*
X1462143Y-12721214D01*
X1462143Y-12825976D01*
X1462143Y-12721214D02*
X1471667Y-12702167D01*
X1490714Y-12692643D01*
X1519286Y-12692643D01*
X1538333Y-12702167D01*
X1547857Y-12721214D01*
X1547857Y-12825976D01*
X1938333Y-12616452D02*
X1766905Y-12873595D01*
X2195476Y-12625976D02*
X2214524Y-12625976D01*
X2233571Y-12635500D01*
X2243095Y-12645024D01*
X2252619Y-12664071D01*
X2262143Y-12702167D01*
X2262143Y-12749786D01*
X2252619Y-12787881D01*
X2243095Y-12806928D01*
X2233571Y-12816452D01*
X2214524Y-12825976D01*
X2195476Y-12825976D01*
X2176429Y-12816452D01*
X2166905Y-12806928D01*
X2157381Y-12787881D01*
X2147857Y-12749786D01*
X2147857Y-12702167D01*
X2157381Y-12664071D01*
X2166905Y-12645024D01*
X2176429Y-12635500D01*
X2195476Y-12625976D01*
X2347857Y-12806928D02*
X2357381Y-12816452D01*
X2347857Y-12825976D01*
X2338333Y-12816452D01*
X2347857Y-12806928D01*
X2347857Y-12825976D01*
X2547857Y-12825976D02*
X2433571Y-12825976D01*
X2490714Y-12825976D02*
X2490714Y-12625976D01*
X2471667Y-12654548D01*
X2452619Y-12673595D01*
X2433571Y-12683119D01*
X2624048Y-12645024D02*
X2633571Y-12635500D01*
X2652619Y-12625976D01*
X2700238Y-12625976D01*
X2719286Y-12635500D01*
X2728810Y-12645024D01*
X2738333Y-12664071D01*
X2738333Y-12683119D01*
X2728810Y-12711690D01*
X2614524Y-12825976D01*
X2738333Y-12825976D01*
X2833571Y-12825976D02*
X2871667Y-12825976D01*
X2890714Y-12816452D01*
X2900238Y-12806928D01*
X2919286Y-12778357D01*
X2928809Y-12740262D01*
X2928809Y-12664071D01*
X2919286Y-12645024D01*
X2909762Y-12635500D01*
X2890714Y-12625976D01*
X2852619Y-12625976D01*
X2833571Y-12635500D01*
X2824048Y-12645024D01*
X2814524Y-12664071D01*
X2814524Y-12711690D01*
X2824048Y-12730738D01*
X2833571Y-12740262D01*
X2852619Y-12749786D01*
X2890714Y-12749786D01*
X2909762Y-12740262D01*
X2919286Y-12730738D01*
X2928809Y-12711690D01*
X3024048Y-12825976D02*
X3062143Y-12825976D01*
X3081190Y-12816452D01*
X3090714Y-12806928D01*
X3109762Y-12778357D01*
X3119286Y-12740262D01*
X3119286Y-12664071D01*
X3109762Y-12645024D01*
X3100238Y-12635500D01*
X3081190Y-12625976D01*
X3043095Y-12625976D01*
X3024048Y-12635500D01*
X3014524Y-12645024D01*
X3005000Y-12664071D01*
X3005000Y-12711690D01*
X3014524Y-12730738D01*
X3024048Y-12740262D01*
X3043095Y-12749786D01*
X3081190Y-12749786D01*
X3100238Y-12740262D01*
X3109762Y-12730738D01*
X3119286Y-12711690D01*
X3195476Y-12625976D02*
X3195476Y-12664071D01*
X3271667Y-12625976D02*
X3271667Y-12664071D01*
X3566905Y-12902167D02*
X3557381Y-12892643D01*
X3538333Y-12864071D01*
X3528809Y-12845024D01*
X3519286Y-12816452D01*
X3509762Y-12768833D01*
X3509762Y-12730738D01*
X3519286Y-12683119D01*
X3528809Y-12654548D01*
X3538333Y-12635500D01*
X3557381Y-12606928D01*
X3566905Y-12597405D01*
X3681190Y-12625976D02*
X3700238Y-12625976D01*
X3719286Y-12635500D01*
X3728809Y-12645024D01*
X3738333Y-12664071D01*
X3747857Y-12702167D01*
X3747857Y-12749786D01*
X3738333Y-12787881D01*
X3728809Y-12806928D01*
X3719286Y-12816452D01*
X3700238Y-12825976D01*
X3681190Y-12825976D01*
X3662143Y-12816452D01*
X3652619Y-12806928D01*
X3643095Y-12787881D01*
X3633571Y-12749786D01*
X3633571Y-12702167D01*
X3643095Y-12664071D01*
X3652619Y-12645024D01*
X3662143Y-12635500D01*
X3681190Y-12625976D01*
X3985952Y-12825976D02*
X3985952Y-12625976D01*
X4071667Y-12825976D02*
X4071667Y-12721214D01*
X4062143Y-12702167D01*
X4043095Y-12692643D01*
X4014524Y-12692643D01*
X3995476Y-12702167D01*
X3985952Y-12711690D01*
X4195476Y-12825976D02*
X4176428Y-12816452D01*
X4166905Y-12806928D01*
X4157381Y-12787881D01*
X4157381Y-12730738D01*
X4166905Y-12711690D01*
X4176428Y-12702167D01*
X4195476Y-12692643D01*
X4224048Y-12692643D01*
X4243095Y-12702167D01*
X4252619Y-12711690D01*
X4262143Y-12730738D01*
X4262143Y-12787881D01*
X4252619Y-12806928D01*
X4243095Y-12816452D01*
X4224048Y-12825976D01*
X4195476Y-12825976D01*
X4376429Y-12825976D02*
X4357381Y-12816452D01*
X4347857Y-12797405D01*
X4347857Y-12625976D01*
X4528810Y-12816452D02*
X4509762Y-12825976D01*
X4471667Y-12825976D01*
X4452619Y-12816452D01*
X4443095Y-12797405D01*
X4443095Y-12721214D01*
X4452619Y-12702167D01*
X4471667Y-12692643D01*
X4509762Y-12692643D01*
X4528810Y-12702167D01*
X4538333Y-12721214D01*
X4538333Y-12740262D01*
X4443095Y-12759309D01*
X4614524Y-12816452D02*
X4633571Y-12825976D01*
X4671667Y-12825976D01*
X4690714Y-12816452D01*
X4700238Y-12797405D01*
X4700238Y-12787881D01*
X4690714Y-12768833D01*
X4671667Y-12759309D01*
X4643095Y-12759309D01*
X4624048Y-12749786D01*
X4614524Y-12730738D01*
X4614524Y-12721214D01*
X4624048Y-12702167D01*
X4643095Y-12692643D01*
X4671667Y-12692643D01*
X4690714Y-12702167D01*
X4938333Y-12749786D02*
X5090714Y-12749786D01*
X5014524Y-12825976D02*
X5014524Y-12673595D01*
X5424048Y-12692643D02*
X5424048Y-12825976D01*
X5376429Y-12616452D02*
X5328810Y-12759309D01*
X5452619Y-12759309D01*
X5671667Y-12816452D02*
X5690714Y-12825976D01*
X5728809Y-12825976D01*
X5747857Y-12816452D01*
X5757381Y-12797405D01*
X5757381Y-12787881D01*
X5747857Y-12768833D01*
X5728809Y-12759309D01*
X5700238Y-12759309D01*
X5681190Y-12749786D01*
X5671667Y-12730738D01*
X5671667Y-12721214D01*
X5681190Y-12702167D01*
X5700238Y-12692643D01*
X5728809Y-12692643D01*
X5747857Y-12702167D01*
X5871667Y-12825976D02*
X5852619Y-12816452D01*
X5843095Y-12797405D01*
X5843095Y-12625976D01*
X5976428Y-12825976D02*
X5957381Y-12816452D01*
X5947857Y-12806928D01*
X5938333Y-12787881D01*
X5938333Y-12730738D01*
X5947857Y-12711690D01*
X5957381Y-12702167D01*
X5976428Y-12692643D01*
X6005000Y-12692643D01*
X6024048Y-12702167D01*
X6033571Y-12711690D01*
X6043095Y-12730738D01*
X6043095Y-12787881D01*
X6033571Y-12806928D01*
X6024048Y-12816452D01*
X6005000Y-12825976D01*
X5976428Y-12825976D01*
X6100238Y-12692643D02*
X6176428Y-12692643D01*
X6128809Y-12625976D02*
X6128809Y-12797405D01*
X6138333Y-12816452D01*
X6157381Y-12825976D01*
X6176428Y-12825976D01*
X6233571Y-12816452D02*
X6252619Y-12825976D01*
X6290714Y-12825976D01*
X6309762Y-12816452D01*
X6319286Y-12797405D01*
X6319286Y-12787881D01*
X6309762Y-12768833D01*
X6290714Y-12759309D01*
X6262143Y-12759309D01*
X6243095Y-12749786D01*
X6233571Y-12730738D01*
X6233571Y-12721214D01*
X6243095Y-12702167D01*
X6262143Y-12692643D01*
X6290714Y-12692643D01*
X6309762Y-12702167D01*
X6385952Y-12902167D02*
X6395476Y-12892643D01*
X6414524Y-12864071D01*
X6424048Y-12845024D01*
X6433571Y-12816452D01*
X6443095Y-12768833D01*
X6443095Y-12730738D01*
X6433571Y-12683119D01*
X6424048Y-12654548D01*
X6414524Y-12635500D01*
X6395476Y-12606928D01*
X6385952Y-12597405D01*
X6747857Y-12902167D02*
X6738333Y-12892643D01*
X6719286Y-12864071D01*
X6709762Y-12845024D01*
X6700238Y-12816452D01*
X6690714Y-12768833D01*
X6690714Y-12730738D01*
X6700238Y-12683119D01*
X6709762Y-12654548D01*
X6719286Y-12635500D01*
X6738333Y-12606928D01*
X6747857Y-12597405D01*
X6824048Y-12692643D02*
X6824048Y-12825976D01*
X6824048Y-12711690D02*
X6833571Y-12702167D01*
X6852619Y-12692643D01*
X6881190Y-12692643D01*
X6900238Y-12702167D01*
X6909762Y-12721214D01*
X6909762Y-12825976D01*
X7033571Y-12825976D02*
X7014524Y-12816452D01*
X7005000Y-12806928D01*
X6995476Y-12787881D01*
X6995476Y-12730738D01*
X7005000Y-12711690D01*
X7014524Y-12702167D01*
X7033571Y-12692643D01*
X7062143Y-12692643D01*
X7081190Y-12702167D01*
X7090714Y-12711690D01*
X7100238Y-12730738D01*
X7100238Y-12787881D01*
X7090714Y-12806928D01*
X7081190Y-12816452D01*
X7062143Y-12825976D01*
X7033571Y-12825976D01*
X7157381Y-12692643D02*
X7233571Y-12692643D01*
X7185952Y-12625976D02*
X7185952Y-12797405D01*
X7195476Y-12816452D01*
X7214524Y-12825976D01*
X7233571Y-12825976D01*
X7452619Y-12692643D02*
X7452619Y-12892643D01*
X7452619Y-12702167D02*
X7471667Y-12692643D01*
X7509762Y-12692643D01*
X7528809Y-12702167D01*
X7538333Y-12711690D01*
X7547857Y-12730738D01*
X7547857Y-12787881D01*
X7538333Y-12806928D01*
X7528809Y-12816452D01*
X7509762Y-12825976D01*
X7471667Y-12825976D01*
X7452619Y-12816452D01*
X7662143Y-12825976D02*
X7643095Y-12816452D01*
X7633571Y-12797405D01*
X7633571Y-12625976D01*
X7824048Y-12825976D02*
X7824048Y-12721214D01*
X7814524Y-12702167D01*
X7795476Y-12692643D01*
X7757381Y-12692643D01*
X7738333Y-12702167D01*
X7824048Y-12816452D02*
X7805000Y-12825976D01*
X7757381Y-12825976D01*
X7738333Y-12816452D01*
X7728809Y-12797405D01*
X7728809Y-12778357D01*
X7738333Y-12759309D01*
X7757381Y-12749786D01*
X7805000Y-12749786D01*
X7824048Y-12740262D01*
X7890714Y-12692643D02*
X7966905Y-12692643D01*
X7919286Y-12625976D02*
X7919286Y-12797405D01*
X7928809Y-12816452D01*
X7947857Y-12825976D01*
X7966905Y-12825976D01*
X8109762Y-12816452D02*
X8090714Y-12825976D01*
X8052619Y-12825976D01*
X8033571Y-12816452D01*
X8024048Y-12797405D01*
X8024048Y-12721214D01*
X8033571Y-12702167D01*
X8052619Y-12692643D01*
X8090714Y-12692643D01*
X8109762Y-12702167D01*
X8119286Y-12721214D01*
X8119286Y-12740262D01*
X8024048Y-12759309D01*
X8290714Y-12825976D02*
X8290714Y-12625976D01*
X8290714Y-12816452D02*
X8271667Y-12825976D01*
X8233571Y-12825976D01*
X8214524Y-12816452D01*
X8205000Y-12806928D01*
X8195476Y-12787881D01*
X8195476Y-12730738D01*
X8205000Y-12711690D01*
X8214524Y-12702167D01*
X8233571Y-12692643D01*
X8271667Y-12692643D01*
X8290714Y-12702167D01*
X8366905Y-12902167D02*
X8376428Y-12892643D01*
X8395476Y-12864071D01*
X8405000Y-12845024D01*
X8414524Y-12816452D01*
X8424048Y-12768833D01*
X8424048Y-12730738D01*
X8414524Y-12683119D01*
X8405000Y-12654548D01*
X8395476Y-12635500D01*
X8376428Y-12606928D01*
X8366905Y-12597405D01*
X-105000Y-12955500D02*
X-105000Y-13155500D01*
X-205000Y-13055500D02*
X-5000Y-13055500D01*
X347857Y-12945976D02*
X252619Y-12945976D01*
X243095Y-13041214D01*
X252619Y-13031690D01*
X271667Y-13022167D01*
X319286Y-13022167D01*
X338333Y-13031690D01*
X347857Y-13041214D01*
X357381Y-13060262D01*
X357381Y-13107881D01*
X347857Y-13126928D01*
X338333Y-13136452D01*
X319286Y-13145976D01*
X271667Y-13145976D01*
X252619Y-13136452D01*
X243095Y-13126928D01*
X443095Y-13126928D02*
X452619Y-13136452D01*
X443095Y-13145976D01*
X433571Y-13136452D01*
X443095Y-13126928D01*
X443095Y-13145976D01*
X576429Y-12945976D02*
X595476Y-12945976D01*
X614524Y-12955500D01*
X624048Y-12965024D01*
X633571Y-12984071D01*
X643095Y-13022167D01*
X643095Y-13069786D01*
X633571Y-13107881D01*
X624048Y-13126928D01*
X614524Y-13136452D01*
X595476Y-13145976D01*
X576429Y-13145976D01*
X557381Y-13136452D01*
X547857Y-13126928D01*
X538333Y-13107881D01*
X528810Y-13069786D01*
X528810Y-13022167D01*
X538333Y-12984071D01*
X547857Y-12965024D01*
X557381Y-12955500D01*
X576429Y-12945976D01*
X766905Y-12945976D02*
X785952Y-12945976D01*
X805000Y-12955500D01*
X814524Y-12965024D01*
X824048Y-12984071D01*
X833571Y-13022167D01*
X833571Y-13069786D01*
X824048Y-13107881D01*
X814524Y-13126928D01*
X805000Y-13136452D01*
X785952Y-13145976D01*
X766905Y-13145976D01*
X747857Y-13136452D01*
X738333Y-13126928D01*
X728809Y-13107881D01*
X719286Y-13069786D01*
X719286Y-13022167D01*
X728809Y-12984071D01*
X738333Y-12965024D01*
X747857Y-12955500D01*
X766905Y-12945976D01*
X957381Y-12945976D02*
X976428Y-12945976D01*
X995476Y-12955500D01*
X1005000Y-12965024D01*
X1014524Y-12984071D01*
X1024048Y-13022167D01*
X1024048Y-13069786D01*
X1014524Y-13107881D01*
X1005000Y-13126928D01*
X995476Y-13136452D01*
X976428Y-13145976D01*
X957381Y-13145976D01*
X938333Y-13136452D01*
X928809Y-13126928D01*
X919286Y-13107881D01*
X909762Y-13069786D01*
X909762Y-13022167D01*
X919286Y-12984071D01*
X928809Y-12965024D01*
X938333Y-12955500D01*
X957381Y-12945976D01*
X1109762Y-13145976D02*
X1109762Y-13012643D01*
X1109762Y-13031690D02*
X1119286Y-13022167D01*
X1138333Y-13012643D01*
X1166905Y-13012643D01*
X1185952Y-13022167D01*
X1195476Y-13041214D01*
X1195476Y-13145976D01*
X1195476Y-13041214D02*
X1205000Y-13022167D01*
X1224048Y-13012643D01*
X1252619Y-13012643D01*
X1271667Y-13022167D01*
X1281190Y-13041214D01*
X1281190Y-13145976D01*
X1376429Y-13145976D02*
X1376429Y-13012643D01*
X1376429Y-13031690D02*
X1385952Y-13022167D01*
X1405000Y-13012643D01*
X1433571Y-13012643D01*
X1452619Y-13022167D01*
X1462143Y-13041214D01*
X1462143Y-13145976D01*
X1462143Y-13041214D02*
X1471667Y-13022167D01*
X1490714Y-13012643D01*
X1519286Y-13012643D01*
X1538333Y-13022167D01*
X1547857Y-13041214D01*
X1547857Y-13145976D01*
X1938333Y-12936452D02*
X1766905Y-13193595D01*
X2195476Y-12945976D02*
X2214524Y-12945976D01*
X2233571Y-12955500D01*
X2243095Y-12965024D01*
X2252619Y-12984071D01*
X2262143Y-13022167D01*
X2262143Y-13069786D01*
X2252619Y-13107881D01*
X2243095Y-13126928D01*
X2233571Y-13136452D01*
X2214524Y-13145976D01*
X2195476Y-13145976D01*
X2176429Y-13136452D01*
X2166905Y-13126928D01*
X2157381Y-13107881D01*
X2147857Y-13069786D01*
X2147857Y-13022167D01*
X2157381Y-12984071D01*
X2166905Y-12965024D01*
X2176429Y-12955500D01*
X2195476Y-12945976D01*
X2347857Y-13126928D02*
X2357381Y-13136452D01*
X2347857Y-13145976D01*
X2338333Y-13136452D01*
X2347857Y-13126928D01*
X2347857Y-13145976D01*
X2547857Y-13145976D02*
X2433571Y-13145976D01*
X2490714Y-13145976D02*
X2490714Y-12945976D01*
X2471667Y-12974548D01*
X2452619Y-12993595D01*
X2433571Y-13003119D01*
X2643095Y-13145976D02*
X2681190Y-13145976D01*
X2700238Y-13136452D01*
X2709762Y-13126928D01*
X2728810Y-13098357D01*
X2738333Y-13060262D01*
X2738333Y-12984071D01*
X2728810Y-12965024D01*
X2719286Y-12955500D01*
X2700238Y-12945976D01*
X2662143Y-12945976D01*
X2643095Y-12955500D01*
X2633571Y-12965024D01*
X2624048Y-12984071D01*
X2624048Y-13031690D01*
X2633571Y-13050738D01*
X2643095Y-13060262D01*
X2662143Y-13069786D01*
X2700238Y-13069786D01*
X2719286Y-13060262D01*
X2728810Y-13050738D01*
X2738333Y-13031690D01*
X2909762Y-12945976D02*
X2871667Y-12945976D01*
X2852619Y-12955500D01*
X2843095Y-12965024D01*
X2824048Y-12993595D01*
X2814524Y-13031690D01*
X2814524Y-13107881D01*
X2824048Y-13126928D01*
X2833571Y-13136452D01*
X2852619Y-13145976D01*
X2890714Y-13145976D01*
X2909762Y-13136452D01*
X2919286Y-13126928D01*
X2928809Y-13107881D01*
X2928809Y-13060262D01*
X2919286Y-13041214D01*
X2909762Y-13031690D01*
X2890714Y-13022167D01*
X2852619Y-13022167D01*
X2833571Y-13031690D01*
X2824048Y-13041214D01*
X2814524Y-13060262D01*
X3024048Y-13145976D02*
X3062143Y-13145976D01*
X3081190Y-13136452D01*
X3090714Y-13126928D01*
X3109762Y-13098357D01*
X3119286Y-13060262D01*
X3119286Y-12984071D01*
X3109762Y-12965024D01*
X3100238Y-12955500D01*
X3081190Y-12945976D01*
X3043095Y-12945976D01*
X3024048Y-12955500D01*
X3014524Y-12965024D01*
X3005000Y-12984071D01*
X3005000Y-13031690D01*
X3014524Y-13050738D01*
X3024048Y-13060262D01*
X3043095Y-13069786D01*
X3081190Y-13069786D01*
X3100238Y-13060262D01*
X3109762Y-13050738D01*
X3119286Y-13031690D01*
X3195476Y-12945976D02*
X3195476Y-12984071D01*
X3271667Y-12945976D02*
X3271667Y-12984071D01*
X3566905Y-13222167D02*
X3557381Y-13212643D01*
X3538333Y-13184071D01*
X3528809Y-13165024D01*
X3519286Y-13136452D01*
X3509762Y-13088833D01*
X3509762Y-13050738D01*
X3519286Y-13003119D01*
X3528809Y-12974548D01*
X3538333Y-12955500D01*
X3557381Y-12926928D01*
X3566905Y-12917405D01*
X3747857Y-13145976D02*
X3633571Y-13145976D01*
X3690714Y-13145976D02*
X3690714Y-12945976D01*
X3671667Y-12974548D01*
X3652619Y-12993595D01*
X3633571Y-13003119D01*
X3985952Y-13145976D02*
X3985952Y-12945976D01*
X4071667Y-13145976D02*
X4071667Y-13041214D01*
X4062143Y-13022167D01*
X4043095Y-13012643D01*
X4014524Y-13012643D01*
X3995476Y-13022167D01*
X3985952Y-13031690D01*
X4195476Y-13145976D02*
X4176428Y-13136452D01*
X4166905Y-13126928D01*
X4157381Y-13107881D01*
X4157381Y-13050738D01*
X4166905Y-13031690D01*
X4176428Y-13022167D01*
X4195476Y-13012643D01*
X4224048Y-13012643D01*
X4243095Y-13022167D01*
X4252619Y-13031690D01*
X4262143Y-13050738D01*
X4262143Y-13107881D01*
X4252619Y-13126928D01*
X4243095Y-13136452D01*
X4224048Y-13145976D01*
X4195476Y-13145976D01*
X4376429Y-13145976D02*
X4357381Y-13136452D01*
X4347857Y-13117405D01*
X4347857Y-12945976D01*
X4528810Y-13136452D02*
X4509762Y-13145976D01*
X4471667Y-13145976D01*
X4452619Y-13136452D01*
X4443095Y-13117405D01*
X4443095Y-13041214D01*
X4452619Y-13022167D01*
X4471667Y-13012643D01*
X4509762Y-13012643D01*
X4528810Y-13022167D01*
X4538333Y-13041214D01*
X4538333Y-13060262D01*
X4443095Y-13079309D01*
X4605000Y-13222167D02*
X4614524Y-13212643D01*
X4633571Y-13184071D01*
X4643095Y-13165024D01*
X4652619Y-13136452D01*
X4662143Y-13088833D01*
X4662143Y-13050738D01*
X4652619Y-13003119D01*
X4643095Y-12974548D01*
X4633571Y-12955500D01*
X4614524Y-12926928D01*
X4605000Y-12917405D01*
X4966905Y-13222167D02*
X4957381Y-13212643D01*
X4938333Y-13184071D01*
X4928810Y-13165024D01*
X4919286Y-13136452D01*
X4909762Y-13088833D01*
X4909762Y-13050738D01*
X4919286Y-13003119D01*
X4928810Y-12974548D01*
X4938333Y-12955500D01*
X4957381Y-12926928D01*
X4966905Y-12917405D01*
X5043095Y-13012643D02*
X5043095Y-13145976D01*
X5043095Y-13031690D02*
X5052619Y-13022167D01*
X5071667Y-13012643D01*
X5100238Y-13012643D01*
X5119286Y-13022167D01*
X5128810Y-13041214D01*
X5128810Y-13145976D01*
X5252619Y-13145976D02*
X5233571Y-13136452D01*
X5224048Y-13126928D01*
X5214524Y-13107881D01*
X5214524Y-13050738D01*
X5224048Y-13031690D01*
X5233571Y-13022167D01*
X5252619Y-13012643D01*
X5281190Y-13012643D01*
X5300238Y-13022167D01*
X5309762Y-13031690D01*
X5319286Y-13050738D01*
X5319286Y-13107881D01*
X5309762Y-13126928D01*
X5300238Y-13136452D01*
X5281190Y-13145976D01*
X5252619Y-13145976D01*
X5376429Y-13012643D02*
X5452619Y-13012643D01*
X5405000Y-12945976D02*
X5405000Y-13117405D01*
X5414524Y-13136452D01*
X5433571Y-13145976D01*
X5452619Y-13145976D01*
X5671667Y-13012643D02*
X5671667Y-13212643D01*
X5671667Y-13022167D02*
X5690714Y-13012643D01*
X5728809Y-13012643D01*
X5747857Y-13022167D01*
X5757381Y-13031690D01*
X5766905Y-13050738D01*
X5766905Y-13107881D01*
X5757381Y-13126928D01*
X5747857Y-13136452D01*
X5728809Y-13145976D01*
X5690714Y-13145976D01*
X5671667Y-13136452D01*
X5881190Y-13145976D02*
X5862143Y-13136452D01*
X5852619Y-13117405D01*
X5852619Y-12945976D01*
X6043095Y-13145976D02*
X6043095Y-13041214D01*
X6033571Y-13022167D01*
X6014524Y-13012643D01*
X5976428Y-13012643D01*
X5957381Y-13022167D01*
X6043095Y-13136452D02*
X6024048Y-13145976D01*
X5976428Y-13145976D01*
X5957381Y-13136452D01*
X5947857Y-13117405D01*
X5947857Y-13098357D01*
X5957381Y-13079309D01*
X5976428Y-13069786D01*
X6024048Y-13069786D01*
X6043095Y-13060262D01*
X6109762Y-13012643D02*
X6185952Y-13012643D01*
X6138333Y-12945976D02*
X6138333Y-13117405D01*
X6147857Y-13136452D01*
X6166905Y-13145976D01*
X6185952Y-13145976D01*
X6328809Y-13136452D02*
X6309762Y-13145976D01*
X6271667Y-13145976D01*
X6252619Y-13136452D01*
X6243095Y-13117405D01*
X6243095Y-13041214D01*
X6252619Y-13022167D01*
X6271667Y-13012643D01*
X6309762Y-13012643D01*
X6328809Y-13022167D01*
X6338333Y-13041214D01*
X6338333Y-13060262D01*
X6243095Y-13079309D01*
X6509762Y-13145976D02*
X6509762Y-12945976D01*
X6509762Y-13136452D02*
X6490714Y-13145976D01*
X6452619Y-13145976D01*
X6433571Y-13136452D01*
X6424048Y-13126928D01*
X6414524Y-13107881D01*
X6414524Y-13050738D01*
X6424048Y-13031690D01*
X6433571Y-13022167D01*
X6452619Y-13012643D01*
X6490714Y-13012643D01*
X6509762Y-13022167D01*
X6585952Y-13222167D02*
X6595476Y-13212643D01*
X6614524Y-13184071D01*
X6624048Y-13165024D01*
X6633571Y-13136452D01*
X6643095Y-13088833D01*
X6643095Y-13050738D01*
X6633571Y-13003119D01*
X6624048Y-12974548D01*
X6614524Y-12955500D01*
X6595476Y-12926928D01*
X6585952Y-12917405D01*
X-34289Y-13446211D02*
X-34289Y-13304789D01*
X-175711Y-13304789D01*
X-175711Y-13446211D01*
X-34289Y-13446211D01*
X338333Y-13265976D02*
X300238Y-13265976D01*
X281190Y-13275500D01*
X271667Y-13285024D01*
X252619Y-13313595D01*
X243095Y-13351690D01*
X243095Y-13427881D01*
X252619Y-13446928D01*
X262143Y-13456452D01*
X281190Y-13465976D01*
X319286Y-13465976D01*
X338333Y-13456452D01*
X347857Y-13446928D01*
X357381Y-13427881D01*
X357381Y-13380262D01*
X347857Y-13361214D01*
X338333Y-13351690D01*
X319286Y-13342167D01*
X281190Y-13342167D01*
X262143Y-13351690D01*
X252619Y-13361214D01*
X243095Y-13380262D01*
X443095Y-13446928D02*
X452619Y-13456452D01*
X443095Y-13465976D01*
X433571Y-13456452D01*
X443095Y-13446928D01*
X443095Y-13465976D01*
X576429Y-13265976D02*
X595476Y-13265976D01*
X614524Y-13275500D01*
X624048Y-13285024D01*
X633571Y-13304071D01*
X643095Y-13342167D01*
X643095Y-13389786D01*
X633571Y-13427881D01*
X624048Y-13446928D01*
X614524Y-13456452D01*
X595476Y-13465976D01*
X576429Y-13465976D01*
X557381Y-13456452D01*
X547857Y-13446928D01*
X538333Y-13427881D01*
X528810Y-13389786D01*
X528810Y-13342167D01*
X538333Y-13304071D01*
X547857Y-13285024D01*
X557381Y-13275500D01*
X576429Y-13265976D01*
X766905Y-13265976D02*
X785952Y-13265976D01*
X805000Y-13275500D01*
X814524Y-13285024D01*
X824048Y-13304071D01*
X833571Y-13342167D01*
X833571Y-13389786D01*
X824048Y-13427881D01*
X814524Y-13446928D01*
X805000Y-13456452D01*
X785952Y-13465976D01*
X766905Y-13465976D01*
X747857Y-13456452D01*
X738333Y-13446928D01*
X728809Y-13427881D01*
X719286Y-13389786D01*
X719286Y-13342167D01*
X728809Y-13304071D01*
X738333Y-13285024D01*
X747857Y-13275500D01*
X766905Y-13265976D01*
X957381Y-13265976D02*
X976428Y-13265976D01*
X995476Y-13275500D01*
X1005000Y-13285024D01*
X1014524Y-13304071D01*
X1024048Y-13342167D01*
X1024048Y-13389786D01*
X1014524Y-13427881D01*
X1005000Y-13446928D01*
X995476Y-13456452D01*
X976428Y-13465976D01*
X957381Y-13465976D01*
X938333Y-13456452D01*
X928809Y-13446928D01*
X919286Y-13427881D01*
X909762Y-13389786D01*
X909762Y-13342167D01*
X919286Y-13304071D01*
X928809Y-13285024D01*
X938333Y-13275500D01*
X957381Y-13265976D01*
X1109762Y-13465976D02*
X1109762Y-13332643D01*
X1109762Y-13351690D02*
X1119286Y-13342167D01*
X1138333Y-13332643D01*
X1166905Y-13332643D01*
X1185952Y-13342167D01*
X1195476Y-13361214D01*
X1195476Y-13465976D01*
X1195476Y-13361214D02*
X1205000Y-13342167D01*
X1224048Y-13332643D01*
X1252619Y-13332643D01*
X1271667Y-13342167D01*
X1281190Y-13361214D01*
X1281190Y-13465976D01*
X1376429Y-13465976D02*
X1376429Y-13332643D01*
X1376429Y-13351690D02*
X1385952Y-13342167D01*
X1405000Y-13332643D01*
X1433571Y-13332643D01*
X1452619Y-13342167D01*
X1462143Y-13361214D01*
X1462143Y-13465976D01*
X1462143Y-13361214D02*
X1471667Y-13342167D01*
X1490714Y-13332643D01*
X1519286Y-13332643D01*
X1538333Y-13342167D01*
X1547857Y-13361214D01*
X1547857Y-13465976D01*
X1938333Y-13256452D02*
X1766905Y-13513595D01*
X2195476Y-13265976D02*
X2214524Y-13265976D01*
X2233571Y-13275500D01*
X2243095Y-13285024D01*
X2252619Y-13304071D01*
X2262143Y-13342167D01*
X2262143Y-13389786D01*
X2252619Y-13427881D01*
X2243095Y-13446928D01*
X2233571Y-13456452D01*
X2214524Y-13465976D01*
X2195476Y-13465976D01*
X2176429Y-13456452D01*
X2166905Y-13446928D01*
X2157381Y-13427881D01*
X2147857Y-13389786D01*
X2147857Y-13342167D01*
X2157381Y-13304071D01*
X2166905Y-13285024D01*
X2176429Y-13275500D01*
X2195476Y-13265976D01*
X2347857Y-13446928D02*
X2357381Y-13456452D01*
X2347857Y-13465976D01*
X2338333Y-13456452D01*
X2347857Y-13446928D01*
X2347857Y-13465976D01*
X2433571Y-13285024D02*
X2443095Y-13275500D01*
X2462143Y-13265976D01*
X2509762Y-13265976D01*
X2528810Y-13275500D01*
X2538333Y-13285024D01*
X2547857Y-13304071D01*
X2547857Y-13323119D01*
X2538333Y-13351690D01*
X2424048Y-13465976D01*
X2547857Y-13465976D01*
X2614524Y-13265976D02*
X2738333Y-13265976D01*
X2671667Y-13342167D01*
X2700238Y-13342167D01*
X2719286Y-13351690D01*
X2728810Y-13361214D01*
X2738333Y-13380262D01*
X2738333Y-13427881D01*
X2728810Y-13446928D01*
X2719286Y-13456452D01*
X2700238Y-13465976D01*
X2643095Y-13465976D01*
X2624048Y-13456452D01*
X2614524Y-13446928D01*
X2909762Y-13265976D02*
X2871667Y-13265976D01*
X2852619Y-13275500D01*
X2843095Y-13285024D01*
X2824048Y-13313595D01*
X2814524Y-13351690D01*
X2814524Y-13427881D01*
X2824048Y-13446928D01*
X2833571Y-13456452D01*
X2852619Y-13465976D01*
X2890714Y-13465976D01*
X2909762Y-13456452D01*
X2919286Y-13446928D01*
X2928809Y-13427881D01*
X2928809Y-13380262D01*
X2919286Y-13361214D01*
X2909762Y-13351690D01*
X2890714Y-13342167D01*
X2852619Y-13342167D01*
X2833571Y-13351690D01*
X2824048Y-13361214D01*
X2814524Y-13380262D01*
X3005000Y-13285024D02*
X3014524Y-13275500D01*
X3033571Y-13265976D01*
X3081190Y-13265976D01*
X3100238Y-13275500D01*
X3109762Y-13285024D01*
X3119286Y-13304071D01*
X3119286Y-13323119D01*
X3109762Y-13351690D01*
X2995476Y-13465976D01*
X3119286Y-13465976D01*
X3195476Y-13265976D02*
X3195476Y-13304071D01*
X3271667Y-13265976D02*
X3271667Y-13304071D01*
X3566905Y-13542167D02*
X3557381Y-13532643D01*
X3538333Y-13504071D01*
X3528809Y-13485024D01*
X3519286Y-13456452D01*
X3509762Y-13408833D01*
X3509762Y-13370738D01*
X3519286Y-13323119D01*
X3528809Y-13294548D01*
X3538333Y-13275500D01*
X3557381Y-13246928D01*
X3566905Y-13237405D01*
X3624048Y-13265976D02*
X3757381Y-13265976D01*
X3671667Y-13465976D01*
X3985952Y-13465976D02*
X3985952Y-13265976D01*
X4071667Y-13465976D02*
X4071667Y-13361214D01*
X4062143Y-13342167D01*
X4043095Y-13332643D01*
X4014524Y-13332643D01*
X3995476Y-13342167D01*
X3985952Y-13351690D01*
X4195476Y-13465976D02*
X4176428Y-13456452D01*
X4166905Y-13446928D01*
X4157381Y-13427881D01*
X4157381Y-13370738D01*
X4166905Y-13351690D01*
X4176428Y-13342167D01*
X4195476Y-13332643D01*
X4224048Y-13332643D01*
X4243095Y-13342167D01*
X4252619Y-13351690D01*
X4262143Y-13370738D01*
X4262143Y-13427881D01*
X4252619Y-13446928D01*
X4243095Y-13456452D01*
X4224048Y-13465976D01*
X4195476Y-13465976D01*
X4376429Y-13465976D02*
X4357381Y-13456452D01*
X4347857Y-13437405D01*
X4347857Y-13265976D01*
X4528810Y-13456452D02*
X4509762Y-13465976D01*
X4471667Y-13465976D01*
X4452619Y-13456452D01*
X4443095Y-13437405D01*
X4443095Y-13361214D01*
X4452619Y-13342167D01*
X4471667Y-13332643D01*
X4509762Y-13332643D01*
X4528810Y-13342167D01*
X4538333Y-13361214D01*
X4538333Y-13380262D01*
X4443095Y-13399309D01*
X4614524Y-13456452D02*
X4633571Y-13465976D01*
X4671667Y-13465976D01*
X4690714Y-13456452D01*
X4700238Y-13437405D01*
X4700238Y-13427881D01*
X4690714Y-13408833D01*
X4671667Y-13399309D01*
X4643095Y-13399309D01*
X4624048Y-13389786D01*
X4614524Y-13370738D01*
X4614524Y-13361214D01*
X4624048Y-13342167D01*
X4643095Y-13332643D01*
X4671667Y-13332643D01*
X4690714Y-13342167D01*
X4766905Y-13542167D02*
X4776429Y-13532643D01*
X4795476Y-13504071D01*
X4805000Y-13485024D01*
X4814524Y-13456452D01*
X4824048Y-13408833D01*
X4824048Y-13370738D01*
X4814524Y-13323119D01*
X4805000Y-13294548D01*
X4795476Y-13275500D01*
X4776429Y-13246928D01*
X4766905Y-13237405D01*
X5128810Y-13542167D02*
X5119286Y-13532643D01*
X5100238Y-13504071D01*
X5090714Y-13485024D01*
X5081190Y-13456452D01*
X5071667Y-13408833D01*
X5071667Y-13370738D01*
X5081190Y-13323119D01*
X5090714Y-13294548D01*
X5100238Y-13275500D01*
X5119286Y-13246928D01*
X5128810Y-13237405D01*
X5205000Y-13332643D02*
X5205000Y-13465976D01*
X5205000Y-13351690D02*
X5214524Y-13342167D01*
X5233571Y-13332643D01*
X5262143Y-13332643D01*
X5281190Y-13342167D01*
X5290714Y-13361214D01*
X5290714Y-13465976D01*
X5414524Y-13465976D02*
X5395476Y-13456452D01*
X5385952Y-13446928D01*
X5376429Y-13427881D01*
X5376429Y-13370738D01*
X5385952Y-13351690D01*
X5395476Y-13342167D01*
X5414524Y-13332643D01*
X5443095Y-13332643D01*
X5462143Y-13342167D01*
X5471667Y-13351690D01*
X5481190Y-13370738D01*
X5481190Y-13427881D01*
X5471667Y-13446928D01*
X5462143Y-13456452D01*
X5443095Y-13465976D01*
X5414524Y-13465976D01*
X5538333Y-13332643D02*
X5614524Y-13332643D01*
X5566905Y-13265976D02*
X5566905Y-13437405D01*
X5576429Y-13456452D01*
X5595476Y-13465976D01*
X5614524Y-13465976D01*
X5833571Y-13332643D02*
X5833571Y-13532643D01*
X5833571Y-13342167D02*
X5852619Y-13332643D01*
X5890714Y-13332643D01*
X5909762Y-13342167D01*
X5919286Y-13351690D01*
X5928809Y-13370738D01*
X5928809Y-13427881D01*
X5919286Y-13446928D01*
X5909762Y-13456452D01*
X5890714Y-13465976D01*
X5852619Y-13465976D01*
X5833571Y-13456452D01*
X6043095Y-13465976D02*
X6024048Y-13456452D01*
X6014524Y-13437405D01*
X6014524Y-13265976D01*
X6205000Y-13465976D02*
X6205000Y-13361214D01*
X6195476Y-13342167D01*
X6176428Y-13332643D01*
X6138333Y-13332643D01*
X6119286Y-13342167D01*
X6205000Y-13456452D02*
X6185952Y-13465976D01*
X6138333Y-13465976D01*
X6119286Y-13456452D01*
X6109762Y-13437405D01*
X6109762Y-13418357D01*
X6119286Y-13399309D01*
X6138333Y-13389786D01*
X6185952Y-13389786D01*
X6205000Y-13380262D01*
X6271667Y-13332643D02*
X6347857Y-13332643D01*
X6300238Y-13265976D02*
X6300238Y-13437405D01*
X6309762Y-13456452D01*
X6328809Y-13465976D01*
X6347857Y-13465976D01*
X6490714Y-13456452D02*
X6471667Y-13465976D01*
X6433571Y-13465976D01*
X6414524Y-13456452D01*
X6405000Y-13437405D01*
X6405000Y-13361214D01*
X6414524Y-13342167D01*
X6433571Y-13332643D01*
X6471667Y-13332643D01*
X6490714Y-13342167D01*
X6500238Y-13361214D01*
X6500238Y-13380262D01*
X6405000Y-13399309D01*
X6671667Y-13465976D02*
X6671667Y-13265976D01*
X6671667Y-13456452D02*
X6652619Y-13465976D01*
X6614524Y-13465976D01*
X6595476Y-13456452D01*
X6585952Y-13446928D01*
X6576428Y-13427881D01*
X6576428Y-13370738D01*
X6585952Y-13351690D01*
X6595476Y-13342167D01*
X6614524Y-13332643D01*
X6652619Y-13332643D01*
X6671667Y-13342167D01*
X6747857Y-13542167D02*
X6757381Y-13532643D01*
X6776428Y-13504071D01*
X6785952Y-13485024D01*
X6795476Y-13456452D01*
X6805000Y-13408833D01*
X6805000Y-13370738D01*
X6795476Y-13323119D01*
X6785952Y-13294548D01*
X6776428Y-13275500D01*
X6757381Y-13246928D01*
X6747857Y-13237405D01*
X-105000Y-13795500D02*
X-5000Y-13695500D01*
X-105000Y-13595500D01*
X-205000Y-13695500D01*
X-105000Y-13795500D01*
X338333Y-13585976D02*
X300238Y-13585976D01*
X281190Y-13595500D01*
X271667Y-13605024D01*
X252619Y-13633595D01*
X243095Y-13671690D01*
X243095Y-13747881D01*
X252619Y-13766928D01*
X262143Y-13776452D01*
X281190Y-13785976D01*
X319286Y-13785976D01*
X338333Y-13776452D01*
X347857Y-13766928D01*
X357381Y-13747881D01*
X357381Y-13700262D01*
X347857Y-13681214D01*
X338333Y-13671690D01*
X319286Y-13662167D01*
X281190Y-13662167D01*
X262143Y-13671690D01*
X252619Y-13681214D01*
X243095Y-13700262D01*
X443095Y-13766928D02*
X452619Y-13776452D01*
X443095Y-13785976D01*
X433571Y-13776452D01*
X443095Y-13766928D01*
X443095Y-13785976D01*
X633571Y-13585976D02*
X538333Y-13585976D01*
X528810Y-13681214D01*
X538333Y-13671690D01*
X557381Y-13662167D01*
X605000Y-13662167D01*
X624048Y-13671690D01*
X633571Y-13681214D01*
X643095Y-13700262D01*
X643095Y-13747881D01*
X633571Y-13766928D01*
X624048Y-13776452D01*
X605000Y-13785976D01*
X557381Y-13785976D01*
X538333Y-13776452D01*
X528810Y-13766928D01*
X766905Y-13585976D02*
X785952Y-13585976D01*
X805000Y-13595500D01*
X814524Y-13605024D01*
X824048Y-13624071D01*
X833571Y-13662167D01*
X833571Y-13709786D01*
X824048Y-13747881D01*
X814524Y-13766928D01*
X805000Y-13776452D01*
X785952Y-13785976D01*
X766905Y-13785976D01*
X747857Y-13776452D01*
X738333Y-13766928D01*
X728809Y-13747881D01*
X719286Y-13709786D01*
X719286Y-13662167D01*
X728809Y-13624071D01*
X738333Y-13605024D01*
X747857Y-13595500D01*
X766905Y-13585976D01*
X957381Y-13585976D02*
X976428Y-13585976D01*
X995476Y-13595500D01*
X1005000Y-13605024D01*
X1014524Y-13624071D01*
X1024048Y-13662167D01*
X1024048Y-13709786D01*
X1014524Y-13747881D01*
X1005000Y-13766928D01*
X995476Y-13776452D01*
X976428Y-13785976D01*
X957381Y-13785976D01*
X938333Y-13776452D01*
X928809Y-13766928D01*
X919286Y-13747881D01*
X909762Y-13709786D01*
X909762Y-13662167D01*
X919286Y-13624071D01*
X928809Y-13605024D01*
X938333Y-13595500D01*
X957381Y-13585976D01*
X1109762Y-13785976D02*
X1109762Y-13652643D01*
X1109762Y-13671690D02*
X1119286Y-13662167D01*
X1138333Y-13652643D01*
X1166905Y-13652643D01*
X1185952Y-13662167D01*
X1195476Y-13681214D01*
X1195476Y-13785976D01*
X1195476Y-13681214D02*
X1205000Y-13662167D01*
X1224048Y-13652643D01*
X1252619Y-13652643D01*
X1271667Y-13662167D01*
X1281190Y-13681214D01*
X1281190Y-13785976D01*
X1376429Y-13785976D02*
X1376429Y-13652643D01*
X1376429Y-13671690D02*
X1385952Y-13662167D01*
X1405000Y-13652643D01*
X1433571Y-13652643D01*
X1452619Y-13662167D01*
X1462143Y-13681214D01*
X1462143Y-13785976D01*
X1462143Y-13681214D02*
X1471667Y-13662167D01*
X1490714Y-13652643D01*
X1519286Y-13652643D01*
X1538333Y-13662167D01*
X1547857Y-13681214D01*
X1547857Y-13785976D01*
X1938333Y-13576452D02*
X1766905Y-13833595D01*
X2195476Y-13585976D02*
X2214524Y-13585976D01*
X2233571Y-13595500D01*
X2243095Y-13605024D01*
X2252619Y-13624071D01*
X2262143Y-13662167D01*
X2262143Y-13709786D01*
X2252619Y-13747881D01*
X2243095Y-13766928D01*
X2233571Y-13776452D01*
X2214524Y-13785976D01*
X2195476Y-13785976D01*
X2176429Y-13776452D01*
X2166905Y-13766928D01*
X2157381Y-13747881D01*
X2147857Y-13709786D01*
X2147857Y-13662167D01*
X2157381Y-13624071D01*
X2166905Y-13605024D01*
X2176429Y-13595500D01*
X2195476Y-13585976D01*
X2347857Y-13766928D02*
X2357381Y-13776452D01*
X2347857Y-13785976D01*
X2338333Y-13776452D01*
X2347857Y-13766928D01*
X2347857Y-13785976D01*
X2433571Y-13605024D02*
X2443095Y-13595500D01*
X2462143Y-13585976D01*
X2509762Y-13585976D01*
X2528810Y-13595500D01*
X2538333Y-13605024D01*
X2547857Y-13624071D01*
X2547857Y-13643119D01*
X2538333Y-13671690D01*
X2424048Y-13785976D01*
X2547857Y-13785976D01*
X2728810Y-13585976D02*
X2633571Y-13585976D01*
X2624048Y-13681214D01*
X2633571Y-13671690D01*
X2652619Y-13662167D01*
X2700238Y-13662167D01*
X2719286Y-13671690D01*
X2728810Y-13681214D01*
X2738333Y-13700262D01*
X2738333Y-13747881D01*
X2728810Y-13766928D01*
X2719286Y-13776452D01*
X2700238Y-13785976D01*
X2652619Y-13785976D01*
X2633571Y-13776452D01*
X2624048Y-13766928D01*
X2919286Y-13585976D02*
X2824048Y-13585976D01*
X2814524Y-13681214D01*
X2824048Y-13671690D01*
X2843095Y-13662167D01*
X2890714Y-13662167D01*
X2909762Y-13671690D01*
X2919286Y-13681214D01*
X2928809Y-13700262D01*
X2928809Y-13747881D01*
X2919286Y-13766928D01*
X2909762Y-13776452D01*
X2890714Y-13785976D01*
X2843095Y-13785976D01*
X2824048Y-13776452D01*
X2814524Y-13766928D01*
X3024048Y-13785976D02*
X3062143Y-13785976D01*
X3081190Y-13776452D01*
X3090714Y-13766928D01*
X3109762Y-13738357D01*
X3119286Y-13700262D01*
X3119286Y-13624071D01*
X3109762Y-13605024D01*
X3100238Y-13595500D01*
X3081190Y-13585976D01*
X3043095Y-13585976D01*
X3024048Y-13595500D01*
X3014524Y-13605024D01*
X3005000Y-13624071D01*
X3005000Y-13671690D01*
X3014524Y-13690738D01*
X3024048Y-13700262D01*
X3043095Y-13709786D01*
X3081190Y-13709786D01*
X3100238Y-13700262D01*
X3109762Y-13690738D01*
X3119286Y-13671690D01*
X3195476Y-13585976D02*
X3195476Y-13624071D01*
X3271667Y-13585976D02*
X3271667Y-13624071D01*
X3566905Y-13862167D02*
X3557381Y-13852643D01*
X3538333Y-13824071D01*
X3528809Y-13805024D01*
X3519286Y-13776452D01*
X3509762Y-13728833D01*
X3509762Y-13690738D01*
X3519286Y-13643119D01*
X3528809Y-13614548D01*
X3538333Y-13595500D01*
X3557381Y-13566928D01*
X3566905Y-13557405D01*
X3671667Y-13671690D02*
X3652619Y-13662167D01*
X3643095Y-13652643D01*
X3633571Y-13633595D01*
X3633571Y-13624071D01*
X3643095Y-13605024D01*
X3652619Y-13595500D01*
X3671667Y-13585976D01*
X3709762Y-13585976D01*
X3728809Y-13595500D01*
X3738333Y-13605024D01*
X3747857Y-13624071D01*
X3747857Y-13633595D01*
X3738333Y-13652643D01*
X3728809Y-13662167D01*
X3709762Y-13671690D01*
X3671667Y-13671690D01*
X3652619Y-13681214D01*
X3643095Y-13690738D01*
X3633571Y-13709786D01*
X3633571Y-13747881D01*
X3643095Y-13766928D01*
X3652619Y-13776452D01*
X3671667Y-13785976D01*
X3709762Y-13785976D01*
X3728809Y-13776452D01*
X3738333Y-13766928D01*
X3747857Y-13747881D01*
X3747857Y-13709786D01*
X3738333Y-13690738D01*
X3728809Y-13681214D01*
X3709762Y-13671690D01*
X3985952Y-13785976D02*
X3985952Y-13585976D01*
X4071667Y-13785976D02*
X4071667Y-13681214D01*
X4062143Y-13662167D01*
X4043095Y-13652643D01*
X4014524Y-13652643D01*
X3995476Y-13662167D01*
X3985952Y-13671690D01*
X4195476Y-13785976D02*
X4176428Y-13776452D01*
X4166905Y-13766928D01*
X4157381Y-13747881D01*
X4157381Y-13690738D01*
X4166905Y-13671690D01*
X4176428Y-13662167D01*
X4195476Y-13652643D01*
X4224048Y-13652643D01*
X4243095Y-13662167D01*
X4252619Y-13671690D01*
X4262143Y-13690738D01*
X4262143Y-13747881D01*
X4252619Y-13766928D01*
X4243095Y-13776452D01*
X4224048Y-13785976D01*
X4195476Y-13785976D01*
X4376429Y-13785976D02*
X4357381Y-13776452D01*
X4347857Y-13757405D01*
X4347857Y-13585976D01*
X4528810Y-13776452D02*
X4509762Y-13785976D01*
X4471667Y-13785976D01*
X4452619Y-13776452D01*
X4443095Y-13757405D01*
X4443095Y-13681214D01*
X4452619Y-13662167D01*
X4471667Y-13652643D01*
X4509762Y-13652643D01*
X4528810Y-13662167D01*
X4538333Y-13681214D01*
X4538333Y-13700262D01*
X4443095Y-13719309D01*
X4614524Y-13776452D02*
X4633571Y-13785976D01*
X4671667Y-13785976D01*
X4690714Y-13776452D01*
X4700238Y-13757405D01*
X4700238Y-13747881D01*
X4690714Y-13728833D01*
X4671667Y-13719309D01*
X4643095Y-13719309D01*
X4624048Y-13709786D01*
X4614524Y-13690738D01*
X4614524Y-13681214D01*
X4624048Y-13662167D01*
X4643095Y-13652643D01*
X4671667Y-13652643D01*
X4690714Y-13662167D01*
X4766905Y-13862167D02*
X4776429Y-13852643D01*
X4795476Y-13824071D01*
X4805000Y-13805024D01*
X4814524Y-13776452D01*
X4824048Y-13728833D01*
X4824048Y-13690738D01*
X4814524Y-13643119D01*
X4805000Y-13614548D01*
X4795476Y-13595500D01*
X4776429Y-13566928D01*
X4766905Y-13557405D01*
X5128810Y-13862167D02*
X5119286Y-13852643D01*
X5100238Y-13824071D01*
X5090714Y-13805024D01*
X5081190Y-13776452D01*
X5071667Y-13728833D01*
X5071667Y-13690738D01*
X5081190Y-13643119D01*
X5090714Y-13614548D01*
X5100238Y-13595500D01*
X5119286Y-13566928D01*
X5128810Y-13557405D01*
X5205000Y-13652643D02*
X5205000Y-13785976D01*
X5205000Y-13671690D02*
X5214524Y-13662167D01*
X5233571Y-13652643D01*
X5262143Y-13652643D01*
X5281190Y-13662167D01*
X5290714Y-13681214D01*
X5290714Y-13785976D01*
X5414524Y-13785976D02*
X5395476Y-13776452D01*
X5385952Y-13766928D01*
X5376429Y-13747881D01*
X5376429Y-13690738D01*
X5385952Y-13671690D01*
X5395476Y-13662167D01*
X5414524Y-13652643D01*
X5443095Y-13652643D01*
X5462143Y-13662167D01*
X5471667Y-13671690D01*
X5481190Y-13690738D01*
X5481190Y-13747881D01*
X5471667Y-13766928D01*
X5462143Y-13776452D01*
X5443095Y-13785976D01*
X5414524Y-13785976D01*
X5538333Y-13652643D02*
X5614524Y-13652643D01*
X5566905Y-13585976D02*
X5566905Y-13757405D01*
X5576429Y-13776452D01*
X5595476Y-13785976D01*
X5614524Y-13785976D01*
X5833571Y-13652643D02*
X5833571Y-13852643D01*
X5833571Y-13662167D02*
X5852619Y-13652643D01*
X5890714Y-13652643D01*
X5909762Y-13662167D01*
X5919286Y-13671690D01*
X5928809Y-13690738D01*
X5928809Y-13747881D01*
X5919286Y-13766928D01*
X5909762Y-13776452D01*
X5890714Y-13785976D01*
X5852619Y-13785976D01*
X5833571Y-13776452D01*
X6043095Y-13785976D02*
X6024048Y-13776452D01*
X6014524Y-13757405D01*
X6014524Y-13585976D01*
X6205000Y-13785976D02*
X6205000Y-13681214D01*
X6195476Y-13662167D01*
X6176428Y-13652643D01*
X6138333Y-13652643D01*
X6119286Y-13662167D01*
X6205000Y-13776452D02*
X6185952Y-13785976D01*
X6138333Y-13785976D01*
X6119286Y-13776452D01*
X6109762Y-13757405D01*
X6109762Y-13738357D01*
X6119286Y-13719309D01*
X6138333Y-13709786D01*
X6185952Y-13709786D01*
X6205000Y-13700262D01*
X6271667Y-13652643D02*
X6347857Y-13652643D01*
X6300238Y-13585976D02*
X6300238Y-13757405D01*
X6309762Y-13776452D01*
X6328809Y-13785976D01*
X6347857Y-13785976D01*
X6490714Y-13776452D02*
X6471667Y-13785976D01*
X6433571Y-13785976D01*
X6414524Y-13776452D01*
X6405000Y-13757405D01*
X6405000Y-13681214D01*
X6414524Y-13662167D01*
X6433571Y-13652643D01*
X6471667Y-13652643D01*
X6490714Y-13662167D01*
X6500238Y-13681214D01*
X6500238Y-13700262D01*
X6405000Y-13719309D01*
X6671667Y-13785976D02*
X6671667Y-13585976D01*
X6671667Y-13776452D02*
X6652619Y-13785976D01*
X6614524Y-13785976D01*
X6595476Y-13776452D01*
X6585952Y-13766928D01*
X6576428Y-13747881D01*
X6576428Y-13690738D01*
X6585952Y-13671690D01*
X6595476Y-13662167D01*
X6614524Y-13652643D01*
X6652619Y-13652643D01*
X6671667Y-13662167D01*
X6747857Y-13862167D02*
X6757381Y-13852643D01*
X6776428Y-13824071D01*
X6785952Y-13805024D01*
X6795476Y-13776452D01*
X6805000Y-13728833D01*
X6805000Y-13690738D01*
X6795476Y-13643119D01*
X6785952Y-13614548D01*
X6776428Y-13595500D01*
X6757381Y-13566928D01*
X6747857Y-13557405D01*
M02*
