G04 #@! TF.GenerationSoftware,KiCad,Pcbnew,(6.0.0)*
G04 #@! TF.CreationDate,2022-08-08T23:08:48+02:00*
G04 #@! TF.ProjectId,FG-VCO-(core1),46472d56-434f-42d2-9863-6f726531292e,rev?*
G04 #@! TF.SameCoordinates,Original*
G04 #@! TF.FileFunction,Legend,Top*
G04 #@! TF.FilePolarity,Positive*
%FSLAX46Y46*%
G04 Gerber Fmt 4.6, Leading zero omitted, Abs format (unit mm)*
G04 Created by KiCad (PCBNEW (6.0.0)) date 2022-08-08 23:08:48*
%MOMM*%
%LPD*%
G01*
G04 APERTURE LIST*
%ADD10C,0.150000*%
%ADD11C,0.120000*%
%ADD12C,1.600000*%
%ADD13O,1.600000X1.600000*%
%ADD14C,1.524000*%
%ADD15C,3.200000*%
%ADD16R,1.700000X1.700000*%
%ADD17O,1.700000X1.700000*%
%ADD18R,1.600000X1.600000*%
%ADD19C,1.440000*%
G04 APERTURE END LIST*
D10*
X51252380Y-68587857D02*
X50776190Y-68921190D01*
X51252380Y-69159285D02*
X50252380Y-69159285D01*
X50252380Y-68778333D01*
X50300000Y-68683095D01*
X50347619Y-68635476D01*
X50442857Y-68587857D01*
X50585714Y-68587857D01*
X50680952Y-68635476D01*
X50728571Y-68683095D01*
X50776190Y-68778333D01*
X50776190Y-69159285D01*
X50347619Y-68206904D02*
X50300000Y-68159285D01*
X50252380Y-68064047D01*
X50252380Y-67825952D01*
X50300000Y-67730714D01*
X50347619Y-67683095D01*
X50442857Y-67635476D01*
X50538095Y-67635476D01*
X50680952Y-67683095D01*
X51252380Y-68254523D01*
X51252380Y-67635476D01*
X50252380Y-66778333D02*
X50252380Y-66968809D01*
X50300000Y-67064047D01*
X50347619Y-67111666D01*
X50490476Y-67206904D01*
X50680952Y-67254523D01*
X51061904Y-67254523D01*
X51157142Y-67206904D01*
X51204761Y-67159285D01*
X51252380Y-67064047D01*
X51252380Y-66873571D01*
X51204761Y-66778333D01*
X51157142Y-66730714D01*
X51061904Y-66683095D01*
X50823809Y-66683095D01*
X50728571Y-66730714D01*
X50680952Y-66778333D01*
X50633333Y-66873571D01*
X50633333Y-67064047D01*
X50680952Y-67159285D01*
X50728571Y-67206904D01*
X50823809Y-67254523D01*
X11938095Y-19137380D02*
X11938095Y-19946904D01*
X11985714Y-20042142D01*
X12033333Y-20089761D01*
X12128571Y-20137380D01*
X12319047Y-20137380D01*
X12414285Y-20089761D01*
X12461904Y-20042142D01*
X12509523Y-19946904D01*
X12509523Y-19137380D01*
X13461904Y-19137380D02*
X12985714Y-19137380D01*
X12938095Y-19613571D01*
X12985714Y-19565952D01*
X13080952Y-19518333D01*
X13319047Y-19518333D01*
X13414285Y-19565952D01*
X13461904Y-19613571D01*
X13509523Y-19708809D01*
X13509523Y-19946904D01*
X13461904Y-20042142D01*
X13414285Y-20089761D01*
X13319047Y-20137380D01*
X13080952Y-20137380D01*
X12985714Y-20089761D01*
X12938095Y-20042142D01*
X47442380Y-13501666D02*
X46966190Y-13835000D01*
X47442380Y-14073095D02*
X46442380Y-14073095D01*
X46442380Y-13692142D01*
X46490000Y-13596904D01*
X46537619Y-13549285D01*
X46632857Y-13501666D01*
X46775714Y-13501666D01*
X46870952Y-13549285D01*
X46918571Y-13596904D01*
X46966190Y-13692142D01*
X46966190Y-14073095D01*
X46775714Y-12644523D02*
X47442380Y-12644523D01*
X46394761Y-12882619D02*
X47109047Y-13120714D01*
X47109047Y-12501666D01*
X34107380Y-41441666D02*
X33631190Y-41775000D01*
X34107380Y-42013095D02*
X33107380Y-42013095D01*
X33107380Y-41632142D01*
X33155000Y-41536904D01*
X33202619Y-41489285D01*
X33297857Y-41441666D01*
X33440714Y-41441666D01*
X33535952Y-41489285D01*
X33583571Y-41536904D01*
X33631190Y-41632142D01*
X33631190Y-42013095D01*
X34107380Y-40965476D02*
X34107380Y-40775000D01*
X34059761Y-40679761D01*
X34012142Y-40632142D01*
X33869285Y-40536904D01*
X33678809Y-40489285D01*
X33297857Y-40489285D01*
X33202619Y-40536904D01*
X33155000Y-40584523D01*
X33107380Y-40679761D01*
X33107380Y-40870238D01*
X33155000Y-40965476D01*
X33202619Y-41013095D01*
X33297857Y-41060714D01*
X33535952Y-41060714D01*
X33631190Y-41013095D01*
X33678809Y-40965476D01*
X33726428Y-40870238D01*
X33726428Y-40679761D01*
X33678809Y-40584523D01*
X33631190Y-40536904D01*
X33535952Y-40489285D01*
X12533333Y-27027142D02*
X12485714Y-27074761D01*
X12342857Y-27122380D01*
X12247619Y-27122380D01*
X12104761Y-27074761D01*
X12009523Y-26979523D01*
X11961904Y-26884285D01*
X11914285Y-26693809D01*
X11914285Y-26550952D01*
X11961904Y-26360476D01*
X12009523Y-26265238D01*
X12104761Y-26170000D01*
X12247619Y-26122380D01*
X12342857Y-26122380D01*
X12485714Y-26170000D01*
X12533333Y-26217619D01*
X12866666Y-26122380D02*
X13533333Y-26122380D01*
X13104761Y-27122380D01*
X20137380Y-26201666D02*
X19661190Y-26535000D01*
X20137380Y-26773095D02*
X19137380Y-26773095D01*
X19137380Y-26392142D01*
X19185000Y-26296904D01*
X19232619Y-26249285D01*
X19327857Y-26201666D01*
X19470714Y-26201666D01*
X19565952Y-26249285D01*
X19613571Y-26296904D01*
X19661190Y-26392142D01*
X19661190Y-26773095D01*
X19137380Y-25868333D02*
X19137380Y-25201666D01*
X20137380Y-25630238D01*
X29837142Y-98782142D02*
X29789523Y-98829761D01*
X29646666Y-98877380D01*
X29551428Y-98877380D01*
X29408571Y-98829761D01*
X29313333Y-98734523D01*
X29265714Y-98639285D01*
X29218095Y-98448809D01*
X29218095Y-98305952D01*
X29265714Y-98115476D01*
X29313333Y-98020238D01*
X29408571Y-97925000D01*
X29551428Y-97877380D01*
X29646666Y-97877380D01*
X29789523Y-97925000D01*
X29837142Y-97972619D01*
X30789523Y-98877380D02*
X30218095Y-98877380D01*
X30503809Y-98877380D02*
X30503809Y-97877380D01*
X30408571Y-98020238D01*
X30313333Y-98115476D01*
X30218095Y-98163095D01*
X31408571Y-97877380D02*
X31503809Y-97877380D01*
X31599047Y-97925000D01*
X31646666Y-97972619D01*
X31694285Y-98067857D01*
X31741904Y-98258333D01*
X31741904Y-98496428D01*
X31694285Y-98686904D01*
X31646666Y-98782142D01*
X31599047Y-98829761D01*
X31503809Y-98877380D01*
X31408571Y-98877380D01*
X31313333Y-98829761D01*
X31265714Y-98782142D01*
X31218095Y-98686904D01*
X31170476Y-98496428D01*
X31170476Y-98258333D01*
X31218095Y-98067857D01*
X31265714Y-97972619D01*
X31313333Y-97925000D01*
X31408571Y-97877380D01*
X25908095Y-101099880D02*
X25908095Y-100099880D01*
X25908095Y-100576071D02*
X26479523Y-100576071D01*
X26479523Y-101099880D02*
X26479523Y-100099880D01*
X26860476Y-100099880D02*
X27479523Y-100099880D01*
X27146190Y-100480833D01*
X27289047Y-100480833D01*
X27384285Y-100528452D01*
X27431904Y-100576071D01*
X27479523Y-100671309D01*
X27479523Y-100909404D01*
X27431904Y-101004642D01*
X27384285Y-101052261D01*
X27289047Y-101099880D01*
X27003333Y-101099880D01*
X26908095Y-101052261D01*
X26860476Y-101004642D01*
X48077380Y-41917857D02*
X47601190Y-42251190D01*
X48077380Y-42489285D02*
X47077380Y-42489285D01*
X47077380Y-42108333D01*
X47125000Y-42013095D01*
X47172619Y-41965476D01*
X47267857Y-41917857D01*
X47410714Y-41917857D01*
X47505952Y-41965476D01*
X47553571Y-42013095D01*
X47601190Y-42108333D01*
X47601190Y-42489285D01*
X48077380Y-40965476D02*
X48077380Y-41536904D01*
X48077380Y-41251190D02*
X47077380Y-41251190D01*
X47220238Y-41346428D01*
X47315476Y-41441666D01*
X47363095Y-41536904D01*
X47077380Y-40346428D02*
X47077380Y-40251190D01*
X47125000Y-40155952D01*
X47172619Y-40108333D01*
X47267857Y-40060714D01*
X47458333Y-40013095D01*
X47696428Y-40013095D01*
X47886904Y-40060714D01*
X47982142Y-40108333D01*
X48029761Y-40155952D01*
X48077380Y-40251190D01*
X48077380Y-40346428D01*
X48029761Y-40441666D01*
X47982142Y-40489285D01*
X47886904Y-40536904D01*
X47696428Y-40584523D01*
X47458333Y-40584523D01*
X47267857Y-40536904D01*
X47172619Y-40489285D01*
X47125000Y-40441666D01*
X47077380Y-40346428D01*
X48768095Y-2039880D02*
X48768095Y-1039880D01*
X48768095Y-1516071D02*
X49339523Y-1516071D01*
X49339523Y-2039880D02*
X49339523Y-1039880D01*
X49768095Y-1135119D02*
X49815714Y-1087500D01*
X49910952Y-1039880D01*
X50149047Y-1039880D01*
X50244285Y-1087500D01*
X50291904Y-1135119D01*
X50339523Y-1230357D01*
X50339523Y-1325595D01*
X50291904Y-1468452D01*
X49720476Y-2039880D01*
X50339523Y-2039880D01*
X34107380Y-68587857D02*
X33631190Y-68921190D01*
X34107380Y-69159285D02*
X33107380Y-69159285D01*
X33107380Y-68778333D01*
X33155000Y-68683095D01*
X33202619Y-68635476D01*
X33297857Y-68587857D01*
X33440714Y-68587857D01*
X33535952Y-68635476D01*
X33583571Y-68683095D01*
X33631190Y-68778333D01*
X33631190Y-69159285D01*
X33202619Y-68206904D02*
X33155000Y-68159285D01*
X33107380Y-68064047D01*
X33107380Y-67825952D01*
X33155000Y-67730714D01*
X33202619Y-67683095D01*
X33297857Y-67635476D01*
X33393095Y-67635476D01*
X33535952Y-67683095D01*
X34107380Y-68254523D01*
X34107380Y-67635476D01*
X34107380Y-66683095D02*
X34107380Y-67254523D01*
X34107380Y-66968809D02*
X33107380Y-66968809D01*
X33250238Y-67064047D01*
X33345476Y-67159285D01*
X33393095Y-67254523D01*
X48077380Y-68587857D02*
X47601190Y-68921190D01*
X48077380Y-69159285D02*
X47077380Y-69159285D01*
X47077380Y-68778333D01*
X47125000Y-68683095D01*
X47172619Y-68635476D01*
X47267857Y-68587857D01*
X47410714Y-68587857D01*
X47505952Y-68635476D01*
X47553571Y-68683095D01*
X47601190Y-68778333D01*
X47601190Y-69159285D01*
X47172619Y-68206904D02*
X47125000Y-68159285D01*
X47077380Y-68064047D01*
X47077380Y-67825952D01*
X47125000Y-67730714D01*
X47172619Y-67683095D01*
X47267857Y-67635476D01*
X47363095Y-67635476D01*
X47505952Y-67683095D01*
X48077380Y-68254523D01*
X48077380Y-67635476D01*
X47077380Y-67016428D02*
X47077380Y-66921190D01*
X47125000Y-66825952D01*
X47172619Y-66778333D01*
X47267857Y-66730714D01*
X47458333Y-66683095D01*
X47696428Y-66683095D01*
X47886904Y-66730714D01*
X47982142Y-66778333D01*
X48029761Y-66825952D01*
X48077380Y-66921190D01*
X48077380Y-67016428D01*
X48029761Y-67111666D01*
X47982142Y-67159285D01*
X47886904Y-67206904D01*
X47696428Y-67254523D01*
X47458333Y-67254523D01*
X47267857Y-67206904D01*
X47172619Y-67159285D01*
X47125000Y-67111666D01*
X47077380Y-67016428D01*
X47442380Y-26201666D02*
X46966190Y-26535000D01*
X47442380Y-26773095D02*
X46442380Y-26773095D01*
X46442380Y-26392142D01*
X46490000Y-26296904D01*
X46537619Y-26249285D01*
X46632857Y-26201666D01*
X46775714Y-26201666D01*
X46870952Y-26249285D01*
X46918571Y-26296904D01*
X46966190Y-26392142D01*
X46966190Y-26773095D01*
X46442380Y-25868333D02*
X46442380Y-25249285D01*
X46823333Y-25582619D01*
X46823333Y-25439761D01*
X46870952Y-25344523D01*
X46918571Y-25296904D01*
X47013809Y-25249285D01*
X47251904Y-25249285D01*
X47347142Y-25296904D01*
X47394761Y-25344523D01*
X47442380Y-25439761D01*
X47442380Y-25725476D01*
X47394761Y-25820714D01*
X47347142Y-25868333D01*
X6167380Y-81287857D02*
X5691190Y-81621190D01*
X6167380Y-81859285D02*
X5167380Y-81859285D01*
X5167380Y-81478333D01*
X5215000Y-81383095D01*
X5262619Y-81335476D01*
X5357857Y-81287857D01*
X5500714Y-81287857D01*
X5595952Y-81335476D01*
X5643571Y-81383095D01*
X5691190Y-81478333D01*
X5691190Y-81859285D01*
X6167380Y-80335476D02*
X6167380Y-80906904D01*
X6167380Y-80621190D02*
X5167380Y-80621190D01*
X5310238Y-80716428D01*
X5405476Y-80811666D01*
X5453095Y-80906904D01*
X5595952Y-79764047D02*
X5548333Y-79859285D01*
X5500714Y-79906904D01*
X5405476Y-79954523D01*
X5357857Y-79954523D01*
X5262619Y-79906904D01*
X5215000Y-79859285D01*
X5167380Y-79764047D01*
X5167380Y-79573571D01*
X5215000Y-79478333D01*
X5262619Y-79430714D01*
X5357857Y-79383095D01*
X5405476Y-79383095D01*
X5500714Y-79430714D01*
X5548333Y-79478333D01*
X5595952Y-79573571D01*
X5595952Y-79764047D01*
X5643571Y-79859285D01*
X5691190Y-79906904D01*
X5786428Y-79954523D01*
X5976904Y-79954523D01*
X6072142Y-79906904D01*
X6119761Y-79859285D01*
X6167380Y-79764047D01*
X6167380Y-79573571D01*
X6119761Y-79478333D01*
X6072142Y-79430714D01*
X5976904Y-79383095D01*
X5786428Y-79383095D01*
X5691190Y-79430714D01*
X5643571Y-79478333D01*
X5595952Y-79573571D01*
X9517142Y-61317142D02*
X9469523Y-61364761D01*
X9326666Y-61412380D01*
X9231428Y-61412380D01*
X9088571Y-61364761D01*
X8993333Y-61269523D01*
X8945714Y-61174285D01*
X8898095Y-60983809D01*
X8898095Y-60840952D01*
X8945714Y-60650476D01*
X8993333Y-60555238D01*
X9088571Y-60460000D01*
X9231428Y-60412380D01*
X9326666Y-60412380D01*
X9469523Y-60460000D01*
X9517142Y-60507619D01*
X10469523Y-61412380D02*
X9898095Y-61412380D01*
X10183809Y-61412380D02*
X10183809Y-60412380D01*
X10088571Y-60555238D01*
X9993333Y-60650476D01*
X9898095Y-60698095D01*
X11421904Y-61412380D02*
X10850476Y-61412380D01*
X11136190Y-61412380D02*
X11136190Y-60412380D01*
X11040952Y-60555238D01*
X10945714Y-60650476D01*
X10850476Y-60698095D01*
X12057142Y-67667142D02*
X12009523Y-67714761D01*
X11866666Y-67762380D01*
X11771428Y-67762380D01*
X11628571Y-67714761D01*
X11533333Y-67619523D01*
X11485714Y-67524285D01*
X11438095Y-67333809D01*
X11438095Y-67190952D01*
X11485714Y-67000476D01*
X11533333Y-66905238D01*
X11628571Y-66810000D01*
X11771428Y-66762380D01*
X11866666Y-66762380D01*
X12009523Y-66810000D01*
X12057142Y-66857619D01*
X13009523Y-67762380D02*
X12438095Y-67762380D01*
X12723809Y-67762380D02*
X12723809Y-66762380D01*
X12628571Y-66905238D01*
X12533333Y-67000476D01*
X12438095Y-67048095D01*
X13342857Y-66762380D02*
X14009523Y-66762380D01*
X13580952Y-67762380D01*
X26503333Y-13057142D02*
X26455714Y-13104761D01*
X26312857Y-13152380D01*
X26217619Y-13152380D01*
X26074761Y-13104761D01*
X25979523Y-13009523D01*
X25931904Y-12914285D01*
X25884285Y-12723809D01*
X25884285Y-12580952D01*
X25931904Y-12390476D01*
X25979523Y-12295238D01*
X26074761Y-12200000D01*
X26217619Y-12152380D01*
X26312857Y-12152380D01*
X26455714Y-12200000D01*
X26503333Y-12247619D01*
X26836666Y-12152380D02*
X27455714Y-12152380D01*
X27122380Y-12533333D01*
X27265238Y-12533333D01*
X27360476Y-12580952D01*
X27408095Y-12628571D01*
X27455714Y-12723809D01*
X27455714Y-12961904D01*
X27408095Y-13057142D01*
X27360476Y-13104761D01*
X27265238Y-13152380D01*
X26979523Y-13152380D01*
X26884285Y-13104761D01*
X26836666Y-13057142D01*
X25860476Y-37127380D02*
X25860476Y-37841666D01*
X25812857Y-37984523D01*
X25717619Y-38079761D01*
X25574761Y-38127380D01*
X25479523Y-38127380D01*
X26860476Y-38127380D02*
X26289047Y-38127380D01*
X26574761Y-38127380D02*
X26574761Y-37127380D01*
X26479523Y-37270238D01*
X26384285Y-37365476D01*
X26289047Y-37413095D01*
X27765238Y-37127380D02*
X27289047Y-37127380D01*
X27241428Y-37603571D01*
X27289047Y-37555952D01*
X27384285Y-37508333D01*
X27622380Y-37508333D01*
X27717619Y-37555952D01*
X27765238Y-37603571D01*
X27812857Y-37698809D01*
X27812857Y-37936904D01*
X27765238Y-38032142D01*
X27717619Y-38079761D01*
X27622380Y-38127380D01*
X27384285Y-38127380D01*
X27289047Y-38079761D01*
X27241428Y-38032142D01*
X42537142Y-88304642D02*
X42489523Y-88352261D01*
X42346666Y-88399880D01*
X42251428Y-88399880D01*
X42108571Y-88352261D01*
X42013333Y-88257023D01*
X41965714Y-88161785D01*
X41918095Y-87971309D01*
X41918095Y-87828452D01*
X41965714Y-87637976D01*
X42013333Y-87542738D01*
X42108571Y-87447500D01*
X42251428Y-87399880D01*
X42346666Y-87399880D01*
X42489523Y-87447500D01*
X42537142Y-87495119D01*
X43489523Y-88399880D02*
X42918095Y-88399880D01*
X43203809Y-88399880D02*
X43203809Y-87399880D01*
X43108571Y-87542738D01*
X43013333Y-87637976D01*
X42918095Y-87685595D01*
X44346666Y-87733214D02*
X44346666Y-88399880D01*
X44108571Y-87352261D02*
X43870476Y-88066547D01*
X44489523Y-88066547D01*
X39878095Y-39457380D02*
X39878095Y-40266904D01*
X39925714Y-40362142D01*
X39973333Y-40409761D01*
X40068571Y-40457380D01*
X40259047Y-40457380D01*
X40354285Y-40409761D01*
X40401904Y-40362142D01*
X40449523Y-40266904D01*
X40449523Y-39457380D01*
X41354285Y-39790714D02*
X41354285Y-40457380D01*
X41116190Y-39409761D02*
X40878095Y-40124047D01*
X41497142Y-40124047D01*
X19976666Y-3287380D02*
X19976666Y-4001666D01*
X19929047Y-4144523D01*
X19833809Y-4239761D01*
X19690952Y-4287380D01*
X19595714Y-4287380D01*
X20881428Y-3620714D02*
X20881428Y-4287380D01*
X20643333Y-3239761D02*
X20405238Y-3954047D01*
X21024285Y-3954047D01*
X23312380Y-81287857D02*
X22836190Y-81621190D01*
X23312380Y-81859285D02*
X22312380Y-81859285D01*
X22312380Y-81478333D01*
X22360000Y-81383095D01*
X22407619Y-81335476D01*
X22502857Y-81287857D01*
X22645714Y-81287857D01*
X22740952Y-81335476D01*
X22788571Y-81383095D01*
X22836190Y-81478333D01*
X22836190Y-81859285D01*
X23312380Y-80335476D02*
X23312380Y-80906904D01*
X23312380Y-80621190D02*
X22312380Y-80621190D01*
X22455238Y-80716428D01*
X22550476Y-80811666D01*
X22598095Y-80906904D01*
X22312380Y-80002142D02*
X22312380Y-79383095D01*
X22693333Y-79716428D01*
X22693333Y-79573571D01*
X22740952Y-79478333D01*
X22788571Y-79430714D01*
X22883809Y-79383095D01*
X23121904Y-79383095D01*
X23217142Y-79430714D01*
X23264761Y-79478333D01*
X23312380Y-79573571D01*
X23312380Y-79859285D01*
X23264761Y-79954523D01*
X23217142Y-80002142D01*
X51252380Y-53347857D02*
X50776190Y-53681190D01*
X51252380Y-53919285D02*
X50252380Y-53919285D01*
X50252380Y-53538333D01*
X50300000Y-53443095D01*
X50347619Y-53395476D01*
X50442857Y-53347857D01*
X50585714Y-53347857D01*
X50680952Y-53395476D01*
X50728571Y-53443095D01*
X50776190Y-53538333D01*
X50776190Y-53919285D01*
X51252380Y-52395476D02*
X51252380Y-52966904D01*
X51252380Y-52681190D02*
X50252380Y-52681190D01*
X50395238Y-52776428D01*
X50490476Y-52871666D01*
X50538095Y-52966904D01*
X51252380Y-51443095D02*
X51252380Y-52014523D01*
X51252380Y-51728809D02*
X50252380Y-51728809D01*
X50395238Y-51824047D01*
X50490476Y-51919285D01*
X50538095Y-52014523D01*
X6167380Y-68587857D02*
X5691190Y-68921190D01*
X6167380Y-69159285D02*
X5167380Y-69159285D01*
X5167380Y-68778333D01*
X5215000Y-68683095D01*
X5262619Y-68635476D01*
X5357857Y-68587857D01*
X5500714Y-68587857D01*
X5595952Y-68635476D01*
X5643571Y-68683095D01*
X5691190Y-68778333D01*
X5691190Y-69159285D01*
X6167380Y-67635476D02*
X6167380Y-68206904D01*
X6167380Y-67921190D02*
X5167380Y-67921190D01*
X5310238Y-68016428D01*
X5405476Y-68111666D01*
X5453095Y-68206904D01*
X5167380Y-67302142D02*
X5167380Y-66635476D01*
X6167380Y-67064047D01*
X40473333Y-54967142D02*
X40425714Y-55014761D01*
X40282857Y-55062380D01*
X40187619Y-55062380D01*
X40044761Y-55014761D01*
X39949523Y-54919523D01*
X39901904Y-54824285D01*
X39854285Y-54633809D01*
X39854285Y-54490952D01*
X39901904Y-54300476D01*
X39949523Y-54205238D01*
X40044761Y-54110000D01*
X40187619Y-54062380D01*
X40282857Y-54062380D01*
X40425714Y-54110000D01*
X40473333Y-54157619D01*
X41378095Y-54062380D02*
X40901904Y-54062380D01*
X40854285Y-54538571D01*
X40901904Y-54490952D01*
X40997142Y-54443333D01*
X41235238Y-54443333D01*
X41330476Y-54490952D01*
X41378095Y-54538571D01*
X41425714Y-54633809D01*
X41425714Y-54871904D01*
X41378095Y-54967142D01*
X41330476Y-55014761D01*
X41235238Y-55062380D01*
X40997142Y-55062380D01*
X40901904Y-55014761D01*
X40854285Y-54967142D01*
X2992380Y-68587857D02*
X2516190Y-68921190D01*
X2992380Y-69159285D02*
X1992380Y-69159285D01*
X1992380Y-68778333D01*
X2040000Y-68683095D01*
X2087619Y-68635476D01*
X2182857Y-68587857D01*
X2325714Y-68587857D01*
X2420952Y-68635476D01*
X2468571Y-68683095D01*
X2516190Y-68778333D01*
X2516190Y-69159285D01*
X2992380Y-67635476D02*
X2992380Y-68206904D01*
X2992380Y-67921190D02*
X1992380Y-67921190D01*
X2135238Y-68016428D01*
X2230476Y-68111666D01*
X2278095Y-68206904D01*
X2325714Y-66778333D02*
X2992380Y-66778333D01*
X1944761Y-67016428D02*
X2659047Y-67254523D01*
X2659047Y-66635476D01*
X48077380Y-53125595D02*
X47077380Y-53125595D01*
X47077380Y-52887500D01*
X47125000Y-52744642D01*
X47220238Y-52649404D01*
X47315476Y-52601785D01*
X47505952Y-52554166D01*
X47648809Y-52554166D01*
X47839285Y-52601785D01*
X47934523Y-52649404D01*
X48029761Y-52744642D01*
X48077380Y-52887500D01*
X48077380Y-53125595D01*
X47077380Y-52220833D02*
X47077380Y-51601785D01*
X47458333Y-51935119D01*
X47458333Y-51792261D01*
X47505952Y-51697023D01*
X47553571Y-51649404D01*
X47648809Y-51601785D01*
X47886904Y-51601785D01*
X47982142Y-51649404D01*
X48029761Y-51697023D01*
X48077380Y-51792261D01*
X48077380Y-52077976D01*
X48029761Y-52173214D01*
X47982142Y-52220833D01*
X49585595Y-56967380D02*
X49585595Y-55967380D01*
X50157023Y-56967380D02*
X49728452Y-56395952D01*
X50157023Y-55967380D02*
X49585595Y-56538809D01*
X34782380Y-62563333D02*
X35496666Y-62563333D01*
X35639523Y-62610952D01*
X35734761Y-62706190D01*
X35782380Y-62849047D01*
X35782380Y-62944285D01*
X34782380Y-61610952D02*
X34782380Y-62087142D01*
X35258571Y-62134761D01*
X35210952Y-62087142D01*
X35163333Y-61991904D01*
X35163333Y-61753809D01*
X35210952Y-61658571D01*
X35258571Y-61610952D01*
X35353809Y-61563333D01*
X35591904Y-61563333D01*
X35687142Y-61610952D01*
X35734761Y-61658571D01*
X35782380Y-61753809D01*
X35782380Y-61991904D01*
X35734761Y-62087142D01*
X35687142Y-62134761D01*
X34107380Y-26201666D02*
X33631190Y-26535000D01*
X34107380Y-26773095D02*
X33107380Y-26773095D01*
X33107380Y-26392142D01*
X33155000Y-26296904D01*
X33202619Y-26249285D01*
X33297857Y-26201666D01*
X33440714Y-26201666D01*
X33535952Y-26249285D01*
X33583571Y-26296904D01*
X33631190Y-26392142D01*
X33631190Y-26773095D01*
X33535952Y-25630238D02*
X33488333Y-25725476D01*
X33440714Y-25773095D01*
X33345476Y-25820714D01*
X33297857Y-25820714D01*
X33202619Y-25773095D01*
X33155000Y-25725476D01*
X33107380Y-25630238D01*
X33107380Y-25439761D01*
X33155000Y-25344523D01*
X33202619Y-25296904D01*
X33297857Y-25249285D01*
X33345476Y-25249285D01*
X33440714Y-25296904D01*
X33488333Y-25344523D01*
X33535952Y-25439761D01*
X33535952Y-25630238D01*
X33583571Y-25725476D01*
X33631190Y-25773095D01*
X33726428Y-25820714D01*
X33916904Y-25820714D01*
X34012142Y-25773095D01*
X34059761Y-25725476D01*
X34107380Y-25630238D01*
X34107380Y-25439761D01*
X34059761Y-25344523D01*
X34012142Y-25296904D01*
X33916904Y-25249285D01*
X33726428Y-25249285D01*
X33631190Y-25296904D01*
X33583571Y-25344523D01*
X33535952Y-25439761D01*
X12057142Y-81637142D02*
X12009523Y-81684761D01*
X11866666Y-81732380D01*
X11771428Y-81732380D01*
X11628571Y-81684761D01*
X11533333Y-81589523D01*
X11485714Y-81494285D01*
X11438095Y-81303809D01*
X11438095Y-81160952D01*
X11485714Y-80970476D01*
X11533333Y-80875238D01*
X11628571Y-80780000D01*
X11771428Y-80732380D01*
X11866666Y-80732380D01*
X12009523Y-80780000D01*
X12057142Y-80827619D01*
X13009523Y-81732380D02*
X12438095Y-81732380D01*
X12723809Y-81732380D02*
X12723809Y-80732380D01*
X12628571Y-80875238D01*
X12533333Y-80970476D01*
X12438095Y-81018095D01*
X13866666Y-80732380D02*
X13676190Y-80732380D01*
X13580952Y-80780000D01*
X13533333Y-80827619D01*
X13438095Y-80970476D01*
X13390476Y-81160952D01*
X13390476Y-81541904D01*
X13438095Y-81637142D01*
X13485714Y-81684761D01*
X13580952Y-81732380D01*
X13771428Y-81732380D01*
X13866666Y-81684761D01*
X13914285Y-81637142D01*
X13961904Y-81541904D01*
X13961904Y-81303809D01*
X13914285Y-81208571D01*
X13866666Y-81160952D01*
X13771428Y-81113333D01*
X13580952Y-81113333D01*
X13485714Y-81160952D01*
X13438095Y-81208571D01*
X13390476Y-81303809D01*
X29995833Y-92432142D02*
X29948214Y-92479761D01*
X29805357Y-92527380D01*
X29710119Y-92527380D01*
X29567261Y-92479761D01*
X29472023Y-92384523D01*
X29424404Y-92289285D01*
X29376785Y-92098809D01*
X29376785Y-91955952D01*
X29424404Y-91765476D01*
X29472023Y-91670238D01*
X29567261Y-91575000D01*
X29710119Y-91527380D01*
X29805357Y-91527380D01*
X29948214Y-91575000D01*
X29995833Y-91622619D01*
X30472023Y-92527380D02*
X30662500Y-92527380D01*
X30757738Y-92479761D01*
X30805357Y-92432142D01*
X30900595Y-92289285D01*
X30948214Y-92098809D01*
X30948214Y-91717857D01*
X30900595Y-91622619D01*
X30852976Y-91575000D01*
X30757738Y-91527380D01*
X30567261Y-91527380D01*
X30472023Y-91575000D01*
X30424404Y-91622619D01*
X30376785Y-91717857D01*
X30376785Y-91955952D01*
X30424404Y-92051190D01*
X30472023Y-92098809D01*
X30567261Y-92146428D01*
X30757738Y-92146428D01*
X30852976Y-92098809D01*
X30900595Y-92051190D01*
X30948214Y-91955952D01*
X7056666Y-97877380D02*
X7056666Y-98591666D01*
X7009047Y-98734523D01*
X6913809Y-98829761D01*
X6770952Y-98877380D01*
X6675714Y-98877380D01*
X7580476Y-98877380D02*
X7770952Y-98877380D01*
X7866190Y-98829761D01*
X7913809Y-98782142D01*
X8009047Y-98639285D01*
X8056666Y-98448809D01*
X8056666Y-98067857D01*
X8009047Y-97972619D01*
X7961428Y-97925000D01*
X7866190Y-97877380D01*
X7675714Y-97877380D01*
X7580476Y-97925000D01*
X7532857Y-97972619D01*
X7485238Y-98067857D01*
X7485238Y-98305952D01*
X7532857Y-98401190D01*
X7580476Y-98448809D01*
X7675714Y-98496428D01*
X7866190Y-98496428D01*
X7961428Y-98448809D01*
X8009047Y-98401190D01*
X8056666Y-98305952D01*
X34107380Y-53443095D02*
X33107380Y-53443095D01*
X33107380Y-53205000D01*
X33155000Y-53062142D01*
X33250238Y-52966904D01*
X33345476Y-52919285D01*
X33535952Y-52871666D01*
X33678809Y-52871666D01*
X33869285Y-52919285D01*
X33964523Y-52966904D01*
X34059761Y-53062142D01*
X34107380Y-53205000D01*
X34107380Y-53443095D01*
X33202619Y-52490714D02*
X33155000Y-52443095D01*
X33107380Y-52347857D01*
X33107380Y-52109761D01*
X33155000Y-52014523D01*
X33202619Y-51966904D01*
X33297857Y-51919285D01*
X33393095Y-51919285D01*
X33535952Y-51966904D01*
X34107380Y-52538333D01*
X34107380Y-51919285D01*
X31593095Y-56967380D02*
X31593095Y-55967380D01*
X32164523Y-56967380D02*
X31735952Y-56395952D01*
X32164523Y-55967380D02*
X31593095Y-56538809D01*
X30932380Y-68587857D02*
X30456190Y-68921190D01*
X30932380Y-69159285D02*
X29932380Y-69159285D01*
X29932380Y-68778333D01*
X29980000Y-68683095D01*
X30027619Y-68635476D01*
X30122857Y-68587857D01*
X30265714Y-68587857D01*
X30360952Y-68635476D01*
X30408571Y-68683095D01*
X30456190Y-68778333D01*
X30456190Y-69159285D01*
X30027619Y-68206904D02*
X29980000Y-68159285D01*
X29932380Y-68064047D01*
X29932380Y-67825952D01*
X29980000Y-67730714D01*
X30027619Y-67683095D01*
X30122857Y-67635476D01*
X30218095Y-67635476D01*
X30360952Y-67683095D01*
X30932380Y-68254523D01*
X30932380Y-67635476D01*
X29932380Y-67302142D02*
X29932380Y-66635476D01*
X30932380Y-67064047D01*
X48077380Y-81287857D02*
X47601190Y-81621190D01*
X48077380Y-81859285D02*
X47077380Y-81859285D01*
X47077380Y-81478333D01*
X47125000Y-81383095D01*
X47172619Y-81335476D01*
X47267857Y-81287857D01*
X47410714Y-81287857D01*
X47505952Y-81335476D01*
X47553571Y-81383095D01*
X47601190Y-81478333D01*
X47601190Y-81859285D01*
X47172619Y-80906904D02*
X47125000Y-80859285D01*
X47077380Y-80764047D01*
X47077380Y-80525952D01*
X47125000Y-80430714D01*
X47172619Y-80383095D01*
X47267857Y-80335476D01*
X47363095Y-80335476D01*
X47505952Y-80383095D01*
X48077380Y-80954523D01*
X48077380Y-80335476D01*
X47172619Y-79954523D02*
X47125000Y-79906904D01*
X47077380Y-79811666D01*
X47077380Y-79573571D01*
X47125000Y-79478333D01*
X47172619Y-79430714D01*
X47267857Y-79383095D01*
X47363095Y-79383095D01*
X47505952Y-79430714D01*
X48077380Y-80002142D01*
X48077380Y-79383095D01*
X39997142Y-81637142D02*
X39949523Y-81684761D01*
X39806666Y-81732380D01*
X39711428Y-81732380D01*
X39568571Y-81684761D01*
X39473333Y-81589523D01*
X39425714Y-81494285D01*
X39378095Y-81303809D01*
X39378095Y-81160952D01*
X39425714Y-80970476D01*
X39473333Y-80875238D01*
X39568571Y-80780000D01*
X39711428Y-80732380D01*
X39806666Y-80732380D01*
X39949523Y-80780000D01*
X39997142Y-80827619D01*
X40949523Y-81732380D02*
X40378095Y-81732380D01*
X40663809Y-81732380D02*
X40663809Y-80732380D01*
X40568571Y-80875238D01*
X40473333Y-80970476D01*
X40378095Y-81018095D01*
X41425714Y-81732380D02*
X41616190Y-81732380D01*
X41711428Y-81684761D01*
X41759047Y-81637142D01*
X41854285Y-81494285D01*
X41901904Y-81303809D01*
X41901904Y-80922857D01*
X41854285Y-80827619D01*
X41806666Y-80780000D01*
X41711428Y-80732380D01*
X41520952Y-80732380D01*
X41425714Y-80780000D01*
X41378095Y-80827619D01*
X41330476Y-80922857D01*
X41330476Y-81160952D01*
X41378095Y-81256190D01*
X41425714Y-81303809D01*
X41520952Y-81351428D01*
X41711428Y-81351428D01*
X41806666Y-81303809D01*
X41854285Y-81256190D01*
X41901904Y-81160952D01*
X33377261Y-3627380D02*
X33043928Y-3151190D01*
X32805833Y-3627380D02*
X32805833Y-2627380D01*
X33186785Y-2627380D01*
X33282023Y-2675000D01*
X33329642Y-2722619D01*
X33377261Y-2817857D01*
X33377261Y-2960714D01*
X33329642Y-3055952D01*
X33282023Y-3103571D01*
X33186785Y-3151190D01*
X32805833Y-3151190D01*
X33662976Y-2627380D02*
X33996309Y-3627380D01*
X34329642Y-2627380D01*
X34615357Y-2722619D02*
X34662976Y-2675000D01*
X34758214Y-2627380D01*
X34996309Y-2627380D01*
X35091547Y-2675000D01*
X35139166Y-2722619D01*
X35186785Y-2817857D01*
X35186785Y-2913095D01*
X35139166Y-3055952D01*
X34567738Y-3627380D01*
X35186785Y-3627380D01*
X6167380Y-20327857D02*
X5691190Y-20661190D01*
X6167380Y-20899285D02*
X5167380Y-20899285D01*
X5167380Y-20518333D01*
X5215000Y-20423095D01*
X5262619Y-20375476D01*
X5357857Y-20327857D01*
X5500714Y-20327857D01*
X5595952Y-20375476D01*
X5643571Y-20423095D01*
X5691190Y-20518333D01*
X5691190Y-20899285D01*
X6167380Y-19375476D02*
X6167380Y-19946904D01*
X6167380Y-19661190D02*
X5167380Y-19661190D01*
X5310238Y-19756428D01*
X5405476Y-19851666D01*
X5453095Y-19946904D01*
X5262619Y-18994523D02*
X5215000Y-18946904D01*
X5167380Y-18851666D01*
X5167380Y-18613571D01*
X5215000Y-18518333D01*
X5262619Y-18470714D01*
X5357857Y-18423095D01*
X5453095Y-18423095D01*
X5595952Y-18470714D01*
X6167380Y-19042142D01*
X6167380Y-18423095D01*
X37766666Y-59142380D02*
X37766666Y-59856666D01*
X37719047Y-59999523D01*
X37623809Y-60094761D01*
X37480952Y-60142380D01*
X37385714Y-60142380D01*
X38147619Y-59142380D02*
X38814285Y-59142380D01*
X38385714Y-60142380D01*
X20137380Y-81287857D02*
X19661190Y-81621190D01*
X20137380Y-81859285D02*
X19137380Y-81859285D01*
X19137380Y-81478333D01*
X19185000Y-81383095D01*
X19232619Y-81335476D01*
X19327857Y-81287857D01*
X19470714Y-81287857D01*
X19565952Y-81335476D01*
X19613571Y-81383095D01*
X19661190Y-81478333D01*
X19661190Y-81859285D01*
X20137380Y-80335476D02*
X20137380Y-80906904D01*
X20137380Y-80621190D02*
X19137380Y-80621190D01*
X19280238Y-80716428D01*
X19375476Y-80811666D01*
X19423095Y-80906904D01*
X19137380Y-79478333D02*
X19137380Y-79668809D01*
X19185000Y-79764047D01*
X19232619Y-79811666D01*
X19375476Y-79906904D01*
X19565952Y-79954523D01*
X19946904Y-79954523D01*
X20042142Y-79906904D01*
X20089761Y-79859285D01*
X20137380Y-79764047D01*
X20137380Y-79573571D01*
X20089761Y-79478333D01*
X20042142Y-79430714D01*
X19946904Y-79383095D01*
X19708809Y-79383095D01*
X19613571Y-79430714D01*
X19565952Y-79478333D01*
X19518333Y-79573571D01*
X19518333Y-79764047D01*
X19565952Y-79859285D01*
X19613571Y-79906904D01*
X19708809Y-79954523D01*
X14597142Y-61317142D02*
X14549523Y-61364761D01*
X14406666Y-61412380D01*
X14311428Y-61412380D01*
X14168571Y-61364761D01*
X14073333Y-61269523D01*
X14025714Y-61174285D01*
X13978095Y-60983809D01*
X13978095Y-60840952D01*
X14025714Y-60650476D01*
X14073333Y-60555238D01*
X14168571Y-60460000D01*
X14311428Y-60412380D01*
X14406666Y-60412380D01*
X14549523Y-60460000D01*
X14597142Y-60507619D01*
X15549523Y-61412380D02*
X14978095Y-61412380D01*
X15263809Y-61412380D02*
X15263809Y-60412380D01*
X15168571Y-60555238D01*
X15073333Y-60650476D01*
X14978095Y-60698095D01*
X15882857Y-60412380D02*
X16501904Y-60412380D01*
X16168571Y-60793333D01*
X16311428Y-60793333D01*
X16406666Y-60840952D01*
X16454285Y-60888571D01*
X16501904Y-60983809D01*
X16501904Y-61221904D01*
X16454285Y-61317142D01*
X16406666Y-61364761D01*
X16311428Y-61412380D01*
X16025714Y-61412380D01*
X15930476Y-61364761D01*
X15882857Y-61317142D01*
X25860476Y-76057380D02*
X25860476Y-76771666D01*
X25812857Y-76914523D01*
X25717619Y-77009761D01*
X25574761Y-77057380D01*
X25479523Y-77057380D01*
X26860476Y-77057380D02*
X26289047Y-77057380D01*
X26574761Y-77057380D02*
X26574761Y-76057380D01*
X26479523Y-76200238D01*
X26384285Y-76295476D01*
X26289047Y-76343095D01*
X27479523Y-76057380D02*
X27574761Y-76057380D01*
X27670000Y-76105000D01*
X27717619Y-76152619D01*
X27765238Y-76247857D01*
X27812857Y-76438333D01*
X27812857Y-76676428D01*
X27765238Y-76866904D01*
X27717619Y-76962142D01*
X27670000Y-77009761D01*
X27574761Y-77057380D01*
X27479523Y-77057380D01*
X27384285Y-77009761D01*
X27336666Y-76962142D01*
X27289047Y-76866904D01*
X27241428Y-76676428D01*
X27241428Y-76438333D01*
X27289047Y-76247857D01*
X27336666Y-76152619D01*
X27384285Y-76105000D01*
X27479523Y-76057380D01*
X12533333Y-13057142D02*
X12485714Y-13104761D01*
X12342857Y-13152380D01*
X12247619Y-13152380D01*
X12104761Y-13104761D01*
X12009523Y-13009523D01*
X11961904Y-12914285D01*
X11914285Y-12723809D01*
X11914285Y-12580952D01*
X11961904Y-12390476D01*
X12009523Y-12295238D01*
X12104761Y-12200000D01*
X12247619Y-12152380D01*
X12342857Y-12152380D01*
X12485714Y-12200000D01*
X12533333Y-12247619D01*
X13390476Y-12152380D02*
X13200000Y-12152380D01*
X13104761Y-12200000D01*
X13057142Y-12247619D01*
X12961904Y-12390476D01*
X12914285Y-12580952D01*
X12914285Y-12961904D01*
X12961904Y-13057142D01*
X13009523Y-13104761D01*
X13104761Y-13152380D01*
X13295238Y-13152380D01*
X13390476Y-13104761D01*
X13438095Y-13057142D01*
X13485714Y-12961904D01*
X13485714Y-12723809D01*
X13438095Y-12628571D01*
X13390476Y-12580952D01*
X13295238Y-12533333D01*
X13104761Y-12533333D01*
X13009523Y-12580952D01*
X12961904Y-12628571D01*
X12914285Y-12723809D01*
X39878095Y-73747380D02*
X39878095Y-74556904D01*
X39925714Y-74652142D01*
X39973333Y-74699761D01*
X40068571Y-74747380D01*
X40259047Y-74747380D01*
X40354285Y-74699761D01*
X40401904Y-74652142D01*
X40449523Y-74556904D01*
X40449523Y-73747380D01*
X41068571Y-74175952D02*
X40973333Y-74128333D01*
X40925714Y-74080714D01*
X40878095Y-73985476D01*
X40878095Y-73937857D01*
X40925714Y-73842619D01*
X40973333Y-73795000D01*
X41068571Y-73747380D01*
X41259047Y-73747380D01*
X41354285Y-73795000D01*
X41401904Y-73842619D01*
X41449523Y-73937857D01*
X41449523Y-73985476D01*
X41401904Y-74080714D01*
X41354285Y-74128333D01*
X41259047Y-74175952D01*
X41068571Y-74175952D01*
X40973333Y-74223571D01*
X40925714Y-74271190D01*
X40878095Y-74366428D01*
X40878095Y-74556904D01*
X40925714Y-74652142D01*
X40973333Y-74699761D01*
X41068571Y-74747380D01*
X41259047Y-74747380D01*
X41354285Y-74699761D01*
X41401904Y-74652142D01*
X41449523Y-74556904D01*
X41449523Y-74366428D01*
X41401904Y-74271190D01*
X41354285Y-74223571D01*
X41259047Y-74175952D01*
X40044761Y-36647380D02*
X39711428Y-36171190D01*
X39473333Y-36647380D02*
X39473333Y-35647380D01*
X39854285Y-35647380D01*
X39949523Y-35695000D01*
X39997142Y-35742619D01*
X40044761Y-35837857D01*
X40044761Y-35980714D01*
X39997142Y-36075952D01*
X39949523Y-36123571D01*
X39854285Y-36171190D01*
X39473333Y-36171190D01*
X40330476Y-35647380D02*
X40663809Y-36647380D01*
X40997142Y-35647380D01*
X41854285Y-36647380D02*
X41282857Y-36647380D01*
X41568571Y-36647380D02*
X41568571Y-35647380D01*
X41473333Y-35790238D01*
X41378095Y-35885476D01*
X41282857Y-35933095D01*
X40473333Y-13057142D02*
X40425714Y-13104761D01*
X40282857Y-13152380D01*
X40187619Y-13152380D01*
X40044761Y-13104761D01*
X39949523Y-13009523D01*
X39901904Y-12914285D01*
X39854285Y-12723809D01*
X39854285Y-12580952D01*
X39901904Y-12390476D01*
X39949523Y-12295238D01*
X40044761Y-12200000D01*
X40187619Y-12152380D01*
X40282857Y-12152380D01*
X40425714Y-12200000D01*
X40473333Y-12247619D01*
X41425714Y-13152380D02*
X40854285Y-13152380D01*
X41140000Y-13152380D02*
X41140000Y-12152380D01*
X41044761Y-12295238D01*
X40949523Y-12390476D01*
X40854285Y-12438095D01*
X26574761Y-23090119D02*
X26479523Y-23042500D01*
X26384285Y-22947261D01*
X26241428Y-22804404D01*
X26146190Y-22756785D01*
X26050952Y-22756785D01*
X26098571Y-22994880D02*
X26003333Y-22947261D01*
X25908095Y-22852023D01*
X25860476Y-22661547D01*
X25860476Y-22328214D01*
X25908095Y-22137738D01*
X26003333Y-22042500D01*
X26098571Y-21994880D01*
X26289047Y-21994880D01*
X26384285Y-22042500D01*
X26479523Y-22137738D01*
X26527142Y-22328214D01*
X26527142Y-22661547D01*
X26479523Y-22852023D01*
X26384285Y-22947261D01*
X26289047Y-22994880D01*
X26098571Y-22994880D01*
X27479523Y-22994880D02*
X26908095Y-22994880D01*
X27193809Y-22994880D02*
X27193809Y-21994880D01*
X27098571Y-22137738D01*
X27003333Y-22232976D01*
X26908095Y-22280595D01*
X51252380Y-81287857D02*
X50776190Y-81621190D01*
X51252380Y-81859285D02*
X50252380Y-81859285D01*
X50252380Y-81478333D01*
X50300000Y-81383095D01*
X50347619Y-81335476D01*
X50442857Y-81287857D01*
X50585714Y-81287857D01*
X50680952Y-81335476D01*
X50728571Y-81383095D01*
X50776190Y-81478333D01*
X50776190Y-81859285D01*
X50347619Y-80906904D02*
X50300000Y-80859285D01*
X50252380Y-80764047D01*
X50252380Y-80525952D01*
X50300000Y-80430714D01*
X50347619Y-80383095D01*
X50442857Y-80335476D01*
X50538095Y-80335476D01*
X50680952Y-80383095D01*
X51252380Y-80954523D01*
X51252380Y-80335476D01*
X50585714Y-79478333D02*
X51252380Y-79478333D01*
X50204761Y-79716428D02*
X50919047Y-79954523D01*
X50919047Y-79335476D01*
X30932380Y-81287857D02*
X30456190Y-81621190D01*
X30932380Y-81859285D02*
X29932380Y-81859285D01*
X29932380Y-81478333D01*
X29980000Y-81383095D01*
X30027619Y-81335476D01*
X30122857Y-81287857D01*
X30265714Y-81287857D01*
X30360952Y-81335476D01*
X30408571Y-81383095D01*
X30456190Y-81478333D01*
X30456190Y-81859285D01*
X30027619Y-80906904D02*
X29980000Y-80859285D01*
X29932380Y-80764047D01*
X29932380Y-80525952D01*
X29980000Y-80430714D01*
X30027619Y-80383095D01*
X30122857Y-80335476D01*
X30218095Y-80335476D01*
X30360952Y-80383095D01*
X30932380Y-80954523D01*
X30932380Y-80335476D01*
X29932380Y-79430714D02*
X29932380Y-79906904D01*
X30408571Y-79954523D01*
X30360952Y-79906904D01*
X30313333Y-79811666D01*
X30313333Y-79573571D01*
X30360952Y-79478333D01*
X30408571Y-79430714D01*
X30503809Y-79383095D01*
X30741904Y-79383095D01*
X30837142Y-79430714D01*
X30884761Y-79478333D01*
X30932380Y-79573571D01*
X30932380Y-79811666D01*
X30884761Y-79906904D01*
X30837142Y-79954523D01*
X11938095Y-73747380D02*
X11938095Y-74556904D01*
X11985714Y-74652142D01*
X12033333Y-74699761D01*
X12128571Y-74747380D01*
X12319047Y-74747380D01*
X12414285Y-74699761D01*
X12461904Y-74652142D01*
X12509523Y-74556904D01*
X12509523Y-73747380D01*
X12890476Y-73747380D02*
X13557142Y-73747380D01*
X13128571Y-74747380D01*
X13327142Y-86082142D02*
X13279523Y-86129761D01*
X13136666Y-86177380D01*
X13041428Y-86177380D01*
X12898571Y-86129761D01*
X12803333Y-86034523D01*
X12755714Y-85939285D01*
X12708095Y-85748809D01*
X12708095Y-85605952D01*
X12755714Y-85415476D01*
X12803333Y-85320238D01*
X12898571Y-85225000D01*
X13041428Y-85177380D01*
X13136666Y-85177380D01*
X13279523Y-85225000D01*
X13327142Y-85272619D01*
X14279523Y-86177380D02*
X13708095Y-86177380D01*
X13993809Y-86177380D02*
X13993809Y-85177380D01*
X13898571Y-85320238D01*
X13803333Y-85415476D01*
X13708095Y-85463095D01*
X14660476Y-85272619D02*
X14708095Y-85225000D01*
X14803333Y-85177380D01*
X15041428Y-85177380D01*
X15136666Y-85225000D01*
X15184285Y-85272619D01*
X15231904Y-85367857D01*
X15231904Y-85463095D01*
X15184285Y-85605952D01*
X14612857Y-86177380D01*
X15231904Y-86177380D01*
X37457142Y-88304642D02*
X37409523Y-88352261D01*
X37266666Y-88399880D01*
X37171428Y-88399880D01*
X37028571Y-88352261D01*
X36933333Y-88257023D01*
X36885714Y-88161785D01*
X36838095Y-87971309D01*
X36838095Y-87828452D01*
X36885714Y-87637976D01*
X36933333Y-87542738D01*
X37028571Y-87447500D01*
X37171428Y-87399880D01*
X37266666Y-87399880D01*
X37409523Y-87447500D01*
X37457142Y-87495119D01*
X38409523Y-88399880D02*
X37838095Y-88399880D01*
X38123809Y-88399880D02*
X38123809Y-87399880D01*
X38028571Y-87542738D01*
X37933333Y-87637976D01*
X37838095Y-87685595D01*
X39314285Y-87399880D02*
X38838095Y-87399880D01*
X38790476Y-87876071D01*
X38838095Y-87828452D01*
X38933333Y-87780833D01*
X39171428Y-87780833D01*
X39266666Y-87828452D01*
X39314285Y-87876071D01*
X39361904Y-87971309D01*
X39361904Y-88209404D01*
X39314285Y-88304642D01*
X39266666Y-88352261D01*
X39171428Y-88399880D01*
X38933333Y-88399880D01*
X38838095Y-88352261D01*
X38790476Y-88304642D01*
X3048095Y-2039880D02*
X3048095Y-1039880D01*
X3048095Y-1516071D02*
X3619523Y-1516071D01*
X3619523Y-2039880D02*
X3619523Y-1039880D01*
X4619523Y-2039880D02*
X4048095Y-2039880D01*
X4333809Y-2039880D02*
X4333809Y-1039880D01*
X4238571Y-1182738D01*
X4143333Y-1277976D01*
X4048095Y-1325595D01*
X23796666Y-30567380D02*
X23796666Y-31281666D01*
X23749047Y-31424523D01*
X23653809Y-31519761D01*
X23510952Y-31567380D01*
X23415714Y-31567380D01*
X24701428Y-30567380D02*
X24510952Y-30567380D01*
X24415714Y-30615000D01*
X24368095Y-30662619D01*
X24272857Y-30805476D01*
X24225238Y-30995952D01*
X24225238Y-31376904D01*
X24272857Y-31472142D01*
X24320476Y-31519761D01*
X24415714Y-31567380D01*
X24606190Y-31567380D01*
X24701428Y-31519761D01*
X24749047Y-31472142D01*
X24796666Y-31376904D01*
X24796666Y-31138809D01*
X24749047Y-31043571D01*
X24701428Y-30995952D01*
X24606190Y-30948333D01*
X24415714Y-30948333D01*
X24320476Y-30995952D01*
X24272857Y-31043571D01*
X24225238Y-31138809D01*
X34107380Y-81287857D02*
X33631190Y-81621190D01*
X34107380Y-81859285D02*
X33107380Y-81859285D01*
X33107380Y-81478333D01*
X33155000Y-81383095D01*
X33202619Y-81335476D01*
X33297857Y-81287857D01*
X33440714Y-81287857D01*
X33535952Y-81335476D01*
X33583571Y-81383095D01*
X33631190Y-81478333D01*
X33631190Y-81859285D01*
X33202619Y-80906904D02*
X33155000Y-80859285D01*
X33107380Y-80764047D01*
X33107380Y-80525952D01*
X33155000Y-80430714D01*
X33202619Y-80383095D01*
X33297857Y-80335476D01*
X33393095Y-80335476D01*
X33535952Y-80383095D01*
X34107380Y-80954523D01*
X34107380Y-80335476D01*
X33107380Y-80002142D02*
X33107380Y-79383095D01*
X33488333Y-79716428D01*
X33488333Y-79573571D01*
X33535952Y-79478333D01*
X33583571Y-79430714D01*
X33678809Y-79383095D01*
X33916904Y-79383095D01*
X34012142Y-79430714D01*
X34059761Y-79478333D01*
X34107380Y-79573571D01*
X34107380Y-79859285D01*
X34059761Y-79954523D01*
X34012142Y-80002142D01*
X39878095Y-19137380D02*
X39878095Y-19946904D01*
X39925714Y-20042142D01*
X39973333Y-20089761D01*
X40068571Y-20137380D01*
X40259047Y-20137380D01*
X40354285Y-20089761D01*
X40401904Y-20042142D01*
X40449523Y-19946904D01*
X40449523Y-19137380D01*
X41449523Y-20137380D02*
X40878095Y-20137380D01*
X41163809Y-20137380D02*
X41163809Y-19137380D01*
X41068571Y-19280238D01*
X40973333Y-19375476D01*
X40878095Y-19423095D01*
X11938095Y-55332380D02*
X11938095Y-56141904D01*
X11985714Y-56237142D01*
X12033333Y-56284761D01*
X12128571Y-56332380D01*
X12319047Y-56332380D01*
X12414285Y-56284761D01*
X12461904Y-56237142D01*
X12509523Y-56141904D01*
X12509523Y-55332380D01*
X12890476Y-55332380D02*
X13509523Y-55332380D01*
X13176190Y-55713333D01*
X13319047Y-55713333D01*
X13414285Y-55760952D01*
X13461904Y-55808571D01*
X13509523Y-55903809D01*
X13509523Y-56141904D01*
X13461904Y-56237142D01*
X13414285Y-56284761D01*
X13319047Y-56332380D01*
X13033333Y-56332380D01*
X12938095Y-56284761D01*
X12890476Y-56237142D01*
X12533333Y-43537142D02*
X12485714Y-43584761D01*
X12342857Y-43632380D01*
X12247619Y-43632380D01*
X12104761Y-43584761D01*
X12009523Y-43489523D01*
X11961904Y-43394285D01*
X11914285Y-43203809D01*
X11914285Y-43060952D01*
X11961904Y-42870476D01*
X12009523Y-42775238D01*
X12104761Y-42680000D01*
X12247619Y-42632380D01*
X12342857Y-42632380D01*
X12485714Y-42680000D01*
X12533333Y-42727619D01*
X13390476Y-42965714D02*
X13390476Y-43632380D01*
X13152380Y-42584761D02*
X12914285Y-43299047D01*
X13533333Y-43299047D01*
X20137380Y-13501666D02*
X19661190Y-13835000D01*
X20137380Y-14073095D02*
X19137380Y-14073095D01*
X19137380Y-13692142D01*
X19185000Y-13596904D01*
X19232619Y-13549285D01*
X19327857Y-13501666D01*
X19470714Y-13501666D01*
X19565952Y-13549285D01*
X19613571Y-13596904D01*
X19661190Y-13692142D01*
X19661190Y-14073095D01*
X19137380Y-12644523D02*
X19137380Y-12835000D01*
X19185000Y-12930238D01*
X19232619Y-12977857D01*
X19375476Y-13073095D01*
X19565952Y-13120714D01*
X19946904Y-13120714D01*
X20042142Y-13073095D01*
X20089761Y-13025476D01*
X20137380Y-12930238D01*
X20137380Y-12739761D01*
X20089761Y-12644523D01*
X20042142Y-12596904D01*
X19946904Y-12549285D01*
X19708809Y-12549285D01*
X19613571Y-12596904D01*
X19565952Y-12644523D01*
X19518333Y-12739761D01*
X19518333Y-12930238D01*
X19565952Y-13025476D01*
X19613571Y-13073095D01*
X19708809Y-13120714D01*
X49982380Y-13501666D02*
X49506190Y-13835000D01*
X49982380Y-14073095D02*
X48982380Y-14073095D01*
X48982380Y-13692142D01*
X49030000Y-13596904D01*
X49077619Y-13549285D01*
X49172857Y-13501666D01*
X49315714Y-13501666D01*
X49410952Y-13549285D01*
X49458571Y-13596904D01*
X49506190Y-13692142D01*
X49506190Y-14073095D01*
X49982380Y-12549285D02*
X49982380Y-13120714D01*
X49982380Y-12835000D02*
X48982380Y-12835000D01*
X49125238Y-12930238D01*
X49220476Y-13025476D01*
X49268095Y-13120714D01*
X39997142Y-67667142D02*
X39949523Y-67714761D01*
X39806666Y-67762380D01*
X39711428Y-67762380D01*
X39568571Y-67714761D01*
X39473333Y-67619523D01*
X39425714Y-67524285D01*
X39378095Y-67333809D01*
X39378095Y-67190952D01*
X39425714Y-67000476D01*
X39473333Y-66905238D01*
X39568571Y-66810000D01*
X39711428Y-66762380D01*
X39806666Y-66762380D01*
X39949523Y-66810000D01*
X39997142Y-66857619D01*
X40949523Y-67762380D02*
X40378095Y-67762380D01*
X40663809Y-67762380D02*
X40663809Y-66762380D01*
X40568571Y-66905238D01*
X40473333Y-67000476D01*
X40378095Y-67048095D01*
X41520952Y-67190952D02*
X41425714Y-67143333D01*
X41378095Y-67095714D01*
X41330476Y-67000476D01*
X41330476Y-66952857D01*
X41378095Y-66857619D01*
X41425714Y-66810000D01*
X41520952Y-66762380D01*
X41711428Y-66762380D01*
X41806666Y-66810000D01*
X41854285Y-66857619D01*
X41901904Y-66952857D01*
X41901904Y-67000476D01*
X41854285Y-67095714D01*
X41806666Y-67143333D01*
X41711428Y-67190952D01*
X41520952Y-67190952D01*
X41425714Y-67238571D01*
X41378095Y-67286190D01*
X41330476Y-67381428D01*
X41330476Y-67571904D01*
X41378095Y-67667142D01*
X41425714Y-67714761D01*
X41520952Y-67762380D01*
X41711428Y-67762380D01*
X41806666Y-67714761D01*
X41854285Y-67667142D01*
X41901904Y-67571904D01*
X41901904Y-67381428D01*
X41854285Y-67286190D01*
X41806666Y-67238571D01*
X41711428Y-67190952D01*
X2992380Y-81287857D02*
X2516190Y-81621190D01*
X2992380Y-81859285D02*
X1992380Y-81859285D01*
X1992380Y-81478333D01*
X2040000Y-81383095D01*
X2087619Y-81335476D01*
X2182857Y-81287857D01*
X2325714Y-81287857D01*
X2420952Y-81335476D01*
X2468571Y-81383095D01*
X2516190Y-81478333D01*
X2516190Y-81859285D01*
X2992380Y-80335476D02*
X2992380Y-80906904D01*
X2992380Y-80621190D02*
X1992380Y-80621190D01*
X2135238Y-80716428D01*
X2230476Y-80811666D01*
X2278095Y-80906904D01*
X1992380Y-79430714D02*
X1992380Y-79906904D01*
X2468571Y-79954523D01*
X2420952Y-79906904D01*
X2373333Y-79811666D01*
X2373333Y-79573571D01*
X2420952Y-79478333D01*
X2468571Y-79430714D01*
X2563809Y-79383095D01*
X2801904Y-79383095D01*
X2897142Y-79430714D01*
X2944761Y-79478333D01*
X2992380Y-79573571D01*
X2992380Y-79811666D01*
X2944761Y-79906904D01*
X2897142Y-79954523D01*
X40473333Y-27027142D02*
X40425714Y-27074761D01*
X40282857Y-27122380D01*
X40187619Y-27122380D01*
X40044761Y-27074761D01*
X39949523Y-26979523D01*
X39901904Y-26884285D01*
X39854285Y-26693809D01*
X39854285Y-26550952D01*
X39901904Y-26360476D01*
X39949523Y-26265238D01*
X40044761Y-26170000D01*
X40187619Y-26122380D01*
X40282857Y-26122380D01*
X40425714Y-26170000D01*
X40473333Y-26217619D01*
X40854285Y-26217619D02*
X40901904Y-26170000D01*
X40997142Y-26122380D01*
X41235238Y-26122380D01*
X41330476Y-26170000D01*
X41378095Y-26217619D01*
X41425714Y-26312857D01*
X41425714Y-26408095D01*
X41378095Y-26550952D01*
X40806666Y-27122380D01*
X41425714Y-27122380D01*
X49982380Y-26201666D02*
X49506190Y-26535000D01*
X49982380Y-26773095D02*
X48982380Y-26773095D01*
X48982380Y-26392142D01*
X49030000Y-26296904D01*
X49077619Y-26249285D01*
X49172857Y-26201666D01*
X49315714Y-26201666D01*
X49410952Y-26249285D01*
X49458571Y-26296904D01*
X49506190Y-26392142D01*
X49506190Y-26773095D01*
X49077619Y-25820714D02*
X49030000Y-25773095D01*
X48982380Y-25677857D01*
X48982380Y-25439761D01*
X49030000Y-25344523D01*
X49077619Y-25296904D01*
X49172857Y-25249285D01*
X49268095Y-25249285D01*
X49410952Y-25296904D01*
X49982380Y-25868333D01*
X49982380Y-25249285D01*
X20137380Y-68587857D02*
X19661190Y-68921190D01*
X20137380Y-69159285D02*
X19137380Y-69159285D01*
X19137380Y-68778333D01*
X19185000Y-68683095D01*
X19232619Y-68635476D01*
X19327857Y-68587857D01*
X19470714Y-68587857D01*
X19565952Y-68635476D01*
X19613571Y-68683095D01*
X19661190Y-68778333D01*
X19661190Y-69159285D01*
X20137380Y-67635476D02*
X20137380Y-68206904D01*
X20137380Y-67921190D02*
X19137380Y-67921190D01*
X19280238Y-68016428D01*
X19375476Y-68111666D01*
X19423095Y-68206904D01*
X20137380Y-67159285D02*
X20137380Y-66968809D01*
X20089761Y-66873571D01*
X20042142Y-66825952D01*
X19899285Y-66730714D01*
X19708809Y-66683095D01*
X19327857Y-66683095D01*
X19232619Y-66730714D01*
X19185000Y-66778333D01*
X19137380Y-66873571D01*
X19137380Y-67064047D01*
X19185000Y-67159285D01*
X19232619Y-67206904D01*
X19327857Y-67254523D01*
X19565952Y-67254523D01*
X19661190Y-67206904D01*
X19708809Y-67159285D01*
X19756428Y-67064047D01*
X19756428Y-66873571D01*
X19708809Y-66778333D01*
X19661190Y-66730714D01*
X19565952Y-66683095D01*
X39901904Y-8072380D02*
X39901904Y-7072380D01*
X40140000Y-7072380D01*
X40282857Y-7120000D01*
X40378095Y-7215238D01*
X40425714Y-7310476D01*
X40473333Y-7500952D01*
X40473333Y-7643809D01*
X40425714Y-7834285D01*
X40378095Y-7929523D01*
X40282857Y-8024761D01*
X40140000Y-8072380D01*
X39901904Y-8072380D01*
X41425714Y-8072380D02*
X40854285Y-8072380D01*
X41140000Y-8072380D02*
X41140000Y-7072380D01*
X41044761Y-7215238D01*
X40949523Y-7310476D01*
X40854285Y-7358095D01*
X46410595Y-6484880D02*
X46410595Y-5484880D01*
X46982023Y-6484880D02*
X46553452Y-5913452D01*
X46982023Y-5484880D02*
X46410595Y-6056309D01*
X21463095Y-91527380D02*
X21463095Y-92336904D01*
X21510714Y-92432142D01*
X21558333Y-92479761D01*
X21653571Y-92527380D01*
X21844047Y-92527380D01*
X21939285Y-92479761D01*
X21986904Y-92432142D01*
X22034523Y-92336904D01*
X22034523Y-91527380D01*
X22939285Y-91527380D02*
X22748809Y-91527380D01*
X22653571Y-91575000D01*
X22605952Y-91622619D01*
X22510714Y-91765476D01*
X22463095Y-91955952D01*
X22463095Y-92336904D01*
X22510714Y-92432142D01*
X22558333Y-92479761D01*
X22653571Y-92527380D01*
X22844047Y-92527380D01*
X22939285Y-92479761D01*
X22986904Y-92432142D01*
X23034523Y-92336904D01*
X23034523Y-92098809D01*
X22986904Y-92003571D01*
X22939285Y-91955952D01*
X22844047Y-91908333D01*
X22653571Y-91908333D01*
X22558333Y-91955952D01*
X22510714Y-92003571D01*
X22463095Y-92098809D01*
X34107380Y-13501666D02*
X33631190Y-13835000D01*
X34107380Y-14073095D02*
X33107380Y-14073095D01*
X33107380Y-13692142D01*
X33155000Y-13596904D01*
X33202619Y-13549285D01*
X33297857Y-13501666D01*
X33440714Y-13501666D01*
X33535952Y-13549285D01*
X33583571Y-13596904D01*
X33631190Y-13692142D01*
X33631190Y-14073095D01*
X33107380Y-12596904D02*
X33107380Y-13073095D01*
X33583571Y-13120714D01*
X33535952Y-13073095D01*
X33488333Y-12977857D01*
X33488333Y-12739761D01*
X33535952Y-12644523D01*
X33583571Y-12596904D01*
X33678809Y-12549285D01*
X33916904Y-12549285D01*
X34012142Y-12596904D01*
X34059761Y-12644523D01*
X34107380Y-12739761D01*
X34107380Y-12977857D01*
X34059761Y-13073095D01*
X34012142Y-13120714D01*
D11*
X50800000Y-63905000D02*
X50800000Y-64675000D01*
X52170000Y-64675000D02*
X49430000Y-64675000D01*
X49430000Y-64675000D02*
X49430000Y-71215000D01*
X49430000Y-71215000D02*
X52170000Y-71215000D01*
X52170000Y-71215000D02*
X52170000Y-64675000D01*
X50800000Y-71985000D02*
X50800000Y-71215000D01*
X8890000Y-29845000D02*
X8890000Y-28575000D01*
X8890000Y-9525000D02*
X16510000Y-9525000D01*
X16510000Y-10615000D02*
X17700000Y-10795000D01*
X8890000Y-28575000D02*
X7700000Y-28395000D01*
X7700000Y-10795000D02*
X8890000Y-10615000D01*
X16510000Y-9525000D02*
X16510000Y-10615000D01*
X17700000Y-10795000D02*
X17700000Y-28395000D01*
X16510000Y-28575000D02*
X16510000Y-29845000D01*
X8890000Y-10615000D02*
X8890000Y-9525000D01*
X16510000Y-29845000D02*
X8890000Y-29845000D01*
X17700000Y-28395000D02*
X16510000Y-28575000D01*
X7700000Y-28395000D02*
X7700000Y-10795000D01*
X13950000Y-25685000D02*
X11450000Y-25685000D01*
X11450000Y-25685000D02*
X11450000Y-13685000D01*
X11450000Y-13685000D02*
X13950000Y-13685000D01*
X13950000Y-13685000D02*
X13950000Y-25685000D01*
X13700000Y-29575000D02*
G75*
G03*
X11700000Y-29575000I-1000000J0D01*
G01*
X46990000Y-9295000D02*
X46990000Y-10065000D01*
X45620000Y-10065000D02*
X45620000Y-16605000D01*
X48360000Y-16605000D02*
X48360000Y-10065000D01*
X45620000Y-16605000D02*
X48360000Y-16605000D01*
X46990000Y-17375000D02*
X46990000Y-16605000D01*
X48360000Y-10065000D02*
X45620000Y-10065000D01*
X33655000Y-45315000D02*
X33655000Y-44545000D01*
X35025000Y-44545000D02*
X35025000Y-38005000D01*
X32285000Y-38005000D02*
X32285000Y-44545000D01*
X33655000Y-37235000D02*
X33655000Y-38005000D01*
X35025000Y-38005000D02*
X32285000Y-38005000D01*
X32285000Y-44545000D02*
X35025000Y-44545000D01*
X11700000Y-21860000D02*
X11700000Y-23860000D01*
X13700000Y-23860000D02*
X13700000Y-21860000D01*
X18315000Y-29305000D02*
X21055000Y-29305000D01*
X21055000Y-22765000D02*
X18315000Y-22765000D01*
X21055000Y-29305000D02*
X21055000Y-22765000D01*
X19685000Y-21995000D02*
X19685000Y-22765000D01*
X19685000Y-30075000D02*
X19685000Y-29305000D01*
X18315000Y-22765000D02*
X18315000Y-29305000D01*
X25670000Y-99425000D02*
X27670000Y-99425000D01*
X27670000Y-97425000D02*
X25670000Y-97425000D01*
X46255000Y-44545000D02*
X48995000Y-44545000D01*
X46255000Y-38005000D02*
X46255000Y-44545000D01*
X47625000Y-45315000D02*
X47625000Y-44545000D01*
X48995000Y-44545000D02*
X48995000Y-38005000D01*
X47625000Y-37235000D02*
X47625000Y-38005000D01*
X48995000Y-38005000D02*
X46255000Y-38005000D01*
X35025000Y-71215000D02*
X35025000Y-64675000D01*
X35025000Y-64675000D02*
X32285000Y-64675000D01*
X33655000Y-71985000D02*
X33655000Y-71215000D01*
X33655000Y-63905000D02*
X33655000Y-64675000D01*
X32285000Y-64675000D02*
X32285000Y-71215000D01*
X32285000Y-71215000D02*
X35025000Y-71215000D01*
X47625000Y-63905000D02*
X47625000Y-64675000D01*
X48995000Y-71215000D02*
X48995000Y-64675000D01*
X46255000Y-71215000D02*
X48995000Y-71215000D01*
X48995000Y-64675000D02*
X46255000Y-64675000D01*
X46255000Y-64675000D02*
X46255000Y-71215000D01*
X47625000Y-71985000D02*
X47625000Y-71215000D01*
X48360000Y-22765000D02*
X45620000Y-22765000D01*
X46990000Y-21995000D02*
X46990000Y-22765000D01*
X45620000Y-29305000D02*
X48360000Y-29305000D01*
X46990000Y-30075000D02*
X46990000Y-29305000D01*
X48360000Y-29305000D02*
X48360000Y-22765000D01*
X45620000Y-22765000D02*
X45620000Y-29305000D01*
X5715000Y-76605000D02*
X5715000Y-77375000D01*
X7085000Y-83915000D02*
X7085000Y-77375000D01*
X5715000Y-84685000D02*
X5715000Y-83915000D01*
X4345000Y-83915000D02*
X7085000Y-83915000D01*
X4345000Y-77375000D02*
X4345000Y-83915000D01*
X7085000Y-77375000D02*
X4345000Y-77375000D01*
X9160000Y-63865000D02*
X11160000Y-63865000D01*
X11160000Y-61865000D02*
X9160000Y-61865000D01*
X11700000Y-70120000D02*
X11700000Y-72120000D01*
X13700000Y-72120000D02*
X13700000Y-70120000D01*
X27670000Y-18145000D02*
X27670000Y-16145000D01*
X25670000Y-16145000D02*
X25670000Y-18145000D01*
X25340000Y-41275000D02*
X25340000Y-41335000D01*
X28000000Y-41275000D02*
X28000000Y-41335000D01*
X25340000Y-41275000D02*
X28000000Y-41275000D01*
X25340000Y-38675000D02*
X26670000Y-38675000D01*
X25340000Y-40005000D02*
X25340000Y-38675000D01*
X25340000Y-41335000D02*
X28000000Y-41335000D01*
X42180000Y-86725000D02*
X44180000Y-86725000D01*
X44180000Y-84725000D02*
X42180000Y-84725000D01*
X44450000Y-38735000D02*
X45640000Y-38915000D01*
X36830000Y-56695000D02*
X35640000Y-56515000D01*
X36830000Y-37465000D02*
X44450000Y-37465000D01*
X45640000Y-38915000D02*
X45640000Y-56515000D01*
X35640000Y-38915000D02*
X36830000Y-38735000D01*
X45640000Y-56515000D02*
X44450000Y-56695000D01*
X44450000Y-57785000D02*
X36830000Y-57785000D01*
X36830000Y-57785000D02*
X36830000Y-56695000D01*
X44450000Y-37465000D02*
X44450000Y-38735000D01*
X36830000Y-38735000D02*
X36830000Y-37465000D01*
X35640000Y-56515000D02*
X35640000Y-38915000D01*
X44450000Y-56695000D02*
X44450000Y-57785000D01*
X39390000Y-41625000D02*
X41890000Y-41625000D01*
X41890000Y-41625000D02*
X41890000Y-53625000D01*
X41890000Y-53625000D02*
X39390000Y-53625000D01*
X39390000Y-53625000D02*
X39390000Y-41625000D01*
X39640000Y-37735000D02*
G75*
G03*
X41640000Y-37735000I1000000J0D01*
G01*
X21530000Y-3810000D02*
X21530000Y-2480000D01*
X21530000Y-2480000D02*
X22860000Y-2480000D01*
X24130000Y-5140000D02*
X31810000Y-5140000D01*
X24130000Y-5140000D02*
X24130000Y-2480000D01*
X24130000Y-2480000D02*
X31810000Y-2480000D01*
X31810000Y-5140000D02*
X31810000Y-2480000D01*
X22860000Y-76605000D02*
X22860000Y-77375000D01*
X22860000Y-84685000D02*
X22860000Y-83915000D01*
X21490000Y-83915000D02*
X24230000Y-83915000D01*
X24230000Y-77375000D02*
X21490000Y-77375000D01*
X21490000Y-77375000D02*
X21490000Y-83915000D01*
X24230000Y-83915000D02*
X24230000Y-77375000D01*
X50800000Y-48665000D02*
X50800000Y-49435000D01*
X52170000Y-55975000D02*
X52170000Y-49435000D01*
X52170000Y-49435000D02*
X49430000Y-49435000D01*
X49430000Y-55975000D02*
X52170000Y-55975000D01*
X49430000Y-49435000D02*
X49430000Y-55975000D01*
X50800000Y-56745000D02*
X50800000Y-55975000D01*
X7085000Y-71215000D02*
X7085000Y-64675000D01*
X7085000Y-64675000D02*
X4345000Y-64675000D01*
X5715000Y-63905000D02*
X5715000Y-64675000D01*
X4345000Y-64675000D02*
X4345000Y-71215000D01*
X5715000Y-71985000D02*
X5715000Y-71215000D01*
X4345000Y-71215000D02*
X7085000Y-71215000D01*
X41640000Y-51165000D02*
X41640000Y-49165000D01*
X39640000Y-49165000D02*
X39640000Y-51165000D01*
X2540000Y-63905000D02*
X2540000Y-64675000D01*
X3910000Y-71215000D02*
X3910000Y-64675000D01*
X1170000Y-71215000D02*
X3910000Y-71215000D01*
X3910000Y-64675000D02*
X1170000Y-64675000D01*
X2540000Y-71985000D02*
X2540000Y-71215000D01*
X1170000Y-64675000D02*
X1170000Y-71215000D01*
X46505000Y-54825000D02*
X48745000Y-54825000D01*
X46505000Y-54225000D02*
X48745000Y-54225000D01*
X47625000Y-55475000D02*
X47625000Y-54825000D01*
X46505000Y-50585000D02*
X46505000Y-54825000D01*
X47625000Y-49935000D02*
X47625000Y-50585000D01*
X48745000Y-54825000D02*
X48745000Y-50585000D01*
X46505000Y-54105000D02*
X48745000Y-54105000D01*
X48745000Y-50585000D02*
X46505000Y-50585000D01*
X46505000Y-53985000D02*
X48745000Y-53985000D01*
X36770000Y-62230000D02*
X36770000Y-60900000D01*
X39370000Y-60900000D02*
X44510000Y-60900000D01*
X39370000Y-63560000D02*
X44510000Y-63560000D01*
X44510000Y-63560000D02*
X44510000Y-60900000D01*
X36770000Y-60900000D02*
X38100000Y-60900000D01*
X39370000Y-63560000D02*
X39370000Y-60900000D01*
X35025000Y-22765000D02*
X32285000Y-22765000D01*
X33655000Y-21995000D02*
X33655000Y-22765000D01*
X32285000Y-22765000D02*
X32285000Y-29305000D01*
X33655000Y-30075000D02*
X33655000Y-29305000D01*
X35025000Y-29305000D02*
X35025000Y-22765000D01*
X32285000Y-29305000D02*
X35025000Y-29305000D01*
X13700000Y-78470000D02*
X13700000Y-76470000D01*
X11700000Y-76470000D02*
X11700000Y-78470000D01*
X27670000Y-91075000D02*
X25670000Y-91075000D01*
X25670000Y-93075000D02*
X27670000Y-93075000D01*
X16570000Y-99755000D02*
X16570000Y-97095000D01*
X11430000Y-97095000D02*
X16570000Y-97095000D01*
X11430000Y-99755000D02*
X16570000Y-99755000D01*
X11430000Y-99755000D02*
X11430000Y-97095000D01*
X8830000Y-98425000D02*
X8830000Y-97095000D01*
X8830000Y-97095000D02*
X10160000Y-97095000D01*
X33655000Y-55475000D02*
X33655000Y-54825000D01*
X32535000Y-54825000D02*
X34775000Y-54825000D01*
X34775000Y-54825000D02*
X34775000Y-50585000D01*
X32535000Y-54225000D02*
X34775000Y-54225000D01*
X32535000Y-53985000D02*
X34775000Y-53985000D01*
X34775000Y-50585000D02*
X32535000Y-50585000D01*
X33655000Y-49935000D02*
X33655000Y-50585000D01*
X32535000Y-54105000D02*
X34775000Y-54105000D01*
X32535000Y-50585000D02*
X32535000Y-54825000D01*
X30480000Y-63905000D02*
X30480000Y-64675000D01*
X29110000Y-71215000D02*
X31850000Y-71215000D01*
X31850000Y-71215000D02*
X31850000Y-64675000D01*
X30480000Y-71985000D02*
X30480000Y-71215000D01*
X29110000Y-64675000D02*
X29110000Y-71215000D01*
X31850000Y-64675000D02*
X29110000Y-64675000D01*
X46255000Y-77375000D02*
X46255000Y-83915000D01*
X47625000Y-84685000D02*
X47625000Y-83915000D01*
X47625000Y-76605000D02*
X47625000Y-77375000D01*
X48995000Y-83915000D02*
X48995000Y-77375000D01*
X46255000Y-83915000D02*
X48995000Y-83915000D01*
X48995000Y-77375000D02*
X46255000Y-77375000D01*
X41640000Y-78470000D02*
X41640000Y-76470000D01*
X39640000Y-76470000D02*
X39640000Y-78470000D01*
X35755000Y-5705000D02*
X35755000Y-635000D01*
X45525000Y-5705000D02*
X35755000Y-5705000D01*
X45525000Y-635000D02*
X35755000Y-635000D01*
X45525000Y-5705000D02*
X45525000Y-635000D01*
X5715000Y-23725000D02*
X5715000Y-22955000D01*
X4345000Y-16415000D02*
X4345000Y-22955000D01*
X5715000Y-15645000D02*
X5715000Y-16415000D01*
X7085000Y-22955000D02*
X7085000Y-16415000D01*
X7085000Y-16415000D02*
X4345000Y-16415000D01*
X4345000Y-22955000D02*
X7085000Y-22955000D01*
X41970000Y-58420000D02*
X41970000Y-58360000D01*
X41970000Y-61020000D02*
X40640000Y-61020000D01*
X41970000Y-59690000D02*
X41970000Y-61020000D01*
X41970000Y-58420000D02*
X39310000Y-58420000D01*
X39310000Y-58420000D02*
X39310000Y-58360000D01*
X41970000Y-58360000D02*
X39310000Y-58360000D01*
X21055000Y-83915000D02*
X21055000Y-77375000D01*
X18315000Y-77375000D02*
X18315000Y-83915000D01*
X19685000Y-84685000D02*
X19685000Y-83915000D01*
X18315000Y-83915000D02*
X21055000Y-83915000D01*
X19685000Y-76605000D02*
X19685000Y-77375000D01*
X21055000Y-77375000D02*
X18315000Y-77375000D01*
X16240000Y-61865000D02*
X14240000Y-61865000D01*
X14240000Y-63865000D02*
X16240000Y-63865000D01*
X25340000Y-80645000D02*
X25340000Y-83245000D01*
X28000000Y-78045000D02*
X28000000Y-79375000D01*
X25340000Y-80645000D02*
X28000000Y-80645000D01*
X25340000Y-83245000D02*
X28000000Y-83245000D01*
X26670000Y-78045000D02*
X28000000Y-78045000D01*
X28000000Y-80645000D02*
X28000000Y-83245000D01*
X13700000Y-17510000D02*
X13700000Y-15510000D01*
X11700000Y-15510000D02*
X11700000Y-17510000D01*
X36830000Y-65225000D02*
X36830000Y-64135000D01*
X44450000Y-83185000D02*
X44450000Y-84455000D01*
X35640000Y-83005000D02*
X35640000Y-65405000D01*
X36830000Y-83185000D02*
X35640000Y-83005000D01*
X36830000Y-64135000D02*
X44450000Y-64135000D01*
X44450000Y-64135000D02*
X44450000Y-65225000D01*
X45640000Y-65405000D02*
X45640000Y-83005000D01*
X36830000Y-84455000D02*
X36830000Y-83185000D01*
X44450000Y-65225000D02*
X45640000Y-65405000D01*
X45640000Y-83005000D02*
X44450000Y-83185000D01*
X44450000Y-84455000D02*
X36830000Y-84455000D01*
X35640000Y-65405000D02*
X36830000Y-65225000D01*
X41890000Y-80295000D02*
X39390000Y-80295000D01*
X39390000Y-80295000D02*
X39390000Y-68295000D01*
X39390000Y-68295000D02*
X41890000Y-68295000D01*
X41890000Y-68295000D02*
X41890000Y-80295000D01*
X41640000Y-84185000D02*
G75*
G03*
X39640000Y-84185000I-1000000J0D01*
G01*
X44060000Y-33005000D02*
X44060000Y-30095000D01*
X44060000Y-37335000D02*
X44060000Y-34305000D01*
X37220000Y-33005000D02*
X37220000Y-30095000D01*
X37220000Y-37335000D02*
X44060000Y-37335000D01*
X37220000Y-37335000D02*
X37220000Y-34305000D01*
X37220000Y-30095000D02*
X44060000Y-30095000D01*
X39640000Y-15510000D02*
X39640000Y-17510000D01*
X41640000Y-17510000D02*
X41640000Y-15510000D01*
X30480000Y-29845000D02*
X22860000Y-29845000D01*
X30480000Y-9525000D02*
X30480000Y-10615000D01*
X31670000Y-10795000D02*
X31670000Y-28395000D01*
X30480000Y-28575000D02*
X30480000Y-29845000D01*
X21670000Y-10795000D02*
X22860000Y-10615000D01*
X22860000Y-29845000D02*
X22860000Y-28575000D01*
X22860000Y-28575000D02*
X21670000Y-28395000D01*
X22860000Y-9525000D02*
X30480000Y-9525000D01*
X31670000Y-28395000D02*
X30480000Y-28575000D01*
X30480000Y-10615000D02*
X31670000Y-10795000D01*
X21670000Y-28395000D02*
X21670000Y-10795000D01*
X22860000Y-10615000D02*
X22860000Y-9525000D01*
X27920000Y-25685000D02*
X25420000Y-25685000D01*
X25420000Y-25685000D02*
X25420000Y-13685000D01*
X25420000Y-13685000D02*
X27920000Y-13685000D01*
X27920000Y-13685000D02*
X27920000Y-25685000D01*
X27670000Y-29575000D02*
G75*
G03*
X25670000Y-29575000I-1000000J0D01*
G01*
X50800000Y-76605000D02*
X50800000Y-77375000D01*
X49430000Y-83915000D02*
X52170000Y-83915000D01*
X50800000Y-84685000D02*
X50800000Y-83915000D01*
X52170000Y-77375000D02*
X49430000Y-77375000D01*
X52170000Y-83915000D02*
X52170000Y-77375000D01*
X49430000Y-77375000D02*
X49430000Y-83915000D01*
X31850000Y-83915000D02*
X31850000Y-77375000D01*
X31850000Y-77375000D02*
X29110000Y-77375000D01*
X30480000Y-84685000D02*
X30480000Y-83915000D01*
X30480000Y-76605000D02*
X30480000Y-77375000D01*
X29110000Y-77375000D02*
X29110000Y-83915000D01*
X29110000Y-83915000D02*
X31850000Y-83915000D01*
X16510000Y-83365000D02*
X16510000Y-84455000D01*
X17700000Y-65585000D02*
X17700000Y-83185000D01*
X16510000Y-84455000D02*
X8890000Y-84455000D01*
X8890000Y-64135000D02*
X16510000Y-64135000D01*
X8890000Y-65405000D02*
X8890000Y-64135000D01*
X16510000Y-64135000D02*
X16510000Y-65405000D01*
X7700000Y-83185000D02*
X7700000Y-65585000D01*
X8890000Y-84455000D02*
X8890000Y-83365000D01*
X16510000Y-65405000D02*
X17700000Y-65585000D01*
X17700000Y-83185000D02*
X16510000Y-83365000D01*
X7700000Y-65585000D02*
X8890000Y-65405000D01*
X8890000Y-83365000D02*
X7700000Y-83185000D01*
X11450000Y-68295000D02*
X13950000Y-68295000D01*
X13950000Y-68295000D02*
X13950000Y-80295000D01*
X13950000Y-80295000D02*
X11450000Y-80295000D01*
X11450000Y-80295000D02*
X11450000Y-68295000D01*
X11700000Y-64405000D02*
G75*
G03*
X13700000Y-64405000I1000000J0D01*
G01*
X11160000Y-84725000D02*
X9160000Y-84725000D01*
X9160000Y-86725000D02*
X11160000Y-86725000D01*
X37100000Y-86725000D02*
X39100000Y-86725000D01*
X39100000Y-84725000D02*
X37100000Y-84725000D01*
X27940000Y-32445000D02*
X27940000Y-29785000D01*
X25340000Y-32445000D02*
X25340000Y-31115000D01*
X27940000Y-32445000D02*
X28000000Y-32445000D01*
X27940000Y-29785000D02*
X28000000Y-29785000D01*
X28000000Y-32445000D02*
X28000000Y-29785000D01*
X26670000Y-32445000D02*
X25340000Y-32445000D01*
X32285000Y-77375000D02*
X32285000Y-83915000D01*
X32285000Y-83915000D02*
X35025000Y-83915000D01*
X33655000Y-76605000D02*
X33655000Y-77375000D01*
X33655000Y-84685000D02*
X33655000Y-83915000D01*
X35025000Y-77375000D02*
X32285000Y-77375000D01*
X35025000Y-83915000D02*
X35025000Y-77375000D01*
X35640000Y-10975000D02*
X36830000Y-10795000D01*
X44450000Y-10795000D02*
X45640000Y-10975000D01*
X45640000Y-28575000D02*
X44450000Y-28755000D01*
X36830000Y-28755000D02*
X35640000Y-28575000D01*
X44450000Y-29845000D02*
X36830000Y-29845000D01*
X36830000Y-9525000D02*
X44450000Y-9525000D01*
X44450000Y-9525000D02*
X44450000Y-10795000D01*
X45640000Y-10975000D02*
X45640000Y-28575000D01*
X44450000Y-28755000D02*
X44450000Y-29845000D01*
X36830000Y-29845000D02*
X36830000Y-28755000D01*
X35640000Y-28575000D02*
X35640000Y-10975000D01*
X36830000Y-10795000D02*
X36830000Y-9525000D01*
X39390000Y-13685000D02*
X41890000Y-13685000D01*
X41890000Y-13685000D02*
X41890000Y-25685000D01*
X41890000Y-25685000D02*
X39390000Y-25685000D01*
X39390000Y-25685000D02*
X39390000Y-13685000D01*
X39640000Y-9795000D02*
G75*
G03*
X41640000Y-9795000I1000000J0D01*
G01*
X16510000Y-56695000D02*
X16510000Y-57785000D01*
X17700000Y-36375000D02*
X17700000Y-56515000D01*
X17700000Y-56515000D02*
X16510000Y-56695000D01*
X7700000Y-36375000D02*
X8890000Y-36195000D01*
X8890000Y-36195000D02*
X8890000Y-34925000D01*
X16510000Y-57785000D02*
X8890000Y-57785000D01*
X8890000Y-34925000D02*
X16510000Y-34925000D01*
X16510000Y-34925000D02*
X16510000Y-36195000D01*
X7700000Y-56515000D02*
X7700000Y-36375000D01*
X16510000Y-36195000D02*
X17700000Y-36375000D01*
X8890000Y-57785000D02*
X8890000Y-56695000D01*
X8890000Y-56695000D02*
X7700000Y-56515000D01*
X11450000Y-39105000D02*
X13950000Y-39105000D01*
X13950000Y-39105000D02*
X13950000Y-53605000D01*
X13950000Y-53605000D02*
X11450000Y-53605000D01*
X11450000Y-53605000D02*
X11450000Y-39105000D01*
X11700000Y-35195000D02*
G75*
G03*
X13700000Y-35195000I1000000J0D01*
G01*
X13700000Y-47355000D02*
X13700000Y-45355000D01*
X11700000Y-45355000D02*
X11700000Y-47355000D01*
X18315000Y-10065000D02*
X18315000Y-16605000D01*
X19685000Y-9295000D02*
X19685000Y-10065000D01*
X21055000Y-16605000D02*
X21055000Y-10065000D01*
X19685000Y-17375000D02*
X19685000Y-16605000D01*
X18315000Y-16605000D02*
X21055000Y-16605000D01*
X21055000Y-10065000D02*
X18315000Y-10065000D01*
X50900000Y-10065000D02*
X48160000Y-10065000D01*
X48160000Y-10065000D02*
X48160000Y-16605000D01*
X49530000Y-17375000D02*
X49530000Y-16605000D01*
X49530000Y-9295000D02*
X49530000Y-10065000D01*
X48160000Y-16605000D02*
X50900000Y-16605000D01*
X50900000Y-16605000D02*
X50900000Y-10065000D01*
X39640000Y-70120000D02*
X39640000Y-72120000D01*
X41640000Y-72120000D02*
X41640000Y-70120000D01*
X1170000Y-77375000D02*
X1170000Y-83915000D01*
X3910000Y-77375000D02*
X1170000Y-77375000D01*
X2540000Y-84685000D02*
X2540000Y-83915000D01*
X3910000Y-83915000D02*
X3910000Y-77375000D01*
X2540000Y-76605000D02*
X2540000Y-77375000D01*
X1170000Y-83915000D02*
X3910000Y-83915000D01*
X41640000Y-23860000D02*
X41640000Y-21860000D01*
X39640000Y-21860000D02*
X39640000Y-23860000D01*
X49530000Y-21995000D02*
X49530000Y-22765000D01*
X48160000Y-29305000D02*
X50900000Y-29305000D01*
X50900000Y-29305000D02*
X50900000Y-22765000D01*
X48160000Y-22765000D02*
X48160000Y-29305000D01*
X49530000Y-30075000D02*
X49530000Y-29305000D01*
X50900000Y-22765000D02*
X48160000Y-22765000D01*
X18315000Y-71215000D02*
X21055000Y-71215000D01*
X19685000Y-63905000D02*
X19685000Y-64675000D01*
X21055000Y-64675000D02*
X18315000Y-64675000D01*
X21055000Y-71215000D02*
X21055000Y-64675000D01*
X19685000Y-71985000D02*
X19685000Y-71215000D01*
X18315000Y-64675000D02*
X18315000Y-71215000D01*
X41920000Y-8740000D02*
X41920000Y-6500000D01*
X42160000Y-8740000D02*
X42160000Y-6500000D01*
X37870000Y-7620000D02*
X38520000Y-7620000D01*
X42760000Y-8740000D02*
X42760000Y-6500000D01*
X42040000Y-8740000D02*
X42040000Y-6500000D01*
X38520000Y-8740000D02*
X42760000Y-8740000D01*
X43410000Y-7620000D02*
X42760000Y-7620000D01*
X38520000Y-6500000D02*
X38520000Y-8740000D01*
X42760000Y-6500000D02*
X38520000Y-6500000D01*
X21590000Y-88265000D02*
X21770000Y-87075000D01*
X31750000Y-88265000D02*
X33020000Y-88265000D01*
X31570000Y-87075000D02*
X31750000Y-88265000D01*
X21590000Y-95885000D02*
X20320000Y-95885000D01*
X33020000Y-95885000D02*
X31750000Y-95885000D01*
X20320000Y-88265000D02*
X21590000Y-88265000D01*
X21770000Y-87075000D02*
X31570000Y-87075000D01*
X33020000Y-88265000D02*
X33020000Y-95885000D01*
X31570000Y-97075000D02*
X21770000Y-97075000D01*
X21770000Y-97075000D02*
X21590000Y-95885000D01*
X31750000Y-95885000D02*
X31570000Y-97075000D01*
X20320000Y-95885000D02*
X20320000Y-88265000D01*
X28970000Y-90825000D02*
X24370000Y-90825000D01*
X24370000Y-90825000D02*
X24370000Y-93325000D01*
X24370000Y-93325000D02*
X28970000Y-93325000D01*
X28970000Y-93325000D02*
X28970000Y-90825000D01*
X32750000Y-91075000D02*
G75*
G03*
X32750000Y-93075000I0J-1000000D01*
G01*
X32285000Y-16605000D02*
X35025000Y-16605000D01*
X33655000Y-9295000D02*
X33655000Y-10065000D01*
X32285000Y-10065000D02*
X32285000Y-16605000D01*
X35025000Y-10065000D02*
X32285000Y-10065000D01*
X33655000Y-17375000D02*
X33655000Y-16605000D01*
X35025000Y-16605000D02*
X35025000Y-10065000D01*
%LPC*%
D12*
X50800000Y-73025000D03*
D13*
X50800000Y-62865000D03*
D14*
X16510000Y-27305000D03*
X16510000Y-24765000D03*
X16510000Y-22225000D03*
X16510000Y-19685000D03*
X16510000Y-17145000D03*
X16510000Y-14605000D03*
X16510000Y-12065000D03*
X8890000Y-12065000D03*
X8890000Y-14605000D03*
X8890000Y-17145000D03*
X8890000Y-19685000D03*
X8890000Y-22225000D03*
X8890000Y-24765000D03*
X8890000Y-27305000D03*
D12*
X46990000Y-18415000D03*
D13*
X46990000Y-8255000D03*
D12*
X33655000Y-46355000D03*
D13*
X33655000Y-36195000D03*
D14*
X12700000Y-24130000D03*
X12700000Y-21590000D03*
D12*
X19685000Y-31115000D03*
D13*
X19685000Y-20955000D03*
D14*
X25400000Y-98425000D03*
X27940000Y-98425000D03*
D15*
X26670000Y-102870000D03*
D12*
X47625000Y-46355000D03*
D13*
X47625000Y-36195000D03*
D15*
X49530000Y-3810000D03*
D12*
X33655000Y-62865000D03*
D13*
X33655000Y-73025000D03*
D12*
X47625000Y-62865000D03*
D13*
X47625000Y-73025000D03*
D12*
X46990000Y-31115000D03*
D13*
X46990000Y-20955000D03*
D12*
X5715000Y-75565000D03*
D13*
X5715000Y-85725000D03*
D14*
X11430000Y-62865000D03*
X8890000Y-62865000D03*
X12700000Y-69850000D03*
X12700000Y-72390000D03*
X26670000Y-15875000D03*
X26670000Y-18415000D03*
D16*
X26670000Y-40005000D03*
D14*
X41910000Y-85725000D03*
X44450000Y-85725000D03*
X36830000Y-40005000D03*
X36830000Y-42545000D03*
X36830000Y-45085000D03*
X36830000Y-47625000D03*
X36830000Y-50165000D03*
X36830000Y-52705000D03*
X36830000Y-55245000D03*
X44450000Y-55245000D03*
X44450000Y-52705000D03*
X44450000Y-50165000D03*
X44450000Y-47625000D03*
X44450000Y-45085000D03*
X44450000Y-42545000D03*
X44450000Y-40005000D03*
D16*
X22860000Y-3810000D03*
D17*
X25400000Y-3810000D03*
X27940000Y-3810000D03*
X30480000Y-3810000D03*
D12*
X22860000Y-85725000D03*
D13*
X22860000Y-75565000D03*
D12*
X50800000Y-57785000D03*
D13*
X50800000Y-47625000D03*
D12*
X5715000Y-73025000D03*
D13*
X5715000Y-62865000D03*
D14*
X40640000Y-48895000D03*
X40640000Y-51435000D03*
D12*
X2540000Y-73025000D03*
D13*
X2540000Y-62865000D03*
D18*
X47625000Y-56515000D03*
D13*
X47625000Y-48895000D03*
D16*
X38100000Y-62230000D03*
D17*
X40640000Y-62230000D03*
X43180000Y-62230000D03*
D12*
X33655000Y-20955000D03*
D13*
X33655000Y-31115000D03*
D14*
X12700000Y-76200000D03*
X12700000Y-78740000D03*
X25400000Y-92075000D03*
X27940000Y-92075000D03*
D16*
X10160000Y-98425000D03*
D17*
X12700000Y-98425000D03*
X15240000Y-98425000D03*
D18*
X33655000Y-56515000D03*
D13*
X33655000Y-48895000D03*
D12*
X30480000Y-73025000D03*
D13*
X30480000Y-62865000D03*
D12*
X47625000Y-75565000D03*
D13*
X47625000Y-85725000D03*
D14*
X40640000Y-78740000D03*
X40640000Y-76200000D03*
D19*
X38100000Y-3175000D03*
X40640000Y-3175000D03*
X43180000Y-3175000D03*
D12*
X5715000Y-14605000D03*
D13*
X5715000Y-24765000D03*
D16*
X40640000Y-59690000D03*
D12*
X19685000Y-85725000D03*
D13*
X19685000Y-75565000D03*
D14*
X13970000Y-62865000D03*
X16510000Y-62865000D03*
D16*
X26670000Y-79375000D03*
D17*
X26670000Y-81915000D03*
D14*
X12700000Y-15240000D03*
X12700000Y-17780000D03*
X44450000Y-81915000D03*
X44450000Y-79375000D03*
X44450000Y-76835000D03*
X44450000Y-74295000D03*
X44450000Y-71755000D03*
X44450000Y-69215000D03*
X44450000Y-66675000D03*
X36830000Y-66675000D03*
X36830000Y-69215000D03*
X36830000Y-71755000D03*
X36830000Y-74295000D03*
X36830000Y-76835000D03*
X36830000Y-79375000D03*
X36830000Y-81915000D03*
D19*
X43180000Y-33655000D03*
X40640000Y-31115000D03*
X38100000Y-33655000D03*
D14*
X40640000Y-17780000D03*
X40640000Y-15240000D03*
X30480000Y-27305000D03*
X30480000Y-24765000D03*
X30480000Y-22225000D03*
X30480000Y-19685000D03*
X30480000Y-17145000D03*
X30480000Y-14605000D03*
X30480000Y-12065000D03*
X22860000Y-12065000D03*
X22860000Y-14605000D03*
X22860000Y-17145000D03*
X22860000Y-19685000D03*
X22860000Y-22225000D03*
X22860000Y-24765000D03*
X22860000Y-27305000D03*
D12*
X50800000Y-85725000D03*
D13*
X50800000Y-75565000D03*
D12*
X30480000Y-85725000D03*
D13*
X30480000Y-75565000D03*
D14*
X8890000Y-66675000D03*
X8890000Y-69215000D03*
X8890000Y-71755000D03*
X8890000Y-74295000D03*
X8890000Y-76835000D03*
X8890000Y-79375000D03*
X8890000Y-81915000D03*
X16510000Y-81915000D03*
X16510000Y-79375000D03*
X16510000Y-76835000D03*
X16510000Y-74295000D03*
X16510000Y-71755000D03*
X16510000Y-69215000D03*
X16510000Y-66675000D03*
X11430000Y-85725000D03*
X8890000Y-85725000D03*
X39370000Y-85725000D03*
X36830000Y-85725000D03*
D15*
X3810000Y-3810000D03*
D16*
X26670000Y-31115000D03*
D12*
X33655000Y-75565000D03*
D13*
X33655000Y-85725000D03*
D14*
X36830000Y-12065000D03*
X36830000Y-14605000D03*
X36830000Y-17145000D03*
X36830000Y-19685000D03*
X36830000Y-22225000D03*
X36830000Y-24765000D03*
X36830000Y-27305000D03*
X44450000Y-27305000D03*
X44450000Y-24765000D03*
X44450000Y-22225000D03*
X44450000Y-19685000D03*
X44450000Y-17145000D03*
X44450000Y-14605000D03*
X44450000Y-12065000D03*
X8890000Y-37465000D03*
X8890000Y-40005000D03*
X8890000Y-42545000D03*
X8890000Y-45085000D03*
X8890000Y-47625000D03*
X8890000Y-50165000D03*
X8890000Y-52705000D03*
X8890000Y-55245000D03*
X16510000Y-55245000D03*
X16510000Y-52705000D03*
X16510000Y-50165000D03*
X16510000Y-47625000D03*
X16510000Y-45085000D03*
X16510000Y-42545000D03*
X16510000Y-40005000D03*
X16510000Y-37465000D03*
X12700000Y-47625000D03*
X12700000Y-45085000D03*
D12*
X19685000Y-8255000D03*
D13*
X19685000Y-18415000D03*
D12*
X49530000Y-8255000D03*
D13*
X49530000Y-18415000D03*
D14*
X40640000Y-72390000D03*
X40640000Y-69850000D03*
D12*
X2540000Y-85725000D03*
D13*
X2540000Y-75565000D03*
D14*
X40640000Y-24130000D03*
X40640000Y-21590000D03*
D12*
X49530000Y-20955000D03*
D13*
X49530000Y-31115000D03*
D12*
X19685000Y-73025000D03*
D13*
X19685000Y-62865000D03*
D18*
X44450000Y-7620000D03*
D13*
X36830000Y-7620000D03*
D14*
X30480000Y-88265000D03*
X27940000Y-88265000D03*
X25400000Y-88265000D03*
X22860000Y-88265000D03*
X22860000Y-95885000D03*
X25400000Y-95885000D03*
X27940000Y-95885000D03*
X30480000Y-95885000D03*
D12*
X33655000Y-8255000D03*
D13*
X33655000Y-18415000D03*
D16*
X26670000Y-46990000D03*
D17*
X26670000Y-49530000D03*
X26670000Y-52070000D03*
X26670000Y-54610000D03*
X26670000Y-57150000D03*
X26670000Y-59690000D03*
D16*
X52070000Y-10810000D03*
D17*
X52070000Y-13350000D03*
X52070000Y-15890000D03*
D16*
X22860000Y-1270000D03*
D17*
X25400000Y-1270000D03*
X27940000Y-1270000D03*
X30480000Y-1270000D03*
D16*
X52070000Y-42545000D03*
D17*
X52070000Y-45085000D03*
M02*
