%FSLAX45Y45*%
G04 Gerber Fmt 4.5, Leading zero omitted, Abs format (unit mm)*
G04 Created by KiCad (PCBNEW (6.0.0)) date 2022-08-08 23:08:56*
%MOMM*%
%LPD*%
G01*
G04 APERTURE LIST*
%TA.AperFunction,Profile*%
%ADD10C,0.100000*%
%TD*%
%ADD11C,0.200000*%
%ADD12C,0.320000*%
G04 APERTURE END LIST*
D10*
X127000Y0D02*
G75*
G03*
X0Y-127000I0J-127000D01*
G01*
X0Y-10541000D02*
G75*
G03*
X127000Y-10668000I127000J0D01*
G01*
X0Y-127000D02*
X0Y-10541000D01*
X5207000Y0D02*
X127000Y0D01*
X5334000Y-10541000D02*
X5334000Y-127000D01*
X127000Y-10668000D02*
X5207000Y-10668000D01*
X5207000Y-10668000D02*
G75*
G03*
X5334000Y-10541000I0J127000D01*
G01*
X5334000Y-127000D02*
G75*
G03*
X5207000Y0I-127000J0D01*
G01*
D11*
D12*
X221000Y-221000D02*
X541000Y-541000D01*
X541000Y-221000D02*
X221000Y-541000D01*
X2507000Y-10127000D02*
X2827000Y-10447000D01*
X2827000Y-10127000D02*
X2507000Y-10447000D01*
X4793000Y-221000D02*
X5113000Y-541000D01*
X5113000Y-221000D02*
X4793000Y-541000D01*
D11*
X252619Y-10983476D02*
X252619Y-10783476D01*
X300238Y-10783476D01*
X328810Y-10793000D01*
X347857Y-10812048D01*
X357381Y-10831095D01*
X366905Y-10869190D01*
X366905Y-10897762D01*
X357381Y-10935857D01*
X347857Y-10954905D01*
X328810Y-10973952D01*
X300238Y-10983476D01*
X252619Y-10983476D01*
X452619Y-10983476D02*
X452619Y-10850143D01*
X452619Y-10888238D02*
X462143Y-10869190D01*
X471667Y-10859667D01*
X490714Y-10850143D01*
X509762Y-10850143D01*
X576429Y-10983476D02*
X576429Y-10850143D01*
X576429Y-10783476D02*
X566905Y-10793000D01*
X576429Y-10802524D01*
X585952Y-10793000D01*
X576429Y-10783476D01*
X576429Y-10802524D01*
X700238Y-10983476D02*
X681190Y-10973952D01*
X671667Y-10954905D01*
X671667Y-10783476D01*
X805000Y-10983476D02*
X785952Y-10973952D01*
X776428Y-10954905D01*
X776428Y-10783476D01*
X1033571Y-10983476D02*
X1033571Y-10783476D01*
X1100238Y-10926333D01*
X1166905Y-10783476D01*
X1166905Y-10983476D01*
X1347857Y-10983476D02*
X1347857Y-10878714D01*
X1338333Y-10859667D01*
X1319286Y-10850143D01*
X1281190Y-10850143D01*
X1262143Y-10859667D01*
X1347857Y-10973952D02*
X1328810Y-10983476D01*
X1281190Y-10983476D01*
X1262143Y-10973952D01*
X1252619Y-10954905D01*
X1252619Y-10935857D01*
X1262143Y-10916810D01*
X1281190Y-10907286D01*
X1328810Y-10907286D01*
X1347857Y-10897762D01*
X1443095Y-10850143D02*
X1443095Y-11050143D01*
X1443095Y-10859667D02*
X1462143Y-10850143D01*
X1500238Y-10850143D01*
X1519286Y-10859667D01*
X1528809Y-10869190D01*
X1538333Y-10888238D01*
X1538333Y-10945381D01*
X1528809Y-10964429D01*
X1519286Y-10973952D01*
X1500238Y-10983476D01*
X1462143Y-10983476D01*
X1443095Y-10973952D01*
X1624048Y-10964429D02*
X1633571Y-10973952D01*
X1624048Y-10983476D01*
X1614524Y-10973952D01*
X1624048Y-10964429D01*
X1624048Y-10983476D01*
X1624048Y-10859667D02*
X1633571Y-10869190D01*
X1624048Y-10878714D01*
X1614524Y-10869190D01*
X1624048Y-10859667D01*
X1624048Y-10878714D01*
X-205000Y-11213000D02*
X-5000Y-11413000D01*
X-5000Y-11213000D02*
X-205000Y-11413000D01*
X233571Y-11203476D02*
X357381Y-11203476D01*
X290714Y-11279667D01*
X319286Y-11279667D01*
X338333Y-11289190D01*
X347857Y-11298714D01*
X357381Y-11317762D01*
X357381Y-11365381D01*
X347857Y-11384428D01*
X338333Y-11393952D01*
X319286Y-11403476D01*
X262143Y-11403476D01*
X243095Y-11393952D01*
X233571Y-11384428D01*
X443095Y-11384428D02*
X452619Y-11393952D01*
X443095Y-11403476D01*
X433571Y-11393952D01*
X443095Y-11384428D01*
X443095Y-11403476D01*
X528810Y-11222524D02*
X538333Y-11213000D01*
X557381Y-11203476D01*
X605000Y-11203476D01*
X624048Y-11213000D01*
X633571Y-11222524D01*
X643095Y-11241571D01*
X643095Y-11260619D01*
X633571Y-11289190D01*
X519286Y-11403476D01*
X643095Y-11403476D01*
X766905Y-11203476D02*
X785952Y-11203476D01*
X805000Y-11213000D01*
X814524Y-11222524D01*
X824048Y-11241571D01*
X833571Y-11279667D01*
X833571Y-11327286D01*
X824048Y-11365381D01*
X814524Y-11384428D01*
X805000Y-11393952D01*
X785952Y-11403476D01*
X766905Y-11403476D01*
X747857Y-11393952D01*
X738333Y-11384428D01*
X728809Y-11365381D01*
X719286Y-11327286D01*
X719286Y-11279667D01*
X728809Y-11241571D01*
X738333Y-11222524D01*
X747857Y-11213000D01*
X766905Y-11203476D01*
X957381Y-11203476D02*
X976428Y-11203476D01*
X995476Y-11213000D01*
X1005000Y-11222524D01*
X1014524Y-11241571D01*
X1024048Y-11279667D01*
X1024048Y-11327286D01*
X1014524Y-11365381D01*
X1005000Y-11384428D01*
X995476Y-11393952D01*
X976428Y-11403476D01*
X957381Y-11403476D01*
X938333Y-11393952D01*
X928809Y-11384428D01*
X919286Y-11365381D01*
X909762Y-11327286D01*
X909762Y-11279667D01*
X919286Y-11241571D01*
X928809Y-11222524D01*
X938333Y-11213000D01*
X957381Y-11203476D01*
X1109762Y-11403476D02*
X1109762Y-11270143D01*
X1109762Y-11289190D02*
X1119286Y-11279667D01*
X1138333Y-11270143D01*
X1166905Y-11270143D01*
X1185952Y-11279667D01*
X1195476Y-11298714D01*
X1195476Y-11403476D01*
X1195476Y-11298714D02*
X1205000Y-11279667D01*
X1224048Y-11270143D01*
X1252619Y-11270143D01*
X1271667Y-11279667D01*
X1281190Y-11298714D01*
X1281190Y-11403476D01*
X1376429Y-11403476D02*
X1376429Y-11270143D01*
X1376429Y-11289190D02*
X1385952Y-11279667D01*
X1405000Y-11270143D01*
X1433571Y-11270143D01*
X1452619Y-11279667D01*
X1462143Y-11298714D01*
X1462143Y-11403476D01*
X1462143Y-11298714D02*
X1471667Y-11279667D01*
X1490714Y-11270143D01*
X1519286Y-11270143D01*
X1538333Y-11279667D01*
X1547857Y-11298714D01*
X1547857Y-11403476D01*
X1938333Y-11193952D02*
X1766905Y-11451095D01*
X2195476Y-11203476D02*
X2214524Y-11203476D01*
X2233571Y-11213000D01*
X2243095Y-11222524D01*
X2252619Y-11241571D01*
X2262143Y-11279667D01*
X2262143Y-11327286D01*
X2252619Y-11365381D01*
X2243095Y-11384428D01*
X2233571Y-11393952D01*
X2214524Y-11403476D01*
X2195476Y-11403476D01*
X2176429Y-11393952D01*
X2166905Y-11384428D01*
X2157381Y-11365381D01*
X2147857Y-11327286D01*
X2147857Y-11279667D01*
X2157381Y-11241571D01*
X2166905Y-11222524D01*
X2176429Y-11213000D01*
X2195476Y-11203476D01*
X2347857Y-11384428D02*
X2357381Y-11393952D01*
X2347857Y-11403476D01*
X2338333Y-11393952D01*
X2347857Y-11384428D01*
X2347857Y-11403476D01*
X2547857Y-11403476D02*
X2433571Y-11403476D01*
X2490714Y-11403476D02*
X2490714Y-11203476D01*
X2471667Y-11232048D01*
X2452619Y-11251095D01*
X2433571Y-11260619D01*
X2624048Y-11222524D02*
X2633571Y-11213000D01*
X2652619Y-11203476D01*
X2700238Y-11203476D01*
X2719286Y-11213000D01*
X2728810Y-11222524D01*
X2738333Y-11241571D01*
X2738333Y-11260619D01*
X2728810Y-11289190D01*
X2614524Y-11403476D01*
X2738333Y-11403476D01*
X2909762Y-11203476D02*
X2871667Y-11203476D01*
X2852619Y-11213000D01*
X2843095Y-11222524D01*
X2824048Y-11251095D01*
X2814524Y-11289190D01*
X2814524Y-11365381D01*
X2824048Y-11384428D01*
X2833571Y-11393952D01*
X2852619Y-11403476D01*
X2890714Y-11403476D01*
X2909762Y-11393952D01*
X2919286Y-11384428D01*
X2928809Y-11365381D01*
X2928809Y-11317762D01*
X2919286Y-11298714D01*
X2909762Y-11289190D01*
X2890714Y-11279667D01*
X2852619Y-11279667D01*
X2833571Y-11289190D01*
X2824048Y-11298714D01*
X2814524Y-11317762D01*
X3052619Y-11203476D02*
X3071667Y-11203476D01*
X3090714Y-11213000D01*
X3100238Y-11222524D01*
X3109762Y-11241571D01*
X3119286Y-11279667D01*
X3119286Y-11327286D01*
X3109762Y-11365381D01*
X3100238Y-11384428D01*
X3090714Y-11393952D01*
X3071667Y-11403476D01*
X3052619Y-11403476D01*
X3033571Y-11393952D01*
X3024048Y-11384428D01*
X3014524Y-11365381D01*
X3005000Y-11327286D01*
X3005000Y-11279667D01*
X3014524Y-11241571D01*
X3024048Y-11222524D01*
X3033571Y-11213000D01*
X3052619Y-11203476D01*
X3195476Y-11203476D02*
X3195476Y-11241571D01*
X3271667Y-11203476D02*
X3271667Y-11241571D01*
X3566905Y-11479667D02*
X3557381Y-11470143D01*
X3538333Y-11441571D01*
X3528809Y-11422524D01*
X3519286Y-11393952D01*
X3509762Y-11346333D01*
X3509762Y-11308238D01*
X3519286Y-11260619D01*
X3528809Y-11232048D01*
X3538333Y-11213000D01*
X3557381Y-11184429D01*
X3566905Y-11174905D01*
X3624048Y-11203476D02*
X3747857Y-11203476D01*
X3681190Y-11279667D01*
X3709762Y-11279667D01*
X3728809Y-11289190D01*
X3738333Y-11298714D01*
X3747857Y-11317762D01*
X3747857Y-11365381D01*
X3738333Y-11384428D01*
X3728809Y-11393952D01*
X3709762Y-11403476D01*
X3652619Y-11403476D01*
X3633571Y-11393952D01*
X3624048Y-11384428D01*
X3985952Y-11403476D02*
X3985952Y-11203476D01*
X4071667Y-11403476D02*
X4071667Y-11298714D01*
X4062143Y-11279667D01*
X4043095Y-11270143D01*
X4014524Y-11270143D01*
X3995476Y-11279667D01*
X3985952Y-11289190D01*
X4195476Y-11403476D02*
X4176428Y-11393952D01*
X4166905Y-11384428D01*
X4157381Y-11365381D01*
X4157381Y-11308238D01*
X4166905Y-11289190D01*
X4176428Y-11279667D01*
X4195476Y-11270143D01*
X4224048Y-11270143D01*
X4243095Y-11279667D01*
X4252619Y-11289190D01*
X4262143Y-11308238D01*
X4262143Y-11365381D01*
X4252619Y-11384428D01*
X4243095Y-11393952D01*
X4224048Y-11403476D01*
X4195476Y-11403476D01*
X4376429Y-11403476D02*
X4357381Y-11393952D01*
X4347857Y-11374905D01*
X4347857Y-11203476D01*
X4528810Y-11393952D02*
X4509762Y-11403476D01*
X4471667Y-11403476D01*
X4452619Y-11393952D01*
X4443095Y-11374905D01*
X4443095Y-11298714D01*
X4452619Y-11279667D01*
X4471667Y-11270143D01*
X4509762Y-11270143D01*
X4528810Y-11279667D01*
X4538333Y-11298714D01*
X4538333Y-11317762D01*
X4443095Y-11336809D01*
X4614524Y-11393952D02*
X4633571Y-11403476D01*
X4671667Y-11403476D01*
X4690714Y-11393952D01*
X4700238Y-11374905D01*
X4700238Y-11365381D01*
X4690714Y-11346333D01*
X4671667Y-11336809D01*
X4643095Y-11336809D01*
X4624048Y-11327286D01*
X4614524Y-11308238D01*
X4614524Y-11298714D01*
X4624048Y-11279667D01*
X4643095Y-11270143D01*
X4671667Y-11270143D01*
X4690714Y-11279667D01*
X4766905Y-11479667D02*
X4776429Y-11470143D01*
X4795476Y-11441571D01*
X4805000Y-11422524D01*
X4814524Y-11393952D01*
X4824048Y-11346333D01*
X4824048Y-11308238D01*
X4814524Y-11260619D01*
X4805000Y-11232048D01*
X4795476Y-11213000D01*
X4776429Y-11184429D01*
X4766905Y-11174905D01*
X5128810Y-11479667D02*
X5119286Y-11470143D01*
X5100238Y-11441571D01*
X5090714Y-11422524D01*
X5081190Y-11393952D01*
X5071667Y-11346333D01*
X5071667Y-11308238D01*
X5081190Y-11260619D01*
X5090714Y-11232048D01*
X5100238Y-11213000D01*
X5119286Y-11184429D01*
X5128810Y-11174905D01*
X5205000Y-11270143D02*
X5205000Y-11403476D01*
X5205000Y-11289190D02*
X5214524Y-11279667D01*
X5233571Y-11270143D01*
X5262143Y-11270143D01*
X5281190Y-11279667D01*
X5290714Y-11298714D01*
X5290714Y-11403476D01*
X5414524Y-11403476D02*
X5395476Y-11393952D01*
X5385952Y-11384428D01*
X5376429Y-11365381D01*
X5376429Y-11308238D01*
X5385952Y-11289190D01*
X5395476Y-11279667D01*
X5414524Y-11270143D01*
X5443095Y-11270143D01*
X5462143Y-11279667D01*
X5471667Y-11289190D01*
X5481190Y-11308238D01*
X5481190Y-11365381D01*
X5471667Y-11384428D01*
X5462143Y-11393952D01*
X5443095Y-11403476D01*
X5414524Y-11403476D01*
X5538333Y-11270143D02*
X5614524Y-11270143D01*
X5566905Y-11203476D02*
X5566905Y-11374905D01*
X5576429Y-11393952D01*
X5595476Y-11403476D01*
X5614524Y-11403476D01*
X5833571Y-11270143D02*
X5833571Y-11470143D01*
X5833571Y-11279667D02*
X5852619Y-11270143D01*
X5890714Y-11270143D01*
X5909762Y-11279667D01*
X5919286Y-11289190D01*
X5928809Y-11308238D01*
X5928809Y-11365381D01*
X5919286Y-11384428D01*
X5909762Y-11393952D01*
X5890714Y-11403476D01*
X5852619Y-11403476D01*
X5833571Y-11393952D01*
X6043095Y-11403476D02*
X6024048Y-11393952D01*
X6014524Y-11374905D01*
X6014524Y-11203476D01*
X6205000Y-11403476D02*
X6205000Y-11298714D01*
X6195476Y-11279667D01*
X6176428Y-11270143D01*
X6138333Y-11270143D01*
X6119286Y-11279667D01*
X6205000Y-11393952D02*
X6185952Y-11403476D01*
X6138333Y-11403476D01*
X6119286Y-11393952D01*
X6109762Y-11374905D01*
X6109762Y-11355857D01*
X6119286Y-11336809D01*
X6138333Y-11327286D01*
X6185952Y-11327286D01*
X6205000Y-11317762D01*
X6271667Y-11270143D02*
X6347857Y-11270143D01*
X6300238Y-11203476D02*
X6300238Y-11374905D01*
X6309762Y-11393952D01*
X6328809Y-11403476D01*
X6347857Y-11403476D01*
X6490714Y-11393952D02*
X6471667Y-11403476D01*
X6433571Y-11403476D01*
X6414524Y-11393952D01*
X6405000Y-11374905D01*
X6405000Y-11298714D01*
X6414524Y-11279667D01*
X6433571Y-11270143D01*
X6471667Y-11270143D01*
X6490714Y-11279667D01*
X6500238Y-11298714D01*
X6500238Y-11317762D01*
X6405000Y-11336809D01*
X6671667Y-11403476D02*
X6671667Y-11203476D01*
X6671667Y-11393952D02*
X6652619Y-11403476D01*
X6614524Y-11403476D01*
X6595476Y-11393952D01*
X6585952Y-11384428D01*
X6576428Y-11365381D01*
X6576428Y-11308238D01*
X6585952Y-11289190D01*
X6595476Y-11279667D01*
X6614524Y-11270143D01*
X6652619Y-11270143D01*
X6671667Y-11279667D01*
X6747857Y-11479667D02*
X6757381Y-11470143D01*
X6776428Y-11441571D01*
X6785952Y-11422524D01*
X6795476Y-11393952D01*
X6805000Y-11346333D01*
X6805000Y-11308238D01*
X6795476Y-11260619D01*
X6785952Y-11232048D01*
X6776428Y-11213000D01*
X6757381Y-11184429D01*
X6747857Y-11174905D01*
M02*
