%FSLAX45Y45*%
G04 Gerber Fmt 4.5, Leading zero omitted, Abs format (unit mm)*
G04 Created by KiCad (PCBNEW (6.0.0)) date 2022-08-08 23:08:56*
%MOMM*%
%LPD*%
G01*
G04 APERTURE LIST*
%TA.AperFunction,Profile*%
%ADD10C,0.100000*%
%TD*%
%ADD11C,0.200000*%
%ADD12C,0.076200*%
%ADD13C,0.080000*%
%ADD14C,0.100000*%
G04 APERTURE END LIST*
D10*
X127000Y0D02*
G75*
G03*
X0Y-127000I0J-127000D01*
G01*
X0Y-10541000D02*
G75*
G03*
X127000Y-10668000I127000J0D01*
G01*
X0Y-127000D02*
X0Y-10541000D01*
X5207000Y0D02*
X127000Y0D01*
X5334000Y-10541000D02*
X5334000Y-127000D01*
X127000Y-10668000D02*
X5207000Y-10668000D01*
X5207000Y-10668000D02*
G75*
G03*
X5334000Y-10541000I0J127000D01*
G01*
X5334000Y-127000D02*
G75*
G03*
X5207000Y0I-127000J0D01*
G01*
D11*
D12*
X850900Y-1168400D02*
X927100Y-1244600D01*
X927100Y-1168400D02*
X850900Y-1244600D01*
X850900Y-1422400D02*
X927100Y-1498600D01*
X927100Y-1422400D02*
X850900Y-1498600D01*
X850900Y-1676400D02*
X927100Y-1752600D01*
X927100Y-1676400D02*
X850900Y-1752600D01*
X850900Y-1930400D02*
X927100Y-2006600D01*
X927100Y-1930400D02*
X850900Y-2006600D01*
X850900Y-2184400D02*
X927100Y-2260600D01*
X927100Y-2184400D02*
X850900Y-2260600D01*
X850900Y-2438400D02*
X927100Y-2514600D01*
X927100Y-2438400D02*
X850900Y-2514600D01*
X850900Y-2692400D02*
X927100Y-2768600D01*
X927100Y-2692400D02*
X850900Y-2768600D01*
X850900Y-3708400D02*
X927100Y-3784600D01*
X927100Y-3708400D02*
X850900Y-3784600D01*
X850900Y-3962400D02*
X927100Y-4038600D01*
X927100Y-3962400D02*
X850900Y-4038600D01*
X850900Y-4216400D02*
X927100Y-4292600D01*
X927100Y-4216400D02*
X850900Y-4292600D01*
X850900Y-4470400D02*
X927100Y-4546600D01*
X927100Y-4470400D02*
X850900Y-4546600D01*
X850900Y-4724400D02*
X927100Y-4800600D01*
X927100Y-4724400D02*
X850900Y-4800600D01*
X850900Y-4978400D02*
X927100Y-5054600D01*
X927100Y-4978400D02*
X850900Y-5054600D01*
X850900Y-5232400D02*
X927100Y-5308600D01*
X927100Y-5232400D02*
X850900Y-5308600D01*
X850900Y-5486400D02*
X927100Y-5562600D01*
X927100Y-5486400D02*
X850900Y-5562600D01*
X850900Y-6248400D02*
X927100Y-6324600D01*
X927100Y-6248400D02*
X850900Y-6324600D01*
X850900Y-6629400D02*
X927100Y-6705600D01*
X927100Y-6629400D02*
X850900Y-6705600D01*
X850900Y-6883400D02*
X927100Y-6959600D01*
X927100Y-6883400D02*
X850900Y-6959600D01*
X850900Y-7137400D02*
X927100Y-7213600D01*
X927100Y-7137400D02*
X850900Y-7213600D01*
X850900Y-7391400D02*
X927100Y-7467600D01*
X927100Y-7391400D02*
X850900Y-7467600D01*
X850900Y-7645400D02*
X927100Y-7721600D01*
X927100Y-7645400D02*
X850900Y-7721600D01*
X850900Y-7899400D02*
X927100Y-7975600D01*
X927100Y-7899400D02*
X850900Y-7975600D01*
X850900Y-8153400D02*
X927100Y-8229600D01*
X927100Y-8153400D02*
X850900Y-8229600D01*
X850900Y-8534400D02*
X927100Y-8610600D01*
X927100Y-8534400D02*
X850900Y-8610600D01*
X1104900Y-6248400D02*
X1181100Y-6324600D01*
X1181100Y-6248400D02*
X1104900Y-6324600D01*
X1104900Y-8534400D02*
X1181100Y-8610600D01*
X1181100Y-8534400D02*
X1104900Y-8610600D01*
X1231900Y-1485900D02*
X1308100Y-1562100D01*
X1308100Y-1485900D02*
X1231900Y-1562100D01*
X1231900Y-1739900D02*
X1308100Y-1816100D01*
X1308100Y-1739900D02*
X1231900Y-1816100D01*
X1231900Y-2120900D02*
X1308100Y-2197100D01*
X1308100Y-2120900D02*
X1231900Y-2197100D01*
X1231900Y-2374900D02*
X1308100Y-2451100D01*
X1308100Y-2374900D02*
X1231900Y-2451100D01*
X1231900Y-4470400D02*
X1308100Y-4546600D01*
X1308100Y-4470400D02*
X1231900Y-4546600D01*
X1231900Y-4724400D02*
X1308100Y-4800600D01*
X1308100Y-4724400D02*
X1231900Y-4800600D01*
X1231900Y-6946900D02*
X1308100Y-7023100D01*
X1308100Y-6946900D02*
X1231900Y-7023100D01*
X1231900Y-7200900D02*
X1308100Y-7277100D01*
X1308100Y-7200900D02*
X1231900Y-7277100D01*
X1231900Y-7581900D02*
X1308100Y-7658100D01*
X1308100Y-7581900D02*
X1231900Y-7658100D01*
X1231900Y-7835900D02*
X1308100Y-7912100D01*
X1308100Y-7835900D02*
X1231900Y-7912100D01*
X1358900Y-6248400D02*
X1435100Y-6324600D01*
X1435100Y-6248400D02*
X1358900Y-6324600D01*
X1612900Y-1168400D02*
X1689100Y-1244600D01*
X1689100Y-1168400D02*
X1612900Y-1244600D01*
X1612900Y-1422400D02*
X1689100Y-1498600D01*
X1689100Y-1422400D02*
X1612900Y-1498600D01*
X1612900Y-1676400D02*
X1689100Y-1752600D01*
X1689100Y-1676400D02*
X1612900Y-1752600D01*
X1612900Y-1930400D02*
X1689100Y-2006600D01*
X1689100Y-1930400D02*
X1612900Y-2006600D01*
X1612900Y-2184400D02*
X1689100Y-2260600D01*
X1689100Y-2184400D02*
X1612900Y-2260600D01*
X1612900Y-2438400D02*
X1689100Y-2514600D01*
X1689100Y-2438400D02*
X1612900Y-2514600D01*
X1612900Y-2692400D02*
X1689100Y-2768600D01*
X1689100Y-2692400D02*
X1612900Y-2768600D01*
X1612900Y-3708400D02*
X1689100Y-3784600D01*
X1689100Y-3708400D02*
X1612900Y-3784600D01*
X1612900Y-3962400D02*
X1689100Y-4038600D01*
X1689100Y-3962400D02*
X1612900Y-4038600D01*
X1612900Y-4216400D02*
X1689100Y-4292600D01*
X1689100Y-4216400D02*
X1612900Y-4292600D01*
X1612900Y-4470400D02*
X1689100Y-4546600D01*
X1689100Y-4470400D02*
X1612900Y-4546600D01*
X1612900Y-4724400D02*
X1689100Y-4800600D01*
X1689100Y-4724400D02*
X1612900Y-4800600D01*
X1612900Y-4978400D02*
X1689100Y-5054600D01*
X1689100Y-4978400D02*
X1612900Y-5054600D01*
X1612900Y-5232400D02*
X1689100Y-5308600D01*
X1689100Y-5232400D02*
X1612900Y-5308600D01*
X1612900Y-5486400D02*
X1689100Y-5562600D01*
X1689100Y-5486400D02*
X1612900Y-5562600D01*
X1612900Y-6248400D02*
X1689100Y-6324600D01*
X1689100Y-6248400D02*
X1612900Y-6324600D01*
X1612900Y-6629400D02*
X1689100Y-6705600D01*
X1689100Y-6629400D02*
X1612900Y-6705600D01*
X1612900Y-6883400D02*
X1689100Y-6959600D01*
X1689100Y-6883400D02*
X1612900Y-6959600D01*
X1612900Y-7137400D02*
X1689100Y-7213600D01*
X1689100Y-7137400D02*
X1612900Y-7213600D01*
X1612900Y-7391400D02*
X1689100Y-7467600D01*
X1689100Y-7391400D02*
X1612900Y-7467600D01*
X1612900Y-7645400D02*
X1689100Y-7721600D01*
X1689100Y-7645400D02*
X1612900Y-7721600D01*
X1612900Y-7899400D02*
X1689100Y-7975600D01*
X1689100Y-7899400D02*
X1612900Y-7975600D01*
X1612900Y-8153400D02*
X1689100Y-8229600D01*
X1689100Y-8153400D02*
X1612900Y-8229600D01*
X2247900Y-1168400D02*
X2324100Y-1244600D01*
X2324100Y-1168400D02*
X2247900Y-1244600D01*
X2247900Y-1422400D02*
X2324100Y-1498600D01*
X2324100Y-1422400D02*
X2247900Y-1498600D01*
X2247900Y-1676400D02*
X2324100Y-1752600D01*
X2324100Y-1676400D02*
X2247900Y-1752600D01*
X2247900Y-1930400D02*
X2324100Y-2006600D01*
X2324100Y-1930400D02*
X2247900Y-2006600D01*
X2247900Y-2184400D02*
X2324100Y-2260600D01*
X2324100Y-2184400D02*
X2247900Y-2260600D01*
X2247900Y-2438400D02*
X2324100Y-2514600D01*
X2324100Y-2438400D02*
X2247900Y-2514600D01*
X2247900Y-2692400D02*
X2324100Y-2768600D01*
X2324100Y-2692400D02*
X2247900Y-2768600D01*
X2247900Y-8788400D02*
X2324100Y-8864600D01*
X2324100Y-8788400D02*
X2247900Y-8864600D01*
X2247900Y-9550400D02*
X2324100Y-9626600D01*
X2324100Y-9550400D02*
X2247900Y-9626600D01*
X2501900Y-8788400D02*
X2578100Y-8864600D01*
X2578100Y-8788400D02*
X2501900Y-8864600D01*
X2501900Y-9169400D02*
X2578100Y-9245600D01*
X2578100Y-9169400D02*
X2501900Y-9245600D01*
X2501900Y-9550400D02*
X2578100Y-9626600D01*
X2578100Y-9550400D02*
X2501900Y-9626600D01*
X2501900Y-9804400D02*
X2578100Y-9880600D01*
X2578100Y-9804400D02*
X2501900Y-9880600D01*
X2628900Y-1549400D02*
X2705100Y-1625600D01*
X2705100Y-1549400D02*
X2628900Y-1625600D01*
X2628900Y-1803400D02*
X2705100Y-1879600D01*
X2705100Y-1803400D02*
X2628900Y-1879600D01*
X2755900Y-8788400D02*
X2832100Y-8864600D01*
X2832100Y-8788400D02*
X2755900Y-8864600D01*
X2755900Y-9169400D02*
X2832100Y-9245600D01*
X2832100Y-9169400D02*
X2755900Y-9245600D01*
X2755900Y-9550400D02*
X2832100Y-9626600D01*
X2832100Y-9550400D02*
X2755900Y-9626600D01*
X2755900Y-9804400D02*
X2832100Y-9880600D01*
X2832100Y-9804400D02*
X2755900Y-9880600D01*
X3009900Y-1168400D02*
X3086100Y-1244600D01*
X3086100Y-1168400D02*
X3009900Y-1244600D01*
X3009900Y-1422400D02*
X3086100Y-1498600D01*
X3086100Y-1422400D02*
X3009900Y-1498600D01*
X3009900Y-1676400D02*
X3086100Y-1752600D01*
X3086100Y-1676400D02*
X3009900Y-1752600D01*
X3009900Y-1930400D02*
X3086100Y-2006600D01*
X3086100Y-1930400D02*
X3009900Y-2006600D01*
X3009900Y-2184400D02*
X3086100Y-2260600D01*
X3086100Y-2184400D02*
X3009900Y-2260600D01*
X3009900Y-2438400D02*
X3086100Y-2514600D01*
X3086100Y-2438400D02*
X3009900Y-2514600D01*
X3009900Y-2692400D02*
X3086100Y-2768600D01*
X3086100Y-2692400D02*
X3009900Y-2768600D01*
X3009900Y-8788400D02*
X3086100Y-8864600D01*
X3086100Y-8788400D02*
X3009900Y-8864600D01*
X3009900Y-9550400D02*
X3086100Y-9626600D01*
X3086100Y-9550400D02*
X3009900Y-9626600D01*
X3644900Y-1168400D02*
X3721100Y-1244600D01*
X3721100Y-1168400D02*
X3644900Y-1244600D01*
X3644900Y-1422400D02*
X3721100Y-1498600D01*
X3721100Y-1422400D02*
X3644900Y-1498600D01*
X3644900Y-1676400D02*
X3721100Y-1752600D01*
X3721100Y-1676400D02*
X3644900Y-1752600D01*
X3644900Y-1930400D02*
X3721100Y-2006600D01*
X3721100Y-1930400D02*
X3644900Y-2006600D01*
X3644900Y-2184400D02*
X3721100Y-2260600D01*
X3721100Y-2184400D02*
X3644900Y-2260600D01*
X3644900Y-2438400D02*
X3721100Y-2514600D01*
X3721100Y-2438400D02*
X3644900Y-2514600D01*
X3644900Y-2692400D02*
X3721100Y-2768600D01*
X3721100Y-2692400D02*
X3644900Y-2768600D01*
X3644900Y-3962400D02*
X3721100Y-4038600D01*
X3721100Y-3962400D02*
X3644900Y-4038600D01*
X3644900Y-4216400D02*
X3721100Y-4292600D01*
X3721100Y-4216400D02*
X3644900Y-4292600D01*
X3644900Y-4470400D02*
X3721100Y-4546600D01*
X3721100Y-4470400D02*
X3644900Y-4546600D01*
X3644900Y-4724400D02*
X3721100Y-4800600D01*
X3721100Y-4724400D02*
X3644900Y-4800600D01*
X3644900Y-4978400D02*
X3721100Y-5054600D01*
X3721100Y-4978400D02*
X3644900Y-5054600D01*
X3644900Y-5232400D02*
X3721100Y-5308600D01*
X3721100Y-5232400D02*
X3644900Y-5308600D01*
X3644900Y-5486400D02*
X3721100Y-5562600D01*
X3721100Y-5486400D02*
X3644900Y-5562600D01*
X3644900Y-6629400D02*
X3721100Y-6705600D01*
X3721100Y-6629400D02*
X3644900Y-6705600D01*
X3644900Y-6883400D02*
X3721100Y-6959600D01*
X3721100Y-6883400D02*
X3644900Y-6959600D01*
X3644900Y-7137400D02*
X3721100Y-7213600D01*
X3721100Y-7137400D02*
X3644900Y-7213600D01*
X3644900Y-7391400D02*
X3721100Y-7467600D01*
X3721100Y-7391400D02*
X3644900Y-7467600D01*
X3644900Y-7645400D02*
X3721100Y-7721600D01*
X3721100Y-7645400D02*
X3644900Y-7721600D01*
X3644900Y-7899400D02*
X3721100Y-7975600D01*
X3721100Y-7899400D02*
X3644900Y-7975600D01*
X3644900Y-8153400D02*
X3721100Y-8229600D01*
X3721100Y-8153400D02*
X3644900Y-8229600D01*
X3644900Y-8534400D02*
X3721100Y-8610600D01*
X3721100Y-8534400D02*
X3644900Y-8610600D01*
X3898900Y-8534400D02*
X3975100Y-8610600D01*
X3975100Y-8534400D02*
X3898900Y-8610600D01*
X4025900Y-1485900D02*
X4102100Y-1562100D01*
X4102100Y-1485900D02*
X4025900Y-1562100D01*
X4025900Y-1739900D02*
X4102100Y-1816100D01*
X4102100Y-1739900D02*
X4025900Y-1816100D01*
X4025900Y-2120900D02*
X4102100Y-2197100D01*
X4102100Y-2120900D02*
X4025900Y-2197100D01*
X4025900Y-2374900D02*
X4102100Y-2451100D01*
X4102100Y-2374900D02*
X4025900Y-2451100D01*
X4025900Y-4851400D02*
X4102100Y-4927600D01*
X4102100Y-4851400D02*
X4025900Y-4927600D01*
X4025900Y-5105400D02*
X4102100Y-5181600D01*
X4102100Y-5105400D02*
X4025900Y-5181600D01*
X4025900Y-6946900D02*
X4102100Y-7023100D01*
X4102100Y-6946900D02*
X4025900Y-7023100D01*
X4025900Y-7200900D02*
X4102100Y-7277100D01*
X4102100Y-7200900D02*
X4025900Y-7277100D01*
X4025900Y-7581900D02*
X4102100Y-7658100D01*
X4102100Y-7581900D02*
X4025900Y-7658100D01*
X4025900Y-7835900D02*
X4102100Y-7912100D01*
X4102100Y-7835900D02*
X4025900Y-7912100D01*
X4152900Y-8534400D02*
X4229100Y-8610600D01*
X4229100Y-8534400D02*
X4152900Y-8610600D01*
X4406900Y-1168400D02*
X4483100Y-1244600D01*
X4483100Y-1168400D02*
X4406900Y-1244600D01*
X4406900Y-1422400D02*
X4483100Y-1498600D01*
X4483100Y-1422400D02*
X4406900Y-1498600D01*
X4406900Y-1676400D02*
X4483100Y-1752600D01*
X4483100Y-1676400D02*
X4406900Y-1752600D01*
X4406900Y-1930400D02*
X4483100Y-2006600D01*
X4483100Y-1930400D02*
X4406900Y-2006600D01*
X4406900Y-2184400D02*
X4483100Y-2260600D01*
X4483100Y-2184400D02*
X4406900Y-2260600D01*
X4406900Y-2438400D02*
X4483100Y-2514600D01*
X4483100Y-2438400D02*
X4406900Y-2514600D01*
X4406900Y-2692400D02*
X4483100Y-2768600D01*
X4483100Y-2692400D02*
X4406900Y-2768600D01*
X4406900Y-3962400D02*
X4483100Y-4038600D01*
X4483100Y-3962400D02*
X4406900Y-4038600D01*
X4406900Y-4216400D02*
X4483100Y-4292600D01*
X4483100Y-4216400D02*
X4406900Y-4292600D01*
X4406900Y-4470400D02*
X4483100Y-4546600D01*
X4483100Y-4470400D02*
X4406900Y-4546600D01*
X4406900Y-4724400D02*
X4483100Y-4800600D01*
X4483100Y-4724400D02*
X4406900Y-4800600D01*
X4406900Y-4978400D02*
X4483100Y-5054600D01*
X4483100Y-4978400D02*
X4406900Y-5054600D01*
X4406900Y-5232400D02*
X4483100Y-5308600D01*
X4483100Y-5232400D02*
X4406900Y-5308600D01*
X4406900Y-5486400D02*
X4483100Y-5562600D01*
X4483100Y-5486400D02*
X4406900Y-5562600D01*
X4406900Y-6629400D02*
X4483100Y-6705600D01*
X4483100Y-6629400D02*
X4406900Y-6705600D01*
X4406900Y-6883400D02*
X4483100Y-6959600D01*
X4483100Y-6883400D02*
X4406900Y-6959600D01*
X4406900Y-7137400D02*
X4483100Y-7213600D01*
X4483100Y-7137400D02*
X4406900Y-7213600D01*
X4406900Y-7391400D02*
X4483100Y-7467600D01*
X4483100Y-7391400D02*
X4406900Y-7467600D01*
X4406900Y-7645400D02*
X4483100Y-7721600D01*
X4483100Y-7645400D02*
X4406900Y-7721600D01*
X4406900Y-7899400D02*
X4483100Y-7975600D01*
X4483100Y-7899400D02*
X4406900Y-7975600D01*
X4406900Y-8153400D02*
X4483100Y-8229600D01*
X4483100Y-8153400D02*
X4406900Y-8229600D01*
X4406900Y-8534400D02*
X4483100Y-8610600D01*
X4483100Y-8534400D02*
X4406900Y-8610600D01*
D13*
X294000Y-6286500D02*
G75*
G03*
X294000Y-6286500I-40000J0D01*
G01*
X294000Y-7302500D02*
G75*
G03*
X294000Y-7302500I-40000J0D01*
G01*
X294000Y-7556500D02*
G75*
G03*
X294000Y-7556500I-40000J0D01*
G01*
X294000Y-8572500D02*
G75*
G03*
X294000Y-8572500I-40000J0D01*
G01*
X611500Y-1460500D02*
G75*
G03*
X611500Y-1460500I-40000J0D01*
G01*
X611500Y-2476500D02*
G75*
G03*
X611500Y-2476500I-40000J0D01*
G01*
X611500Y-6286500D02*
G75*
G03*
X611500Y-6286500I-40000J0D01*
G01*
X611500Y-7302500D02*
G75*
G03*
X611500Y-7302500I-40000J0D01*
G01*
X611500Y-7556500D02*
G75*
G03*
X611500Y-7556500I-40000J0D01*
G01*
X611500Y-8572500D02*
G75*
G03*
X611500Y-8572500I-40000J0D01*
G01*
X2008500Y-825500D02*
G75*
G03*
X2008500Y-825500I-40000J0D01*
G01*
X2008500Y-1841500D02*
G75*
G03*
X2008500Y-1841500I-40000J0D01*
G01*
X2008500Y-2095500D02*
G75*
G03*
X2008500Y-2095500I-40000J0D01*
G01*
X2008500Y-3111500D02*
G75*
G03*
X2008500Y-3111500I-40000J0D01*
G01*
X2008500Y-6286500D02*
G75*
G03*
X2008500Y-6286500I-40000J0D01*
G01*
X2008500Y-7302500D02*
G75*
G03*
X2008500Y-7302500I-40000J0D01*
G01*
X2008500Y-7556500D02*
G75*
G03*
X2008500Y-7556500I-40000J0D01*
G01*
X2008500Y-8572500D02*
G75*
G03*
X2008500Y-8572500I-40000J0D01*
G01*
X2326000Y-7556500D02*
G75*
G03*
X2326000Y-7556500I-40000J0D01*
G01*
X2326000Y-8572500D02*
G75*
G03*
X2326000Y-8572500I-40000J0D01*
G01*
X3088000Y-6286500D02*
G75*
G03*
X3088000Y-6286500I-40000J0D01*
G01*
X3088000Y-7302500D02*
G75*
G03*
X3088000Y-7302500I-40000J0D01*
G01*
X3088000Y-7556500D02*
G75*
G03*
X3088000Y-7556500I-40000J0D01*
G01*
X3088000Y-8572500D02*
G75*
G03*
X3088000Y-8572500I-40000J0D01*
G01*
X3405500Y-825500D02*
G75*
G03*
X3405500Y-825500I-40000J0D01*
G01*
X3405500Y-1841500D02*
G75*
G03*
X3405500Y-1841500I-40000J0D01*
G01*
X3405500Y-2095500D02*
G75*
G03*
X3405500Y-2095500I-40000J0D01*
G01*
X3405500Y-3111500D02*
G75*
G03*
X3405500Y-3111500I-40000J0D01*
G01*
X3405500Y-3619500D02*
G75*
G03*
X3405500Y-3619500I-40000J0D01*
G01*
X3405500Y-4635500D02*
G75*
G03*
X3405500Y-4635500I-40000J0D01*
G01*
X3405500Y-4889500D02*
G75*
G03*
X3405500Y-4889500I-40000J0D01*
G01*
X3405500Y-5651500D02*
G75*
G03*
X3405500Y-5651500I-40000J0D01*
G01*
X3405500Y-6286500D02*
G75*
G03*
X3405500Y-6286500I-40000J0D01*
G01*
X3405500Y-7302500D02*
G75*
G03*
X3405500Y-7302500I-40000J0D01*
G01*
X3405500Y-7556500D02*
G75*
G03*
X3405500Y-7556500I-40000J0D01*
G01*
X3405500Y-8572500D02*
G75*
G03*
X3405500Y-8572500I-40000J0D01*
G01*
X3723000Y-762000D02*
G75*
G03*
X3723000Y-762000I-40000J0D01*
G01*
X3850000Y-317500D02*
G75*
G03*
X3850000Y-317500I-40000J0D01*
G01*
X3850000Y-3365500D02*
G75*
G03*
X3850000Y-3365500I-40000J0D01*
G01*
X4104000Y-317500D02*
G75*
G03*
X4104000Y-317500I-40000J0D01*
G01*
X4104000Y-3111500D02*
G75*
G03*
X4104000Y-3111500I-40000J0D01*
G01*
X4358000Y-317500D02*
G75*
G03*
X4358000Y-317500I-40000J0D01*
G01*
X4358000Y-3365500D02*
G75*
G03*
X4358000Y-3365500I-40000J0D01*
G01*
X4485000Y-762000D02*
G75*
G03*
X4485000Y-762000I-40000J0D01*
G01*
X4739000Y-825500D02*
G75*
G03*
X4739000Y-825500I-40000J0D01*
G01*
X4739000Y-1841500D02*
G75*
G03*
X4739000Y-1841500I-40000J0D01*
G01*
X4739000Y-2095500D02*
G75*
G03*
X4739000Y-2095500I-40000J0D01*
G01*
X4739000Y-3111500D02*
G75*
G03*
X4739000Y-3111500I-40000J0D01*
G01*
X4802500Y-3619500D02*
G75*
G03*
X4802500Y-3619500I-40000J0D01*
G01*
X4802500Y-4635500D02*
G75*
G03*
X4802500Y-4635500I-40000J0D01*
G01*
X4802500Y-4889500D02*
G75*
G03*
X4802500Y-4889500I-40000J0D01*
G01*
X4802500Y-5651500D02*
G75*
G03*
X4802500Y-5651500I-40000J0D01*
G01*
X4802500Y-6286500D02*
G75*
G03*
X4802500Y-6286500I-40000J0D01*
G01*
X4802500Y-7302500D02*
G75*
G03*
X4802500Y-7302500I-40000J0D01*
G01*
X4802500Y-7556500D02*
G75*
G03*
X4802500Y-7556500I-40000J0D01*
G01*
X4802500Y-8572500D02*
G75*
G03*
X4802500Y-8572500I-40000J0D01*
G01*
X4993000Y-825500D02*
G75*
G03*
X4993000Y-825500I-40000J0D01*
G01*
X4993000Y-1841500D02*
G75*
G03*
X4993000Y-1841500I-40000J0D01*
G01*
X4993000Y-2095500D02*
G75*
G03*
X4993000Y-2095500I-40000J0D01*
G01*
X4993000Y-3111500D02*
G75*
G03*
X4993000Y-3111500I-40000J0D01*
G01*
X5120000Y-4762500D02*
G75*
G03*
X5120000Y-4762500I-40000J0D01*
G01*
X5120000Y-5778500D02*
G75*
G03*
X5120000Y-5778500I-40000J0D01*
G01*
X5120000Y-6286500D02*
G75*
G03*
X5120000Y-6286500I-40000J0D01*
G01*
X5120000Y-7302500D02*
G75*
G03*
X5120000Y-7302500I-40000J0D01*
G01*
X5120000Y-7556500D02*
G75*
G03*
X5120000Y-7556500I-40000J0D01*
G01*
X5120000Y-8572500D02*
G75*
G03*
X5120000Y-8572500I-40000J0D01*
G01*
D14*
X1016000Y-9792500D02*
X1016000Y-9892500D01*
X966000Y-9842500D02*
X1066000Y-9842500D01*
X1270000Y-9792500D02*
X1270000Y-9892500D01*
X1220000Y-9842500D02*
X1320000Y-9842500D01*
X1524000Y-9792500D02*
X1524000Y-9892500D01*
X1474000Y-9842500D02*
X1574000Y-9842500D01*
X2286000Y-77000D02*
X2286000Y-177000D01*
X2236000Y-127000D02*
X2336000Y-127000D01*
X2286000Y-331000D02*
X2286000Y-431000D01*
X2236000Y-381000D02*
X2336000Y-381000D01*
X2540000Y-77000D02*
X2540000Y-177000D01*
X2490000Y-127000D02*
X2590000Y-127000D01*
X2540000Y-331000D02*
X2540000Y-431000D01*
X2490000Y-381000D02*
X2590000Y-381000D01*
X2667000Y-3061500D02*
X2667000Y-3161500D01*
X2617000Y-3111500D02*
X2717000Y-3111500D01*
X2667000Y-3950500D02*
X2667000Y-4050500D01*
X2617000Y-4000500D02*
X2717000Y-4000500D01*
X2667000Y-4649000D02*
X2667000Y-4749000D01*
X2617000Y-4699000D02*
X2717000Y-4699000D01*
X2667000Y-4903000D02*
X2667000Y-5003000D01*
X2617000Y-4953000D02*
X2717000Y-4953000D01*
X2667000Y-5157000D02*
X2667000Y-5257000D01*
X2617000Y-5207000D02*
X2717000Y-5207000D01*
X2667000Y-5411000D02*
X2667000Y-5511000D01*
X2617000Y-5461000D02*
X2717000Y-5461000D01*
X2667000Y-5665000D02*
X2667000Y-5765000D01*
X2617000Y-5715000D02*
X2717000Y-5715000D01*
X2667000Y-5919000D02*
X2667000Y-6019000D01*
X2617000Y-5969000D02*
X2717000Y-5969000D01*
X2667000Y-7887500D02*
X2667000Y-7987500D01*
X2617000Y-7937500D02*
X2717000Y-7937500D01*
X2667000Y-8141500D02*
X2667000Y-8241500D01*
X2617000Y-8191500D02*
X2717000Y-8191500D01*
X2794000Y-77000D02*
X2794000Y-177000D01*
X2744000Y-127000D02*
X2844000Y-127000D01*
X2794000Y-331000D02*
X2794000Y-431000D01*
X2744000Y-381000D02*
X2844000Y-381000D01*
X3048000Y-77000D02*
X3048000Y-177000D01*
X2998000Y-127000D02*
X3098000Y-127000D01*
X3048000Y-331000D02*
X3048000Y-431000D01*
X2998000Y-381000D02*
X3098000Y-381000D01*
X3810000Y-6173000D02*
X3810000Y-6273000D01*
X3760000Y-6223000D02*
X3860000Y-6223000D01*
X4064000Y-5919000D02*
X4064000Y-6019000D01*
X4014000Y-5969000D02*
X4114000Y-5969000D01*
X4064000Y-6173000D02*
X4064000Y-6273000D01*
X4014000Y-6223000D02*
X4114000Y-6223000D01*
X4318000Y-6173000D02*
X4318000Y-6273000D01*
X4268000Y-6223000D02*
X4368000Y-6223000D01*
X5207000Y-1031000D02*
X5207000Y-1131000D01*
X5157000Y-1081000D02*
X5257000Y-1081000D01*
X5207000Y-1285000D02*
X5207000Y-1385000D01*
X5157000Y-1335000D02*
X5257000Y-1335000D01*
X5207000Y-1539000D02*
X5207000Y-1639000D01*
X5157000Y-1589000D02*
X5257000Y-1589000D01*
X5207000Y-4204500D02*
X5207000Y-4304500D01*
X5157000Y-4254500D02*
X5257000Y-4254500D01*
X5207000Y-4458500D02*
X5207000Y-4558500D01*
X5157000Y-4508500D02*
X5257000Y-4508500D01*
D11*
X252619Y-10983476D02*
X252619Y-10783476D01*
X300238Y-10783476D01*
X328810Y-10793000D01*
X347857Y-10812048D01*
X357381Y-10831095D01*
X366905Y-10869190D01*
X366905Y-10897762D01*
X357381Y-10935857D01*
X347857Y-10954905D01*
X328810Y-10973952D01*
X300238Y-10983476D01*
X252619Y-10983476D01*
X452619Y-10983476D02*
X452619Y-10850143D01*
X452619Y-10888238D02*
X462143Y-10869190D01*
X471667Y-10859667D01*
X490714Y-10850143D01*
X509762Y-10850143D01*
X576429Y-10983476D02*
X576429Y-10850143D01*
X576429Y-10783476D02*
X566905Y-10793000D01*
X576429Y-10802524D01*
X585952Y-10793000D01*
X576429Y-10783476D01*
X576429Y-10802524D01*
X700238Y-10983476D02*
X681190Y-10973952D01*
X671667Y-10954905D01*
X671667Y-10783476D01*
X805000Y-10983476D02*
X785952Y-10973952D01*
X776428Y-10954905D01*
X776428Y-10783476D01*
X1033571Y-10983476D02*
X1033571Y-10783476D01*
X1100238Y-10926333D01*
X1166905Y-10783476D01*
X1166905Y-10983476D01*
X1347857Y-10983476D02*
X1347857Y-10878714D01*
X1338333Y-10859667D01*
X1319286Y-10850143D01*
X1281190Y-10850143D01*
X1262143Y-10859667D01*
X1347857Y-10973952D02*
X1328810Y-10983476D01*
X1281190Y-10983476D01*
X1262143Y-10973952D01*
X1252619Y-10954905D01*
X1252619Y-10935857D01*
X1262143Y-10916810D01*
X1281190Y-10907286D01*
X1328810Y-10907286D01*
X1347857Y-10897762D01*
X1443095Y-10850143D02*
X1443095Y-11050143D01*
X1443095Y-10859667D02*
X1462143Y-10850143D01*
X1500238Y-10850143D01*
X1519286Y-10859667D01*
X1528809Y-10869190D01*
X1538333Y-10888238D01*
X1538333Y-10945381D01*
X1528809Y-10964429D01*
X1519286Y-10973952D01*
X1500238Y-10983476D01*
X1462143Y-10983476D01*
X1443095Y-10973952D01*
X1624048Y-10964429D02*
X1633571Y-10973952D01*
X1624048Y-10983476D01*
X1614524Y-10973952D01*
X1624048Y-10964429D01*
X1624048Y-10983476D01*
X1624048Y-10859667D02*
X1633571Y-10869190D01*
X1624048Y-10878714D01*
X1614524Y-10869190D01*
X1624048Y-10859667D01*
X1624048Y-10878714D01*
D12*
X-81200Y-11274900D02*
X-5000Y-11351100D01*
X-5000Y-11274900D02*
X-81200Y-11351100D01*
D11*
X290714Y-11203476D02*
X309762Y-11203476D01*
X328810Y-11213000D01*
X338333Y-11222524D01*
X347857Y-11241571D01*
X357381Y-11279667D01*
X357381Y-11327286D01*
X347857Y-11365381D01*
X338333Y-11384428D01*
X328810Y-11393952D01*
X309762Y-11403476D01*
X290714Y-11403476D01*
X271667Y-11393952D01*
X262143Y-11384428D01*
X252619Y-11365381D01*
X243095Y-11327286D01*
X243095Y-11279667D01*
X252619Y-11241571D01*
X262143Y-11222524D01*
X271667Y-11213000D01*
X290714Y-11203476D01*
X443095Y-11384428D02*
X452619Y-11393952D01*
X443095Y-11403476D01*
X433571Y-11393952D01*
X443095Y-11384428D01*
X443095Y-11403476D01*
X519286Y-11203476D02*
X652619Y-11203476D01*
X566905Y-11403476D01*
X814524Y-11203476D02*
X776428Y-11203476D01*
X757381Y-11213000D01*
X747857Y-11222524D01*
X728809Y-11251095D01*
X719286Y-11289190D01*
X719286Y-11365381D01*
X728809Y-11384428D01*
X738333Y-11393952D01*
X757381Y-11403476D01*
X795476Y-11403476D01*
X814524Y-11393952D01*
X824048Y-11384428D01*
X833571Y-11365381D01*
X833571Y-11317762D01*
X824048Y-11298714D01*
X814524Y-11289190D01*
X795476Y-11279667D01*
X757381Y-11279667D01*
X738333Y-11289190D01*
X728809Y-11298714D01*
X719286Y-11317762D01*
X909762Y-11222524D02*
X919286Y-11213000D01*
X938333Y-11203476D01*
X985952Y-11203476D01*
X1005000Y-11213000D01*
X1014524Y-11222524D01*
X1024048Y-11241571D01*
X1024048Y-11260619D01*
X1014524Y-11289190D01*
X900238Y-11403476D01*
X1024048Y-11403476D01*
X1109762Y-11403476D02*
X1109762Y-11270143D01*
X1109762Y-11289190D02*
X1119286Y-11279667D01*
X1138333Y-11270143D01*
X1166905Y-11270143D01*
X1185952Y-11279667D01*
X1195476Y-11298714D01*
X1195476Y-11403476D01*
X1195476Y-11298714D02*
X1205000Y-11279667D01*
X1224048Y-11270143D01*
X1252619Y-11270143D01*
X1271667Y-11279667D01*
X1281190Y-11298714D01*
X1281190Y-11403476D01*
X1376429Y-11403476D02*
X1376429Y-11270143D01*
X1376429Y-11289190D02*
X1385952Y-11279667D01*
X1405000Y-11270143D01*
X1433571Y-11270143D01*
X1452619Y-11279667D01*
X1462143Y-11298714D01*
X1462143Y-11403476D01*
X1462143Y-11298714D02*
X1471667Y-11279667D01*
X1490714Y-11270143D01*
X1519286Y-11270143D01*
X1538333Y-11279667D01*
X1547857Y-11298714D01*
X1547857Y-11403476D01*
X1938333Y-11193952D02*
X1766905Y-11451095D01*
X2195476Y-11203476D02*
X2214524Y-11203476D01*
X2233571Y-11213000D01*
X2243095Y-11222524D01*
X2252619Y-11241571D01*
X2262143Y-11279667D01*
X2262143Y-11327286D01*
X2252619Y-11365381D01*
X2243095Y-11384428D01*
X2233571Y-11393952D01*
X2214524Y-11403476D01*
X2195476Y-11403476D01*
X2176429Y-11393952D01*
X2166905Y-11384428D01*
X2157381Y-11365381D01*
X2147857Y-11327286D01*
X2147857Y-11279667D01*
X2157381Y-11241571D01*
X2166905Y-11222524D01*
X2176429Y-11213000D01*
X2195476Y-11203476D01*
X2347857Y-11384428D02*
X2357381Y-11393952D01*
X2347857Y-11403476D01*
X2338333Y-11393952D01*
X2347857Y-11384428D01*
X2347857Y-11403476D01*
X2481190Y-11203476D02*
X2500238Y-11203476D01*
X2519286Y-11213000D01*
X2528810Y-11222524D01*
X2538333Y-11241571D01*
X2547857Y-11279667D01*
X2547857Y-11327286D01*
X2538333Y-11365381D01*
X2528810Y-11384428D01*
X2519286Y-11393952D01*
X2500238Y-11403476D01*
X2481190Y-11403476D01*
X2462143Y-11393952D01*
X2452619Y-11384428D01*
X2443095Y-11365381D01*
X2433571Y-11327286D01*
X2433571Y-11279667D01*
X2443095Y-11241571D01*
X2452619Y-11222524D01*
X2462143Y-11213000D01*
X2481190Y-11203476D01*
X2614524Y-11203476D02*
X2738333Y-11203476D01*
X2671667Y-11279667D01*
X2700238Y-11279667D01*
X2719286Y-11289190D01*
X2728810Y-11298714D01*
X2738333Y-11317762D01*
X2738333Y-11365381D01*
X2728810Y-11384428D01*
X2719286Y-11393952D01*
X2700238Y-11403476D01*
X2643095Y-11403476D01*
X2624048Y-11393952D01*
X2614524Y-11384428D01*
X2862143Y-11203476D02*
X2881190Y-11203476D01*
X2900238Y-11213000D01*
X2909762Y-11222524D01*
X2919286Y-11241571D01*
X2928809Y-11279667D01*
X2928809Y-11327286D01*
X2919286Y-11365381D01*
X2909762Y-11384428D01*
X2900238Y-11393952D01*
X2881190Y-11403476D01*
X2862143Y-11403476D01*
X2843095Y-11393952D01*
X2833571Y-11384428D01*
X2824048Y-11365381D01*
X2814524Y-11327286D01*
X2814524Y-11279667D01*
X2824048Y-11241571D01*
X2833571Y-11222524D01*
X2843095Y-11213000D01*
X2862143Y-11203476D01*
X3052619Y-11203476D02*
X3071667Y-11203476D01*
X3090714Y-11213000D01*
X3100238Y-11222524D01*
X3109762Y-11241571D01*
X3119286Y-11279667D01*
X3119286Y-11327286D01*
X3109762Y-11365381D01*
X3100238Y-11384428D01*
X3090714Y-11393952D01*
X3071667Y-11403476D01*
X3052619Y-11403476D01*
X3033571Y-11393952D01*
X3024048Y-11384428D01*
X3014524Y-11365381D01*
X3005000Y-11327286D01*
X3005000Y-11279667D01*
X3014524Y-11241571D01*
X3024048Y-11222524D01*
X3033571Y-11213000D01*
X3052619Y-11203476D01*
X3195476Y-11203476D02*
X3195476Y-11241571D01*
X3271667Y-11203476D02*
X3271667Y-11241571D01*
X3566905Y-11479667D02*
X3557381Y-11470143D01*
X3538333Y-11441571D01*
X3528809Y-11422524D01*
X3519286Y-11393952D01*
X3509762Y-11346333D01*
X3509762Y-11308238D01*
X3519286Y-11260619D01*
X3528809Y-11232048D01*
X3538333Y-11213000D01*
X3557381Y-11184429D01*
X3566905Y-11174905D01*
X3747857Y-11403476D02*
X3633571Y-11403476D01*
X3690714Y-11403476D02*
X3690714Y-11203476D01*
X3671667Y-11232048D01*
X3652619Y-11251095D01*
X3633571Y-11260619D01*
X3919286Y-11270143D02*
X3919286Y-11403476D01*
X3871667Y-11193952D02*
X3824048Y-11336809D01*
X3947857Y-11336809D01*
X4109762Y-11270143D02*
X4109762Y-11403476D01*
X4062143Y-11193952D02*
X4014524Y-11336809D01*
X4138333Y-11336809D01*
X4366905Y-11403476D02*
X4366905Y-11203476D01*
X4452619Y-11403476D02*
X4452619Y-11298714D01*
X4443095Y-11279667D01*
X4424048Y-11270143D01*
X4395476Y-11270143D01*
X4376429Y-11279667D01*
X4366905Y-11289190D01*
X4576429Y-11403476D02*
X4557381Y-11393952D01*
X4547857Y-11384428D01*
X4538333Y-11365381D01*
X4538333Y-11308238D01*
X4547857Y-11289190D01*
X4557381Y-11279667D01*
X4576429Y-11270143D01*
X4605000Y-11270143D01*
X4624048Y-11279667D01*
X4633571Y-11289190D01*
X4643095Y-11308238D01*
X4643095Y-11365381D01*
X4633571Y-11384428D01*
X4624048Y-11393952D01*
X4605000Y-11403476D01*
X4576429Y-11403476D01*
X4757381Y-11403476D02*
X4738333Y-11393952D01*
X4728810Y-11374905D01*
X4728810Y-11203476D01*
X4909762Y-11393952D02*
X4890714Y-11403476D01*
X4852619Y-11403476D01*
X4833571Y-11393952D01*
X4824048Y-11374905D01*
X4824048Y-11298714D01*
X4833571Y-11279667D01*
X4852619Y-11270143D01*
X4890714Y-11270143D01*
X4909762Y-11279667D01*
X4919286Y-11298714D01*
X4919286Y-11317762D01*
X4824048Y-11336809D01*
X4995476Y-11393952D02*
X5014524Y-11403476D01*
X5052619Y-11403476D01*
X5071667Y-11393952D01*
X5081190Y-11374905D01*
X5081190Y-11365381D01*
X5071667Y-11346333D01*
X5052619Y-11336809D01*
X5024048Y-11336809D01*
X5005000Y-11327286D01*
X4995476Y-11308238D01*
X4995476Y-11298714D01*
X5005000Y-11279667D01*
X5024048Y-11270143D01*
X5052619Y-11270143D01*
X5071667Y-11279667D01*
X5147857Y-11479667D02*
X5157381Y-11470143D01*
X5176429Y-11441571D01*
X5185952Y-11422524D01*
X5195476Y-11393952D01*
X5205000Y-11346333D01*
X5205000Y-11308238D01*
X5195476Y-11260619D01*
X5185952Y-11232048D01*
X5176429Y-11213000D01*
X5157381Y-11184429D01*
X5147857Y-11174905D01*
D13*
X-5000Y-11577000D02*
G75*
G03*
X-5000Y-11577000I-40000J0D01*
G01*
D11*
X290714Y-11467476D02*
X309762Y-11467476D01*
X328810Y-11477000D01*
X338333Y-11486524D01*
X347857Y-11505571D01*
X357381Y-11543667D01*
X357381Y-11591286D01*
X347857Y-11629381D01*
X338333Y-11648428D01*
X328810Y-11657952D01*
X309762Y-11667476D01*
X290714Y-11667476D01*
X271667Y-11657952D01*
X262143Y-11648428D01*
X252619Y-11629381D01*
X243095Y-11591286D01*
X243095Y-11543667D01*
X252619Y-11505571D01*
X262143Y-11486524D01*
X271667Y-11477000D01*
X290714Y-11467476D01*
X443095Y-11648428D02*
X452619Y-11657952D01*
X443095Y-11667476D01*
X433571Y-11657952D01*
X443095Y-11648428D01*
X443095Y-11667476D01*
X566905Y-11553190D02*
X547857Y-11543667D01*
X538333Y-11534143D01*
X528810Y-11515095D01*
X528810Y-11505571D01*
X538333Y-11486524D01*
X547857Y-11477000D01*
X566905Y-11467476D01*
X605000Y-11467476D01*
X624048Y-11477000D01*
X633571Y-11486524D01*
X643095Y-11505571D01*
X643095Y-11515095D01*
X633571Y-11534143D01*
X624048Y-11543667D01*
X605000Y-11553190D01*
X566905Y-11553190D01*
X547857Y-11562714D01*
X538333Y-11572238D01*
X528810Y-11591286D01*
X528810Y-11629381D01*
X538333Y-11648428D01*
X547857Y-11657952D01*
X566905Y-11667476D01*
X605000Y-11667476D01*
X624048Y-11657952D01*
X633571Y-11648428D01*
X643095Y-11629381D01*
X643095Y-11591286D01*
X633571Y-11572238D01*
X624048Y-11562714D01*
X605000Y-11553190D01*
X766905Y-11467476D02*
X785952Y-11467476D01*
X805000Y-11477000D01*
X814524Y-11486524D01*
X824048Y-11505571D01*
X833571Y-11543667D01*
X833571Y-11591286D01*
X824048Y-11629381D01*
X814524Y-11648428D01*
X805000Y-11657952D01*
X785952Y-11667476D01*
X766905Y-11667476D01*
X747857Y-11657952D01*
X738333Y-11648428D01*
X728809Y-11629381D01*
X719286Y-11591286D01*
X719286Y-11543667D01*
X728809Y-11505571D01*
X738333Y-11486524D01*
X747857Y-11477000D01*
X766905Y-11467476D01*
X957381Y-11467476D02*
X976428Y-11467476D01*
X995476Y-11477000D01*
X1005000Y-11486524D01*
X1014524Y-11505571D01*
X1024048Y-11543667D01*
X1024048Y-11591286D01*
X1014524Y-11629381D01*
X1005000Y-11648428D01*
X995476Y-11657952D01*
X976428Y-11667476D01*
X957381Y-11667476D01*
X938333Y-11657952D01*
X928809Y-11648428D01*
X919286Y-11629381D01*
X909762Y-11591286D01*
X909762Y-11543667D01*
X919286Y-11505571D01*
X928809Y-11486524D01*
X938333Y-11477000D01*
X957381Y-11467476D01*
X1109762Y-11667476D02*
X1109762Y-11534143D01*
X1109762Y-11553190D02*
X1119286Y-11543667D01*
X1138333Y-11534143D01*
X1166905Y-11534143D01*
X1185952Y-11543667D01*
X1195476Y-11562714D01*
X1195476Y-11667476D01*
X1195476Y-11562714D02*
X1205000Y-11543667D01*
X1224048Y-11534143D01*
X1252619Y-11534143D01*
X1271667Y-11543667D01*
X1281190Y-11562714D01*
X1281190Y-11667476D01*
X1376429Y-11667476D02*
X1376429Y-11534143D01*
X1376429Y-11553190D02*
X1385952Y-11543667D01*
X1405000Y-11534143D01*
X1433571Y-11534143D01*
X1452619Y-11543667D01*
X1462143Y-11562714D01*
X1462143Y-11667476D01*
X1462143Y-11562714D02*
X1471667Y-11543667D01*
X1490714Y-11534143D01*
X1519286Y-11534143D01*
X1538333Y-11543667D01*
X1547857Y-11562714D01*
X1547857Y-11667476D01*
X1938333Y-11457952D02*
X1766905Y-11715095D01*
X2195476Y-11467476D02*
X2214524Y-11467476D01*
X2233571Y-11477000D01*
X2243095Y-11486524D01*
X2252619Y-11505571D01*
X2262143Y-11543667D01*
X2262143Y-11591286D01*
X2252619Y-11629381D01*
X2243095Y-11648428D01*
X2233571Y-11657952D01*
X2214524Y-11667476D01*
X2195476Y-11667476D01*
X2176429Y-11657952D01*
X2166905Y-11648428D01*
X2157381Y-11629381D01*
X2147857Y-11591286D01*
X2147857Y-11543667D01*
X2157381Y-11505571D01*
X2166905Y-11486524D01*
X2176429Y-11477000D01*
X2195476Y-11467476D01*
X2347857Y-11648428D02*
X2357381Y-11657952D01*
X2347857Y-11667476D01*
X2338333Y-11657952D01*
X2347857Y-11648428D01*
X2347857Y-11667476D01*
X2481190Y-11467476D02*
X2500238Y-11467476D01*
X2519286Y-11477000D01*
X2528810Y-11486524D01*
X2538333Y-11505571D01*
X2547857Y-11543667D01*
X2547857Y-11591286D01*
X2538333Y-11629381D01*
X2528810Y-11648428D01*
X2519286Y-11657952D01*
X2500238Y-11667476D01*
X2481190Y-11667476D01*
X2462143Y-11657952D01*
X2452619Y-11648428D01*
X2443095Y-11629381D01*
X2433571Y-11591286D01*
X2433571Y-11543667D01*
X2443095Y-11505571D01*
X2452619Y-11486524D01*
X2462143Y-11477000D01*
X2481190Y-11467476D01*
X2614524Y-11467476D02*
X2738333Y-11467476D01*
X2671667Y-11543667D01*
X2700238Y-11543667D01*
X2719286Y-11553190D01*
X2728810Y-11562714D01*
X2738333Y-11581762D01*
X2738333Y-11629381D01*
X2728810Y-11648428D01*
X2719286Y-11657952D01*
X2700238Y-11667476D01*
X2643095Y-11667476D01*
X2624048Y-11657952D01*
X2614524Y-11648428D01*
X2928809Y-11667476D02*
X2814524Y-11667476D01*
X2871667Y-11667476D02*
X2871667Y-11467476D01*
X2852619Y-11496048D01*
X2833571Y-11515095D01*
X2814524Y-11524619D01*
X3109762Y-11467476D02*
X3014524Y-11467476D01*
X3005000Y-11562714D01*
X3014524Y-11553190D01*
X3033571Y-11543667D01*
X3081190Y-11543667D01*
X3100238Y-11553190D01*
X3109762Y-11562714D01*
X3119286Y-11581762D01*
X3119286Y-11629381D01*
X3109762Y-11648428D01*
X3100238Y-11657952D01*
X3081190Y-11667476D01*
X3033571Y-11667476D01*
X3014524Y-11657952D01*
X3005000Y-11648428D01*
X3195476Y-11467476D02*
X3195476Y-11505571D01*
X3271667Y-11467476D02*
X3271667Y-11505571D01*
X3566905Y-11743667D02*
X3557381Y-11734143D01*
X3538333Y-11705571D01*
X3528809Y-11686524D01*
X3519286Y-11657952D01*
X3509762Y-11610333D01*
X3509762Y-11572238D01*
X3519286Y-11524619D01*
X3528809Y-11496048D01*
X3538333Y-11477000D01*
X3557381Y-11448428D01*
X3566905Y-11438905D01*
X3728809Y-11467476D02*
X3690714Y-11467476D01*
X3671667Y-11477000D01*
X3662143Y-11486524D01*
X3643095Y-11515095D01*
X3633571Y-11553190D01*
X3633571Y-11629381D01*
X3643095Y-11648428D01*
X3652619Y-11657952D01*
X3671667Y-11667476D01*
X3709762Y-11667476D01*
X3728809Y-11657952D01*
X3738333Y-11648428D01*
X3747857Y-11629381D01*
X3747857Y-11581762D01*
X3738333Y-11562714D01*
X3728809Y-11553190D01*
X3709762Y-11543667D01*
X3671667Y-11543667D01*
X3652619Y-11553190D01*
X3643095Y-11562714D01*
X3633571Y-11581762D01*
X3919286Y-11467476D02*
X3881190Y-11467476D01*
X3862143Y-11477000D01*
X3852619Y-11486524D01*
X3833571Y-11515095D01*
X3824048Y-11553190D01*
X3824048Y-11629381D01*
X3833571Y-11648428D01*
X3843095Y-11657952D01*
X3862143Y-11667476D01*
X3900238Y-11667476D01*
X3919286Y-11657952D01*
X3928809Y-11648428D01*
X3938333Y-11629381D01*
X3938333Y-11581762D01*
X3928809Y-11562714D01*
X3919286Y-11553190D01*
X3900238Y-11543667D01*
X3862143Y-11543667D01*
X3843095Y-11553190D01*
X3833571Y-11562714D01*
X3824048Y-11581762D01*
X4176428Y-11667476D02*
X4176428Y-11467476D01*
X4262143Y-11667476D02*
X4262143Y-11562714D01*
X4252619Y-11543667D01*
X4233571Y-11534143D01*
X4205000Y-11534143D01*
X4185952Y-11543667D01*
X4176428Y-11553190D01*
X4385952Y-11667476D02*
X4366905Y-11657952D01*
X4357381Y-11648428D01*
X4347857Y-11629381D01*
X4347857Y-11572238D01*
X4357381Y-11553190D01*
X4366905Y-11543667D01*
X4385952Y-11534143D01*
X4414524Y-11534143D01*
X4433571Y-11543667D01*
X4443095Y-11553190D01*
X4452619Y-11572238D01*
X4452619Y-11629381D01*
X4443095Y-11648428D01*
X4433571Y-11657952D01*
X4414524Y-11667476D01*
X4385952Y-11667476D01*
X4566905Y-11667476D02*
X4547857Y-11657952D01*
X4538333Y-11638905D01*
X4538333Y-11467476D01*
X4719286Y-11657952D02*
X4700238Y-11667476D01*
X4662143Y-11667476D01*
X4643095Y-11657952D01*
X4633571Y-11638905D01*
X4633571Y-11562714D01*
X4643095Y-11543667D01*
X4662143Y-11534143D01*
X4700238Y-11534143D01*
X4719286Y-11543667D01*
X4728810Y-11562714D01*
X4728810Y-11581762D01*
X4633571Y-11600809D01*
X4805000Y-11657952D02*
X4824048Y-11667476D01*
X4862143Y-11667476D01*
X4881190Y-11657952D01*
X4890714Y-11638905D01*
X4890714Y-11629381D01*
X4881190Y-11610333D01*
X4862143Y-11600809D01*
X4833571Y-11600809D01*
X4814524Y-11591286D01*
X4805000Y-11572238D01*
X4805000Y-11562714D01*
X4814524Y-11543667D01*
X4833571Y-11534143D01*
X4862143Y-11534143D01*
X4881190Y-11543667D01*
X4957381Y-11743667D02*
X4966905Y-11734143D01*
X4985952Y-11705571D01*
X4995476Y-11686524D01*
X5005000Y-11657952D01*
X5014524Y-11610333D01*
X5014524Y-11572238D01*
X5005000Y-11524619D01*
X4995476Y-11496048D01*
X4985952Y-11477000D01*
X4966905Y-11448428D01*
X4957381Y-11438905D01*
D14*
X-55000Y-11791000D02*
X-55000Y-11891000D01*
X-105000Y-11841000D02*
X-5000Y-11841000D01*
D11*
X357381Y-11931476D02*
X243095Y-11931476D01*
X300238Y-11931476D02*
X300238Y-11731476D01*
X281190Y-11760048D01*
X262143Y-11779095D01*
X243095Y-11788619D01*
X443095Y-11912428D02*
X452619Y-11921952D01*
X443095Y-11931476D01*
X433571Y-11921952D01*
X443095Y-11912428D01*
X443095Y-11931476D01*
X576429Y-11731476D02*
X595476Y-11731476D01*
X614524Y-11741000D01*
X624048Y-11750524D01*
X633571Y-11769571D01*
X643095Y-11807667D01*
X643095Y-11855286D01*
X633571Y-11893381D01*
X624048Y-11912428D01*
X614524Y-11921952D01*
X595476Y-11931476D01*
X576429Y-11931476D01*
X557381Y-11921952D01*
X547857Y-11912428D01*
X538333Y-11893381D01*
X528810Y-11855286D01*
X528810Y-11807667D01*
X538333Y-11769571D01*
X547857Y-11750524D01*
X557381Y-11741000D01*
X576429Y-11731476D01*
X766905Y-11731476D02*
X785952Y-11731476D01*
X805000Y-11741000D01*
X814524Y-11750524D01*
X824048Y-11769571D01*
X833571Y-11807667D01*
X833571Y-11855286D01*
X824048Y-11893381D01*
X814524Y-11912428D01*
X805000Y-11921952D01*
X785952Y-11931476D01*
X766905Y-11931476D01*
X747857Y-11921952D01*
X738333Y-11912428D01*
X728809Y-11893381D01*
X719286Y-11855286D01*
X719286Y-11807667D01*
X728809Y-11769571D01*
X738333Y-11750524D01*
X747857Y-11741000D01*
X766905Y-11731476D01*
X957381Y-11731476D02*
X976428Y-11731476D01*
X995476Y-11741000D01*
X1005000Y-11750524D01*
X1014524Y-11769571D01*
X1024048Y-11807667D01*
X1024048Y-11855286D01*
X1014524Y-11893381D01*
X1005000Y-11912428D01*
X995476Y-11921952D01*
X976428Y-11931476D01*
X957381Y-11931476D01*
X938333Y-11921952D01*
X928809Y-11912428D01*
X919286Y-11893381D01*
X909762Y-11855286D01*
X909762Y-11807667D01*
X919286Y-11769571D01*
X928809Y-11750524D01*
X938333Y-11741000D01*
X957381Y-11731476D01*
X1109762Y-11931476D02*
X1109762Y-11798143D01*
X1109762Y-11817190D02*
X1119286Y-11807667D01*
X1138333Y-11798143D01*
X1166905Y-11798143D01*
X1185952Y-11807667D01*
X1195476Y-11826714D01*
X1195476Y-11931476D01*
X1195476Y-11826714D02*
X1205000Y-11807667D01*
X1224048Y-11798143D01*
X1252619Y-11798143D01*
X1271667Y-11807667D01*
X1281190Y-11826714D01*
X1281190Y-11931476D01*
X1376429Y-11931476D02*
X1376429Y-11798143D01*
X1376429Y-11817190D02*
X1385952Y-11807667D01*
X1405000Y-11798143D01*
X1433571Y-11798143D01*
X1452619Y-11807667D01*
X1462143Y-11826714D01*
X1462143Y-11931476D01*
X1462143Y-11826714D02*
X1471667Y-11807667D01*
X1490714Y-11798143D01*
X1519286Y-11798143D01*
X1538333Y-11807667D01*
X1547857Y-11826714D01*
X1547857Y-11931476D01*
X1938333Y-11721952D02*
X1766905Y-11979095D01*
X2195476Y-11731476D02*
X2214524Y-11731476D01*
X2233571Y-11741000D01*
X2243095Y-11750524D01*
X2252619Y-11769571D01*
X2262143Y-11807667D01*
X2262143Y-11855286D01*
X2252619Y-11893381D01*
X2243095Y-11912428D01*
X2233571Y-11921952D01*
X2214524Y-11931476D01*
X2195476Y-11931476D01*
X2176429Y-11921952D01*
X2166905Y-11912428D01*
X2157381Y-11893381D01*
X2147857Y-11855286D01*
X2147857Y-11807667D01*
X2157381Y-11769571D01*
X2166905Y-11750524D01*
X2176429Y-11741000D01*
X2195476Y-11731476D01*
X2347857Y-11912428D02*
X2357381Y-11921952D01*
X2347857Y-11931476D01*
X2338333Y-11921952D01*
X2347857Y-11912428D01*
X2347857Y-11931476D01*
X2481190Y-11731476D02*
X2500238Y-11731476D01*
X2519286Y-11741000D01*
X2528810Y-11750524D01*
X2538333Y-11769571D01*
X2547857Y-11807667D01*
X2547857Y-11855286D01*
X2538333Y-11893381D01*
X2528810Y-11912428D01*
X2519286Y-11921952D01*
X2500238Y-11931476D01*
X2481190Y-11931476D01*
X2462143Y-11921952D01*
X2452619Y-11912428D01*
X2443095Y-11893381D01*
X2433571Y-11855286D01*
X2433571Y-11807667D01*
X2443095Y-11769571D01*
X2452619Y-11750524D01*
X2462143Y-11741000D01*
X2481190Y-11731476D01*
X2614524Y-11731476D02*
X2738333Y-11731476D01*
X2671667Y-11807667D01*
X2700238Y-11807667D01*
X2719286Y-11817190D01*
X2728810Y-11826714D01*
X2738333Y-11845762D01*
X2738333Y-11893381D01*
X2728810Y-11912428D01*
X2719286Y-11921952D01*
X2700238Y-11931476D01*
X2643095Y-11931476D01*
X2624048Y-11921952D01*
X2614524Y-11912428D01*
X2833571Y-11931476D02*
X2871667Y-11931476D01*
X2890714Y-11921952D01*
X2900238Y-11912428D01*
X2919286Y-11883857D01*
X2928809Y-11845762D01*
X2928809Y-11769571D01*
X2919286Y-11750524D01*
X2909762Y-11741000D01*
X2890714Y-11731476D01*
X2852619Y-11731476D01*
X2833571Y-11741000D01*
X2824048Y-11750524D01*
X2814524Y-11769571D01*
X2814524Y-11817190D01*
X2824048Y-11836238D01*
X2833571Y-11845762D01*
X2852619Y-11855286D01*
X2890714Y-11855286D01*
X2909762Y-11845762D01*
X2919286Y-11836238D01*
X2928809Y-11817190D01*
X3100238Y-11798143D02*
X3100238Y-11931476D01*
X3052619Y-11721952D02*
X3005000Y-11864809D01*
X3128809Y-11864809D01*
X3195476Y-11731476D02*
X3195476Y-11769571D01*
X3271667Y-11731476D02*
X3271667Y-11769571D01*
X3566905Y-12007667D02*
X3557381Y-11998143D01*
X3538333Y-11969571D01*
X3528809Y-11950524D01*
X3519286Y-11921952D01*
X3509762Y-11874333D01*
X3509762Y-11836238D01*
X3519286Y-11788619D01*
X3528809Y-11760048D01*
X3538333Y-11741000D01*
X3557381Y-11712428D01*
X3566905Y-11702905D01*
X3624048Y-11731476D02*
X3747857Y-11731476D01*
X3681190Y-11807667D01*
X3709762Y-11807667D01*
X3728809Y-11817190D01*
X3738333Y-11826714D01*
X3747857Y-11845762D01*
X3747857Y-11893381D01*
X3738333Y-11912428D01*
X3728809Y-11921952D01*
X3709762Y-11931476D01*
X3652619Y-11931476D01*
X3633571Y-11921952D01*
X3624048Y-11912428D01*
X3871667Y-11731476D02*
X3890714Y-11731476D01*
X3909762Y-11741000D01*
X3919286Y-11750524D01*
X3928809Y-11769571D01*
X3938333Y-11807667D01*
X3938333Y-11855286D01*
X3928809Y-11893381D01*
X3919286Y-11912428D01*
X3909762Y-11921952D01*
X3890714Y-11931476D01*
X3871667Y-11931476D01*
X3852619Y-11921952D01*
X3843095Y-11912428D01*
X3833571Y-11893381D01*
X3824048Y-11855286D01*
X3824048Y-11807667D01*
X3833571Y-11769571D01*
X3843095Y-11750524D01*
X3852619Y-11741000D01*
X3871667Y-11731476D01*
X4176428Y-11931476D02*
X4176428Y-11731476D01*
X4262143Y-11931476D02*
X4262143Y-11826714D01*
X4252619Y-11807667D01*
X4233571Y-11798143D01*
X4205000Y-11798143D01*
X4185952Y-11807667D01*
X4176428Y-11817190D01*
X4385952Y-11931476D02*
X4366905Y-11921952D01*
X4357381Y-11912428D01*
X4347857Y-11893381D01*
X4347857Y-11836238D01*
X4357381Y-11817190D01*
X4366905Y-11807667D01*
X4385952Y-11798143D01*
X4414524Y-11798143D01*
X4433571Y-11807667D01*
X4443095Y-11817190D01*
X4452619Y-11836238D01*
X4452619Y-11893381D01*
X4443095Y-11912428D01*
X4433571Y-11921952D01*
X4414524Y-11931476D01*
X4385952Y-11931476D01*
X4566905Y-11931476D02*
X4547857Y-11921952D01*
X4538333Y-11902905D01*
X4538333Y-11731476D01*
X4719286Y-11921952D02*
X4700238Y-11931476D01*
X4662143Y-11931476D01*
X4643095Y-11921952D01*
X4633571Y-11902905D01*
X4633571Y-11826714D01*
X4643095Y-11807667D01*
X4662143Y-11798143D01*
X4700238Y-11798143D01*
X4719286Y-11807667D01*
X4728810Y-11826714D01*
X4728810Y-11845762D01*
X4633571Y-11864809D01*
X4805000Y-11921952D02*
X4824048Y-11931476D01*
X4862143Y-11931476D01*
X4881190Y-11921952D01*
X4890714Y-11902905D01*
X4890714Y-11893381D01*
X4881190Y-11874333D01*
X4862143Y-11864809D01*
X4833571Y-11864809D01*
X4814524Y-11855286D01*
X4805000Y-11836238D01*
X4805000Y-11826714D01*
X4814524Y-11807667D01*
X4833571Y-11798143D01*
X4862143Y-11798143D01*
X4881190Y-11807667D01*
X4957381Y-12007667D02*
X4966905Y-11998143D01*
X4985952Y-11969571D01*
X4995476Y-11950524D01*
X5005000Y-11921952D01*
X5014524Y-11874333D01*
X5014524Y-11836238D01*
X5005000Y-11788619D01*
X4995476Y-11760048D01*
X4985952Y-11741000D01*
X4966905Y-11712428D01*
X4957381Y-11702905D01*
M02*
