M48
; DRILL file {KiCad (6.0.0)} date Mon Aug  8 23:08:56 2022
; FORMAT={-:-/ absolute / metric / decimal}
; #@! TF.CreationDate,2022-08-08T23:08:56+02:00
; #@! TF.GenerationSoftware,Kicad,Pcbnew,(6.0.0)
; #@! TF.FileFunction,Plated,1,2,PTH
FMAT,2
METRIC
; #@! TA.AperFunction,Plated,PTH,ComponentDrill
T1C0.762
; #@! TA.AperFunction,Plated,PTH,ComponentDrill
T2C0.800
; #@! TA.AperFunction,Plated,PTH,ComponentDrill
T3C1.000
%
G90
G05
T1
X8.89Y-12.065
X8.89Y-14.605
X8.89Y-17.145
X8.89Y-19.685
X8.89Y-22.225
X8.89Y-24.765
X8.89Y-27.305
X8.89Y-37.465
X8.89Y-40.005
X8.89Y-42.545
X8.89Y-45.085
X8.89Y-47.625
X8.89Y-50.165
X8.89Y-52.705
X8.89Y-55.245
X8.89Y-62.865
X8.89Y-66.675
X8.89Y-69.215
X8.89Y-71.755
X8.89Y-74.295
X8.89Y-76.835
X8.89Y-79.375
X8.89Y-81.915
X8.89Y-85.725
X11.43Y-62.865
X11.43Y-85.725
X12.7Y-15.24
X12.7Y-17.78
X12.7Y-21.59
X12.7Y-24.13
X12.7Y-45.085
X12.7Y-47.625
X12.7Y-69.85
X12.7Y-72.39
X12.7Y-76.2
X12.7Y-78.74
X13.97Y-62.865
X16.51Y-12.065
X16.51Y-14.605
X16.51Y-17.145
X16.51Y-19.685
X16.51Y-22.225
X16.51Y-24.765
X16.51Y-27.305
X16.51Y-37.465
X16.51Y-40.005
X16.51Y-42.545
X16.51Y-45.085
X16.51Y-47.625
X16.51Y-50.165
X16.51Y-52.705
X16.51Y-55.245
X16.51Y-62.865
X16.51Y-66.675
X16.51Y-69.215
X16.51Y-71.755
X16.51Y-74.295
X16.51Y-76.835
X16.51Y-79.375
X16.51Y-81.915
X22.86Y-12.065
X22.86Y-14.605
X22.86Y-17.145
X22.86Y-19.685
X22.86Y-22.225
X22.86Y-24.765
X22.86Y-27.305
X22.86Y-88.265
X22.86Y-95.885
X25.4Y-88.265
X25.4Y-92.075
X25.4Y-95.885
X25.4Y-98.425
X26.67Y-15.875
X26.67Y-18.415
X27.94Y-88.265
X27.94Y-92.075
X27.94Y-95.885
X27.94Y-98.425
X30.48Y-12.065
X30.48Y-14.605
X30.48Y-17.145
X30.48Y-19.685
X30.48Y-22.225
X30.48Y-24.765
X30.48Y-27.305
X30.48Y-88.265
X30.48Y-95.885
X36.83Y-12.065
X36.83Y-14.605
X36.83Y-17.145
X36.83Y-19.685
X36.83Y-22.225
X36.83Y-24.765
X36.83Y-27.305
X36.83Y-40.005
X36.83Y-42.545
X36.83Y-45.085
X36.83Y-47.625
X36.83Y-50.165
X36.83Y-52.705
X36.83Y-55.245
X36.83Y-66.675
X36.83Y-69.215
X36.83Y-71.755
X36.83Y-74.295
X36.83Y-76.835
X36.83Y-79.375
X36.83Y-81.915
X36.83Y-85.725
X39.37Y-85.725
X40.64Y-15.24
X40.64Y-17.78
X40.64Y-21.59
X40.64Y-24.13
X40.64Y-48.895
X40.64Y-51.435
X40.64Y-69.85
X40.64Y-72.39
X40.64Y-76.2
X40.64Y-78.74
X41.91Y-85.725
X44.45Y-12.065
X44.45Y-14.605
X44.45Y-17.145
X44.45Y-19.685
X44.45Y-22.225
X44.45Y-24.765
X44.45Y-27.305
X44.45Y-40.005
X44.45Y-42.545
X44.45Y-45.085
X44.45Y-47.625
X44.45Y-50.165
X44.45Y-52.705
X44.45Y-55.245
X44.45Y-66.675
X44.45Y-69.215
X44.45Y-71.755
X44.45Y-74.295
X44.45Y-76.835
X44.45Y-79.375
X44.45Y-81.915
X44.45Y-85.725
T2
X2.54Y-62.865
X2.54Y-73.025
X2.54Y-75.565
X2.54Y-85.725
X5.715Y-14.605
X5.715Y-24.765
X5.715Y-62.865
X5.715Y-73.025
X5.715Y-75.565
X5.715Y-85.725
X19.685Y-8.255
X19.685Y-18.415
X19.685Y-20.955
X19.685Y-31.115
X19.685Y-62.865
X19.685Y-73.025
X19.685Y-75.565
X19.685Y-85.725
X22.86Y-75.565
X22.86Y-85.725
X30.48Y-62.865
X30.48Y-73.025
X30.48Y-75.565
X30.48Y-85.725
X33.655Y-8.255
X33.655Y-18.415
X33.655Y-20.955
X33.655Y-31.115
X33.655Y-36.195
X33.655Y-46.355
X33.655Y-48.895
X33.655Y-56.515
X33.655Y-62.865
X33.655Y-73.025
X33.655Y-75.565
X33.655Y-85.725
X36.83Y-7.62
X38.1Y-3.175
X38.1Y-33.655
X40.64Y-3.175
X40.64Y-31.115
X43.18Y-3.175
X43.18Y-33.655
X44.45Y-7.62
X46.99Y-8.255
X46.99Y-18.415
X46.99Y-20.955
X46.99Y-31.115
X47.625Y-36.195
X47.625Y-46.355
X47.625Y-48.895
X47.625Y-56.515
X47.625Y-62.865
X47.625Y-73.025
X47.625Y-75.565
X47.625Y-85.725
X49.53Y-8.255
X49.53Y-18.415
X49.53Y-20.955
X49.53Y-31.115
X50.8Y-47.625
X50.8Y-57.785
X50.8Y-62.865
X50.8Y-73.025
X50.8Y-75.565
X50.8Y-85.725
T3
X10.16Y-98.425
X12.7Y-98.425
X15.24Y-98.425
X22.86Y-1.27
X22.86Y-3.81
X25.4Y-1.27
X25.4Y-3.81
X26.67Y-31.115
X26.67Y-40.005
X26.67Y-46.99
X26.67Y-49.53
X26.67Y-52.07
X26.67Y-54.61
X26.67Y-57.15
X26.67Y-59.69
X26.67Y-79.375
X26.67Y-81.915
X27.94Y-1.27
X27.94Y-3.81
X30.48Y-1.27
X30.48Y-3.81
X38.1Y-62.23
X40.64Y-59.69
X40.64Y-62.23
X43.18Y-62.23
X52.07Y-10.81
X52.07Y-13.35
X52.07Y-15.89
X52.07Y-42.545
X52.07Y-45.085
T0
M30
