<?xml version="1.0" encoding="UTF-8" standalone="no"?>
<svg
   xmlns:dc="http://purl.org/dc/elements/1.1/"
   xmlns:cc="http://creativecommons.org/ns#"
   xmlns:rdf="http://www.w3.org/1999/02/22-rdf-syntax-ns#"
   xmlns:svg="http://www.w3.org/2000/svg"
   xmlns="http://www.w3.org/2000/svg"
   xmlns:sodipodi="http://sodipodi.sourceforge.net/DTD/sodipodi-0.dtd"
   xmlns:inkscape="http://www.inkscape.org/namespaces/inkscape"
   inkscape:export-ydpi="1000"
   inkscape:export-xdpi="1000"
   inkscape:export-filename="D:\Data\_PROGETTI\PRJ_SYNTH_MODULES\FG-VCO\Panel\panel silkscreen.png"
   width="210mm"
   height="297mm"
   viewBox="0 0 210 297"
   version="1.1"
   id="svg8"
   inkscape:version="1.0 (4035a4fb49, 2020-05-01)"
   sodipodi:docname="panel silkscreen.svg">
  <defs
     id="defs2">
    <filter
       height="1.000348"
       y="-0.00017401058"
       width="1.0001832"
       x="-9.1576017e-05"
       id="filter28906-7-2-4"
       style="color-interpolation-filters:sRGB"
       inkscape:collect="always">
      <feGaussianBlur
         id="feGaussianBlur28908-6-4-7"
         stdDeviation="0.0081334016"
         inkscape:collect="always" />
    </filter>
  </defs>
  <sodipodi:namedview
     id="base"
     pagecolor="#ffffff"
     bordercolor="#666666"
     borderopacity="1.0"
     inkscape:pageopacity="0.0"
     inkscape:pageshadow="2"
     inkscape:zoom="2.0000001"
     inkscape:cx="58.032941"
     inkscape:cy="319.77323"
     inkscape:document-units="mm"
     inkscape:current-layer="layer1"
     inkscape:document-rotation="0"
     showgrid="true"
     inkscape:window-width="1920"
     inkscape:window-height="1017"
     inkscape:window-x="-8"
     inkscape:window-y="-8"
     inkscape:window-maximized="1"
     showborder="false"
     inkscape:snap-intersection-paths="true"
     inkscape:snap-midpoints="true"
     inkscape:snap-others="true"
     inkscape:object-paths="false"
     inkscape:object-nodes="true"
     inkscape:snap-grids="false"
     inkscape:snap-page="false"
     inkscape:snap-nodes="true"
     inkscape:snap-object-midpoints="true">
    <inkscape:grid
       type="xygrid"
       id="grid1253"
       spacingx="0.16801042"
       spacingy="0.16801042" />
  </sodipodi:namedview>
  <metadata
     id="metadata5">
    <rdf:RDF>
      <cc:Work
         rdf:about="">
        <dc:format>image/svg+xml</dc:format>
        <dc:type
           rdf:resource="http://purl.org/dc/dcmitype/StillImage" />
        <dc:title />
      </cc:Work>
    </rdf:RDF>
  </metadata>
  <g
     inkscape:label="Livello 1"
     inkscape:groupmode="layer"
     id="layer1">
    <path
       inkscape:export-ydpi="1000"
       inkscape:export-xdpi="1000"
       transform="scale(0.26458333)"
       d="M -0.18945312 -0.18945312 L -0.18945312 0.18945312 L 0.18945312 0.18945312 L 0.18945312 -0.18945312 L -0.18945312 -0.18945312 z M 201.41016 -0.18945312 L 201.41016 0.18945312 L 201.78906 0.18945312 L 201.78906 -0.18945312 L 201.41016 -0.18945312 z M 114.46484 8.6503906 C 113.73414 8.6503906 113.08304 8.8095806 112.50977 9.1308594 C 111.94287 9.4521192 111.5005 9.8994281 111.18555 10.472656 C 110.87071 11.045886 110.71484 11.69898 110.71484 12.429688 C 110.71484 13.160394 110.87056 13.815001 111.18555 14.394531 C 111.50038 14.967761 111.94287 15.415068 112.50977 15.736328 C 113.08304 16.057588 113.73414 16.218742 114.46484 16.21875 C 115.19557 16.21875 115.84518 16.057588 116.41211 15.736328 C 116.97904 15.415068 117.4194 14.967761 117.73438 14.394531 C 118.05558 13.815001 118.2168 13.160394 118.2168 12.429688 C 118.2168 11.69898 118.05574 11.045886 117.73438 10.472656 C 117.41954 9.8994281 116.97562 9.4521079 116.40234 9.1308594 C 115.83545 8.8095995 115.1893 8.6503906 114.46484 8.6503906 z M 93.191406 8.6523438 C 92.518138 8.6526755 91.901865 8.8222967 91.341797 9.1621094 C 90.787454 9.495955 90.348604 9.9517199 90.027344 10.53125 C 89.706084 11.10448 89.546875 11.738732 89.546875 12.431641 C 89.546875 13.130861 89.706008 13.770079 90.027344 14.349609 C 90.348604 14.929139 90.787454 15.384889 91.341797 15.71875 C 91.902414 16.052596 92.519318 16.220703 93.193359 16.220703 C 94.075274 16.220703 94.8464 15.946487 95.507812 15.398438 C 95.608726 15.316535 95.660156 15.200009 95.660156 15.048828 L 95.660156 12.791016 C 95.660156 12.646109 95.612066 12.529583 95.517578 12.441406 C 95.429515 12.346918 95.316065 12.298828 95.177734 12.298828 L 93.410156 12.298828 C 93.2654 12.298828 93.147223 12.340048 93.052734 12.421875 C 92.964671 12.503777 92.919922 12.608403 92.919922 12.734375 C 92.919922 12.860347 92.964671 12.96302 93.052734 13.044922 C 93.147223 13.126824 93.265022 13.167969 93.410156 13.167969 L 94.714844 13.167969 L 94.714844 14.849609 C 94.229855 15.164557 93.722493 15.322277 93.193359 15.322266 C 92.702021 15.322266 92.247779 15.193802 91.832031 14.935547 C 91.422595 14.677292 91.095279 14.327669 90.849609 13.886719 C 90.610365 13.44578 90.492187 12.960782 90.492188 12.431641 C 90.492188 11.908811 90.609987 11.427282 90.849609 10.986328 C 91.095279 10.539089 91.422595 10.185993 91.832031 9.9277344 C 92.247779 9.6694793 92.702021 9.5390738 93.193359 9.5390625 C 93.583898 9.5390738 93.902768 9.5906445 94.148438 9.6914062 C 94.394102 9.7858944 94.646004 9.9435863 94.904297 10.164062 C 95.00521 10.245965 95.111224 10.287109 95.224609 10.287109 C 95.350468 10.287109 95.458434 10.245927 95.546875 10.164062 C 95.641363 10.082165 95.6875 9.9775342 95.6875 9.8515625 C 95.6875 9.7696601 95.674889 9.7012242 95.648438 9.6445312 C 95.621981 9.581527 95.573637 9.5215362 95.498047 9.4648438 C 95.138992 9.1750674 94.782464 8.9658225 94.429688 8.8398438 C 94.083608 8.7140549 93.671227 8.6525216 93.193359 8.6523438 L 93.191406 8.6523438 z M 107.01367 8.6523438 C 106.34042 8.6526933 105.72415 8.8224394 105.16406 9.1621094 C 104.60976 9.4958194 104.17079 9.9517 103.84961 10.53125 C 103.52835 11.10442 103.36719 11.738741 103.36719 12.431641 C 103.36719 13.130851 103.5282 13.770099 103.84961 14.349609 C 104.17087 14.929109 104.60976 15.38491 105.16406 15.71875 C 105.72472 16.05248 106.34163 16.220703 107.01562 16.220703 C 107.8786 16.220703 108.64972 15.946313 109.33008 15.398438 C 109.43099 15.297528 109.48047 15.181108 109.48047 15.048828 C 109.48047 14.910118 109.44094 14.80039 109.35938 14.71875 C 109.28378 14.63065 109.18622 14.585937 109.06641 14.585938 C 108.96549 14.585938 108.86124 14.625532 108.75391 14.701172 C 108.19956 15.116922 107.62035 15.324219 107.01562 15.324219 C 106.52434 15.324219 106.07001 15.19572 105.6543 14.9375 C 105.24478 14.67936 104.9175 14.329632 104.67188 13.888672 C 104.43264 13.447722 104.3125 12.962764 104.3125 12.433594 C 104.3125 11.910764 104.43226 11.429241 104.67188 10.988281 C 104.9175 10.541051 105.24478 10.187937 105.6543 9.9296875 C 106.07001 9.6715475 106.52434 9.5410156 107.01562 9.5410156 C 107.40616 9.5410156 107.72308 9.5924194 107.96875 9.6933594 C 108.21442 9.7878594 108.46632 9.9435345 108.72461 10.164062 C 108.82552 10.246062 108.93683 10.289063 109.05664 10.289062 C 109.17645 10.289062 109.27875 10.246462 109.36719 10.164062 C 109.46169 10.082067 109.50977 9.9774225 109.50977 9.8515625 C 109.50977 9.7695625 109.4983 9.7012312 109.4707 9.6445312 C 109.4442 9.5814317 109.39389 9.5234869 109.31836 9.4667969 C 108.9593 9.1769069 108.6047 8.9677669 108.25195 8.8417969 C 107.90575 8.7163169 107.49347 8.6542969 107.01562 8.6542969 L 107.01367 8.6523438 z M 83.876953 8.7460938 C 83.738244 8.7460938 83.621832 8.7942215 83.527344 8.8886719 C 83.432856 8.976886 83.384766 9.0934125 83.384766 9.2382812 L 83.384766 15.634766 C 83.384766 15.773361 83.432856 15.889887 83.527344 15.984375 C 83.621832 16.078863 83.738244 16.125 83.876953 16.125 C 84.015662 16.125 84.132079 16.078901 84.226562 15.984375 C 84.321051 15.889887 84.369141 15.773361 84.369141 15.634766 L 84.369141 12.855469 L 87.080078 12.855469 C 87.218787 12.855469 87.329906 12.816277 87.417969 12.734375 C 87.512457 12.646199 87.560547 12.534627 87.560547 12.402344 C 87.560547 12.27006 87.512457 12.163934 87.417969 12.082031 C 87.329906 11.993817 87.218787 11.949219 87.080078 11.949219 L 84.369141 11.949219 L 84.369141 9.6523438 L 88.148438 9.6523438 C 88.293188 9.6523438 88.409984 9.6131524 88.498047 9.53125 C 88.58611 9.4493476 88.626953 9.3412678 88.626953 9.2089844 C 88.626953 9.0703891 88.58611 8.9608086 88.498047 8.8789062 C 88.409984 8.7906926 88.293188 8.7460938 88.148438 8.7460938 L 83.876953 8.7460938 z M 96.919922 8.7460938 C 96.781213 8.7460938 96.671482 8.7838978 96.589844 8.859375 C 96.514253 8.9286915 96.474609 9.0263343 96.474609 9.1523438 C 96.474609 9.2405574 96.500891 9.3501384 96.550781 9.4824219 L 99.320312 15.814453 C 99.414801 16.022327 99.562223 16.125 99.763672 16.125 C 99.977971 16.125 100.12498 16.022365 100.20703 15.814453 L 103.00391 9.3984375 C 103.0417 9.3102233 103.06055 9.2279338 103.06055 9.1523438 C 103.06055 9.0326461 103.02071 8.9350033 102.93945 8.859375 C 102.86386 8.7837844 102.7559 8.7460938 102.61719 8.7460938 C 102.5038 8.7460938 102.41405 8.7683929 102.34375 8.8125 C 102.27455 8.8502953 102.21843 8.9257145 102.17383 9.0390625 L 99.753906 14.746094 L 97.373047 9.0390625 C 97.291031 8.8438121 97.140231 8.7460938 96.919922 8.7460938 z M 114.46484 9.5371094 C 115.00656 9.5371094 115.4881 9.6640232 115.91016 9.9160156 C 116.33841 10.167883 116.67275 10.51414 116.91211 10.955078 C 117.15135 11.396028 117.27148 11.88796 117.27148 12.429688 C 117.27148 12.971425 117.15173 13.461394 116.91211 13.902344 C 116.67287 14.343275 116.33841 14.692902 115.91016 14.951172 C 115.48181 15.203153 115.00029 15.330078 114.46484 15.330078 C 113.92947 15.330078 113.44786 15.203127 113.01953 14.951172 C 112.59119 14.692917 112.25694 14.343275 112.01758 13.902344 C 111.77833 13.461394 111.6582 12.971425 111.6582 12.429688 C 111.6582 11.88796 111.77833 11.396028 112.01758 10.955078 C 112.25682 10.51414 112.58771 10.167906 113.00977 9.9160156 C 113.43817 9.6640345 113.92312 9.5371094 114.46484 9.5371094 z M 142.43164 27.482422 L 142.43164 27.484375 C 126.23964 27.649881 110.83252 38.492209 105.48242 54.914062 C 100.47862 71.754431 106.99652 90.790286 122.35742 101.19141 A 4.9511801 4.9511801 0 0 0 125.46289 102.28906 A 4.9511801 4.9511801 0 0 0 130.41406 97.337891 A 4.9511801 4.9511801 0 0 0 127.79297 92.970703 A 32.125984 32.125984 0 0 1 111.87305 65.234375 A 32.125984 32.125984 0 0 1 144 33.107422 A 32.125984 32.125984 0 0 1 176.12695 65.234375 A 32.125984 32.125984 0 0 1 160.0625 93.052734 A 32.125984 32.125984 0 0 0 160.0625 93.054688 A 0.66141726 0.66141726 0 0 0 159.73242 93.626953 A 0.66141726 0.66141726 0 0 0 160.39258 94.289062 A 0.66141726 0.66141726 0 0 0 160.72461 94.201172 C 173.76081 87.453542 181.65255 71.410007 178.37695 56.023438 C 174.90015 40.690764 160.7567 28.384662 144 27.501953 C 143.4763 27.483623 142.95404 27.478622 142.43164 27.482422 z M 59.167969 68.285156 C 58.645569 68.281356 58.123309 68.286358 57.599609 68.304688 C 40.842915 69.187391 26.699456 81.493498 23.222656 96.826172 C 19.947056 112.21275 27.8388 128.25628 40.875 135.00391 A 0.66141726 0.66141726 0 0 0 41.207031 135.0918 A 0.66141726 0.66141726 0 0 0 41.867188 134.42969 A 0.66141726 0.66141726 0 0 0 41.537109 133.85742 A 32.125984 32.125984 0 0 1 41.537109 133.85547 A 32.125984 32.125984 0 0 1 25.472656 106.03711 A 32.125984 32.125984 0 0 1 57.599609 73.910156 A 32.125984 32.125984 0 0 1 89.726562 106.03711 A 32.125984 32.125984 0 0 1 73.806641 133.77344 A 4.9511801 4.9511801 0 0 0 71.185547 138.14062 A 4.9511801 4.9511801 0 0 0 76.136719 143.0918 A 4.9511801 4.9511801 0 0 0 79.242188 141.99414 C 94.603082 131.59304 101.12099 112.55717 96.117188 95.716797 C 90.767088 79.294938 75.359969 68.452615 59.167969 68.287109 L 59.167969 68.285156 z M 136.50586 97.455078 C 136.00821 97.455078 135.55746 97.534178 135.1543 97.691406 C 134.75745 97.842587 134.44402 98.06708 134.21094 98.363281 C 133.98417 98.653171 133.86914 98.999182 133.86914 99.402344 C 133.86914 99.975581 134.09363 100.45367 134.54102 100.83789 C 134.98821 101.21585 135.6017 101.44394 136.38281 101.51953 C 136.9497 101.57622 137.37125 101.73195 137.64844 101.99023 C 137.92548 102.24233 138.06445 102.54914 138.06445 102.9082 C 138.06445 103.28616 137.90194 103.58423 137.57422 103.80469 C 137.24653 104.01899 136.84549 104.12695 136.37305 104.12695 C 135.96992 104.12695 135.60142 104.04117 135.26758 103.87109 C 134.93385 103.70102 134.71101 103.49353 134.59766 103.24805 C 134.55347 103.14713 134.48316 103.06841 134.38867 103.01172 C 134.30057 102.9486 134.206 102.91602 134.10547 102.91602 C 134.06015 102.91602 134.03106 102.92005 134.01367 102.92383 C 133.89386 102.95028 133.79963 103.00054 133.73047 103.07617 C 133.66127 103.14538 133.62695 103.22778 133.62695 103.32227 C 133.62695 103.37257 133.64204 103.43418 133.67383 103.50977 C 133.8628 103.95699 134.20557 104.3205 134.70312 104.59766 C 135.20705 104.8747 135.76396 105.01367 136.375 105.01367 C 136.84113 105.01367 137.27661 104.93694 137.67969 104.7793 C 138.08917 104.61564 138.41644 104.37204 138.66211 104.05078 C 138.90778 103.7231 139.0332 103.33246 139.0332 102.87891 C 139.0332 102.25529 138.82609 101.75482 138.41016 101.37695 C 137.99441 100.99264 137.40825 100.76309 136.65234 100.6875 C 135.97206 100.6183 135.4989 100.47246 135.23438 100.25195 C 134.96981 100.03161 134.83789 99.757216 134.83789 99.429688 C 134.83789 99.077058 134.98527 98.809618 135.28125 98.626953 C 135.57719 98.437977 135.96456 98.34375 136.44336 98.34375 C 136.83389 98.34375 137.15622 98.419514 137.4082 98.570312 C 137.66634 98.715068 137.8807 98.92935 138.05078 99.212891 C 138.09496 99.294906 138.15627 99.361842 138.23828 99.412109 C 138.3203 99.45633 138.40942 99.478516 138.50391 99.478516 C 138.59839 99.478516 138.68083 99.455952 138.75 99.412109 C 138.87586 99.324046 138.9375 99.210596 138.9375 99.072266 C 138.9375 98.965305 138.89786 98.851855 138.82227 98.732422 C 138.56412 98.322948 138.25051 98.007569 137.87891 97.787109 C 137.50738 97.566763 137.04953 97.455078 136.50781 97.455078 L 136.50586 97.455078 z M 141.00781 97.662109 C 140.83773 97.662109 140.69035 97.723751 140.56445 97.849609 C 140.44464 97.96942 140.38477 98.114926 140.38477 98.285156 C 140.38477 98.455235 140.44502 98.60262 140.56445 98.728516 C 140.69031 98.848327 140.8377 98.908203 141.00781 98.908203 C 141.17789 98.908203 141.32378 98.848705 141.44336 98.728516 C 141.56922 98.602657 141.63281 98.455273 141.63281 98.285156 C 141.63281 98.115078 141.56922 97.969194 141.44336 97.849609 C 141.32355 97.723751 141.17804 97.662109 141.00781 97.662109 z M 145.86328 99.712891 C 145.54845 99.712891 145.2518 99.769054 144.97461 99.882812 C 144.69757 99.989773 144.45746 100.14399 144.25586 100.3457 L 144.25586 100.24219 C 144.25586 100.09743 144.21306 99.980641 144.125 99.892578 C 144.0369 99.804515 143.92015 99.759766 143.77539 99.759766 C 143.63668 99.759766 143.52027 99.804137 143.42578 99.892578 C 143.33768 99.980679 143.29492 100.09743 143.29492 100.24219 L 143.29492 104.45508 C 143.29492 104.59379 143.33772 104.7102 143.42578 104.80469 C 143.52027 104.89279 143.63668 104.9375 143.77539 104.9375 C 143.92015 104.9375 144.03694 104.89275 144.125 104.80469 C 144.2131 104.7102 144.25586 104.59379 144.25586 104.45508 L 144.25586 101.79102 C 144.25586 101.56424 144.31611 101.36044 144.43555 101.17773 C 144.56141 100.99518 144.73108 100.8493 144.94531 100.74219 C 145.16566 100.63523 145.40926 100.58203 145.67383 100.58203 C 146.12737 100.58203 146.48889 100.71391 146.75977 100.97852 C 147.0368 101.23666 147.17578 101.62062 147.17578 102.13086 L 147.17578 104.45508 C 147.17578 104.59379 147.22053 104.7102 147.30859 104.80469 C 147.40308 104.89279 147.51949 104.93555 147.6582 104.93555 C 147.79691 104.93555 147.90998 104.89275 147.99805 104.80469 C 148.09254 104.7102 148.14063 104.59379 148.14062 104.45508 L 148.14062 102.13086 C 148.14062 101.62062 148.04268 101.18717 147.84766 100.82812 C 147.65225 100.46269 147.38163 100.18507 147.03516 99.996094 C 146.68857 99.807117 146.29793 99.712891 145.86328 99.712891 z M 152.01953 99.724609 C 151.5282 99.724609 151.08783 99.837696 150.69727 100.06445 C 150.31304 100.2848 150.00952 100.59684 149.78906 101 C 149.57476 101.39685 149.46875 101.84569 149.46875 102.34961 C 149.46875 102.85354 149.58182 103.30433 149.80859 103.70117 C 150.04179 104.09802 150.36396 104.40995 150.77344 104.63672 C 151.18287 104.85707 151.64556 104.9668 152.16211 104.9668 C 152.452 104.9668 152.75333 104.91398 153.06836 104.80664 C 153.38962 104.69968 153.65695 104.56059 153.87109 104.39062 C 153.97201 104.31508 154.02344 104.22081 154.02344 104.10742 C 154.02344 103.98761 153.96728 103.88046 153.85352 103.78711 C 153.78431 103.72399 153.68975 103.69141 153.57031 103.69141 C 153.4505 103.69141 153.34588 103.72922 153.25781 103.79688 C 153.12553 103.89774 152.95584 103.98162 152.74805 104.05078 C 152.5466 104.11998 152.35109 104.1543 152.16211 104.1543 C 151.68336 104.1543 151.27721 104.01901 150.94336 103.74805 C 150.61567 103.47705 150.41693 103.1226 150.34766 102.68164 L 153.9375 102.68164 C 154.06336 102.68164 154.16798 102.64395 154.25 102.56836 C 154.33202 102.48634 154.37305 102.38544 154.37305 102.26562 C 154.37305 101.76807 154.28077 101.32762 154.0918 100.94336 C 153.90282 100.55913 153.63204 100.25911 153.2793 100.04492 C 152.92667 99.830633 152.5065 99.724609 152.02148 99.724609 L 152.01953 99.724609 z M 141.00781 99.763672 C 140.8691 99.763672 140.75269 99.808421 140.6582 99.896484 C 140.5701 99.984585 140.52734 100.10134 140.52734 100.24609 L 140.52734 104.44922 C 140.52734 104.58793 140.57014 104.70434 140.6582 104.79883 C 140.75269 104.88693 140.8691 104.93164 141.00781 104.93164 C 141.15257 104.93164 141.26936 104.88648 141.35742 104.79883 C 141.44552 104.70434 141.49023 104.58793 141.49023 104.44922 L 141.49023 100.24609 C 141.49023 100.10134 141.44548 99.984547 141.35742 99.896484 C 141.26932 99.808421 141.15257 99.763672 141.00781 99.763672 z M 152.01953 100.53906 C 152.43528 100.53906 152.77299 100.6643 153.03125 100.91602 C 153.28939 101.16811 153.44721 101.50567 153.50391 101.92773 L 150.35742 101.92773 C 150.43301 101.50567 150.61103 101.168 150.89453 100.91602 C 151.18442 100.66392 151.55968 100.53906 152.01953 100.53906 z M 142.43164 109.08398 L 142.43164 109.08594 C 126.23964 109.25144 110.83252 120.09382 105.48242 136.51562 C 100.47862 153.35599 106.99652 172.39187 122.35742 182.79297 A 4.9511801 4.9511801 0 0 0 125.46289 183.89062 A 4.9511801 4.9511801 0 0 0 130.41406 178.93945 A 4.9511801 4.9511801 0 0 0 127.79297 174.57227 A 32.125984 32.125984 0 0 1 111.87305 146.83594 A 32.125984 32.125984 0 0 1 144 114.70898 A 32.125984 32.125984 0 0 1 176.12695 146.83594 A 32.125984 32.125984 0 0 1 160.0625 174.6543 A 32.125984 32.125984 0 0 0 160.0625 174.65625 A 0.66141726 0.66141726 0 0 0 159.73242 175.22852 A 0.66141726 0.66141726 0 0 0 160.39258 175.89062 A 0.66141726 0.66141726 0 0 0 160.72461 175.80273 C 173.76081 169.0551 181.65255 153.01157 178.37695 137.625 C 174.90015 122.29233 160.7567 109.98622 144 109.10352 C 143.4763 109.08519 142.95404 109.08018 142.43164 109.08398 z M 47.369141 137.24023 C 47.230432 137.24023 47.114019 137.28637 47.019531 137.38086 C 46.925043 137.46896 46.878906 137.58571 46.878906 137.73047 L 46.878906 144.12695 C 46.878906 144.26566 46.925043 144.38207 47.019531 144.47656 C 47.114019 144.57105 47.230432 144.61914 47.369141 144.61914 C 47.507849 144.61914 47.624262 144.57105 47.71875 144.47656 C 47.813238 144.38207 47.861328 144.26566 47.861328 144.12695 L 47.861328 141.34961 L 50.572266 141.34961 C 50.710974 141.34961 50.824046 141.30858 50.912109 141.22656 C 51.006598 141.13846 51.054687 141.02877 51.054688 140.89648 C 51.054688 140.7642 51.006598 140.65623 50.912109 140.57422 C 50.824046 140.48612 50.710596 140.44336 50.572266 140.44336 L 47.861328 140.44336 L 47.861328 138.14648 L 51.640625 138.14648 C 51.785381 138.14648 51.902171 138.10545 51.990234 138.02344 C 52.078297 137.94142 52.123047 137.83503 52.123047 137.70312 C 52.123047 137.56447 52.078297 137.45311 51.990234 137.37109 C 51.902171 137.28299 51.785381 137.24023 51.640625 137.24023 L 47.369141 137.24023 z M 55.816406 139.39453 C 55.502328 139.39479 55.206268 139.45655 54.929688 139.58203 C 54.652648 139.70789 54.419445 139.88098 54.230469 140.10156 L 54.230469 139.92188 C 54.230469 139.60704 54.072874 139.45117 53.757812 139.45117 C 53.606636 139.45117 53.490219 139.49063 53.408203 139.57227 C 53.326187 139.65428 53.287109 139.77069 53.287109 139.92188 L 53.287109 144.14648 C 53.287109 144.30409 53.326565 144.42384 53.408203 144.50586 C 53.490219 144.58145 53.606636 144.61914 53.757812 144.61914 C 53.915419 144.61914 54.031831 144.57811 54.107422 144.49609 C 54.189438 144.41408 54.230469 144.29767 54.230469 144.14648 L 54.230469 141.38672 C 54.230469 141.03409 54.36918 140.7547 54.646484 140.54688 C 54.923524 140.339 55.288644 140.23437 55.742188 140.23438 C 55.899789 140.23438 56.105403 140.25694 56.357422 140.30078 C 56.42054 140.31212 56.466677 140.31836 56.498047 140.31836 C 56.693448 140.31836 56.820449 140.21707 56.876953 140.01562 C 56.880733 139.99678 56.884766 139.9641 56.884766 139.91992 C 56.884766 139.76874 56.790539 139.64546 56.601562 139.54492 C 56.412969 139.44439 56.151185 139.39491 55.818359 139.39453 L 55.816406 139.39453 z M 59.796875 139.41211 C 59.305536 139.41211 58.865148 139.52518 58.474609 139.75195 C 58.090383 139.9723 57.786866 140.28434 57.566406 140.6875 C 57.352107 141.08435 57.248047 141.53514 57.248047 142.03906 C 57.248047 142.54302 57.359166 142.99383 57.585938 143.39062 C 57.819129 143.78748 58.141345 144.09939 58.550781 144.32617 C 58.960255 144.54652 59.422943 144.65625 59.939453 144.65625 C 60.229343 144.65625 60.530755 144.60343 60.845703 144.49609 C 61.166963 144.38913 61.434289 144.25005 61.648438 144.08008 C 61.749346 144.00449 61.800781 143.91021 61.800781 143.79688 C 61.800781 143.67706 61.744245 143.5691 61.630859 143.47461 C 61.561694 143.41153 61.467089 143.38086 61.347656 143.38086 C 61.227845 143.38086 61.123597 143.41483 61.035156 143.48438 C 60.902873 143.58524 60.733189 143.67107 60.525391 143.74023 C 60.323942 143.80944 60.12843 143.84375 59.939453 143.84375 C 59.460738 143.84375 59.054587 143.70841 58.720703 143.4375 C 58.393018 143.16651 58.194279 142.81006 58.125 142.36914 L 61.714844 142.36914 C 61.840702 142.36914 61.945328 142.33145 62.027344 142.25586 C 62.109359 142.17384 62.152344 142.07489 62.152344 141.95508 C 62.152344 141.45743 62.058117 141.01513 61.869141 140.63086 C 61.680164 140.2466 61.409346 139.9485 61.056641 139.73438 C 60.704011 139.52008 60.283855 139.41211 59.798828 139.41211 L 59.796875 139.41211 z M 65.722656 139.41211 C 65.237629 139.41211 64.793825 139.52852 64.390625 139.76172 C 63.993775 139.98849 63.68185 140.3039 63.455078 140.70703 C 63.228306 141.10388 63.115234 141.54772 63.115234 142.03906 C 63.115234 142.53039 63.21986 142.97773 63.427734 143.38086 C 63.642034 143.77771 63.931546 144.0896 64.296875 144.31641 C 64.668403 144.54318 65.081613 144.65625 65.535156 144.65625 C 65.900637 144.65625 66.241655 144.58087 66.556641 144.42969 C 66.871475 144.27851 67.138877 144.06759 67.359375 143.79688 L 67.359375 146.34766 C 67.359375 146.49241 67.402171 146.6092 67.490234 146.69727 C 67.584723 146.78537 67.701135 146.83008 67.839844 146.83008 C 67.9846 146.83008 68.10139 146.78533 68.189453 146.69727 C 68.277516 146.60916 68.320312 146.49241 68.320312 146.34766 L 68.320312 142.03906 C 68.320312 141.54776 68.2039 141.10388 67.970703 140.70703 C 67.743931 140.30387 67.432007 139.9885 67.035156 139.76172 C 66.644542 139.52852 66.207721 139.41211 65.722656 139.41211 z M 59.796875 140.22461 C 60.212623 140.22461 60.550339 140.35157 60.808594 140.60352 C 61.066735 140.85561 61.224557 141.19126 61.28125 141.61328 L 58.134766 141.61328 C 58.210356 141.19126 58.388373 140.85546 58.671875 140.60352 C 58.961765 140.35142 59.33702 140.22461 59.796875 140.22461 z M 65.722656 140.26367 C 66.037491 140.26367 66.320285 140.34277 66.572266 140.5 C 66.830407 140.65118 67.032865 140.86205 67.177734 141.13281 C 67.32249 141.4038 67.394531 141.70525 67.394531 142.03906 C 67.394531 142.37279 67.322868 142.67639 67.177734 142.94727 C 67.032978 143.21183 66.830407 143.42262 66.572266 143.58008 C 66.320171 143.73126 66.037642 143.80664 65.722656 143.80664 C 65.407822 143.80664 65.121536 143.73088 64.863281 143.58008 C 64.611187 143.42247 64.408956 143.21195 64.257812 142.94727 C 64.113062 142.67627 64.041016 142.37294 64.041016 142.03906 C 64.041016 141.70533 64.112684 141.40365 64.257812 141.13281 C 64.408994 140.86182 64.611225 140.65118 64.863281 140.5 C 65.121423 140.34239 65.407708 140.26367 65.722656 140.26367 z M 59.167969 149.88477 C 58.645569 149.88077 58.123309 149.8858 57.599609 149.9043 C 40.842915 150.787 26.699456 163.09311 23.222656 178.42578 C 19.947056 193.81236 27.8388 209.85589 40.875 216.60352 A 0.66141726 0.66141726 0 0 0 41.207031 216.69141 A 0.66141726 0.66141726 0 0 0 41.867188 216.0293 A 0.66141726 0.66141726 0 0 0 41.537109 215.45703 A 32.125984 32.125984 0 0 1 41.537109 215.45508 A 32.125984 32.125984 0 0 1 25.472656 187.63672 A 32.125984 32.125984 0 0 1 57.599609 155.50977 A 32.125984 32.125984 0 0 1 89.726562 187.63672 A 32.125984 32.125984 0 0 1 73.806641 215.37305 A 4.9511801 4.9511801 0 0 0 71.185547 219.74023 A 4.9511801 4.9511801 0 0 0 76.136719 224.69141 A 4.9511801 4.9511801 0 0 0 79.242188 223.59375 C 94.603082 213.19265 101.12099 194.15678 96.117188 177.31641 C 90.767088 160.89455 75.359969 150.05222 59.167969 149.88672 L 59.167969 149.88477 z M 131.99023 178.07227 C 131.85795 178.07227 131.74639 178.11689 131.6582 178.20508 C 131.57631 178.28697 131.53516 178.39311 131.53516 178.52539 C 131.53516 178.65767 131.57631 178.76923 131.6582 178.85742 C 131.74639 178.93931 131.85795 178.98047 131.99023 178.98047 L 134.0293 178.98047 L 134.0293 184.96094 C 134.0293 185.09952 134.07739 185.21606 134.17188 185.31055 C 134.26631 185.40504 134.3829 185.45117 134.52148 185.45117 C 134.66007 185.45117 134.77661 185.40504 134.87109 185.31055 C 134.96558 185.21606 135.01367 185.09952 135.01367 184.96094 L 135.01367 178.98047 L 137.04492 178.98047 C 137.17721 178.98047 137.28334 178.93931 137.36523 178.85742 C 137.45342 178.76923 137.49805 178.65767 137.49805 178.52539 C 137.49805 178.39311 137.45342 178.28697 137.36523 178.20508 C 137.28334 178.11689 137.17721 178.07227 137.04492 178.07227 L 131.99023 178.07227 z M 154.85742 178.07227 C 154.71884 178.07227 154.60577 178.11689 154.51758 178.20508 C 154.42939 178.29327 154.38477 178.40634 154.38477 178.54492 L 154.38477 183.70312 C 154.38477 184.03698 154.44477 184.34046 154.56445 184.61133 C 154.68414 184.8759 154.85223 185.08319 155.06641 185.23438 C 155.28688 185.37921 155.53187 185.45117 155.80273 185.45117 L 155.82227 185.45117 C 156.01124 185.45117 156.16547 185.4085 156.28516 185.32031 C 156.40484 185.23212 156.46484 185.11905 156.46484 184.98047 C 156.46484 184.84189 156.42369 184.72686 156.3418 184.63867 C 156.26621 184.55048 156.16505 184.50781 156.03906 184.50781 L 155.80273 184.50781 C 155.66415 184.50781 155.55108 184.43243 155.46289 184.28125 C 155.3747 184.13007 155.33008 183.9362 155.33008 183.70312 L 155.33008 178.54492 C 155.33008 178.40634 155.28545 178.29327 155.19727 178.20508 C 155.10908 178.11689 154.996 178.07227 154.85742 178.07227 z M 139.68555 180.22656 C 139.37059 180.22656 139.07399 180.29003 138.79688 180.41602 C 138.51971 180.542 138.28663 180.71507 138.09766 180.93555 L 138.09766 180.75586 C 138.09766 180.4409 137.93996 180.2832 137.625 180.2832 C 137.47382 180.2832 137.35728 180.32436 137.27539 180.40625 C 137.1935 180.48814 137.1543 180.60468 137.1543 180.75586 L 137.1543 184.98047 C 137.1543 185.13795 137.1935 185.256 137.27539 185.33789 C 137.35728 185.41348 137.47382 185.45117 137.625 185.45117 C 137.78248 185.45117 137.89902 185.41197 137.97461 185.33008 C 138.0565 185.24819 138.09766 185.13165 138.09766 184.98047 L 138.09766 182.2207 C 138.09766 181.86795 138.23651 181.58678 138.51367 181.37891 C 138.79084 181.17103 139.15583 181.06836 139.60938 181.06836 C 139.76681 181.06836 139.97264 181.09067 140.22461 181.13477 C 140.2876 181.14736 140.33374 181.15234 140.36523 181.15234 C 140.56051 181.15234 140.68745 181.05118 140.74414 180.84961 C 140.75044 180.83071 140.75391 180.79995 140.75391 180.75586 C 140.75391 180.60468 140.65968 180.47969 140.4707 180.37891 C 140.28173 180.27812 140.01941 180.22656 139.68555 180.22656 z M 144.31836 180.23633 C 144.0034 180.23633 143.70685 180.29286 143.42969 180.40625 C 143.15252 180.51334 142.91447 180.66757 142.71289 180.86914 L 142.71289 180.76562 C 142.71289 180.62079 142.66827 180.5042 142.58008 180.41602 C 142.49189 180.32783 142.37535 180.2832 142.23047 180.2832 C 142.09189 180.2832 141.97535 180.32783 141.88086 180.41602 C 141.79267 180.5042 141.74805 180.62079 141.74805 180.76562 L 141.74805 184.98047 C 141.74805 185.11905 141.79267 185.23559 141.88086 185.33008 C 141.97535 185.41827 142.09189 185.46094 142.23047 185.46094 C 142.37535 185.46094 142.49189 185.41827 142.58008 185.33008 C 142.66827 185.23559 142.71289 185.11905 142.71289 184.98047 L 142.71289 182.31445 C 142.71289 182.08768 142.77289 181.88385 142.89258 181.70117 C 143.01856 181.51849 143.18817 181.37271 143.40234 181.26562 C 143.62282 181.15859 143.86434 181.10547 144.12891 181.10547 C 144.58245 181.10547 144.94593 181.23739 145.2168 181.50195 C 145.49396 181.76022 145.63281 182.14406 145.63281 182.6543 L 145.63281 184.98047 C 145.63281 185.11905 145.67548 185.23559 145.76367 185.33008 C 145.85816 185.41827 145.9747 185.46094 146.11328 185.46094 C 146.25186 185.46094 146.36499 185.41827 146.45312 185.33008 C 146.54761 185.23559 146.5957 185.11905 146.5957 184.98047 L 146.5957 182.6543 C 146.5957 182.14406 146.49801 181.71062 146.30273 181.35156 C 146.10746 180.98621 145.83669 180.70851 145.49023 180.51953 C 145.14378 180.33055 144.75301 180.23633 144.31836 180.23633 z M 150.5332 180.24609 C 150.02927 180.24609 149.57849 180.35917 149.18164 180.58594 C 148.78479 180.80641 148.47633 181.11487 148.25586 181.51172 C 148.03539 181.90857 147.92383 182.36281 147.92383 182.87305 C 147.92383 183.37698 148.02499 183.82581 148.22656 184.22266 C 148.43444 184.61951 148.72254 184.93143 149.08789 185.1582 C 149.45954 185.37868 149.87761 185.49023 150.34375 185.49023 C 150.7469 185.49023 151.10843 185.39254 151.42969 185.19727 C 151.75095 185.00199 152.0098 184.73122 152.20508 184.38477 L 152.20508 184.84766 C 152.20508 185.24451 152.1297 185.58372 151.97852 185.86719 C 151.82733 186.15695 151.62502 186.37465 151.37305 186.51953 C 151.12108 186.67071 150.84186 186.74609 150.5332 186.74609 C 150.20564 186.74609 149.91256 186.68609 149.6543 186.56641 C 149.39603 186.45302 149.1818 186.28688 149.01172 186.06641 C 148.91093 185.93412 148.78053 185.86719 148.62305 185.86719 C 148.53486 185.86719 148.44751 185.89648 148.35938 185.95312 C 148.22709 186.04761 148.16016 186.16069 148.16016 186.29297 C 148.16016 186.38116 148.19638 186.46845 148.26562 186.55664 C 148.53019 186.8905 148.8575 187.14589 149.24805 187.32227 C 149.6386 187.50494 150.06013 187.59766 150.51367 187.59766 C 151.01761 187.59766 151.46838 187.47765 151.86523 187.23828 C 152.26838 187.00521 152.58031 186.68289 152.80078 186.27344 C 153.02125 185.86399 153.13086 185.4117 153.13086 184.91406 L 153.13086 182.87305 C 153.13086 182.36281 153.01779 181.90857 152.79102 181.51172 C 152.57054 181.11487 152.26208 180.80641 151.86523 180.58594 C 151.47468 180.35917 151.03084 180.24609 150.5332 180.24609 z M 150.5332 181.0957 C 150.85446 181.0957 151.14061 181.17108 151.39258 181.32227 C 151.65085 181.47345 151.8497 181.68421 151.98828 181.95508 C 152.13316 182.22594 152.20508 182.53289 152.20508 182.87305 C 152.20508 183.2132 152.13316 183.5182 151.98828 183.78906 C 151.8497 184.05363 151.65085 184.26093 151.39258 184.41211 C 151.14061 184.56329 150.85446 184.63867 150.5332 184.63867 C 150.21194 184.63867 149.92233 184.56329 149.66406 184.41211 C 149.41209 184.26093 149.21324 184.05363 149.06836 183.78906 C 148.92348 183.5182 148.85156 183.2132 148.85156 182.87305 C 148.85156 182.53289 148.92348 182.22594 149.06836 181.95508 C 149.21324 181.68421 149.41209 181.47345 149.66406 181.32227 C 149.92233 181.17108 150.21194 181.0957 150.5332 181.0957 z M 142.43164 190.68555 L 142.43164 190.6875 C 126.23964 190.853 110.83252 201.69533 105.48242 218.11719 C 100.47862 234.95756 106.99652 253.99343 122.35742 264.39453 A 4.9511801 4.9511801 0 0 0 125.46289 265.49219 A 4.9511801 4.9511801 0 0 0 130.41406 260.54102 A 4.9511801 4.9511801 0 0 0 127.79297 256.17383 A 32.125984 32.125984 0 0 1 111.87305 228.4375 A 32.125984 32.125984 0 0 1 144 196.31055 A 32.125984 32.125984 0 0 1 176.12695 228.4375 A 32.125984 32.125984 0 0 1 160.0625 256.25586 A 32.125984 32.125984 0 0 0 160.0625 256.25781 A 0.66141726 0.66141726 0 0 0 159.73242 256.83008 A 0.66141726 0.66141726 0 0 0 160.39258 257.49219 A 0.66141726 0.66141726 0 0 0 160.72461 257.4043 C 173.76081 250.65667 181.65255 234.61314 178.37695 219.22656 C 174.90015 203.89389 160.7567 191.58778 144 190.70508 C 143.4763 190.68658 142.95404 190.68155 142.43164 190.68555 z M 47.917969 219.92578 C 47.77926 219.92578 47.662848 219.97192 47.568359 220.06641 C 47.473871 220.15451 47.425781 220.27126 47.425781 220.41602 L 47.425781 226.8125 C 47.425781 226.95121 47.473871 227.06762 47.568359 227.16211 C 47.662848 227.2566 47.77926 227.30469 47.917969 227.30469 C 48.056677 227.30469 48.17309 227.2566 48.267578 227.16211 C 48.362066 227.06762 48.410156 226.95121 48.410156 226.8125 L 48.410156 224.03516 L 51.121094 224.03516 C 51.259802 224.03516 51.372875 223.99413 51.460938 223.91211 C 51.555421 223.82401 51.603516 223.71431 51.603516 223.58203 C 51.603516 223.44975 51.555421 223.34178 51.460938 223.25977 C 51.372875 223.17166 51.259802 223.12891 51.121094 223.12891 L 48.410156 223.12891 L 48.410156 220.83203 L 52.189453 220.83203 C 52.334209 220.83203 52.451005 220.791 52.539062 220.70898 C 52.627125 220.62697 52.669922 220.52096 52.669922 220.38867 C 52.669922 220.24996 52.627125 220.13866 52.539062 220.05664 C 52.451005 219.96854 52.334209 219.92578 52.189453 219.92578 L 47.917969 219.92578 z M 54.410156 220.04688 C 54.240078 220.04688 54.090815 220.11047 53.964844 220.23633 C 53.845033 220.35614 53.785156 220.50165 53.785156 220.67188 C 53.785156 220.8419 53.845411 220.98933 53.964844 221.11523 C 54.090702 221.23505 54.239964 221.29492 54.410156 221.29492 C 54.580235 221.29492 54.723863 221.23467 54.84375 221.11523 C 54.969608 220.98938 55.033203 220.84195 55.033203 220.67188 C 55.033203 220.5018 54.969608 220.35591 54.84375 220.23633 C 54.723939 220.11047 54.580311 220.04688 54.410156 220.04688 z M 59.263672 222.08789 C 58.948837 222.08789 58.652153 222.14405 58.375 222.25781 C 58.097961 222.36477 57.857812 222.52124 57.65625 222.72266 L 57.65625 222.61719 C 57.65625 222.47243 57.613454 222.35564 57.525391 222.26758 C 57.437328 222.17948 57.320537 222.13672 57.175781 222.13672 C 57.037073 222.13676 56.92066 222.17952 56.826172 222.26758 C 56.738109 222.35568 56.695312 222.47243 56.695312 222.61719 L 56.695312 226.83203 C 56.695312 226.97074 56.738487 227.08715 56.826172 227.18164 C 56.92066 227.26974 57.037073 227.31445 57.175781 227.31445 C 57.320537 227.31445 57.437328 227.2697 57.525391 227.18164 C 57.613454 227.08715 57.65625 226.97074 57.65625 226.83203 L 57.65625 224.16797 C 57.65625 223.9412 57.718458 223.73543 57.837891 223.55273 C 57.963749 223.37018 58.135348 223.22618 58.349609 223.11914 C 58.569956 223.01218 58.811605 222.95703 59.076172 222.95703 C 59.529753 222.95703 59.891231 223.09083 60.162109 223.35547 C 60.439149 223.61361 60.578125 223.99758 60.578125 224.50781 L 60.578125 226.83203 C 60.578125 226.97074 60.620921 227.08715 60.708984 227.18164 C 60.803473 227.26974 60.919885 227.31445 61.058594 227.31445 C 61.197302 227.31445 61.310375 227.2697 61.398438 227.18164 C 61.492921 227.08715 61.541016 226.97074 61.541016 226.83203 L 61.541016 224.50781 C 61.541016 223.99758 61.443448 223.56219 61.248047 223.20312 C 61.052645 222.83769 60.782016 222.56203 60.435547 222.37305 C 60.088964 222.18407 59.698318 222.08789 59.263672 222.08789 z M 65.419922 222.09961 C 64.928583 222.09961 64.488157 222.21268 64.097656 222.43945 C 63.713429 222.6598 63.411866 222.97187 63.191406 223.375 C 62.977107 223.77185 62.869141 224.22263 62.869141 224.72656 C 62.869141 225.23052 62.982213 225.68132 63.208984 226.07812 C 63.442181 226.47498 63.764316 226.7869 64.173828 227.01367 C 64.583227 227.23402 65.045876 227.34375 65.5625 227.34375 C 65.85239 227.34375 66.153764 227.29055 66.46875 227.18359 C 66.79001 227.07663 67.059214 226.93754 67.273438 226.76758 C 67.374346 226.69199 67.423828 226.59771 67.423828 226.48438 C 67.423828 226.36456 67.36767 226.25855 67.253906 226.16406 C 67.184741 226.10098 67.090136 226.06836 66.970703 226.06836 C 66.850892 226.06836 66.746644 226.10233 66.658203 226.17188 C 66.52592 226.27274 66.356193 226.35857 66.148438 226.42773 C 65.946989 226.49694 65.751476 226.53125 65.5625 226.53125 C 65.083747 226.53125 64.677633 226.39591 64.34375 226.125 C 64.016065 225.85401 63.817326 225.49756 63.748047 225.05664 L 67.337891 225.05664 C 67.463749 225.05664 67.568375 225.01895 67.650391 224.94336 C 67.732406 224.86134 67.773438 224.76239 67.773438 224.64258 C 67.773438 224.14493 67.679211 223.70262 67.490234 223.31836 C 67.301258 222.93409 67.030515 222.63598 66.677734 222.42188 C 66.325104 222.20758 65.905024 222.09961 65.419922 222.09961 z M 54.410156 222.13867 C 54.271448 222.13867 54.155035 222.18147 54.060547 222.26953 C 53.972484 222.35763 53.927734 222.47438 53.927734 222.61914 L 53.927734 226.82422 C 53.927734 226.96293 53.972484 227.07934 54.060547 227.17383 C 54.155035 227.26193 54.271448 227.30664 54.410156 227.30664 C 54.554912 227.30664 54.671703 227.26189 54.759766 227.17383 C 54.847829 227.07934 54.890625 226.96293 54.890625 226.82422 L 54.890625 222.61914 C 54.890625 222.47438 54.847829 222.35759 54.759766 222.26953 C 54.671703 222.18143 54.554912 222.13867 54.410156 222.13867 z M 65.419922 222.91211 C 65.835783 222.91211 66.173348 223.03911 66.431641 223.29102 C 66.689782 223.54311 66.847566 223.87872 66.904297 224.30078 L 63.757812 224.30078 C 63.833403 223.87872 64.013297 223.543 64.296875 223.29102 C 64.586765 223.03892 64.960105 222.91211 65.419922 222.91211 z M 59.167969 231.48438 C 58.645569 231.48038 58.123309 231.48541 57.599609 231.50391 C 40.842915 232.38661 26.699456 244.69272 23.222656 260.02539 C 19.947056 275.41197 27.8388 291.45555 40.875 298.20312 A 0.66141726 0.66141726 0 0 0 41.207031 298.29102 A 0.66141726 0.66141726 0 0 0 41.867188 297.62891 A 0.66141726 0.66141726 0 0 0 41.537109 297.05664 A 32.125984 32.125984 0 0 1 41.537109 297.05469 A 32.125984 32.125984 0 0 1 25.472656 269.23633 A 32.125984 32.125984 0 0 1 57.599609 237.10938 A 32.125984 32.125984 0 0 1 89.726562 269.23633 A 32.125984 32.125984 0 0 1 73.806641 296.97266 A 4.9511801 4.9511801 0 0 0 71.185547 301.33984 A 4.9511801 4.9511801 0 0 0 76.136719 306.29102 A 4.9511801 4.9511801 0 0 0 79.242188 305.19336 C 94.603082 294.79226 101.12099 275.75639 96.117188 258.91602 C 90.767088 242.49416 75.359969 231.65183 59.167969 231.48633 L 59.167969 231.48438 z M 138.35547 259.59766 C 137.85783 259.59766 137.40901 259.6765 137.00586 259.83398 C 136.60901 259.98517 136.29362 260.20784 136.06055 260.50391 C 135.83378 260.79367 135.7207 261.13982 135.7207 261.54297 C 135.7207 262.1162 135.94343 262.59622 136.39062 262.98047 C 136.83787 263.35842 137.45132 263.58457 138.23242 263.66016 C 138.79935 263.71685 139.22283 263.87454 139.5 264.13281 C 139.77717 264.38478 139.91602 264.68977 139.91602 265.04883 C 139.91602 265.42678 139.75139 265.72679 139.42383 265.94727 C 139.09627 266.16144 138.69705 266.26758 138.22461 266.26758 C 137.82146 266.26758 137.453 266.1818 137.11914 266.01172 C 136.78528 265.84164 136.56065 265.63434 136.44727 265.38867 C 136.40317 265.28788 136.33472 265.20904 136.24023 265.15234 C 136.15205 265.08935 136.05782 265.05859 135.95703 265.05859 C 135.91294 265.05859 135.88023 265.06206 135.86133 265.06836 C 135.74164 265.09356 135.64742 265.14316 135.57812 265.21875 C 135.50888 265.28804 135.47461 265.37036 135.47461 265.46484 C 135.47461 265.51524 135.48999 265.57871 135.52148 265.6543 C 135.71046 266.10154 136.05314 266.46307 136.55078 266.74023 C 137.05472 267.0174 137.61359 267.15625 138.22461 267.15625 C 138.69075 267.15625 139.12419 267.0774 139.52734 266.91992 C 139.93679 266.75614 140.2641 266.51267 140.50977 266.19141 C 140.75543 265.86385 140.87891 265.47307 140.87891 265.01953 C 140.87891 264.39591 140.67161 263.89553 140.25586 263.51758 C 139.84011 263.13333 139.25395 262.90372 138.49805 262.82812 C 137.81773 262.75888 137.34465 262.615 137.08008 262.39453 C 136.81551 262.17406 136.68359 261.89982 136.68359 261.57227 C 136.68359 261.21951 136.83089 260.95026 137.12695 260.76758 C 137.42302 260.5786 137.81032 260.48438 138.28906 260.48438 C 138.67961 260.48438 139.00194 260.55976 139.25391 260.71094 C 139.51217 260.85582 139.72641 261.07005 139.89648 261.35352 C 139.94058 261.43541 140.00405 261.50234 140.08594 261.55273 C 140.16783 261.59683 140.25512 261.61914 140.34961 261.61914 C 140.4441 261.61914 140.52641 261.59683 140.5957 261.55273 C 140.72169 261.46455 140.78516 261.35147 140.78516 261.21289 C 140.78516 261.1058 140.74742 260.99273 140.67188 260.87305 C 140.41361 260.4636 140.09822 260.14821 139.72656 259.92773 C 139.35491 259.70726 138.8972 259.59766 138.35547 259.59766 z M 151.45898 261.83594 C 151.14402 261.83594 150.84748 261.89941 150.57031 262.02539 C 150.29315 262.15137 150.06007 262.32445 149.87109 262.54492 L 149.87109 262.36523 C 149.87109 262.05027 149.7134 261.89258 149.39844 261.89258 C 149.24726 261.89258 149.13072 261.93379 149.04883 262.01562 C 148.96694 262.09751 148.92578 262.21405 148.92578 262.36523 L 148.92578 266.58984 C 148.92578 266.74732 148.96694 266.86538 149.04883 266.94727 C 149.13072 267.02286 149.24726 267.06055 149.39844 267.06055 C 149.55592 267.06055 149.67246 267.02134 149.74805 266.93945 C 149.82994 266.85756 149.87109 266.74102 149.87109 266.58984 L 149.87109 263.83008 C 149.87109 263.47732 150.00994 263.19616 150.28711 262.98828 C 150.56427 262.78041 150.92927 262.67773 151.38281 262.67773 C 151.54029 262.67773 151.74413 262.70005 151.99609 262.74414 C 152.05909 262.75674 152.10718 262.76172 152.13867 262.76172 C 152.33395 262.76172 152.45898 262.66056 152.51562 262.45898 C 152.52192 262.44009 152.52539 262.40933 152.52539 262.36523 C 152.52539 262.21405 152.43116 262.08907 152.24219 261.98828 C 152.05321 261.88749 151.79284 261.83594 151.45898 261.83594 z M 144.625 261.85547 C 144.13996 261.85547 143.69612 261.97201 143.29297 262.20508 C 142.89612 262.43185 142.58419 262.74724 142.35742 263.15039 C 142.13065 263.54724 142.01758 263.99108 142.01758 264.48242 C 142.01758 264.97376 142.1222 265.42107 142.33008 265.82422 C 142.54425 266.22107 142.83386 266.53299 143.19922 266.75977 C 143.57087 266.98654 143.982 267.09961 144.43555 267.09961 C 144.8009 267.09961 145.14207 267.02423 145.45703 266.87305 C 145.77199 266.72187 146.03929 266.5111 146.25977 266.24023 L 146.25977 268.79102 C 146.25977 268.9359 146.30439 269.05249 146.39258 269.14062 C 146.48707 269.22881 146.6036 269.27148 146.74219 269.27148 C 146.88707 269.27148 147.00361 269.22881 147.0918 269.14062 C 147.17999 269.05249 147.22461 268.9359 147.22461 268.79102 L 147.22461 264.48242 C 147.22461 263.99108 147.10807 263.54724 146.875 263.15039 C 146.64823 262.74724 146.3363 262.43185 145.93945 262.20508 C 145.5489 261.97201 145.11004 261.85547 144.625 261.85547 z M 144.625 262.70508 C 144.93996 262.70508 145.22459 262.78393 145.47656 262.94141 C 145.73483 263.09259 145.9352 263.30335 146.08008 263.57422 C 146.22496 263.84508 146.29687 264.14856 146.29688 264.48242 C 146.29687 264.81628 146.22496 265.11781 146.08008 265.38867 C 145.9352 265.65324 145.73483 265.864 145.47656 266.02148 C 145.22459 266.17267 144.93996 266.24805 144.625 266.24805 C 144.31004 266.24805 144.02389 266.17267 143.76562 266.02148 C 143.51371 265.864 143.31134 265.65324 143.16016 265.38867 C 143.01527 265.11781 142.94336 264.81628 142.94336 264.48242 C 142.94336 264.14856 143.01527 263.84508 143.16016 263.57422 C 143.31134 263.30335 143.51371 263.09259 143.76562 262.94141 C 144.02389 262.78393 144.31004 262.70508 144.625 262.70508 z M 142.43164 272.28125 L 142.43164 272.2832 C 126.23964 272.44871 110.83252 283.29103 105.48242 299.71289 C 100.47862 316.55326 106.99652 335.58913 122.35742 345.99023 A 4.95118 4.95118 0 0 0 125.46289 347.08789 A 4.95118 4.95118 0 0 0 130.41406 342.13672 A 4.95118 4.95118 0 0 0 127.79297 337.76953 A 32.125984 32.125984 0 0 1 111.87305 310.0332 A 32.125984 32.125984 0 0 1 144 277.90625 A 32.125984 32.125984 0 0 1 176.12695 310.0332 A 32.125984 32.125984 0 0 1 160.0625 337.85156 A 32.125984 32.125984 0 0 0 160.0625 337.85352 A 0.66141725 0.66141725 0 0 0 159.73242 338.42578 A 0.66141725 0.66141725 0 0 0 160.39258 339.08789 A 0.66141725 0.66141725 0 0 0 160.72461 339 C 173.76081 332.25237 181.65255 316.20884 178.37695 300.82227 C 174.90015 285.48959 160.7567 273.18349 144 272.30078 C 143.4763 272.28245 142.95404 272.27745 142.43164 272.28125 z M 63.417969 301.45117 C 62.687235 301.45117 62.036132 301.61218 61.462891 301.93359 C 60.895961 302.25485 60.455573 302.70219 60.140625 303.27539 C 59.82579 303.84863 59.667969 304.49977 59.667969 305.23047 C 59.667969 305.9612 59.825601 306.61775 60.140625 307.19727 C 60.45546 307.77047 60.895961 308.21784 61.462891 308.53906 C 62.036132 308.86032 62.687235 309.01953 63.417969 309.01953 C 64.148665 309.01953 64.798343 308.8604 65.365234 308.53906 C 65.932201 308.2178 66.372552 307.77047 66.6875 307.19727 C 67.00876 306.61775 67.169922 305.9612 67.169922 305.23047 C 67.169922 304.49977 67.008911 303.84863 66.6875 303.27539 C 66.372665 302.70219 65.92871 302.25478 65.355469 301.93359 C 64.78854 301.61233 64.142391 301.45117 63.417969 301.45117 z M 58.269531 301.54492 L 53.998047 301.54688 C 53.859338 301.54688 53.742921 301.59496 53.648438 301.68945 C 53.553949 301.77752 53.505859 301.89235 53.505859 302.03711 L 53.505859 308.43359 C 53.505859 308.5723 53.553949 308.68871 53.648438 308.7832 C 53.742921 308.87769 53.859338 308.92578 53.998047 308.92578 C 54.136756 308.92578 54.253168 308.87769 54.347656 308.7832 C 54.442144 308.68871 54.490234 308.5723 54.490234 308.43359 L 54.490234 305.6582 L 57.201172 305.6582 C 57.339881 305.6582 57.452953 305.61522 57.541016 305.5332 C 57.635504 305.44514 57.683594 305.33541 57.683594 305.20312 C 57.683594 305.07089 57.635504 304.96288 57.541016 304.88086 C 57.452953 304.7928 57.339503 304.75 57.201172 304.75 L 54.490234 304.75 L 54.490234 302.45312 L 58.269531 302.45312 C 58.414287 302.45312 58.531078 302.41247 58.619141 302.33008 C 58.707204 302.24806 58.75 302.1401 58.75 302.00781 C 58.75 301.8691 58.707204 301.7578 58.619141 301.67578 C 58.531078 301.58772 58.414287 301.54492 58.269531 301.54492 z M 48.511719 301.54688 C 48.379435 301.54688 48.266363 301.59496 48.171875 301.68945 C 48.077387 301.78394 48.03125 301.8984 48.03125 302.03711 L 48.03125 308.43359 C 48.03125 308.5723 48.074046 308.68871 48.162109 308.7832 C 48.256598 308.87769 48.37301 308.92578 48.511719 308.92578 L 52.423828 308.92578 C 52.562537 308.92578 52.678949 308.87769 52.773438 308.7832 C 52.867921 308.68871 52.916016 308.5723 52.916016 308.43359 C 52.916016 308.29489 52.867921 308.18043 52.773438 308.08594 C 52.678949 307.99145 52.562537 307.94336 52.423828 307.94336 L 49.003906 307.94336 L 49.003906 302.03711 C 49.003906 301.8984 48.955816 301.78199 48.861328 301.6875 C 48.76684 301.59301 48.650427 301.54688 48.511719 301.54688 z M 63.417969 302.33984 C 63.959688 302.33984 64.441221 302.46684 64.863281 302.71875 C 65.291615 302.97084 65.625877 303.31686 65.865234 303.75781 C 66.104478 304.19877 66.224609 304.68875 66.224609 305.23047 C 66.224609 305.77223 66.104856 306.26412 65.865234 306.70508 C 65.62599 307.14604 65.291615 307.49565 64.863281 307.75391 C 64.43491 308.006 63.953377 308.13281 63.417969 308.13281 C 62.882561 308.13281 62.40099 308.00581 61.972656 307.75391 C 61.544322 307.49576 61.210098 307.14604 60.970703 306.70508 C 60.731459 306.26412 60.611328 305.77223 60.611328 305.23047 C 60.611328 304.68875 60.731459 304.19877 60.970703 303.75781 C 61.209947 303.31686 61.540831 302.97073 61.962891 302.71875 C 62.391262 302.46666 62.876249 302.33984 63.417969 302.33984 z M 131.32422 341.23828 C 131.18551 341.23828 131.0691 341.28637 130.97461 341.38086 C 130.88012 341.46892 130.83398 341.58571 130.83398 341.73047 L 130.83398 348.12695 C 130.83398 348.26566 130.88012 348.38207 130.97461 348.47656 C 131.0691 348.57105 131.18551 348.61719 131.32422 348.61719 C 131.46897 348.61719 131.58577 348.57105 131.67383 348.47656 C 131.76832 348.38207 131.81641 348.26566 131.81641 348.12695 L 131.81641 345.77344 L 133.02539 345.77344 L 133.19531 345.77344 L 134.82031 348.38086 C 134.92123 348.53847 135.06336 348.61719 135.24609 348.61719 C 135.39085 348.61719 135.50392 348.57616 135.58594 348.49414 C 135.67404 348.40608 135.7168 348.29969 135.7168 348.17383 C 135.7168 348.06687 135.68462 347.96224 135.62305 347.86133 L 134.17773 345.53711 C 134.56831 345.36061 134.87675 345.10034 135.10352 344.75391 C 135.33029 344.40732 135.44336 344.00973 135.44336 343.5625 C 135.44336 343.10896 135.33873 342.7063 135.13086 342.35352 C 134.92941 342.00089 134.6431 341.7265 134.27148 341.53125 C 133.906 341.33585 133.48956 341.23828 133.02344 341.23828 L 131.32422 341.23828 z M 131.81641 342.14453 L 133.02539 342.14453 C 133.45372 342.14453 133.80682 342.27833 134.08398 342.54297 C 134.36102 342.80754 134.5 343.14675 134.5 343.5625 C 134.5 343.94673 134.36128 344.26214 134.08398 344.50781 C 133.80695 344.74706 133.45372 344.86719 133.02539 344.86719 L 131.81641 344.86719 L 131.81641 342.14453 z M 21.375 342.25 C 20.70175 342.25035 20.08548 342.42011 19.525391 342.75977 C 18.97109 343.09346 18.532113 343.54936 18.210938 344.12891 C 17.889678 344.70208 17.728516 345.3364 17.728516 346.0293 C 17.728516 346.72851 17.889527 347.36776 18.210938 347.94727 C 18.532194 348.52674 18.97109 348.98256 19.525391 349.31641 C 20.086051 349.65014 20.702913 349.81836 21.376953 349.81836 C 22.239933 349.81836 23.011046 349.54397 23.691406 348.99609 C 23.792316 348.89518 23.841797 348.77877 23.841797 348.64648 C 23.841797 348.50778 23.802303 348.39804 23.720703 348.31641 C 23.645105 348.22831 23.547545 348.18359 23.427734 348.18359 C 23.326813 348.18359 23.222562 348.2232 23.115234 348.29883 C 22.560884 348.71458 21.981683 348.92188 21.376953 348.92188 C 20.885623 348.92188 20.431335 348.79336 20.015625 348.53516 C 19.606105 348.27701 19.278873 347.92729 19.033203 347.48633 C 18.793963 347.04538 18.673828 346.56042 18.673828 346.03125 C 18.673828 345.50842 18.793581 345.0269 19.033203 344.58594 C 19.278872 344.13871 19.606105 343.78559 20.015625 343.52734 C 20.431335 343.2692 20.885623 343.13867 21.376953 343.13867 C 21.767493 343.13867 22.084408 343.1901 22.330078 343.29102 C 22.575747 343.3855 22.827647 343.54118 23.085938 343.76172 C 23.186843 343.84373 23.298158 343.88672 23.417969 343.88672 C 23.53778 343.88672 23.640075 343.84411 23.728516 343.76172 C 23.823015 343.6797 23.871094 343.57508 23.871094 343.44922 C 23.871094 343.3672 23.859641 343.29892 23.832031 343.24219 C 23.805537 343.17907 23.755221 343.12115 23.679688 343.06445 C 23.320619 342.77455 22.966031 342.56542 22.613281 342.43945 C 22.267081 342.31397 21.854803 342.25195 21.376953 342.25195 L 21.375 342.25 z M 28.615234 342.25 C 27.884535 342.25 27.231453 342.41101 26.658203 342.73242 C 26.091283 343.05368 25.650883 343.50098 25.335938 344.07422 C 25.021099 344.64743 24.863281 345.29857 24.863281 346.0293 C 24.863281 346.76 25.020917 347.41462 25.335938 347.99414 C 25.650761 348.56738 26.091283 349.01468 26.658203 349.33594 C 27.231453 349.6572 27.884535 349.81836 28.615234 349.81836 C 29.345924 349.81836 29.993617 349.65739 30.560547 349.33594 C 31.127477 349.01468 31.569815 348.56738 31.884766 347.99414 C 32.206025 347.41462 32.365234 346.76 32.365234 346.0293 C 32.365234 345.29857 32.206134 344.64743 31.884766 344.07422 C 31.569923 343.50098 31.124021 343.05368 30.550781 342.73242 C 29.983851 342.41116 29.339655 342.25001 28.615234 342.25 z M 99.417969 342.25 C 98.687269 342.25 98.036132 342.41101 97.462891 342.73242 C 96.895961 343.05368 96.455565 343.50098 96.140625 344.07422 C 95.82579 344.64742 95.667969 345.29856 95.667969 346.0293 C 95.667969 346.75999 95.825613 347.41662 96.140625 347.99609 C 96.45546 348.56933 96.895961 349.01663 97.462891 349.33789 C 98.036132 349.65915 98.687269 349.81836 99.417969 349.81836 C 100.14869 349.81836 100.79834 349.65924 101.36523 349.33789 C 101.93219 349.01663 102.37252 348.56933 102.6875 347.99609 C 103.00876 347.41662 103.16992 346.75999 103.16992 346.0293 C 103.16992 345.29856 103.00891 344.64742 102.6875 344.07422 C 102.37267 343.50098 101.92871 343.05364 101.35547 342.73242 C 100.78854 342.41116 100.14238 342.25 99.417969 342.25 z M 11.279297 342.34375 C 11.140588 342.34375 11.030857 342.38155 10.949219 342.45703 C 10.873621 342.52623 10.835937 342.62418 10.835938 342.75 C 10.835938 342.8381 10.862208 342.94779 10.912109 343.08008 L 13.679688 349.41211 C 13.774183 349.61998 13.923479 349.72266 14.125 349.72266 C 14.339299 349.72266 14.486308 349.61998 14.568359 349.41211 L 17.365234 342.99609 C 17.403033 342.90799 17.421875 342.82559 17.421875 342.75 C 17.421875 342.63019 17.380477 342.53262 17.298828 342.45703 C 17.22323 342.38144 17.117224 342.34375 16.978516 342.34375 C 16.865126 342.34375 16.772665 342.36643 16.703125 342.41016 C 16.633926 342.44795 16.577802 342.52299 16.533203 342.63672 L 14.115234 348.34375 L 11.734375 342.63672 C 11.652374 342.44132 11.499636 342.34375 11.279297 342.34375 z M 84.511719 342.34375 C 84.379435 342.34375 84.266363 342.38985 84.171875 342.48438 C 84.077387 342.57886 84.03125 342.69528 84.03125 342.83398 L 84.03125 349.23047 C 84.03125 349.36918 84.074046 349.48559 84.162109 349.58008 C 84.256598 349.67457 84.37301 349.72269 84.511719 349.72266 L 88.423828 349.72266 C 88.562537 349.72266 88.678949 349.67453 88.773438 349.58008 C 88.867926 349.48559 88.916016 349.36918 88.916016 349.23047 C 88.916016 349.09176 88.867888 348.97535 88.773438 348.88086 C 88.678949 348.78637 88.562537 348.74023 88.423828 348.74023 L 85.003906 348.74023 L 85.003906 342.83398 C 85.003906 342.69528 84.955779 342.57886 84.861328 342.48438 C 84.76684 342.38989 84.650427 342.34375 84.511719 342.34375 z M 89.998047 342.34375 C 89.859338 342.34375 89.742926 342.38985 89.648438 342.48438 C 89.553949 342.57248 89.505859 342.68923 89.505859 342.83398 L 89.505859 349.23047 C 89.505859 349.36918 89.553987 349.48559 89.648438 349.58008 C 89.742926 349.67457 89.859338 349.72269 89.998047 349.72266 C 90.136756 349.72266 90.253168 349.67453 90.347656 349.58008 C 90.442144 349.48559 90.490234 349.36918 90.490234 349.23047 L 90.490234 346.45312 L 93.201172 346.45312 C 93.339881 346.45312 93.452953 346.41405 93.541016 346.33203 C 93.635504 346.24393 93.683594 346.13424 93.683594 346.00195 C 93.683594 345.86967 93.635466 345.76167 93.541016 345.67969 C 93.452915 345.59159 93.339503 345.54883 93.201172 345.54883 L 90.490234 345.54883 L 90.490234 343.25195 L 94.269531 343.25195 C 94.414287 343.25195 94.531078 343.21092 94.619141 343.12891 C 94.707241 343.04689 94.75 342.94012 94.75 342.80859 C 94.75 342.66989 94.707204 342.55933 94.619141 342.47656 C 94.53104 342.38846 94.414287 342.3457 94.269531 342.3457 L 89.998047 342.34375 z M 99.417969 343.13672 C 99.959685 343.13672 100.44122 343.26372 100.86328 343.51562 C 101.29162 343.76772 101.62587 344.11373 101.86523 344.55469 C 102.10448 344.99561 102.22461 345.48559 102.22461 346.02734 C 102.22461 346.56906 102.10486 347.06103 101.86523 347.50195 C 101.62599 347.94291 101.29162 348.29249 100.86328 348.55078 C 100.43491 348.80288 99.953414 348.92969 99.417969 348.92969 C 98.882561 348.92969 98.400986 348.8027 97.972656 348.55078 C 97.544285 348.29264 97.210102 347.94291 96.970703 347.50195 C 96.731459 347.06103 96.611328 346.56906 96.611328 346.02734 C 96.611328 345.48559 96.731459 344.99561 96.970703 344.55469 C 97.209947 344.11373 97.540831 343.76757 97.962891 343.51562 C 98.391258 343.26353 98.876249 343.13672 99.417969 343.13672 z M 28.615234 343.13867 C 29.156954 343.13867 29.638527 343.26387 30.060547 343.51562 C 30.488917 343.76772 30.82314 344.11374 31.0625 344.55469 C 31.301748 344.99565 31.421875 345.48758 31.421875 346.0293 C 31.421875 346.57102 31.302122 347.06299 31.0625 347.50391 C 30.82326 347.94486 30.488917 348.29445 30.060547 348.55273 C 29.632207 348.80483 29.150674 348.92969 28.615234 348.92969 C 28.079785 348.92969 27.598292 348.80445 27.169922 348.55273 C 26.741592 348.29459 26.407328 347.94486 26.167969 347.50391 C 25.928728 347.06299 25.808594 346.57102 25.808594 346.0293 C 25.808594 345.48758 25.928347 344.99565 26.167969 344.55469 C 26.407209 344.11374 26.738096 343.7676 27.160156 343.51562 C 27.588486 343.26353 28.073474 343.13867 28.615234 343.13867 z M 145.39062 343.40234 C 145.12612 343.40234 144.87912 343.44848 144.65234 343.54297 C 144.42557 343.63103 144.23018 343.75803 144.06641 343.92188 C 144.05847 343.78317 144.01388 343.67343 143.92578 343.5918 C 143.83768 343.50373 143.72465 343.46094 143.58594 343.46094 C 143.44723 343.46094 143.33082 343.50373 143.23633 343.5918 C 143.14823 343.67986 143.10352 343.79665 143.10352 343.94141 L 143.10352 348.14453 C 143.10352 348.28324 143.14868 348.39965 143.23633 348.49414 C 143.33082 348.5822 143.44723 348.62695 143.58594 348.62695 C 143.73069 348.62695 143.84748 348.5822 143.93555 348.49414 C 144.02365 348.39965 144.06641 348.28324 144.06641 348.14453 L 144.06641 345.48047 C 144.06641 345.12784 144.17103 344.8381 144.37891 344.61133 C 144.59321 344.38456 144.86729 344.27148 145.20117 344.27148 C 145.52243 344.27148 145.77782 344.37277 145.9668 344.57422 C 146.1622 344.76962 146.25977 345.05913 146.25977 345.44336 L 146.25977 348.14453 C 146.25977 348.28324 146.30304 348.39965 146.39062 348.49414 C 146.48511 348.5822 146.60153 348.62695 146.74023 348.62695 C 146.88499 348.62695 147.00178 348.5822 147.08984 348.49414 C 147.17794 348.39965 147.2207 348.28324 147.2207 348.14453 L 147.2207 345.48047 C 147.2207 345.12784 147.32533 344.8381 147.5332 344.61133 C 147.7475 344.38456 148.01817 344.27344 148.3457 344.27344 C 148.66696 344.27344 148.92235 344.37472 149.11133 344.57617 C 149.30673 344.77157 149.4043 345.06109 149.4043 345.44531 L 149.4043 348.14648 C 149.4043 348.28519 149.44946 348.40161 149.53711 348.49609 C 149.6316 348.58416 149.74801 348.62695 149.88672 348.62695 C 150.03147 348.62695 150.14827 348.58416 150.23633 348.49609 C 150.32443 348.40161 150.36719 348.28519 150.36719 348.14648 L 150.36719 345.44531 C 150.36719 344.80279 150.19751 344.30241 149.85742 343.94336 C 149.52369 343.5843 149.08319 343.4043 148.53516 343.4043 C 148.18857 343.4043 147.87327 343.46928 147.58984 343.60156 C 147.30638 343.73385 147.06983 343.91716 146.88086 344.15039 C 146.71721 343.91115 146.50631 343.72757 146.24805 343.60156 C 145.99595 343.46928 145.70993 343.4043 145.38867 343.4043 L 145.39062 343.40234 z M 154.56055 343.41406 L 154.56055 343.41602 C 154.07553 343.41602 153.63513 343.53249 153.23828 343.76562 C 152.84774 343.9924 152.53582 344.30391 152.30273 344.70703 C 152.07596 345.10388 151.96094 345.55163 151.96094 346.04297 L 151.96094 350.35156 C 151.96094 350.49632 152.00569 350.61116 152.09375 350.69922 C 152.18824 350.78728 152.30465 350.83008 152.44336 350.83008 C 152.58812 350.83008 152.70491 350.78728 152.79297 350.69922 C 152.88107 350.61116 152.92383 350.4967 152.92383 350.35156 L 152.92383 347.79883 C 153.14417 348.06982 153.41161 348.28241 153.72656 348.43359 C 154.0414 348.58477 154.38269 348.6582 154.74805 348.6582 C 155.20159 348.6582 155.61123 348.54513 155.97656 348.31836 C 156.34809 348.09159 156.6378 347.77966 156.8457 347.38281 C 157.06 346.97965 157.16602 346.53232 157.16602 346.04102 C 157.16602 345.54968 157.05294 345.10388 156.82617 344.70703 C 156.5994 344.30387 156.28402 343.99044 155.88086 343.76367 C 155.48456 343.5308 155.04478 343.41438 154.56055 343.41406 z M 139.06055 343.41602 C 138.57626 343.41634 138.13112 343.53281 137.72852 343.76562 C 137.33167 343.9924 137.01975 344.30391 136.79297 344.70703 C 136.5662 345.10388 136.45313 345.55163 136.45312 346.04297 C 136.45312 346.53427 136.55781 346.98164 136.76562 347.38477 C 136.97992 347.78165 137.26939 348.09354 137.63477 348.32031 C 138.00629 348.54708 138.4195 348.66016 138.87305 348.66016 C 139.23853 348.66016 139.57759 348.58515 139.89258 348.43359 C 140.20741 348.28241 140.47481 348.06959 140.69531 347.79883 L 140.69531 348.14844 C 140.69531 348.28715 140.74012 348.40356 140.82812 348.49805 C 140.92261 348.58611 141.03903 348.63086 141.17773 348.63086 C 141.31644 348.63086 141.42952 348.58611 141.51758 348.49805 C 141.61207 348.40356 141.6582 348.28715 141.6582 348.14844 L 141.6582 346.04297 C 141.6582 345.55163 141.54179 345.10583 141.30859 344.70898 C 141.08182 344.30582 140.76989 343.9924 140.37305 343.76562 C 139.98302 343.53281 139.54672 343.41634 139.0625 343.41602 L 139.06055 343.41602 z M 139.0625 344.26562 C 139.37733 344.26562 139.66013 344.34472 139.91211 344.50195 C 140.17025 344.65313 140.37267 344.86404 140.51758 345.13477 C 140.66233 345.40576 140.73438 345.70912 140.73438 346.04297 C 140.73438 346.3767 140.66271 346.67834 140.51758 346.94922 C 140.37282 347.21379 140.17026 347.42454 139.91211 347.58203 C 139.66001 347.73321 139.37745 347.80664 139.0625 347.80664 C 138.74767 347.80664 138.45942 347.73321 138.20117 347.58203 C 137.94908 347.42442 137.74884 347.2139 137.59766 346.94922 C 137.4529 346.67823 137.37695 346.37681 137.37695 346.04297 C 137.37695 345.70924 137.45252 345.40564 137.59766 345.13477 C 137.74884 344.86377 137.94912 344.65313 138.20117 344.50195 C 138.45931 344.34435 138.74752 344.26563 139.0625 344.26562 z M 154.56055 344.26562 C 154.87538 344.26562 155.15818 344.34472 155.41016 344.50195 C 155.6683 344.65313 155.87082 344.86404 156.01562 345.13477 C 156.16681 345.40576 156.24219 345.70912 156.24219 346.04297 C 156.24219 346.3767 156.16718 346.67834 156.01562 346.94922 C 155.87093 347.21379 155.66826 347.42454 155.41016 347.58203 C 155.15806 347.73321 154.87554 347.80664 154.56055 347.80664 C 154.24571 347.80664 153.95943 347.73321 153.70117 347.58203 C 153.44908 347.42442 153.25038 347.2139 153.10547 346.94922 C 152.96071 346.67823 152.88672 346.37681 152.88672 346.04297 C 152.88672 345.70924 152.96033 345.40564 153.10547 345.13477 C 153.25022 344.86377 153.449 344.65313 153.70117 344.50195 C 153.95931 344.34435 154.24561 344.26563 154.56055 344.26562 z M 142.43164 353.88281 L 142.43164 353.88477 C 126.23964 354.05027 110.83252 364.89259 105.48242 381.31445 C 100.47862 398.15482 106.99652 417.1907 122.35742 427.5918 A 4.9511801 4.9511801 0 0 0 125.46289 428.68945 A 4.9511801 4.9511801 0 0 0 130.41406 423.73828 A 4.9511801 4.9511801 0 0 0 127.79297 419.37109 A 32.125984 32.125984 0 0 1 111.87305 391.63477 A 32.125984 32.125984 0 0 1 144 359.50781 A 32.125984 32.125984 0 0 1 176.12695 391.63477 A 32.125984 32.125984 0 0 1 160.0625 419.45312 A 32.125984 32.125984 0 0 0 160.0625 419.45508 A 0.66141726 0.66141726 0 0 0 159.73242 420.02734 A 0.66141726 0.66141726 0 0 0 160.39258 420.68945 A 0.66141726 0.66141726 0 0 0 160.72461 420.60156 C 173.76081 413.85393 181.65255 397.8104 178.37695 382.42383 C 174.90015 367.09115 160.7567 354.78505 144 353.90234 C 143.4763 353.88401 142.95404 353.87901 142.43164 353.88281 z M 137.47852 423.85352 L 137.47852 423.85547 C 136.9809 423.85547 136.53011 423.93262 136.12695 424.08984 C 135.7301 424.24102 135.41667 424.46747 135.18359 424.76367 C 134.95682 425.05356 134.8418 425.39953 134.8418 425.80273 C 134.8418 426.3759 135.06633 426.85398 135.51367 427.23828 C 135.96094 427.61623 136.57435 427.84238 137.35547 427.91797 C 137.9224 427.97466 138.34589 428.13234 138.62305 428.39062 C 138.90009 428.64272 139.03711 428.94759 139.03711 429.30664 C 139.03711 429.68459 138.87454 429.98272 138.54688 430.20312 C 138.21919 430.41742 137.81814 430.52734 137.3457 430.52734 C 136.94253 430.52734 136.57409 430.44156 136.24023 430.27148 C 135.9065 430.10141 135.6837 429.89384 135.57031 429.64844 C 135.52609 429.54752 135.45582 429.4688 135.36133 429.41211 C 135.27323 429.34899 135.17866 429.31836 135.07812 429.31836 C 135.03278 429.31836 135.00201 429.31963 134.98438 429.32617 C 134.86456 429.35263 134.77034 429.40293 134.70117 429.47852 C 134.63197 429.54768 134.59766 429.62817 134.59766 429.72266 C 134.59766 429.77292 134.61275 429.83457 134.64453 429.91016 C 134.83351 430.35739 135.17622 430.72089 135.67383 430.99805 C 136.17779 431.27509 136.73466 431.41406 137.3457 431.41406 C 137.81182 431.41406 138.24726 431.33692 138.65039 431.17969 C 139.05986 431.01603 139.38714 430.77243 139.63281 430.45117 C 139.87848 430.12349 140.00195 429.73284 140.00195 429.2793 C 140.00195 428.65567 139.79446 428.1553 139.37891 427.77734 C 138.96315 427.39312 138.37896 427.16352 137.62305 427.08789 C 136.94274 427.01873 136.46769 426.8728 136.20312 426.65234 C 135.93861 426.432 135.80664 426.15761 135.80664 425.83008 C 135.80664 425.47745 135.95406 425.21001 136.25 425.02734 C 136.54594 424.83837 136.93339 424.74414 137.41211 424.74414 C 137.80268 424.74414 138.12497 424.81757 138.37695 424.96875 C 138.63509 425.11351 138.84945 425.32783 139.01953 425.61133 C 139.06371 425.69334 139.12502 425.76028 139.20703 425.81055 C 139.28905 425.85477 139.38012 425.87891 139.47461 425.87891 C 139.5691 425.87891 139.64958 425.85439 139.71875 425.81055 C 139.84461 425.72248 139.90625 425.60903 139.90625 425.4707 C 139.90625 425.36374 139.86856 425.25029 139.79297 425.13086 C 139.53483 424.72142 139.22129 424.40796 138.84961 424.1875 C 138.47808 423.96715 138.02024 423.85352 137.47852 423.85352 z M 45.667969 423.92188 C 45.52926 423.92188 45.412848 423.96996 45.318359 424.06445 C 45.223871 424.15252 45.177734 424.26931 45.177734 424.41406 L 45.177734 430.81055 C 45.177734 430.94926 45.223871 431.06567 45.318359 431.16016 C 45.412848 431.25464 45.52926 431.30078 45.667969 431.30078 C 45.812725 431.30078 45.929515 431.25464 46.017578 431.16016 C 46.112066 431.06567 46.160156 430.94926 46.160156 430.81055 L 46.160156 428.74023 L 47.558594 428.74023 C 48.024723 428.74023 48.441274 428.63895 48.806641 428.4375 C 49.178168 428.23605 49.464453 427.95675 49.666016 427.59766 C 49.87389 427.2386 49.976562 426.829 49.976562 426.36914 C 49.976562 425.8967 49.87389 425.47512 49.666016 425.10352 C 49.464567 424.73199 49.178282 424.44227 48.806641 424.23438 C 48.44116 424.0265 48.024723 423.92187 47.558594 423.92188 L 45.667969 423.92188 z M 57.693359 423.92188 C 57.554651 423.92188 57.441579 423.96662 57.353516 424.05469 C 57.265453 424.14275 57.222656 424.25582 57.222656 424.39453 L 57.222656 429.55273 C 57.222656 429.88647 57.280958 430.19006 57.400391 430.46094 C 57.520202 430.7255 57.688007 430.9328 57.902344 431.08398 C 58.12269 431.22874 58.367793 431.30078 58.638672 431.30078 L 58.65625 431.30078 C 58.845226 431.30078 58.999447 431.25798 59.119141 431.16992 C 59.238952 431.08186 59.299206 430.96646 59.298828 430.82812 C 59.298828 430.68947 59.258175 430.57634 59.175781 430.48828 C 59.100191 430.40022 58.998905 430.35547 58.873047 430.35547 L 58.636719 430.35547 C 58.49801 430.35547 58.384938 430.28009 58.296875 430.12891 C 58.208812 429.97773 58.164063 429.78574 58.164062 429.55273 L 58.164062 424.39453 C 58.164062 424.25582 58.123219 424.14275 58.035156 424.05469 C 57.947093 423.96662 57.83169 423.92383 57.693359 423.92383 L 57.693359 423.92188 z M 46.160156 424.82812 L 47.558594 424.82812 C 47.986965 424.82812 48.340035 424.97401 48.617188 425.26367 C 48.894222 425.55356 49.033203 425.92187 49.033203 426.36914 C 49.033203 426.79744 48.894486 427.15058 48.617188 427.42773 C 48.340148 427.69873 47.986965 427.83398 47.558594 427.83398 L 46.160156 427.83398 L 46.160156 424.82812 z M 62.066406 426.0957 C 61.732674 426.0957 61.417144 426.14852 61.121094 426.25586 C 60.825157 426.36282 60.586961 426.52421 60.404297 426.73828 C 60.221746 426.95258 60.128906 427.21281 60.128906 427.52148 C 60.128906 428.2837 60.733873 428.78263 61.943359 429.01562 C 62.409526 429.10369 62.740259 429.21342 62.935547 429.3457 C 63.130948 429.47156 63.228516 429.63296 63.228516 429.82812 C 63.228516 430.02957 63.12723 430.18912 62.925781 430.30859 C 62.73038 430.4284 62.454758 430.48633 62.095703 430.48633 C 61.824711 430.48633 61.569436 430.44214 61.330078 430.34766 C 61.090834 430.24674 60.910675 430.13033 60.791016 429.99805 C 60.67763 429.88466 60.555919 429.82617 60.429688 429.82617 C 60.328774 429.82617 60.220996 429.86702 60.101562 429.95508 C 59.975709 430.04957 59.912109 430.17499 59.912109 430.32617 C 59.912109 430.43956 59.952763 430.53712 60.035156 430.61914 C 60.249455 430.83344 60.545838 431.00643 60.923828 431.13867 C 61.301781 431.27096 61.704446 431.33789 62.132812 431.33789 C 62.561184 431.33789 62.926153 431.27096 63.228516 431.13867 C 63.537303 430.99996 63.770317 430.81515 63.927734 430.58203 C 64.085341 430.34279 64.164064 430.07689 64.164062 429.78711 C 64.164062 429.39657 64.020434 429.07965 63.730469 428.83398 C 63.447004 428.58832 62.96198 428.39438 62.275391 428.25586 C 61.941658 428.18669 61.686156 428.11637 61.509766 428.04688 C 61.333262 427.97128 61.213509 427.89414 61.150391 427.8125 C 61.087273 427.72444 61.056641 427.62 61.056641 427.49414 C 61.056641 427.31764 61.146771 427.18234 61.330078 427.08789 C 61.519055 426.98698 61.759086 426.93555 62.048828 426.93555 C 62.300923 426.93555 62.51505 426.96964 62.691406 427.03125 C 62.86791 427.08794 63.033838 427.1869 63.191406 427.33203 C 63.32369 427.45184 63.471078 427.50977 63.634766 427.50977 C 63.741726 427.50977 63.831225 427.48701 63.900391 427.4375 C 64.007351 427.34944 64.060547 427.25149 64.060547 427.14453 C 64.060547 427.04362 64.019516 426.94271 63.9375 426.8418 C 63.748524 426.6086 63.489647 426.42518 63.162109 426.29297 C 62.84085 426.16069 62.47588 426.0957 62.066406 426.0957 z M 67.669922 426.0957 C 67.178583 426.0957 66.738195 426.20878 66.347656 426.43555 C 65.963392 426.65589 65.659951 426.96793 65.439453 427.37109 C 65.225154 427.76794 65.119141 428.21873 65.119141 428.72266 C 65.119141 429.22662 65.232213 429.67542 65.458984 430.07227 C 65.692181 430.46912 66.012401 430.78104 66.421875 431.00781 C 66.831311 431.22816 67.294037 431.33984 67.810547 431.33984 C 68.100437 431.33984 68.40384 431.2847 68.71875 431.17773 C 69.04001 431.07077 69.307336 430.93356 69.521484 430.76367 C 69.622398 430.68808 69.673828 430.59152 69.673828 430.47852 C 69.673828 430.3587 69.615339 430.25231 69.501953 430.1582 C 69.432788 430.09509 69.338183 430.06445 69.21875 430.06445 C 69.098939 430.06445 68.996644 430.09843 68.908203 430.16797 C 68.77592 430.26888 68.604321 430.35271 68.396484 430.42188 C 68.195036 430.49099 67.999523 430.52734 67.810547 430.52734 C 67.331832 430.52734 66.92568 430.39205 66.591797 430.12109 C 66.264112 429.8501 66.067363 429.49369 65.998047 429.05273 L 69.587891 429.05273 C 69.713749 429.05273 69.818375 429.01504 69.900391 428.93945 C 69.982406 428.85744 70.023438 428.75653 70.023438 428.63672 C 70.023438 428.13914 69.927258 427.69872 69.738281 427.31445 C 69.549305 426.93023 69.278562 426.6302 68.925781 426.41602 C 68.573151 426.20172 68.154986 426.0957 67.669922 426.0957 z M 143.74805 426.11523 C 143.26299 426.11523 142.81918 426.23165 142.41602 426.46484 C 142.01916 426.69162 141.70724 427.00512 141.48047 427.4082 C 141.2537 427.80509 141.14062 428.24886 141.14062 428.74023 C 141.14062 429.23154 141.2433 429.67887 141.45117 430.08203 C 141.66547 430.47888 141.95686 430.79081 142.32227 431.01758 C 142.69379 431.24435 143.10505 431.35742 143.55859 431.35742 C 143.92407 431.35742 144.26513 431.28204 144.58008 431.13086 C 144.89491 430.97968 145.16235 430.76885 145.38281 430.49805 L 145.38281 430.84766 C 145.38281 430.98636 145.42803 431.10278 145.51562 431.19727 C 145.61011 431.28533 145.72653 431.32813 145.86523 431.32812 C 146.00394 431.32812 146.11702 431.28533 146.20508 431.19727 C 146.29957 431.10278 146.3457 430.98636 146.3457 430.84766 L 146.3457 428.74023 C 146.3457 428.2489 146.22929 427.80505 145.99609 427.4082 C 145.76932 427.00508 145.4574 426.69162 145.06055 426.46484 C 144.67001 426.23165 144.2331 426.11523 143.74805 426.11523 z M 51.347656 426.12305 C 51.208948 426.12305 51.092535 426.17119 50.998047 426.26562 C 50.909984 426.35369 50.865234 426.46676 50.865234 426.60547 L 50.865234 428.92969 C 50.865234 429.43992 50.962802 429.87686 51.158203 430.24219 C 51.353605 430.60124 51.624272 430.87544 51.970703 431.06445 C 52.317286 431.25343 52.707932 431.34766 53.142578 431.34766 C 53.457413 431.34766 53.754097 431.29484 54.03125 431.1875 C 54.308289 431.07411 54.548476 430.91656 54.75 430.71484 L 54.75 430.82031 C 54.75 430.95902 54.792796 431.07543 54.880859 431.16992 C 54.975348 431.25798 55.09176 431.29883 55.230469 431.29883 C 55.375225 431.29883 55.492015 431.25798 55.580078 431.16992 C 55.668141 431.07543 55.712891 430.95902 55.712891 430.82031 L 55.712891 426.60547 C 55.712891 426.46071 55.668141 426.34392 55.580078 426.25586 C 55.492015 426.1678 55.375225 426.12305 55.230469 426.12305 C 55.09176 426.12305 54.975348 426.1678 54.880859 426.25586 C 54.792796 426.34392 54.75 426.46071 54.75 426.60547 L 54.75 429.26953 C 54.75 429.4963 54.686405 429.70218 54.560547 429.88477 C 54.440736 430.06732 54.27143 430.21129 54.050781 430.31836 C 53.836482 430.42532 53.596598 430.47852 53.332031 430.47852 C 52.878488 430.47852 52.513443 430.35001 52.236328 430.0918 C 51.965336 429.82723 51.830078 429.43992 51.830078 428.92969 L 51.830078 426.60547 C 51.830078 426.46676 51.781988 426.35369 51.6875 426.26562 C 51.599437 426.17119 51.486365 426.12305 51.347656 426.12305 z M 147.21094 426.15234 C 146.94637 426.15234 146.81445 426.2843 146.81445 426.54883 C 146.81445 426.64332 146.82596 426.73244 146.85352 426.81445 L 148.25195 431.00781 C 148.28219 431.09588 148.3399 431.17321 148.42188 431.23633 C 148.50993 431.29302 148.60454 431.32031 148.70508 431.32031 C 148.80599 431.32031 148.89845 431.29378 148.98047 431.23633 C 149.06857 431.17321 149.12879 431.09625 149.16016 431.00781 L 150.13281 427.57812 L 151.05859 431.00781 C 151.08505 431.09588 151.1367 431.17321 151.21875 431.23633 C 151.30685 431.29302 151.40476 431.32031 151.51172 431.32031 C 151.61263 431.32031 151.70509 431.29378 151.78711 431.23633 C 151.86913 431.17321 151.92724 431.09625 151.95898 431.00781 L 153.35742 426.81445 C 153.38766 426.73244 153.40234 426.63998 153.40234 426.53906 C 153.40234 426.41925 153.36837 426.32502 153.29883 426.25586 C 153.23571 426.18669 153.1401 426.15234 153.00781 426.15234 C 152.76857 426.15234 152.60381 426.29639 152.51562 426.58594 L 151.47656 429.83789 L 150.625 426.51172 C 150.59476 426.40476 150.53518 426.31898 150.45312 426.25586 C 150.37758 426.18669 150.27997 426.15234 150.16016 426.15234 C 150.0343 426.15234 149.93163 426.18632 149.84961 426.25586 C 149.77402 426.31898 149.7212 426.40476 149.68945 426.51172 L 148.72461 429.77148 L 147.70508 426.58594 C 147.65477 426.43476 147.58788 426.32502 147.50586 426.25586 C 147.43027 426.18669 147.33232 426.15234 147.21289 426.15234 L 147.21094 426.15234 z M 67.669922 426.9082 C 68.08567 426.9082 68.423423 427.03344 68.681641 427.28516 C 68.939782 427.53725 69.095613 427.87485 69.152344 428.29688 L 66.005859 428.29688 C 66.08145 427.87485 66.261344 427.5371 66.544922 427.28516 C 66.834812 427.03306 67.210067 426.9082 67.669922 426.9082 z M 143.74805 426.96484 C 144.06288 426.96484 144.34568 427.04394 144.59766 427.20117 C 144.8558 427.35235 145.05831 427.56326 145.20312 427.83398 C 145.34788 428.10498 145.41992 428.40639 145.41992 428.74023 C 145.41992 429.07397 145.34826 429.3776 145.20312 429.64844 C 145.05842 429.913 144.85576 430.12379 144.59766 430.28125 C 144.34556 430.43243 144.063 430.50781 143.74805 430.50781 C 143.43321 430.50781 143.14693 430.43205 142.88867 430.28125 C 142.63658 430.12364 142.43438 429.91312 142.2832 429.64844 C 142.13845 429.37745 142.06641 429.07408 142.06641 428.74023 C 142.06641 428.4065 142.13807 428.1049 142.2832 427.83398 C 142.43438 427.56299 142.63658 427.35235 142.88867 427.20117 C 143.14681 427.04357 143.43307 426.96484 143.74805 426.96484 z M 106.43359 461.01367 C 105.75018 461.01371 105.07571 461.19356 104.48047 461.5293 A 0.21677813 0.21677813 0 0 0 104.47852 461.5293 L 104.38477 461.58203 L 99.191406 464.58203 A 0.21677813 0.21677813 0 0 0 99.111328 464.875 L 102.86523 471.37891 A 0.21677813 0.21677813 0 0 0 103.16211 471.45898 L 108.38281 468.44336 C 109.63077 467.73961 110.40426 466.41703 110.4043 464.98438 C 110.4043 462.7938 108.62414 461.01367 106.43359 461.01367 z M 106.43359 461.44727 C 108.38988 461.4473 109.96875 463.02813 109.96875 464.98438 C 109.96871 466.26128 109.28411 467.43916 108.17188 468.06641 A 0.21677813 0.21677813 0 0 0 108.16797 468.06641 L 103.13086 470.97461 L 99.595703 464.84766 L 104.60352 461.95703 L 104.69531 461.90625 C 105.22566 461.60729 105.82467 461.44926 106.43359 461.44922 L 106.43359 461.44727 z M 98.541016 464.98633 A 0.2171198 0.2171198 0 0 0 98.523438 464.98828 A 0.2171198 0.2171198 0 0 0 98.435547 465.01562 L 91.304688 469.13281 A 0.2171198 0.2171198 0 0 0 91.195312 469.32227 L 91.195312 473.6582 A 0.2171198 0.2171198 0 0 0 91.304688 473.84375 L 95.056641 476.01367 A 0.2171198 0.2171198 0 0 0 95.275391 476.01367 L 102.4082 471.89453 A 0.2171198 0.2171198 0 0 0 102.48828 471.59766 L 98.734375 465.0918 A 0.2171198 0.2171198 0 0 0 98.542969 464.98633 L 98.541016 464.98633 z M 103.42578 471.70312 A 0.21709807 0.21709807 0 0 0 103.4082 471.70508 A 0.21709807 0.21709807 0 0 0 103.32227 471.73633 A 0.21709807 0.21709807 0 0 0 103.24219 472.0332 L 104.74609 474.63477 A 0.21709807 0.21709807 0 0 0 105.04102 474.71094 A 0.21709807 0.21709807 0 0 0 105.12109 474.41602 L 103.61914 471.81445 A 0.21709807 0.21709807 0 0 0 103.42773 471.70508 L 103.42578 471.70312 z M 102.67188 472.13867 A 0.21709807 0.21709807 0 0 0 102.6582 472.14062 A 0.21709807 0.21709807 0 0 0 102.57422 472.17188 A 0.21709807 0.21709807 0 0 0 102.49414 472.4668 L 103.99609 475.06836 A 0.21709807 0.21709807 0 0 0 104.29297 475.14844 A 0.21709807 0.21709807 0 0 0 104.36914 474.85156 L 102.86914 472.24805 A 0.21709807 0.21709807 0 0 0 102.67188 472.14062 L 102.67188 472.13867 z M 95.167969 476.47266 A 0.21709807 0.21709807 0 0 0 94.951172 476.69141 L 94.951172 480.16016 A 0.21709807 0.21709807 0 0 0 95.167969 480.37891 A 0.21709807 0.21709807 0 0 0 95.386719 480.16016 L 95.386719 476.69141 A 0.21709807 0.21709807 0 0 0 95.167969 476.47266 z M -0.18945312 485.48047 L -0.18945312 485.85742 L 0.18945312 485.85742 L 0.18945312 485.48047 L -0.18945312 485.48047 z M 201.41016 485.48047 L 201.41016 485.85742 L 201.78906 485.85742 L 201.78906 485.48047 L 201.41016 485.48047 z "
       style="display:inline;opacity:0.995;fill:#1b1b1b;fill-opacity:1;stroke:none;stroke-width:1.13386;stroke-linecap:round;stroke-linejoin:round;stroke-dashoffset:0.566929;stroke-opacity:0.996078;filter:url(#filter28906-7-2-4);stop-color:#000000"
       id="path1622-8" />
  </g>
</svg>
