M48
; DRILL file {KiCad (6.0.0)} date Tue Aug  9 16:31:57 2022
; FORMAT={-:-/ absolute / metric / decimal}
; #@! TF.CreationDate,2022-08-09T16:31:57+02:00
; #@! TF.GenerationSoftware,Kicad,Pcbnew,(6.0.0)
; #@! TF.FileFunction,Plated,1,2,PTH
FMAT,2
METRIC
; #@! TA.AperFunction,Plated,PTH,ComponentDrill
T1C0.500
; #@! TA.AperFunction,Plated,PTH,ComponentDrill
T2C0.762
; #@! TA.AperFunction,Plated,PTH,ComponentDrill
T3C0.800
; #@! TA.AperFunction,Plated,PTH,ComponentDrill
T4C0.900
; #@! TA.AperFunction,Plated,PTH,ComponentDrill
T5C1.000
%
G90
G05
T2
X8.34Y-14.605
X8.34Y-17.145
X8.34Y-19.685
X8.34Y-36.195
X8.34Y-38.735
X8.34Y-41.275
X8.34Y-57.785
X8.34Y-60.325
X8.34Y-62.865
X12.7Y-85.725
X15.24Y-85.725
X17.78Y-85.725
X31.2Y-3.81
X31.2Y-6.35
X31.2Y-8.89
X31.2Y-25.4
X31.2Y-27.94
X31.2Y-30.48
X31.2Y-46.99
X31.2Y-49.53
X31.2Y-52.07
X31.2Y-68.58
X31.2Y-71.12
X31.2Y-73.66
X31.2Y-90.17
X31.2Y-92.71
X31.2Y-95.25
T3
X10.16Y-6.35
X10.16Y-24.765
X10.16Y-27.94
X10.16Y-31.115
X10.16Y-81.28
X10.16Y-90.17
X20.32Y-6.35
X20.32Y-24.765
X20.32Y-27.94
X20.32Y-31.115
X20.32Y-81.28
X20.32Y-90.17
X29.845Y-15.875
X29.845Y-37.465
X29.845Y-59.055
X29.845Y-80.645
X29.845Y-102.235
X40.005Y-15.875
X40.005Y-37.465
X40.005Y-59.055
X40.005Y-80.645
X40.005Y-102.235
T4
X4.445Y-27.94
X5.715Y-84.45
X5.715Y-86.99
X6.985Y-27.94
X13.965Y-2.54
X16.505Y-2.54
X24.765Y-84.46
X24.765Y-87.0
T5
X1.27Y-10.795
X1.27Y-13.335
X1.27Y-15.875
X1.27Y-42.545
X1.27Y-45.085
X1.27Y-86.042
X22.86Y-1.27
X25.4Y-1.27
X26.67Y-46.99
X26.67Y-49.53
X26.67Y-52.07
X26.67Y-54.61
X26.67Y-57.15
X26.67Y-59.69
X27.94Y-1.27
X30.48Y-1.27
X52.07Y-8.89
T1
X2.615Y-69.1G85X2.615Y-70.6
G05
X2.615Y-101.485G85X2.615Y-102.985
G05
X10.865Y-69.1G85X10.865Y-70.6
G05
X10.865Y-101.485G85X10.865Y-102.985
G05
X15.99Y-12.245G85X14.49Y-12.245
G05
X15.99Y-22.045G85X14.49Y-22.045
G05
X15.99Y-33.835G85X14.49Y-33.835
G05
X15.99Y-43.635G85X14.49Y-43.635
G05
X15.99Y-55.425G85X14.49Y-55.425
G05
X15.99Y-65.225G85X14.49Y-65.225
G05
X38.85Y-1.45G85X37.35Y-1.45
G05
X38.85Y-11.25G85X37.35Y-11.25
G05
X38.85Y-23.04G85X37.35Y-23.04
G05
X38.85Y-32.84G85X37.35Y-32.84
G05
X38.85Y-44.63G85X37.35Y-44.63
G05
X38.85Y-54.43G85X37.35Y-54.43
G05
X38.85Y-66.22G85X37.35Y-66.22
G05
X38.85Y-76.02G85X37.35Y-76.02
G05
X38.85Y-87.81G85X37.35Y-87.81
G05
X38.85Y-97.61G85X37.35Y-97.61
G05
X42.475Y-16.625G85X42.475Y-15.125
G05
X42.475Y-38.215G85X42.475Y-36.715
G05
X42.475Y-59.805G85X42.475Y-58.305
G05
X42.475Y-81.395G85X42.475Y-79.895
G05
X42.475Y-102.985G85X42.475Y-101.485
G05
X50.725Y-16.625G85X50.725Y-15.125
G05
X50.725Y-38.215G85X50.725Y-36.715
G05
X50.725Y-59.805G85X50.725Y-58.305
G05
X50.725Y-81.395G85X50.725Y-79.895
G05
X50.725Y-102.985G85X50.725Y-101.485
G05
T0
M30
