G04 #@! TF.GenerationSoftware,KiCad,Pcbnew,(6.0.0)*
G04 #@! TF.CreationDate,2022-08-09T16:31:54+02:00*
G04 #@! TF.ProjectId,FG-VCO-(interface),46472d56-434f-42d2-9869-6e7465726661,rev?*
G04 #@! TF.SameCoordinates,Original*
G04 #@! TF.FileFunction,Soldermask,Bot*
G04 #@! TF.FilePolarity,Negative*
%FSLAX46Y46*%
G04 Gerber Fmt 4.6, Leading zero omitted, Abs format (unit mm)*
G04 Created by KiCad (PCBNEW (6.0.0)) date 2022-08-09 16:31:54*
%MOMM*%
%LPD*%
G01*
G04 APERTURE LIST*
%ADD10C,1.600000*%
%ADD11O,1.600000X1.600000*%
%ADD12C,3.000000*%
%ADD13O,1.500000X3.000000*%
%ADD14R,1.800000X1.800000*%
%ADD15C,1.800000*%
%ADD16C,3.200000*%
%ADD17C,1.524000*%
%ADD18O,3.000000X1.500000*%
%ADD19R,1.700000X1.700000*%
%ADD20O,1.700000X1.700000*%
G04 APERTURE END LIST*
D10*
X20320000Y-31115000D03*
D11*
X10160000Y-31115000D03*
D10*
X20320000Y-24765000D03*
D11*
X10160000Y-24765000D03*
D12*
X47625000Y-59055000D03*
D13*
X42475000Y-59055000D03*
X50725000Y-59055000D03*
D12*
X5715000Y-69850000D03*
D13*
X10865000Y-69850000D03*
X2615000Y-69850000D03*
D14*
X24765000Y-87000000D03*
D15*
X24765000Y-84460000D03*
D12*
X47625000Y-80645000D03*
D13*
X42475000Y-80645000D03*
X50725000Y-80645000D03*
D10*
X29845000Y-15875000D03*
D11*
X40005000Y-15875000D03*
D10*
X29845000Y-102235000D03*
D11*
X40005000Y-102235000D03*
D10*
X20320000Y-90170000D03*
D11*
X10160000Y-90170000D03*
D12*
X5715000Y-102235000D03*
D13*
X10865000Y-102235000D03*
X2615000Y-102235000D03*
D10*
X10160000Y-6350000D03*
D11*
X20320000Y-6350000D03*
D10*
X10160000Y-27940000D03*
D11*
X20320000Y-27940000D03*
D16*
X3810000Y-3810000D03*
D17*
X31200000Y-30480000D03*
X31200000Y-27940000D03*
X31200000Y-25400000D03*
D18*
X38100000Y-23040000D03*
X38100000Y-32840000D03*
D17*
X31200000Y-52070000D03*
X31200000Y-49530000D03*
X31200000Y-46990000D03*
D18*
X38100000Y-44630000D03*
X38100000Y-54430000D03*
D19*
X52070000Y-8890000D03*
D17*
X17780000Y-85725000D03*
X15240000Y-85725000D03*
X12700000Y-85725000D03*
D12*
X47625000Y-37465000D03*
D13*
X42475000Y-37465000D03*
X50725000Y-37465000D03*
D12*
X47625000Y-15875000D03*
D13*
X42475000Y-15875000D03*
X50725000Y-15875000D03*
D10*
X29845000Y-37465000D03*
D11*
X40005000Y-37465000D03*
D17*
X8340000Y-19685000D03*
X8340000Y-17145000D03*
X8340000Y-14605000D03*
D18*
X15240000Y-22045000D03*
X15240000Y-12245000D03*
D17*
X31200000Y-95250000D03*
X31200000Y-92710000D03*
X31200000Y-90170000D03*
D18*
X38100000Y-87810000D03*
X38100000Y-97610000D03*
D10*
X29845000Y-59055000D03*
D11*
X40005000Y-59055000D03*
D14*
X5715000Y-84450000D03*
D15*
X5715000Y-86990000D03*
D17*
X8340000Y-62865000D03*
X8340000Y-60325000D03*
X8340000Y-57785000D03*
D18*
X15240000Y-65225000D03*
X15240000Y-55425000D03*
D10*
X10160000Y-81280000D03*
D11*
X20320000Y-81280000D03*
D12*
X47625000Y-102235000D03*
D13*
X42475000Y-102235000D03*
X50725000Y-102235000D03*
D14*
X13965000Y-2540000D03*
D15*
X16505000Y-2540000D03*
D19*
X1270000Y-86042500D03*
D16*
X26670000Y-102870000D03*
D17*
X31200000Y-8890000D03*
X31200000Y-6350000D03*
X31200000Y-3810000D03*
D18*
X38100000Y-11250000D03*
X38100000Y-1450000D03*
D10*
X29845000Y-80645000D03*
D11*
X40005000Y-80645000D03*
D17*
X8340000Y-41275000D03*
X8340000Y-38735000D03*
X8340000Y-36195000D03*
D18*
X15240000Y-43635000D03*
X15240000Y-33835000D03*
D16*
X49530000Y-3810000D03*
D14*
X6985000Y-27940000D03*
D15*
X4445000Y-27940000D03*
D17*
X31200000Y-73660000D03*
X31200000Y-71120000D03*
X31200000Y-68580000D03*
D18*
X38100000Y-76020000D03*
X38100000Y-66220000D03*
D19*
X1270000Y-42545000D03*
D20*
X1270000Y-45085000D03*
D19*
X30480000Y-1270000D03*
D20*
X27940000Y-1270000D03*
X25400000Y-1270000D03*
X22860000Y-1270000D03*
D19*
X26670000Y-46990000D03*
D20*
X26670000Y-49530000D03*
X26670000Y-52070000D03*
X26670000Y-54610000D03*
X26670000Y-57150000D03*
X26670000Y-59690000D03*
D19*
X1270000Y-10795000D03*
D20*
X1270000Y-13335000D03*
X1270000Y-15875000D03*
M02*
