G04 #@! TF.GenerationSoftware,KiCad,Pcbnew,(6.0.0)*
G04 #@! TF.CreationDate,2022-08-09T16:31:54+02:00*
G04 #@! TF.ProjectId,FG-VCO-(interface),46472d56-434f-42d2-9869-6e7465726661,rev?*
G04 #@! TF.SameCoordinates,Original*
G04 #@! TF.FileFunction,Legend,Top*
G04 #@! TF.FilePolarity,Positive*
%FSLAX46Y46*%
G04 Gerber Fmt 4.6, Leading zero omitted, Abs format (unit mm)*
G04 Created by KiCad (PCBNEW (6.0.0)) date 2022-08-09 16:31:54*
%MOMM*%
%LPD*%
G01*
G04 APERTURE LIST*
%ADD10C,0.150000*%
%ADD11C,0.120000*%
%ADD12C,1.600000*%
%ADD13O,1.600000X1.600000*%
%ADD14C,3.000000*%
%ADD15O,1.500000X3.000000*%
%ADD16R,1.800000X1.800000*%
%ADD17C,1.800000*%
%ADD18C,3.200000*%
%ADD19C,1.524000*%
%ADD20O,3.000000X1.500000*%
%ADD21R,1.700000X1.700000*%
%ADD22O,1.700000X1.700000*%
G04 APERTURE END LIST*
D10*
X14597142Y-31567380D02*
X14263809Y-31091190D01*
X14025714Y-31567380D02*
X14025714Y-30567380D01*
X14406666Y-30567380D01*
X14501904Y-30615000D01*
X14549523Y-30662619D01*
X14597142Y-30757857D01*
X14597142Y-30900714D01*
X14549523Y-30995952D01*
X14501904Y-31043571D01*
X14406666Y-31091190D01*
X14025714Y-31091190D01*
X15549523Y-31567380D02*
X14978095Y-31567380D01*
X15263809Y-31567380D02*
X15263809Y-30567380D01*
X15168571Y-30710238D01*
X15073333Y-30805476D01*
X14978095Y-30853095D01*
X16501904Y-31567380D02*
X15930476Y-31567380D01*
X16216190Y-31567380D02*
X16216190Y-30567380D01*
X16120952Y-30710238D01*
X16025714Y-30805476D01*
X15930476Y-30853095D01*
X14597142Y-25217380D02*
X14263809Y-24741190D01*
X14025714Y-25217380D02*
X14025714Y-24217380D01*
X14406666Y-24217380D01*
X14501904Y-24265000D01*
X14549523Y-24312619D01*
X14597142Y-24407857D01*
X14597142Y-24550714D01*
X14549523Y-24645952D01*
X14501904Y-24693571D01*
X14406666Y-24741190D01*
X14025714Y-24741190D01*
X15549523Y-25217380D02*
X14978095Y-25217380D01*
X15263809Y-25217380D02*
X15263809Y-24217380D01*
X15168571Y-24360238D01*
X15073333Y-24455476D01*
X14978095Y-24503095D01*
X16168571Y-24217380D02*
X16263809Y-24217380D01*
X16359047Y-24265000D01*
X16406666Y-24312619D01*
X16454285Y-24407857D01*
X16501904Y-24598333D01*
X16501904Y-24836428D01*
X16454285Y-25026904D01*
X16406666Y-25122142D01*
X16359047Y-25169761D01*
X16263809Y-25217380D01*
X16168571Y-25217380D01*
X16073333Y-25169761D01*
X16025714Y-25122142D01*
X15978095Y-25026904D01*
X15930476Y-24836428D01*
X15930476Y-24598333D01*
X15978095Y-24407857D01*
X16025714Y-24312619D01*
X16073333Y-24265000D01*
X16168571Y-24217380D01*
X47291666Y-55332380D02*
X47291666Y-56046666D01*
X47244047Y-56189523D01*
X47148809Y-56284761D01*
X47005952Y-56332380D01*
X46910714Y-56332380D01*
X47672619Y-55332380D02*
X48291666Y-55332380D01*
X47958333Y-55713333D01*
X48101190Y-55713333D01*
X48196428Y-55760952D01*
X48244047Y-55808571D01*
X48291666Y-55903809D01*
X48291666Y-56141904D01*
X48244047Y-56237142D01*
X48196428Y-56284761D01*
X48101190Y-56332380D01*
X47815476Y-56332380D01*
X47720238Y-56284761D01*
X47672619Y-56237142D01*
X5381666Y-66127380D02*
X5381666Y-66841666D01*
X5334047Y-66984523D01*
X5238809Y-67079761D01*
X5095952Y-67127380D01*
X5000714Y-67127380D01*
X5762619Y-66127380D02*
X6429285Y-66127380D01*
X6000714Y-67127380D01*
X24026904Y-89987380D02*
X24026904Y-88987380D01*
X24265000Y-88987380D01*
X24407857Y-89035000D01*
X24503095Y-89130238D01*
X24550714Y-89225476D01*
X24598333Y-89415952D01*
X24598333Y-89558809D01*
X24550714Y-89749285D01*
X24503095Y-89844523D01*
X24407857Y-89939761D01*
X24265000Y-89987380D01*
X24026904Y-89987380D01*
X25550714Y-89987380D02*
X24979285Y-89987380D01*
X25265000Y-89987380D02*
X25265000Y-88987380D01*
X25169761Y-89130238D01*
X25074523Y-89225476D01*
X24979285Y-89273095D01*
X47291666Y-76922380D02*
X47291666Y-77636666D01*
X47244047Y-77779523D01*
X47148809Y-77874761D01*
X47005952Y-77922380D01*
X46910714Y-77922380D01*
X48196428Y-77255714D02*
X48196428Y-77922380D01*
X47958333Y-76874761D02*
X47720238Y-77589047D01*
X48339285Y-77589047D01*
X34758333Y-16327380D02*
X34425000Y-15851190D01*
X34186904Y-16327380D02*
X34186904Y-15327380D01*
X34567857Y-15327380D01*
X34663095Y-15375000D01*
X34710714Y-15422619D01*
X34758333Y-15517857D01*
X34758333Y-15660714D01*
X34710714Y-15755952D01*
X34663095Y-15803571D01*
X34567857Y-15851190D01*
X34186904Y-15851190D01*
X35710714Y-16327380D02*
X35139285Y-16327380D01*
X35425000Y-16327380D02*
X35425000Y-15327380D01*
X35329761Y-15470238D01*
X35234523Y-15565476D01*
X35139285Y-15613095D01*
X34758333Y-102687380D02*
X34425000Y-102211190D01*
X34186904Y-102687380D02*
X34186904Y-101687380D01*
X34567857Y-101687380D01*
X34663095Y-101735000D01*
X34710714Y-101782619D01*
X34758333Y-101877857D01*
X34758333Y-102020714D01*
X34710714Y-102115952D01*
X34663095Y-102163571D01*
X34567857Y-102211190D01*
X34186904Y-102211190D01*
X35663095Y-101687380D02*
X35186904Y-101687380D01*
X35139285Y-102163571D01*
X35186904Y-102115952D01*
X35282142Y-102068333D01*
X35520238Y-102068333D01*
X35615476Y-102115952D01*
X35663095Y-102163571D01*
X35710714Y-102258809D01*
X35710714Y-102496904D01*
X35663095Y-102592142D01*
X35615476Y-102639761D01*
X35520238Y-102687380D01*
X35282142Y-102687380D01*
X35186904Y-102639761D01*
X35139285Y-102592142D01*
X15073333Y-90622380D02*
X14740000Y-90146190D01*
X14501904Y-90622380D02*
X14501904Y-89622380D01*
X14882857Y-89622380D01*
X14978095Y-89670000D01*
X15025714Y-89717619D01*
X15073333Y-89812857D01*
X15073333Y-89955714D01*
X15025714Y-90050952D01*
X14978095Y-90098571D01*
X14882857Y-90146190D01*
X14501904Y-90146190D01*
X15406666Y-89622380D02*
X16073333Y-89622380D01*
X15644761Y-90622380D01*
X5381666Y-98512380D02*
X5381666Y-99226666D01*
X5334047Y-99369523D01*
X5238809Y-99464761D01*
X5095952Y-99512380D01*
X5000714Y-99512380D01*
X6286428Y-98512380D02*
X6095952Y-98512380D01*
X6000714Y-98560000D01*
X5953095Y-98607619D01*
X5857857Y-98750476D01*
X5810238Y-98940952D01*
X5810238Y-99321904D01*
X5857857Y-99417142D01*
X5905476Y-99464761D01*
X6000714Y-99512380D01*
X6191190Y-99512380D01*
X6286428Y-99464761D01*
X6334047Y-99417142D01*
X6381666Y-99321904D01*
X6381666Y-99083809D01*
X6334047Y-98988571D01*
X6286428Y-98940952D01*
X6191190Y-98893333D01*
X6000714Y-98893333D01*
X5905476Y-98940952D01*
X5857857Y-98988571D01*
X5810238Y-99083809D01*
X15073333Y-6802380D02*
X14740000Y-6326190D01*
X14501904Y-6802380D02*
X14501904Y-5802380D01*
X14882857Y-5802380D01*
X14978095Y-5850000D01*
X15025714Y-5897619D01*
X15073333Y-5992857D01*
X15073333Y-6135714D01*
X15025714Y-6230952D01*
X14978095Y-6278571D01*
X14882857Y-6326190D01*
X14501904Y-6326190D01*
X15549523Y-6802380D02*
X15740000Y-6802380D01*
X15835238Y-6754761D01*
X15882857Y-6707142D01*
X15978095Y-6564285D01*
X16025714Y-6373809D01*
X16025714Y-5992857D01*
X15978095Y-5897619D01*
X15930476Y-5850000D01*
X15835238Y-5802380D01*
X15644761Y-5802380D01*
X15549523Y-5850000D01*
X15501904Y-5897619D01*
X15454285Y-5992857D01*
X15454285Y-6230952D01*
X15501904Y-6326190D01*
X15549523Y-6373809D01*
X15644761Y-6421428D01*
X15835238Y-6421428D01*
X15930476Y-6373809D01*
X15978095Y-6326190D01*
X16025714Y-6230952D01*
X15073333Y-28392380D02*
X14740000Y-27916190D01*
X14501904Y-28392380D02*
X14501904Y-27392380D01*
X14882857Y-27392380D01*
X14978095Y-27440000D01*
X15025714Y-27487619D01*
X15073333Y-27582857D01*
X15073333Y-27725714D01*
X15025714Y-27820952D01*
X14978095Y-27868571D01*
X14882857Y-27916190D01*
X14501904Y-27916190D01*
X15644761Y-27820952D02*
X15549523Y-27773333D01*
X15501904Y-27725714D01*
X15454285Y-27630476D01*
X15454285Y-27582857D01*
X15501904Y-27487619D01*
X15549523Y-27440000D01*
X15644761Y-27392380D01*
X15835238Y-27392380D01*
X15930476Y-27440000D01*
X15978095Y-27487619D01*
X16025714Y-27582857D01*
X16025714Y-27630476D01*
X15978095Y-27725714D01*
X15930476Y-27773333D01*
X15835238Y-27820952D01*
X15644761Y-27820952D01*
X15549523Y-27868571D01*
X15501904Y-27916190D01*
X15454285Y-28011428D01*
X15454285Y-28201904D01*
X15501904Y-28297142D01*
X15549523Y-28344761D01*
X15644761Y-28392380D01*
X15835238Y-28392380D01*
X15930476Y-28344761D01*
X15978095Y-28297142D01*
X16025714Y-28201904D01*
X16025714Y-28011428D01*
X15978095Y-27916190D01*
X15930476Y-27868571D01*
X15835238Y-27820952D01*
X3048095Y-1722380D02*
X3048095Y-722380D01*
X3048095Y-1198571D02*
X3619523Y-1198571D01*
X3619523Y-1722380D02*
X3619523Y-722380D01*
X4619523Y-1722380D02*
X4048095Y-1722380D01*
X4333809Y-1722380D02*
X4333809Y-722380D01*
X4238571Y-865238D01*
X4143333Y-960476D01*
X4048095Y-1008095D01*
X37504761Y-28392380D02*
X37171428Y-27916190D01*
X36933333Y-28392380D02*
X36933333Y-27392380D01*
X37314285Y-27392380D01*
X37409523Y-27440000D01*
X37457142Y-27487619D01*
X37504761Y-27582857D01*
X37504761Y-27725714D01*
X37457142Y-27820952D01*
X37409523Y-27868571D01*
X37314285Y-27916190D01*
X36933333Y-27916190D01*
X37790476Y-27392380D02*
X38123809Y-28392380D01*
X38457142Y-27392380D01*
X38742857Y-27487619D02*
X38790476Y-27440000D01*
X38885714Y-27392380D01*
X39123809Y-27392380D01*
X39219047Y-27440000D01*
X39266666Y-27487619D01*
X39314285Y-27582857D01*
X39314285Y-27678095D01*
X39266666Y-27820952D01*
X38695238Y-28392380D01*
X39314285Y-28392380D01*
X37504761Y-49982380D02*
X37171428Y-49506190D01*
X36933333Y-49982380D02*
X36933333Y-48982380D01*
X37314285Y-48982380D01*
X37409523Y-49030000D01*
X37457142Y-49077619D01*
X37504761Y-49172857D01*
X37504761Y-49315714D01*
X37457142Y-49410952D01*
X37409523Y-49458571D01*
X37314285Y-49506190D01*
X36933333Y-49506190D01*
X37790476Y-48982380D02*
X38123809Y-49982380D01*
X38457142Y-48982380D01*
X38695238Y-48982380D02*
X39314285Y-48982380D01*
X38980952Y-49363333D01*
X39123809Y-49363333D01*
X39219047Y-49410952D01*
X39266666Y-49458571D01*
X39314285Y-49553809D01*
X39314285Y-49791904D01*
X39266666Y-49887142D01*
X39219047Y-49934761D01*
X39123809Y-49982380D01*
X38838095Y-49982380D01*
X38742857Y-49934761D01*
X38695238Y-49887142D01*
X48085476Y-8342380D02*
X48085476Y-9056666D01*
X48037857Y-9199523D01*
X47942619Y-9294761D01*
X47799761Y-9342380D01*
X47704523Y-9342380D01*
X49085476Y-9342380D02*
X48514047Y-9342380D01*
X48799761Y-9342380D02*
X48799761Y-8342380D01*
X48704523Y-8485238D01*
X48609285Y-8580476D01*
X48514047Y-8628095D01*
X49466428Y-8437619D02*
X49514047Y-8390000D01*
X49609285Y-8342380D01*
X49847380Y-8342380D01*
X49942619Y-8390000D01*
X49990238Y-8437619D01*
X50037857Y-8532857D01*
X50037857Y-8628095D01*
X49990238Y-8770952D01*
X49418809Y-9342380D01*
X50037857Y-9342380D01*
X19621666Y-86129761D02*
X19764523Y-86177380D01*
X20002619Y-86177380D01*
X20097857Y-86129761D01*
X20145476Y-86082142D01*
X20193095Y-85986904D01*
X20193095Y-85891666D01*
X20145476Y-85796428D01*
X20097857Y-85748809D01*
X20002619Y-85701190D01*
X19812142Y-85653571D01*
X19716904Y-85605952D01*
X19669285Y-85558333D01*
X19621666Y-85463095D01*
X19621666Y-85367857D01*
X19669285Y-85272619D01*
X19716904Y-85225000D01*
X19812142Y-85177380D01*
X20050238Y-85177380D01*
X20193095Y-85225000D01*
X20526428Y-85177380D02*
X20764523Y-86177380D01*
X20955000Y-85463095D01*
X21145476Y-86177380D01*
X21383571Y-85177380D01*
X22288333Y-86177380D02*
X21716904Y-86177380D01*
X22002619Y-86177380D02*
X22002619Y-85177380D01*
X21907380Y-85320238D01*
X21812142Y-85415476D01*
X21716904Y-85463095D01*
X47291666Y-33742380D02*
X47291666Y-34456666D01*
X47244047Y-34599523D01*
X47148809Y-34694761D01*
X47005952Y-34742380D01*
X46910714Y-34742380D01*
X47720238Y-33837619D02*
X47767857Y-33790000D01*
X47863095Y-33742380D01*
X48101190Y-33742380D01*
X48196428Y-33790000D01*
X48244047Y-33837619D01*
X48291666Y-33932857D01*
X48291666Y-34028095D01*
X48244047Y-34170952D01*
X47672619Y-34742380D01*
X48291666Y-34742380D01*
X47291666Y-12152380D02*
X47291666Y-12866666D01*
X47244047Y-13009523D01*
X47148809Y-13104761D01*
X47005952Y-13152380D01*
X46910714Y-13152380D01*
X48291666Y-13152380D02*
X47720238Y-13152380D01*
X48005952Y-13152380D02*
X48005952Y-12152380D01*
X47910714Y-12295238D01*
X47815476Y-12390476D01*
X47720238Y-12438095D01*
X34758333Y-37917380D02*
X34425000Y-37441190D01*
X34186904Y-37917380D02*
X34186904Y-36917380D01*
X34567857Y-36917380D01*
X34663095Y-36965000D01*
X34710714Y-37012619D01*
X34758333Y-37107857D01*
X34758333Y-37250714D01*
X34710714Y-37345952D01*
X34663095Y-37393571D01*
X34567857Y-37441190D01*
X34186904Y-37441190D01*
X35139285Y-37012619D02*
X35186904Y-36965000D01*
X35282142Y-36917380D01*
X35520238Y-36917380D01*
X35615476Y-36965000D01*
X35663095Y-37012619D01*
X35710714Y-37107857D01*
X35710714Y-37203095D01*
X35663095Y-37345952D01*
X35091666Y-37917380D01*
X35710714Y-37917380D01*
X14644761Y-17597380D02*
X14311428Y-17121190D01*
X14073333Y-17597380D02*
X14073333Y-16597380D01*
X14454285Y-16597380D01*
X14549523Y-16645000D01*
X14597142Y-16692619D01*
X14644761Y-16787857D01*
X14644761Y-16930714D01*
X14597142Y-17025952D01*
X14549523Y-17073571D01*
X14454285Y-17121190D01*
X14073333Y-17121190D01*
X14930476Y-16597380D02*
X15263809Y-17597380D01*
X15597142Y-16597380D01*
X16359047Y-16597380D02*
X16168571Y-16597380D01*
X16073333Y-16645000D01*
X16025714Y-16692619D01*
X15930476Y-16835476D01*
X15882857Y-17025952D01*
X15882857Y-17406904D01*
X15930476Y-17502142D01*
X15978095Y-17549761D01*
X16073333Y-17597380D01*
X16263809Y-17597380D01*
X16359047Y-17549761D01*
X16406666Y-17502142D01*
X16454285Y-17406904D01*
X16454285Y-17168809D01*
X16406666Y-17073571D01*
X16359047Y-17025952D01*
X16263809Y-16978333D01*
X16073333Y-16978333D01*
X15978095Y-17025952D01*
X15930476Y-17073571D01*
X15882857Y-17168809D01*
X37504761Y-93162380D02*
X37171428Y-92686190D01*
X36933333Y-93162380D02*
X36933333Y-92162380D01*
X37314285Y-92162380D01*
X37409523Y-92210000D01*
X37457142Y-92257619D01*
X37504761Y-92352857D01*
X37504761Y-92495714D01*
X37457142Y-92590952D01*
X37409523Y-92638571D01*
X37314285Y-92686190D01*
X36933333Y-92686190D01*
X37790476Y-92162380D02*
X38123809Y-93162380D01*
X38457142Y-92162380D01*
X39266666Y-92162380D02*
X38790476Y-92162380D01*
X38742857Y-92638571D01*
X38790476Y-92590952D01*
X38885714Y-92543333D01*
X39123809Y-92543333D01*
X39219047Y-92590952D01*
X39266666Y-92638571D01*
X39314285Y-92733809D01*
X39314285Y-92971904D01*
X39266666Y-93067142D01*
X39219047Y-93114761D01*
X39123809Y-93162380D01*
X38885714Y-93162380D01*
X38790476Y-93114761D01*
X38742857Y-93067142D01*
X34758333Y-59507380D02*
X34425000Y-59031190D01*
X34186904Y-59507380D02*
X34186904Y-58507380D01*
X34567857Y-58507380D01*
X34663095Y-58555000D01*
X34710714Y-58602619D01*
X34758333Y-58697857D01*
X34758333Y-58840714D01*
X34710714Y-58935952D01*
X34663095Y-58983571D01*
X34567857Y-59031190D01*
X34186904Y-59031190D01*
X35091666Y-58507380D02*
X35710714Y-58507380D01*
X35377380Y-58888333D01*
X35520238Y-58888333D01*
X35615476Y-58935952D01*
X35663095Y-58983571D01*
X35710714Y-59078809D01*
X35710714Y-59316904D01*
X35663095Y-59412142D01*
X35615476Y-59459761D01*
X35520238Y-59507380D01*
X35234523Y-59507380D01*
X35139285Y-59459761D01*
X35091666Y-59412142D01*
X4976904Y-82367380D02*
X4976904Y-81367380D01*
X5215000Y-81367380D01*
X5357857Y-81415000D01*
X5453095Y-81510238D01*
X5500714Y-81605476D01*
X5548333Y-81795952D01*
X5548333Y-81938809D01*
X5500714Y-82129285D01*
X5453095Y-82224523D01*
X5357857Y-82319761D01*
X5215000Y-82367380D01*
X4976904Y-82367380D01*
X5929285Y-81462619D02*
X5976904Y-81415000D01*
X6072142Y-81367380D01*
X6310238Y-81367380D01*
X6405476Y-81415000D01*
X6453095Y-81462619D01*
X6500714Y-81557857D01*
X6500714Y-81653095D01*
X6453095Y-81795952D01*
X5881666Y-82367380D01*
X6500714Y-82367380D01*
X14644761Y-60777380D02*
X14311428Y-60301190D01*
X14073333Y-60777380D02*
X14073333Y-59777380D01*
X14454285Y-59777380D01*
X14549523Y-59825000D01*
X14597142Y-59872619D01*
X14644761Y-59967857D01*
X14644761Y-60110714D01*
X14597142Y-60205952D01*
X14549523Y-60253571D01*
X14454285Y-60301190D01*
X14073333Y-60301190D01*
X14930476Y-59777380D02*
X15263809Y-60777380D01*
X15597142Y-59777380D01*
X16073333Y-60205952D02*
X15978095Y-60158333D01*
X15930476Y-60110714D01*
X15882857Y-60015476D01*
X15882857Y-59967857D01*
X15930476Y-59872619D01*
X15978095Y-59825000D01*
X16073333Y-59777380D01*
X16263809Y-59777380D01*
X16359047Y-59825000D01*
X16406666Y-59872619D01*
X16454285Y-59967857D01*
X16454285Y-60015476D01*
X16406666Y-60110714D01*
X16359047Y-60158333D01*
X16263809Y-60205952D01*
X16073333Y-60205952D01*
X15978095Y-60253571D01*
X15930476Y-60301190D01*
X15882857Y-60396428D01*
X15882857Y-60586904D01*
X15930476Y-60682142D01*
X15978095Y-60729761D01*
X16073333Y-60777380D01*
X16263809Y-60777380D01*
X16359047Y-60729761D01*
X16406666Y-60682142D01*
X16454285Y-60586904D01*
X16454285Y-60396428D01*
X16406666Y-60301190D01*
X16359047Y-60253571D01*
X16263809Y-60205952D01*
X15073333Y-81732380D02*
X14740000Y-81256190D01*
X14501904Y-81732380D02*
X14501904Y-80732380D01*
X14882857Y-80732380D01*
X14978095Y-80780000D01*
X15025714Y-80827619D01*
X15073333Y-80922857D01*
X15073333Y-81065714D01*
X15025714Y-81160952D01*
X14978095Y-81208571D01*
X14882857Y-81256190D01*
X14501904Y-81256190D01*
X15930476Y-80732380D02*
X15740000Y-80732380D01*
X15644761Y-80780000D01*
X15597142Y-80827619D01*
X15501904Y-80970476D01*
X15454285Y-81160952D01*
X15454285Y-81541904D01*
X15501904Y-81637142D01*
X15549523Y-81684761D01*
X15644761Y-81732380D01*
X15835238Y-81732380D01*
X15930476Y-81684761D01*
X15978095Y-81637142D01*
X16025714Y-81541904D01*
X16025714Y-81303809D01*
X15978095Y-81208571D01*
X15930476Y-81160952D01*
X15835238Y-81113333D01*
X15644761Y-81113333D01*
X15549523Y-81160952D01*
X15501904Y-81208571D01*
X15454285Y-81303809D01*
X47291666Y-98512380D02*
X47291666Y-99226666D01*
X47244047Y-99369523D01*
X47148809Y-99464761D01*
X47005952Y-99512380D01*
X46910714Y-99512380D01*
X48244047Y-98512380D02*
X47767857Y-98512380D01*
X47720238Y-98988571D01*
X47767857Y-98940952D01*
X47863095Y-98893333D01*
X48101190Y-98893333D01*
X48196428Y-98940952D01*
X48244047Y-98988571D01*
X48291666Y-99083809D01*
X48291666Y-99321904D01*
X48244047Y-99417142D01*
X48196428Y-99464761D01*
X48101190Y-99512380D01*
X47863095Y-99512380D01*
X47767857Y-99464761D01*
X47720238Y-99417142D01*
X9421904Y-2992380D02*
X9421904Y-1992380D01*
X9660000Y-1992380D01*
X9802857Y-2040000D01*
X9898095Y-2135238D01*
X9945714Y-2230476D01*
X9993333Y-2420952D01*
X9993333Y-2563809D01*
X9945714Y-2754285D01*
X9898095Y-2849523D01*
X9802857Y-2944761D01*
X9660000Y-2992380D01*
X9421904Y-2992380D01*
X10850476Y-2325714D02*
X10850476Y-2992380D01*
X10612380Y-1944761D02*
X10374285Y-2659047D01*
X10993333Y-2659047D01*
X460476Y-82724880D02*
X460476Y-83439166D01*
X412857Y-83582023D01*
X317619Y-83677261D01*
X174761Y-83724880D01*
X79523Y-83724880D01*
X1460476Y-83724880D02*
X889047Y-83724880D01*
X1174761Y-83724880D02*
X1174761Y-82724880D01*
X1079523Y-82867738D01*
X984285Y-82962976D01*
X889047Y-83010595D01*
X2412857Y-83724880D02*
X1841428Y-83724880D01*
X2127142Y-83724880D02*
X2127142Y-82724880D01*
X2031904Y-82867738D01*
X1936666Y-82962976D01*
X1841428Y-83010595D01*
X25908095Y-100782380D02*
X25908095Y-99782380D01*
X25908095Y-100258571D02*
X26479523Y-100258571D01*
X26479523Y-100782380D02*
X26479523Y-99782380D01*
X26860476Y-99782380D02*
X27479523Y-99782380D01*
X27146190Y-100163333D01*
X27289047Y-100163333D01*
X27384285Y-100210952D01*
X27431904Y-100258571D01*
X27479523Y-100353809D01*
X27479523Y-100591904D01*
X27431904Y-100687142D01*
X27384285Y-100734761D01*
X27289047Y-100782380D01*
X27003333Y-100782380D01*
X26908095Y-100734761D01*
X26860476Y-100687142D01*
X37504761Y-6802380D02*
X37171428Y-6326190D01*
X36933333Y-6802380D02*
X36933333Y-5802380D01*
X37314285Y-5802380D01*
X37409523Y-5850000D01*
X37457142Y-5897619D01*
X37504761Y-5992857D01*
X37504761Y-6135714D01*
X37457142Y-6230952D01*
X37409523Y-6278571D01*
X37314285Y-6326190D01*
X36933333Y-6326190D01*
X37790476Y-5802380D02*
X38123809Y-6802380D01*
X38457142Y-5802380D01*
X39314285Y-6802380D02*
X38742857Y-6802380D01*
X39028571Y-6802380D02*
X39028571Y-5802380D01*
X38933333Y-5945238D01*
X38838095Y-6040476D01*
X38742857Y-6088095D01*
X34758333Y-81097380D02*
X34425000Y-80621190D01*
X34186904Y-81097380D02*
X34186904Y-80097380D01*
X34567857Y-80097380D01*
X34663095Y-80145000D01*
X34710714Y-80192619D01*
X34758333Y-80287857D01*
X34758333Y-80430714D01*
X34710714Y-80525952D01*
X34663095Y-80573571D01*
X34567857Y-80621190D01*
X34186904Y-80621190D01*
X35615476Y-80430714D02*
X35615476Y-81097380D01*
X35377380Y-80049761D02*
X35139285Y-80764047D01*
X35758333Y-80764047D01*
X14644761Y-39187380D02*
X14311428Y-38711190D01*
X14073333Y-39187380D02*
X14073333Y-38187380D01*
X14454285Y-38187380D01*
X14549523Y-38235000D01*
X14597142Y-38282619D01*
X14644761Y-38377857D01*
X14644761Y-38520714D01*
X14597142Y-38615952D01*
X14549523Y-38663571D01*
X14454285Y-38711190D01*
X14073333Y-38711190D01*
X14930476Y-38187380D02*
X15263809Y-39187380D01*
X15597142Y-38187380D01*
X15835238Y-38187380D02*
X16501904Y-38187380D01*
X16073333Y-39187380D01*
X48768095Y-1722380D02*
X48768095Y-722380D01*
X48768095Y-1198571D02*
X49339523Y-1198571D01*
X49339523Y-1722380D02*
X49339523Y-722380D01*
X49768095Y-817619D02*
X49815714Y-770000D01*
X49910952Y-722380D01*
X50149047Y-722380D01*
X50244285Y-770000D01*
X50291904Y-817619D01*
X50339523Y-912857D01*
X50339523Y-1008095D01*
X50291904Y-1150952D01*
X49720476Y-1722380D01*
X50339523Y-1722380D01*
X4880417Y-25217380D02*
X4880417Y-24217380D01*
X5118513Y-24217380D01*
X5261370Y-24265000D01*
X5356608Y-24360238D01*
X5404227Y-24455476D01*
X5451846Y-24645952D01*
X5451846Y-24788809D01*
X5404227Y-24979285D01*
X5356608Y-25074523D01*
X5261370Y-25169761D01*
X5118513Y-25217380D01*
X4880417Y-25217380D01*
X5785179Y-24217380D02*
X6404227Y-24217380D01*
X6070893Y-24598333D01*
X6213751Y-24598333D01*
X6308989Y-24645952D01*
X6356608Y-24693571D01*
X6404227Y-24788809D01*
X6404227Y-25026904D01*
X6356608Y-25122142D01*
X6308989Y-25169761D01*
X6213751Y-25217380D01*
X5928036Y-25217380D01*
X5832798Y-25169761D01*
X5785179Y-25122142D01*
X37504761Y-71572380D02*
X37171428Y-71096190D01*
X36933333Y-71572380D02*
X36933333Y-70572380D01*
X37314285Y-70572380D01*
X37409523Y-70620000D01*
X37457142Y-70667619D01*
X37504761Y-70762857D01*
X37504761Y-70905714D01*
X37457142Y-71000952D01*
X37409523Y-71048571D01*
X37314285Y-71096190D01*
X36933333Y-71096190D01*
X37790476Y-70572380D02*
X38123809Y-71572380D01*
X38457142Y-70572380D01*
X39219047Y-70905714D02*
X39219047Y-71572380D01*
X38980952Y-70524761D02*
X38742857Y-71239047D01*
X39361904Y-71239047D01*
D11*
X18510000Y-32485000D02*
X18510000Y-29745000D01*
X18510000Y-29745000D02*
X11970000Y-29745000D01*
X11970000Y-29745000D02*
X11970000Y-32485000D01*
X11970000Y-32485000D02*
X18510000Y-32485000D01*
X19280000Y-31115000D02*
X18510000Y-31115000D01*
X11200000Y-31115000D02*
X11970000Y-31115000D01*
X18510000Y-26135000D02*
X18510000Y-23395000D01*
X18510000Y-23395000D02*
X11970000Y-23395000D01*
X11970000Y-23395000D02*
X11970000Y-26135000D01*
X11970000Y-26135000D02*
X18510000Y-26135000D01*
X19280000Y-24765000D02*
X18510000Y-24765000D01*
X11200000Y-24765000D02*
X11970000Y-24765000D01*
X41475000Y-63555000D02*
X51975000Y-63555000D01*
X51975000Y-63555000D02*
X51975000Y-54555000D01*
X51975000Y-54555000D02*
X41475000Y-54555000D01*
X41475000Y-54555000D02*
X41475000Y-63555000D01*
X11865000Y-65350000D02*
X1365000Y-65350000D01*
X1365000Y-65350000D02*
X1365000Y-74350000D01*
X1365000Y-74350000D02*
X11865000Y-74350000D01*
X11865000Y-74350000D02*
X11865000Y-65350000D01*
X23529000Y-87290000D02*
X23685000Y-87290000D01*
X25845000Y-87290000D02*
X26001000Y-87290000D01*
X23686392Y-84057665D02*
G75*
G03*
X23529484Y-87290000I1078609J-1672335D01*
G01*
X26000516Y-87290000D02*
G75*
G03*
X25843608Y-84057665I-1235517J1560000D01*
G01*
X25845000Y-86770961D02*
G75*
G03*
X25844837Y-84688870I-1080000J1040961D01*
G01*
X23685163Y-84688870D02*
G75*
G03*
X23685000Y-86770961I1079837J-1041130D01*
G01*
X41475000Y-85145000D02*
X51975000Y-85145000D01*
X51975000Y-85145000D02*
X51975000Y-76145000D01*
X51975000Y-76145000D02*
X41475000Y-76145000D01*
X41475000Y-76145000D02*
X41475000Y-85145000D01*
X38965000Y-15875000D02*
X38195000Y-15875000D01*
X38195000Y-14505000D02*
X31655000Y-14505000D01*
X31655000Y-17245000D02*
X38195000Y-17245000D01*
X30885000Y-15875000D02*
X31655000Y-15875000D01*
X31655000Y-14505000D02*
X31655000Y-17245000D01*
X38195000Y-17245000D02*
X38195000Y-14505000D01*
X38195000Y-103605000D02*
X38195000Y-100865000D01*
X31655000Y-103605000D02*
X38195000Y-103605000D01*
X38965000Y-102235000D02*
X38195000Y-102235000D01*
X30885000Y-102235000D02*
X31655000Y-102235000D01*
X31655000Y-100865000D02*
X31655000Y-103605000D01*
X38195000Y-100865000D02*
X31655000Y-100865000D01*
X11970000Y-91540000D02*
X18510000Y-91540000D01*
X18510000Y-88800000D02*
X11970000Y-88800000D01*
X18510000Y-91540000D02*
X18510000Y-88800000D01*
X11200000Y-90170000D02*
X11970000Y-90170000D01*
X19280000Y-90170000D02*
X18510000Y-90170000D01*
X11970000Y-88800000D02*
X11970000Y-91540000D01*
X11865000Y-97735000D02*
X1365000Y-97735000D01*
X1365000Y-97735000D02*
X1365000Y-106735000D01*
X1365000Y-106735000D02*
X11865000Y-106735000D01*
X11865000Y-106735000D02*
X11865000Y-97735000D01*
X19280000Y-6350000D02*
X18510000Y-6350000D01*
X11200000Y-6350000D02*
X11970000Y-6350000D01*
X11970000Y-7720000D02*
X18510000Y-7720000D01*
X18510000Y-4980000D02*
X11970000Y-4980000D01*
X11970000Y-4980000D02*
X11970000Y-7720000D01*
X18510000Y-7720000D02*
X18510000Y-4980000D01*
X18510000Y-29310000D02*
X18510000Y-26570000D01*
X18510000Y-26570000D02*
X11970000Y-26570000D01*
X11200000Y-27940000D02*
X11970000Y-27940000D01*
X19280000Y-27940000D02*
X18510000Y-27940000D01*
X11970000Y-26570000D02*
X11970000Y-29310000D01*
X11970000Y-29310000D02*
X18510000Y-29310000D01*
X44000000Y-23040000D02*
X40000000Y-23040000D01*
X32200000Y-32840000D02*
X32200000Y-23040000D01*
X32200000Y-32840000D02*
X36200000Y-32840000D01*
X32200000Y-23040000D02*
X36200000Y-23040000D01*
X44000000Y-32840000D02*
X44000000Y-23040000D01*
X32200000Y-32840000D02*
X32200000Y-23040000D01*
X44000000Y-32840000D02*
X44000000Y-23040000D01*
X44000000Y-32840000D02*
X40000000Y-32840000D01*
X41100000Y-27940000D02*
G75*
G03*
X41100000Y-27940000I-3000000J0D01*
G01*
X44000000Y-44630000D02*
X40000000Y-44630000D01*
X32200000Y-54430000D02*
X36200000Y-54430000D01*
X32200000Y-54430000D02*
X32200000Y-44630000D01*
X44000000Y-54430000D02*
X44000000Y-44630000D01*
X32200000Y-44630000D02*
X36200000Y-44630000D01*
X44000000Y-54430000D02*
X40000000Y-54430000D01*
X32200000Y-54430000D02*
X32200000Y-44630000D01*
X44000000Y-54430000D02*
X44000000Y-44630000D01*
X41100000Y-49530000D02*
G75*
G03*
X41100000Y-49530000I-3000000J0D01*
G01*
X53400000Y-7560000D02*
X53400000Y-8890000D01*
X50740000Y-10220000D02*
X53400000Y-10220000D01*
X50740000Y-10100000D02*
X50740000Y-10220000D01*
X53400000Y-10100000D02*
X53400000Y-10220000D01*
X52070000Y-7560000D02*
X53400000Y-7560000D01*
X19240000Y-88225000D02*
X11240000Y-88225000D01*
X11240000Y-88225000D02*
X11240000Y-83225000D01*
X11240000Y-83225000D02*
X19240000Y-83225000D01*
X19240000Y-83225000D02*
X19240000Y-88225000D01*
X17740000Y-85725000D02*
G75*
G03*
X17740000Y-85725000I-2500000J0D01*
G01*
X41475000Y-41965000D02*
X51975000Y-41965000D01*
X51975000Y-41965000D02*
X51975000Y-32965000D01*
X51975000Y-32965000D02*
X41475000Y-32965000D01*
X41475000Y-32965000D02*
X41475000Y-41965000D01*
X41475000Y-20375000D02*
X51975000Y-20375000D01*
X51975000Y-20375000D02*
X51975000Y-11375000D01*
X51975000Y-11375000D02*
X41475000Y-11375000D01*
X41475000Y-11375000D02*
X41475000Y-20375000D01*
X31655000Y-36095000D02*
X31655000Y-38835000D01*
X38965000Y-37465000D02*
X38195000Y-37465000D01*
X30885000Y-37465000D02*
X31655000Y-37465000D01*
X31655000Y-38835000D02*
X38195000Y-38835000D01*
X38195000Y-36095000D02*
X31655000Y-36095000D01*
X38195000Y-38835000D02*
X38195000Y-36095000D01*
X9340000Y-22045000D02*
X9340000Y-12245000D01*
X9340000Y-22045000D02*
X9340000Y-12245000D01*
X21140000Y-22045000D02*
X17140000Y-22045000D01*
X21140000Y-12245000D02*
X17140000Y-12245000D01*
X21140000Y-22045000D02*
X21140000Y-12245000D01*
X9340000Y-12245000D02*
X13340000Y-12245000D01*
X9340000Y-22045000D02*
X13340000Y-22045000D01*
X21140000Y-22045000D02*
X21140000Y-12245000D01*
X18240000Y-17145000D02*
G75*
G03*
X18240000Y-17145000I-3000000J0D01*
G01*
X32200000Y-87810000D02*
X36200000Y-87810000D01*
X44000000Y-97610000D02*
X44000000Y-87810000D01*
X32200000Y-97610000D02*
X36200000Y-97610000D01*
X32200000Y-97610000D02*
X32200000Y-87810000D01*
X32200000Y-97610000D02*
X32200000Y-87810000D01*
X44000000Y-97610000D02*
X40000000Y-97610000D01*
X44000000Y-87810000D02*
X40000000Y-87810000D01*
X44000000Y-97610000D02*
X44000000Y-87810000D01*
X41100000Y-92710000D02*
G75*
G03*
X41100000Y-92710000I-3000000J0D01*
G01*
X38195000Y-60425000D02*
X38195000Y-57685000D01*
X31655000Y-57685000D02*
X31655000Y-60425000D01*
X30885000Y-59055000D02*
X31655000Y-59055000D01*
X38195000Y-57685000D02*
X31655000Y-57685000D01*
X31655000Y-60425000D02*
X38195000Y-60425000D01*
X38965000Y-59055000D02*
X38195000Y-59055000D01*
X6951000Y-84160000D02*
X6795000Y-84160000D01*
X4635000Y-84160000D02*
X4479000Y-84160000D01*
X4479484Y-84160000D02*
G75*
G03*
X4636392Y-87392335I1235517J-1560000D01*
G01*
X6793608Y-87392335D02*
G75*
G03*
X6950516Y-84160000I-1078609J1672335D01*
G01*
X4635000Y-84679039D02*
G75*
G03*
X4635163Y-86761130I1080000J-1040961D01*
G01*
X6794837Y-86761130D02*
G75*
G03*
X6795000Y-84679039I-1079837J1041130D01*
G01*
X21140000Y-55425000D02*
X17140000Y-55425000D01*
X9340000Y-55425000D02*
X13340000Y-55425000D01*
X21140000Y-65225000D02*
X21140000Y-55425000D01*
X21140000Y-65225000D02*
X17140000Y-65225000D01*
X9340000Y-65225000D02*
X13340000Y-65225000D01*
X21140000Y-65225000D02*
X21140000Y-55425000D01*
X9340000Y-65225000D02*
X9340000Y-55425000D01*
X9340000Y-65225000D02*
X9340000Y-55425000D01*
X18240000Y-60325000D02*
G75*
G03*
X18240000Y-60325000I-3000000J0D01*
G01*
X11200000Y-81280000D02*
X11970000Y-81280000D01*
X11970000Y-82650000D02*
X18510000Y-82650000D01*
X11970000Y-79910000D02*
X11970000Y-82650000D01*
X19280000Y-81280000D02*
X18510000Y-81280000D01*
X18510000Y-79910000D02*
X11970000Y-79910000D01*
X18510000Y-82650000D02*
X18510000Y-79910000D01*
X41475000Y-106735000D02*
X51975000Y-106735000D01*
X51975000Y-106735000D02*
X51975000Y-97735000D01*
X51975000Y-97735000D02*
X41475000Y-97735000D01*
X41475000Y-97735000D02*
X41475000Y-106735000D01*
X13675000Y-3620000D02*
X13675000Y-3776000D01*
X13675000Y-1304000D02*
X13675000Y-1460000D01*
X16907335Y-1461392D02*
G75*
G03*
X13675000Y-1304484I-1672335J-1078609D01*
G01*
X14194039Y-3620000D02*
G75*
G03*
X16276130Y-3619837I1040961J1080000D01*
G01*
X16276130Y-1460163D02*
G75*
G03*
X14194039Y-1460000I-1041130J-1079837D01*
G01*
X13675000Y-3775516D02*
G75*
G03*
X16907335Y-3618608I1560000J1235517D01*
G01*
X2600000Y-84712500D02*
X2600000Y-86042500D01*
X1270000Y-84712500D02*
X2600000Y-84712500D01*
X-60000Y-87252500D02*
X-60000Y-87372500D01*
X-60000Y-87372500D02*
X2600000Y-87372500D01*
X2600000Y-87252500D02*
X2600000Y-87372500D01*
X32200000Y-11250000D02*
X32200000Y-1450000D01*
X44000000Y-11250000D02*
X44000000Y-1450000D01*
X32200000Y-11250000D02*
X32200000Y-1450000D01*
X44000000Y-11250000D02*
X40000000Y-11250000D01*
X32200000Y-1450000D02*
X36200000Y-1450000D01*
X44000000Y-11250000D02*
X44000000Y-1450000D01*
X44000000Y-1450000D02*
X40000000Y-1450000D01*
X32200000Y-11250000D02*
X36200000Y-11250000D01*
X41100000Y-6350000D02*
G75*
G03*
X41100000Y-6350000I-3000000J0D01*
G01*
X31655000Y-79275000D02*
X31655000Y-82015000D01*
X38195000Y-82015000D02*
X38195000Y-79275000D01*
X31655000Y-82015000D02*
X38195000Y-82015000D01*
X38965000Y-80645000D02*
X38195000Y-80645000D01*
X30885000Y-80645000D02*
X31655000Y-80645000D01*
X38195000Y-79275000D02*
X31655000Y-79275000D01*
X21140000Y-43635000D02*
X17140000Y-43635000D01*
X9340000Y-43635000D02*
X13340000Y-43635000D01*
X21140000Y-33835000D02*
X17140000Y-33835000D01*
X21140000Y-43635000D02*
X21140000Y-33835000D01*
X9340000Y-43635000D02*
X9340000Y-33835000D01*
X9340000Y-33835000D02*
X13340000Y-33835000D01*
X9340000Y-43635000D02*
X9340000Y-33835000D01*
X21140000Y-43635000D02*
X21140000Y-33835000D01*
X18240000Y-38735000D02*
G75*
G03*
X18240000Y-38735000I-3000000J0D01*
G01*
X7275000Y-29176000D02*
X7275000Y-29020000D01*
X7275000Y-26860000D02*
X7275000Y-26704000D01*
X7275000Y-26704484D02*
G75*
G03*
X4042665Y-26861392I-1560000J-1235517D01*
G01*
X4042665Y-29018608D02*
G75*
G03*
X7275000Y-29175516I1672335J1078609D01*
G01*
X4673870Y-29019837D02*
G75*
G03*
X6755961Y-29020000I1041130J1079837D01*
G01*
X6755961Y-26860000D02*
G75*
G03*
X4673870Y-26860163I-1040961J-1080000D01*
G01*
X32200000Y-66220000D02*
X36200000Y-66220000D01*
X32200000Y-76020000D02*
X32200000Y-66220000D01*
X32200000Y-76020000D02*
X36200000Y-76020000D01*
X44000000Y-76020000D02*
X40000000Y-76020000D01*
X32200000Y-76020000D02*
X32200000Y-66220000D01*
X44000000Y-66220000D02*
X40000000Y-66220000D01*
X44000000Y-76020000D02*
X44000000Y-66220000D01*
X44000000Y-76020000D02*
X44000000Y-66220000D01*
X41100000Y-71120000D02*
G75*
G03*
X41100000Y-71120000I-3000000J0D01*
G01*
%LPC*%
D12*
X20320000Y-31115000D03*
D13*
X10160000Y-31115000D03*
D12*
X20320000Y-24765000D03*
D13*
X10160000Y-24765000D03*
D14*
X47625000Y-59055000D03*
D15*
X42475000Y-59055000D03*
X50725000Y-59055000D03*
D14*
X5715000Y-69850000D03*
D15*
X10865000Y-69850000D03*
X2615000Y-69850000D03*
D16*
X24765000Y-87000000D03*
D17*
X24765000Y-84460000D03*
D14*
X47625000Y-80645000D03*
D15*
X42475000Y-80645000D03*
X50725000Y-80645000D03*
D12*
X29845000Y-15875000D03*
D13*
X40005000Y-15875000D03*
D12*
X29845000Y-102235000D03*
D13*
X40005000Y-102235000D03*
D12*
X20320000Y-90170000D03*
D13*
X10160000Y-90170000D03*
D14*
X5715000Y-102235000D03*
D15*
X10865000Y-102235000D03*
X2615000Y-102235000D03*
D12*
X10160000Y-6350000D03*
D13*
X20320000Y-6350000D03*
D12*
X10160000Y-27940000D03*
D13*
X20320000Y-27940000D03*
D18*
X3810000Y-3810000D03*
D19*
X31200000Y-30480000D03*
X31200000Y-27940000D03*
X31200000Y-25400000D03*
D20*
X38100000Y-23040000D03*
X38100000Y-32840000D03*
D19*
X31200000Y-52070000D03*
X31200000Y-49530000D03*
X31200000Y-46990000D03*
D20*
X38100000Y-44630000D03*
X38100000Y-54430000D03*
D21*
X52070000Y-8890000D03*
D19*
X17780000Y-85725000D03*
X15240000Y-85725000D03*
X12700000Y-85725000D03*
D14*
X47625000Y-37465000D03*
D15*
X42475000Y-37465000D03*
X50725000Y-37465000D03*
D14*
X47625000Y-15875000D03*
D15*
X42475000Y-15875000D03*
X50725000Y-15875000D03*
D12*
X29845000Y-37465000D03*
D13*
X40005000Y-37465000D03*
D19*
X8340000Y-19685000D03*
X8340000Y-17145000D03*
X8340000Y-14605000D03*
D20*
X15240000Y-22045000D03*
X15240000Y-12245000D03*
D19*
X31200000Y-95250000D03*
X31200000Y-92710000D03*
X31200000Y-90170000D03*
D20*
X38100000Y-87810000D03*
X38100000Y-97610000D03*
D12*
X29845000Y-59055000D03*
D13*
X40005000Y-59055000D03*
D16*
X5715000Y-84450000D03*
D17*
X5715000Y-86990000D03*
D19*
X8340000Y-62865000D03*
X8340000Y-60325000D03*
X8340000Y-57785000D03*
D20*
X15240000Y-65225000D03*
X15240000Y-55425000D03*
D12*
X10160000Y-81280000D03*
D13*
X20320000Y-81280000D03*
D14*
X47625000Y-102235000D03*
D15*
X42475000Y-102235000D03*
X50725000Y-102235000D03*
D16*
X13965000Y-2540000D03*
D17*
X16505000Y-2540000D03*
D21*
X1270000Y-86042500D03*
D18*
X26670000Y-102870000D03*
D19*
X31200000Y-8890000D03*
X31200000Y-6350000D03*
X31200000Y-3810000D03*
D20*
X38100000Y-11250000D03*
X38100000Y-1450000D03*
D12*
X29845000Y-80645000D03*
D13*
X40005000Y-80645000D03*
D19*
X8340000Y-41275000D03*
X8340000Y-38735000D03*
X8340000Y-36195000D03*
D20*
X15240000Y-43635000D03*
X15240000Y-33835000D03*
D18*
X49530000Y-3810000D03*
D16*
X6985000Y-27940000D03*
D17*
X4445000Y-27940000D03*
D19*
X31200000Y-73660000D03*
X31200000Y-71120000D03*
X31200000Y-68580000D03*
D20*
X38100000Y-76020000D03*
X38100000Y-66220000D03*
D21*
X1270000Y-42545000D03*
D22*
X1270000Y-45085000D03*
D21*
X30480000Y-1270000D03*
D22*
X27940000Y-1270000D03*
X25400000Y-1270000D03*
X22860000Y-1270000D03*
D21*
X26670000Y-46990000D03*
D22*
X26670000Y-49530000D03*
X26670000Y-52070000D03*
X26670000Y-54610000D03*
X26670000Y-57150000D03*
X26670000Y-59690000D03*
D21*
X1270000Y-10795000D03*
D22*
X1270000Y-13335000D03*
X1270000Y-15875000D03*
M02*
