%FSLAX45Y45*%
G04 Gerber Fmt 4.5, Leading zero omitted, Abs format (unit mm)*
G04 Created by KiCad (PCBNEW (6.0.0)) date 2022-08-09 16:31:57*
%MOMM*%
%LPD*%
G01*
G04 APERTURE LIST*
%TA.AperFunction,Profile*%
%ADD10C,0.100000*%
%TD*%
%ADD11C,0.200000*%
%ADD12C,0.050000*%
%ADD13C,0.076200*%
%ADD14C,0.080000*%
%ADD15C,0.090000*%
%ADD16C,0.100000*%
G04 APERTURE END LIST*
D10*
X5207000Y-10668000D02*
X127000Y-10668000D01*
X0Y-10541000D02*
G75*
G03*
X127000Y-10668000I127000J0D01*
G01*
X5334000Y-127000D02*
G75*
G03*
X5207000Y0I-127000J0D01*
G01*
X5207000Y-10668000D02*
G75*
G03*
X5334000Y-10541000I0J127000D01*
G01*
X127000Y-10668000D02*
X127000Y-10668000D01*
X0Y-10541000D02*
X0Y-127000D01*
X127000Y0D02*
X5207000Y0D01*
X0Y-127000D02*
X0Y-127000D01*
X127000Y0D02*
G75*
G03*
X0Y-127000I0J-127000D01*
G01*
X5334000Y-127000D02*
X5334000Y-10541000D01*
X5207000Y0D02*
X5207000Y0D01*
D11*
D12*
X236500Y-6960000D02*
X286500Y-7010000D01*
X286500Y-6960000D02*
X236500Y-7010000D01*
D11*
X246500Y-6910000D02*
X246500Y-7060000D01*
X276500Y-6910000D02*
X276500Y-7060000D01*
X246500Y-7060000D02*
G75*
G03*
X276500Y-7060000I15000J0D01*
G01*
X276500Y-6910000D02*
G75*
G03*
X246500Y-6910000I-15000J0D01*
G01*
D12*
X236500Y-10198500D02*
X286500Y-10248500D01*
X286500Y-10198500D02*
X236500Y-10248500D01*
D11*
X246500Y-10148500D02*
X246500Y-10298500D01*
X276500Y-10148500D02*
X276500Y-10298500D01*
X246500Y-10298500D02*
G75*
G03*
X276500Y-10298500I15000J0D01*
G01*
X276500Y-10148500D02*
G75*
G03*
X246500Y-10148500I-15000J0D01*
G01*
D12*
X1061500Y-6960000D02*
X1111500Y-7010000D01*
X1111500Y-6960000D02*
X1061500Y-7010000D01*
D11*
X1071500Y-6910000D02*
X1071500Y-7060000D01*
X1101500Y-6910000D02*
X1101500Y-7060000D01*
X1071500Y-7060000D02*
G75*
G03*
X1101500Y-7060000I15000J0D01*
G01*
X1101500Y-6910000D02*
G75*
G03*
X1071500Y-6910000I-15000J0D01*
G01*
D12*
X1061500Y-10198500D02*
X1111500Y-10248500D01*
X1111500Y-10198500D02*
X1061500Y-10248500D01*
D11*
X1071500Y-10148500D02*
X1071500Y-10298500D01*
X1101500Y-10148500D02*
X1101500Y-10298500D01*
X1071500Y-10298500D02*
G75*
G03*
X1101500Y-10298500I15000J0D01*
G01*
X1101500Y-10148500D02*
G75*
G03*
X1071500Y-10148500I-15000J0D01*
G01*
D12*
X1499000Y-1199500D02*
X1549000Y-1249500D01*
X1549000Y-1199500D02*
X1499000Y-1249500D01*
D11*
X1599000Y-1209500D02*
X1449000Y-1209500D01*
X1599000Y-1239500D02*
X1449000Y-1239500D01*
X1449000Y-1209500D02*
G75*
G03*
X1449000Y-1239500I0J-15000D01*
G01*
X1599000Y-1239500D02*
G75*
G03*
X1599000Y-1209500I0J15000D01*
G01*
D12*
X1499000Y-2179500D02*
X1549000Y-2229500D01*
X1549000Y-2179500D02*
X1499000Y-2229500D01*
D11*
X1599000Y-2189500D02*
X1449000Y-2189500D01*
X1599000Y-2219500D02*
X1449000Y-2219500D01*
X1449000Y-2189500D02*
G75*
G03*
X1449000Y-2219500I0J-15000D01*
G01*
X1599000Y-2219500D02*
G75*
G03*
X1599000Y-2189500I0J15000D01*
G01*
D12*
X1499000Y-3358500D02*
X1549000Y-3408500D01*
X1549000Y-3358500D02*
X1499000Y-3408500D01*
D11*
X1599000Y-3368500D02*
X1449000Y-3368500D01*
X1599000Y-3398500D02*
X1449000Y-3398500D01*
X1449000Y-3368500D02*
G75*
G03*
X1449000Y-3398500I0J-15000D01*
G01*
X1599000Y-3398500D02*
G75*
G03*
X1599000Y-3368500I0J15000D01*
G01*
D12*
X1499000Y-4338500D02*
X1549000Y-4388500D01*
X1549000Y-4338500D02*
X1499000Y-4388500D01*
D11*
X1599000Y-4348500D02*
X1449000Y-4348500D01*
X1599000Y-4378500D02*
X1449000Y-4378500D01*
X1449000Y-4348500D02*
G75*
G03*
X1449000Y-4378500I0J-15000D01*
G01*
X1599000Y-4378500D02*
G75*
G03*
X1599000Y-4348500I0J15000D01*
G01*
D12*
X1499000Y-5517500D02*
X1549000Y-5567500D01*
X1549000Y-5517500D02*
X1499000Y-5567500D01*
D11*
X1599000Y-5527500D02*
X1449000Y-5527500D01*
X1599000Y-5557500D02*
X1449000Y-5557500D01*
X1449000Y-5527500D02*
G75*
G03*
X1449000Y-5557500I0J-15000D01*
G01*
X1599000Y-5557500D02*
G75*
G03*
X1599000Y-5527500I0J15000D01*
G01*
D12*
X1499000Y-6497500D02*
X1549000Y-6547500D01*
X1549000Y-6497500D02*
X1499000Y-6547500D01*
D11*
X1599000Y-6507500D02*
X1449000Y-6507500D01*
X1599000Y-6537500D02*
X1449000Y-6537500D01*
X1449000Y-6507500D02*
G75*
G03*
X1449000Y-6537500I0J-15000D01*
G01*
X1599000Y-6537500D02*
G75*
G03*
X1599000Y-6507500I0J15000D01*
G01*
D12*
X3785000Y-120000D02*
X3835000Y-170000D01*
X3835000Y-120000D02*
X3785000Y-170000D01*
D11*
X3885000Y-130000D02*
X3735000Y-130000D01*
X3885000Y-160000D02*
X3735000Y-160000D01*
X3735000Y-130000D02*
G75*
G03*
X3735000Y-160000I0J-15000D01*
G01*
X3885000Y-160000D02*
G75*
G03*
X3885000Y-130000I0J15000D01*
G01*
D12*
X3785000Y-1100000D02*
X3835000Y-1150000D01*
X3835000Y-1100000D02*
X3785000Y-1150000D01*
D11*
X3885000Y-1110000D02*
X3735000Y-1110000D01*
X3885000Y-1140000D02*
X3735000Y-1140000D01*
X3735000Y-1110000D02*
G75*
G03*
X3735000Y-1140000I0J-15000D01*
G01*
X3885000Y-1140000D02*
G75*
G03*
X3885000Y-1110000I0J15000D01*
G01*
D12*
X3785000Y-2279000D02*
X3835000Y-2329000D01*
X3835000Y-2279000D02*
X3785000Y-2329000D01*
D11*
X3885000Y-2289000D02*
X3735000Y-2289000D01*
X3885000Y-2319000D02*
X3735000Y-2319000D01*
X3735000Y-2289000D02*
G75*
G03*
X3735000Y-2319000I0J-15000D01*
G01*
X3885000Y-2319000D02*
G75*
G03*
X3885000Y-2289000I0J15000D01*
G01*
D12*
X3785000Y-3259000D02*
X3835000Y-3309000D01*
X3835000Y-3259000D02*
X3785000Y-3309000D01*
D11*
X3885000Y-3269000D02*
X3735000Y-3269000D01*
X3885000Y-3299000D02*
X3735000Y-3299000D01*
X3735000Y-3269000D02*
G75*
G03*
X3735000Y-3299000I0J-15000D01*
G01*
X3885000Y-3299000D02*
G75*
G03*
X3885000Y-3269000I0J15000D01*
G01*
D12*
X3785000Y-4438000D02*
X3835000Y-4488000D01*
X3835000Y-4438000D02*
X3785000Y-4488000D01*
D11*
X3885000Y-4448000D02*
X3735000Y-4448000D01*
X3885000Y-4478000D02*
X3735000Y-4478000D01*
X3735000Y-4448000D02*
G75*
G03*
X3735000Y-4478000I0J-15000D01*
G01*
X3885000Y-4478000D02*
G75*
G03*
X3885000Y-4448000I0J15000D01*
G01*
D12*
X3785000Y-5418000D02*
X3835000Y-5468000D01*
X3835000Y-5418000D02*
X3785000Y-5468000D01*
D11*
X3885000Y-5428000D02*
X3735000Y-5428000D01*
X3885000Y-5458000D02*
X3735000Y-5458000D01*
X3735000Y-5428000D02*
G75*
G03*
X3735000Y-5458000I0J-15000D01*
G01*
X3885000Y-5458000D02*
G75*
G03*
X3885000Y-5428000I0J15000D01*
G01*
D12*
X3785000Y-6597000D02*
X3835000Y-6647000D01*
X3835000Y-6597000D02*
X3785000Y-6647000D01*
D11*
X3885000Y-6607000D02*
X3735000Y-6607000D01*
X3885000Y-6637000D02*
X3735000Y-6637000D01*
X3735000Y-6607000D02*
G75*
G03*
X3735000Y-6637000I0J-15000D01*
G01*
X3885000Y-6637000D02*
G75*
G03*
X3885000Y-6607000I0J15000D01*
G01*
D12*
X3785000Y-7577000D02*
X3835000Y-7627000D01*
X3835000Y-7577000D02*
X3785000Y-7627000D01*
D11*
X3885000Y-7587000D02*
X3735000Y-7587000D01*
X3885000Y-7617000D02*
X3735000Y-7617000D01*
X3735000Y-7587000D02*
G75*
G03*
X3735000Y-7617000I0J-15000D01*
G01*
X3885000Y-7617000D02*
G75*
G03*
X3885000Y-7587000I0J15000D01*
G01*
D12*
X3785000Y-8756000D02*
X3835000Y-8806000D01*
X3835000Y-8756000D02*
X3785000Y-8806000D01*
D11*
X3885000Y-8766000D02*
X3735000Y-8766000D01*
X3885000Y-8796000D02*
X3735000Y-8796000D01*
X3735000Y-8766000D02*
G75*
G03*
X3735000Y-8796000I0J-15000D01*
G01*
X3885000Y-8796000D02*
G75*
G03*
X3885000Y-8766000I0J15000D01*
G01*
D12*
X3785000Y-9736000D02*
X3835000Y-9786000D01*
X3835000Y-9736000D02*
X3785000Y-9786000D01*
D11*
X3885000Y-9746000D02*
X3735000Y-9746000D01*
X3885000Y-9776000D02*
X3735000Y-9776000D01*
X3735000Y-9746000D02*
G75*
G03*
X3735000Y-9776000I0J-15000D01*
G01*
X3885000Y-9776000D02*
G75*
G03*
X3885000Y-9746000I0J15000D01*
G01*
D12*
X4222500Y-1562500D02*
X4272500Y-1612500D01*
X4272500Y-1562500D02*
X4222500Y-1612500D01*
D11*
X4262500Y-1662500D02*
X4262500Y-1512500D01*
X4232500Y-1662500D02*
X4232500Y-1512500D01*
X4262500Y-1512500D02*
G75*
G03*
X4232500Y-1512500I-15000J0D01*
G01*
X4232500Y-1662500D02*
G75*
G03*
X4262500Y-1662500I15000J0D01*
G01*
D12*
X4222500Y-3721500D02*
X4272500Y-3771500D01*
X4272500Y-3721500D02*
X4222500Y-3771500D01*
D11*
X4262500Y-3821500D02*
X4262500Y-3671500D01*
X4232500Y-3821500D02*
X4232500Y-3671500D01*
X4262500Y-3671500D02*
G75*
G03*
X4232500Y-3671500I-15000J0D01*
G01*
X4232500Y-3821500D02*
G75*
G03*
X4262500Y-3821500I15000J0D01*
G01*
D12*
X4222500Y-5880500D02*
X4272500Y-5930500D01*
X4272500Y-5880500D02*
X4222500Y-5930500D01*
D11*
X4262500Y-5980500D02*
X4262500Y-5830500D01*
X4232500Y-5980500D02*
X4232500Y-5830500D01*
X4262500Y-5830500D02*
G75*
G03*
X4232500Y-5830500I-15000J0D01*
G01*
X4232500Y-5980500D02*
G75*
G03*
X4262500Y-5980500I15000J0D01*
G01*
D12*
X4222500Y-8039500D02*
X4272500Y-8089500D01*
X4272500Y-8039500D02*
X4222500Y-8089500D01*
D11*
X4262500Y-8139500D02*
X4262500Y-7989500D01*
X4232500Y-8139500D02*
X4232500Y-7989500D01*
X4262500Y-7989500D02*
G75*
G03*
X4232500Y-7989500I-15000J0D01*
G01*
X4232500Y-8139500D02*
G75*
G03*
X4262500Y-8139500I15000J0D01*
G01*
D12*
X4222500Y-10198500D02*
X4272500Y-10248500D01*
X4272500Y-10198500D02*
X4222500Y-10248500D01*
D11*
X4262500Y-10298500D02*
X4262500Y-10148500D01*
X4232500Y-10298500D02*
X4232500Y-10148500D01*
X4262500Y-10148500D02*
G75*
G03*
X4232500Y-10148500I-15000J0D01*
G01*
X4232500Y-10298500D02*
G75*
G03*
X4262500Y-10298500I15000J0D01*
G01*
D12*
X5047500Y-1562500D02*
X5097500Y-1612500D01*
X5097500Y-1562500D02*
X5047500Y-1612500D01*
D11*
X5087500Y-1662500D02*
X5087500Y-1512500D01*
X5057500Y-1662500D02*
X5057500Y-1512500D01*
X5087500Y-1512500D02*
G75*
G03*
X5057500Y-1512500I-15000J0D01*
G01*
X5057500Y-1662500D02*
G75*
G03*
X5087500Y-1662500I15000J0D01*
G01*
D12*
X5047500Y-3721500D02*
X5097500Y-3771500D01*
X5097500Y-3721500D02*
X5047500Y-3771500D01*
D11*
X5087500Y-3821500D02*
X5087500Y-3671500D01*
X5057500Y-3821500D02*
X5057500Y-3671500D01*
X5087500Y-3671500D02*
G75*
G03*
X5057500Y-3671500I-15000J0D01*
G01*
X5057500Y-3821500D02*
G75*
G03*
X5087500Y-3821500I15000J0D01*
G01*
D12*
X5047500Y-5880500D02*
X5097500Y-5930500D01*
X5097500Y-5880500D02*
X5047500Y-5930500D01*
D11*
X5087500Y-5980500D02*
X5087500Y-5830500D01*
X5057500Y-5980500D02*
X5057500Y-5830500D01*
X5087500Y-5830500D02*
G75*
G03*
X5057500Y-5830500I-15000J0D01*
G01*
X5057500Y-5980500D02*
G75*
G03*
X5087500Y-5980500I15000J0D01*
G01*
D12*
X5047500Y-8039500D02*
X5097500Y-8089500D01*
X5097500Y-8039500D02*
X5047500Y-8089500D01*
D11*
X5087500Y-8139500D02*
X5087500Y-7989500D01*
X5057500Y-8139500D02*
X5057500Y-7989500D01*
X5087500Y-7989500D02*
G75*
G03*
X5057500Y-7989500I-15000J0D01*
G01*
X5057500Y-8139500D02*
G75*
G03*
X5087500Y-8139500I15000J0D01*
G01*
D12*
X5047500Y-10198500D02*
X5097500Y-10248500D01*
X5097500Y-10198500D02*
X5047500Y-10248500D01*
D11*
X5087500Y-10298500D02*
X5087500Y-10148500D01*
X5057500Y-10298500D02*
X5057500Y-10148500D01*
X5087500Y-10148500D02*
G75*
G03*
X5057500Y-10148500I-15000J0D01*
G01*
X5057500Y-10298500D02*
G75*
G03*
X5087500Y-10298500I15000J0D01*
G01*
D13*
X872100Y-1460500D02*
G75*
G03*
X872100Y-1460500I-38100J0D01*
G01*
X872100Y-1714500D02*
G75*
G03*
X872100Y-1714500I-38100J0D01*
G01*
X872100Y-1968500D02*
G75*
G03*
X872100Y-1968500I-38100J0D01*
G01*
X872100Y-3619500D02*
G75*
G03*
X872100Y-3619500I-38100J0D01*
G01*
X872100Y-3873500D02*
G75*
G03*
X872100Y-3873500I-38100J0D01*
G01*
X872100Y-4127500D02*
G75*
G03*
X872100Y-4127500I-38100J0D01*
G01*
X872100Y-5778500D02*
G75*
G03*
X872100Y-5778500I-38100J0D01*
G01*
X872100Y-6032500D02*
G75*
G03*
X872100Y-6032500I-38100J0D01*
G01*
X872100Y-6286500D02*
G75*
G03*
X872100Y-6286500I-38100J0D01*
G01*
X1308100Y-8572500D02*
G75*
G03*
X1308100Y-8572500I-38100J0D01*
G01*
X1562100Y-8572500D02*
G75*
G03*
X1562100Y-8572500I-38100J0D01*
G01*
X1816100Y-8572500D02*
G75*
G03*
X1816100Y-8572500I-38100J0D01*
G01*
X3158100Y-381000D02*
G75*
G03*
X3158100Y-381000I-38100J0D01*
G01*
X3158100Y-635000D02*
G75*
G03*
X3158100Y-635000I-38100J0D01*
G01*
X3158100Y-889000D02*
G75*
G03*
X3158100Y-889000I-38100J0D01*
G01*
X3158100Y-2540000D02*
G75*
G03*
X3158100Y-2540000I-38100J0D01*
G01*
X3158100Y-2794000D02*
G75*
G03*
X3158100Y-2794000I-38100J0D01*
G01*
X3158100Y-3048000D02*
G75*
G03*
X3158100Y-3048000I-38100J0D01*
G01*
X3158100Y-4699000D02*
G75*
G03*
X3158100Y-4699000I-38100J0D01*
G01*
X3158100Y-4953000D02*
G75*
G03*
X3158100Y-4953000I-38100J0D01*
G01*
X3158100Y-5207000D02*
G75*
G03*
X3158100Y-5207000I-38100J0D01*
G01*
X3158100Y-6858000D02*
G75*
G03*
X3158100Y-6858000I-38100J0D01*
G01*
X3158100Y-7112000D02*
G75*
G03*
X3158100Y-7112000I-38100J0D01*
G01*
X3158100Y-7366000D02*
G75*
G03*
X3158100Y-7366000I-38100J0D01*
G01*
X3158100Y-9017000D02*
G75*
G03*
X3158100Y-9017000I-38100J0D01*
G01*
X3158100Y-9271000D02*
G75*
G03*
X3158100Y-9271000I-38100J0D01*
G01*
X3158100Y-9525000D02*
G75*
G03*
X3158100Y-9525000I-38100J0D01*
G01*
D14*
X1016000Y-595000D02*
X1016000Y-675000D01*
X976000Y-635000D02*
X1056000Y-635000D01*
X1016000Y-2436500D02*
X1016000Y-2516500D01*
X976000Y-2476500D02*
X1056000Y-2476500D01*
X1016000Y-2754000D02*
X1016000Y-2834000D01*
X976000Y-2794000D02*
X1056000Y-2794000D01*
X1016000Y-3071500D02*
X1016000Y-3151500D01*
X976000Y-3111500D02*
X1056000Y-3111500D01*
X1016000Y-8088000D02*
X1016000Y-8168000D01*
X976000Y-8128000D02*
X1056000Y-8128000D01*
X1016000Y-8977000D02*
X1016000Y-9057000D01*
X976000Y-9017000D02*
X1056000Y-9017000D01*
X2032000Y-595000D02*
X2032000Y-675000D01*
X1992000Y-635000D02*
X2072000Y-635000D01*
X2032000Y-2436500D02*
X2032000Y-2516500D01*
X1992000Y-2476500D02*
X2072000Y-2476500D01*
X2032000Y-2754000D02*
X2032000Y-2834000D01*
X1992000Y-2794000D02*
X2072000Y-2794000D01*
X2032000Y-3071500D02*
X2032000Y-3151500D01*
X1992000Y-3111500D02*
X2072000Y-3111500D01*
X2032000Y-8088000D02*
X2032000Y-8168000D01*
X1992000Y-8128000D02*
X2072000Y-8128000D01*
X2032000Y-8977000D02*
X2032000Y-9057000D01*
X1992000Y-9017000D02*
X2072000Y-9017000D01*
X2984500Y-1547500D02*
X2984500Y-1627500D01*
X2944500Y-1587500D02*
X3024500Y-1587500D01*
X2984500Y-3706500D02*
X2984500Y-3786500D01*
X2944500Y-3746500D02*
X3024500Y-3746500D01*
X2984500Y-5865500D02*
X2984500Y-5945500D01*
X2944500Y-5905500D02*
X3024500Y-5905500D01*
X2984500Y-8024500D02*
X2984500Y-8104500D01*
X2944500Y-8064500D02*
X3024500Y-8064500D01*
X2984500Y-10183500D02*
X2984500Y-10263500D01*
X2944500Y-10223500D02*
X3024500Y-10223500D01*
X4000500Y-1547500D02*
X4000500Y-1627500D01*
X3960500Y-1587500D02*
X4040500Y-1587500D01*
X4000500Y-3706500D02*
X4000500Y-3786500D01*
X3960500Y-3746500D02*
X4040500Y-3746500D01*
X4000500Y-5865500D02*
X4000500Y-5945500D01*
X3960500Y-5905500D02*
X4040500Y-5905500D01*
X4000500Y-8024500D02*
X4000500Y-8104500D01*
X3960500Y-8064500D02*
X4040500Y-8064500D01*
X4000500Y-10183500D02*
X4000500Y-10263500D01*
X3960500Y-10223500D02*
X4040500Y-10223500D01*
D15*
X476320Y-2825820D02*
X476320Y-2762180D01*
X412680Y-2762180D01*
X412680Y-2825820D01*
X476320Y-2825820D01*
X603320Y-8476820D02*
X603320Y-8413180D01*
X539680Y-8413180D01*
X539680Y-8476820D01*
X603320Y-8476820D01*
X603320Y-8730820D02*
X603320Y-8667180D01*
X539680Y-8667180D01*
X539680Y-8730820D01*
X603320Y-8730820D01*
X730320Y-2825820D02*
X730320Y-2762180D01*
X666680Y-2762180D01*
X666680Y-2825820D01*
X730320Y-2825820D01*
X1428320Y-285820D02*
X1428320Y-222180D01*
X1364680Y-222180D01*
X1364680Y-285820D01*
X1428320Y-285820D01*
X1682320Y-285820D02*
X1682320Y-222180D01*
X1618680Y-222180D01*
X1618680Y-285820D01*
X1682320Y-285820D01*
X2508320Y-8477820D02*
X2508320Y-8414180D01*
X2444680Y-8414180D01*
X2444680Y-8477820D01*
X2508320Y-8477820D01*
X2508320Y-8731820D02*
X2508320Y-8668180D01*
X2444680Y-8668180D01*
X2444680Y-8731820D01*
X2508320Y-8731820D01*
D16*
X127000Y-1129500D02*
X177000Y-1079500D01*
X127000Y-1029500D01*
X77000Y-1079500D01*
X127000Y-1129500D01*
X127000Y-1383500D02*
X177000Y-1333500D01*
X127000Y-1283500D01*
X77000Y-1333500D01*
X127000Y-1383500D01*
X127000Y-1637500D02*
X177000Y-1587500D01*
X127000Y-1537500D01*
X77000Y-1587500D01*
X127000Y-1637500D01*
X127000Y-4304500D02*
X177000Y-4254500D01*
X127000Y-4204500D01*
X77000Y-4254500D01*
X127000Y-4304500D01*
X127000Y-4558500D02*
X177000Y-4508500D01*
X127000Y-4458500D01*
X77000Y-4508500D01*
X127000Y-4558500D01*
X127000Y-8654250D02*
X177000Y-8604250D01*
X127000Y-8554250D01*
X77000Y-8604250D01*
X127000Y-8654250D01*
X2286000Y-177000D02*
X2336000Y-127000D01*
X2286000Y-77000D01*
X2236000Y-127000D01*
X2286000Y-177000D01*
X2540000Y-177000D02*
X2590000Y-127000D01*
X2540000Y-77000D01*
X2490000Y-127000D01*
X2540000Y-177000D01*
X2667000Y-4749000D02*
X2717000Y-4699000D01*
X2667000Y-4649000D01*
X2617000Y-4699000D01*
X2667000Y-4749000D01*
X2667000Y-5003000D02*
X2717000Y-4953000D01*
X2667000Y-4903000D01*
X2617000Y-4953000D01*
X2667000Y-5003000D01*
X2667000Y-5257000D02*
X2717000Y-5207000D01*
X2667000Y-5157000D01*
X2617000Y-5207000D01*
X2667000Y-5257000D01*
X2667000Y-5511000D02*
X2717000Y-5461000D01*
X2667000Y-5411000D01*
X2617000Y-5461000D01*
X2667000Y-5511000D01*
X2667000Y-5765000D02*
X2717000Y-5715000D01*
X2667000Y-5665000D01*
X2617000Y-5715000D01*
X2667000Y-5765000D01*
X2667000Y-6019000D02*
X2717000Y-5969000D01*
X2667000Y-5919000D01*
X2617000Y-5969000D01*
X2667000Y-6019000D01*
X2794000Y-177000D02*
X2844000Y-127000D01*
X2794000Y-77000D01*
X2744000Y-127000D01*
X2794000Y-177000D01*
X3048000Y-177000D02*
X3098000Y-127000D01*
X3048000Y-77000D01*
X2998000Y-127000D01*
X3048000Y-177000D01*
X5207000Y-939000D02*
X5257000Y-889000D01*
X5207000Y-839000D01*
X5157000Y-889000D01*
X5207000Y-939000D01*
D11*
X252619Y-10983476D02*
X252619Y-10783476D01*
X300238Y-10783476D01*
X328810Y-10793000D01*
X347857Y-10812048D01*
X357381Y-10831095D01*
X366905Y-10869190D01*
X366905Y-10897762D01*
X357381Y-10935857D01*
X347857Y-10954905D01*
X328810Y-10973952D01*
X300238Y-10983476D01*
X252619Y-10983476D01*
X452619Y-10983476D02*
X452619Y-10850143D01*
X452619Y-10888238D02*
X462143Y-10869190D01*
X471667Y-10859667D01*
X490714Y-10850143D01*
X509762Y-10850143D01*
X576429Y-10983476D02*
X576429Y-10850143D01*
X576429Y-10783476D02*
X566905Y-10793000D01*
X576429Y-10802524D01*
X585952Y-10793000D01*
X576429Y-10783476D01*
X576429Y-10802524D01*
X700238Y-10983476D02*
X681190Y-10973952D01*
X671667Y-10954905D01*
X671667Y-10783476D01*
X805000Y-10983476D02*
X785952Y-10973952D01*
X776428Y-10954905D01*
X776428Y-10783476D01*
X1033571Y-10983476D02*
X1033571Y-10783476D01*
X1100238Y-10926333D01*
X1166905Y-10783476D01*
X1166905Y-10983476D01*
X1347857Y-10983476D02*
X1347857Y-10878714D01*
X1338333Y-10859667D01*
X1319286Y-10850143D01*
X1281190Y-10850143D01*
X1262143Y-10859667D01*
X1347857Y-10973952D02*
X1328810Y-10983476D01*
X1281190Y-10983476D01*
X1262143Y-10973952D01*
X1252619Y-10954905D01*
X1252619Y-10935857D01*
X1262143Y-10916810D01*
X1281190Y-10907286D01*
X1328810Y-10907286D01*
X1347857Y-10897762D01*
X1443095Y-10850143D02*
X1443095Y-11050143D01*
X1443095Y-10859667D02*
X1462143Y-10850143D01*
X1500238Y-10850143D01*
X1519286Y-10859667D01*
X1528809Y-10869190D01*
X1538333Y-10888238D01*
X1538333Y-10945381D01*
X1528809Y-10964429D01*
X1519286Y-10973952D01*
X1500238Y-10983476D01*
X1462143Y-10983476D01*
X1443095Y-10973952D01*
X1624048Y-10964429D02*
X1633571Y-10973952D01*
X1624048Y-10983476D01*
X1614524Y-10973952D01*
X1624048Y-10964429D01*
X1624048Y-10983476D01*
X1624048Y-10859667D02*
X1633571Y-10869190D01*
X1624048Y-10878714D01*
X1614524Y-10869190D01*
X1624048Y-10859667D01*
X1624048Y-10878714D01*
D12*
X-55000Y-11288000D02*
X-5000Y-11338000D01*
X-5000Y-11288000D02*
X-55000Y-11338000D01*
D11*
X290714Y-11203476D02*
X309762Y-11203476D01*
X328810Y-11213000D01*
X338333Y-11222524D01*
X347857Y-11241571D01*
X357381Y-11279667D01*
X357381Y-11327286D01*
X347857Y-11365381D01*
X338333Y-11384428D01*
X328810Y-11393952D01*
X309762Y-11403476D01*
X290714Y-11403476D01*
X271667Y-11393952D01*
X262143Y-11384428D01*
X252619Y-11365381D01*
X243095Y-11327286D01*
X243095Y-11279667D01*
X252619Y-11241571D01*
X262143Y-11222524D01*
X271667Y-11213000D01*
X290714Y-11203476D01*
X443095Y-11384428D02*
X452619Y-11393952D01*
X443095Y-11403476D01*
X433571Y-11393952D01*
X443095Y-11384428D01*
X443095Y-11403476D01*
X633571Y-11203476D02*
X538333Y-11203476D01*
X528810Y-11298714D01*
X538333Y-11289190D01*
X557381Y-11279667D01*
X605000Y-11279667D01*
X624048Y-11289190D01*
X633571Y-11298714D01*
X643095Y-11317762D01*
X643095Y-11365381D01*
X633571Y-11384428D01*
X624048Y-11393952D01*
X605000Y-11403476D01*
X557381Y-11403476D01*
X538333Y-11393952D01*
X528810Y-11384428D01*
X766905Y-11203476D02*
X785952Y-11203476D01*
X805000Y-11213000D01*
X814524Y-11222524D01*
X824048Y-11241571D01*
X833571Y-11279667D01*
X833571Y-11327286D01*
X824048Y-11365381D01*
X814524Y-11384428D01*
X805000Y-11393952D01*
X785952Y-11403476D01*
X766905Y-11403476D01*
X747857Y-11393952D01*
X738333Y-11384428D01*
X728809Y-11365381D01*
X719286Y-11327286D01*
X719286Y-11279667D01*
X728809Y-11241571D01*
X738333Y-11222524D01*
X747857Y-11213000D01*
X766905Y-11203476D01*
X957381Y-11203476D02*
X976428Y-11203476D01*
X995476Y-11213000D01*
X1005000Y-11222524D01*
X1014524Y-11241571D01*
X1024048Y-11279667D01*
X1024048Y-11327286D01*
X1014524Y-11365381D01*
X1005000Y-11384428D01*
X995476Y-11393952D01*
X976428Y-11403476D01*
X957381Y-11403476D01*
X938333Y-11393952D01*
X928809Y-11384428D01*
X919286Y-11365381D01*
X909762Y-11327286D01*
X909762Y-11279667D01*
X919286Y-11241571D01*
X928809Y-11222524D01*
X938333Y-11213000D01*
X957381Y-11203476D01*
X1109762Y-11403476D02*
X1109762Y-11270143D01*
X1109762Y-11289190D02*
X1119286Y-11279667D01*
X1138333Y-11270143D01*
X1166905Y-11270143D01*
X1185952Y-11279667D01*
X1195476Y-11298714D01*
X1195476Y-11403476D01*
X1195476Y-11298714D02*
X1205000Y-11279667D01*
X1224048Y-11270143D01*
X1252619Y-11270143D01*
X1271667Y-11279667D01*
X1281190Y-11298714D01*
X1281190Y-11403476D01*
X1376429Y-11403476D02*
X1376429Y-11270143D01*
X1376429Y-11289190D02*
X1385952Y-11279667D01*
X1405000Y-11270143D01*
X1433571Y-11270143D01*
X1452619Y-11279667D01*
X1462143Y-11298714D01*
X1462143Y-11403476D01*
X1462143Y-11298714D02*
X1471667Y-11279667D01*
X1490714Y-11270143D01*
X1519286Y-11270143D01*
X1538333Y-11279667D01*
X1547857Y-11298714D01*
X1547857Y-11403476D01*
X1938333Y-11193952D02*
X1766905Y-11451095D01*
X2195476Y-11203476D02*
X2214524Y-11203476D01*
X2233571Y-11213000D01*
X2243095Y-11222524D01*
X2252619Y-11241571D01*
X2262143Y-11279667D01*
X2262143Y-11327286D01*
X2252619Y-11365381D01*
X2243095Y-11384428D01*
X2233571Y-11393952D01*
X2214524Y-11403476D01*
X2195476Y-11403476D01*
X2176429Y-11393952D01*
X2166905Y-11384428D01*
X2157381Y-11365381D01*
X2147857Y-11327286D01*
X2147857Y-11279667D01*
X2157381Y-11241571D01*
X2166905Y-11222524D01*
X2176429Y-11213000D01*
X2195476Y-11203476D01*
X2347857Y-11384428D02*
X2357381Y-11393952D01*
X2347857Y-11403476D01*
X2338333Y-11393952D01*
X2347857Y-11384428D01*
X2347857Y-11403476D01*
X2481190Y-11203476D02*
X2500238Y-11203476D01*
X2519286Y-11213000D01*
X2528810Y-11222524D01*
X2538333Y-11241571D01*
X2547857Y-11279667D01*
X2547857Y-11327286D01*
X2538333Y-11365381D01*
X2528810Y-11384428D01*
X2519286Y-11393952D01*
X2500238Y-11403476D01*
X2481190Y-11403476D01*
X2462143Y-11393952D01*
X2452619Y-11384428D01*
X2443095Y-11365381D01*
X2433571Y-11327286D01*
X2433571Y-11279667D01*
X2443095Y-11241571D01*
X2452619Y-11222524D01*
X2462143Y-11213000D01*
X2481190Y-11203476D01*
X2738333Y-11403476D02*
X2624048Y-11403476D01*
X2681190Y-11403476D02*
X2681190Y-11203476D01*
X2662143Y-11232048D01*
X2643095Y-11251095D01*
X2624048Y-11260619D01*
X2833571Y-11403476D02*
X2871667Y-11403476D01*
X2890714Y-11393952D01*
X2900238Y-11384428D01*
X2919286Y-11355857D01*
X2928809Y-11317762D01*
X2928809Y-11241571D01*
X2919286Y-11222524D01*
X2909762Y-11213000D01*
X2890714Y-11203476D01*
X2852619Y-11203476D01*
X2833571Y-11213000D01*
X2824048Y-11222524D01*
X2814524Y-11241571D01*
X2814524Y-11289190D01*
X2824048Y-11308238D01*
X2833571Y-11317762D01*
X2852619Y-11327286D01*
X2890714Y-11327286D01*
X2909762Y-11317762D01*
X2919286Y-11308238D01*
X2928809Y-11289190D01*
X2995476Y-11203476D02*
X3128809Y-11203476D01*
X3043095Y-11403476D01*
X3195476Y-11203476D02*
X3195476Y-11241571D01*
X3271667Y-11203476D02*
X3271667Y-11241571D01*
X3566905Y-11479667D02*
X3557381Y-11470143D01*
X3538333Y-11441571D01*
X3528809Y-11422524D01*
X3519286Y-11393952D01*
X3509762Y-11346333D01*
X3509762Y-11308238D01*
X3519286Y-11260619D01*
X3528809Y-11232048D01*
X3538333Y-11213000D01*
X3557381Y-11184429D01*
X3566905Y-11174905D01*
X3681190Y-11203476D02*
X3700238Y-11203476D01*
X3719286Y-11213000D01*
X3728809Y-11222524D01*
X3738333Y-11241571D01*
X3747857Y-11279667D01*
X3747857Y-11327286D01*
X3738333Y-11365381D01*
X3728809Y-11384428D01*
X3719286Y-11393952D01*
X3700238Y-11403476D01*
X3681190Y-11403476D01*
X3662143Y-11393952D01*
X3652619Y-11384428D01*
X3643095Y-11365381D01*
X3633571Y-11327286D01*
X3633571Y-11279667D01*
X3643095Y-11241571D01*
X3652619Y-11222524D01*
X3662143Y-11213000D01*
X3681190Y-11203476D01*
X3985952Y-11403476D02*
X3985952Y-11203476D01*
X4071667Y-11403476D02*
X4071667Y-11298714D01*
X4062143Y-11279667D01*
X4043095Y-11270143D01*
X4014524Y-11270143D01*
X3995476Y-11279667D01*
X3985952Y-11289190D01*
X4195476Y-11403476D02*
X4176428Y-11393952D01*
X4166905Y-11384428D01*
X4157381Y-11365381D01*
X4157381Y-11308238D01*
X4166905Y-11289190D01*
X4176428Y-11279667D01*
X4195476Y-11270143D01*
X4224048Y-11270143D01*
X4243095Y-11279667D01*
X4252619Y-11289190D01*
X4262143Y-11308238D01*
X4262143Y-11365381D01*
X4252619Y-11384428D01*
X4243095Y-11393952D01*
X4224048Y-11403476D01*
X4195476Y-11403476D01*
X4376429Y-11403476D02*
X4357381Y-11393952D01*
X4347857Y-11374905D01*
X4347857Y-11203476D01*
X4528810Y-11393952D02*
X4509762Y-11403476D01*
X4471667Y-11403476D01*
X4452619Y-11393952D01*
X4443095Y-11374905D01*
X4443095Y-11298714D01*
X4452619Y-11279667D01*
X4471667Y-11270143D01*
X4509762Y-11270143D01*
X4528810Y-11279667D01*
X4538333Y-11298714D01*
X4538333Y-11317762D01*
X4443095Y-11336809D01*
X4614524Y-11393952D02*
X4633571Y-11403476D01*
X4671667Y-11403476D01*
X4690714Y-11393952D01*
X4700238Y-11374905D01*
X4700238Y-11365381D01*
X4690714Y-11346333D01*
X4671667Y-11336809D01*
X4643095Y-11336809D01*
X4624048Y-11327286D01*
X4614524Y-11308238D01*
X4614524Y-11298714D01*
X4624048Y-11279667D01*
X4643095Y-11270143D01*
X4671667Y-11270143D01*
X4690714Y-11279667D01*
X4938333Y-11327286D02*
X5090714Y-11327286D01*
X5014524Y-11403476D02*
X5014524Y-11251095D01*
X5319286Y-11203476D02*
X5443095Y-11203476D01*
X5376429Y-11279667D01*
X5405000Y-11279667D01*
X5424048Y-11289190D01*
X5433571Y-11298714D01*
X5443095Y-11317762D01*
X5443095Y-11365381D01*
X5433571Y-11384428D01*
X5424048Y-11393952D01*
X5405000Y-11403476D01*
X5347857Y-11403476D01*
X5328810Y-11393952D01*
X5319286Y-11384428D01*
X5566905Y-11203476D02*
X5585952Y-11203476D01*
X5605000Y-11213000D01*
X5614524Y-11222524D01*
X5624048Y-11241571D01*
X5633571Y-11279667D01*
X5633571Y-11327286D01*
X5624048Y-11365381D01*
X5614524Y-11384428D01*
X5605000Y-11393952D01*
X5585952Y-11403476D01*
X5566905Y-11403476D01*
X5547857Y-11393952D01*
X5538333Y-11384428D01*
X5528810Y-11365381D01*
X5519286Y-11327286D01*
X5519286Y-11279667D01*
X5528810Y-11241571D01*
X5538333Y-11222524D01*
X5547857Y-11213000D01*
X5566905Y-11203476D01*
X5862143Y-11393952D02*
X5881190Y-11403476D01*
X5919286Y-11403476D01*
X5938333Y-11393952D01*
X5947857Y-11374905D01*
X5947857Y-11365381D01*
X5938333Y-11346333D01*
X5919286Y-11336809D01*
X5890714Y-11336809D01*
X5871667Y-11327286D01*
X5862143Y-11308238D01*
X5862143Y-11298714D01*
X5871667Y-11279667D01*
X5890714Y-11270143D01*
X5919286Y-11270143D01*
X5938333Y-11279667D01*
X6062143Y-11403476D02*
X6043095Y-11393952D01*
X6033571Y-11374905D01*
X6033571Y-11203476D01*
X6166905Y-11403476D02*
X6147857Y-11393952D01*
X6138333Y-11384428D01*
X6128809Y-11365381D01*
X6128809Y-11308238D01*
X6138333Y-11289190D01*
X6147857Y-11279667D01*
X6166905Y-11270143D01*
X6195476Y-11270143D01*
X6214524Y-11279667D01*
X6224048Y-11289190D01*
X6233571Y-11308238D01*
X6233571Y-11365381D01*
X6224048Y-11384428D01*
X6214524Y-11393952D01*
X6195476Y-11403476D01*
X6166905Y-11403476D01*
X6290714Y-11270143D02*
X6366905Y-11270143D01*
X6319286Y-11203476D02*
X6319286Y-11374905D01*
X6328809Y-11393952D01*
X6347857Y-11403476D01*
X6366905Y-11403476D01*
X6424048Y-11393952D02*
X6443095Y-11403476D01*
X6481190Y-11403476D01*
X6500238Y-11393952D01*
X6509762Y-11374905D01*
X6509762Y-11365381D01*
X6500238Y-11346333D01*
X6481190Y-11336809D01*
X6452619Y-11336809D01*
X6433571Y-11327286D01*
X6424048Y-11308238D01*
X6424048Y-11298714D01*
X6433571Y-11279667D01*
X6452619Y-11270143D01*
X6481190Y-11270143D01*
X6500238Y-11279667D01*
X6576428Y-11479667D02*
X6585952Y-11470143D01*
X6605000Y-11441571D01*
X6614524Y-11422524D01*
X6624048Y-11393952D01*
X6633571Y-11346333D01*
X6633571Y-11308238D01*
X6624048Y-11260619D01*
X6614524Y-11232048D01*
X6605000Y-11213000D01*
X6585952Y-11184429D01*
X6576428Y-11174905D01*
D13*
X-5000Y-11577000D02*
G75*
G03*
X-5000Y-11577000I-38100J0D01*
G01*
D11*
X290714Y-11467476D02*
X309762Y-11467476D01*
X328810Y-11477000D01*
X338333Y-11486524D01*
X347857Y-11505571D01*
X357381Y-11543667D01*
X357381Y-11591286D01*
X347857Y-11629381D01*
X338333Y-11648428D01*
X328810Y-11657952D01*
X309762Y-11667476D01*
X290714Y-11667476D01*
X271667Y-11657952D01*
X262143Y-11648428D01*
X252619Y-11629381D01*
X243095Y-11591286D01*
X243095Y-11543667D01*
X252619Y-11505571D01*
X262143Y-11486524D01*
X271667Y-11477000D01*
X290714Y-11467476D01*
X443095Y-11648428D02*
X452619Y-11657952D01*
X443095Y-11667476D01*
X433571Y-11657952D01*
X443095Y-11648428D01*
X443095Y-11667476D01*
X519286Y-11467476D02*
X652619Y-11467476D01*
X566905Y-11667476D01*
X814524Y-11467476D02*
X776428Y-11467476D01*
X757381Y-11477000D01*
X747857Y-11486524D01*
X728809Y-11515095D01*
X719286Y-11553190D01*
X719286Y-11629381D01*
X728809Y-11648428D01*
X738333Y-11657952D01*
X757381Y-11667476D01*
X795476Y-11667476D01*
X814524Y-11657952D01*
X824048Y-11648428D01*
X833571Y-11629381D01*
X833571Y-11581762D01*
X824048Y-11562714D01*
X814524Y-11553190D01*
X795476Y-11543667D01*
X757381Y-11543667D01*
X738333Y-11553190D01*
X728809Y-11562714D01*
X719286Y-11581762D01*
X909762Y-11486524D02*
X919286Y-11477000D01*
X938333Y-11467476D01*
X985952Y-11467476D01*
X1005000Y-11477000D01*
X1014524Y-11486524D01*
X1024048Y-11505571D01*
X1024048Y-11524619D01*
X1014524Y-11553190D01*
X900238Y-11667476D01*
X1024048Y-11667476D01*
X1109762Y-11667476D02*
X1109762Y-11534143D01*
X1109762Y-11553190D02*
X1119286Y-11543667D01*
X1138333Y-11534143D01*
X1166905Y-11534143D01*
X1185952Y-11543667D01*
X1195476Y-11562714D01*
X1195476Y-11667476D01*
X1195476Y-11562714D02*
X1205000Y-11543667D01*
X1224048Y-11534143D01*
X1252619Y-11534143D01*
X1271667Y-11543667D01*
X1281190Y-11562714D01*
X1281190Y-11667476D01*
X1376429Y-11667476D02*
X1376429Y-11534143D01*
X1376429Y-11553190D02*
X1385952Y-11543667D01*
X1405000Y-11534143D01*
X1433571Y-11534143D01*
X1452619Y-11543667D01*
X1462143Y-11562714D01*
X1462143Y-11667476D01*
X1462143Y-11562714D02*
X1471667Y-11543667D01*
X1490714Y-11534143D01*
X1519286Y-11534143D01*
X1538333Y-11543667D01*
X1547857Y-11562714D01*
X1547857Y-11667476D01*
X1938333Y-11457952D02*
X1766905Y-11715095D01*
X2195476Y-11467476D02*
X2214524Y-11467476D01*
X2233571Y-11477000D01*
X2243095Y-11486524D01*
X2252619Y-11505571D01*
X2262143Y-11543667D01*
X2262143Y-11591286D01*
X2252619Y-11629381D01*
X2243095Y-11648428D01*
X2233571Y-11657952D01*
X2214524Y-11667476D01*
X2195476Y-11667476D01*
X2176429Y-11657952D01*
X2166905Y-11648428D01*
X2157381Y-11629381D01*
X2147857Y-11591286D01*
X2147857Y-11543667D01*
X2157381Y-11505571D01*
X2166905Y-11486524D01*
X2176429Y-11477000D01*
X2195476Y-11467476D01*
X2347857Y-11648428D02*
X2357381Y-11657952D01*
X2347857Y-11667476D01*
X2338333Y-11657952D01*
X2347857Y-11648428D01*
X2347857Y-11667476D01*
X2481190Y-11467476D02*
X2500238Y-11467476D01*
X2519286Y-11477000D01*
X2528810Y-11486524D01*
X2538333Y-11505571D01*
X2547857Y-11543667D01*
X2547857Y-11591286D01*
X2538333Y-11629381D01*
X2528810Y-11648428D01*
X2519286Y-11657952D01*
X2500238Y-11667476D01*
X2481190Y-11667476D01*
X2462143Y-11657952D01*
X2452619Y-11648428D01*
X2443095Y-11629381D01*
X2433571Y-11591286D01*
X2433571Y-11543667D01*
X2443095Y-11505571D01*
X2452619Y-11486524D01*
X2462143Y-11477000D01*
X2481190Y-11467476D01*
X2614524Y-11467476D02*
X2738333Y-11467476D01*
X2671667Y-11543667D01*
X2700238Y-11543667D01*
X2719286Y-11553190D01*
X2728810Y-11562714D01*
X2738333Y-11581762D01*
X2738333Y-11629381D01*
X2728810Y-11648428D01*
X2719286Y-11657952D01*
X2700238Y-11667476D01*
X2643095Y-11667476D01*
X2624048Y-11657952D01*
X2614524Y-11648428D01*
X2862143Y-11467476D02*
X2881190Y-11467476D01*
X2900238Y-11477000D01*
X2909762Y-11486524D01*
X2919286Y-11505571D01*
X2928809Y-11543667D01*
X2928809Y-11591286D01*
X2919286Y-11629381D01*
X2909762Y-11648428D01*
X2900238Y-11657952D01*
X2881190Y-11667476D01*
X2862143Y-11667476D01*
X2843095Y-11657952D01*
X2833571Y-11648428D01*
X2824048Y-11629381D01*
X2814524Y-11591286D01*
X2814524Y-11543667D01*
X2824048Y-11505571D01*
X2833571Y-11486524D01*
X2843095Y-11477000D01*
X2862143Y-11467476D01*
X3052619Y-11467476D02*
X3071667Y-11467476D01*
X3090714Y-11477000D01*
X3100238Y-11486524D01*
X3109762Y-11505571D01*
X3119286Y-11543667D01*
X3119286Y-11591286D01*
X3109762Y-11629381D01*
X3100238Y-11648428D01*
X3090714Y-11657952D01*
X3071667Y-11667476D01*
X3052619Y-11667476D01*
X3033571Y-11657952D01*
X3024048Y-11648428D01*
X3014524Y-11629381D01*
X3005000Y-11591286D01*
X3005000Y-11543667D01*
X3014524Y-11505571D01*
X3024048Y-11486524D01*
X3033571Y-11477000D01*
X3052619Y-11467476D01*
X3195476Y-11467476D02*
X3195476Y-11505571D01*
X3271667Y-11467476D02*
X3271667Y-11505571D01*
X3566905Y-11743667D02*
X3557381Y-11734143D01*
X3538333Y-11705571D01*
X3528809Y-11686524D01*
X3519286Y-11657952D01*
X3509762Y-11610333D01*
X3509762Y-11572238D01*
X3519286Y-11524619D01*
X3528809Y-11496048D01*
X3538333Y-11477000D01*
X3557381Y-11448428D01*
X3566905Y-11438905D01*
X3633571Y-11486524D02*
X3643095Y-11477000D01*
X3662143Y-11467476D01*
X3709762Y-11467476D01*
X3728809Y-11477000D01*
X3738333Y-11486524D01*
X3747857Y-11505571D01*
X3747857Y-11524619D01*
X3738333Y-11553190D01*
X3624048Y-11667476D01*
X3747857Y-11667476D01*
X3814524Y-11467476D02*
X3947857Y-11467476D01*
X3862143Y-11667476D01*
X4176428Y-11667476D02*
X4176428Y-11467476D01*
X4262143Y-11667476D02*
X4262143Y-11562714D01*
X4252619Y-11543667D01*
X4233571Y-11534143D01*
X4205000Y-11534143D01*
X4185952Y-11543667D01*
X4176428Y-11553190D01*
X4385952Y-11667476D02*
X4366905Y-11657952D01*
X4357381Y-11648428D01*
X4347857Y-11629381D01*
X4347857Y-11572238D01*
X4357381Y-11553190D01*
X4366905Y-11543667D01*
X4385952Y-11534143D01*
X4414524Y-11534143D01*
X4433571Y-11543667D01*
X4443095Y-11553190D01*
X4452619Y-11572238D01*
X4452619Y-11629381D01*
X4443095Y-11648428D01*
X4433571Y-11657952D01*
X4414524Y-11667476D01*
X4385952Y-11667476D01*
X4566905Y-11667476D02*
X4547857Y-11657952D01*
X4538333Y-11638905D01*
X4538333Y-11467476D01*
X4719286Y-11657952D02*
X4700238Y-11667476D01*
X4662143Y-11667476D01*
X4643095Y-11657952D01*
X4633571Y-11638905D01*
X4633571Y-11562714D01*
X4643095Y-11543667D01*
X4662143Y-11534143D01*
X4700238Y-11534143D01*
X4719286Y-11543667D01*
X4728810Y-11562714D01*
X4728810Y-11581762D01*
X4633571Y-11600809D01*
X4805000Y-11657952D02*
X4824048Y-11667476D01*
X4862143Y-11667476D01*
X4881190Y-11657952D01*
X4890714Y-11638905D01*
X4890714Y-11629381D01*
X4881190Y-11610333D01*
X4862143Y-11600809D01*
X4833571Y-11600809D01*
X4814524Y-11591286D01*
X4805000Y-11572238D01*
X4805000Y-11562714D01*
X4814524Y-11543667D01*
X4833571Y-11534143D01*
X4862143Y-11534143D01*
X4881190Y-11543667D01*
X4957381Y-11743667D02*
X4966905Y-11734143D01*
X4985952Y-11705571D01*
X4995476Y-11686524D01*
X5005000Y-11657952D01*
X5014524Y-11610333D01*
X5014524Y-11572238D01*
X5005000Y-11524619D01*
X4995476Y-11496048D01*
X4985952Y-11477000D01*
X4966905Y-11448428D01*
X4957381Y-11438905D01*
D14*
X-45000Y-11801000D02*
X-45000Y-11881000D01*
X-85000Y-11841000D02*
X-5000Y-11841000D01*
D11*
X290714Y-11731476D02*
X309762Y-11731476D01*
X328810Y-11741000D01*
X338333Y-11750524D01*
X347857Y-11769571D01*
X357381Y-11807667D01*
X357381Y-11855286D01*
X347857Y-11893381D01*
X338333Y-11912428D01*
X328810Y-11921952D01*
X309762Y-11931476D01*
X290714Y-11931476D01*
X271667Y-11921952D01*
X262143Y-11912428D01*
X252619Y-11893381D01*
X243095Y-11855286D01*
X243095Y-11807667D01*
X252619Y-11769571D01*
X262143Y-11750524D01*
X271667Y-11741000D01*
X290714Y-11731476D01*
X443095Y-11912428D02*
X452619Y-11921952D01*
X443095Y-11931476D01*
X433571Y-11921952D01*
X443095Y-11912428D01*
X443095Y-11931476D01*
X566905Y-11817190D02*
X547857Y-11807667D01*
X538333Y-11798143D01*
X528810Y-11779095D01*
X528810Y-11769571D01*
X538333Y-11750524D01*
X547857Y-11741000D01*
X566905Y-11731476D01*
X605000Y-11731476D01*
X624048Y-11741000D01*
X633571Y-11750524D01*
X643095Y-11769571D01*
X643095Y-11779095D01*
X633571Y-11798143D01*
X624048Y-11807667D01*
X605000Y-11817190D01*
X566905Y-11817190D01*
X547857Y-11826714D01*
X538333Y-11836238D01*
X528810Y-11855286D01*
X528810Y-11893381D01*
X538333Y-11912428D01*
X547857Y-11921952D01*
X566905Y-11931476D01*
X605000Y-11931476D01*
X624048Y-11921952D01*
X633571Y-11912428D01*
X643095Y-11893381D01*
X643095Y-11855286D01*
X633571Y-11836238D01*
X624048Y-11826714D01*
X605000Y-11817190D01*
X766905Y-11731476D02*
X785952Y-11731476D01*
X805000Y-11741000D01*
X814524Y-11750524D01*
X824048Y-11769571D01*
X833571Y-11807667D01*
X833571Y-11855286D01*
X824048Y-11893381D01*
X814524Y-11912428D01*
X805000Y-11921952D01*
X785952Y-11931476D01*
X766905Y-11931476D01*
X747857Y-11921952D01*
X738333Y-11912428D01*
X728809Y-11893381D01*
X719286Y-11855286D01*
X719286Y-11807667D01*
X728809Y-11769571D01*
X738333Y-11750524D01*
X747857Y-11741000D01*
X766905Y-11731476D01*
X957381Y-11731476D02*
X976428Y-11731476D01*
X995476Y-11741000D01*
X1005000Y-11750524D01*
X1014524Y-11769571D01*
X1024048Y-11807667D01*
X1024048Y-11855286D01*
X1014524Y-11893381D01*
X1005000Y-11912428D01*
X995476Y-11921952D01*
X976428Y-11931476D01*
X957381Y-11931476D01*
X938333Y-11921952D01*
X928809Y-11912428D01*
X919286Y-11893381D01*
X909762Y-11855286D01*
X909762Y-11807667D01*
X919286Y-11769571D01*
X928809Y-11750524D01*
X938333Y-11741000D01*
X957381Y-11731476D01*
X1109762Y-11931476D02*
X1109762Y-11798143D01*
X1109762Y-11817190D02*
X1119286Y-11807667D01*
X1138333Y-11798143D01*
X1166905Y-11798143D01*
X1185952Y-11807667D01*
X1195476Y-11826714D01*
X1195476Y-11931476D01*
X1195476Y-11826714D02*
X1205000Y-11807667D01*
X1224048Y-11798143D01*
X1252619Y-11798143D01*
X1271667Y-11807667D01*
X1281190Y-11826714D01*
X1281190Y-11931476D01*
X1376429Y-11931476D02*
X1376429Y-11798143D01*
X1376429Y-11817190D02*
X1385952Y-11807667D01*
X1405000Y-11798143D01*
X1433571Y-11798143D01*
X1452619Y-11807667D01*
X1462143Y-11826714D01*
X1462143Y-11931476D01*
X1462143Y-11826714D02*
X1471667Y-11807667D01*
X1490714Y-11798143D01*
X1519286Y-11798143D01*
X1538333Y-11807667D01*
X1547857Y-11826714D01*
X1547857Y-11931476D01*
X1938333Y-11721952D02*
X1766905Y-11979095D01*
X2195476Y-11731476D02*
X2214524Y-11731476D01*
X2233571Y-11741000D01*
X2243095Y-11750524D01*
X2252619Y-11769571D01*
X2262143Y-11807667D01*
X2262143Y-11855286D01*
X2252619Y-11893381D01*
X2243095Y-11912428D01*
X2233571Y-11921952D01*
X2214524Y-11931476D01*
X2195476Y-11931476D01*
X2176429Y-11921952D01*
X2166905Y-11912428D01*
X2157381Y-11893381D01*
X2147857Y-11855286D01*
X2147857Y-11807667D01*
X2157381Y-11769571D01*
X2166905Y-11750524D01*
X2176429Y-11741000D01*
X2195476Y-11731476D01*
X2347857Y-11912428D02*
X2357381Y-11921952D01*
X2347857Y-11931476D01*
X2338333Y-11921952D01*
X2347857Y-11912428D01*
X2347857Y-11931476D01*
X2481190Y-11731476D02*
X2500238Y-11731476D01*
X2519286Y-11741000D01*
X2528810Y-11750524D01*
X2538333Y-11769571D01*
X2547857Y-11807667D01*
X2547857Y-11855286D01*
X2538333Y-11893381D01*
X2528810Y-11912428D01*
X2519286Y-11921952D01*
X2500238Y-11931476D01*
X2481190Y-11931476D01*
X2462143Y-11921952D01*
X2452619Y-11912428D01*
X2443095Y-11893381D01*
X2433571Y-11855286D01*
X2433571Y-11807667D01*
X2443095Y-11769571D01*
X2452619Y-11750524D01*
X2462143Y-11741000D01*
X2481190Y-11731476D01*
X2614524Y-11731476D02*
X2738333Y-11731476D01*
X2671667Y-11807667D01*
X2700238Y-11807667D01*
X2719286Y-11817190D01*
X2728810Y-11826714D01*
X2738333Y-11845762D01*
X2738333Y-11893381D01*
X2728810Y-11912428D01*
X2719286Y-11921952D01*
X2700238Y-11931476D01*
X2643095Y-11931476D01*
X2624048Y-11921952D01*
X2614524Y-11912428D01*
X2928809Y-11931476D02*
X2814524Y-11931476D01*
X2871667Y-11931476D02*
X2871667Y-11731476D01*
X2852619Y-11760048D01*
X2833571Y-11779095D01*
X2814524Y-11788619D01*
X3109762Y-11731476D02*
X3014524Y-11731476D01*
X3005000Y-11826714D01*
X3014524Y-11817190D01*
X3033571Y-11807667D01*
X3081190Y-11807667D01*
X3100238Y-11817190D01*
X3109762Y-11826714D01*
X3119286Y-11845762D01*
X3119286Y-11893381D01*
X3109762Y-11912428D01*
X3100238Y-11921952D01*
X3081190Y-11931476D01*
X3033571Y-11931476D01*
X3014524Y-11921952D01*
X3005000Y-11912428D01*
X3195476Y-11731476D02*
X3195476Y-11769571D01*
X3271667Y-11731476D02*
X3271667Y-11769571D01*
X3566905Y-12007667D02*
X3557381Y-11998143D01*
X3538333Y-11969571D01*
X3528809Y-11950524D01*
X3519286Y-11921952D01*
X3509762Y-11874333D01*
X3509762Y-11836238D01*
X3519286Y-11788619D01*
X3528809Y-11760048D01*
X3538333Y-11741000D01*
X3557381Y-11712428D01*
X3566905Y-11702905D01*
X3633571Y-11750524D02*
X3643095Y-11741000D01*
X3662143Y-11731476D01*
X3709762Y-11731476D01*
X3728809Y-11741000D01*
X3738333Y-11750524D01*
X3747857Y-11769571D01*
X3747857Y-11788619D01*
X3738333Y-11817190D01*
X3624048Y-11931476D01*
X3747857Y-11931476D01*
X3824048Y-11750524D02*
X3833571Y-11741000D01*
X3852619Y-11731476D01*
X3900238Y-11731476D01*
X3919286Y-11741000D01*
X3928809Y-11750524D01*
X3938333Y-11769571D01*
X3938333Y-11788619D01*
X3928809Y-11817190D01*
X3814524Y-11931476D01*
X3938333Y-11931476D01*
X4176428Y-11931476D02*
X4176428Y-11731476D01*
X4262143Y-11931476D02*
X4262143Y-11826714D01*
X4252619Y-11807667D01*
X4233571Y-11798143D01*
X4205000Y-11798143D01*
X4185952Y-11807667D01*
X4176428Y-11817190D01*
X4385952Y-11931476D02*
X4366905Y-11921952D01*
X4357381Y-11912428D01*
X4347857Y-11893381D01*
X4347857Y-11836238D01*
X4357381Y-11817190D01*
X4366905Y-11807667D01*
X4385952Y-11798143D01*
X4414524Y-11798143D01*
X4433571Y-11807667D01*
X4443095Y-11817190D01*
X4452619Y-11836238D01*
X4452619Y-11893381D01*
X4443095Y-11912428D01*
X4433571Y-11921952D01*
X4414524Y-11931476D01*
X4385952Y-11931476D01*
X4566905Y-11931476D02*
X4547857Y-11921952D01*
X4538333Y-11902905D01*
X4538333Y-11731476D01*
X4719286Y-11921952D02*
X4700238Y-11931476D01*
X4662143Y-11931476D01*
X4643095Y-11921952D01*
X4633571Y-11902905D01*
X4633571Y-11826714D01*
X4643095Y-11807667D01*
X4662143Y-11798143D01*
X4700238Y-11798143D01*
X4719286Y-11807667D01*
X4728810Y-11826714D01*
X4728810Y-11845762D01*
X4633571Y-11864809D01*
X4805000Y-11921952D02*
X4824048Y-11931476D01*
X4862143Y-11931476D01*
X4881190Y-11921952D01*
X4890714Y-11902905D01*
X4890714Y-11893381D01*
X4881190Y-11874333D01*
X4862143Y-11864809D01*
X4833571Y-11864809D01*
X4814524Y-11855286D01*
X4805000Y-11836238D01*
X4805000Y-11826714D01*
X4814524Y-11807667D01*
X4833571Y-11798143D01*
X4862143Y-11798143D01*
X4881190Y-11807667D01*
X4957381Y-12007667D02*
X4966905Y-11998143D01*
X4985952Y-11969571D01*
X4995476Y-11950524D01*
X5005000Y-11921952D01*
X5014524Y-11874333D01*
X5014524Y-11836238D01*
X5005000Y-11788619D01*
X4995476Y-11760048D01*
X4985952Y-11741000D01*
X4966905Y-11712428D01*
X4957381Y-11702905D01*
D15*
X-18180Y-12136820D02*
X-18180Y-12073180D01*
X-81820Y-12073180D01*
X-81820Y-12136820D01*
X-18180Y-12136820D01*
D11*
X290714Y-11995476D02*
X309762Y-11995476D01*
X328810Y-12005000D01*
X338333Y-12014524D01*
X347857Y-12033571D01*
X357381Y-12071667D01*
X357381Y-12119286D01*
X347857Y-12157381D01*
X338333Y-12176428D01*
X328810Y-12185952D01*
X309762Y-12195476D01*
X290714Y-12195476D01*
X271667Y-12185952D01*
X262143Y-12176428D01*
X252619Y-12157381D01*
X243095Y-12119286D01*
X243095Y-12071667D01*
X252619Y-12033571D01*
X262143Y-12014524D01*
X271667Y-12005000D01*
X290714Y-11995476D01*
X443095Y-12176428D02*
X452619Y-12185952D01*
X443095Y-12195476D01*
X433571Y-12185952D01*
X443095Y-12176428D01*
X443095Y-12195476D01*
X547857Y-12195476D02*
X585952Y-12195476D01*
X605000Y-12185952D01*
X614524Y-12176428D01*
X633571Y-12147857D01*
X643095Y-12109762D01*
X643095Y-12033571D01*
X633571Y-12014524D01*
X624048Y-12005000D01*
X605000Y-11995476D01*
X566905Y-11995476D01*
X547857Y-12005000D01*
X538333Y-12014524D01*
X528810Y-12033571D01*
X528810Y-12081190D01*
X538333Y-12100238D01*
X547857Y-12109762D01*
X566905Y-12119286D01*
X605000Y-12119286D01*
X624048Y-12109762D01*
X633571Y-12100238D01*
X643095Y-12081190D01*
X766905Y-11995476D02*
X785952Y-11995476D01*
X805000Y-12005000D01*
X814524Y-12014524D01*
X824048Y-12033571D01*
X833571Y-12071667D01*
X833571Y-12119286D01*
X824048Y-12157381D01*
X814524Y-12176428D01*
X805000Y-12185952D01*
X785952Y-12195476D01*
X766905Y-12195476D01*
X747857Y-12185952D01*
X738333Y-12176428D01*
X728809Y-12157381D01*
X719286Y-12119286D01*
X719286Y-12071667D01*
X728809Y-12033571D01*
X738333Y-12014524D01*
X747857Y-12005000D01*
X766905Y-11995476D01*
X957381Y-11995476D02*
X976428Y-11995476D01*
X995476Y-12005000D01*
X1005000Y-12014524D01*
X1014524Y-12033571D01*
X1024048Y-12071667D01*
X1024048Y-12119286D01*
X1014524Y-12157381D01*
X1005000Y-12176428D01*
X995476Y-12185952D01*
X976428Y-12195476D01*
X957381Y-12195476D01*
X938333Y-12185952D01*
X928809Y-12176428D01*
X919286Y-12157381D01*
X909762Y-12119286D01*
X909762Y-12071667D01*
X919286Y-12033571D01*
X928809Y-12014524D01*
X938333Y-12005000D01*
X957381Y-11995476D01*
X1109762Y-12195476D02*
X1109762Y-12062143D01*
X1109762Y-12081190D02*
X1119286Y-12071667D01*
X1138333Y-12062143D01*
X1166905Y-12062143D01*
X1185952Y-12071667D01*
X1195476Y-12090714D01*
X1195476Y-12195476D01*
X1195476Y-12090714D02*
X1205000Y-12071667D01*
X1224048Y-12062143D01*
X1252619Y-12062143D01*
X1271667Y-12071667D01*
X1281190Y-12090714D01*
X1281190Y-12195476D01*
X1376429Y-12195476D02*
X1376429Y-12062143D01*
X1376429Y-12081190D02*
X1385952Y-12071667D01*
X1405000Y-12062143D01*
X1433571Y-12062143D01*
X1452619Y-12071667D01*
X1462143Y-12090714D01*
X1462143Y-12195476D01*
X1462143Y-12090714D02*
X1471667Y-12071667D01*
X1490714Y-12062143D01*
X1519286Y-12062143D01*
X1538333Y-12071667D01*
X1547857Y-12090714D01*
X1547857Y-12195476D01*
X1938333Y-11985952D02*
X1766905Y-12243095D01*
X2195476Y-11995476D02*
X2214524Y-11995476D01*
X2233571Y-12005000D01*
X2243095Y-12014524D01*
X2252619Y-12033571D01*
X2262143Y-12071667D01*
X2262143Y-12119286D01*
X2252619Y-12157381D01*
X2243095Y-12176428D01*
X2233571Y-12185952D01*
X2214524Y-12195476D01*
X2195476Y-12195476D01*
X2176429Y-12185952D01*
X2166905Y-12176428D01*
X2157381Y-12157381D01*
X2147857Y-12119286D01*
X2147857Y-12071667D01*
X2157381Y-12033571D01*
X2166905Y-12014524D01*
X2176429Y-12005000D01*
X2195476Y-11995476D01*
X2347857Y-12176428D02*
X2357381Y-12185952D01*
X2347857Y-12195476D01*
X2338333Y-12185952D01*
X2347857Y-12176428D01*
X2347857Y-12195476D01*
X2481190Y-11995476D02*
X2500238Y-11995476D01*
X2519286Y-12005000D01*
X2528810Y-12014524D01*
X2538333Y-12033571D01*
X2547857Y-12071667D01*
X2547857Y-12119286D01*
X2538333Y-12157381D01*
X2528810Y-12176428D01*
X2519286Y-12185952D01*
X2500238Y-12195476D01*
X2481190Y-12195476D01*
X2462143Y-12185952D01*
X2452619Y-12176428D01*
X2443095Y-12157381D01*
X2433571Y-12119286D01*
X2433571Y-12071667D01*
X2443095Y-12033571D01*
X2452619Y-12014524D01*
X2462143Y-12005000D01*
X2481190Y-11995476D01*
X2614524Y-11995476D02*
X2738333Y-11995476D01*
X2671667Y-12071667D01*
X2700238Y-12071667D01*
X2719286Y-12081190D01*
X2728810Y-12090714D01*
X2738333Y-12109762D01*
X2738333Y-12157381D01*
X2728810Y-12176428D01*
X2719286Y-12185952D01*
X2700238Y-12195476D01*
X2643095Y-12195476D01*
X2624048Y-12185952D01*
X2614524Y-12176428D01*
X2919286Y-11995476D02*
X2824048Y-11995476D01*
X2814524Y-12090714D01*
X2824048Y-12081190D01*
X2843095Y-12071667D01*
X2890714Y-12071667D01*
X2909762Y-12081190D01*
X2919286Y-12090714D01*
X2928809Y-12109762D01*
X2928809Y-12157381D01*
X2919286Y-12176428D01*
X2909762Y-12185952D01*
X2890714Y-12195476D01*
X2843095Y-12195476D01*
X2824048Y-12185952D01*
X2814524Y-12176428D01*
X3100238Y-12062143D02*
X3100238Y-12195476D01*
X3052619Y-11985952D02*
X3005000Y-12128809D01*
X3128809Y-12128809D01*
X3195476Y-11995476D02*
X3195476Y-12033571D01*
X3271667Y-11995476D02*
X3271667Y-12033571D01*
X3566905Y-12271667D02*
X3557381Y-12262143D01*
X3538333Y-12233571D01*
X3528809Y-12214524D01*
X3519286Y-12185952D01*
X3509762Y-12138333D01*
X3509762Y-12100238D01*
X3519286Y-12052619D01*
X3528809Y-12024048D01*
X3538333Y-12005000D01*
X3557381Y-11976428D01*
X3566905Y-11966905D01*
X3671667Y-12081190D02*
X3652619Y-12071667D01*
X3643095Y-12062143D01*
X3633571Y-12043095D01*
X3633571Y-12033571D01*
X3643095Y-12014524D01*
X3652619Y-12005000D01*
X3671667Y-11995476D01*
X3709762Y-11995476D01*
X3728809Y-12005000D01*
X3738333Y-12014524D01*
X3747857Y-12033571D01*
X3747857Y-12043095D01*
X3738333Y-12062143D01*
X3728809Y-12071667D01*
X3709762Y-12081190D01*
X3671667Y-12081190D01*
X3652619Y-12090714D01*
X3643095Y-12100238D01*
X3633571Y-12119286D01*
X3633571Y-12157381D01*
X3643095Y-12176428D01*
X3652619Y-12185952D01*
X3671667Y-12195476D01*
X3709762Y-12195476D01*
X3728809Y-12185952D01*
X3738333Y-12176428D01*
X3747857Y-12157381D01*
X3747857Y-12119286D01*
X3738333Y-12100238D01*
X3728809Y-12090714D01*
X3709762Y-12081190D01*
X3985952Y-12195476D02*
X3985952Y-11995476D01*
X4071667Y-12195476D02*
X4071667Y-12090714D01*
X4062143Y-12071667D01*
X4043095Y-12062143D01*
X4014524Y-12062143D01*
X3995476Y-12071667D01*
X3985952Y-12081190D01*
X4195476Y-12195476D02*
X4176428Y-12185952D01*
X4166905Y-12176428D01*
X4157381Y-12157381D01*
X4157381Y-12100238D01*
X4166905Y-12081190D01*
X4176428Y-12071667D01*
X4195476Y-12062143D01*
X4224048Y-12062143D01*
X4243095Y-12071667D01*
X4252619Y-12081190D01*
X4262143Y-12100238D01*
X4262143Y-12157381D01*
X4252619Y-12176428D01*
X4243095Y-12185952D01*
X4224048Y-12195476D01*
X4195476Y-12195476D01*
X4376429Y-12195476D02*
X4357381Y-12185952D01*
X4347857Y-12166905D01*
X4347857Y-11995476D01*
X4528810Y-12185952D02*
X4509762Y-12195476D01*
X4471667Y-12195476D01*
X4452619Y-12185952D01*
X4443095Y-12166905D01*
X4443095Y-12090714D01*
X4452619Y-12071667D01*
X4471667Y-12062143D01*
X4509762Y-12062143D01*
X4528810Y-12071667D01*
X4538333Y-12090714D01*
X4538333Y-12109762D01*
X4443095Y-12128809D01*
X4614524Y-12185952D02*
X4633571Y-12195476D01*
X4671667Y-12195476D01*
X4690714Y-12185952D01*
X4700238Y-12166905D01*
X4700238Y-12157381D01*
X4690714Y-12138333D01*
X4671667Y-12128809D01*
X4643095Y-12128809D01*
X4624048Y-12119286D01*
X4614524Y-12100238D01*
X4614524Y-12090714D01*
X4624048Y-12071667D01*
X4643095Y-12062143D01*
X4671667Y-12062143D01*
X4690714Y-12071667D01*
X4766905Y-12271667D02*
X4776429Y-12262143D01*
X4795476Y-12233571D01*
X4805000Y-12214524D01*
X4814524Y-12185952D01*
X4824048Y-12138333D01*
X4824048Y-12100238D01*
X4814524Y-12052619D01*
X4805000Y-12024048D01*
X4795476Y-12005000D01*
X4776429Y-11976428D01*
X4766905Y-11966905D01*
D16*
X-55000Y-12419000D02*
X-5000Y-12369000D01*
X-55000Y-12319000D01*
X-105000Y-12369000D01*
X-55000Y-12419000D01*
D11*
X357381Y-12459476D02*
X243095Y-12459476D01*
X300238Y-12459476D02*
X300238Y-12259476D01*
X281190Y-12288048D01*
X262143Y-12307095D01*
X243095Y-12316619D01*
X443095Y-12440428D02*
X452619Y-12449952D01*
X443095Y-12459476D01*
X433571Y-12449952D01*
X443095Y-12440428D01*
X443095Y-12459476D01*
X576429Y-12259476D02*
X595476Y-12259476D01*
X614524Y-12269000D01*
X624048Y-12278524D01*
X633571Y-12297571D01*
X643095Y-12335667D01*
X643095Y-12383286D01*
X633571Y-12421381D01*
X624048Y-12440428D01*
X614524Y-12449952D01*
X595476Y-12459476D01*
X576429Y-12459476D01*
X557381Y-12449952D01*
X547857Y-12440428D01*
X538333Y-12421381D01*
X528810Y-12383286D01*
X528810Y-12335667D01*
X538333Y-12297571D01*
X547857Y-12278524D01*
X557381Y-12269000D01*
X576429Y-12259476D01*
X766905Y-12259476D02*
X785952Y-12259476D01*
X805000Y-12269000D01*
X814524Y-12278524D01*
X824048Y-12297571D01*
X833571Y-12335667D01*
X833571Y-12383286D01*
X824048Y-12421381D01*
X814524Y-12440428D01*
X805000Y-12449952D01*
X785952Y-12459476D01*
X766905Y-12459476D01*
X747857Y-12449952D01*
X738333Y-12440428D01*
X728809Y-12421381D01*
X719286Y-12383286D01*
X719286Y-12335667D01*
X728809Y-12297571D01*
X738333Y-12278524D01*
X747857Y-12269000D01*
X766905Y-12259476D01*
X957381Y-12259476D02*
X976428Y-12259476D01*
X995476Y-12269000D01*
X1005000Y-12278524D01*
X1014524Y-12297571D01*
X1024048Y-12335667D01*
X1024048Y-12383286D01*
X1014524Y-12421381D01*
X1005000Y-12440428D01*
X995476Y-12449952D01*
X976428Y-12459476D01*
X957381Y-12459476D01*
X938333Y-12449952D01*
X928809Y-12440428D01*
X919286Y-12421381D01*
X909762Y-12383286D01*
X909762Y-12335667D01*
X919286Y-12297571D01*
X928809Y-12278524D01*
X938333Y-12269000D01*
X957381Y-12259476D01*
X1109762Y-12459476D02*
X1109762Y-12326143D01*
X1109762Y-12345190D02*
X1119286Y-12335667D01*
X1138333Y-12326143D01*
X1166905Y-12326143D01*
X1185952Y-12335667D01*
X1195476Y-12354714D01*
X1195476Y-12459476D01*
X1195476Y-12354714D02*
X1205000Y-12335667D01*
X1224048Y-12326143D01*
X1252619Y-12326143D01*
X1271667Y-12335667D01*
X1281190Y-12354714D01*
X1281190Y-12459476D01*
X1376429Y-12459476D02*
X1376429Y-12326143D01*
X1376429Y-12345190D02*
X1385952Y-12335667D01*
X1405000Y-12326143D01*
X1433571Y-12326143D01*
X1452619Y-12335667D01*
X1462143Y-12354714D01*
X1462143Y-12459476D01*
X1462143Y-12354714D02*
X1471667Y-12335667D01*
X1490714Y-12326143D01*
X1519286Y-12326143D01*
X1538333Y-12335667D01*
X1547857Y-12354714D01*
X1547857Y-12459476D01*
X1938333Y-12249952D02*
X1766905Y-12507095D01*
X2195476Y-12259476D02*
X2214524Y-12259476D01*
X2233571Y-12269000D01*
X2243095Y-12278524D01*
X2252619Y-12297571D01*
X2262143Y-12335667D01*
X2262143Y-12383286D01*
X2252619Y-12421381D01*
X2243095Y-12440428D01*
X2233571Y-12449952D01*
X2214524Y-12459476D01*
X2195476Y-12459476D01*
X2176429Y-12449952D01*
X2166905Y-12440428D01*
X2157381Y-12421381D01*
X2147857Y-12383286D01*
X2147857Y-12335667D01*
X2157381Y-12297571D01*
X2166905Y-12278524D01*
X2176429Y-12269000D01*
X2195476Y-12259476D01*
X2347857Y-12440428D02*
X2357381Y-12449952D01*
X2347857Y-12459476D01*
X2338333Y-12449952D01*
X2347857Y-12440428D01*
X2347857Y-12459476D01*
X2481190Y-12259476D02*
X2500238Y-12259476D01*
X2519286Y-12269000D01*
X2528810Y-12278524D01*
X2538333Y-12297571D01*
X2547857Y-12335667D01*
X2547857Y-12383286D01*
X2538333Y-12421381D01*
X2528810Y-12440428D01*
X2519286Y-12449952D01*
X2500238Y-12459476D01*
X2481190Y-12459476D01*
X2462143Y-12449952D01*
X2452619Y-12440428D01*
X2443095Y-12421381D01*
X2433571Y-12383286D01*
X2433571Y-12335667D01*
X2443095Y-12297571D01*
X2452619Y-12278524D01*
X2462143Y-12269000D01*
X2481190Y-12259476D01*
X2614524Y-12259476D02*
X2738333Y-12259476D01*
X2671667Y-12335667D01*
X2700238Y-12335667D01*
X2719286Y-12345190D01*
X2728810Y-12354714D01*
X2738333Y-12373762D01*
X2738333Y-12421381D01*
X2728810Y-12440428D01*
X2719286Y-12449952D01*
X2700238Y-12459476D01*
X2643095Y-12459476D01*
X2624048Y-12449952D01*
X2614524Y-12440428D01*
X2833571Y-12459476D02*
X2871667Y-12459476D01*
X2890714Y-12449952D01*
X2900238Y-12440428D01*
X2919286Y-12411857D01*
X2928809Y-12373762D01*
X2928809Y-12297571D01*
X2919286Y-12278524D01*
X2909762Y-12269000D01*
X2890714Y-12259476D01*
X2852619Y-12259476D01*
X2833571Y-12269000D01*
X2824048Y-12278524D01*
X2814524Y-12297571D01*
X2814524Y-12345190D01*
X2824048Y-12364238D01*
X2833571Y-12373762D01*
X2852619Y-12383286D01*
X2890714Y-12383286D01*
X2909762Y-12373762D01*
X2919286Y-12364238D01*
X2928809Y-12345190D01*
X3100238Y-12326143D02*
X3100238Y-12459476D01*
X3052619Y-12249952D02*
X3005000Y-12392809D01*
X3128809Y-12392809D01*
X3195476Y-12259476D02*
X3195476Y-12297571D01*
X3271667Y-12259476D02*
X3271667Y-12297571D01*
X3566905Y-12535667D02*
X3557381Y-12526143D01*
X3538333Y-12497571D01*
X3528809Y-12478524D01*
X3519286Y-12449952D01*
X3509762Y-12402333D01*
X3509762Y-12364238D01*
X3519286Y-12316619D01*
X3528809Y-12288048D01*
X3538333Y-12269000D01*
X3557381Y-12240428D01*
X3566905Y-12230905D01*
X3747857Y-12459476D02*
X3633571Y-12459476D01*
X3690714Y-12459476D02*
X3690714Y-12259476D01*
X3671667Y-12288048D01*
X3652619Y-12307095D01*
X3633571Y-12316619D01*
X3814524Y-12259476D02*
X3947857Y-12259476D01*
X3862143Y-12459476D01*
X4176428Y-12459476D02*
X4176428Y-12259476D01*
X4262143Y-12459476D02*
X4262143Y-12354714D01*
X4252619Y-12335667D01*
X4233571Y-12326143D01*
X4205000Y-12326143D01*
X4185952Y-12335667D01*
X4176428Y-12345190D01*
X4385952Y-12459476D02*
X4366905Y-12449952D01*
X4357381Y-12440428D01*
X4347857Y-12421381D01*
X4347857Y-12364238D01*
X4357381Y-12345190D01*
X4366905Y-12335667D01*
X4385952Y-12326143D01*
X4414524Y-12326143D01*
X4433571Y-12335667D01*
X4443095Y-12345190D01*
X4452619Y-12364238D01*
X4452619Y-12421381D01*
X4443095Y-12440428D01*
X4433571Y-12449952D01*
X4414524Y-12459476D01*
X4385952Y-12459476D01*
X4566905Y-12459476D02*
X4547857Y-12449952D01*
X4538333Y-12430905D01*
X4538333Y-12259476D01*
X4719286Y-12449952D02*
X4700238Y-12459476D01*
X4662143Y-12459476D01*
X4643095Y-12449952D01*
X4633571Y-12430905D01*
X4633571Y-12354714D01*
X4643095Y-12335667D01*
X4662143Y-12326143D01*
X4700238Y-12326143D01*
X4719286Y-12335667D01*
X4728810Y-12354714D01*
X4728810Y-12373762D01*
X4633571Y-12392809D01*
X4805000Y-12449952D02*
X4824048Y-12459476D01*
X4862143Y-12459476D01*
X4881190Y-12449952D01*
X4890714Y-12430905D01*
X4890714Y-12421381D01*
X4881190Y-12402333D01*
X4862143Y-12392809D01*
X4833571Y-12392809D01*
X4814524Y-12383286D01*
X4805000Y-12364238D01*
X4805000Y-12354714D01*
X4814524Y-12335667D01*
X4833571Y-12326143D01*
X4862143Y-12326143D01*
X4881190Y-12335667D01*
X4957381Y-12535667D02*
X4966905Y-12526143D01*
X4985952Y-12497571D01*
X4995476Y-12478524D01*
X5005000Y-12449952D01*
X5014524Y-12402333D01*
X5014524Y-12364238D01*
X5005000Y-12316619D01*
X4995476Y-12288048D01*
X4985952Y-12269000D01*
X4966905Y-12240428D01*
X4957381Y-12230905D01*
M02*
