G04 #@! TF.GenerationSoftware,KiCad,Pcbnew,(6.0.0)*
G04 #@! TF.CreationDate,2022-08-09T16:31:54+02:00*
G04 #@! TF.ProjectId,FG-VCO-(interface),46472d56-434f-42d2-9869-6e7465726661,rev?*
G04 #@! TF.SameCoordinates,Original*
G04 #@! TF.FileFunction,Legend,Bot*
G04 #@! TF.FilePolarity,Positive*
%FSLAX46Y46*%
G04 Gerber Fmt 4.6, Leading zero omitted, Abs format (unit mm)*
G04 Created by KiCad (PCBNEW (6.0.0)) date 2022-08-09 16:31:54*
%MOMM*%
%LPD*%
G01*
G04 APERTURE LIST*
%ADD10C,0.150000*%
%ADD11C,0.120000*%
%ADD12C,1.600000*%
%ADD13O,1.600000X1.600000*%
%ADD14C,3.000000*%
%ADD15O,1.500000X3.000000*%
%ADD16R,1.800000X1.800000*%
%ADD17C,1.800000*%
%ADD18C,3.200000*%
%ADD19C,1.524000*%
%ADD20O,3.000000X1.500000*%
%ADD21R,1.700000X1.700000*%
%ADD22O,1.700000X1.700000*%
G04 APERTURE END LIST*
D10*
X2079523Y-39227380D02*
X2079523Y-39941666D01*
X2127142Y-40084523D01*
X2222380Y-40179761D01*
X2365238Y-40227380D01*
X2460476Y-40227380D01*
X1079523Y-40227380D02*
X1650952Y-40227380D01*
X1365238Y-40227380D02*
X1365238Y-39227380D01*
X1460476Y-39370238D01*
X1555714Y-39465476D01*
X1650952Y-39513095D01*
X746190Y-39227380D02*
X127142Y-39227380D01*
X460476Y-39608333D01*
X317619Y-39608333D01*
X222380Y-39655952D01*
X174761Y-39703571D01*
X127142Y-39798809D01*
X127142Y-40036904D01*
X174761Y-40132142D01*
X222380Y-40179761D01*
X317619Y-40227380D01*
X603333Y-40227380D01*
X698571Y-40179761D01*
X746190Y-40132142D01*
X20028333Y-747380D02*
X20028333Y-1461666D01*
X20075952Y-1604523D01*
X20171190Y-1699761D01*
X20314047Y-1747380D01*
X20409285Y-1747380D01*
X19409285Y-1175952D02*
X19504523Y-1128333D01*
X19552142Y-1080714D01*
X19599761Y-985476D01*
X19599761Y-937857D01*
X19552142Y-842619D01*
X19504523Y-795000D01*
X19409285Y-747380D01*
X19218809Y-747380D01*
X19123571Y-795000D01*
X19075952Y-842619D01*
X19028333Y-937857D01*
X19028333Y-985476D01*
X19075952Y-1080714D01*
X19123571Y-1128333D01*
X19218809Y-1175952D01*
X19409285Y-1175952D01*
X19504523Y-1223571D01*
X19552142Y-1271190D01*
X19599761Y-1366428D01*
X19599761Y-1556904D01*
X19552142Y-1652142D01*
X19504523Y-1699761D01*
X19409285Y-1747380D01*
X19218809Y-1747380D01*
X19123571Y-1699761D01*
X19075952Y-1652142D01*
X19028333Y-1556904D01*
X19028333Y-1366428D01*
X19075952Y-1271190D01*
X19123571Y-1223571D01*
X19218809Y-1175952D01*
X23828333Y-45807380D02*
X23828333Y-46521666D01*
X23875952Y-46664523D01*
X23971190Y-46759761D01*
X24114047Y-46807380D01*
X24209285Y-46807380D01*
X23304523Y-46807380D02*
X23114047Y-46807380D01*
X23018809Y-46759761D01*
X22971190Y-46712142D01*
X22875952Y-46569285D01*
X22828333Y-46378809D01*
X22828333Y-45997857D01*
X22875952Y-45902619D01*
X22923571Y-45855000D01*
X23018809Y-45807380D01*
X23209285Y-45807380D01*
X23304523Y-45855000D01*
X23352142Y-45902619D01*
X23399761Y-45997857D01*
X23399761Y-46235952D01*
X23352142Y-46331190D01*
X23304523Y-46378809D01*
X23209285Y-46426428D01*
X23018809Y-46426428D01*
X22923571Y-46378809D01*
X22875952Y-46331190D01*
X22828333Y-46235952D01*
X2079523Y-7477380D02*
X2079523Y-8191666D01*
X2127142Y-8334523D01*
X2222380Y-8429761D01*
X2365238Y-8477380D01*
X2460476Y-8477380D01*
X1079523Y-8477380D02*
X1650952Y-8477380D01*
X1365238Y-8477380D02*
X1365238Y-7477380D01*
X1460476Y-7620238D01*
X1555714Y-7715476D01*
X1650952Y-7763095D01*
X460476Y-7477380D02*
X365238Y-7477380D01*
X270000Y-7525000D01*
X222380Y-7572619D01*
X174761Y-7667857D01*
X127142Y-7858333D01*
X127142Y-8096428D01*
X174761Y-8286904D01*
X222380Y-8382142D01*
X270000Y-8429761D01*
X365238Y-8477380D01*
X460476Y-8477380D01*
X555714Y-8429761D01*
X603333Y-8382142D01*
X650952Y-8286904D01*
X698571Y-8096428D01*
X698571Y-7858333D01*
X650952Y-7667857D01*
X603333Y-7572619D01*
X555714Y-7525000D01*
X460476Y-7477380D01*
D11*
X-60000Y-41215000D02*
X-60000Y-42545000D01*
X2600000Y-43815000D02*
X-60000Y-43815000D01*
X-60000Y-43815000D02*
X-60000Y-46415000D01*
X2600000Y-43815000D02*
X2600000Y-46415000D01*
X1270000Y-41215000D02*
X-60000Y-41215000D01*
X2600000Y-46415000D02*
X-60000Y-46415000D01*
X29210000Y60000D02*
X21530000Y60000D01*
X29210000Y-2600000D02*
X21530000Y-2600000D01*
X31810000Y-1270000D02*
X31810000Y60000D01*
X31810000Y60000D02*
X30480000Y60000D01*
X21530000Y-2600000D02*
X21530000Y60000D01*
X29210000Y-2600000D02*
X29210000Y60000D01*
X26670000Y-45660000D02*
X25340000Y-45660000D01*
X28000000Y-48260000D02*
X28000000Y-61020000D01*
X28000000Y-48260000D02*
X25340000Y-48260000D01*
X25340000Y-45660000D02*
X25340000Y-46990000D01*
X28000000Y-61020000D02*
X25340000Y-61020000D01*
X25340000Y-48260000D02*
X25340000Y-61020000D01*
X-60000Y-12065000D02*
X-60000Y-17205000D01*
X2600000Y-17205000D02*
X-60000Y-17205000D01*
X2600000Y-12065000D02*
X-60000Y-12065000D01*
X1270000Y-9465000D02*
X-60000Y-9465000D01*
X-60000Y-9465000D02*
X-60000Y-10795000D01*
X2600000Y-12065000D02*
X2600000Y-17205000D01*
%LPC*%
D12*
X20320000Y-31115000D03*
D13*
X10160000Y-31115000D03*
D12*
X20320000Y-24765000D03*
D13*
X10160000Y-24765000D03*
D14*
X47625000Y-59055000D03*
D15*
X42475000Y-59055000D03*
X50725000Y-59055000D03*
D14*
X5715000Y-69850000D03*
D15*
X10865000Y-69850000D03*
X2615000Y-69850000D03*
D16*
X24765000Y-87000000D03*
D17*
X24765000Y-84460000D03*
D14*
X47625000Y-80645000D03*
D15*
X42475000Y-80645000D03*
X50725000Y-80645000D03*
D12*
X29845000Y-15875000D03*
D13*
X40005000Y-15875000D03*
D12*
X29845000Y-102235000D03*
D13*
X40005000Y-102235000D03*
D12*
X20320000Y-90170000D03*
D13*
X10160000Y-90170000D03*
D14*
X5715000Y-102235000D03*
D15*
X10865000Y-102235000D03*
X2615000Y-102235000D03*
D12*
X10160000Y-6350000D03*
D13*
X20320000Y-6350000D03*
D12*
X10160000Y-27940000D03*
D13*
X20320000Y-27940000D03*
D18*
X3810000Y-3810000D03*
D19*
X31200000Y-30480000D03*
X31200000Y-27940000D03*
X31200000Y-25400000D03*
D20*
X38100000Y-23040000D03*
X38100000Y-32840000D03*
D19*
X31200000Y-52070000D03*
X31200000Y-49530000D03*
X31200000Y-46990000D03*
D20*
X38100000Y-44630000D03*
X38100000Y-54430000D03*
D21*
X52070000Y-8890000D03*
D19*
X17780000Y-85725000D03*
X15240000Y-85725000D03*
X12700000Y-85725000D03*
D14*
X47625000Y-37465000D03*
D15*
X42475000Y-37465000D03*
X50725000Y-37465000D03*
D14*
X47625000Y-15875000D03*
D15*
X42475000Y-15875000D03*
X50725000Y-15875000D03*
D12*
X29845000Y-37465000D03*
D13*
X40005000Y-37465000D03*
D19*
X8340000Y-19685000D03*
X8340000Y-17145000D03*
X8340000Y-14605000D03*
D20*
X15240000Y-22045000D03*
X15240000Y-12245000D03*
D19*
X31200000Y-95250000D03*
X31200000Y-92710000D03*
X31200000Y-90170000D03*
D20*
X38100000Y-87810000D03*
X38100000Y-97610000D03*
D12*
X29845000Y-59055000D03*
D13*
X40005000Y-59055000D03*
D16*
X5715000Y-84450000D03*
D17*
X5715000Y-86990000D03*
D19*
X8340000Y-62865000D03*
X8340000Y-60325000D03*
X8340000Y-57785000D03*
D20*
X15240000Y-65225000D03*
X15240000Y-55425000D03*
D12*
X10160000Y-81280000D03*
D13*
X20320000Y-81280000D03*
D14*
X47625000Y-102235000D03*
D15*
X42475000Y-102235000D03*
X50725000Y-102235000D03*
D16*
X13965000Y-2540000D03*
D17*
X16505000Y-2540000D03*
D21*
X1270000Y-86042500D03*
D18*
X26670000Y-102870000D03*
D19*
X31200000Y-8890000D03*
X31200000Y-6350000D03*
X31200000Y-3810000D03*
D20*
X38100000Y-11250000D03*
X38100000Y-1450000D03*
D12*
X29845000Y-80645000D03*
D13*
X40005000Y-80645000D03*
D19*
X8340000Y-41275000D03*
X8340000Y-38735000D03*
X8340000Y-36195000D03*
D20*
X15240000Y-43635000D03*
X15240000Y-33835000D03*
D18*
X49530000Y-3810000D03*
D16*
X6985000Y-27940000D03*
D17*
X4445000Y-27940000D03*
D19*
X31200000Y-73660000D03*
X31200000Y-71120000D03*
X31200000Y-68580000D03*
D20*
X38100000Y-76020000D03*
X38100000Y-66220000D03*
D21*
X1270000Y-42545000D03*
D22*
X1270000Y-45085000D03*
D21*
X30480000Y-1270000D03*
D22*
X27940000Y-1270000D03*
X25400000Y-1270000D03*
X22860000Y-1270000D03*
D21*
X26670000Y-46990000D03*
D22*
X26670000Y-49530000D03*
X26670000Y-52070000D03*
X26670000Y-54610000D03*
X26670000Y-57150000D03*
X26670000Y-59690000D03*
D21*
X1270000Y-10795000D03*
D22*
X1270000Y-13335000D03*
X1270000Y-15875000D03*
M02*
